<?xml version="1.0" encoding="UTF-8" standalone="no"?>
<!DOCTYPE svg PUBLIC "-//W3C//DTD SVG 1.1//EN"
 "http://www.w3.org/Graphics/SVG/1.1/DTD/svg11.dtd">
<!-- Generated by graphviz version 9.0.0 (20230911.1827)
 -->
<!-- Title: HC2H Pages: 1 -->
<svg width="1982pt" height="697pt"
 viewBox="0.00 0.00 1981.67 696.50" xmlns="http://www.w3.org/2000/svg" xmlns:xlink="http://www.w3.org/1999/xlink">
<g id="graph0" class="graph" transform="scale(1 1) rotate(0) translate(4 692.5)">
<title>HC2H</title>
<polygon fill="white" stroke="none" points="-4,4 -4,-692.5 1977.67,-692.5 1977.67,4 -4,4"/>
<text text-anchor="start" x="1574.17" y="-145.7" font-family="Helvetica,Arial,sans-serif" font-weight="bold" font-size="14.00">Two&#45;Handed Heavy Club Skill Progression &#45; Part 2/2</text>
<text text-anchor="start" x="1574.17" y="-117.7" font-family="Helvetica,Arial,sans-serif" font-size="14.00">Diagram by dznz based on Mark Wildman&#39;s teachings.</text>
<text text-anchor="start" x="1574.17" y="-89.7" font-family="Helvetica,Arial,sans-serif" font-size="14.00">Source: </text>
<text text-anchor="start" x="1627.42" y="-89.7" font-family="Helvetica,Arial,sans-serif" font-weight="bold" font-size="14.00">https://github.com/dznz/wildman&#45;skill&#45;trees</text>
<text text-anchor="start" x="1574.17" y="-61.7" font-family="Helvetica,Arial,sans-serif" font-size="14.00">More by Mark Wildman &#45; </text>
<text text-anchor="start" x="1730.17" y="-61.7" font-family="Helvetica,Arial,sans-serif" font-weight="bold" font-size="14.00">https://www.wildmanathletica.com</text>
<text text-anchor="start" x="1574.17" y="-33.7" font-family="Helvetica,Arial,sans-serif" font-style="italic" font-size="14.00">© 2023. This work is openly licensed with CC BY&#45;NC&#45;SA 4.0</text>
<text text-anchor="start" x="1642.42" y="-19.7" font-family="Helvetica,Arial,sans-serif" font-style="italic" font-size="14.00">http://creativecommons.org/licenses/by&#45;nc&#45;sa/4.0/</text>
<text text-anchor="start" x="1766.17" y="-5.7" font-family="Helvetica,Arial,sans-serif" font-size="14.00"> &#160;</text>
<!-- mov_cap -->
<g id="node1" class="node">
<title>mov_cap</title>
<g id="a_node1"><a xlink:href="https://www.youtube.com/watch?v=6kpEYglMJ1c" xlink:title="{{37|Clean &amp; Press}}">
<path fill="#ffff99" stroke="#b15928" d="M12,-546.6C12,-546.6 153.6,-546.6 153.6,-546.6 159.6,-546.6 165.6,-552.6 165.6,-558.6 165.6,-558.6 165.6,-579.9 165.6,-579.9 165.6,-585.9 159.6,-591.9 153.6,-591.9 153.6,-591.9 12,-591.9 12,-591.9 6,-591.9 0,-585.9 0,-579.9 0,-579.9 0,-558.6 0,-558.6 0,-552.6 6,-546.6 12,-546.6"/>
<text text-anchor="middle" x="22.65" y="-564.2" font-family="Helvetica,Arial,sans-serif" font-size="14.00">37</text>
<polyline fill="none" stroke="#b15928" points="45.3,-546.6 45.3,-591.9"/>
<text text-anchor="middle" x="105.45" y="-564.2" font-family="Helvetica,Arial,sans-serif" font-size="14.00">Clean &amp; Press</text>
</a>
</g>
</g>
<!-- mov_40_swipe -->
<g id="node2" class="node">
<title>mov_40_swipe</title>
<g id="a_node2"><a xlink:href="https://www.youtube.com/watch?v=nQ7npb0krRg" xlink:title="{{40|Technical Swipe}}">
<path fill="#ffff99" stroke="#b15928" d="M1557,-546.6C1557,-546.6 1710.6,-546.6 1710.6,-546.6 1716.6,-546.6 1722.6,-552.6 1722.6,-558.6 1722.6,-558.6 1722.6,-579.9 1722.6,-579.9 1722.6,-585.9 1716.6,-591.9 1710.6,-591.9 1710.6,-591.9 1557,-591.9 1557,-591.9 1551,-591.9 1545,-585.9 1545,-579.9 1545,-579.9 1545,-558.6 1545,-558.6 1545,-552.6 1551,-546.6 1557,-546.6"/>
<text text-anchor="middle" x="1567.65" y="-564.2" font-family="Helvetica,Arial,sans-serif" font-size="14.00">40</text>
<polyline fill="none" stroke="#b15928" points="1590.3,-546.6 1590.3,-591.9"/>
<text text-anchor="middle" x="1656.45" y="-564.2" font-family="Helvetica,Arial,sans-serif" font-size="14.00">Technical Swipe</text>
</a>
</g>
</g>
<!-- mov_kneelsc -->
<g id="node3" class="node">
<title>mov_kneelsc</title>
<g id="a_node3"><a xlink:href="https://www.youtube.com/watch?v=yHIEZN0Nl_U&amp;list=PLk4oYPJ7TXKiueHS7UMPv-DxNMK6UELds&amp;index=42" xlink:title="{{23|Half&#45;Kneeling Shield Cast}}">
<path fill="#fdbf6f" stroke="#ff7f00" d="M1160.92,-383C1160.92,-383 1346.67,-383 1346.67,-383 1352.67,-383 1358.67,-389 1358.67,-395 1358.67,-395 1358.67,-407 1358.67,-407 1358.67,-413 1352.67,-419 1346.67,-419 1346.67,-419 1160.92,-419 1160.92,-419 1154.92,-419 1148.92,-413 1148.92,-407 1148.92,-407 1148.92,-395 1148.92,-395 1148.92,-389 1154.92,-383 1160.92,-383"/>
<text text-anchor="middle" x="1165.17" y="-396.2" font-family="Helvetica,Arial,sans-serif" font-size="14.00">23</text>
<polyline fill="none" stroke="#ff7f00" points="1181.42,-383.5 1181.42,-419"/>
<text text-anchor="middle" x="1270.05" y="-396.2" font-family="Helvetica,Arial,sans-serif" font-size="14.00">Half&#45;Kneeling Shield Cast</text>
</a>
</g>
</g>
<!-- mov_sblungepull -->
<g id="node4" class="node">
<title>mov_sblungepull</title>
<g id="a_node4"><a xlink:href="https://www.youtube.com/watch?v=yHIEZN0Nl_U&amp;list=PLk4oYPJ7TXKiueHS7UMPv-DxNMK6UELds&amp;index=44" xlink:title="{{24|Step&#45;Back Lunge\nPullover at Top}}">
<path fill="#fdbf6f" stroke="#ff7f00" d="M938.8,-458.5C938.8,-458.5 1072.8,-458.5 1072.8,-458.5 1078.8,-458.5 1084.8,-464.5 1084.8,-470.5 1084.8,-470.5 1084.8,-487.5 1084.8,-487.5 1084.8,-493.5 1078.8,-499.5 1072.8,-499.5 1072.8,-499.5 938.8,-499.5 938.8,-499.5 932.8,-499.5 926.8,-493.5 926.8,-487.5 926.8,-487.5 926.8,-470.5 926.8,-470.5 926.8,-464.5 932.8,-458.5 938.8,-458.5"/>
<text text-anchor="middle" x="943.05" y="-473.95" font-family="Helvetica,Arial,sans-serif" font-size="14.00">24</text>
<polyline fill="none" stroke="#ff7f00" points="959.3,-458.5 959.3,-499.5"/>
<text text-anchor="middle" x="1022.05" y="-482.2" font-family="Helvetica,Arial,sans-serif" font-size="14.00">Step&#45;Back Lunge</text>
<text text-anchor="middle" x="1022.05" y="-465.7" font-family="Helvetica,Arial,sans-serif" font-size="14.00">Pullover at Top</text>
</a>
</g>
</g>
<!-- mov_sblungepullbot -->
<g id="node8" class="node">
<title>mov_sblungepullbot</title>
<g id="a_node8"><a xlink:href="https://www.youtube.com/watch?v=UpY9zHuTZds" xlink:title="{{28|Step&#45;Back Lunge\nPullover at Bottom}}">
<path fill="#fdbf6f" stroke="#ff7f00" d="M856.8,-380.5C856.8,-380.5 996.8,-380.5 996.8,-380.5 1002.8,-380.5 1008.8,-386.5 1008.8,-392.5 1008.8,-392.5 1008.8,-409.5 1008.8,-409.5 1008.8,-415.5 1002.8,-421.5 996.8,-421.5 996.8,-421.5 856.8,-421.5 856.8,-421.5 850.8,-421.5 844.8,-415.5 844.8,-409.5 844.8,-409.5 844.8,-392.5 844.8,-392.5 844.8,-386.5 850.8,-380.5 856.8,-380.5"/>
<text text-anchor="middle" x="861.05" y="-395.95" font-family="Helvetica,Arial,sans-serif" font-size="14.00">28</text>
<polyline fill="none" stroke="#ff7f00" points="877.3,-380.5 877.3,-421.5"/>
<text text-anchor="middle" x="943.05" y="-404.2" font-family="Helvetica,Arial,sans-serif" font-size="14.00">Step&#45;Back Lunge</text>
<text text-anchor="middle" x="943.05" y="-387.7" font-family="Helvetica,Arial,sans-serif" font-size="14.00">Pullover at Bottom</text>
</a>
</g>
</g>
<!-- mov_sblungepull&#45;&gt;mov_sblungepullbot -->
<g id="edge26" class="edge">
<title>mov_sblungepull&#45;&gt;mov_sblungepullbot</title>
<path fill="none" stroke="black" d="M985.04,-458.03C976.06,-449.39 965.4,-439.13 955.67,-429.77"/>
<polygon fill="black" stroke="black" points="958.14,-427.29 948.51,-422.88 953.29,-432.34 958.14,-427.29"/>
</g>
<!-- mov_fbpull -->
<g id="node5" class="node">
<title>mov_fbpull</title>
<g id="a_node5"><a xlink:href="https://www.youtube.com/watch?v=yHIEZN0Nl_U&amp;list=PLk4oYPJ7TXKiueHS7UMPv-DxNMK6UELds&amp;index=45" xlink:title="{{26|Flat Back Pullover}}">
<path fill="#fdbf6f" stroke="#ff7f00" d="M1600.92,-461C1600.92,-461 1738.67,-461 1738.67,-461 1744.67,-461 1750.67,-467 1750.67,-473 1750.67,-473 1750.67,-485 1750.67,-485 1750.67,-491 1744.67,-497 1738.67,-497 1738.67,-497 1600.92,-497 1600.92,-497 1594.92,-497 1588.92,-491 1588.92,-485 1588.92,-485 1588.92,-473 1588.92,-473 1588.92,-467 1594.92,-461 1600.92,-461"/>
<text text-anchor="middle" x="1605.17" y="-474.2" font-family="Helvetica,Arial,sans-serif" font-size="14.00">26</text>
<polyline fill="none" stroke="#ff7f00" points="1621.42,-461.5 1621.42,-497"/>
<text text-anchor="middle" x="1686.05" y="-474.2" font-family="Helvetica,Arial,sans-serif" font-size="14.00">Flat Back Pullover</text>
</a>
</g>
</g>
<!-- mov_fbpullsit -->
<g id="node7" class="node">
<title>mov_fbpullsit</title>
<g id="a_node7"><a xlink:href="https://www.youtube.com/watch?v=Ii2WZgl5mHA" xlink:title="{{27|Flat Back Pullover Situp}}">
<path fill="#fdbf6f" stroke="#ff7f00" d="M1582.92,-383C1582.92,-383 1756.67,-383 1756.67,-383 1762.67,-383 1768.67,-389 1768.67,-395 1768.67,-395 1768.67,-407 1768.67,-407 1768.67,-413 1762.67,-419 1756.67,-419 1756.67,-419 1582.92,-419 1582.92,-419 1576.92,-419 1570.92,-413 1570.92,-407 1570.92,-407 1570.92,-395 1570.92,-395 1570.92,-389 1576.92,-383 1582.92,-383"/>
<text text-anchor="middle" x="1587.17" y="-396.2" font-family="Helvetica,Arial,sans-serif" font-size="14.00">27</text>
<polyline fill="none" stroke="#ff7f00" points="1603.42,-383.5 1603.42,-419"/>
<text text-anchor="middle" x="1686.05" y="-396.2" font-family="Helvetica,Arial,sans-serif" font-size="14.00">Flat Back Pullover Situp</text>
</a>
</g>
</g>
<!-- mov_fbpull&#45;&gt;mov_fbpullsit -->
<g id="edge25" class="edge">
<title>mov_fbpull&#45;&gt;mov_fbpullsit</title>
<path fill="none" stroke="black" d="M1669.8,-460.75C1669.8,-451.88 1669.8,-440.82 1669.8,-430.7"/>
<polygon fill="black" stroke="black" points="1673.3,-430.95 1669.8,-420.95 1666.3,-430.95 1673.3,-430.95"/>
</g>
<!-- mov_kneelbackswing -->
<g id="node6" class="node">
<title>mov_kneelbackswing</title>
<g id="a_node6"><a xlink:href="https://www.youtube.com/watch?v=XH_HFWZQt4c" xlink:title="{{25|Half&#45;Kneeling\nBack Position Swing}}">
<path fill="#fdbf6f" stroke="#ff7f00" d="M1388.42,-380.5C1388.42,-380.5 1541.17,-380.5 1541.17,-380.5 1547.17,-380.5 1553.17,-386.5 1553.17,-392.5 1553.17,-392.5 1553.17,-409.5 1553.17,-409.5 1553.17,-415.5 1547.17,-421.5 1541.17,-421.5 1541.17,-421.5 1388.42,-421.5 1388.42,-421.5 1382.42,-421.5 1376.42,-415.5 1376.42,-409.5 1376.42,-409.5 1376.42,-392.5 1376.42,-392.5 1376.42,-386.5 1382.42,-380.5 1388.42,-380.5"/>
<text text-anchor="middle" x="1392.67" y="-395.95" font-family="Helvetica,Arial,sans-serif" font-size="14.00">25</text>
<polyline fill="none" stroke="#ff7f00" points="1408.92,-380.5 1408.92,-421.5"/>
<text text-anchor="middle" x="1481.05" y="-404.2" font-family="Helvetica,Arial,sans-serif" font-size="14.00">Half&#45;Kneeling</text>
<text text-anchor="middle" x="1481.05" y="-387.7" font-family="Helvetica,Arial,sans-serif" font-size="14.00">Back Position Swing</text>
</a>
</g>
</g>
<!-- mov_42_kneelpull -->
<g id="node20" class="node">
<title>mov_42_kneelpull</title>
<g id="a_node20"><a xlink:href="https://www.youtube.com/watch?v=FhIn5to6NmM" xlink:title="{{42|Half Kneeling\nPullover}}">
<path fill="#fdbf6f" stroke="#ff7f00" d="M1141.55,-302.5C1141.55,-302.5 1250.05,-302.5 1250.05,-302.5 1256.05,-302.5 1262.05,-308.5 1262.05,-314.5 1262.05,-314.5 1262.05,-331.5 1262.05,-331.5 1262.05,-337.5 1256.05,-343.5 1250.05,-343.5 1250.05,-343.5 1141.55,-343.5 1141.55,-343.5 1135.55,-343.5 1129.55,-337.5 1129.55,-331.5 1129.55,-331.5 1129.55,-314.5 1129.55,-314.5 1129.55,-308.5 1135.55,-302.5 1141.55,-302.5"/>
<text text-anchor="middle" x="1145.8" y="-317.95" font-family="Helvetica,Arial,sans-serif" font-size="14.00">42</text>
<polyline fill="none" stroke="#ff7f00" points="1162.05,-302.5 1162.05,-343.5"/>
<text text-anchor="middle" x="1212.05" y="-326.2" font-family="Helvetica,Arial,sans-serif" font-size="14.00">Half Kneeling</text>
<text text-anchor="middle" x="1212.05" y="-309.7" font-family="Helvetica,Arial,sans-serif" font-size="14.00">Pullover</text>
</a>
</g>
</g>
<!-- mov_kneelbackswing&#45;&gt;mov_42_kneelpull -->
<g id="edge33" class="edge">
<title>mov_kneelbackswing&#45;&gt;mov_42_kneelpull</title>
<path fill="none" stroke="black" d="M1394.12,-380.03C1357,-369.54 1311.44,-356.67 1273.35,-345.91"/>
<polygon fill="black" stroke="black" points="1274.34,-342.55 1263.76,-343.2 1272.43,-349.29 1274.34,-342.55"/>
</g>
<!-- mov_fbpullsitpress -->
<g id="node9" class="node">
<title>mov_fbpullsitpress</title>
<g id="a_node9"><a xlink:href="https://www.youtube.com/watch?v=8VL8tvinc28" xlink:title="{{29|Flat Back Pullover\nSitup Press}}">
<path fill="#fdbf6f" stroke="#ff7f00" d="M1600.92,-302.5C1600.92,-302.5 1738.67,-302.5 1738.67,-302.5 1744.67,-302.5 1750.67,-308.5 1750.67,-314.5 1750.67,-314.5 1750.67,-331.5 1750.67,-331.5 1750.67,-337.5 1744.67,-343.5 1738.67,-343.5 1738.67,-343.5 1600.92,-343.5 1600.92,-343.5 1594.92,-343.5 1588.92,-337.5 1588.92,-331.5 1588.92,-331.5 1588.92,-314.5 1588.92,-314.5 1588.92,-308.5 1594.92,-302.5 1600.92,-302.5"/>
<text text-anchor="middle" x="1605.17" y="-317.95" font-family="Helvetica,Arial,sans-serif" font-size="14.00">29</text>
<polyline fill="none" stroke="#ff7f00" points="1621.42,-302.5 1621.42,-343.5"/>
<text text-anchor="middle" x="1686.05" y="-326.2" font-family="Helvetica,Arial,sans-serif" font-size="14.00">Flat Back Pullover</text>
<text text-anchor="middle" x="1686.05" y="-309.7" font-family="Helvetica,Arial,sans-serif" font-size="14.00">Situp Press</text>
</a>
</g>
</g>
<!-- mov_fbpullsit&#45;&gt;mov_fbpullsitpress -->
<g id="edge27" class="edge">
<title>mov_fbpullsit&#45;&gt;mov_fbpullsitpress</title>
<path fill="none" stroke="black" d="M1669.8,-382.75C1669.8,-374.62 1669.8,-364.67 1669.8,-355.28"/>
<polygon fill="black" stroke="black" points="1673.3,-355.38 1669.8,-345.38 1666.3,-355.38 1673.3,-355.38"/>
</g>
<!-- mov_sblungepullsbpress -->
<g id="node12" class="node">
<title>mov_sblungepullsbpress</title>
<g id="a_node12"><a xlink:href="https://www.youtube.com/watch?v=1cXPBXfKNhU" xlink:title="{{35|Step&#45;Back Lunge Pullover\nStep&#45;Back Press}}">
<path fill="#fdbf6f" stroke="#ff7f00" d="M458.42,-302.5C458.42,-302.5 647.17,-302.5 647.17,-302.5 653.17,-302.5 659.17,-308.5 659.17,-314.5 659.17,-314.5 659.17,-331.5 659.17,-331.5 659.17,-337.5 653.17,-343.5 647.17,-343.5 647.17,-343.5 458.42,-343.5 458.42,-343.5 452.42,-343.5 446.42,-337.5 446.42,-331.5 446.42,-331.5 446.42,-314.5 446.42,-314.5 446.42,-308.5 452.42,-302.5 458.42,-302.5"/>
<text text-anchor="middle" x="462.67" y="-317.95" font-family="Helvetica,Arial,sans-serif" font-size="14.00">35</text>
<polyline fill="none" stroke="#ff7f00" points="478.92,-302.5 478.92,-343.5"/>
<text text-anchor="middle" x="569.05" y="-326.2" font-family="Helvetica,Arial,sans-serif" font-size="14.00">Step&#45;Back Lunge Pullover</text>
<text text-anchor="middle" x="569.05" y="-309.7" font-family="Helvetica,Arial,sans-serif" font-size="14.00">Step&#45;Back Press</text>
</a>
</g>
</g>
<!-- mov_sblungepullbot&#45;&gt;mov_sblungepullsbpress -->
<g id="edge30" class="edge">
<title>mov_sblungepullbot&#45;&gt;mov_sblungepullsbpress</title>
<path fill="none" stroke="black" d="M844.72,-383.32C791.09,-372.42 720.43,-358.06 662.07,-346.2"/>
<polygon fill="black" stroke="black" points="662.92,-342.81 652.43,-344.24 661.53,-349.67 662.92,-342.81"/>
</g>
<!-- mov_sblungepullbot&#45;&gt;mov_42_kneelpull -->
<g id="edge34" class="edge">
<title>mov_sblungepullbot&#45;&gt;mov_42_kneelpull</title>
<path fill="none" stroke="black" d="M997.48,-380.03C1034.6,-369.54 1080.16,-356.67 1118.25,-345.91"/>
<polygon fill="black" stroke="black" points="1119.17,-349.29 1127.84,-343.2 1117.26,-342.55 1119.17,-349.29"/>
</g>
<!-- mov_altshinbox -->
<g id="node10" class="node">
<title>mov_altshinbox</title>
<g id="a_node10"><a xlink:href="https://www.youtube.com/watch?v=jogIwgDj0KM" xlink:title="{{31|Balance\nAlternating Shin Box}}">
<path fill="#fdbf6f" stroke="#ff7f00" d="M1799.17,-380.5C1799.17,-380.5 1950.42,-380.5 1950.42,-380.5 1956.42,-380.5 1962.42,-386.5 1962.42,-392.5 1962.42,-392.5 1962.42,-409.5 1962.42,-409.5 1962.42,-415.5 1956.42,-421.5 1950.42,-421.5 1950.42,-421.5 1799.17,-421.5 1799.17,-421.5 1793.17,-421.5 1787.17,-415.5 1787.17,-409.5 1787.17,-409.5 1787.17,-392.5 1787.17,-392.5 1787.17,-386.5 1793.17,-380.5 1799.17,-380.5"/>
<text text-anchor="middle" x="1803.42" y="-395.95" font-family="Helvetica,Arial,sans-serif" font-size="14.00">31</text>
<polyline fill="none" stroke="#ff7f00" points="1819.67,-380.5 1819.67,-421.5"/>
<text text-anchor="middle" x="1891.05" y="-404.2" font-family="Helvetica,Arial,sans-serif" font-size="14.00">Balance</text>
<text text-anchor="middle" x="1891.05" y="-387.7" font-family="Helvetica,Arial,sans-serif" font-size="14.00">Alternating Shin Box</text>
</a>
</g>
</g>
<!-- mov_altshinboxfrpress -->
<g id="node11" class="node">
<title>mov_altshinboxfrpress</title>
<g id="a_node11"><a xlink:href="https://www.youtube.com/watch?v=D2AJzIVufeY&amp;list=PLk4oYPJ7TXKiueHS7UMPv-DxNMK6UELds&amp;index=47" xlink:title="{{33|Alt Shinbox Front Press}}">
<path fill="#fdbf6f" stroke="#ff7f00" d="M1787.92,-305C1787.92,-305 1961.67,-305 1961.67,-305 1967.67,-305 1973.67,-311 1973.67,-317 1973.67,-317 1973.67,-329 1973.67,-329 1973.67,-335 1967.67,-341 1961.67,-341 1961.67,-341 1787.92,-341 1787.92,-341 1781.92,-341 1775.92,-335 1775.92,-329 1775.92,-329 1775.92,-317 1775.92,-317 1775.92,-311 1781.92,-305 1787.92,-305"/>
<text text-anchor="middle" x="1792.17" y="-318.2" font-family="Helvetica,Arial,sans-serif" font-size="14.00">33</text>
<polyline fill="none" stroke="#ff7f00" points="1808.42,-305.5 1808.42,-341"/>
<text text-anchor="middle" x="1891.05" y="-318.2" font-family="Helvetica,Arial,sans-serif" font-size="14.00">Alt Shinbox Front Press</text>
</a>
</g>
</g>
<!-- mov_altshinbox&#45;&gt;mov_altshinboxfrpress -->
<g id="edge28" class="edge">
<title>mov_altshinbox&#45;&gt;mov_altshinboxfrpress</title>
<path fill="none" stroke="black" d="M1874.8,-380.03C1874.8,-371.65 1874.8,-361.75 1874.8,-352.62"/>
<polygon fill="black" stroke="black" points="1878.3,-352.77 1874.8,-342.77 1871.3,-352.77 1878.3,-352.77"/>
</g>
<!-- mov_squatpress -->
<g id="node13" class="node">
<title>mov_squatpress</title>
<g id="a_node13"><a xlink:href="https://www.youtube.com/watch?v=6p1niExqXSA" xlink:title="{{36|Squat Press}}">
<path fill="#fdbf6f" stroke="#ff7f00" d="M608.55,-551.25C608.55,-551.25 711.05,-551.25 711.05,-551.25 717.05,-551.25 723.05,-557.25 723.05,-563.25 723.05,-563.25 723.05,-575.25 723.05,-575.25 723.05,-581.25 717.05,-587.25 711.05,-587.25 711.05,-587.25 608.55,-587.25 608.55,-587.25 602.55,-587.25 596.55,-581.25 596.55,-575.25 596.55,-575.25 596.55,-563.25 596.55,-563.25 596.55,-557.25 602.55,-551.25 608.55,-551.25"/>
<text text-anchor="middle" x="612.8" y="-564.45" font-family="Helvetica,Arial,sans-serif" font-size="14.00">36</text>
<polyline fill="none" stroke="#ff7f00" points="629.05,-551.75 629.05,-587.25"/>
<text text-anchor="middle" x="676.05" y="-564.45" font-family="Helvetica,Arial,sans-serif" font-size="14.00">Squat Press</text>
</a>
</g>
</g>
<!-- mov_millprep -->
<g id="node14" class="node">
<title>mov_millprep</title>
<g id="a_node14"><a xlink:href="https://www.youtube.com/watch?v=G_OXuFs2bRs" xlink:title="{{38|Mill Prep}}">
<path fill="#fdbf6f" stroke="#ff7f00" d="M1039.17,-383C1039.17,-383 1118.42,-383 1118.42,-383 1124.42,-383 1130.42,-389 1130.42,-395 1130.42,-395 1130.42,-407 1130.42,-407 1130.42,-413 1124.42,-419 1118.42,-419 1118.42,-419 1039.17,-419 1039.17,-419 1033.17,-419 1027.17,-413 1027.17,-407 1027.17,-407 1027.17,-395 1027.17,-395 1027.17,-389 1033.17,-383 1039.17,-383"/>
<text text-anchor="middle" x="1043.42" y="-396.2" font-family="Helvetica,Arial,sans-serif" font-size="14.00">38</text>
<polyline fill="none" stroke="#ff7f00" points="1059.67,-383.5 1059.67,-419"/>
<text text-anchor="middle" x="1095.05" y="-396.2" font-family="Helvetica,Arial,sans-serif" font-size="14.00">Mill Prep</text>
</a>
</g>
</g>
<!-- mov_incirclesquat -->
<g id="node15" class="node">
<title>mov_incirclesquat</title>
<g id="a_node15"><a xlink:href="https://www.youtube.com/watch?v=icFHo5ufhUc" xlink:title="{{32|Inside Circle Squat}}">
<path fill="#fdbf6f" stroke="#ff7f00" d="M753.55,-551.25C753.55,-551.25 898.05,-551.25 898.05,-551.25 904.05,-551.25 910.05,-557.25 910.05,-563.25 910.05,-563.25 910.05,-575.25 910.05,-575.25 910.05,-581.25 904.05,-587.25 898.05,-587.25 898.05,-587.25 753.55,-587.25 753.55,-587.25 747.55,-587.25 741.55,-581.25 741.55,-575.25 741.55,-575.25 741.55,-563.25 741.55,-563.25 741.55,-557.25 747.55,-551.25 753.55,-551.25"/>
<text text-anchor="middle" x="757.8" y="-564.45" font-family="Helvetica,Arial,sans-serif" font-size="14.00">32</text>
<polyline fill="none" stroke="#ff7f00" points="774.05,-551.75 774.05,-587.25"/>
<text text-anchor="middle" x="842.05" y="-564.45" font-family="Helvetica,Arial,sans-serif" font-size="14.00">Inside Circle Squat</text>
</a>
</g>
</g>
<!-- mov_outcirclesquat -->
<g id="node16" class="node">
<title>mov_outcirclesquat</title>
<g id="a_node16"><a xlink:href="https://www.youtube.com/watch?v=z916C16iK54&amp;list=PLk4oYPJ7TXKiueHS7UMPv-DxNMK6UELds&amp;index=49" xlink:title="{{34|Outside Circle Squat}}">
<path fill="#fdbf6f" stroke="#ff7f00" d="M585.3,-461C585.3,-461 740.3,-461 740.3,-461 746.3,-461 752.3,-467 752.3,-473 752.3,-473 752.3,-485 752.3,-485 752.3,-491 746.3,-497 740.3,-497 740.3,-497 585.3,-497 585.3,-497 579.3,-497 573.3,-491 573.3,-485 573.3,-485 573.3,-473 573.3,-473 573.3,-467 579.3,-461 585.3,-461"/>
<text text-anchor="middle" x="589.55" y="-474.2" font-family="Helvetica,Arial,sans-serif" font-size="14.00">34</text>
<polyline fill="none" stroke="#ff7f00" points="605.8,-461.5 605.8,-497"/>
<text text-anchor="middle" x="679.05" y="-474.2" font-family="Helvetica,Arial,sans-serif" font-size="14.00">Outside Circle Squat</text>
</a>
</g>
</g>
<!-- mov_incirclesquat&#45;&gt;mov_outcirclesquat -->
<g id="edge29" class="edge">
<title>mov_incirclesquat&#45;&gt;mov_outcirclesquat</title>
<path fill="none" stroke="black" d="M793.6,-550.81C768.15,-537.04 732.42,-517.69 704.74,-502.71"/>
<polygon fill="black" stroke="black" points="706.73,-499.8 696.27,-498.12 703.4,-505.96 706.73,-499.8"/>
</g>
<!-- mov_39_pullsquat -->
<g id="node17" class="node">
<title>mov_39_pullsquat</title>
<g id="a_node17"><a xlink:href="https://www.youtube.com/watch?v=3yf3VO2sd-4" xlink:title="{{39|Pullover Squat}}">
<path fill="#fdbf6f" stroke="#ff7f00" d="M1113.8,-551.25C1113.8,-551.25 1229.8,-551.25 1229.8,-551.25 1235.8,-551.25 1241.8,-557.25 1241.8,-563.25 1241.8,-563.25 1241.8,-575.25 1241.8,-575.25 1241.8,-581.25 1235.8,-587.25 1229.8,-587.25 1229.8,-587.25 1113.8,-587.25 1113.8,-587.25 1107.8,-587.25 1101.8,-581.25 1101.8,-575.25 1101.8,-575.25 1101.8,-563.25 1101.8,-563.25 1101.8,-557.25 1107.8,-551.25 1113.8,-551.25"/>
<text text-anchor="middle" x="1118.05" y="-564.45" font-family="Helvetica,Arial,sans-serif" font-size="14.00">39</text>
<polyline fill="none" stroke="#ff7f00" points="1134.3,-551.75 1134.3,-587.25"/>
<text text-anchor="middle" x="1188.05" y="-564.45" font-family="Helvetica,Arial,sans-serif" font-size="14.00">Pullover Squat</text>
</a>
</g>
</g>
<!-- mov_sbfrontpress -->
<g id="node18" class="node">
<title>mov_sbfrontpress</title>
<path fill="#fdbf6f" stroke="#ff7f00" d="M195.67,-548.75C195.67,-548.75 337.92,-548.75 337.92,-548.75 343.92,-548.75 349.92,-554.75 349.92,-560.75 349.92,-560.75 349.92,-577.75 349.92,-577.75 349.92,-583.75 343.92,-589.75 337.92,-589.75 337.92,-589.75 195.67,-589.75 195.67,-589.75 189.67,-589.75 183.67,-583.75 183.67,-577.75 183.67,-577.75 183.67,-560.75 183.67,-560.75 183.67,-554.75 189.67,-548.75 195.67,-548.75"/>
<text text-anchor="middle" x="204.05" y="-564.2" font-family="Helvetica,Arial,sans-serif" font-size="14.00">30?</text>
<polyline fill="none" stroke="#ff7f00" points="224.42,-548.75 224.42,-589.75"/>
<text text-anchor="middle" x="287.17" y="-572.45" font-family="Helvetica,Arial,sans-serif" font-size="14.00">Step&#45;Back Lunge</text>
<text text-anchor="middle" x="287.17" y="-555.95" font-family="Helvetica,Arial,sans-serif" font-size="14.00">Front Press</text>
</g>
<!-- mov_sbfrontpress&#45;&gt;mov_sblungepullsbpress -->
<g id="edge31" class="edge">
<title>mov_sbfrontpress&#45;&gt;mov_sblungepullsbpress</title>
<path fill="none" stroke="black" d="M217.29,-548.29C196.87,-537.3 175.32,-521.45 163.8,-500 154.97,-483.55 152.96,-473.2 163.8,-458 224.92,-372.31 344.56,-340.87 435.1,-329.62"/>
<polygon fill="black" stroke="black" points="435.24,-333.12 444.77,-328.49 434.43,-326.17 435.24,-333.12"/>
</g>
<!-- mov_41_sblungepress -->
<g id="node19" class="node">
<title>mov_41_sblungepress</title>
<g id="a_node19"><a xlink:href="https://www.youtube.com/watch?v=mf2dOl-QzEs" xlink:title="{{41|Step Back Lunge\nFront Press at Bottom}}">
<path fill="#fdbf6f" stroke="#ff7f00" d="M185.17,-458.5C185.17,-458.5 348.42,-458.5 348.42,-458.5 354.42,-458.5 360.42,-464.5 360.42,-470.5 360.42,-470.5 360.42,-487.5 360.42,-487.5 360.42,-493.5 354.42,-499.5 348.42,-499.5 348.42,-499.5 185.17,-499.5 185.17,-499.5 179.17,-499.5 173.17,-493.5 173.17,-487.5 173.17,-487.5 173.17,-470.5 173.17,-470.5 173.17,-464.5 179.17,-458.5 185.17,-458.5"/>
<text text-anchor="middle" x="189.42" y="-473.95" font-family="Helvetica,Arial,sans-serif" font-size="14.00">41</text>
<polyline fill="none" stroke="#ff7f00" points="205.67,-458.5 205.67,-499.5"/>
<text text-anchor="middle" x="283.05" y="-482.2" font-family="Helvetica,Arial,sans-serif" font-size="14.00">Step Back Lunge</text>
<text text-anchor="middle" x="283.05" y="-465.7" font-family="Helvetica,Arial,sans-serif" font-size="14.00">Front Press at Bottom</text>
</a>
</g>
</g>
<!-- mov_sbfrontpress&#45;&gt;mov_41_sblungepress -->
<g id="edge32" class="edge">
<title>mov_sbfrontpress&#45;&gt;mov_41_sblungepress</title>
<path fill="none" stroke="black" d="M266.8,-548.66C266.8,-537.66 266.8,-523.67 266.8,-511.19"/>
<polygon fill="black" stroke="black" points="270.3,-511.35 266.8,-501.35 263.3,-511.35 270.3,-511.35"/>
</g>
<!-- pre_shinbox -->
<g id="node21" class="node">
<title>pre_shinbox</title>
<path fill="#b2df8a" stroke="#33a02c" d="M1830.67,-461C1830.67,-461 1918.92,-461 1918.92,-461 1924.92,-461 1930.92,-467 1930.92,-473 1930.92,-473 1930.92,-485 1930.92,-485 1930.92,-491 1924.92,-497 1918.92,-497 1918.92,-497 1830.67,-497 1830.67,-497 1824.67,-497 1818.67,-491 1818.67,-485 1818.67,-485 1818.67,-473 1818.67,-473 1818.67,-467 1824.67,-461 1830.67,-461"/>
<text text-anchor="middle" x="1838.67" y="-474.2" font-family="Helvetica,Arial,sans-serif" font-size="14.00">BW</text>
<polyline fill="none" stroke="#33a02c" points="1858.67,-461.5 1858.67,-497"/>
<text text-anchor="middle" x="1894.8" y="-474.2" font-family="Helvetica,Arial,sans-serif" font-size="14.00">Shin Box</text>
</g>
<!-- pre_shinbox&#45;&gt;mov_altshinbox -->
<g id="edge1" class="edge">
<title>pre_shinbox&#45;&gt;mov_altshinbox</title>
<path fill="none" stroke="black" d="M1874.8,-460.75C1874.8,-452.62 1874.8,-442.67 1874.8,-433.28"/>
<polygon fill="black" stroke="black" points="1878.3,-433.38 1874.8,-423.38 1871.3,-433.38 1878.3,-433.38"/>
</g>
<!-- ext_2h_deadclean -->
<g id="node22" class="node">
<title>ext_2h_deadclean</title>
<g id="a_node22"><a xlink:href="https://www.youtube.com/watch?v=69RGME9RTcY&amp;list=PLk4oYPJ7TXKiueHS7UMPv-DxNMK6UELds&amp;index=4" xlink:title="{{2H&#45;04|Dead Clean}}">
<path fill="#b2df8a" stroke="#33a02c" d="M21.8,-645.5C21.8,-645.5 143.8,-645.5 143.8,-645.5 149.8,-645.5 155.8,-651.5 155.8,-657.5 155.8,-657.5 155.8,-669.5 155.8,-669.5 155.8,-675.5 149.8,-681.5 143.8,-681.5 143.8,-681.5 21.8,-681.5 21.8,-681.5 15.8,-681.5 9.8,-675.5 9.8,-669.5 9.8,-669.5 9.8,-657.5 9.8,-657.5 9.8,-651.5 15.8,-645.5 21.8,-645.5"/>
<text text-anchor="middle" x="37.3" y="-658.7" font-family="Helvetica,Arial,sans-serif" font-size="14.00">2H&#45;04</text>
<polyline fill="none" stroke="#33a02c" points="64.8,-646 64.8,-681.5"/>
<text text-anchor="middle" x="110.3" y="-658.7" font-family="Helvetica,Arial,sans-serif" font-size="14.00">Dead Clean</text>
</a>
</g>
</g>
<!-- ext_2h_deadclean&#45;&gt;mov_cap -->
<g id="edge3" class="edge">
<title>ext_2h_deadclean&#45;&gt;mov_cap</title>
<path fill="none" stroke="black" d="M82.8,-645.15C82.8,-633.41 82.8,-617.52 82.8,-603.4"/>
<polygon fill="black" stroke="black" points="86.3,-603.6 82.8,-593.6 79.3,-603.6 86.3,-603.6"/>
</g>
<!-- ext_2h_incircle -->
<g id="node23" class="node">
<title>ext_2h_incircle</title>
<g id="a_node23"><a xlink:href="https://www.youtube.com/watch?v=Mh6iWcLbE3k&amp;list=PLk4oYPJ7TXKiueHS7UMPv-DxNMK6UELds&amp;index=5" xlink:title="{{2H&#45;05|Inside Circle}}">
<path fill="#b2df8a" stroke="#33a02c" d="M434.55,-645.5C434.55,-645.5 561.05,-645.5 561.05,-645.5 567.05,-645.5 573.05,-651.5 573.05,-657.5 573.05,-657.5 573.05,-669.5 573.05,-669.5 573.05,-675.5 567.05,-681.5 561.05,-681.5 561.05,-681.5 434.55,-681.5 434.55,-681.5 428.55,-681.5 422.55,-675.5 422.55,-669.5 422.55,-669.5 422.55,-657.5 422.55,-657.5 422.55,-651.5 428.55,-645.5 434.55,-645.5"/>
<text text-anchor="middle" x="450.05" y="-658.7" font-family="Helvetica,Arial,sans-serif" font-size="14.00">2H&#45;05</text>
<polyline fill="none" stroke="#33a02c" points="477.55,-646 477.55,-681.5"/>
<text text-anchor="middle" x="525.3" y="-658.7" font-family="Helvetica,Arial,sans-serif" font-size="14.00">Inside Circle</text>
</a>
</g>
</g>
<!-- ext_2h_incircle&#45;&gt;mov_millprep -->
<g id="edge20" class="edge">
<title>ext_2h_incircle&#45;&gt;mov_millprep</title>
<path fill="none" stroke="black" d="M454.77,-645.02C436.85,-635.34 417.9,-621.37 407.8,-602.5 393.85,-576.44 392.23,-561.12 407.8,-536 448.85,-469.77 489.71,-478.8 564.8,-458 755.92,-405.06 817.56,-459.69 1017.6,-421.64"/>
<polygon fill="black" stroke="black" points="1018.16,-425.09 1027.3,-419.73 1016.82,-418.23 1018.16,-425.09"/>
</g>
<!-- ext_2h_incircle&#45;&gt;mov_incirclesquat -->
<g id="edge7" class="edge">
<title>ext_2h_incircle&#45;&gt;mov_incirclesquat</title>
<path fill="none" stroke="black" d="M572.25,-645.01C618.44,-633.77 678.86,-618.34 731.8,-602.5 743.07,-599.13 755.01,-595.26 766.46,-591.41"/>
<polygon fill="black" stroke="black" points="767.48,-594.76 775.82,-588.22 765.22,-588.13 767.48,-594.76"/>
</g>
<!-- ext_2h_outcircle -->
<g id="node27" class="node">
<title>ext_2h_outcircle</title>
<g id="a_node27"><a xlink:href="https://www.youtube.com/watch?v=QzMzCal-MYM&amp;list=PLk4oYPJ7TXKiueHS7UMPv-DxNMK6UELds&amp;index=6" xlink:title="{{2H&#45;06|Outside Circle}}">
<path fill="#b2df8a" stroke="#33a02c" d="M429.3,-551.25C429.3,-551.25 566.3,-551.25 566.3,-551.25 572.3,-551.25 578.3,-557.25 578.3,-563.25 578.3,-563.25 578.3,-575.25 578.3,-575.25 578.3,-581.25 572.3,-587.25 566.3,-587.25 566.3,-587.25 429.3,-587.25 429.3,-587.25 423.3,-587.25 417.3,-581.25 417.3,-575.25 417.3,-575.25 417.3,-563.25 417.3,-563.25 417.3,-557.25 423.3,-551.25 429.3,-551.25"/>
<text text-anchor="middle" x="444.8" y="-564.45" font-family="Helvetica,Arial,sans-serif" font-size="14.00">2H&#45;06</text>
<polyline fill="none" stroke="#33a02c" points="472.3,-551.75 472.3,-587.25"/>
<text text-anchor="middle" x="525.3" y="-564.45" font-family="Helvetica,Arial,sans-serif" font-size="14.00">Outside Circle</text>
</a>
</g>
</g>
<!-- ext_2h_incircle&#45;&gt;ext_2h_outcircle -->
<g id="edge6" class="edge">
<title>ext_2h_incircle&#45;&gt;ext_2h_outcircle</title>
<path fill="none" stroke="black" d="M497.8,-645.15C497.8,-632.13 497.8,-614.03 497.8,-598.88"/>
<polygon fill="black" stroke="black" points="501.3,-599.04 497.8,-589.04 494.3,-599.04 501.3,-599.04"/>
</g>
<!-- ext_2h_sc -->
<g id="node24" class="node">
<title>ext_2h_sc</title>
<g id="a_node24"><a xlink:href="https://www.youtube.com/watch?v=W-iHvrjn72k&amp;list=PLk4oYPJ7TXKiueHS7UMPv-DxNMK6UELds&amp;index=9" xlink:title="{{2H&#45;09|Shield Cast}}">
<path fill="#b2df8a" stroke="#33a02c" d="M1204.92,-461C1204.92,-461 1324.67,-461 1324.67,-461 1330.67,-461 1336.67,-467 1336.67,-473 1336.67,-473 1336.67,-485 1336.67,-485 1336.67,-491 1330.67,-497 1324.67,-497 1324.67,-497 1204.92,-497 1204.92,-497 1198.92,-497 1192.92,-491 1192.92,-485 1192.92,-485 1192.92,-473 1192.92,-473 1192.92,-467 1198.92,-461 1204.92,-461"/>
<text text-anchor="middle" x="1220.42" y="-474.2" font-family="Helvetica,Arial,sans-serif" font-size="14.00">2H&#45;09</text>
<polyline fill="none" stroke="#33a02c" points="1247.92,-461.5 1247.92,-497"/>
<text text-anchor="middle" x="1292.3" y="-474.2" font-family="Helvetica,Arial,sans-serif" font-size="14.00">Shield Cast</text>
</a>
</g>
</g>
<!-- ext_2h_sc&#45;&gt;mov_kneelsc -->
<g id="edge4" class="edge">
<title>ext_2h_sc:s&#45;&gt;mov_kneelsc</title>
<path fill="none" stroke="black" d="M1264.8,-460C1264.8,-450.27 1263.29,-439.78 1261.38,-430.44"/>
<polygon fill="black" stroke="black" points="1264.83,-429.79 1259.19,-420.83 1258,-431.35 1264.83,-429.79"/>
</g>
<!-- ext_2h_sc&#45;&gt;mov_millprep -->
<g id="edge19" class="edge">
<title>ext_2h_sc&#45;&gt;mov_millprep</title>
<path fill="none" stroke="black" d="M1222.13,-460.56C1195.4,-449.64 1160.75,-435.48 1132.2,-423.82"/>
<polygon fill="black" stroke="black" points="1133.58,-420.6 1123,-420.06 1130.93,-427.08 1133.58,-420.6"/>
</g>
<!-- ext_2h_backposside2side -->
<g id="node25" class="node">
<title>ext_2h_backposside2side</title>
<g id="a_node25"><a xlink:href="https://www.youtube.com/watch?v=GKwGiB2UwyM&amp;list=PLk4oYPJ7TXKiueHS7UMPv-DxNMK6UELds&amp;index=8" xlink:title="{{2H&#45;08|Back Position\nSide to Side Swing}|SWING BEHIND HEAD}">
<path fill="#b2df8a" stroke="#33a02c" d="M1348.3,-536.5C1348.3,-536.5 1515.3,-536.5 1515.3,-536.5 1521.3,-536.5 1527.3,-542.5 1527.3,-548.5 1527.3,-548.5 1527.3,-590 1527.3,-590 1527.3,-596 1521.3,-602 1515.3,-602 1515.3,-602 1348.3,-602 1348.3,-602 1342.3,-602 1336.3,-596 1336.3,-590 1336.3,-590 1336.3,-548.5 1336.3,-548.5 1336.3,-542.5 1342.3,-536.5 1348.3,-536.5"/>
<text text-anchor="middle" x="1363.8" y="-576.45" font-family="Helvetica,Arial,sans-serif" font-size="14.00">2H&#45;08</text>
<polyline fill="none" stroke="#33a02c" points="1391.3,-561 1391.3,-602"/>
<text text-anchor="middle" x="1459.3" y="-584.7" font-family="Helvetica,Arial,sans-serif" font-size="14.00">Back Position</text>
<text text-anchor="middle" x="1459.3" y="-568.2" font-family="Helvetica,Arial,sans-serif" font-size="14.00">Side to Side Swing</text>
<polyline fill="none" stroke="#33a02c" points="1336.3,-561 1527.3,-561"/>
<text text-anchor="middle" x="1431.8" y="-543.7" font-family="Helvetica,Arial,sans-serif" font-size="14.00">SWING BEHIND HEAD</text>
</a>
</g>
</g>
<!-- ext_2h_backposside2side&#45;&gt;mov_kneelbackswing -->
<g id="edge5" class="edge">
<title>ext_2h_backposside2side&#45;&gt;mov_kneelbackswing</title>
<path fill="none" stroke="black" d="M1438.16,-536.2C1444.06,-506.51 1452.77,-462.63 1458.6,-433.21"/>
<polygon fill="black" stroke="black" points="1462.03,-433.93 1460.55,-423.43 1455.17,-432.56 1462.03,-433.93"/>
</g>
<!-- ext_2h_backposside2side&#45;&gt;ext_2h_sc -->
<g id="edge2" class="edge">
<title>ext_2h_backposside2side&#45;&gt;ext_2h_sc</title>
<path fill="none" stroke="black" d="M1371.04,-536.14C1350.01,-525.03 1326.9,-512.82 1307.62,-502.63"/>
<polygon fill="black" stroke="black" points="1309.44,-499.63 1298.97,-498.05 1306.17,-505.82 1309.44,-499.63"/>
</g>
<!-- ext_2h_frontpress -->
<g id="node26" class="node">
<title>ext_2h_frontpress</title>
<g id="a_node26"><a xlink:href="https://www.youtube.com/watch?v=HBRWtm3tTp4&amp;list=PLk4oYPJ7TXKiueHS7UMPv-DxNMK6UELds&amp;index=15" xlink:title="{{2H&#45;13|Front Press}}">
<path fill="#b2df8a" stroke="#33a02c" d="M206.17,-645.5C206.17,-645.5 327.42,-645.5 327.42,-645.5 333.42,-645.5 339.42,-651.5 339.42,-657.5 339.42,-657.5 339.42,-669.5 339.42,-669.5 339.42,-675.5 333.42,-681.5 327.42,-681.5 327.42,-681.5 206.17,-681.5 206.17,-681.5 200.17,-681.5 194.17,-675.5 194.17,-669.5 194.17,-669.5 194.17,-657.5 194.17,-657.5 194.17,-651.5 200.17,-645.5 206.17,-645.5"/>
<text text-anchor="middle" x="221.67" y="-658.7" font-family="Helvetica,Arial,sans-serif" font-size="14.00">2H&#45;13</text>
<polyline fill="none" stroke="#33a02c" points="249.17,-646 249.17,-681.5"/>
<text text-anchor="middle" x="294.3" y="-658.7" font-family="Helvetica,Arial,sans-serif" font-size="14.00">Front Press</text>
</a>
</g>
</g>
<!-- ext_2h_frontpress&#45;&gt;mov_cap -->
<g id="edge15" class="edge">
<title>ext_2h_frontpress&#45;&gt;mov_cap</title>
<path fill="none" stroke="black" d="M232.19,-645.15C205.35,-631.69 167.65,-612.79 136.84,-597.34"/>
<polygon fill="black" stroke="black" points="138.55,-594.28 128.04,-592.93 135.41,-600.54 138.55,-594.28"/>
</g>
<!-- ext_2h_frontpress&#45;&gt;mov_squatpress -->
<g id="edge16" class="edge">
<title>ext_2h_frontpress&#45;&gt;mov_squatpress</title>
<path fill="none" stroke="black" d="M339.83,-650.91C419.78,-637.85 542.62,-616.62 587.8,-602.5 596.72,-599.71 606,-596.12 614.82,-592.35"/>
<polygon fill="black" stroke="black" points="616.19,-595.57 623.9,-588.31 613.34,-589.17 616.19,-595.57"/>
</g>
<!-- ext_2h_frontpress&#45;&gt;mov_sbfrontpress -->
<g id="edge17" class="edge">
<title>ext_2h_frontpress&#45;&gt;mov_sbfrontpress</title>
<path fill="none" stroke="black" d="M266.8,-645.15C266.8,-632.79 266.8,-615.85 266.8,-601.21"/>
<polygon fill="black" stroke="black" points="270.3,-601.6 266.8,-591.6 263.3,-601.6 270.3,-601.6"/>
</g>
<!-- ext_2h_outcircle&#45;&gt;mov_outcirclesquat -->
<g id="edge8" class="edge">
<title>ext_2h_outcircle&#45;&gt;mov_outcirclesquat</title>
<path fill="none" stroke="black" d="M530.4,-550.81C556.16,-537.04 592.32,-517.69 620.35,-502.71"/>
<polygon fill="black" stroke="black" points="621.77,-505.92 628.93,-498.11 618.47,-499.74 621.77,-505.92"/>
</g>
<!-- ext_2h_pullover -->
<g id="node28" class="node">
<title>ext_2h_pullover</title>
<g id="a_node28"><a xlink:href="https://www.youtube.com/watch?v=jpIn1Sumg78&amp;list=PLk4oYPJ7TXKiueHS7UMPv-DxNMK6UELds&amp;index=7" xlink:title="{{2H&#45;07|Pullover}|CLUB BEHIND HEAD}">
<path fill="#b2df8a" stroke="#33a02c" d="M1242.05,-639C1242.05,-639 1373.55,-639 1373.55,-639 1379.55,-639 1385.55,-645 1385.55,-651 1385.55,-651 1385.55,-676 1385.55,-676 1385.55,-682 1379.55,-688 1373.55,-688 1373.55,-688 1242.05,-688 1242.05,-688 1236.05,-688 1230.05,-682 1230.05,-676 1230.05,-676 1230.05,-651 1230.05,-651 1230.05,-645 1236.05,-639 1242.05,-639"/>
<text text-anchor="middle" x="1265.55" y="-670.7" font-family="Helvetica,Arial,sans-serif" font-size="14.00">2H&#45;07</text>
<polyline fill="none" stroke="#33a02c" points="1301.05,-663.5 1301.05,-688"/>
<text text-anchor="middle" x="1343.05" y="-670.7" font-family="Helvetica,Arial,sans-serif" font-size="14.00">Pullover</text>
<polyline fill="none" stroke="#33a02c" points="1230.05,-663.5 1385.55,-663.5"/>
<text text-anchor="middle" x="1307.8" y="-646.2" font-family="Helvetica,Arial,sans-serif" font-size="14.00">CLUB BEHIND HEAD</text>
</a>
</g>
</g>
<!-- ext_2h_pullover&#45;&gt;mov_40_swipe -->
<g id="edge23" class="edge">
<title>ext_2h_pullover&#45;&gt;mov_40_swipe</title>
<path fill="none" stroke="black" d="M1385.79,-643.4C1430.24,-632.18 1486.86,-617.33 1536.8,-602.5 1543.89,-600.4 1551.24,-598.12 1558.57,-595.79"/>
<polygon fill="black" stroke="black" points="1559.4,-599.2 1567.84,-592.81 1557.25,-592.54 1559.4,-599.2"/>
</g>
<!-- ext_2h_pullover&#45;&gt;mov_sblungepull -->
<g id="edge11" class="edge">
<title>ext_2h_pullover&#45;&gt;mov_sblungepull</title>
<path fill="none" stroke="black" d="M1298.39,-638.64C1284.51,-603.95 1259.28,-542.94 1250.8,-536 1227.17,-516.65 1156.13,-501.72 1096.6,-492.16"/>
<polygon fill="black" stroke="black" points="1097.16,-488.71 1086.74,-490.61 1096.07,-495.62 1097.16,-488.71"/>
</g>
<!-- ext_2h_pullover&#45;&gt;mov_39_pullsquat -->
<g id="edge22" class="edge">
<title>ext_2h_pullover&#45;&gt;mov_39_pullsquat</title>
<path fill="none" stroke="black" d="M1272.42,-638.5C1252.27,-624.83 1227.1,-607.76 1206.98,-594.11"/>
<polygon fill="black" stroke="black" points="1209.04,-591.28 1198.8,-588.57 1205.11,-597.08 1209.04,-591.28"/>
</g>
<!-- ext_2h_pullover&#45;&gt;ext_2h_sc -->
<g id="edge10" class="edge">
<title>ext_2h_pullover&#45;&gt;ext_2h_sc</title>
<path fill="none" stroke="black" d="M1304.34,-638.97C1300.35,-613.4 1293.13,-571.45 1283.8,-536 1281.4,-526.89 1278.28,-517.11 1275.26,-508.32"/>
<polygon fill="black" stroke="black" points="1278.56,-507.15 1271.93,-498.89 1271.97,-509.49 1278.56,-507.15"/>
</g>
<!-- ext_2h_pullover&#45;&gt;ext_2h_backposside2side -->
<g id="edge9" class="edge">
<title>ext_2h_pullover&#45;&gt;ext_2h_backposside2side</title>
<path fill="none" stroke="black" d="M1340.06,-638.5C1352.07,-629.57 1366.03,-619.18 1379.38,-609.25"/>
<polygon fill="black" stroke="black" points="1381.35,-612.14 1387.29,-603.37 1377.17,-606.53 1381.35,-612.14"/>
</g>
<!-- ext_2h_squat -->
<g id="node29" class="node">
<title>ext_2h_squat</title>
<g id="a_node29"><a xlink:href="https://www.youtube.com/watch?v=LSXticZ67Pw&amp;list=PLk4oYPJ7TXKiueHS7UMPv-DxNMK6UELds&amp;index=11" xlink:title="{{2H&#45;10|Balance Squat}}">
<path fill="#b2df8a" stroke="#33a02c" d="M846.55,-645.5C846.55,-645.5 985.05,-645.5 985.05,-645.5 991.05,-645.5 997.05,-651.5 997.05,-657.5 997.05,-657.5 997.05,-669.5 997.05,-669.5 997.05,-675.5 991.05,-681.5 985.05,-681.5 985.05,-681.5 846.55,-681.5 846.55,-681.5 840.55,-681.5 834.55,-675.5 834.55,-669.5 834.55,-669.5 834.55,-657.5 834.55,-657.5 834.55,-651.5 840.55,-645.5 846.55,-645.5"/>
<text text-anchor="middle" x="862.05" y="-658.7" font-family="Helvetica,Arial,sans-serif" font-size="14.00">2H&#45;10</text>
<polyline fill="none" stroke="#33a02c" points="889.55,-646 889.55,-681.5"/>
<text text-anchor="middle" x="943.3" y="-658.7" font-family="Helvetica,Arial,sans-serif" font-size="14.00">Balance Squat</text>
</a>
</g>
</g>
<!-- ext_2h_squat&#45;&gt;mov_squatpress -->
<g id="edge14" class="edge">
<title>ext_2h_squat&#45;&gt;mov_squatpress</title>
<path fill="none" stroke="black" d="M857.59,-645.04C821.37,-633.77 774,-618.31 732.8,-602.5 724.61,-599.36 716.01,-595.8 707.71,-592.22"/>
<polygon fill="black" stroke="black" points="709.34,-589.12 698.78,-588.32 706.54,-595.53 709.34,-589.12"/>
</g>
<!-- ext_2h_squat&#45;&gt;mov_incirclesquat -->
<g id="edge13" class="edge">
<title>ext_2h_squat&#45;&gt;mov_incirclesquat</title>
<path fill="none" stroke="black" d="M898.87,-645.15C885.17,-631.1 865.69,-611.13 850.28,-595.35"/>
<polygon fill="black" stroke="black" points="853.2,-593.32 843.71,-588.61 848.19,-598.21 853.2,-593.32"/>
</g>
<!-- ext_2h_squat&#45;&gt;mov_39_pullsquat -->
<g id="edge21" class="edge">
<title>ext_2h_squat&#45;&gt;mov_39_pullsquat</title>
<path fill="none" stroke="black" d="M969.94,-645.09C1005.13,-633.55 1051.91,-617.76 1092.8,-602.5 1101.68,-599.19 1111.05,-595.52 1120.12,-591.87"/>
<polygon fill="black" stroke="black" points="1121.22,-595.2 1129.17,-588.2 1118.59,-588.72 1121.22,-595.2"/>
</g>
<!-- ext_2h_stepbacklunge -->
<g id="node30" class="node">
<title>ext_2h_stepbacklunge</title>
<g id="a_node30"><a xlink:href="https://www.youtube.com/watch?v=dNrYT5iU7BQ&amp;list=PLk4oYPJ7TXKiueHS7UMPv-DxNMK6UELds&amp;index=26" xlink:title="{{2H&#45;17|Balance Step\nBack Lunge}}">
<path fill="#b2df8a" stroke="#33a02c" d="M939.92,-548.75C939.92,-548.75 1071.67,-548.75 1071.67,-548.75 1077.67,-548.75 1083.67,-554.75 1083.67,-560.75 1083.67,-560.75 1083.67,-577.75 1083.67,-577.75 1083.67,-583.75 1077.67,-589.75 1071.67,-589.75 1071.67,-589.75 939.92,-589.75 939.92,-589.75 933.92,-589.75 927.92,-583.75 927.92,-577.75 927.92,-577.75 927.92,-560.75 927.92,-560.75 927.92,-554.75 933.92,-548.75 939.92,-548.75"/>
<text text-anchor="middle" x="955.42" y="-564.2" font-family="Helvetica,Arial,sans-serif" font-size="14.00">2H&#45;17</text>
<polyline fill="none" stroke="#33a02c" points="982.92,-548.75 982.92,-589.75"/>
<text text-anchor="middle" x="1033.3" y="-572.45" font-family="Helvetica,Arial,sans-serif" font-size="14.00">Balance Step</text>
<text text-anchor="middle" x="1033.3" y="-555.95" font-family="Helvetica,Arial,sans-serif" font-size="14.00">Back Lunge</text>
</a>
</g>
</g>
<!-- ext_2h_squat&#45;&gt;ext_2h_stepbacklunge -->
<g id="edge12" class="edge">
<title>ext_2h_squat&#45;&gt;ext_2h_stepbacklunge</title>
<path fill="none" stroke="black" d="M932.73,-645.15C945.62,-631.94 963.62,-613.48 978.53,-598.2"/>
<polygon fill="black" stroke="black" points="980.91,-600.77 985.39,-591.17 975.9,-595.88 980.91,-600.77"/>
</g>
<!-- ext_2h_stepbacklunge&#45;&gt;mov_sblungepull -->
<g id="edge18" class="edge">
<title>ext_2h_stepbacklunge&#45;&gt;mov_sblungepull</title>
<path fill="none" stroke="black" d="M1005.8,-548.66C1005.8,-537.66 1005.8,-523.67 1005.8,-511.19"/>
<polygon fill="black" stroke="black" points="1009.3,-511.35 1005.8,-501.35 1002.3,-511.35 1009.3,-511.35"/>
</g>
<!-- ext_2h_swingclean -->
<g id="node31" class="node">
<title>ext_2h_swingclean</title>
<g id="a_node31"><a xlink:href="https://www.youtube.com/watch?v=0oRuCQOkPRo&amp;list=PLk4oYPJ7TXKiueHS7UMPv-DxNMK6UELds&amp;index=12" xlink:title="{{2H&#45;11|Swing Clean}|DECELERATE WEIGHT}">
<path fill="#b2df8a" stroke="#33a02c" d="M1557.92,-639C1557.92,-639 1709.67,-639 1709.67,-639 1715.67,-639 1721.67,-645 1721.67,-651 1721.67,-651 1721.67,-676 1721.67,-676 1721.67,-682 1715.67,-688 1709.67,-688 1709.67,-688 1557.92,-688 1557.92,-688 1551.92,-688 1545.92,-682 1545.92,-676 1545.92,-676 1545.92,-651 1545.92,-651 1545.92,-645 1551.92,-639 1557.92,-639"/>
<text text-anchor="middle" x="1579.92" y="-670.7" font-family="Helvetica,Arial,sans-serif" font-size="14.00">2H&#45;11</text>
<polyline fill="none" stroke="#33a02c" points="1613.92,-663.5 1613.92,-688"/>
<text text-anchor="middle" x="1667.8" y="-670.7" font-family="Helvetica,Arial,sans-serif" font-size="14.00">Swing Clean</text>
<polyline fill="none" stroke="#33a02c" points="1545.92,-663.5 1721.67,-663.5"/>
<text text-anchor="middle" x="1633.8" y="-646.2" font-family="Helvetica,Arial,sans-serif" font-size="14.00">DECELERATE WEIGHT</text>
</a>
</g>
</g>
<!-- ext_2h_swingclean&#45;&gt;mov_40_swipe -->
<g id="edge24" class="edge">
<title>ext_2h_swingclean&#45;&gt;mov_40_swipe</title>
<path fill="none" stroke="black" d="M1633.8,-638.74C1633.8,-628.12 1633.8,-615.42 1633.8,-603.85"/>
<polygon fill="black" stroke="black" points="1637.3,-603.86 1633.8,-593.86 1630.3,-603.86 1637.3,-603.86"/>
</g>
<!-- Legend -->
<g id="node32" class="node">
<title>Legend</title>
<path fill="#a6cee3" stroke="none" d="M611.3,-266C611.3,-266 494.3,-266 494.3,-266 488.3,-266 482.3,-260 482.3,-254 482.3,-254 482.3,-174 482.3,-174 482.3,-168 488.3,-162 494.3,-162 494.3,-162 611.3,-162 611.3,-162 617.3,-162 623.3,-168 623.3,-174 623.3,-174 623.3,-254 623.3,-254 623.3,-260 617.3,-266 611.3,-266"/>
<polygon fill="none" stroke="#1f78b4" points="482.3,-240 482.3,-266 623.3,-266 623.3,-240 482.3,-240"/>
<text text-anchor="start" x="526.55" y="-248.7" font-family="Helvetica,Arial,sans-serif" font-weight="bold" font-size="14.00">Legend</text>
<polygon fill="none" stroke="#1f78b4" points="482.3,-214 482.3,-240 595.3,-240 595.3,-214 482.3,-214"/>
<text text-anchor="start" x="493.42" y="-221.7" font-family="Helvetica,Arial,sans-serif" font-size="14.00">Previous Drills</text>
<polygon fill="#b2df8a" stroke="none" points="595.3,-214 595.3,-240 623.3,-240 623.3,-214 595.3,-214"/>
<polygon fill="none" stroke="#1f78b4" points="595.3,-214 595.3,-240 623.3,-240 623.3,-214 595.3,-214"/>
<text text-anchor="start" x="599.92" y="-221.7" font-family="Helvetica,Arial,sans-serif" font-size="14.00">     </text>
<polygon fill="none" stroke="#1f78b4" points="482.3,-188 482.3,-214 595.3,-214 595.3,-188 482.3,-188"/>
<text text-anchor="start" x="497.17" y="-195.7" font-family="Helvetica,Arial,sans-serif" font-size="14.00">Primary Drills</text>
<polygon fill="#ffff99" stroke="none" points="595.3,-188 595.3,-214 623.3,-214 623.3,-188 595.3,-188"/>
<polygon fill="none" stroke="#1f78b4" points="595.3,-188 595.3,-214 623.3,-214 623.3,-188 595.3,-188"/>
<polygon fill="none" stroke="#1f78b4" points="482.3,-162 482.3,-188 595.3,-188 595.3,-162 482.3,-162"/>
<text text-anchor="start" x="487.05" y="-169.7" font-family="Helvetica,Arial,sans-serif" font-size="14.00">Secondary Drills</text>
<polygon fill="#fdbf6f" stroke="none" points="595.3,-162 595.3,-188 623.3,-188 623.3,-162 595.3,-162"/>
<polygon fill="none" stroke="#1f78b4" points="595.3,-162 595.3,-188 623.3,-188 623.3,-162 595.3,-162"/>
</g>
</g>
</svg>
