<?xml version="1.0" encoding="UTF-8" standalone="no"?>
<!DOCTYPE svg PUBLIC "-//W3C//DTD SVG 1.1//EN"
 "http://www.w3.org/Graphics/SVG/1.1/DTD/svg11.dtd">
<!-- Generated by graphviz version 8.1.0 (20230707.0739)
 -->
<!-- Title: HC2H Pages: 1 -->
<svg width="1519pt" height="414pt"
 viewBox="0.00 0.00 1518.88 414.00" xmlns="http://www.w3.org/2000/svg" xmlns:xlink="http://www.w3.org/1999/xlink">
<g id="graph0" class="graph" transform="scale(1 1) rotate(0) translate(4 410)">
<title>HC2H</title>
<polygon fill="white" stroke="none" points="-4,4 -4,-410 1514.88,-410 1514.88,4 -4,4"/>
<text text-anchor="middle" x="755.44" y="-7.2" font-family="Helvetica,Arial,sans-serif" font-size="14.00">Two&#45;Handed Heavy Club Skill Progression</text>
<!-- mov_cap -->
<g id="node1" class="node">
<title>mov_cap</title>
<g id="a_node1"><a xlink:href="https://www.youtube.com/watch?v=6kpEYglMJ1c" xlink:title="{{37|Clean &amp; Press}}">
<path fill="#ffff99" stroke="#b15928" d="M28.2,-285.35C28.2,-285.35 169.8,-285.35 169.8,-285.35 175.8,-285.35 181.8,-291.35 181.8,-297.35 181.8,-297.35 181.8,-318.65 181.8,-318.65 181.8,-324.65 175.8,-330.65 169.8,-330.65 169.8,-330.65 28.2,-330.65 28.2,-330.65 22.2,-330.65 16.2,-324.65 16.2,-318.65 16.2,-318.65 16.2,-297.35 16.2,-297.35 16.2,-291.35 22.2,-285.35 28.2,-285.35"/>
<text text-anchor="middle" x="38.85" y="-302.95" font-family="Helvetica,Arial,sans-serif" font-size="14.00">37</text>
<polyline fill="none" stroke="#b15928" points="61.5,-285.35 61.5,-330.65"/>
<text text-anchor="middle" x="121.65" y="-302.95" font-family="Helvetica,Arial,sans-serif" font-size="14.00">Clean &amp; Press</text>
</a>
</g>
</g>
<!-- mov_kneelsc -->
<g id="node2" class="node">
<title>mov_kneelsc</title>
<g id="a_node2"><a xlink:href="https://www.youtube.com/watch?v=yHIEZN0Nl_U&amp;list=PLk4oYPJ7TXKiueHS7UMPv-DxNMK6UELds&amp;index=42" xlink:title="{{23|Half&#45;Kneeling Shield Cast}}">
<path fill="#fdbf6f" stroke="#ff7f00" d="M960.12,-27.5C960.12,-27.5 1145.88,-27.5 1145.88,-27.5 1151.88,-27.5 1157.88,-33.5 1157.88,-39.5 1157.88,-39.5 1157.88,-51.5 1157.88,-51.5 1157.88,-57.5 1151.88,-63.5 1145.88,-63.5 1145.88,-63.5 960.12,-63.5 960.12,-63.5 954.12,-63.5 948.12,-57.5 948.12,-51.5 948.12,-51.5 948.12,-39.5 948.12,-39.5 948.12,-33.5 954.12,-27.5 960.12,-27.5"/>
<text text-anchor="middle" x="964.38" y="-40.7" font-family="Helvetica,Arial,sans-serif" font-size="14.00">23</text>
<polyline fill="none" stroke="#ff7f00" points="980.62,-28 980.62,-63.5"/>
<text text-anchor="middle" x="1069.25" y="-40.7" font-family="Helvetica,Arial,sans-serif" font-size="14.00">Half&#45;Kneeling Shield Cast</text>
</a>
</g>
</g>
<!-- mov_sblungepull -->
<g id="node3" class="node">
<title>mov_sblungepull</title>
<g id="a_node3"><a xlink:href="https://www.youtube.com/watch?v=yHIEZN0Nl_U&amp;list=PLk4oYPJ7TXKiueHS7UMPv-DxNMK6UELds&amp;index=44" xlink:title="{{24|Step&#45;Back Lunge\nPullover at Top}}">
<path fill="#fdbf6f" stroke="#ff7f00" d="M600,-193.25C600,-193.25 734,-193.25 734,-193.25 740,-193.25 746,-199.25 746,-205.25 746,-205.25 746,-222.25 746,-222.25 746,-228.25 740,-234.25 734,-234.25 734,-234.25 600,-234.25 600,-234.25 594,-234.25 588,-228.25 588,-222.25 588,-222.25 588,-205.25 588,-205.25 588,-199.25 594,-193.25 600,-193.25"/>
<text text-anchor="middle" x="604.25" y="-208.7" font-family="Helvetica,Arial,sans-serif" font-size="14.00">24</text>
<polyline fill="none" stroke="#ff7f00" points="620.5,-193.25 620.5,-234.25"/>
<text text-anchor="middle" x="683.25" y="-216.95" font-family="Helvetica,Arial,sans-serif" font-size="14.00">Step&#45;Back Lunge</text>
<text text-anchor="middle" x="683.25" y="-200.45" font-family="Helvetica,Arial,sans-serif" font-size="14.00">Pullover at Top</text>
</a>
</g>
</g>
<!-- mov_sblungepullbot -->
<g id="node7" class="node">
<title>mov_sblungepullbot</title>
<g id="a_node7"><a xlink:href="https://www.youtube.com/watch?v=UpY9zHuTZds" xlink:title="{{28|Step&#45;Back Lunge\nPullover at Bottom}}">
<path fill="#fdbf6f" stroke="#ff7f00" d="M555,-103C555,-103 695,-103 695,-103 701,-103 707,-109 707,-115 707,-115 707,-132 707,-132 707,-138 701,-144 695,-144 695,-144 555,-144 555,-144 549,-144 543,-138 543,-132 543,-132 543,-115 543,-115 543,-109 549,-103 555,-103"/>
<text text-anchor="middle" x="559.25" y="-118.45" font-family="Helvetica,Arial,sans-serif" font-size="14.00">28</text>
<polyline fill="none" stroke="#ff7f00" points="575.5,-103 575.5,-144"/>
<text text-anchor="middle" x="641.25" y="-126.7" font-family="Helvetica,Arial,sans-serif" font-size="14.00">Step&#45;Back Lunge</text>
<text text-anchor="middle" x="641.25" y="-110.2" font-family="Helvetica,Arial,sans-serif" font-size="14.00">Pullover at Bottom</text>
</a>
</g>
</g>
<!-- mov_sblungepull&#45;&gt;mov_sblungepullbot -->
<g id="edge20" class="edge">
<title>mov_sblungepull&#45;&gt;mov_sblungepullbot</title>
<path fill="none" stroke="black" d="M657.89,-193.6C652.31,-181.89 645.07,-166.67 638.8,-153.5"/>
<polygon fill="black" stroke="black" points="641.7,-152.44 634.24,-144.92 635.38,-155.45 641.7,-152.44"/>
</g>
<!-- mov_fbpull -->
<g id="node4" class="node">
<title>mov_fbpull</title>
<g id="a_node4"><a xlink:href="https://www.youtube.com/watch?v=yHIEZN0Nl_U&amp;list=PLk4oYPJ7TXKiueHS7UMPv-DxNMK6UELds&amp;index=45" xlink:title="{{26|Flat Back Pullover}}">
<path fill="#fdbf6f" stroke="#ff7f00" d="M1138.12,-369.5C1138.12,-369.5 1275.88,-369.5 1275.88,-369.5 1281.88,-369.5 1287.88,-375.5 1287.88,-381.5 1287.88,-381.5 1287.88,-393.5 1287.88,-393.5 1287.88,-399.5 1281.88,-405.5 1275.88,-405.5 1275.88,-405.5 1138.12,-405.5 1138.12,-405.5 1132.12,-405.5 1126.12,-399.5 1126.12,-393.5 1126.12,-393.5 1126.12,-381.5 1126.12,-381.5 1126.12,-375.5 1132.12,-369.5 1138.12,-369.5"/>
<text text-anchor="middle" x="1142.38" y="-382.7" font-family="Helvetica,Arial,sans-serif" font-size="14.00">26</text>
<polyline fill="none" stroke="#ff7f00" points="1158.62,-370 1158.62,-405.5"/>
<text text-anchor="middle" x="1223.25" y="-382.7" font-family="Helvetica,Arial,sans-serif" font-size="14.00">Flat Back Pullover</text>
</a>
</g>
</g>
<!-- mov_fbpullsit -->
<g id="node6" class="node">
<title>mov_fbpullsit</title>
<g id="a_node6"><a xlink:href="https://www.youtube.com/watch?v=Ii2WZgl5mHA" xlink:title="{{27|Flat Back Pullover Situp}}">
<path fill="#fdbf6f" stroke="#ff7f00" d="M1120.12,-290C1120.12,-290 1293.88,-290 1293.88,-290 1299.88,-290 1305.88,-296 1305.88,-302 1305.88,-302 1305.88,-314 1305.88,-314 1305.88,-320 1299.88,-326 1293.88,-326 1293.88,-326 1120.12,-326 1120.12,-326 1114.12,-326 1108.12,-320 1108.12,-314 1108.12,-314 1108.12,-302 1108.12,-302 1108.12,-296 1114.12,-290 1120.12,-290"/>
<text text-anchor="middle" x="1124.38" y="-303.2" font-family="Helvetica,Arial,sans-serif" font-size="14.00">27</text>
<polyline fill="none" stroke="#ff7f00" points="1140.62,-290.5 1140.62,-326"/>
<text text-anchor="middle" x="1223.25" y="-303.2" font-family="Helvetica,Arial,sans-serif" font-size="14.00">Flat Back Pullover Situp</text>
</a>
</g>
</g>
<!-- mov_fbpull&#45;&gt;mov_fbpullsit -->
<g id="edge19" class="edge">
<title>mov_fbpull&#45;&gt;mov_fbpullsit</title>
<path fill="none" stroke="black" d="M1207,-369.68C1207,-360.04 1207,-347.68 1207,-336.64"/>
<polygon fill="black" stroke="black" points="1210.5,-336.78 1207,-326.78 1203.5,-336.78 1210.5,-336.78"/>
</g>
<!-- mov_kneelbackswing -->
<g id="node5" class="node">
<title>mov_kneelbackswing</title>
<g id="a_node5"><a xlink:href="https://www.youtube.com/watch?v=XH_HFWZQt4c" xlink:title="{{25|Half&#45;Kneeling\nBack Position Swing}}">
<path fill="#fdbf6f" stroke="#ff7f00" d="M798.62,-103C798.62,-103 951.38,-103 951.38,-103 957.38,-103 963.38,-109 963.38,-115 963.38,-115 963.38,-132 963.38,-132 963.38,-138 957.38,-144 951.38,-144 951.38,-144 798.62,-144 798.62,-144 792.62,-144 786.62,-138 786.62,-132 786.62,-132 786.62,-115 786.62,-115 786.62,-109 792.62,-103 798.62,-103"/>
<text text-anchor="middle" x="802.88" y="-118.45" font-family="Helvetica,Arial,sans-serif" font-size="14.00">25</text>
<polyline fill="none" stroke="#ff7f00" points="819.12,-103 819.12,-144"/>
<text text-anchor="middle" x="891.25" y="-126.7" font-family="Helvetica,Arial,sans-serif" font-size="14.00">Half&#45;Kneeling</text>
<text text-anchor="middle" x="891.25" y="-110.2" font-family="Helvetica,Arial,sans-serif" font-size="14.00">Back Position Swing</text>
</a>
</g>
</g>
<!-- mov_fbpullsitpress -->
<g id="node10" class="node">
<title>mov_fbpullsitpress</title>
<g id="a_node10"><a xlink:href="https://www.youtube.com/watch?v=8VL8tvinc28" xlink:title="{{29|Flat Back Pullover\nSitup Press}}">
<path fill="#fdbf6f" stroke="#ff7f00" d="M1138.12,-193.25C1138.12,-193.25 1275.88,-193.25 1275.88,-193.25 1281.88,-193.25 1287.88,-199.25 1287.88,-205.25 1287.88,-205.25 1287.88,-222.25 1287.88,-222.25 1287.88,-228.25 1281.88,-234.25 1275.88,-234.25 1275.88,-234.25 1138.12,-234.25 1138.12,-234.25 1132.12,-234.25 1126.12,-228.25 1126.12,-222.25 1126.12,-222.25 1126.12,-205.25 1126.12,-205.25 1126.12,-199.25 1132.12,-193.25 1138.12,-193.25"/>
<text text-anchor="middle" x="1142.38" y="-208.7" font-family="Helvetica,Arial,sans-serif" font-size="14.00">29</text>
<polyline fill="none" stroke="#ff7f00" points="1158.62,-193.25 1158.62,-234.25"/>
<text text-anchor="middle" x="1223.25" y="-216.95" font-family="Helvetica,Arial,sans-serif" font-size="14.00">Flat Back Pullover</text>
<text text-anchor="middle" x="1223.25" y="-200.45" font-family="Helvetica,Arial,sans-serif" font-size="14.00">Situp Press</text>
</a>
</g>
</g>
<!-- mov_fbpullsit&#45;&gt;mov_fbpullsitpress -->
<g id="edge21" class="edge">
<title>mov_fbpullsit&#45;&gt;mov_fbpullsitpress</title>
<path fill="none" stroke="black" d="M1207,-290.08C1207,-277.48 1207,-259.94 1207,-244.95"/>
<polygon fill="black" stroke="black" points="1210.5,-245.12 1207,-235.12 1203.5,-245.12 1210.5,-245.12"/>
</g>
<!-- mov_sblungepullsbpress -->
<g id="node13" class="node">
<title>mov_sblungepullsbpress</title>
<g id="a_node13"><a xlink:href="https://www.youtube.com/watch?v=1cXPBXfKNhU" xlink:title="{{35|Step&#45;Back Lunge Pullover\nStep&#45;Back Press}}">
<path fill="#fdbf6f" stroke="#ff7f00" d="M475.62,-25C475.62,-25 664.38,-25 664.38,-25 670.38,-25 676.38,-31 676.38,-37 676.38,-37 676.38,-54 676.38,-54 676.38,-60 670.38,-66 664.38,-66 664.38,-66 475.62,-66 475.62,-66 469.62,-66 463.62,-60 463.62,-54 463.62,-54 463.62,-37 463.62,-37 463.62,-31 469.62,-25 475.62,-25"/>
<text text-anchor="middle" x="479.88" y="-40.45" font-family="Helvetica,Arial,sans-serif" font-size="14.00">35</text>
<polyline fill="none" stroke="#ff7f00" points="496.12,-25 496.12,-66"/>
<text text-anchor="middle" x="586.25" y="-48.7" font-family="Helvetica,Arial,sans-serif" font-size="14.00">Step&#45;Back Lunge Pullover</text>
<text text-anchor="middle" x="586.25" y="-32.2" font-family="Helvetica,Arial,sans-serif" font-size="14.00">Step&#45;Back Press</text>
</a>
</g>
</g>
<!-- mov_sblungepullbot&#45;&gt;mov_sblungepullsbpress -->
<g id="edge24" class="edge">
<title>mov_sblungepullbot&#45;&gt;mov_sblungepullsbpress</title>
<path fill="none" stroke="black" d="M611.12,-103.32C604.85,-94.66 597.32,-84.25 590.42,-74.72"/>
<polygon fill="black" stroke="black" points="592.76,-72.99 584.07,-66.94 587.09,-77.09 592.76,-72.99"/>
</g>
<!-- mov_incirclesquat -->
<g id="node8" class="node">
<title>mov_incirclesquat</title>
<g id="a_node8"><a xlink:href="https://www.youtube.com/watch?v=icFHo5ufhUc" xlink:title="{{32|Inside Circle Squat}}">
<path fill="#fdbf6f" stroke="#ff7f00" d="M407.75,-290C407.75,-290 552.25,-290 552.25,-290 558.25,-290 564.25,-296 564.25,-302 564.25,-302 564.25,-314 564.25,-314 564.25,-320 558.25,-326 552.25,-326 552.25,-326 407.75,-326 407.75,-326 401.75,-326 395.75,-320 395.75,-314 395.75,-314 395.75,-302 395.75,-302 395.75,-296 401.75,-290 407.75,-290"/>
<text text-anchor="middle" x="412" y="-303.2" font-family="Helvetica,Arial,sans-serif" font-size="14.00">32</text>
<polyline fill="none" stroke="#ff7f00" points="428.25,-290.5 428.25,-326"/>
<text text-anchor="middle" x="496.25" y="-303.2" font-family="Helvetica,Arial,sans-serif" font-size="14.00">Inside Circle Squat</text>
</a>
</g>
</g>
<!-- mov_outcirclesquat -->
<g id="node9" class="node">
<title>mov_outcirclesquat</title>
<g id="a_node9"><a xlink:href="https://www.youtube.com/watch?v=z916C16iK54&amp;list=PLk4oYPJ7TXKiueHS7UMPv-DxNMK6UELds&amp;index=49" xlink:title="{{34|Outside Circle Squat}}">
<path fill="#fdbf6f" stroke="#ff7f00" d="M402.5,-195.75C402.5,-195.75 557.5,-195.75 557.5,-195.75 563.5,-195.75 569.5,-201.75 569.5,-207.75 569.5,-207.75 569.5,-219.75 569.5,-219.75 569.5,-225.75 563.5,-231.75 557.5,-231.75 557.5,-231.75 402.5,-231.75 402.5,-231.75 396.5,-231.75 390.5,-225.75 390.5,-219.75 390.5,-219.75 390.5,-207.75 390.5,-207.75 390.5,-201.75 396.5,-195.75 402.5,-195.75"/>
<text text-anchor="middle" x="406.75" y="-208.95" font-family="Helvetica,Arial,sans-serif" font-size="14.00">34</text>
<polyline fill="none" stroke="#ff7f00" points="423,-196.25 423,-231.75"/>
<text text-anchor="middle" x="496.25" y="-208.95" font-family="Helvetica,Arial,sans-serif" font-size="14.00">Outside Circle Squat</text>
</a>
</g>
</g>
<!-- mov_incirclesquat&#45;&gt;mov_outcirclesquat -->
<g id="edge23" class="edge">
<title>mov_incirclesquat&#45;&gt;mov_outcirclesquat</title>
<path fill="none" stroke="black" d="M480,-290.08C480,-276.69 480,-257.71 480,-242.16"/>
<polygon fill="black" stroke="black" points="483.5,-242.56 480,-232.56 476.5,-242.56 483.5,-242.56"/>
</g>
<!-- mov_altshinbox -->
<g id="node11" class="node">
<title>mov_altshinbox</title>
<g id="a_node11"><a xlink:href="https://www.youtube.com/watch?v=jogIwgDj0KM" xlink:title="{{31|Balance\nAlternating Shin Box}}">
<path fill="#fdbf6f" stroke="#ff7f00" d="M1336.38,-287.5C1336.38,-287.5 1487.62,-287.5 1487.62,-287.5 1493.62,-287.5 1499.62,-293.5 1499.62,-299.5 1499.62,-299.5 1499.62,-316.5 1499.62,-316.5 1499.62,-322.5 1493.62,-328.5 1487.62,-328.5 1487.62,-328.5 1336.38,-328.5 1336.38,-328.5 1330.38,-328.5 1324.38,-322.5 1324.38,-316.5 1324.38,-316.5 1324.38,-299.5 1324.38,-299.5 1324.38,-293.5 1330.38,-287.5 1336.38,-287.5"/>
<text text-anchor="middle" x="1340.62" y="-302.95" font-family="Helvetica,Arial,sans-serif" font-size="14.00">31</text>
<polyline fill="none" stroke="#ff7f00" points="1356.88,-287.5 1356.88,-328.5"/>
<text text-anchor="middle" x="1428.25" y="-311.2" font-family="Helvetica,Arial,sans-serif" font-size="14.00">Balance</text>
<text text-anchor="middle" x="1428.25" y="-294.7" font-family="Helvetica,Arial,sans-serif" font-size="14.00">Alternating Shin Box</text>
</a>
</g>
</g>
<!-- mov_altshinboxfrpress -->
<g id="node12" class="node">
<title>mov_altshinboxfrpress</title>
<g id="a_node12"><a xlink:href="https://www.youtube.com/watch?v=D2AJzIVufeY&amp;list=PLk4oYPJ7TXKiueHS7UMPv-DxNMK6UELds&amp;index=47" xlink:title="{{33|Alt Shinbox Front Press}}">
<path fill="#fdbf6f" stroke="#ff7f00" d="M1325.12,-195.75C1325.12,-195.75 1498.88,-195.75 1498.88,-195.75 1504.88,-195.75 1510.88,-201.75 1510.88,-207.75 1510.88,-207.75 1510.88,-219.75 1510.88,-219.75 1510.88,-225.75 1504.88,-231.75 1498.88,-231.75 1498.88,-231.75 1325.12,-231.75 1325.12,-231.75 1319.12,-231.75 1313.12,-225.75 1313.12,-219.75 1313.12,-219.75 1313.12,-207.75 1313.12,-207.75 1313.12,-201.75 1319.12,-195.75 1325.12,-195.75"/>
<text text-anchor="middle" x="1329.38" y="-208.95" font-family="Helvetica,Arial,sans-serif" font-size="14.00">33</text>
<polyline fill="none" stroke="#ff7f00" points="1345.62,-196.25 1345.62,-231.75"/>
<text text-anchor="middle" x="1428.25" y="-208.95" font-family="Helvetica,Arial,sans-serif" font-size="14.00">Alt Shinbox Front Press</text>
</a>
</g>
</g>
<!-- mov_altshinbox&#45;&gt;mov_altshinboxfrpress -->
<g id="edge22" class="edge">
<title>mov_altshinbox&#45;&gt;mov_altshinboxfrpress</title>
<path fill="none" stroke="black" d="M1412,-287.89C1412,-274.81 1412,-257.26 1412,-242.63"/>
<polygon fill="black" stroke="black" points="1415.5,-242.67 1412,-232.67 1408.5,-242.67 1415.5,-242.67"/>
</g>
<!-- mov_squatpress -->
<g id="node14" class="node">
<title>mov_squatpress</title>
<g id="a_node14"><a xlink:href="https://www.youtube.com/watch?v=6p1niExqXSA" xlink:title="{{36|Squat Press}}">
<path fill="#fdbf6f" stroke="#ff7f00" d="M262.75,-290C262.75,-290 365.25,-290 365.25,-290 371.25,-290 377.25,-296 377.25,-302 377.25,-302 377.25,-314 377.25,-314 377.25,-320 371.25,-326 365.25,-326 365.25,-326 262.75,-326 262.75,-326 256.75,-326 250.75,-320 250.75,-314 250.75,-314 250.75,-302 250.75,-302 250.75,-296 256.75,-290 262.75,-290"/>
<text text-anchor="middle" x="267" y="-303.2" font-family="Helvetica,Arial,sans-serif" font-size="14.00">36</text>
<polyline fill="none" stroke="#ff7f00" points="283.25,-290.5 283.25,-326"/>
<text text-anchor="middle" x="330.25" y="-303.2" font-family="Helvetica,Arial,sans-serif" font-size="14.00">Squat Press</text>
</a>
</g>
</g>
<!-- pre_shinbox -->
<g id="node15" class="node">
<title>pre_shinbox</title>
<path fill="#b2df8a" stroke="#33a02c" d="M1367.88,-369.5C1367.88,-369.5 1456.12,-369.5 1456.12,-369.5 1462.12,-369.5 1468.12,-375.5 1468.12,-381.5 1468.12,-381.5 1468.12,-393.5 1468.12,-393.5 1468.12,-399.5 1462.12,-405.5 1456.12,-405.5 1456.12,-405.5 1367.88,-405.5 1367.88,-405.5 1361.88,-405.5 1355.88,-399.5 1355.88,-393.5 1355.88,-393.5 1355.88,-381.5 1355.88,-381.5 1355.88,-375.5 1361.88,-369.5 1367.88,-369.5"/>
<text text-anchor="middle" x="1375.88" y="-382.7" font-family="Helvetica,Arial,sans-serif" font-size="14.00">BW</text>
<polyline fill="none" stroke="#33a02c" points="1395.88,-370 1395.88,-405.5"/>
<text text-anchor="middle" x="1432" y="-382.7" font-family="Helvetica,Arial,sans-serif" font-size="14.00">Shin Box</text>
</g>
<!-- pre_shinbox&#45;&gt;mov_altshinbox -->
<g id="edge1" class="edge">
<title>pre_shinbox&#45;&gt;mov_altshinbox</title>
<path fill="none" stroke="black" d="M1412,-369.68C1412,-360.73 1412,-349.44 1412,-339.03"/>
<polygon fill="black" stroke="black" points="1415.5,-339.24 1412,-329.24 1408.5,-339.24 1415.5,-339.24"/>
</g>
<!-- ext_2h_deadclean -->
<g id="node16" class="node">
<title>ext_2h_deadclean</title>
<g id="a_node16"><a xlink:href="https://www.youtube.com/watch?v=69RGME9RTcY&amp;list=PLk4oYPJ7TXKiueHS7UMPv-DxNMK6UELds&amp;index=4" xlink:title="{{2H&#45;04|Dead Clean}}">
<path fill="#b2df8a" stroke="#33a02c" d="M12,-369.5C12,-369.5 134,-369.5 134,-369.5 140,-369.5 146,-375.5 146,-381.5 146,-381.5 146,-393.5 146,-393.5 146,-399.5 140,-405.5 134,-405.5 134,-405.5 12,-405.5 12,-405.5 6,-405.5 0,-399.5 0,-393.5 0,-393.5 0,-381.5 0,-381.5 0,-375.5 6,-369.5 12,-369.5"/>
<text text-anchor="middle" x="27.5" y="-382.7" font-family="Helvetica,Arial,sans-serif" font-size="14.00">2H&#45;04</text>
<polyline fill="none" stroke="#33a02c" points="55,-370 55,-405.5"/>
<text text-anchor="middle" x="100.5" y="-382.7" font-family="Helvetica,Arial,sans-serif" font-size="14.00">Dead Clean</text>
</a>
</g>
</g>
<!-- ext_2h_deadclean&#45;&gt;mov_cap -->
<g id="edge3" class="edge">
<title>ext_2h_deadclean&#45;&gt;mov_cap</title>
<path fill="none" stroke="black" d="M78.64,-369.68C81.47,-361.25 84.99,-350.75 88.31,-340.86"/>
<polygon fill="black" stroke="black" points="91.92,-342.1 91.79,-331.51 85.29,-339.87 91.92,-342.1"/>
</g>
<!-- ext_2h_incircle -->
<g id="node17" class="node">
<title>ext_2h_incircle</title>
<g id="a_node17"><a xlink:href="https://www.youtube.com/watch?v=Mh6iWcLbE3k&amp;list=PLk4oYPJ7TXKiueHS7UMPv-DxNMK6UELds&amp;index=5" xlink:title="{{2H&#45;05|Inside Circle}}">
<path fill="#b2df8a" stroke="#33a02c" d="M682.75,-369.5C682.75,-369.5 809.25,-369.5 809.25,-369.5 815.25,-369.5 821.25,-375.5 821.25,-381.5 821.25,-381.5 821.25,-393.5 821.25,-393.5 821.25,-399.5 815.25,-405.5 809.25,-405.5 809.25,-405.5 682.75,-405.5 682.75,-405.5 676.75,-405.5 670.75,-399.5 670.75,-393.5 670.75,-393.5 670.75,-381.5 670.75,-381.5 670.75,-375.5 676.75,-369.5 682.75,-369.5"/>
<text text-anchor="middle" x="698.25" y="-382.7" font-family="Helvetica,Arial,sans-serif" font-size="14.00">2H&#45;05</text>
<polyline fill="none" stroke="#33a02c" points="725.75,-370 725.75,-405.5"/>
<text text-anchor="middle" x="773.5" y="-382.7" font-family="Helvetica,Arial,sans-serif" font-size="14.00">Inside Circle</text>
</a>
</g>
</g>
<!-- ext_2h_incircle&#45;&gt;mov_incirclesquat -->
<g id="edge7" class="edge">
<title>ext_2h_incircle&#45;&gt;mov_incirclesquat</title>
<path fill="none" stroke="black" d="M687.95,-369.59C646.86,-357.61 591.59,-341.51 548.36,-328.92"/>
<polygon fill="black" stroke="black" points="549.5,-325.31 538.92,-325.88 547.54,-332.03 549.5,-325.31"/>
</g>
<!-- ext_2h_outcircle -->
<g id="node21" class="node">
<title>ext_2h_outcircle</title>
<g id="a_node21"><a xlink:href="https://www.youtube.com/watch?v=QzMzCal-MYM&amp;list=PLk4oYPJ7TXKiueHS7UMPv-DxNMK6UELds&amp;index=6" xlink:title="{{2H&#45;06|Outside Circle}}">
<path fill="#b2df8a" stroke="#33a02c" d="M767.5,-290C767.5,-290 904.5,-290 904.5,-290 910.5,-290 916.5,-296 916.5,-302 916.5,-302 916.5,-314 916.5,-314 916.5,-320 910.5,-326 904.5,-326 904.5,-326 767.5,-326 767.5,-326 761.5,-326 755.5,-320 755.5,-314 755.5,-314 755.5,-302 755.5,-302 755.5,-296 761.5,-290 767.5,-290"/>
<text text-anchor="middle" x="783" y="-303.2" font-family="Helvetica,Arial,sans-serif" font-size="14.00">2H&#45;06</text>
<polyline fill="none" stroke="#33a02c" points="810.5,-290.5 810.5,-326"/>
<text text-anchor="middle" x="863.5" y="-303.2" font-family="Helvetica,Arial,sans-serif" font-size="14.00">Outside Circle</text>
</a>
</g>
</g>
<!-- ext_2h_incircle&#45;&gt;ext_2h_outcircle -->
<g id="edge6" class="edge">
<title>ext_2h_incircle&#45;&gt;ext_2h_outcircle</title>
<path fill="none" stroke="black" d="M765.53,-369.68C778.03,-358.92 794.44,-344.79 808.28,-332.87"/>
<polygon fill="black" stroke="black" points="810.22,-334.96 815.51,-325.78 805.65,-329.66 810.22,-334.96"/>
</g>
<!-- ext_2h_sc -->
<g id="node18" class="node">
<title>ext_2h_sc</title>
<g id="a_node18"><a xlink:href="https://www.youtube.com/watch?v=W-iHvrjn72k&amp;list=PLk4oYPJ7TXKiueHS7UMPv-DxNMK6UELds&amp;index=9" xlink:title="{{2H&#45;09|Shield Cast}}">
<path fill="#b2df8a" stroke="#33a02c" d="M993.12,-105.5C993.12,-105.5 1112.88,-105.5 1112.88,-105.5 1118.88,-105.5 1124.88,-111.5 1124.88,-117.5 1124.88,-117.5 1124.88,-129.5 1124.88,-129.5 1124.88,-135.5 1118.88,-141.5 1112.88,-141.5 1112.88,-141.5 993.12,-141.5 993.12,-141.5 987.12,-141.5 981.12,-135.5 981.12,-129.5 981.12,-129.5 981.12,-117.5 981.12,-117.5 981.12,-111.5 987.12,-105.5 993.12,-105.5"/>
<text text-anchor="middle" x="1008.62" y="-118.7" font-family="Helvetica,Arial,sans-serif" font-size="14.00">2H&#45;09</text>
<polyline fill="none" stroke="#33a02c" points="1036.12,-106 1036.12,-141.5"/>
<text text-anchor="middle" x="1080.5" y="-118.7" font-family="Helvetica,Arial,sans-serif" font-size="14.00">Shield Cast</text>
</a>
</g>
</g>
<!-- ext_2h_sc&#45;&gt;mov_kneelsc -->
<g id="edge4" class="edge">
<title>ext_2h_sc:s&#45;&gt;mov_kneelsc</title>
<path fill="none" stroke="black" d="M1053,-104.5C1053,-94.62 1053,-83.8 1053,-74.2"/>
<polygon fill="black" stroke="black" points="1056.5,-74.25 1053,-64.25 1049.5,-74.25 1056.5,-74.25"/>
</g>
<!-- ext_2h_backposside2side -->
<g id="node19" class="node">
<title>ext_2h_backposside2side</title>
<g id="a_node19"><a xlink:href="https://www.youtube.com/watch?v=GKwGiB2UwyM&amp;list=PLk4oYPJ7TXKiueHS7UMPv-DxNMK6UELds&amp;index=8" xlink:title="{{2H&#45;08|Back Position\nSide to Side Swing}|SWING BEHIND HEAD}">
<path fill="#b2df8a" stroke="#33a02c" d="M845.5,-181C845.5,-181 1012.5,-181 1012.5,-181 1018.5,-181 1024.5,-187 1024.5,-193 1024.5,-193 1024.5,-234.5 1024.5,-234.5 1024.5,-240.5 1018.5,-246.5 1012.5,-246.5 1012.5,-246.5 845.5,-246.5 845.5,-246.5 839.5,-246.5 833.5,-240.5 833.5,-234.5 833.5,-234.5 833.5,-193 833.5,-193 833.5,-187 839.5,-181 845.5,-181"/>
<text text-anchor="middle" x="861" y="-220.95" font-family="Helvetica,Arial,sans-serif" font-size="14.00">2H&#45;08</text>
<polyline fill="none" stroke="#33a02c" points="888.5,-205.5 888.5,-246.5"/>
<text text-anchor="middle" x="956.5" y="-229.2" font-family="Helvetica,Arial,sans-serif" font-size="14.00">Back Position</text>
<text text-anchor="middle" x="956.5" y="-212.7" font-family="Helvetica,Arial,sans-serif" font-size="14.00">Side to Side Swing</text>
<polyline fill="none" stroke="#33a02c" points="833.5,-205.5 1024.5,-205.5"/>
<text text-anchor="middle" x="929" y="-188.2" font-family="Helvetica,Arial,sans-serif" font-size="14.00">SWING BEHIND HEAD</text>
</a>
</g>
</g>
<!-- ext_2h_backposside2side&#45;&gt;mov_kneelbackswing -->
<g id="edge5" class="edge">
<title>ext_2h_backposside2side&#45;&gt;mov_kneelbackswing</title>
<path fill="none" stroke="black" d="M909.81,-181.39C904.2,-172.22 898.1,-162.25 892.59,-153.25"/>
<polygon fill="black" stroke="black" points="895.11,-151.66 886.9,-144.95 889.14,-155.31 895.11,-151.66"/>
</g>
<!-- ext_2h_backposside2side&#45;&gt;ext_2h_sc -->
<g id="edge2" class="edge">
<title>ext_2h_backposside2side&#45;&gt;ext_2h_sc</title>
<path fill="none" stroke="black" d="M973.42,-181.14C989.07,-170 1006.35,-157.7 1020.8,-147.41"/>
<polygon fill="black" stroke="black" points="1022.28,-149.95 1028.39,-141.3 1018.22,-144.25 1022.28,-149.95"/>
</g>
<!-- ext_2h_frontpress -->
<g id="node20" class="node">
<title>ext_2h_frontpress</title>
<g id="a_node20"><a xlink:href="https://www.youtube.com/watch?v=HBRWtm3tTp4&amp;list=PLk4oYPJ7TXKiueHS7UMPv-DxNMK6UELds&amp;index=15" xlink:title="{{2H&#45;13|Front Press}}">
<path fill="#b2df8a" stroke="#33a02c" d="M176.38,-369.5C176.38,-369.5 297.62,-369.5 297.62,-369.5 303.62,-369.5 309.62,-375.5 309.62,-381.5 309.62,-381.5 309.62,-393.5 309.62,-393.5 309.62,-399.5 303.62,-405.5 297.62,-405.5 297.62,-405.5 176.38,-405.5 176.38,-405.5 170.38,-405.5 164.38,-399.5 164.38,-393.5 164.38,-393.5 164.38,-381.5 164.38,-381.5 164.38,-375.5 170.38,-369.5 176.38,-369.5"/>
<text text-anchor="middle" x="191.88" y="-382.7" font-family="Helvetica,Arial,sans-serif" font-size="14.00">2H&#45;13</text>
<polyline fill="none" stroke="#33a02c" points="219.38,-370 219.38,-405.5"/>
<text text-anchor="middle" x="264.5" y="-382.7" font-family="Helvetica,Arial,sans-serif" font-size="14.00">Front Press</text>
</a>
</g>
</g>
<!-- ext_2h_frontpress&#45;&gt;mov_cap -->
<g id="edge15" class="edge">
<title>ext_2h_frontpress&#45;&gt;mov_cap</title>
<path fill="none" stroke="black" d="M207.06,-369.68C189.48,-359.81 166.86,-347.11 146.87,-335.88"/>
<polygon fill="black" stroke="black" points="148.73,-332.35 138.29,-330.51 145.3,-338.45 148.73,-332.35"/>
</g>
<!-- ext_2h_frontpress&#45;&gt;mov_squatpress -->
<g id="edge16" class="edge">
<title>ext_2h_frontpress&#45;&gt;mov_squatpress</title>
<path fill="none" stroke="black" d="M253.71,-369.68C264.2,-359.12 277.92,-345.32 289.61,-333.54"/>
<polygon fill="black" stroke="black" points="291.76,-336.34 296.32,-326.78 286.79,-331.41 291.76,-336.34"/>
</g>
<!-- mov_sbfrontpress -->
<g id="node25" class="node">
<title>mov_sbfrontpress</title>
<path fill="#a6cee3" stroke="#1f78b4" d="M184.88,-193.25C184.88,-193.25 327.12,-193.25 327.12,-193.25 333.12,-193.25 339.12,-199.25 339.12,-205.25 339.12,-205.25 339.12,-222.25 339.12,-222.25 339.12,-228.25 333.12,-234.25 327.12,-234.25 327.12,-234.25 184.88,-234.25 184.88,-234.25 178.88,-234.25 172.88,-228.25 172.88,-222.25 172.88,-222.25 172.88,-205.25 172.88,-205.25 172.88,-199.25 178.88,-193.25 184.88,-193.25"/>
<text text-anchor="middle" x="193.25" y="-208.7" font-family="Helvetica,Arial,sans-serif" font-size="14.00">30?</text>
<polyline fill="none" stroke="#1f78b4" points="213.62,-193.25 213.62,-234.25"/>
<text text-anchor="middle" x="276.38" y="-216.95" font-family="Helvetica,Arial,sans-serif" font-size="14.00">Step&#45;Back Lunge</text>
<text text-anchor="middle" x="276.38" y="-200.45" font-family="Helvetica,Arial,sans-serif" font-size="14.00">Front Press</text>
</g>
<!-- ext_2h_frontpress&#45;&gt;mov_sbfrontpress -->
<g id="edge17" class="edge">
<title>ext_2h_frontpress&#45;&gt;mov_sbfrontpress</title>
<path fill="none" stroke="black" d="M237.02,-369.58C237.23,-349.03 238.18,-313.34 242,-283 243.59,-270.36 246.24,-256.57 248.81,-244.71"/>
<polygon fill="black" stroke="black" points="252.44,-245.56 251.22,-235.03 245.61,-244.02 252.44,-245.56"/>
</g>
<!-- ext_2h_outcircle&#45;&gt;mov_outcirclesquat -->
<g id="edge8" class="edge">
<title>ext_2h_outcircle&#45;&gt;mov_outcirclesquat</title>
<path fill="none" stroke="black" d="M774.83,-290.05C765.52,-287.61 756.02,-285.18 747,-283 672.78,-265.05 652.74,-266.85 579,-247 565.92,-243.48 552.01,-239.25 538.88,-235.04"/>
<polygon fill="black" stroke="black" points="540.13,-231.44 529.54,-231.68 537.97,-238.1 540.13,-231.44"/>
</g>
<!-- ext_2h_pullover -->
<g id="node22" class="node">
<title>ext_2h_pullover</title>
<g id="a_node22"><a xlink:href="https://www.youtube.com/watch?v=jpIn1Sumg78&amp;list=PLk4oYPJ7TXKiueHS7UMPv-DxNMK6UELds&amp;index=7" xlink:title="{{2H&#45;07|Pullover}|CLUB BEHIND HEAD}">
<path fill="#b2df8a" stroke="#33a02c" d="M946.25,-283.5C946.25,-283.5 1077.75,-283.5 1077.75,-283.5 1083.75,-283.5 1089.75,-289.5 1089.75,-295.5 1089.75,-295.5 1089.75,-320.5 1089.75,-320.5 1089.75,-326.5 1083.75,-332.5 1077.75,-332.5 1077.75,-332.5 946.25,-332.5 946.25,-332.5 940.25,-332.5 934.25,-326.5 934.25,-320.5 934.25,-320.5 934.25,-295.5 934.25,-295.5 934.25,-289.5 940.25,-283.5 946.25,-283.5"/>
<text text-anchor="middle" x="969.75" y="-315.2" font-family="Helvetica,Arial,sans-serif" font-size="14.00">2H&#45;07</text>
<polyline fill="none" stroke="#33a02c" points="1005.25,-308 1005.25,-332.5"/>
<text text-anchor="middle" x="1047.25" y="-315.2" font-family="Helvetica,Arial,sans-serif" font-size="14.00">Pullover</text>
<polyline fill="none" stroke="#33a02c" points="934.25,-308 1089.75,-308"/>
<text text-anchor="middle" x="1012" y="-290.7" font-family="Helvetica,Arial,sans-serif" font-size="14.00">CLUB BEHIND HEAD</text>
</a>
</g>
</g>
<!-- ext_2h_pullover&#45;&gt;mov_sblungepull -->
<g id="edge11" class="edge">
<title>ext_2h_pullover&#45;&gt;mov_sblungepull</title>
<path fill="none" stroke="black" d="M934.69,-285.63C931.42,-284.74 928.18,-283.86 925,-283 867.27,-267.4 802.17,-250.18 751.81,-236.94"/>
<polygon fill="black" stroke="black" points="752.85,-233.34 742.29,-234.18 751.07,-240.11 752.85,-233.34"/>
</g>
<!-- ext_2h_pullover&#45;&gt;ext_2h_sc -->
<g id="edge10" class="edge">
<title>ext_2h_pullover&#45;&gt;ext_2h_sc</title>
<path fill="none" stroke="black" d="M1021.24,-283.64C1025.31,-272.66 1029.87,-259.3 1033,-247 1041.17,-214.91 1046.74,-177.21 1049.88,-152.19"/>
<polygon fill="black" stroke="black" points="1053.47,-152.68 1051.2,-142.33 1046.52,-151.84 1053.47,-152.68"/>
</g>
<!-- ext_2h_pullover&#45;&gt;ext_2h_backposside2side -->
<g id="edge9" class="edge">
<title>ext_2h_pullover&#45;&gt;ext_2h_backposside2side</title>
<path fill="none" stroke="black" d="M991.06,-283.72C983.02,-274.79 973.61,-264.34 964.59,-254.3"/>
<polygon fill="black" stroke="black" points="967.75,-252.48 958.46,-247.38 962.55,-257.16 967.75,-252.48"/>
</g>
<!-- ext_2h_squat -->
<g id="node23" class="node">
<title>ext_2h_squat</title>
<g id="a_node23"><a xlink:href="https://www.youtube.com/watch?v=LSXticZ67Pw&amp;list=PLk4oYPJ7TXKiueHS7UMPv-DxNMK6UELds&amp;index=11" xlink:title="{{2H&#45;10|Balance Squat}}">
<path fill="#b2df8a" stroke="#33a02c" d="M410.75,-369.5C410.75,-369.5 549.25,-369.5 549.25,-369.5 555.25,-369.5 561.25,-375.5 561.25,-381.5 561.25,-381.5 561.25,-393.5 561.25,-393.5 561.25,-399.5 555.25,-405.5 549.25,-405.5 549.25,-405.5 410.75,-405.5 410.75,-405.5 404.75,-405.5 398.75,-399.5 398.75,-393.5 398.75,-393.5 398.75,-381.5 398.75,-381.5 398.75,-375.5 404.75,-369.5 410.75,-369.5"/>
<text text-anchor="middle" x="426.25" y="-382.7" font-family="Helvetica,Arial,sans-serif" font-size="14.00">2H&#45;10</text>
<polyline fill="none" stroke="#33a02c" points="453.75,-370 453.75,-405.5"/>
<text text-anchor="middle" x="507.5" y="-382.7" font-family="Helvetica,Arial,sans-serif" font-size="14.00">Balance Squat</text>
</a>
</g>
</g>
<!-- ext_2h_squat&#45;&gt;mov_incirclesquat -->
<g id="edge13" class="edge">
<title>ext_2h_squat&#45;&gt;mov_incirclesquat</title>
<path fill="none" stroke="black" d="M480,-369.68C480,-360.04 480,-347.68 480,-336.64"/>
<polygon fill="black" stroke="black" points="483.5,-336.78 480,-326.78 476.5,-336.78 483.5,-336.78"/>
</g>
<!-- ext_2h_squat&#45;&gt;mov_squatpress -->
<g id="edge14" class="edge">
<title>ext_2h_squat&#45;&gt;mov_squatpress</title>
<path fill="none" stroke="black" d="M443.98,-369.68C419.38,-358.2 386.56,-342.87 360.05,-330.5"/>
<polygon fill="black" stroke="black" points="361.78,-326.98 351.24,-325.92 358.82,-333.32 361.78,-326.98"/>
</g>
<!-- ext_2h_stepbacklunge -->
<g id="node24" class="node">
<title>ext_2h_stepbacklunge</title>
<g id="a_node24"><a xlink:href="https://www.youtube.com/watch?v=dNrYT5iU7BQ&amp;list=PLk4oYPJ7TXKiueHS7UMPv-DxNMK6UELds&amp;index=26" xlink:title="{{2H&#45;17|Balance Step\nBack Lunge}}">
<path fill="#b2df8a" stroke="#33a02c" d="M594.12,-287.5C594.12,-287.5 725.88,-287.5 725.88,-287.5 731.88,-287.5 737.88,-293.5 737.88,-299.5 737.88,-299.5 737.88,-316.5 737.88,-316.5 737.88,-322.5 731.88,-328.5 725.88,-328.5 725.88,-328.5 594.12,-328.5 594.12,-328.5 588.12,-328.5 582.12,-322.5 582.12,-316.5 582.12,-316.5 582.12,-299.5 582.12,-299.5 582.12,-293.5 588.12,-287.5 594.12,-287.5"/>
<text text-anchor="middle" x="609.62" y="-302.95" font-family="Helvetica,Arial,sans-serif" font-size="14.00">2H&#45;17</text>
<polyline fill="none" stroke="#33a02c" points="637.12,-287.5 637.12,-328.5"/>
<text text-anchor="middle" x="687.5" y="-311.2" font-family="Helvetica,Arial,sans-serif" font-size="14.00">Balance Step</text>
<text text-anchor="middle" x="687.5" y="-294.7" font-family="Helvetica,Arial,sans-serif" font-size="14.00">Back Lunge</text>
</a>
</g>
</g>
<!-- ext_2h_squat&#45;&gt;ext_2h_stepbacklunge -->
<g id="edge12" class="edge">
<title>ext_2h_squat&#45;&gt;ext_2h_stepbacklunge</title>
<path fill="none" stroke="black" d="M519.06,-369.68C544.2,-358.86 577.24,-344.63 605.02,-332.67"/>
<polygon fill="black" stroke="black" points="606.19,-335.55 613.99,-328.38 603.42,-329.12 606.19,-335.55"/>
</g>
<!-- ext_2h_stepbacklunge&#45;&gt;mov_sblungepull -->
<g id="edge18" class="edge">
<title>ext_2h_stepbacklunge&#45;&gt;mov_sblungepull</title>
<path fill="none" stroke="black" d="M661.45,-287.89C662.39,-275.48 663.64,-259.04 664.71,-244.89"/>
<polygon fill="black" stroke="black" points="668.26,-245.39 665.53,-235.16 661.28,-244.86 668.26,-245.39"/>
</g>
<!-- mov_sbfrontpress&#45;&gt;mov_sblungepullsbpress -->
<g id="edge25" class="edge">
<title>mov_sbfrontpress&#45;&gt;mov_sblungepullsbpress</title>
<path fill="none" stroke="black" d="M292.63,-193.35C350.07,-162.95 461.2,-104.1 523.96,-70.88"/>
<polygon fill="black" stroke="black" points="525.4,-73.55 532.6,-65.77 522.12,-67.36 525.4,-73.55"/>
</g>
</g>
</svg>
