<?xml version="1.0" encoding="UTF-8" standalone="no"?>
<!DOCTYPE svg PUBLIC "-//W3C//DTD SVG 1.1//EN"
 "http://www.w3.org/Graphics/SVG/1.1/DTD/svg11.dtd">
<!-- Generated by graphviz version 9.0.0 (20230911.1827)
 -->
<!-- Title: HC2H Pages: 1 -->
<svg width="1829pt" height="697pt"
 viewBox="0.00 0.00 1828.88 696.50" xmlns="http://www.w3.org/2000/svg" xmlns:xlink="http://www.w3.org/1999/xlink">
<g id="graph0" class="graph" transform="scale(1 1) rotate(0) translate(4 692.5)">
<title>HC2H</title>
<polygon fill="white" stroke="none" points="-4,4 -4,-692.5 1824.88,-692.5 1824.88,4 -4,4"/>
<text text-anchor="start" x="1421.38" y="-145.7" font-family="Helvetica,Arial,sans-serif" font-weight="bold" font-size="14.00">Two&#45;Handed Heavy Club Skill Progression &#45; Part 2/2</text>
<text text-anchor="start" x="1421.38" y="-117.7" font-family="Helvetica,Arial,sans-serif" font-size="14.00">Diagram by dznz based on Mark Wildman&#39;s teachings.</text>
<text text-anchor="start" x="1421.38" y="-89.7" font-family="Helvetica,Arial,sans-serif" font-size="14.00">Source: </text>
<text text-anchor="start" x="1474.62" y="-89.7" font-family="Helvetica,Arial,sans-serif" font-weight="bold" font-size="14.00">https://github.com/dznz/wildman&#45;skill&#45;trees</text>
<text text-anchor="start" x="1421.38" y="-61.7" font-family="Helvetica,Arial,sans-serif" font-size="14.00">More by Mark Wildman &#45; </text>
<text text-anchor="start" x="1577.38" y="-61.7" font-family="Helvetica,Arial,sans-serif" font-weight="bold" font-size="14.00">https://www.wildmanathletica.com</text>
<text text-anchor="start" x="1421.38" y="-33.7" font-family="Helvetica,Arial,sans-serif" font-style="italic" font-size="14.00">© 2023. This work is openly licensed with CC BY&#45;NC&#45;SA 4.0</text>
<text text-anchor="start" x="1489.62" y="-19.7" font-family="Helvetica,Arial,sans-serif" font-style="italic" font-size="14.00">http://creativecommons.org/licenses/by&#45;nc&#45;sa/4.0/</text>
<text text-anchor="start" x="1613.38" y="-5.7" font-family="Helvetica,Arial,sans-serif" font-size="14.00"> &#160;</text>
<!-- mov_cap -->
<g id="node1" class="node">
<title>mov_cap</title>
<g id="a_node1"><a xlink:href="https://www.youtube.com/watch?v=6kpEYglMJ1c" xlink:title="{{37|Clean &amp; Press}}">
<path fill="#ffff99" stroke="#b15928" d="M28.2,-546.6C28.2,-546.6 169.8,-546.6 169.8,-546.6 175.8,-546.6 181.8,-552.6 181.8,-558.6 181.8,-558.6 181.8,-579.9 181.8,-579.9 181.8,-585.9 175.8,-591.9 169.8,-591.9 169.8,-591.9 28.2,-591.9 28.2,-591.9 22.2,-591.9 16.2,-585.9 16.2,-579.9 16.2,-579.9 16.2,-558.6 16.2,-558.6 16.2,-552.6 22.2,-546.6 28.2,-546.6"/>
<text text-anchor="middle" x="38.85" y="-564.2" font-family="Helvetica,Arial,sans-serif" font-size="14.00">37</text>
<polyline fill="none" stroke="#b15928" points="61.5,-546.6 61.5,-591.9"/>
<text text-anchor="middle" x="121.65" y="-564.2" font-family="Helvetica,Arial,sans-serif" font-size="14.00">Clean &amp; Press</text>
</a>
</g>
</g>
<!-- mov_40_swipe -->
<g id="node2" class="node">
<title>mov_40_swipe</title>
<g id="a_node2"><a xlink:href="https://www.youtube.com/watch?v=nQ7npb0krRg" xlink:title="{{40|Technical Swipe}}">
<path fill="#ffff99" stroke="#b15928" d="M1428.2,-546.6C1428.2,-546.6 1581.8,-546.6 1581.8,-546.6 1587.8,-546.6 1593.8,-552.6 1593.8,-558.6 1593.8,-558.6 1593.8,-579.9 1593.8,-579.9 1593.8,-585.9 1587.8,-591.9 1581.8,-591.9 1581.8,-591.9 1428.2,-591.9 1428.2,-591.9 1422.2,-591.9 1416.2,-585.9 1416.2,-579.9 1416.2,-579.9 1416.2,-558.6 1416.2,-558.6 1416.2,-552.6 1422.2,-546.6 1428.2,-546.6"/>
<text text-anchor="middle" x="1438.85" y="-564.2" font-family="Helvetica,Arial,sans-serif" font-size="14.00">40</text>
<polyline fill="none" stroke="#b15928" points="1461.5,-546.6 1461.5,-591.9"/>
<text text-anchor="middle" x="1527.65" y="-564.2" font-family="Helvetica,Arial,sans-serif" font-size="14.00">Technical Swipe</text>
</a>
</g>
</g>
<!-- mov_kneelsc -->
<g id="node3" class="node">
<title>mov_kneelsc</title>
<g id="a_node3"><a xlink:href="https://www.youtube.com/watch?v=yHIEZN0Nl_U&amp;list=PLk4oYPJ7TXKiueHS7UMPv-DxNMK6UELds&amp;index=42" xlink:title="{{23|Half&#45;Kneeling Shield Cast}}">
<path fill="#fdbf6f" stroke="#ff7f00" d="M1059.12,-383C1059.12,-383 1244.88,-383 1244.88,-383 1250.88,-383 1256.88,-389 1256.88,-395 1256.88,-395 1256.88,-407 1256.88,-407 1256.88,-413 1250.88,-419 1244.88,-419 1244.88,-419 1059.12,-419 1059.12,-419 1053.12,-419 1047.12,-413 1047.12,-407 1047.12,-407 1047.12,-395 1047.12,-395 1047.12,-389 1053.12,-383 1059.12,-383"/>
<text text-anchor="middle" x="1063.38" y="-396.2" font-family="Helvetica,Arial,sans-serif" font-size="14.00">23</text>
<polyline fill="none" stroke="#ff7f00" points="1079.62,-383.5 1079.62,-419"/>
<text text-anchor="middle" x="1168.25" y="-396.2" font-family="Helvetica,Arial,sans-serif" font-size="14.00">Half&#45;Kneeling Shield Cast</text>
</a>
</g>
</g>
<!-- mov_sblungepull -->
<g id="node4" class="node">
<title>mov_sblungepull</title>
<g id="a_node4"><a xlink:href="https://www.youtube.com/watch?v=yHIEZN0Nl_U&amp;list=PLk4oYPJ7TXKiueHS7UMPv-DxNMK6UELds&amp;index=44" xlink:title="{{24|Step&#45;Back Lunge\nPullover at Top}}">
<path fill="#fdbf6f" stroke="#ff7f00" d="M810,-458.5C810,-458.5 944,-458.5 944,-458.5 950,-458.5 956,-464.5 956,-470.5 956,-470.5 956,-487.5 956,-487.5 956,-493.5 950,-499.5 944,-499.5 944,-499.5 810,-499.5 810,-499.5 804,-499.5 798,-493.5 798,-487.5 798,-487.5 798,-470.5 798,-470.5 798,-464.5 804,-458.5 810,-458.5"/>
<text text-anchor="middle" x="814.25" y="-473.95" font-family="Helvetica,Arial,sans-serif" font-size="14.00">24</text>
<polyline fill="none" stroke="#ff7f00" points="830.5,-458.5 830.5,-499.5"/>
<text text-anchor="middle" x="893.25" y="-482.2" font-family="Helvetica,Arial,sans-serif" font-size="14.00">Step&#45;Back Lunge</text>
<text text-anchor="middle" x="893.25" y="-465.7" font-family="Helvetica,Arial,sans-serif" font-size="14.00">Pullover at Top</text>
</a>
</g>
</g>
<!-- mov_sblungepullbot -->
<g id="node8" class="node">
<title>mov_sblungepullbot</title>
<g id="a_node8"><a xlink:href="https://www.youtube.com/watch?v=UpY9zHuTZds" xlink:title="{{28|Step&#45;Back Lunge\nPullover at Bottom}}">
<path fill="#fdbf6f" stroke="#ff7f00" d="M461,-380.5C461,-380.5 601,-380.5 601,-380.5 607,-380.5 613,-386.5 613,-392.5 613,-392.5 613,-409.5 613,-409.5 613,-415.5 607,-421.5 601,-421.5 601,-421.5 461,-421.5 461,-421.5 455,-421.5 449,-415.5 449,-409.5 449,-409.5 449,-392.5 449,-392.5 449,-386.5 455,-380.5 461,-380.5"/>
<text text-anchor="middle" x="465.25" y="-395.95" font-family="Helvetica,Arial,sans-serif" font-size="14.00">28</text>
<polyline fill="none" stroke="#ff7f00" points="481.5,-380.5 481.5,-421.5"/>
<text text-anchor="middle" x="547.25" y="-404.2" font-family="Helvetica,Arial,sans-serif" font-size="14.00">Step&#45;Back Lunge</text>
<text text-anchor="middle" x="547.25" y="-387.7" font-family="Helvetica,Arial,sans-serif" font-size="14.00">Pullover at Bottom</text>
</a>
</g>
</g>
<!-- mov_sblungepull&#45;&gt;mov_sblungepullbot -->
<g id="edge26" class="edge">
<title>mov_sblungepull&#45;&gt;mov_sblungepullbot</title>
<path fill="none" stroke="black" d="M797.62,-460.56C746.01,-449.23 678.49,-434.4 624.32,-422.5"/>
<polygon fill="black" stroke="black" points="625.31,-419.13 614.8,-420.41 623.81,-425.97 625.31,-419.13"/>
</g>
<!-- mov_fbpull -->
<g id="node5" class="node">
<title>mov_fbpull</title>
<g id="a_node5"><a xlink:href="https://www.youtube.com/watch?v=yHIEZN0Nl_U&amp;list=PLk4oYPJ7TXKiueHS7UMPv-DxNMK6UELds&amp;index=45" xlink:title="{{26|Flat Back Pullover}}">
<path fill="#fdbf6f" stroke="#ff7f00" d="M1448.12,-461C1448.12,-461 1585.88,-461 1585.88,-461 1591.88,-461 1597.88,-467 1597.88,-473 1597.88,-473 1597.88,-485 1597.88,-485 1597.88,-491 1591.88,-497 1585.88,-497 1585.88,-497 1448.12,-497 1448.12,-497 1442.12,-497 1436.12,-491 1436.12,-485 1436.12,-485 1436.12,-473 1436.12,-473 1436.12,-467 1442.12,-461 1448.12,-461"/>
<text text-anchor="middle" x="1452.38" y="-474.2" font-family="Helvetica,Arial,sans-serif" font-size="14.00">26</text>
<polyline fill="none" stroke="#ff7f00" points="1468.62,-461.5 1468.62,-497"/>
<text text-anchor="middle" x="1533.25" y="-474.2" font-family="Helvetica,Arial,sans-serif" font-size="14.00">Flat Back Pullover</text>
</a>
</g>
</g>
<!-- mov_fbpullsit -->
<g id="node7" class="node">
<title>mov_fbpullsit</title>
<g id="a_node7"><a xlink:href="https://www.youtube.com/watch?v=Ii2WZgl5mHA" xlink:title="{{27|Flat Back Pullover Situp}}">
<path fill="#fdbf6f" stroke="#ff7f00" d="M1430.12,-383C1430.12,-383 1603.88,-383 1603.88,-383 1609.88,-383 1615.88,-389 1615.88,-395 1615.88,-395 1615.88,-407 1615.88,-407 1615.88,-413 1609.88,-419 1603.88,-419 1603.88,-419 1430.12,-419 1430.12,-419 1424.12,-419 1418.12,-413 1418.12,-407 1418.12,-407 1418.12,-395 1418.12,-395 1418.12,-389 1424.12,-383 1430.12,-383"/>
<text text-anchor="middle" x="1434.38" y="-396.2" font-family="Helvetica,Arial,sans-serif" font-size="14.00">27</text>
<polyline fill="none" stroke="#ff7f00" points="1450.62,-383.5 1450.62,-419"/>
<text text-anchor="middle" x="1533.25" y="-396.2" font-family="Helvetica,Arial,sans-serif" font-size="14.00">Flat Back Pullover Situp</text>
</a>
</g>
</g>
<!-- mov_fbpull&#45;&gt;mov_fbpullsit -->
<g id="edge25" class="edge">
<title>mov_fbpull&#45;&gt;mov_fbpullsit</title>
<path fill="none" stroke="black" d="M1517,-460.75C1517,-451.88 1517,-440.82 1517,-430.7"/>
<polygon fill="black" stroke="black" points="1520.5,-430.95 1517,-420.95 1513.5,-430.95 1520.5,-430.95"/>
</g>
<!-- mov_kneelbackswing -->
<g id="node6" class="node">
<title>mov_kneelbackswing</title>
<g id="a_node6"><a xlink:href="https://www.youtube.com/watch?v=XH_HFWZQt4c" xlink:title="{{25|Half&#45;Kneeling\nBack Position Swing}}">
<path fill="#fdbf6f" stroke="#ff7f00" d="M1253.62,-458.5C1253.62,-458.5 1406.38,-458.5 1406.38,-458.5 1412.38,-458.5 1418.38,-464.5 1418.38,-470.5 1418.38,-470.5 1418.38,-487.5 1418.38,-487.5 1418.38,-493.5 1412.38,-499.5 1406.38,-499.5 1406.38,-499.5 1253.62,-499.5 1253.62,-499.5 1247.62,-499.5 1241.62,-493.5 1241.62,-487.5 1241.62,-487.5 1241.62,-470.5 1241.62,-470.5 1241.62,-464.5 1247.62,-458.5 1253.62,-458.5"/>
<text text-anchor="middle" x="1257.88" y="-473.95" font-family="Helvetica,Arial,sans-serif" font-size="14.00">25</text>
<polyline fill="none" stroke="#ff7f00" points="1274.12,-458.5 1274.12,-499.5"/>
<text text-anchor="middle" x="1346.25" y="-482.2" font-family="Helvetica,Arial,sans-serif" font-size="14.00">Half&#45;Kneeling</text>
<text text-anchor="middle" x="1346.25" y="-465.7" font-family="Helvetica,Arial,sans-serif" font-size="14.00">Back Position Swing</text>
</a>
</g>
</g>
<!-- mov_fbpullsitpress -->
<g id="node9" class="node">
<title>mov_fbpullsitpress</title>
<g id="a_node9"><a xlink:href="https://www.youtube.com/watch?v=8VL8tvinc28" xlink:title="{{29|Flat Back Pullover\nSitup Press}}">
<path fill="#fdbf6f" stroke="#ff7f00" d="M1448.12,-302.5C1448.12,-302.5 1585.88,-302.5 1585.88,-302.5 1591.88,-302.5 1597.88,-308.5 1597.88,-314.5 1597.88,-314.5 1597.88,-331.5 1597.88,-331.5 1597.88,-337.5 1591.88,-343.5 1585.88,-343.5 1585.88,-343.5 1448.12,-343.5 1448.12,-343.5 1442.12,-343.5 1436.12,-337.5 1436.12,-331.5 1436.12,-331.5 1436.12,-314.5 1436.12,-314.5 1436.12,-308.5 1442.12,-302.5 1448.12,-302.5"/>
<text text-anchor="middle" x="1452.38" y="-317.95" font-family="Helvetica,Arial,sans-serif" font-size="14.00">29</text>
<polyline fill="none" stroke="#ff7f00" points="1468.62,-302.5 1468.62,-343.5"/>
<text text-anchor="middle" x="1533.25" y="-326.2" font-family="Helvetica,Arial,sans-serif" font-size="14.00">Flat Back Pullover</text>
<text text-anchor="middle" x="1533.25" y="-309.7" font-family="Helvetica,Arial,sans-serif" font-size="14.00">Situp Press</text>
</a>
</g>
</g>
<!-- mov_fbpullsit&#45;&gt;mov_fbpullsitpress -->
<g id="edge27" class="edge">
<title>mov_fbpullsit&#45;&gt;mov_fbpullsitpress</title>
<path fill="none" stroke="black" d="M1517,-382.75C1517,-374.62 1517,-364.67 1517,-355.28"/>
<polygon fill="black" stroke="black" points="1520.5,-355.38 1517,-345.38 1513.5,-355.38 1520.5,-355.38"/>
</g>
<!-- mov_sblungepullsbpress -->
<g id="node12" class="node">
<title>mov_sblungepullsbpress</title>
<g id="a_node12"><a xlink:href="https://www.youtube.com/watch?v=1cXPBXfKNhU" xlink:title="{{35|Step&#45;Back Lunge Pullover\nStep&#45;Back Press}}">
<path fill="#fdbf6f" stroke="#ff7f00" d="M320.62,-302.5C320.62,-302.5 509.38,-302.5 509.38,-302.5 515.38,-302.5 521.38,-308.5 521.38,-314.5 521.38,-314.5 521.38,-331.5 521.38,-331.5 521.38,-337.5 515.38,-343.5 509.38,-343.5 509.38,-343.5 320.62,-343.5 320.62,-343.5 314.62,-343.5 308.62,-337.5 308.62,-331.5 308.62,-331.5 308.62,-314.5 308.62,-314.5 308.62,-308.5 314.62,-302.5 320.62,-302.5"/>
<text text-anchor="middle" x="324.88" y="-317.95" font-family="Helvetica,Arial,sans-serif" font-size="14.00">35</text>
<polyline fill="none" stroke="#ff7f00" points="341.12,-302.5 341.12,-343.5"/>
<text text-anchor="middle" x="431.25" y="-326.2" font-family="Helvetica,Arial,sans-serif" font-size="14.00">Step&#45;Back Lunge Pullover</text>
<text text-anchor="middle" x="431.25" y="-309.7" font-family="Helvetica,Arial,sans-serif" font-size="14.00">Step&#45;Back Press</text>
</a>
</g>
</g>
<!-- mov_sblungepullbot&#45;&gt;mov_sblungepullsbpress -->
<g id="edge30" class="edge">
<title>mov_sblungepullbot&#45;&gt;mov_sblungepullsbpress</title>
<path fill="none" stroke="black" d="M500.52,-380.03C486.54,-370.87 469.77,-359.88 454.8,-350.08"/>
<polygon fill="black" stroke="black" points="456.82,-347.22 446.54,-344.66 452.99,-353.07 456.82,-347.22"/>
</g>
<!-- mov_altshinbox -->
<g id="node10" class="node">
<title>mov_altshinbox</title>
<g id="a_node10"><a xlink:href="https://www.youtube.com/watch?v=jogIwgDj0KM" xlink:title="{{31|Balance\nAlternating Shin Box}}">
<path fill="#fdbf6f" stroke="#ff7f00" d="M1646.38,-380.5C1646.38,-380.5 1797.62,-380.5 1797.62,-380.5 1803.62,-380.5 1809.62,-386.5 1809.62,-392.5 1809.62,-392.5 1809.62,-409.5 1809.62,-409.5 1809.62,-415.5 1803.62,-421.5 1797.62,-421.5 1797.62,-421.5 1646.38,-421.5 1646.38,-421.5 1640.38,-421.5 1634.38,-415.5 1634.38,-409.5 1634.38,-409.5 1634.38,-392.5 1634.38,-392.5 1634.38,-386.5 1640.38,-380.5 1646.38,-380.5"/>
<text text-anchor="middle" x="1650.62" y="-395.95" font-family="Helvetica,Arial,sans-serif" font-size="14.00">31</text>
<polyline fill="none" stroke="#ff7f00" points="1666.88,-380.5 1666.88,-421.5"/>
<text text-anchor="middle" x="1738.25" y="-404.2" font-family="Helvetica,Arial,sans-serif" font-size="14.00">Balance</text>
<text text-anchor="middle" x="1738.25" y="-387.7" font-family="Helvetica,Arial,sans-serif" font-size="14.00">Alternating Shin Box</text>
</a>
</g>
</g>
<!-- mov_altshinboxfrpress -->
<g id="node11" class="node">
<title>mov_altshinboxfrpress</title>
<g id="a_node11"><a xlink:href="https://www.youtube.com/watch?v=D2AJzIVufeY&amp;list=PLk4oYPJ7TXKiueHS7UMPv-DxNMK6UELds&amp;index=47" xlink:title="{{33|Alt Shinbox Front Press}}">
<path fill="#fdbf6f" stroke="#ff7f00" d="M1635.12,-305C1635.12,-305 1808.88,-305 1808.88,-305 1814.88,-305 1820.88,-311 1820.88,-317 1820.88,-317 1820.88,-329 1820.88,-329 1820.88,-335 1814.88,-341 1808.88,-341 1808.88,-341 1635.12,-341 1635.12,-341 1629.12,-341 1623.12,-335 1623.12,-329 1623.12,-329 1623.12,-317 1623.12,-317 1623.12,-311 1629.12,-305 1635.12,-305"/>
<text text-anchor="middle" x="1639.38" y="-318.2" font-family="Helvetica,Arial,sans-serif" font-size="14.00">33</text>
<polyline fill="none" stroke="#ff7f00" points="1655.62,-305.5 1655.62,-341"/>
<text text-anchor="middle" x="1738.25" y="-318.2" font-family="Helvetica,Arial,sans-serif" font-size="14.00">Alt Shinbox Front Press</text>
</a>
</g>
</g>
<!-- mov_altshinbox&#45;&gt;mov_altshinboxfrpress -->
<g id="edge28" class="edge">
<title>mov_altshinbox&#45;&gt;mov_altshinboxfrpress</title>
<path fill="none" stroke="black" d="M1722,-380.03C1722,-371.65 1722,-361.75 1722,-352.62"/>
<polygon fill="black" stroke="black" points="1725.5,-352.77 1722,-342.77 1718.5,-352.77 1725.5,-352.77"/>
</g>
<!-- mov_squatpress -->
<g id="node13" class="node">
<title>mov_squatpress</title>
<g id="a_node13"><a xlink:href="https://www.youtube.com/watch?v=6p1niExqXSA" xlink:title="{{36|Squat Press}}">
<path fill="#fdbf6f" stroke="#ff7f00" d="M262.75,-551.25C262.75,-551.25 365.25,-551.25 365.25,-551.25 371.25,-551.25 377.25,-557.25 377.25,-563.25 377.25,-563.25 377.25,-575.25 377.25,-575.25 377.25,-581.25 371.25,-587.25 365.25,-587.25 365.25,-587.25 262.75,-587.25 262.75,-587.25 256.75,-587.25 250.75,-581.25 250.75,-575.25 250.75,-575.25 250.75,-563.25 250.75,-563.25 250.75,-557.25 256.75,-551.25 262.75,-551.25"/>
<text text-anchor="middle" x="267" y="-564.45" font-family="Helvetica,Arial,sans-serif" font-size="14.00">36</text>
<polyline fill="none" stroke="#ff7f00" points="283.25,-551.75 283.25,-587.25"/>
<text text-anchor="middle" x="330.25" y="-564.45" font-family="Helvetica,Arial,sans-serif" font-size="14.00">Squat Press</text>
</a>
</g>
</g>
<!-- mov_millprep -->
<g id="node14" class="node">
<title>mov_millprep</title>
<g id="a_node14"><a xlink:href="https://www.youtube.com/watch?v=G_OXuFs2bRs" xlink:title="{{38|Mill Prep}}">
<path fill="#fdbf6f" stroke="#ff7f00" d="M741.38,-383C741.38,-383 820.62,-383 820.62,-383 826.62,-383 832.62,-389 832.62,-395 832.62,-395 832.62,-407 832.62,-407 832.62,-413 826.62,-419 820.62,-419 820.62,-419 741.38,-419 741.38,-419 735.38,-419 729.38,-413 729.38,-407 729.38,-407 729.38,-395 729.38,-395 729.38,-389 735.38,-383 741.38,-383"/>
<text text-anchor="middle" x="745.62" y="-396.2" font-family="Helvetica,Arial,sans-serif" font-size="14.00">38</text>
<polyline fill="none" stroke="#ff7f00" points="761.88,-383.5 761.88,-419"/>
<text text-anchor="middle" x="797.25" y="-396.2" font-family="Helvetica,Arial,sans-serif" font-size="14.00">Mill Prep</text>
</a>
</g>
</g>
<!-- mov_incirclesquat -->
<g id="node15" class="node">
<title>mov_incirclesquat</title>
<g id="a_node15"><a xlink:href="https://www.youtube.com/watch?v=icFHo5ufhUc" xlink:title="{{32|Inside Circle Squat}}">
<path fill="#fdbf6f" stroke="#ff7f00" d="M624.75,-551.25C624.75,-551.25 769.25,-551.25 769.25,-551.25 775.25,-551.25 781.25,-557.25 781.25,-563.25 781.25,-563.25 781.25,-575.25 781.25,-575.25 781.25,-581.25 775.25,-587.25 769.25,-587.25 769.25,-587.25 624.75,-587.25 624.75,-587.25 618.75,-587.25 612.75,-581.25 612.75,-575.25 612.75,-575.25 612.75,-563.25 612.75,-563.25 612.75,-557.25 618.75,-551.25 624.75,-551.25"/>
<text text-anchor="middle" x="629" y="-564.45" font-family="Helvetica,Arial,sans-serif" font-size="14.00">32</text>
<polyline fill="none" stroke="#ff7f00" points="645.25,-551.75 645.25,-587.25"/>
<text text-anchor="middle" x="713.25" y="-564.45" font-family="Helvetica,Arial,sans-serif" font-size="14.00">Inside Circle Squat</text>
</a>
</g>
</g>
<!-- mov_outcirclesquat -->
<g id="node16" class="node">
<title>mov_outcirclesquat</title>
<g id="a_node16"><a xlink:href="https://www.youtube.com/watch?v=z916C16iK54&amp;list=PLk4oYPJ7TXKiueHS7UMPv-DxNMK6UELds&amp;index=49" xlink:title="{{34|Outside Circle Squat}}">
<path fill="#fdbf6f" stroke="#ff7f00" d="M529.5,-461C529.5,-461 684.5,-461 684.5,-461 690.5,-461 696.5,-467 696.5,-473 696.5,-473 696.5,-485 696.5,-485 696.5,-491 690.5,-497 684.5,-497 684.5,-497 529.5,-497 529.5,-497 523.5,-497 517.5,-491 517.5,-485 517.5,-485 517.5,-473 517.5,-473 517.5,-467 523.5,-461 529.5,-461"/>
<text text-anchor="middle" x="533.75" y="-474.2" font-family="Helvetica,Arial,sans-serif" font-size="14.00">34</text>
<polyline fill="none" stroke="#ff7f00" points="550,-461.5 550,-497"/>
<text text-anchor="middle" x="623.25" y="-474.2" font-family="Helvetica,Arial,sans-serif" font-size="14.00">Outside Circle Squat</text>
</a>
</g>
</g>
<!-- mov_incirclesquat&#45;&gt;mov_outcirclesquat -->
<g id="edge29" class="edge">
<title>mov_incirclesquat&#45;&gt;mov_outcirclesquat</title>
<path fill="none" stroke="black" d="M679.22,-550.81C665.91,-537.76 647.5,-519.71 632.6,-505.11"/>
<polygon fill="black" stroke="black" points="635.42,-502.96 625.82,-498.46 630.51,-507.96 635.42,-502.96"/>
</g>
<!-- mov_39_pullsquat -->
<g id="node17" class="node">
<title>mov_39_pullsquat</title>
<g id="a_node17"><a xlink:href="https://www.youtube.com/watch?v=3yf3VO2sd-4" xlink:title="{{39|Pullover Squat}}">
<path fill="#fdbf6f" stroke="#ff7f00" d="M985,-551.25C985,-551.25 1101,-551.25 1101,-551.25 1107,-551.25 1113,-557.25 1113,-563.25 1113,-563.25 1113,-575.25 1113,-575.25 1113,-581.25 1107,-587.25 1101,-587.25 1101,-587.25 985,-587.25 985,-587.25 979,-587.25 973,-581.25 973,-575.25 973,-575.25 973,-563.25 973,-563.25 973,-557.25 979,-551.25 985,-551.25"/>
<text text-anchor="middle" x="989.25" y="-564.45" font-family="Helvetica,Arial,sans-serif" font-size="14.00">39</text>
<polyline fill="none" stroke="#ff7f00" points="1005.5,-551.75 1005.5,-587.25"/>
<text text-anchor="middle" x="1059.25" y="-564.45" font-family="Helvetica,Arial,sans-serif" font-size="14.00">Pullover Squat</text>
</a>
</g>
</g>
<!-- pre_shinbox -->
<g id="node18" class="node">
<title>pre_shinbox</title>
<path fill="#b2df8a" stroke="#33a02c" d="M1677.88,-461C1677.88,-461 1766.12,-461 1766.12,-461 1772.12,-461 1778.12,-467 1778.12,-473 1778.12,-473 1778.12,-485 1778.12,-485 1778.12,-491 1772.12,-497 1766.12,-497 1766.12,-497 1677.88,-497 1677.88,-497 1671.88,-497 1665.88,-491 1665.88,-485 1665.88,-485 1665.88,-473 1665.88,-473 1665.88,-467 1671.88,-461 1677.88,-461"/>
<text text-anchor="middle" x="1685.88" y="-474.2" font-family="Helvetica,Arial,sans-serif" font-size="14.00">BW</text>
<polyline fill="none" stroke="#33a02c" points="1705.88,-461.5 1705.88,-497"/>
<text text-anchor="middle" x="1742" y="-474.2" font-family="Helvetica,Arial,sans-serif" font-size="14.00">Shin Box</text>
</g>
<!-- pre_shinbox&#45;&gt;mov_altshinbox -->
<g id="edge1" class="edge">
<title>pre_shinbox&#45;&gt;mov_altshinbox</title>
<path fill="none" stroke="black" d="M1722,-460.75C1722,-452.62 1722,-442.67 1722,-433.28"/>
<polygon fill="black" stroke="black" points="1725.5,-433.38 1722,-423.38 1718.5,-433.38 1725.5,-433.38"/>
</g>
<!-- ext_2h_deadclean -->
<g id="node19" class="node">
<title>ext_2h_deadclean</title>
<g id="a_node19"><a xlink:href="https://www.youtube.com/watch?v=69RGME9RTcY&amp;list=PLk4oYPJ7TXKiueHS7UMPv-DxNMK6UELds&amp;index=4" xlink:title="{{2H&#45;04|Dead Clean}}">
<path fill="#b2df8a" stroke="#33a02c" d="M12,-645.5C12,-645.5 134,-645.5 134,-645.5 140,-645.5 146,-651.5 146,-657.5 146,-657.5 146,-669.5 146,-669.5 146,-675.5 140,-681.5 134,-681.5 134,-681.5 12,-681.5 12,-681.5 6,-681.5 0,-675.5 0,-669.5 0,-669.5 0,-657.5 0,-657.5 0,-651.5 6,-645.5 12,-645.5"/>
<text text-anchor="middle" x="27.5" y="-658.7" font-family="Helvetica,Arial,sans-serif" font-size="14.00">2H&#45;04</text>
<polyline fill="none" stroke="#33a02c" points="55,-646 55,-681.5"/>
<text text-anchor="middle" x="100.5" y="-658.7" font-family="Helvetica,Arial,sans-serif" font-size="14.00">Dead Clean</text>
</a>
</g>
</g>
<!-- ext_2h_deadclean&#45;&gt;mov_cap -->
<g id="edge3" class="edge">
<title>ext_2h_deadclean&#45;&gt;mov_cap</title>
<path fill="none" stroke="black" d="M77.89,-645.15C81.23,-633.29 85.77,-617.2 89.78,-602.98"/>
<polygon fill="black" stroke="black" points="93.09,-604.11 92.44,-593.54 86.35,-602.22 93.09,-604.11"/>
</g>
<!-- ext_2h_incircle -->
<g id="node20" class="node">
<title>ext_2h_incircle</title>
<g id="a_node20"><a xlink:href="https://www.youtube.com/watch?v=Mh6iWcLbE3k&amp;list=PLk4oYPJ7TXKiueHS7UMPv-DxNMK6UELds&amp;index=5" xlink:title="{{2H&#45;05|Inside Circle}}">
<path fill="#b2df8a" stroke="#33a02c" d="M450.75,-645.5C450.75,-645.5 577.25,-645.5 577.25,-645.5 583.25,-645.5 589.25,-651.5 589.25,-657.5 589.25,-657.5 589.25,-669.5 589.25,-669.5 589.25,-675.5 583.25,-681.5 577.25,-681.5 577.25,-681.5 450.75,-681.5 450.75,-681.5 444.75,-681.5 438.75,-675.5 438.75,-669.5 438.75,-669.5 438.75,-657.5 438.75,-657.5 438.75,-651.5 444.75,-645.5 450.75,-645.5"/>
<text text-anchor="middle" x="466.25" y="-658.7" font-family="Helvetica,Arial,sans-serif" font-size="14.00">2H&#45;05</text>
<polyline fill="none" stroke="#33a02c" points="493.75,-646 493.75,-681.5"/>
<text text-anchor="middle" x="541.5" y="-658.7" font-family="Helvetica,Arial,sans-serif" font-size="14.00">Inside Circle</text>
</a>
</g>
</g>
<!-- ext_2h_incircle&#45;&gt;mov_millprep -->
<g id="edge20" class="edge">
<title>ext_2h_incircle&#45;&gt;mov_millprep</title>
<path fill="none" stroke="black" d="M471.9,-645.16C454.05,-635.45 435.06,-621.42 425,-602.5 411.12,-576.41 413.19,-563.09 425,-536 445.36,-489.3 463.71,-481.33 509,-458 544.73,-439.59 649.28,-421.41 717.86,-410.97"/>
<polygon fill="black" stroke="black" points="718.1,-414.47 727.47,-409.52 717.06,-407.55 718.1,-414.47"/>
</g>
<!-- ext_2h_incircle&#45;&gt;mov_incirclesquat -->
<g id="edge7" class="edge">
<title>ext_2h_incircle&#45;&gt;mov_incirclesquat</title>
<path fill="none" stroke="black" d="M548.42,-645.15C577.85,-630.31 620.4,-608.87 652.42,-592.72"/>
<polygon fill="black" stroke="black" points="653.72,-595.99 661.07,-588.36 650.57,-589.74 653.72,-595.99"/>
</g>
<!-- ext_2h_outcircle -->
<g id="node24" class="node">
<title>ext_2h_outcircle</title>
<g id="a_node24"><a xlink:href="https://www.youtube.com/watch?v=QzMzCal-MYM&amp;list=PLk4oYPJ7TXKiueHS7UMPv-DxNMK6UELds&amp;index=6" xlink:title="{{2H&#45;06|Outside Circle}}">
<path fill="#b2df8a" stroke="#33a02c" d="M445.5,-551.25C445.5,-551.25 582.5,-551.25 582.5,-551.25 588.5,-551.25 594.5,-557.25 594.5,-563.25 594.5,-563.25 594.5,-575.25 594.5,-575.25 594.5,-581.25 588.5,-587.25 582.5,-587.25 582.5,-587.25 445.5,-587.25 445.5,-587.25 439.5,-587.25 433.5,-581.25 433.5,-575.25 433.5,-575.25 433.5,-563.25 433.5,-563.25 433.5,-557.25 439.5,-551.25 445.5,-551.25"/>
<text text-anchor="middle" x="461" y="-564.45" font-family="Helvetica,Arial,sans-serif" font-size="14.00">2H&#45;06</text>
<polyline fill="none" stroke="#33a02c" points="488.5,-551.75 488.5,-587.25"/>
<text text-anchor="middle" x="541.5" y="-564.45" font-family="Helvetica,Arial,sans-serif" font-size="14.00">Outside Circle</text>
</a>
</g>
</g>
<!-- ext_2h_incircle&#45;&gt;ext_2h_outcircle -->
<g id="edge6" class="edge">
<title>ext_2h_incircle&#45;&gt;ext_2h_outcircle</title>
<path fill="none" stroke="black" d="M514,-645.15C514,-632.13 514,-614.03 514,-598.88"/>
<polygon fill="black" stroke="black" points="517.5,-599.04 514,-589.04 510.5,-599.04 517.5,-599.04"/>
</g>
<!-- ext_2h_sc -->
<g id="node21" class="node">
<title>ext_2h_sc</title>
<g id="a_node21"><a xlink:href="https://www.youtube.com/watch?v=W-iHvrjn72k&amp;list=PLk4oYPJ7TXKiueHS7UMPv-DxNMK6UELds&amp;index=9" xlink:title="{{2H&#45;09|Shield Cast}}">
<path fill="#b2df8a" stroke="#33a02c" d="M1092.12,-461C1092.12,-461 1211.88,-461 1211.88,-461 1217.88,-461 1223.88,-467 1223.88,-473 1223.88,-473 1223.88,-485 1223.88,-485 1223.88,-491 1217.88,-497 1211.88,-497 1211.88,-497 1092.12,-497 1092.12,-497 1086.12,-497 1080.12,-491 1080.12,-485 1080.12,-485 1080.12,-473 1080.12,-473 1080.12,-467 1086.12,-461 1092.12,-461"/>
<text text-anchor="middle" x="1107.62" y="-474.2" font-family="Helvetica,Arial,sans-serif" font-size="14.00">2H&#45;09</text>
<polyline fill="none" stroke="#33a02c" points="1135.12,-461.5 1135.12,-497"/>
<text text-anchor="middle" x="1179.5" y="-474.2" font-family="Helvetica,Arial,sans-serif" font-size="14.00">Shield Cast</text>
</a>
</g>
</g>
<!-- ext_2h_sc&#45;&gt;mov_kneelsc -->
<g id="edge4" class="edge">
<title>ext_2h_sc:s&#45;&gt;mov_kneelsc</title>
<path fill="none" stroke="black" d="M1152,-460C1152,-450.48 1152,-440.08 1152,-430.75"/>
<polygon fill="black" stroke="black" points="1155.5,-430.77 1152,-420.77 1148.5,-430.77 1155.5,-430.77"/>
</g>
<!-- ext_2h_sc&#45;&gt;mov_millprep -->
<g id="edge19" class="edge">
<title>ext_2h_sc&#45;&gt;mov_millprep</title>
<path fill="none" stroke="black" d="M1080.03,-463.26C1011.5,-449.22 909.4,-428.3 844.01,-414.91"/>
<polygon fill="black" stroke="black" points="845.03,-411.54 834.53,-412.97 843.62,-418.4 845.03,-411.54"/>
</g>
<!-- ext_2h_backposside2side -->
<g id="node22" class="node">
<title>ext_2h_backposside2side</title>
<g id="a_node22"><a xlink:href="https://www.youtube.com/watch?v=GKwGiB2UwyM&amp;list=PLk4oYPJ7TXKiueHS7UMPv-DxNMK6UELds&amp;index=8" xlink:title="{{2H&#45;08|Back Position\nSide to Side Swing}|SWING BEHIND HEAD}">
<path fill="#b2df8a" stroke="#33a02c" d="M1219.5,-536.5C1219.5,-536.5 1386.5,-536.5 1386.5,-536.5 1392.5,-536.5 1398.5,-542.5 1398.5,-548.5 1398.5,-548.5 1398.5,-590 1398.5,-590 1398.5,-596 1392.5,-602 1386.5,-602 1386.5,-602 1219.5,-602 1219.5,-602 1213.5,-602 1207.5,-596 1207.5,-590 1207.5,-590 1207.5,-548.5 1207.5,-548.5 1207.5,-542.5 1213.5,-536.5 1219.5,-536.5"/>
<text text-anchor="middle" x="1235" y="-576.45" font-family="Helvetica,Arial,sans-serif" font-size="14.00">2H&#45;08</text>
<polyline fill="none" stroke="#33a02c" points="1262.5,-561 1262.5,-602"/>
<text text-anchor="middle" x="1330.5" y="-584.7" font-family="Helvetica,Arial,sans-serif" font-size="14.00">Back Position</text>
<text text-anchor="middle" x="1330.5" y="-568.2" font-family="Helvetica,Arial,sans-serif" font-size="14.00">Side to Side Swing</text>
<polyline fill="none" stroke="#33a02c" points="1207.5,-561 1398.5,-561"/>
<text text-anchor="middle" x="1303" y="-543.7" font-family="Helvetica,Arial,sans-serif" font-size="14.00">SWING BEHIND HEAD</text>
</a>
</g>
</g>
<!-- ext_2h_backposside2side&#45;&gt;mov_kneelbackswing -->
<g id="edge5" class="edge">
<title>ext_2h_backposside2side&#45;&gt;mov_kneelbackswing</title>
<path fill="none" stroke="black" d="M1312.82,-536.14C1315.35,-527.9 1318.05,-519.05 1320.55,-510.88"/>
<polygon fill="black" stroke="black" points="1323.89,-511.93 1323.47,-501.34 1317.2,-509.88 1323.89,-511.93"/>
</g>
<!-- ext_2h_backposside2side&#45;&gt;ext_2h_sc -->
<g id="edge2" class="edge">
<title>ext_2h_backposside2side&#45;&gt;ext_2h_sc</title>
<path fill="none" stroke="black" d="M1248.06,-536.14C1229.31,-525.18 1208.73,-513.15 1191.44,-503.05"/>
<polygon fill="black" stroke="black" points="1193.39,-500.14 1182.99,-498.11 1189.86,-506.18 1193.39,-500.14"/>
</g>
<!-- ext_2h_frontpress -->
<g id="node23" class="node">
<title>ext_2h_frontpress</title>
<g id="a_node23"><a xlink:href="https://www.youtube.com/watch?v=HBRWtm3tTp4&amp;list=PLk4oYPJ7TXKiueHS7UMPv-DxNMK6UELds&amp;index=15" xlink:title="{{2H&#45;13|Front Press}}">
<path fill="#b2df8a" stroke="#33a02c" d="M176.38,-645.5C176.38,-645.5 297.62,-645.5 297.62,-645.5 303.62,-645.5 309.62,-651.5 309.62,-657.5 309.62,-657.5 309.62,-669.5 309.62,-669.5 309.62,-675.5 303.62,-681.5 297.62,-681.5 297.62,-681.5 176.38,-681.5 176.38,-681.5 170.38,-681.5 164.38,-675.5 164.38,-669.5 164.38,-669.5 164.38,-657.5 164.38,-657.5 164.38,-651.5 170.38,-645.5 176.38,-645.5"/>
<text text-anchor="middle" x="191.88" y="-658.7" font-family="Helvetica,Arial,sans-serif" font-size="14.00">2H&#45;13</text>
<polyline fill="none" stroke="#33a02c" points="219.38,-646 219.38,-681.5"/>
<text text-anchor="middle" x="264.5" y="-658.7" font-family="Helvetica,Arial,sans-serif" font-size="14.00">Front Press</text>
</a>
</g>
</g>
<!-- ext_2h_frontpress&#45;&gt;mov_cap -->
<g id="edge15" class="edge">
<title>ext_2h_frontpress&#45;&gt;mov_cap</title>
<path fill="none" stroke="black" d="M211.04,-645.15C191.44,-632.04 164.11,-613.77 141.35,-598.56"/>
<polygon fill="black" stroke="black" points="143.43,-595.74 133.17,-593.09 139.54,-601.56 143.43,-595.74"/>
</g>
<!-- ext_2h_frontpress&#45;&gt;mov_squatpress -->
<g id="edge16" class="edge">
<title>ext_2h_frontpress&#45;&gt;mov_squatpress</title>
<path fill="none" stroke="black" d="M251.48,-645.15C262.99,-631.36 279.27,-611.86 292.32,-596.22"/>
<polygon fill="black" stroke="black" points="294.89,-598.61 298.61,-588.69 289.52,-594.12 294.89,-598.61"/>
</g>
<!-- mov_sbfrontpress -->
<g id="node29" class="node">
<title>mov_sbfrontpress</title>
<path fill="#a6cee3" stroke="#1f78b4" d="M227.88,-380.5C227.88,-380.5 370.12,-380.5 370.12,-380.5 376.12,-380.5 382.12,-386.5 382.12,-392.5 382.12,-392.5 382.12,-409.5 382.12,-409.5 382.12,-415.5 376.12,-421.5 370.12,-421.5 370.12,-421.5 227.88,-421.5 227.88,-421.5 221.88,-421.5 215.88,-415.5 215.88,-409.5 215.88,-409.5 215.88,-392.5 215.88,-392.5 215.88,-386.5 221.88,-380.5 227.88,-380.5"/>
<text text-anchor="middle" x="236.25" y="-395.95" font-family="Helvetica,Arial,sans-serif" font-size="14.00">30?</text>
<polyline fill="none" stroke="#1f78b4" points="256.62,-380.5 256.62,-421.5"/>
<text text-anchor="middle" x="319.38" y="-404.2" font-family="Helvetica,Arial,sans-serif" font-size="14.00">Step&#45;Back Lunge</text>
<text text-anchor="middle" x="319.38" y="-387.7" font-family="Helvetica,Arial,sans-serif" font-size="14.00">Front Press</text>
</g>
<!-- ext_2h_frontpress&#45;&gt;mov_sbfrontpress -->
<g id="edge17" class="edge">
<title>ext_2h_frontpress&#45;&gt;mov_sbfrontpress</title>
<path fill="none" stroke="black" d="M235.72,-645.06C234.36,-620.42 233.43,-574.17 242,-536 250.42,-498.49 268.95,-458.27 282.6,-431.79"/>
<polygon fill="black" stroke="black" points="285.66,-433.48 287.23,-423.01 279.47,-430.22 285.66,-433.48"/>
</g>
<!-- ext_2h_outcircle&#45;&gt;mov_outcirclesquat -->
<g id="edge8" class="edge">
<title>ext_2h_outcircle&#45;&gt;mov_outcirclesquat</title>
<path fill="none" stroke="black" d="M532.37,-550.81C546.13,-537.76 565.15,-519.71 580.54,-505.11"/>
<polygon fill="black" stroke="black" points="582.72,-507.86 587.57,-498.44 577.9,-502.79 582.72,-507.86"/>
</g>
<!-- ext_2h_pullover -->
<g id="node25" class="node">
<title>ext_2h_pullover</title>
<g id="a_node25"><a xlink:href="https://www.youtube.com/watch?v=jpIn1Sumg78&amp;list=PLk4oYPJ7TXKiueHS7UMPv-DxNMK6UELds&amp;index=7" xlink:title="{{2H&#45;07|Pullover}|CLUB BEHIND HEAD}">
<path fill="#b2df8a" stroke="#33a02c" d="M1113.25,-639C1113.25,-639 1244.75,-639 1244.75,-639 1250.75,-639 1256.75,-645 1256.75,-651 1256.75,-651 1256.75,-676 1256.75,-676 1256.75,-682 1250.75,-688 1244.75,-688 1244.75,-688 1113.25,-688 1113.25,-688 1107.25,-688 1101.25,-682 1101.25,-676 1101.25,-676 1101.25,-651 1101.25,-651 1101.25,-645 1107.25,-639 1113.25,-639"/>
<text text-anchor="middle" x="1136.75" y="-670.7" font-family="Helvetica,Arial,sans-serif" font-size="14.00">2H&#45;07</text>
<polyline fill="none" stroke="#33a02c" points="1172.25,-663.5 1172.25,-688"/>
<text text-anchor="middle" x="1214.25" y="-670.7" font-family="Helvetica,Arial,sans-serif" font-size="14.00">Pullover</text>
<polyline fill="none" stroke="#33a02c" points="1101.25,-663.5 1256.75,-663.5"/>
<text text-anchor="middle" x="1179" y="-646.2" font-family="Helvetica,Arial,sans-serif" font-size="14.00">CLUB BEHIND HEAD</text>
</a>
</g>
</g>
<!-- ext_2h_pullover&#45;&gt;mov_40_swipe -->
<g id="edge23" class="edge">
<title>ext_2h_pullover&#45;&gt;mov_40_swipe</title>
<path fill="none" stroke="black" d="M1256.99,-643.4C1301.44,-632.18 1358.06,-617.33 1408,-602.5 1415.09,-600.4 1422.44,-598.12 1429.77,-595.79"/>
<polygon fill="black" stroke="black" points="1430.6,-599.2 1439.04,-592.81 1428.45,-592.54 1430.6,-599.2"/>
</g>
<!-- ext_2h_pullover&#45;&gt;mov_sblungepull -->
<g id="edge11" class="edge">
<title>ext_2h_pullover&#45;&gt;mov_sblungepull</title>
<path fill="none" stroke="black" d="M1169.59,-638.64C1155.71,-603.95 1130.48,-542.94 1122,-536 1098.37,-516.65 1027.33,-501.72 967.8,-492.16"/>
<polygon fill="black" stroke="black" points="968.36,-488.71 957.94,-490.61 967.27,-495.62 968.36,-488.71"/>
</g>
<!-- ext_2h_pullover&#45;&gt;mov_39_pullsquat -->
<g id="edge22" class="edge">
<title>ext_2h_pullover&#45;&gt;mov_39_pullsquat</title>
<path fill="none" stroke="black" d="M1143.62,-638.5C1123.47,-624.83 1098.3,-607.76 1078.18,-594.11"/>
<polygon fill="black" stroke="black" points="1080.24,-591.28 1070,-588.57 1076.31,-597.08 1080.24,-591.28"/>
</g>
<!-- ext_2h_pullover&#45;&gt;ext_2h_sc -->
<g id="edge10" class="edge">
<title>ext_2h_pullover&#45;&gt;ext_2h_sc</title>
<path fill="none" stroke="black" d="M1175.47,-638.64C1170.51,-605.13 1161.5,-544.24 1156.21,-508.43"/>
<polygon fill="black" stroke="black" points="1159.71,-508.2 1154.78,-498.82 1152.78,-509.22 1159.71,-508.2"/>
</g>
<!-- ext_2h_pullover&#45;&gt;ext_2h_backposside2side -->
<g id="edge9" class="edge">
<title>ext_2h_pullover&#45;&gt;ext_2h_backposside2side</title>
<path fill="none" stroke="black" d="M1211.26,-638.5C1223.27,-629.57 1237.23,-619.18 1250.58,-609.25"/>
<polygon fill="black" stroke="black" points="1252.55,-612.14 1258.49,-603.37 1248.37,-606.53 1252.55,-612.14"/>
</g>
<!-- ext_2h_squat -->
<g id="node26" class="node">
<title>ext_2h_squat</title>
<g id="a_node26"><a xlink:href="https://www.youtube.com/watch?v=LSXticZ67Pw&amp;list=PLk4oYPJ7TXKiueHS7UMPv-DxNMK6UELds&amp;index=11" xlink:title="{{2H&#45;10|Balance Squat}}">
<path fill="#b2df8a" stroke="#33a02c" d="M717.75,-645.5C717.75,-645.5 856.25,-645.5 856.25,-645.5 862.25,-645.5 868.25,-651.5 868.25,-657.5 868.25,-657.5 868.25,-669.5 868.25,-669.5 868.25,-675.5 862.25,-681.5 856.25,-681.5 856.25,-681.5 717.75,-681.5 717.75,-681.5 711.75,-681.5 705.75,-675.5 705.75,-669.5 705.75,-669.5 705.75,-657.5 705.75,-657.5 705.75,-651.5 711.75,-645.5 717.75,-645.5"/>
<text text-anchor="middle" x="733.25" y="-658.7" font-family="Helvetica,Arial,sans-serif" font-size="14.00">2H&#45;10</text>
<polyline fill="none" stroke="#33a02c" points="760.75,-646 760.75,-681.5"/>
<text text-anchor="middle" x="814.5" y="-658.7" font-family="Helvetica,Arial,sans-serif" font-size="14.00">Balance Squat</text>
</a>
</g>
</g>
<!-- ext_2h_squat&#45;&gt;mov_squatpress -->
<g id="edge14" class="edge">
<title>ext_2h_squat&#45;&gt;mov_squatpress</title>
<path fill="none" stroke="black" d="M705.59,-651.82C631.87,-641.48 520.51,-624.21 425,-602.5 410.42,-599.19 394.92,-595.07 380.28,-590.9"/>
<polygon fill="black" stroke="black" points="381.31,-587.55 370.73,-588.13 379.36,-594.28 381.31,-587.55"/>
</g>
<!-- ext_2h_squat&#45;&gt;mov_incirclesquat -->
<g id="edge13" class="edge">
<title>ext_2h_squat&#45;&gt;mov_incirclesquat</title>
<path fill="none" stroke="black" d="M770.07,-645.15C756.37,-631.1 736.89,-611.13 721.48,-595.35"/>
<polygon fill="black" stroke="black" points="724.4,-593.32 714.91,-588.61 719.39,-598.21 724.4,-593.32"/>
</g>
<!-- ext_2h_squat&#45;&gt;mov_39_pullsquat -->
<g id="edge21" class="edge">
<title>ext_2h_squat&#45;&gt;mov_39_pullsquat</title>
<path fill="none" stroke="black" d="M841.14,-645.09C876.33,-633.55 923.11,-617.76 964,-602.5 972.88,-599.19 982.25,-595.52 991.32,-591.87"/>
<polygon fill="black" stroke="black" points="992.42,-595.2 1000.37,-588.2 989.79,-588.72 992.42,-595.2"/>
</g>
<!-- ext_2h_stepbacklunge -->
<g id="node27" class="node">
<title>ext_2h_stepbacklunge</title>
<g id="a_node27"><a xlink:href="https://www.youtube.com/watch?v=dNrYT5iU7BQ&amp;list=PLk4oYPJ7TXKiueHS7UMPv-DxNMK6UELds&amp;index=26" xlink:title="{{2H&#45;17|Balance Step\nBack Lunge}}">
<path fill="#b2df8a" stroke="#33a02c" d="M811.12,-548.75C811.12,-548.75 942.88,-548.75 942.88,-548.75 948.88,-548.75 954.88,-554.75 954.88,-560.75 954.88,-560.75 954.88,-577.75 954.88,-577.75 954.88,-583.75 948.88,-589.75 942.88,-589.75 942.88,-589.75 811.12,-589.75 811.12,-589.75 805.12,-589.75 799.12,-583.75 799.12,-577.75 799.12,-577.75 799.12,-560.75 799.12,-560.75 799.12,-554.75 805.12,-548.75 811.12,-548.75"/>
<text text-anchor="middle" x="826.62" y="-564.2" font-family="Helvetica,Arial,sans-serif" font-size="14.00">2H&#45;17</text>
<polyline fill="none" stroke="#33a02c" points="854.12,-548.75 854.12,-589.75"/>
<text text-anchor="middle" x="904.5" y="-572.45" font-family="Helvetica,Arial,sans-serif" font-size="14.00">Balance Step</text>
<text text-anchor="middle" x="904.5" y="-555.95" font-family="Helvetica,Arial,sans-serif" font-size="14.00">Back Lunge</text>
</a>
</g>
</g>
<!-- ext_2h_squat&#45;&gt;ext_2h_stepbacklunge -->
<g id="edge12" class="edge">
<title>ext_2h_squat&#45;&gt;ext_2h_stepbacklunge</title>
<path fill="none" stroke="black" d="M803.93,-645.15C816.82,-631.94 834.82,-613.48 849.73,-598.2"/>
<polygon fill="black" stroke="black" points="852.11,-600.77 856.59,-591.17 847.1,-595.88 852.11,-600.77"/>
</g>
<!-- ext_2h_stepbacklunge&#45;&gt;mov_sblungepull -->
<g id="edge18" class="edge">
<title>ext_2h_stepbacklunge&#45;&gt;mov_sblungepull</title>
<path fill="none" stroke="black" d="M877,-548.66C877,-537.66 877,-523.67 877,-511.19"/>
<polygon fill="black" stroke="black" points="880.5,-511.35 877,-501.35 873.5,-511.35 880.5,-511.35"/>
</g>
<!-- ext_2h_swingclean -->
<g id="node28" class="node">
<title>ext_2h_swingclean</title>
<g id="a_node28"><a xlink:href="https://www.youtube.com/watch?v=0oRuCQOkPRo&amp;list=PLk4oYPJ7TXKiueHS7UMPv-DxNMK6UELds&amp;index=12" xlink:title="{{2H&#45;11|Swing Clean}|DECELERATE WEIGHT}">
<path fill="#b2df8a" stroke="#33a02c" d="M1429.12,-639C1429.12,-639 1580.88,-639 1580.88,-639 1586.88,-639 1592.88,-645 1592.88,-651 1592.88,-651 1592.88,-676 1592.88,-676 1592.88,-682 1586.88,-688 1580.88,-688 1580.88,-688 1429.12,-688 1429.12,-688 1423.12,-688 1417.12,-682 1417.12,-676 1417.12,-676 1417.12,-651 1417.12,-651 1417.12,-645 1423.12,-639 1429.12,-639"/>
<text text-anchor="middle" x="1451.12" y="-670.7" font-family="Helvetica,Arial,sans-serif" font-size="14.00">2H&#45;11</text>
<polyline fill="none" stroke="#33a02c" points="1485.12,-663.5 1485.12,-688"/>
<text text-anchor="middle" x="1539" y="-670.7" font-family="Helvetica,Arial,sans-serif" font-size="14.00">Swing Clean</text>
<polyline fill="none" stroke="#33a02c" points="1417.12,-663.5 1592.88,-663.5"/>
<text text-anchor="middle" x="1505" y="-646.2" font-family="Helvetica,Arial,sans-serif" font-size="14.00">DECELERATE WEIGHT</text>
</a>
</g>
</g>
<!-- ext_2h_swingclean&#45;&gt;mov_40_swipe -->
<g id="edge24" class="edge">
<title>ext_2h_swingclean&#45;&gt;mov_40_swipe</title>
<path fill="none" stroke="black" d="M1505,-638.74C1505,-628.12 1505,-615.42 1505,-603.85"/>
<polygon fill="black" stroke="black" points="1508.5,-603.86 1505,-593.86 1501.5,-603.86 1508.5,-603.86"/>
</g>
<!-- mov_sbfrontpress&#45;&gt;mov_sblungepullsbpress -->
<g id="edge31" class="edge">
<title>mov_sbfrontpress&#45;&gt;mov_sblungepullsbpress</title>
<path fill="none" stroke="black" d="M329.48,-380.03C343.46,-370.87 360.23,-359.88 375.2,-350.08"/>
<polygon fill="black" stroke="black" points="377.01,-353.07 383.46,-344.66 373.18,-347.22 377.01,-353.07"/>
</g>
<!-- Legend -->
<g id="node30" class="node">
<title>Legend</title>
<path fill="#a6cee3" stroke="none" d="M473.5,-266C473.5,-266 356.5,-266 356.5,-266 350.5,-266 344.5,-260 344.5,-254 344.5,-254 344.5,-174 344.5,-174 344.5,-168 350.5,-162 356.5,-162 356.5,-162 473.5,-162 473.5,-162 479.5,-162 485.5,-168 485.5,-174 485.5,-174 485.5,-254 485.5,-254 485.5,-260 479.5,-266 473.5,-266"/>
<polygon fill="none" stroke="#1f78b4" points="344.5,-240 344.5,-266 485.5,-266 485.5,-240 344.5,-240"/>
<text text-anchor="start" x="388.75" y="-248.7" font-family="Helvetica,Arial,sans-serif" font-weight="bold" font-size="14.00">Legend</text>
<polygon fill="none" stroke="#1f78b4" points="344.5,-214 344.5,-240 457.5,-240 457.5,-214 344.5,-214"/>
<text text-anchor="start" x="355.62" y="-221.7" font-family="Helvetica,Arial,sans-serif" font-size="14.00">Previous Drills</text>
<polygon fill="#b2df8a" stroke="none" points="457.5,-214 457.5,-240 485.5,-240 485.5,-214 457.5,-214"/>
<polygon fill="none" stroke="#1f78b4" points="457.5,-214 457.5,-240 485.5,-240 485.5,-214 457.5,-214"/>
<text text-anchor="start" x="462.12" y="-221.7" font-family="Helvetica,Arial,sans-serif" font-size="14.00">     </text>
<polygon fill="none" stroke="#1f78b4" points="344.5,-188 344.5,-214 457.5,-214 457.5,-188 344.5,-188"/>
<text text-anchor="start" x="359.38" y="-195.7" font-family="Helvetica,Arial,sans-serif" font-size="14.00">Primary Drills</text>
<polygon fill="#ffff99" stroke="none" points="457.5,-188 457.5,-214 485.5,-214 485.5,-188 457.5,-188"/>
<polygon fill="none" stroke="#1f78b4" points="457.5,-188 457.5,-214 485.5,-214 485.5,-188 457.5,-188"/>
<polygon fill="none" stroke="#1f78b4" points="344.5,-162 344.5,-188 457.5,-188 457.5,-162 344.5,-162"/>
<text text-anchor="start" x="349.25" y="-169.7" font-family="Helvetica,Arial,sans-serif" font-size="14.00">Secondary Drills</text>
<polygon fill="#fdbf6f" stroke="none" points="457.5,-162 457.5,-188 485.5,-188 485.5,-162 457.5,-162"/>
<polygon fill="none" stroke="#1f78b4" points="457.5,-162 457.5,-188 485.5,-188 485.5,-162 457.5,-162"/>
</g>
</g>
</svg>
