<?xml version="1.0" encoding="UTF-8" standalone="no"?>
<!DOCTYPE svg PUBLIC "-//W3C//DTD SVG 1.1//EN"
 "http://www.w3.org/Graphics/SVG/1.1/DTD/svg11.dtd">
<!-- Generated by graphviz version 9.0.0 (20230911.1827)
 -->
<!-- Title: HC2H Pages: 1 -->
<svg width="1958pt" height="697pt"
 viewBox="0.00 0.00 1957.67 696.50" xmlns="http://www.w3.org/2000/svg" xmlns:xlink="http://www.w3.org/1999/xlink">
<g id="graph0" class="graph" transform="scale(1 1) rotate(0) translate(4 692.5)">
<title>HC2H</title>
<polygon fill="white" stroke="none" points="-4,4 -4,-692.5 1953.67,-692.5 1953.67,4 -4,4"/>
<text text-anchor="start" x="1550.17" y="-145.7" font-family="Helvetica,Arial,sans-serif" font-weight="bold" font-size="14.00">Two&#45;Handed Heavy Club Skill Progression &#45; Part 2/2</text>
<text text-anchor="start" x="1550.17" y="-117.7" font-family="Helvetica,Arial,sans-serif" font-size="14.00">Diagram by dznz based on Mark Wildman&#39;s teachings.</text>
<text text-anchor="start" x="1550.17" y="-89.7" font-family="Helvetica,Arial,sans-serif" font-size="14.00">Source: </text>
<text text-anchor="start" x="1603.42" y="-89.7" font-family="Helvetica,Arial,sans-serif" font-weight="bold" font-size="14.00">https://github.com/dznz/wildman&#45;skill&#45;trees</text>
<text text-anchor="start" x="1550.17" y="-61.7" font-family="Helvetica,Arial,sans-serif" font-size="14.00">More by Mark Wildman &#45; </text>
<text text-anchor="start" x="1706.17" y="-61.7" font-family="Helvetica,Arial,sans-serif" font-weight="bold" font-size="14.00">https://www.wildmanathletica.com</text>
<text text-anchor="start" x="1550.17" y="-33.7" font-family="Helvetica,Arial,sans-serif" font-style="italic" font-size="14.00">© 2023. This work is openly licensed with CC BY&#45;NC&#45;SA 4.0</text>
<text text-anchor="start" x="1618.42" y="-19.7" font-family="Helvetica,Arial,sans-serif" font-style="italic" font-size="14.00">http://creativecommons.org/licenses/by&#45;nc&#45;sa/4.0/</text>
<text text-anchor="start" x="1742.17" y="-5.7" font-family="Helvetica,Arial,sans-serif" font-size="14.00"> &#160;</text>
<!-- mov_cap -->
<g id="node1" class="node">
<title>mov_cap</title>
<g id="a_node1"><a xlink:href="https://www.youtube.com/watch?v=6kpEYglMJ1c" xlink:title="{{37|Clean &amp; Press}}">
<path fill="#ffff99" stroke="#b15928" d="M12,-546.6C12,-546.6 153.6,-546.6 153.6,-546.6 159.6,-546.6 165.6,-552.6 165.6,-558.6 165.6,-558.6 165.6,-579.9 165.6,-579.9 165.6,-585.9 159.6,-591.9 153.6,-591.9 153.6,-591.9 12,-591.9 12,-591.9 6,-591.9 0,-585.9 0,-579.9 0,-579.9 0,-558.6 0,-558.6 0,-552.6 6,-546.6 12,-546.6"/>
<text text-anchor="middle" x="22.65" y="-564.2" font-family="Helvetica,Arial,sans-serif" font-size="14.00">37</text>
<polyline fill="none" stroke="#b15928" points="45.3,-546.6 45.3,-591.9"/>
<text text-anchor="middle" x="105.45" y="-564.2" font-family="Helvetica,Arial,sans-serif" font-size="14.00">Clean &amp; Press</text>
</a>
</g>
</g>
<!-- mov_40_swipe -->
<g id="node2" class="node">
<title>mov_40_swipe</title>
<g id="a_node2"><a xlink:href="https://www.youtube.com/watch?v=nQ7npb0krRg" xlink:title="{{40|Technical Swipe}}">
<path fill="#ffff99" stroke="#b15928" d="M1557,-546.6C1557,-546.6 1710.6,-546.6 1710.6,-546.6 1716.6,-546.6 1722.6,-552.6 1722.6,-558.6 1722.6,-558.6 1722.6,-579.9 1722.6,-579.9 1722.6,-585.9 1716.6,-591.9 1710.6,-591.9 1710.6,-591.9 1557,-591.9 1557,-591.9 1551,-591.9 1545,-585.9 1545,-579.9 1545,-579.9 1545,-558.6 1545,-558.6 1545,-552.6 1551,-546.6 1557,-546.6"/>
<text text-anchor="middle" x="1567.65" y="-564.2" font-family="Helvetica,Arial,sans-serif" font-size="14.00">40</text>
<polyline fill="none" stroke="#b15928" points="1590.3,-546.6 1590.3,-591.9"/>
<text text-anchor="middle" x="1656.45" y="-564.2" font-family="Helvetica,Arial,sans-serif" font-size="14.00">Technical Swipe</text>
</a>
</g>
</g>
<!-- mov_kneelsc -->
<g id="node3" class="node">
<title>mov_kneelsc</title>
<g id="a_node3"><a xlink:href="https://www.youtube.com/watch?v=yHIEZN0Nl_U&amp;list=PLk4oYPJ7TXKiueHS7UMPv-DxNMK6UELds&amp;index=42" xlink:title="{{23|Half&#45;Kneeling Shield Cast}}">
<path fill="#fdbf6f" stroke="#ff7f00" d="M1187.92,-383C1187.92,-383 1373.67,-383 1373.67,-383 1379.67,-383 1385.67,-389 1385.67,-395 1385.67,-395 1385.67,-407 1385.67,-407 1385.67,-413 1379.67,-419 1373.67,-419 1373.67,-419 1187.92,-419 1187.92,-419 1181.92,-419 1175.92,-413 1175.92,-407 1175.92,-407 1175.92,-395 1175.92,-395 1175.92,-389 1181.92,-383 1187.92,-383"/>
<text text-anchor="middle" x="1192.17" y="-396.2" font-family="Helvetica,Arial,sans-serif" font-size="14.00">23</text>
<polyline fill="none" stroke="#ff7f00" points="1208.42,-383.5 1208.42,-419"/>
<text text-anchor="middle" x="1297.05" y="-396.2" font-family="Helvetica,Arial,sans-serif" font-size="14.00">Half&#45;Kneeling Shield Cast</text>
</a>
</g>
</g>
<!-- mov_sblungepull -->
<g id="node4" class="node">
<title>mov_sblungepull</title>
<g id="a_node4"><a xlink:href="https://www.youtube.com/watch?v=yHIEZN0Nl_U&amp;list=PLk4oYPJ7TXKiueHS7UMPv-DxNMK6UELds&amp;index=44" xlink:title="{{24|Step&#45;Back Lunge\nPullover at Top}}">
<path fill="#fdbf6f" stroke="#ff7f00" d="M938.8,-458.5C938.8,-458.5 1072.8,-458.5 1072.8,-458.5 1078.8,-458.5 1084.8,-464.5 1084.8,-470.5 1084.8,-470.5 1084.8,-487.5 1084.8,-487.5 1084.8,-493.5 1078.8,-499.5 1072.8,-499.5 1072.8,-499.5 938.8,-499.5 938.8,-499.5 932.8,-499.5 926.8,-493.5 926.8,-487.5 926.8,-487.5 926.8,-470.5 926.8,-470.5 926.8,-464.5 932.8,-458.5 938.8,-458.5"/>
<text text-anchor="middle" x="943.05" y="-473.95" font-family="Helvetica,Arial,sans-serif" font-size="14.00">24</text>
<polyline fill="none" stroke="#ff7f00" points="959.3,-458.5 959.3,-499.5"/>
<text text-anchor="middle" x="1022.05" y="-482.2" font-family="Helvetica,Arial,sans-serif" font-size="14.00">Step&#45;Back Lunge</text>
<text text-anchor="middle" x="1022.05" y="-465.7" font-family="Helvetica,Arial,sans-serif" font-size="14.00">Pullover at Top</text>
</a>
</g>
</g>
<!-- mov_sblungepullbot -->
<g id="node8" class="node">
<title>mov_sblungepullbot</title>
<g id="a_node8"><a xlink:href="https://www.youtube.com/watch?v=UpY9zHuTZds" xlink:title="{{28|Step&#45;Back Lunge\nPullover at Bottom}}">
<path fill="#fdbf6f" stroke="#ff7f00" d="M379.8,-380.5C379.8,-380.5 519.8,-380.5 519.8,-380.5 525.8,-380.5 531.8,-386.5 531.8,-392.5 531.8,-392.5 531.8,-409.5 531.8,-409.5 531.8,-415.5 525.8,-421.5 519.8,-421.5 519.8,-421.5 379.8,-421.5 379.8,-421.5 373.8,-421.5 367.8,-415.5 367.8,-409.5 367.8,-409.5 367.8,-392.5 367.8,-392.5 367.8,-386.5 373.8,-380.5 379.8,-380.5"/>
<text text-anchor="middle" x="384.05" y="-395.95" font-family="Helvetica,Arial,sans-serif" font-size="14.00">28</text>
<polyline fill="none" stroke="#ff7f00" points="400.3,-380.5 400.3,-421.5"/>
<text text-anchor="middle" x="466.05" y="-404.2" font-family="Helvetica,Arial,sans-serif" font-size="14.00">Step&#45;Back Lunge</text>
<text text-anchor="middle" x="466.05" y="-387.7" font-family="Helvetica,Arial,sans-serif" font-size="14.00">Pullover at Bottom</text>
</a>
</g>
</g>
<!-- mov_sblungepull&#45;&gt;mov_sblungepullbot -->
<g id="edge26" class="edge">
<title>mov_sblungepull&#45;&gt;mov_sblungepullbot</title>
<path fill="none" stroke="black" d="M926.43,-467.15C825.3,-453.33 650.75,-429.47 543.28,-414.78"/>
<polygon fill="black" stroke="black" points="544.01,-411.34 533.63,-413.46 543.06,-418.28 544.01,-411.34"/>
</g>
<!-- mov_fbpull -->
<g id="node5" class="node">
<title>mov_fbpull</title>
<g id="a_node5"><a xlink:href="https://www.youtube.com/watch?v=yHIEZN0Nl_U&amp;list=PLk4oYPJ7TXKiueHS7UMPv-DxNMK6UELds&amp;index=45" xlink:title="{{26|Flat Back Pullover}}">
<path fill="#fdbf6f" stroke="#ff7f00" d="M1576.92,-461C1576.92,-461 1714.67,-461 1714.67,-461 1720.67,-461 1726.67,-467 1726.67,-473 1726.67,-473 1726.67,-485 1726.67,-485 1726.67,-491 1720.67,-497 1714.67,-497 1714.67,-497 1576.92,-497 1576.92,-497 1570.92,-497 1564.92,-491 1564.92,-485 1564.92,-485 1564.92,-473 1564.92,-473 1564.92,-467 1570.92,-461 1576.92,-461"/>
<text text-anchor="middle" x="1581.17" y="-474.2" font-family="Helvetica,Arial,sans-serif" font-size="14.00">26</text>
<polyline fill="none" stroke="#ff7f00" points="1597.42,-461.5 1597.42,-497"/>
<text text-anchor="middle" x="1662.05" y="-474.2" font-family="Helvetica,Arial,sans-serif" font-size="14.00">Flat Back Pullover</text>
</a>
</g>
</g>
<!-- mov_fbpullsit -->
<g id="node7" class="node">
<title>mov_fbpullsit</title>
<g id="a_node7"><a xlink:href="https://www.youtube.com/watch?v=Ii2WZgl5mHA" xlink:title="{{27|Flat Back Pullover Situp}}">
<path fill="#fdbf6f" stroke="#ff7f00" d="M1558.92,-383C1558.92,-383 1732.67,-383 1732.67,-383 1738.67,-383 1744.67,-389 1744.67,-395 1744.67,-395 1744.67,-407 1744.67,-407 1744.67,-413 1738.67,-419 1732.67,-419 1732.67,-419 1558.92,-419 1558.92,-419 1552.92,-419 1546.92,-413 1546.92,-407 1546.92,-407 1546.92,-395 1546.92,-395 1546.92,-389 1552.92,-383 1558.92,-383"/>
<text text-anchor="middle" x="1563.17" y="-396.2" font-family="Helvetica,Arial,sans-serif" font-size="14.00">27</text>
<polyline fill="none" stroke="#ff7f00" points="1579.42,-383.5 1579.42,-419"/>
<text text-anchor="middle" x="1662.05" y="-396.2" font-family="Helvetica,Arial,sans-serif" font-size="14.00">Flat Back Pullover Situp</text>
</a>
</g>
</g>
<!-- mov_fbpull&#45;&gt;mov_fbpullsit -->
<g id="edge25" class="edge">
<title>mov_fbpull&#45;&gt;mov_fbpullsit</title>
<path fill="none" stroke="black" d="M1645.8,-460.75C1645.8,-451.88 1645.8,-440.82 1645.8,-430.7"/>
<polygon fill="black" stroke="black" points="1649.3,-430.95 1645.8,-420.95 1642.3,-430.95 1649.3,-430.95"/>
</g>
<!-- mov_kneelbackswing -->
<g id="node6" class="node">
<title>mov_kneelbackswing</title>
<g id="a_node6"><a xlink:href="https://www.youtube.com/watch?v=XH_HFWZQt4c" xlink:title="{{25|Half&#45;Kneeling\nBack Position Swing}}">
<path fill="#fdbf6f" stroke="#ff7f00" d="M1382.42,-458.5C1382.42,-458.5 1535.17,-458.5 1535.17,-458.5 1541.17,-458.5 1547.17,-464.5 1547.17,-470.5 1547.17,-470.5 1547.17,-487.5 1547.17,-487.5 1547.17,-493.5 1541.17,-499.5 1535.17,-499.5 1535.17,-499.5 1382.42,-499.5 1382.42,-499.5 1376.42,-499.5 1370.42,-493.5 1370.42,-487.5 1370.42,-487.5 1370.42,-470.5 1370.42,-470.5 1370.42,-464.5 1376.42,-458.5 1382.42,-458.5"/>
<text text-anchor="middle" x="1386.67" y="-473.95" font-family="Helvetica,Arial,sans-serif" font-size="14.00">25</text>
<polyline fill="none" stroke="#ff7f00" points="1402.92,-458.5 1402.92,-499.5"/>
<text text-anchor="middle" x="1475.05" y="-482.2" font-family="Helvetica,Arial,sans-serif" font-size="14.00">Half&#45;Kneeling</text>
<text text-anchor="middle" x="1475.05" y="-465.7" font-family="Helvetica,Arial,sans-serif" font-size="14.00">Back Position Swing</text>
</a>
</g>
</g>
<!-- mov_fbpullsitpress -->
<g id="node9" class="node">
<title>mov_fbpullsitpress</title>
<g id="a_node9"><a xlink:href="https://www.youtube.com/watch?v=8VL8tvinc28" xlink:title="{{29|Flat Back Pullover\nSitup Press}}">
<path fill="#fdbf6f" stroke="#ff7f00" d="M1576.92,-302.5C1576.92,-302.5 1714.67,-302.5 1714.67,-302.5 1720.67,-302.5 1726.67,-308.5 1726.67,-314.5 1726.67,-314.5 1726.67,-331.5 1726.67,-331.5 1726.67,-337.5 1720.67,-343.5 1714.67,-343.5 1714.67,-343.5 1576.92,-343.5 1576.92,-343.5 1570.92,-343.5 1564.92,-337.5 1564.92,-331.5 1564.92,-331.5 1564.92,-314.5 1564.92,-314.5 1564.92,-308.5 1570.92,-302.5 1576.92,-302.5"/>
<text text-anchor="middle" x="1581.17" y="-317.95" font-family="Helvetica,Arial,sans-serif" font-size="14.00">29</text>
<polyline fill="none" stroke="#ff7f00" points="1597.42,-302.5 1597.42,-343.5"/>
<text text-anchor="middle" x="1662.05" y="-326.2" font-family="Helvetica,Arial,sans-serif" font-size="14.00">Flat Back Pullover</text>
<text text-anchor="middle" x="1662.05" y="-309.7" font-family="Helvetica,Arial,sans-serif" font-size="14.00">Situp Press</text>
</a>
</g>
</g>
<!-- mov_fbpullsit&#45;&gt;mov_fbpullsitpress -->
<g id="edge27" class="edge">
<title>mov_fbpullsit&#45;&gt;mov_fbpullsitpress</title>
<path fill="none" stroke="black" d="M1645.8,-382.75C1645.8,-374.62 1645.8,-364.67 1645.8,-355.28"/>
<polygon fill="black" stroke="black" points="1649.3,-355.38 1645.8,-345.38 1642.3,-355.38 1649.3,-355.38"/>
</g>
<!-- mov_sblungepullsbpress -->
<g id="node12" class="node">
<title>mov_sblungepullsbpress</title>
<g id="a_node12"><a xlink:href="https://www.youtube.com/watch?v=1cXPBXfKNhU" xlink:title="{{35|Step&#45;Back Lunge Pullover\nStep&#45;Back Press}}">
<path fill="#fdbf6f" stroke="#ff7f00" d="M216.43,-302.5C216.43,-302.5 405.18,-302.5 405.18,-302.5 411.18,-302.5 417.18,-308.5 417.18,-314.5 417.18,-314.5 417.18,-331.5 417.18,-331.5 417.18,-337.5 411.18,-343.5 405.18,-343.5 405.18,-343.5 216.43,-343.5 216.43,-343.5 210.43,-343.5 204.43,-337.5 204.43,-331.5 204.43,-331.5 204.43,-314.5 204.43,-314.5 204.43,-308.5 210.43,-302.5 216.43,-302.5"/>
<text text-anchor="middle" x="220.68" y="-317.95" font-family="Helvetica,Arial,sans-serif" font-size="14.00">35</text>
<polyline fill="none" stroke="#ff7f00" points="236.93,-302.5 236.93,-343.5"/>
<text text-anchor="middle" x="327.05" y="-326.2" font-family="Helvetica,Arial,sans-serif" font-size="14.00">Step&#45;Back Lunge Pullover</text>
<text text-anchor="middle" x="327.05" y="-309.7" font-family="Helvetica,Arial,sans-serif" font-size="14.00">Step&#45;Back Press</text>
</a>
</g>
</g>
<!-- mov_sblungepullbot&#45;&gt;mov_sblungepullsbpress -->
<g id="edge30" class="edge">
<title>mov_sblungepullbot&#45;&gt;mov_sblungepullsbpress</title>
<path fill="none" stroke="black" d="M413.28,-380.03C396.04,-370.61 375.28,-359.25 356.96,-349.24"/>
<polygon fill="black" stroke="black" points="358.86,-346.29 348.4,-344.56 355.5,-352.43 358.86,-346.29"/>
</g>
<!-- mov_altshinbox -->
<g id="node10" class="node">
<title>mov_altshinbox</title>
<g id="a_node10"><a xlink:href="https://www.youtube.com/watch?v=jogIwgDj0KM" xlink:title="{{31|Balance\nAlternating Shin Box}}">
<path fill="#fdbf6f" stroke="#ff7f00" d="M1775.17,-380.5C1775.17,-380.5 1926.42,-380.5 1926.42,-380.5 1932.42,-380.5 1938.42,-386.5 1938.42,-392.5 1938.42,-392.5 1938.42,-409.5 1938.42,-409.5 1938.42,-415.5 1932.42,-421.5 1926.42,-421.5 1926.42,-421.5 1775.17,-421.5 1775.17,-421.5 1769.17,-421.5 1763.17,-415.5 1763.17,-409.5 1763.17,-409.5 1763.17,-392.5 1763.17,-392.5 1763.17,-386.5 1769.17,-380.5 1775.17,-380.5"/>
<text text-anchor="middle" x="1779.42" y="-395.95" font-family="Helvetica,Arial,sans-serif" font-size="14.00">31</text>
<polyline fill="none" stroke="#ff7f00" points="1795.67,-380.5 1795.67,-421.5"/>
<text text-anchor="middle" x="1867.05" y="-404.2" font-family="Helvetica,Arial,sans-serif" font-size="14.00">Balance</text>
<text text-anchor="middle" x="1867.05" y="-387.7" font-family="Helvetica,Arial,sans-serif" font-size="14.00">Alternating Shin Box</text>
</a>
</g>
</g>
<!-- mov_altshinboxfrpress -->
<g id="node11" class="node">
<title>mov_altshinboxfrpress</title>
<g id="a_node11"><a xlink:href="https://www.youtube.com/watch?v=D2AJzIVufeY&amp;list=PLk4oYPJ7TXKiueHS7UMPv-DxNMK6UELds&amp;index=47" xlink:title="{{33|Alt Shinbox Front Press}}">
<path fill="#fdbf6f" stroke="#ff7f00" d="M1763.92,-305C1763.92,-305 1937.67,-305 1937.67,-305 1943.67,-305 1949.67,-311 1949.67,-317 1949.67,-317 1949.67,-329 1949.67,-329 1949.67,-335 1943.67,-341 1937.67,-341 1937.67,-341 1763.92,-341 1763.92,-341 1757.92,-341 1751.92,-335 1751.92,-329 1751.92,-329 1751.92,-317 1751.92,-317 1751.92,-311 1757.92,-305 1763.92,-305"/>
<text text-anchor="middle" x="1768.17" y="-318.2" font-family="Helvetica,Arial,sans-serif" font-size="14.00">33</text>
<polyline fill="none" stroke="#ff7f00" points="1784.42,-305.5 1784.42,-341"/>
<text text-anchor="middle" x="1867.05" y="-318.2" font-family="Helvetica,Arial,sans-serif" font-size="14.00">Alt Shinbox Front Press</text>
</a>
</g>
</g>
<!-- mov_altshinbox&#45;&gt;mov_altshinboxfrpress -->
<g id="edge28" class="edge">
<title>mov_altshinbox&#45;&gt;mov_altshinboxfrpress</title>
<path fill="none" stroke="black" d="M1850.8,-380.03C1850.8,-371.65 1850.8,-361.75 1850.8,-352.62"/>
<polygon fill="black" stroke="black" points="1854.3,-352.77 1850.8,-342.77 1847.3,-352.77 1854.3,-352.77"/>
</g>
<!-- mov_squatpress -->
<g id="node13" class="node">
<title>mov_squatpress</title>
<g id="a_node13"><a xlink:href="https://www.youtube.com/watch?v=6p1niExqXSA" xlink:title="{{36|Squat Press}}">
<path fill="#fdbf6f" stroke="#ff7f00" d="M608.55,-551.25C608.55,-551.25 711.05,-551.25 711.05,-551.25 717.05,-551.25 723.05,-557.25 723.05,-563.25 723.05,-563.25 723.05,-575.25 723.05,-575.25 723.05,-581.25 717.05,-587.25 711.05,-587.25 711.05,-587.25 608.55,-587.25 608.55,-587.25 602.55,-587.25 596.55,-581.25 596.55,-575.25 596.55,-575.25 596.55,-563.25 596.55,-563.25 596.55,-557.25 602.55,-551.25 608.55,-551.25"/>
<text text-anchor="middle" x="612.8" y="-564.45" font-family="Helvetica,Arial,sans-serif" font-size="14.00">36</text>
<polyline fill="none" stroke="#ff7f00" points="629.05,-551.75 629.05,-587.25"/>
<text text-anchor="middle" x="676.05" y="-564.45" font-family="Helvetica,Arial,sans-serif" font-size="14.00">Squat Press</text>
</a>
</g>
</g>
<!-- mov_millprep -->
<g id="node14" class="node">
<title>mov_millprep</title>
<g id="a_node14"><a xlink:href="https://www.youtube.com/watch?v=G_OXuFs2bRs" xlink:title="{{38|Mill Prep}}">
<path fill="#fdbf6f" stroke="#ff7f00" d="M730.17,-383C730.17,-383 809.42,-383 809.42,-383 815.42,-383 821.42,-389 821.42,-395 821.42,-395 821.42,-407 821.42,-407 821.42,-413 815.42,-419 809.42,-419 809.42,-419 730.17,-419 730.17,-419 724.17,-419 718.17,-413 718.17,-407 718.17,-407 718.17,-395 718.17,-395 718.17,-389 724.17,-383 730.17,-383"/>
<text text-anchor="middle" x="734.42" y="-396.2" font-family="Helvetica,Arial,sans-serif" font-size="14.00">38</text>
<polyline fill="none" stroke="#ff7f00" points="750.67,-383.5 750.67,-419"/>
<text text-anchor="middle" x="786.05" y="-396.2" font-family="Helvetica,Arial,sans-serif" font-size="14.00">Mill Prep</text>
</a>
</g>
</g>
<!-- mov_incirclesquat -->
<g id="node15" class="node">
<title>mov_incirclesquat</title>
<g id="a_node15"><a xlink:href="https://www.youtube.com/watch?v=icFHo5ufhUc" xlink:title="{{32|Inside Circle Squat}}">
<path fill="#fdbf6f" stroke="#ff7f00" d="M753.55,-551.25C753.55,-551.25 898.05,-551.25 898.05,-551.25 904.05,-551.25 910.05,-557.25 910.05,-563.25 910.05,-563.25 910.05,-575.25 910.05,-575.25 910.05,-581.25 904.05,-587.25 898.05,-587.25 898.05,-587.25 753.55,-587.25 753.55,-587.25 747.55,-587.25 741.55,-581.25 741.55,-575.25 741.55,-575.25 741.55,-563.25 741.55,-563.25 741.55,-557.25 747.55,-551.25 753.55,-551.25"/>
<text text-anchor="middle" x="757.8" y="-564.45" font-family="Helvetica,Arial,sans-serif" font-size="14.00">32</text>
<polyline fill="none" stroke="#ff7f00" points="774.05,-551.75 774.05,-587.25"/>
<text text-anchor="middle" x="842.05" y="-564.45" font-family="Helvetica,Arial,sans-serif" font-size="14.00">Inside Circle Squat</text>
</a>
</g>
</g>
<!-- mov_outcirclesquat -->
<g id="node16" class="node">
<title>mov_outcirclesquat</title>
<g id="a_node16"><a xlink:href="https://www.youtube.com/watch?v=z916C16iK54&amp;list=PLk4oYPJ7TXKiueHS7UMPv-DxNMK6UELds&amp;index=49" xlink:title="{{34|Outside Circle Squat}}">
<path fill="#fdbf6f" stroke="#ff7f00" d="M585.3,-461C585.3,-461 740.3,-461 740.3,-461 746.3,-461 752.3,-467 752.3,-473 752.3,-473 752.3,-485 752.3,-485 752.3,-491 746.3,-497 740.3,-497 740.3,-497 585.3,-497 585.3,-497 579.3,-497 573.3,-491 573.3,-485 573.3,-485 573.3,-473 573.3,-473 573.3,-467 579.3,-461 585.3,-461"/>
<text text-anchor="middle" x="589.55" y="-474.2" font-family="Helvetica,Arial,sans-serif" font-size="14.00">34</text>
<polyline fill="none" stroke="#ff7f00" points="605.8,-461.5 605.8,-497"/>
<text text-anchor="middle" x="679.05" y="-474.2" font-family="Helvetica,Arial,sans-serif" font-size="14.00">Outside Circle Squat</text>
</a>
</g>
</g>
<!-- mov_incirclesquat&#45;&gt;mov_outcirclesquat -->
<g id="edge29" class="edge">
<title>mov_incirclesquat&#45;&gt;mov_outcirclesquat</title>
<path fill="none" stroke="black" d="M793.6,-550.81C768.15,-537.04 732.42,-517.69 704.74,-502.71"/>
<polygon fill="black" stroke="black" points="706.73,-499.8 696.27,-498.12 703.4,-505.96 706.73,-499.8"/>
</g>
<!-- mov_39_pullsquat -->
<g id="node17" class="node">
<title>mov_39_pullsquat</title>
<g id="a_node17"><a xlink:href="https://www.youtube.com/watch?v=3yf3VO2sd-4" xlink:title="{{39|Pullover Squat}}">
<path fill="#fdbf6f" stroke="#ff7f00" d="M1113.8,-551.25C1113.8,-551.25 1229.8,-551.25 1229.8,-551.25 1235.8,-551.25 1241.8,-557.25 1241.8,-563.25 1241.8,-563.25 1241.8,-575.25 1241.8,-575.25 1241.8,-581.25 1235.8,-587.25 1229.8,-587.25 1229.8,-587.25 1113.8,-587.25 1113.8,-587.25 1107.8,-587.25 1101.8,-581.25 1101.8,-575.25 1101.8,-575.25 1101.8,-563.25 1101.8,-563.25 1101.8,-557.25 1107.8,-551.25 1113.8,-551.25"/>
<text text-anchor="middle" x="1118.05" y="-564.45" font-family="Helvetica,Arial,sans-serif" font-size="14.00">39</text>
<polyline fill="none" stroke="#ff7f00" points="1134.3,-551.75 1134.3,-587.25"/>
<text text-anchor="middle" x="1188.05" y="-564.45" font-family="Helvetica,Arial,sans-serif" font-size="14.00">Pullover Squat</text>
</a>
</g>
</g>
<!-- mov_sbfrontpress -->
<g id="node18" class="node">
<title>mov_sbfrontpress</title>
<path fill="#fdbf6f" stroke="#ff7f00" d="M195.68,-548.75C195.68,-548.75 337.93,-548.75 337.93,-548.75 343.93,-548.75 349.93,-554.75 349.93,-560.75 349.93,-560.75 349.93,-577.75 349.93,-577.75 349.93,-583.75 343.93,-589.75 337.93,-589.75 337.93,-589.75 195.68,-589.75 195.68,-589.75 189.68,-589.75 183.68,-583.75 183.68,-577.75 183.68,-577.75 183.68,-560.75 183.68,-560.75 183.68,-554.75 189.68,-548.75 195.68,-548.75"/>
<text text-anchor="middle" x="204.05" y="-564.2" font-family="Helvetica,Arial,sans-serif" font-size="14.00">30?</text>
<polyline fill="none" stroke="#ff7f00" points="224.43,-548.75 224.43,-589.75"/>
<text text-anchor="middle" x="287.18" y="-572.45" font-family="Helvetica,Arial,sans-serif" font-size="14.00">Step&#45;Back Lunge</text>
<text text-anchor="middle" x="287.18" y="-555.95" font-family="Helvetica,Arial,sans-serif" font-size="14.00">Front Press</text>
</g>
<!-- mov_sbfrontpress&#45;&gt;mov_sblungepullsbpress -->
<g id="edge31" class="edge">
<title>mov_sbfrontpress&#45;&gt;mov_sblungepullsbpress</title>
<path fill="none" stroke="black" d="M217.29,-548.29C196.87,-537.3 175.32,-521.45 163.8,-500 154.97,-483.55 156.26,-475.08 163.8,-458 184.58,-410.93 230.97,-373.26 266.11,-349.99"/>
<polygon fill="black" stroke="black" points="267.92,-353 274.42,-344.64 264.12,-347.11 267.92,-353"/>
</g>
<!-- mov_41_sblungepress -->
<g id="node19" class="node">
<title>mov_41_sblungepress</title>
<g id="a_node19"><a xlink:href="https://www.youtube.com/watch?v=mf2dOl-QzEs" xlink:title="{{41|Step Back Lunge\nFront Press at Bottom}}">
<path fill="#fdbf6f" stroke="#ff7f00" d="M185.18,-458.5C185.18,-458.5 348.43,-458.5 348.43,-458.5 354.43,-458.5 360.43,-464.5 360.43,-470.5 360.43,-470.5 360.43,-487.5 360.43,-487.5 360.43,-493.5 354.43,-499.5 348.43,-499.5 348.43,-499.5 185.18,-499.5 185.18,-499.5 179.18,-499.5 173.18,-493.5 173.18,-487.5 173.18,-487.5 173.18,-470.5 173.18,-470.5 173.18,-464.5 179.18,-458.5 185.18,-458.5"/>
<text text-anchor="middle" x="189.43" y="-473.95" font-family="Helvetica,Arial,sans-serif" font-size="14.00">41</text>
<polyline fill="none" stroke="#ff7f00" points="205.68,-458.5 205.68,-499.5"/>
<text text-anchor="middle" x="283.05" y="-482.2" font-family="Helvetica,Arial,sans-serif" font-size="14.00">Step Back Lunge</text>
<text text-anchor="middle" x="283.05" y="-465.7" font-family="Helvetica,Arial,sans-serif" font-size="14.00">Front Press at Bottom</text>
</a>
</g>
</g>
<!-- mov_sbfrontpress&#45;&gt;mov_41_sblungepress -->
<g id="edge32" class="edge">
<title>mov_sbfrontpress&#45;&gt;mov_41_sblungepress</title>
<path fill="none" stroke="black" d="M266.8,-548.66C266.8,-537.66 266.8,-523.67 266.8,-511.19"/>
<polygon fill="black" stroke="black" points="270.3,-511.35 266.8,-501.35 263.3,-511.35 270.3,-511.35"/>
</g>
<!-- pre_shinbox -->
<g id="node20" class="node">
<title>pre_shinbox</title>
<path fill="#b2df8a" stroke="#33a02c" d="M1806.67,-461C1806.67,-461 1894.92,-461 1894.92,-461 1900.92,-461 1906.92,-467 1906.92,-473 1906.92,-473 1906.92,-485 1906.92,-485 1906.92,-491 1900.92,-497 1894.92,-497 1894.92,-497 1806.67,-497 1806.67,-497 1800.67,-497 1794.67,-491 1794.67,-485 1794.67,-485 1794.67,-473 1794.67,-473 1794.67,-467 1800.67,-461 1806.67,-461"/>
<text text-anchor="middle" x="1814.67" y="-474.2" font-family="Helvetica,Arial,sans-serif" font-size="14.00">BW</text>
<polyline fill="none" stroke="#33a02c" points="1834.67,-461.5 1834.67,-497"/>
<text text-anchor="middle" x="1870.8" y="-474.2" font-family="Helvetica,Arial,sans-serif" font-size="14.00">Shin Box</text>
</g>
<!-- pre_shinbox&#45;&gt;mov_altshinbox -->
<g id="edge1" class="edge">
<title>pre_shinbox&#45;&gt;mov_altshinbox</title>
<path fill="none" stroke="black" d="M1850.8,-460.75C1850.8,-452.62 1850.8,-442.67 1850.8,-433.28"/>
<polygon fill="black" stroke="black" points="1854.3,-433.38 1850.8,-423.38 1847.3,-433.38 1854.3,-433.38"/>
</g>
<!-- ext_2h_deadclean -->
<g id="node21" class="node">
<title>ext_2h_deadclean</title>
<g id="a_node21"><a xlink:href="https://www.youtube.com/watch?v=69RGME9RTcY&amp;list=PLk4oYPJ7TXKiueHS7UMPv-DxNMK6UELds&amp;index=4" xlink:title="{{2H&#45;04|Dead Clean}}">
<path fill="#b2df8a" stroke="#33a02c" d="M21.8,-645.5C21.8,-645.5 143.8,-645.5 143.8,-645.5 149.8,-645.5 155.8,-651.5 155.8,-657.5 155.8,-657.5 155.8,-669.5 155.8,-669.5 155.8,-675.5 149.8,-681.5 143.8,-681.5 143.8,-681.5 21.8,-681.5 21.8,-681.5 15.8,-681.5 9.8,-675.5 9.8,-669.5 9.8,-669.5 9.8,-657.5 9.8,-657.5 9.8,-651.5 15.8,-645.5 21.8,-645.5"/>
<text text-anchor="middle" x="37.3" y="-658.7" font-family="Helvetica,Arial,sans-serif" font-size="14.00">2H&#45;04</text>
<polyline fill="none" stroke="#33a02c" points="64.8,-646 64.8,-681.5"/>
<text text-anchor="middle" x="110.3" y="-658.7" font-family="Helvetica,Arial,sans-serif" font-size="14.00">Dead Clean</text>
</a>
</g>
</g>
<!-- ext_2h_deadclean&#45;&gt;mov_cap -->
<g id="edge3" class="edge">
<title>ext_2h_deadclean&#45;&gt;mov_cap</title>
<path fill="none" stroke="black" d="M82.8,-645.15C82.8,-633.41 82.8,-617.52 82.8,-603.4"/>
<polygon fill="black" stroke="black" points="86.3,-603.6 82.8,-593.6 79.3,-603.6 86.3,-603.6"/>
</g>
<!-- ext_2h_incircle -->
<g id="node22" class="node">
<title>ext_2h_incircle</title>
<g id="a_node22"><a xlink:href="https://www.youtube.com/watch?v=Mh6iWcLbE3k&amp;list=PLk4oYPJ7TXKiueHS7UMPv-DxNMK6UELds&amp;index=5" xlink:title="{{2H&#45;05|Inside Circle}}">
<path fill="#b2df8a" stroke="#33a02c" d="M434.55,-645.5C434.55,-645.5 561.05,-645.5 561.05,-645.5 567.05,-645.5 573.05,-651.5 573.05,-657.5 573.05,-657.5 573.05,-669.5 573.05,-669.5 573.05,-675.5 567.05,-681.5 561.05,-681.5 561.05,-681.5 434.55,-681.5 434.55,-681.5 428.55,-681.5 422.55,-675.5 422.55,-669.5 422.55,-669.5 422.55,-657.5 422.55,-657.5 422.55,-651.5 428.55,-645.5 434.55,-645.5"/>
<text text-anchor="middle" x="450.05" y="-658.7" font-family="Helvetica,Arial,sans-serif" font-size="14.00">2H&#45;05</text>
<polyline fill="none" stroke="#33a02c" points="477.55,-646 477.55,-681.5"/>
<text text-anchor="middle" x="525.3" y="-658.7" font-family="Helvetica,Arial,sans-serif" font-size="14.00">Inside Circle</text>
</a>
</g>
</g>
<!-- ext_2h_incircle&#45;&gt;mov_millprep -->
<g id="edge20" class="edge">
<title>ext_2h_incircle&#45;&gt;mov_millprep</title>
<path fill="none" stroke="black" d="M455.7,-645.16C437.85,-635.45 418.86,-621.42 408.8,-602.5 394.92,-576.41 393.26,-561.14 408.8,-536 471.22,-435.01 620.76,-409.65 706.51,-403.59"/>
<polygon fill="black" stroke="black" points="706.64,-407.09 716.4,-402.97 706.2,-400.1 706.64,-407.09"/>
</g>
<!-- ext_2h_incircle&#45;&gt;mov_incirclesquat -->
<g id="edge7" class="edge">
<title>ext_2h_incircle&#45;&gt;mov_incirclesquat</title>
<path fill="none" stroke="black" d="M572.25,-645.01C618.44,-633.77 678.86,-618.34 731.8,-602.5 743.07,-599.13 755.01,-595.26 766.46,-591.41"/>
<polygon fill="black" stroke="black" points="767.48,-594.76 775.82,-588.22 765.22,-588.13 767.48,-594.76"/>
</g>
<!-- ext_2h_outcircle -->
<g id="node26" class="node">
<title>ext_2h_outcircle</title>
<g id="a_node26"><a xlink:href="https://www.youtube.com/watch?v=QzMzCal-MYM&amp;list=PLk4oYPJ7TXKiueHS7UMPv-DxNMK6UELds&amp;index=6" xlink:title="{{2H&#45;06|Outside Circle}}">
<path fill="#b2df8a" stroke="#33a02c" d="M429.3,-551.25C429.3,-551.25 566.3,-551.25 566.3,-551.25 572.3,-551.25 578.3,-557.25 578.3,-563.25 578.3,-563.25 578.3,-575.25 578.3,-575.25 578.3,-581.25 572.3,-587.25 566.3,-587.25 566.3,-587.25 429.3,-587.25 429.3,-587.25 423.3,-587.25 417.3,-581.25 417.3,-575.25 417.3,-575.25 417.3,-563.25 417.3,-563.25 417.3,-557.25 423.3,-551.25 429.3,-551.25"/>
<text text-anchor="middle" x="444.8" y="-564.45" font-family="Helvetica,Arial,sans-serif" font-size="14.00">2H&#45;06</text>
<polyline fill="none" stroke="#33a02c" points="472.3,-551.75 472.3,-587.25"/>
<text text-anchor="middle" x="525.3" y="-564.45" font-family="Helvetica,Arial,sans-serif" font-size="14.00">Outside Circle</text>
</a>
</g>
</g>
<!-- ext_2h_incircle&#45;&gt;ext_2h_outcircle -->
<g id="edge6" class="edge">
<title>ext_2h_incircle&#45;&gt;ext_2h_outcircle</title>
<path fill="none" stroke="black" d="M497.8,-645.15C497.8,-632.13 497.8,-614.03 497.8,-598.88"/>
<polygon fill="black" stroke="black" points="501.3,-599.04 497.8,-589.04 494.3,-599.04 501.3,-599.04"/>
</g>
<!-- ext_2h_sc -->
<g id="node23" class="node">
<title>ext_2h_sc</title>
<g id="a_node23"><a xlink:href="https://www.youtube.com/watch?v=W-iHvrjn72k&amp;list=PLk4oYPJ7TXKiueHS7UMPv-DxNMK6UELds&amp;index=9" xlink:title="{{2H&#45;09|Shield Cast}}">
<path fill="#b2df8a" stroke="#33a02c" d="M1220.92,-461C1220.92,-461 1340.67,-461 1340.67,-461 1346.67,-461 1352.67,-467 1352.67,-473 1352.67,-473 1352.67,-485 1352.67,-485 1352.67,-491 1346.67,-497 1340.67,-497 1340.67,-497 1220.92,-497 1220.92,-497 1214.92,-497 1208.92,-491 1208.92,-485 1208.92,-485 1208.92,-473 1208.92,-473 1208.92,-467 1214.92,-461 1220.92,-461"/>
<text text-anchor="middle" x="1236.42" y="-474.2" font-family="Helvetica,Arial,sans-serif" font-size="14.00">2H&#45;09</text>
<polyline fill="none" stroke="#33a02c" points="1263.92,-461.5 1263.92,-497"/>
<text text-anchor="middle" x="1308.3" y="-474.2" font-family="Helvetica,Arial,sans-serif" font-size="14.00">Shield Cast</text>
</a>
</g>
</g>
<!-- ext_2h_sc&#45;&gt;mov_kneelsc -->
<g id="edge4" class="edge">
<title>ext_2h_sc:s&#45;&gt;mov_kneelsc</title>
<path fill="none" stroke="black" d="M1280.8,-460C1280.8,-450.48 1280.8,-440.08 1280.8,-430.75"/>
<polygon fill="black" stroke="black" points="1284.3,-430.77 1280.8,-420.77 1277.3,-430.77 1284.3,-430.77"/>
</g>
<!-- ext_2h_sc&#45;&gt;mov_millprep -->
<g id="edge19" class="edge">
<title>ext_2h_sc&#45;&gt;mov_millprep</title>
<path fill="none" stroke="black" d="M1208.67,-467.27C1108.34,-452.35 928.29,-425.57 832.98,-411.4"/>
<polygon fill="black" stroke="black" points="833.69,-407.96 823.28,-409.95 832.66,-414.89 833.69,-407.96"/>
</g>
<!-- ext_2h_backposside2side -->
<g id="node24" class="node">
<title>ext_2h_backposside2side</title>
<g id="a_node24"><a xlink:href="https://www.youtube.com/watch?v=GKwGiB2UwyM&amp;list=PLk4oYPJ7TXKiueHS7UMPv-DxNMK6UELds&amp;index=8" xlink:title="{{2H&#45;08|Back Position\nSide to Side Swing}|SWING BEHIND HEAD}">
<path fill="#b2df8a" stroke="#33a02c" d="M1348.3,-536.5C1348.3,-536.5 1515.3,-536.5 1515.3,-536.5 1521.3,-536.5 1527.3,-542.5 1527.3,-548.5 1527.3,-548.5 1527.3,-590 1527.3,-590 1527.3,-596 1521.3,-602 1515.3,-602 1515.3,-602 1348.3,-602 1348.3,-602 1342.3,-602 1336.3,-596 1336.3,-590 1336.3,-590 1336.3,-548.5 1336.3,-548.5 1336.3,-542.5 1342.3,-536.5 1348.3,-536.5"/>
<text text-anchor="middle" x="1363.8" y="-576.45" font-family="Helvetica,Arial,sans-serif" font-size="14.00">2H&#45;08</text>
<polyline fill="none" stroke="#33a02c" points="1391.3,-561 1391.3,-602"/>
<text text-anchor="middle" x="1459.3" y="-584.7" font-family="Helvetica,Arial,sans-serif" font-size="14.00">Back Position</text>
<text text-anchor="middle" x="1459.3" y="-568.2" font-family="Helvetica,Arial,sans-serif" font-size="14.00">Side to Side Swing</text>
<polyline fill="none" stroke="#33a02c" points="1336.3,-561 1527.3,-561"/>
<text text-anchor="middle" x="1431.8" y="-543.7" font-family="Helvetica,Arial,sans-serif" font-size="14.00">SWING BEHIND HEAD</text>
</a>
</g>
</g>
<!-- ext_2h_backposside2side&#45;&gt;mov_kneelbackswing -->
<g id="edge5" class="edge">
<title>ext_2h_backposside2side&#45;&gt;mov_kneelbackswing</title>
<path fill="none" stroke="black" d="M1441.62,-536.14C1444.15,-527.9 1446.85,-519.05 1449.35,-510.88"/>
<polygon fill="black" stroke="black" points="1452.69,-511.93 1452.27,-501.34 1446,-509.88 1452.69,-511.93"/>
</g>
<!-- ext_2h_backposside2side&#45;&gt;ext_2h_sc -->
<g id="edge2" class="edge">
<title>ext_2h_backposside2side&#45;&gt;ext_2h_sc</title>
<path fill="none" stroke="black" d="M1376.86,-536.14C1358.11,-525.18 1337.53,-513.15 1320.24,-503.05"/>
<polygon fill="black" stroke="black" points="1322.19,-500.14 1311.79,-498.11 1318.66,-506.18 1322.19,-500.14"/>
</g>
<!-- ext_2h_frontpress -->
<g id="node25" class="node">
<title>ext_2h_frontpress</title>
<g id="a_node25"><a xlink:href="https://www.youtube.com/watch?v=HBRWtm3tTp4&amp;list=PLk4oYPJ7TXKiueHS7UMPv-DxNMK6UELds&amp;index=15" xlink:title="{{2H&#45;13|Front Press}}">
<path fill="#b2df8a" stroke="#33a02c" d="M206.18,-645.5C206.18,-645.5 327.43,-645.5 327.43,-645.5 333.43,-645.5 339.43,-651.5 339.43,-657.5 339.43,-657.5 339.43,-669.5 339.43,-669.5 339.43,-675.5 333.43,-681.5 327.43,-681.5 327.43,-681.5 206.18,-681.5 206.18,-681.5 200.18,-681.5 194.18,-675.5 194.18,-669.5 194.18,-669.5 194.18,-657.5 194.18,-657.5 194.18,-651.5 200.18,-645.5 206.18,-645.5"/>
<text text-anchor="middle" x="221.68" y="-658.7" font-family="Helvetica,Arial,sans-serif" font-size="14.00">2H&#45;13</text>
<polyline fill="none" stroke="#33a02c" points="249.18,-646 249.18,-681.5"/>
<text text-anchor="middle" x="294.3" y="-658.7" font-family="Helvetica,Arial,sans-serif" font-size="14.00">Front Press</text>
</a>
</g>
</g>
<!-- ext_2h_frontpress&#45;&gt;mov_cap -->
<g id="edge15" class="edge">
<title>ext_2h_frontpress&#45;&gt;mov_cap</title>
<path fill="none" stroke="black" d="M232.19,-645.15C205.35,-631.69 167.65,-612.79 136.84,-597.34"/>
<polygon fill="black" stroke="black" points="138.55,-594.28 128.04,-592.93 135.41,-600.54 138.55,-594.28"/>
</g>
<!-- ext_2h_frontpress&#45;&gt;mov_squatpress -->
<g id="edge16" class="edge">
<title>ext_2h_frontpress&#45;&gt;mov_squatpress</title>
<path fill="none" stroke="black" d="M339.83,-650.91C419.78,-637.85 542.62,-616.62 587.8,-602.5 596.72,-599.71 606,-596.12 614.82,-592.35"/>
<polygon fill="black" stroke="black" points="616.19,-595.57 623.9,-588.31 613.34,-589.17 616.19,-595.57"/>
</g>
<!-- ext_2h_frontpress&#45;&gt;mov_sbfrontpress -->
<g id="edge17" class="edge">
<title>ext_2h_frontpress&#45;&gt;mov_sbfrontpress</title>
<path fill="none" stroke="black" d="M266.8,-645.15C266.8,-632.79 266.8,-615.85 266.8,-601.21"/>
<polygon fill="black" stroke="black" points="270.3,-601.6 266.8,-591.6 263.3,-601.6 270.3,-601.6"/>
</g>
<!-- ext_2h_outcircle&#45;&gt;mov_outcirclesquat -->
<g id="edge8" class="edge">
<title>ext_2h_outcircle&#45;&gt;mov_outcirclesquat</title>
<path fill="none" stroke="black" d="M530.4,-550.81C556.16,-537.04 592.32,-517.69 620.35,-502.71"/>
<polygon fill="black" stroke="black" points="621.77,-505.92 628.93,-498.11 618.47,-499.74 621.77,-505.92"/>
</g>
<!-- ext_2h_pullover -->
<g id="node27" class="node">
<title>ext_2h_pullover</title>
<g id="a_node27"><a xlink:href="https://www.youtube.com/watch?v=jpIn1Sumg78&amp;list=PLk4oYPJ7TXKiueHS7UMPv-DxNMK6UELds&amp;index=7" xlink:title="{{2H&#45;07|Pullover}|CLUB BEHIND HEAD}">
<path fill="#b2df8a" stroke="#33a02c" d="M1242.05,-639C1242.05,-639 1373.55,-639 1373.55,-639 1379.55,-639 1385.55,-645 1385.55,-651 1385.55,-651 1385.55,-676 1385.55,-676 1385.55,-682 1379.55,-688 1373.55,-688 1373.55,-688 1242.05,-688 1242.05,-688 1236.05,-688 1230.05,-682 1230.05,-676 1230.05,-676 1230.05,-651 1230.05,-651 1230.05,-645 1236.05,-639 1242.05,-639"/>
<text text-anchor="middle" x="1265.55" y="-670.7" font-family="Helvetica,Arial,sans-serif" font-size="14.00">2H&#45;07</text>
<polyline fill="none" stroke="#33a02c" points="1301.05,-663.5 1301.05,-688"/>
<text text-anchor="middle" x="1343.05" y="-670.7" font-family="Helvetica,Arial,sans-serif" font-size="14.00">Pullover</text>
<polyline fill="none" stroke="#33a02c" points="1230.05,-663.5 1385.55,-663.5"/>
<text text-anchor="middle" x="1307.8" y="-646.2" font-family="Helvetica,Arial,sans-serif" font-size="14.00">CLUB BEHIND HEAD</text>
</a>
</g>
</g>
<!-- ext_2h_pullover&#45;&gt;mov_40_swipe -->
<g id="edge23" class="edge">
<title>ext_2h_pullover&#45;&gt;mov_40_swipe</title>
<path fill="none" stroke="black" d="M1385.79,-643.4C1430.24,-632.18 1486.86,-617.33 1536.8,-602.5 1543.89,-600.4 1551.24,-598.12 1558.57,-595.79"/>
<polygon fill="black" stroke="black" points="1559.4,-599.2 1567.84,-592.81 1557.25,-592.54 1559.4,-599.2"/>
</g>
<!-- ext_2h_pullover&#45;&gt;mov_sblungepull -->
<g id="edge11" class="edge">
<title>ext_2h_pullover&#45;&gt;mov_sblungepull</title>
<path fill="none" stroke="black" d="M1298.39,-638.64C1284.51,-603.95 1259.28,-542.94 1250.8,-536 1227.17,-516.65 1156.13,-501.72 1096.6,-492.16"/>
<polygon fill="black" stroke="black" points="1097.16,-488.71 1086.74,-490.61 1096.07,-495.62 1097.16,-488.71"/>
</g>
<!-- ext_2h_pullover&#45;&gt;mov_39_pullsquat -->
<g id="edge22" class="edge">
<title>ext_2h_pullover&#45;&gt;mov_39_pullsquat</title>
<path fill="none" stroke="black" d="M1272.42,-638.5C1252.27,-624.83 1227.1,-607.76 1206.98,-594.11"/>
<polygon fill="black" stroke="black" points="1209.04,-591.28 1198.8,-588.57 1205.11,-597.08 1209.04,-591.28"/>
</g>
<!-- ext_2h_pullover&#45;&gt;ext_2h_sc -->
<g id="edge10" class="edge">
<title>ext_2h_pullover&#45;&gt;ext_2h_sc</title>
<path fill="none" stroke="black" d="M1304.27,-638.64C1299.31,-605.13 1290.3,-544.24 1285.01,-508.43"/>
<polygon fill="black" stroke="black" points="1288.51,-508.2 1283.58,-498.82 1281.58,-509.22 1288.51,-508.2"/>
</g>
<!-- ext_2h_pullover&#45;&gt;ext_2h_backposside2side -->
<g id="edge9" class="edge">
<title>ext_2h_pullover&#45;&gt;ext_2h_backposside2side</title>
<path fill="none" stroke="black" d="M1340.06,-638.5C1352.07,-629.57 1366.03,-619.18 1379.38,-609.25"/>
<polygon fill="black" stroke="black" points="1381.35,-612.14 1387.29,-603.37 1377.17,-606.53 1381.35,-612.14"/>
</g>
<!-- ext_2h_squat -->
<g id="node28" class="node">
<title>ext_2h_squat</title>
<g id="a_node28"><a xlink:href="https://www.youtube.com/watch?v=LSXticZ67Pw&amp;list=PLk4oYPJ7TXKiueHS7UMPv-DxNMK6UELds&amp;index=11" xlink:title="{{2H&#45;10|Balance Squat}}">
<path fill="#b2df8a" stroke="#33a02c" d="M846.55,-645.5C846.55,-645.5 985.05,-645.5 985.05,-645.5 991.05,-645.5 997.05,-651.5 997.05,-657.5 997.05,-657.5 997.05,-669.5 997.05,-669.5 997.05,-675.5 991.05,-681.5 985.05,-681.5 985.05,-681.5 846.55,-681.5 846.55,-681.5 840.55,-681.5 834.55,-675.5 834.55,-669.5 834.55,-669.5 834.55,-657.5 834.55,-657.5 834.55,-651.5 840.55,-645.5 846.55,-645.5"/>
<text text-anchor="middle" x="862.05" y="-658.7" font-family="Helvetica,Arial,sans-serif" font-size="14.00">2H&#45;10</text>
<polyline fill="none" stroke="#33a02c" points="889.55,-646 889.55,-681.5"/>
<text text-anchor="middle" x="943.3" y="-658.7" font-family="Helvetica,Arial,sans-serif" font-size="14.00">Balance Squat</text>
</a>
</g>
</g>
<!-- ext_2h_squat&#45;&gt;mov_squatpress -->
<g id="edge14" class="edge">
<title>ext_2h_squat&#45;&gt;mov_squatpress</title>
<path fill="none" stroke="black" d="M857.59,-645.04C821.37,-633.77 774,-618.31 732.8,-602.5 724.61,-599.36 716.01,-595.8 707.71,-592.22"/>
<polygon fill="black" stroke="black" points="709.34,-589.12 698.78,-588.32 706.54,-595.53 709.34,-589.12"/>
</g>
<!-- ext_2h_squat&#45;&gt;mov_incirclesquat -->
<g id="edge13" class="edge">
<title>ext_2h_squat&#45;&gt;mov_incirclesquat</title>
<path fill="none" stroke="black" d="M898.87,-645.15C885.17,-631.1 865.69,-611.13 850.28,-595.35"/>
<polygon fill="black" stroke="black" points="853.2,-593.32 843.71,-588.61 848.19,-598.21 853.2,-593.32"/>
</g>
<!-- ext_2h_squat&#45;&gt;mov_39_pullsquat -->
<g id="edge21" class="edge">
<title>ext_2h_squat&#45;&gt;mov_39_pullsquat</title>
<path fill="none" stroke="black" d="M969.94,-645.09C1005.13,-633.55 1051.91,-617.76 1092.8,-602.5 1101.68,-599.19 1111.05,-595.52 1120.12,-591.87"/>
<polygon fill="black" stroke="black" points="1121.22,-595.2 1129.17,-588.2 1118.59,-588.72 1121.22,-595.2"/>
</g>
<!-- ext_2h_stepbacklunge -->
<g id="node29" class="node">
<title>ext_2h_stepbacklunge</title>
<g id="a_node29"><a xlink:href="https://www.youtube.com/watch?v=dNrYT5iU7BQ&amp;list=PLk4oYPJ7TXKiueHS7UMPv-DxNMK6UELds&amp;index=26" xlink:title="{{2H&#45;17|Balance Step\nBack Lunge}}">
<path fill="#b2df8a" stroke="#33a02c" d="M939.92,-548.75C939.92,-548.75 1071.67,-548.75 1071.67,-548.75 1077.67,-548.75 1083.67,-554.75 1083.67,-560.75 1083.67,-560.75 1083.67,-577.75 1083.67,-577.75 1083.67,-583.75 1077.67,-589.75 1071.67,-589.75 1071.67,-589.75 939.92,-589.75 939.92,-589.75 933.92,-589.75 927.92,-583.75 927.92,-577.75 927.92,-577.75 927.92,-560.75 927.92,-560.75 927.92,-554.75 933.92,-548.75 939.92,-548.75"/>
<text text-anchor="middle" x="955.42" y="-564.2" font-family="Helvetica,Arial,sans-serif" font-size="14.00">2H&#45;17</text>
<polyline fill="none" stroke="#33a02c" points="982.92,-548.75 982.92,-589.75"/>
<text text-anchor="middle" x="1033.3" y="-572.45" font-family="Helvetica,Arial,sans-serif" font-size="14.00">Balance Step</text>
<text text-anchor="middle" x="1033.3" y="-555.95" font-family="Helvetica,Arial,sans-serif" font-size="14.00">Back Lunge</text>
</a>
</g>
</g>
<!-- ext_2h_squat&#45;&gt;ext_2h_stepbacklunge -->
<g id="edge12" class="edge">
<title>ext_2h_squat&#45;&gt;ext_2h_stepbacklunge</title>
<path fill="none" stroke="black" d="M932.73,-645.15C945.62,-631.94 963.62,-613.48 978.53,-598.2"/>
<polygon fill="black" stroke="black" points="980.91,-600.77 985.39,-591.17 975.9,-595.88 980.91,-600.77"/>
</g>
<!-- ext_2h_stepbacklunge&#45;&gt;mov_sblungepull -->
<g id="edge18" class="edge">
<title>ext_2h_stepbacklunge&#45;&gt;mov_sblungepull</title>
<path fill="none" stroke="black" d="M1005.8,-548.66C1005.8,-537.66 1005.8,-523.67 1005.8,-511.19"/>
<polygon fill="black" stroke="black" points="1009.3,-511.35 1005.8,-501.35 1002.3,-511.35 1009.3,-511.35"/>
</g>
<!-- ext_2h_swingclean -->
<g id="node30" class="node">
<title>ext_2h_swingclean</title>
<g id="a_node30"><a xlink:href="https://www.youtube.com/watch?v=0oRuCQOkPRo&amp;list=PLk4oYPJ7TXKiueHS7UMPv-DxNMK6UELds&amp;index=12" xlink:title="{{2H&#45;11|Swing Clean}|DECELERATE WEIGHT}">
<path fill="#b2df8a" stroke="#33a02c" d="M1557.92,-639C1557.92,-639 1709.67,-639 1709.67,-639 1715.67,-639 1721.67,-645 1721.67,-651 1721.67,-651 1721.67,-676 1721.67,-676 1721.67,-682 1715.67,-688 1709.67,-688 1709.67,-688 1557.92,-688 1557.92,-688 1551.92,-688 1545.92,-682 1545.92,-676 1545.92,-676 1545.92,-651 1545.92,-651 1545.92,-645 1551.92,-639 1557.92,-639"/>
<text text-anchor="middle" x="1579.92" y="-670.7" font-family="Helvetica,Arial,sans-serif" font-size="14.00">2H&#45;11</text>
<polyline fill="none" stroke="#33a02c" points="1613.92,-663.5 1613.92,-688"/>
<text text-anchor="middle" x="1667.8" y="-670.7" font-family="Helvetica,Arial,sans-serif" font-size="14.00">Swing Clean</text>
<polyline fill="none" stroke="#33a02c" points="1545.92,-663.5 1721.67,-663.5"/>
<text text-anchor="middle" x="1633.8" y="-646.2" font-family="Helvetica,Arial,sans-serif" font-size="14.00">DECELERATE WEIGHT</text>
</a>
</g>
</g>
<!-- ext_2h_swingclean&#45;&gt;mov_40_swipe -->
<g id="edge24" class="edge">
<title>ext_2h_swingclean&#45;&gt;mov_40_swipe</title>
<path fill="none" stroke="black" d="M1633.8,-638.74C1633.8,-628.12 1633.8,-615.42 1633.8,-603.85"/>
<polygon fill="black" stroke="black" points="1637.3,-603.86 1633.8,-593.86 1630.3,-603.86 1637.3,-603.86"/>
</g>
<!-- Legend -->
<g id="node31" class="node">
<title>Legend</title>
<path fill="#a6cee3" stroke="none" d="M369.3,-266C369.3,-266 252.3,-266 252.3,-266 246.3,-266 240.3,-260 240.3,-254 240.3,-254 240.3,-174 240.3,-174 240.3,-168 246.3,-162 252.3,-162 252.3,-162 369.3,-162 369.3,-162 375.3,-162 381.3,-168 381.3,-174 381.3,-174 381.3,-254 381.3,-254 381.3,-260 375.3,-266 369.3,-266"/>
<polygon fill="none" stroke="#1f78b4" points="240.3,-240 240.3,-266 381.3,-266 381.3,-240 240.3,-240"/>
<text text-anchor="start" x="284.55" y="-248.7" font-family="Helvetica,Arial,sans-serif" font-weight="bold" font-size="14.00">Legend</text>
<polygon fill="none" stroke="#1f78b4" points="240.3,-214 240.3,-240 353.3,-240 353.3,-214 240.3,-214"/>
<text text-anchor="start" x="251.43" y="-221.7" font-family="Helvetica,Arial,sans-serif" font-size="14.00">Previous Drills</text>
<polygon fill="#b2df8a" stroke="none" points="353.3,-214 353.3,-240 381.3,-240 381.3,-214 353.3,-214"/>
<polygon fill="none" stroke="#1f78b4" points="353.3,-214 353.3,-240 381.3,-240 381.3,-214 353.3,-214"/>
<text text-anchor="start" x="357.93" y="-221.7" font-family="Helvetica,Arial,sans-serif" font-size="14.00">     </text>
<polygon fill="none" stroke="#1f78b4" points="240.3,-188 240.3,-214 353.3,-214 353.3,-188 240.3,-188"/>
<text text-anchor="start" x="255.18" y="-195.7" font-family="Helvetica,Arial,sans-serif" font-size="14.00">Primary Drills</text>
<polygon fill="#ffff99" stroke="none" points="353.3,-188 353.3,-214 381.3,-214 381.3,-188 353.3,-188"/>
<polygon fill="none" stroke="#1f78b4" points="353.3,-188 353.3,-214 381.3,-214 381.3,-188 353.3,-188"/>
<polygon fill="none" stroke="#1f78b4" points="240.3,-162 240.3,-188 353.3,-188 353.3,-162 240.3,-162"/>
<text text-anchor="start" x="245.05" y="-169.7" font-family="Helvetica,Arial,sans-serif" font-size="14.00">Secondary Drills</text>
<polygon fill="#fdbf6f" stroke="none" points="353.3,-162 353.3,-188 381.3,-188 381.3,-162 353.3,-162"/>
<polygon fill="none" stroke="#1f78b4" points="353.3,-162 353.3,-188 381.3,-188 381.3,-162 353.3,-162"/>
</g>
</g>
</svg>
