<?xml version="1.0" encoding="UTF-8" standalone="no"?>
<!DOCTYPE svg PUBLIC "-//W3C//DTD SVG 1.1//EN"
 "http://www.w3.org/Graphics/SVG/1.1/DTD/svg11.dtd">
<!-- Generated by graphviz version 9.0.0 (20230911.1827)
 -->
<!-- Title: HC2H Pages: 1 -->
<svg width="1570pt" height="692pt"
 viewBox="0.00 0.00 1569.88 691.50" xmlns="http://www.w3.org/2000/svg" xmlns:xlink="http://www.w3.org/1999/xlink">
<g id="graph0" class="graph" transform="scale(1 1) rotate(0) translate(4 687.5)">
<title>HC2H</title>
<polygon fill="white" stroke="none" points="-4,4 -4,-687.5 1565.88,-687.5 1565.88,4 -4,4"/>
<text text-anchor="start" x="1162.38" y="-145.7" font-family="Helvetica,Arial,sans-serif" font-weight="bold" font-size="14.00">Two&#45;Handed Heavy Club Skill Progression &#45; Part 2/2</text>
<text text-anchor="start" x="1162.38" y="-117.7" font-family="Helvetica,Arial,sans-serif" font-size="14.00">Diagram by dznz based on Mark Wildman&#39;s teachings.</text>
<text text-anchor="start" x="1162.38" y="-89.7" font-family="Helvetica,Arial,sans-serif" font-size="14.00">Source: </text>
<text text-anchor="start" x="1215.62" y="-89.7" font-family="Helvetica,Arial,sans-serif" font-weight="bold" font-size="14.00">https://github.com/dznz/wildman&#45;skill&#45;trees</text>
<text text-anchor="start" x="1162.38" y="-61.7" font-family="Helvetica,Arial,sans-serif" font-size="14.00">More by Mark Wildman &#45; </text>
<text text-anchor="start" x="1318.38" y="-61.7" font-family="Helvetica,Arial,sans-serif" font-weight="bold" font-size="14.00">https://www.wildmanathletica.com</text>
<text text-anchor="start" x="1162.38" y="-33.7" font-family="Helvetica,Arial,sans-serif" font-style="italic" font-size="14.00">© 2023. This work is openly licensed with CC BY&#45;NC&#45;SA 4.0</text>
<text text-anchor="start" x="1230.62" y="-19.7" font-family="Helvetica,Arial,sans-serif" font-style="italic" font-size="14.00">http://creativecommons.org/licenses/by&#45;nc&#45;sa/4.0/</text>
<text text-anchor="start" x="1354.38" y="-5.7" font-family="Helvetica,Arial,sans-serif" font-size="14.00"> &#160;</text>
<!-- mov_cap -->
<g id="node1" class="node">
<title>mov_cap</title>
<g id="a_node1"><a xlink:href="https://www.youtube.com/watch?v=6kpEYglMJ1c" xlink:title="{{37|Clean &amp; Press}}">
<path fill="#ffff99" stroke="#b15928" d="M28.2,-562.85C28.2,-562.85 169.8,-562.85 169.8,-562.85 175.8,-562.85 181.8,-568.85 181.8,-574.85 181.8,-574.85 181.8,-596.15 181.8,-596.15 181.8,-602.15 175.8,-608.15 169.8,-608.15 169.8,-608.15 28.2,-608.15 28.2,-608.15 22.2,-608.15 16.2,-602.15 16.2,-596.15 16.2,-596.15 16.2,-574.85 16.2,-574.85 16.2,-568.85 22.2,-562.85 28.2,-562.85"/>
<text text-anchor="middle" x="38.85" y="-580.45" font-family="Helvetica,Arial,sans-serif" font-size="14.00">37</text>
<polyline fill="none" stroke="#b15928" points="61.5,-562.85 61.5,-608.15"/>
<text text-anchor="middle" x="121.65" y="-580.45" font-family="Helvetica,Arial,sans-serif" font-size="14.00">Clean &amp; Press</text>
</a>
</g>
</g>
<!-- mov_kneelsc -->
<g id="node2" class="node">
<title>mov_kneelsc</title>
<g id="a_node2"><a xlink:href="https://www.youtube.com/watch?v=yHIEZN0Nl_U&amp;list=PLk4oYPJ7TXKiueHS7UMPv-DxNMK6UELds&amp;index=42" xlink:title="{{23|Half&#45;Kneeling Shield Cast}}">
<path fill="#fdbf6f" stroke="#ff7f00" d="M740.12,-305C740.12,-305 925.88,-305 925.88,-305 931.88,-305 937.88,-311 937.88,-317 937.88,-317 937.88,-329 937.88,-329 937.88,-335 931.88,-341 925.88,-341 925.88,-341 740.12,-341 740.12,-341 734.12,-341 728.12,-335 728.12,-329 728.12,-329 728.12,-317 728.12,-317 728.12,-311 734.12,-305 740.12,-305"/>
<text text-anchor="middle" x="744.38" y="-318.2" font-family="Helvetica,Arial,sans-serif" font-size="14.00">23</text>
<polyline fill="none" stroke="#ff7f00" points="760.62,-305.5 760.62,-341"/>
<text text-anchor="middle" x="849.25" y="-318.2" font-family="Helvetica,Arial,sans-serif" font-size="14.00">Half&#45;Kneeling Shield Cast</text>
</a>
</g>
</g>
<!-- mov_sblungepull -->
<g id="node3" class="node">
<title>mov_sblungepull</title>
<g id="a_node3"><a xlink:href="https://www.youtube.com/watch?v=yHIEZN0Nl_U&amp;list=PLk4oYPJ7TXKiueHS7UMPv-DxNMK6UELds&amp;index=44" xlink:title="{{24|Step&#45;Back Lunge\nPullover at Top}}">
<path fill="#fdbf6f" stroke="#ff7f00" d="M397,-470.75C397,-470.75 531,-470.75 531,-470.75 537,-470.75 543,-476.75 543,-482.75 543,-482.75 543,-499.75 543,-499.75 543,-505.75 537,-511.75 531,-511.75 531,-511.75 397,-511.75 397,-511.75 391,-511.75 385,-505.75 385,-499.75 385,-499.75 385,-482.75 385,-482.75 385,-476.75 391,-470.75 397,-470.75"/>
<text text-anchor="middle" x="401.25" y="-486.2" font-family="Helvetica,Arial,sans-serif" font-size="14.00">24</text>
<polyline fill="none" stroke="#ff7f00" points="417.5,-470.75 417.5,-511.75"/>
<text text-anchor="middle" x="480.25" y="-494.45" font-family="Helvetica,Arial,sans-serif" font-size="14.00">Step&#45;Back Lunge</text>
<text text-anchor="middle" x="480.25" y="-477.95" font-family="Helvetica,Arial,sans-serif" font-size="14.00">Pullover at Top</text>
</a>
</g>
</g>
<!-- mov_sblungepullbot -->
<g id="node7" class="node">
<title>mov_sblungepullbot</title>
<g id="a_node7"><a xlink:href="https://www.youtube.com/watch?v=UpY9zHuTZds" xlink:title="{{28|Step&#45;Back Lunge\nPullover at Bottom}}">
<path fill="#fdbf6f" stroke="#ff7f00" d="M359,-380.5C359,-380.5 499,-380.5 499,-380.5 505,-380.5 511,-386.5 511,-392.5 511,-392.5 511,-409.5 511,-409.5 511,-415.5 505,-421.5 499,-421.5 499,-421.5 359,-421.5 359,-421.5 353,-421.5 347,-415.5 347,-409.5 347,-409.5 347,-392.5 347,-392.5 347,-386.5 353,-380.5 359,-380.5"/>
<text text-anchor="middle" x="363.25" y="-395.95" font-family="Helvetica,Arial,sans-serif" font-size="14.00">28</text>
<polyline fill="none" stroke="#ff7f00" points="379.5,-380.5 379.5,-421.5"/>
<text text-anchor="middle" x="445.25" y="-404.2" font-family="Helvetica,Arial,sans-serif" font-size="14.00">Step&#45;Back Lunge</text>
<text text-anchor="middle" x="445.25" y="-387.7" font-family="Helvetica,Arial,sans-serif" font-size="14.00">Pullover at Bottom</text>
</a>
</g>
</g>
<!-- mov_sblungepull&#45;&gt;mov_sblungepullbot -->
<g id="edge22" class="edge">
<title>mov_sblungepull&#45;&gt;mov_sblungepullbot</title>
<path fill="none" stroke="black" d="M456.23,-470.66C451.78,-459.43 446.09,-445.09 441.06,-432.42"/>
<polygon fill="black" stroke="black" points="444.37,-431.25 437.42,-423.24 437.86,-433.83 444.37,-431.25"/>
</g>
<!-- mov_fbpull -->
<g id="node4" class="node">
<title>mov_fbpull</title>
<g id="a_node4"><a xlink:href="https://www.youtube.com/watch?v=yHIEZN0Nl_U&amp;list=PLk4oYPJ7TXKiueHS7UMPv-DxNMK6UELds&amp;index=45" xlink:title="{{26|Flat Back Pullover}}">
<path fill="#fdbf6f" stroke="#ff7f00" d="M1189.12,-473.25C1189.12,-473.25 1326.88,-473.25 1326.88,-473.25 1332.88,-473.25 1338.88,-479.25 1338.88,-485.25 1338.88,-485.25 1338.88,-497.25 1338.88,-497.25 1338.88,-503.25 1332.88,-509.25 1326.88,-509.25 1326.88,-509.25 1189.12,-509.25 1189.12,-509.25 1183.12,-509.25 1177.12,-503.25 1177.12,-497.25 1177.12,-497.25 1177.12,-485.25 1177.12,-485.25 1177.12,-479.25 1183.12,-473.25 1189.12,-473.25"/>
<text text-anchor="middle" x="1193.38" y="-486.45" font-family="Helvetica,Arial,sans-serif" font-size="14.00">26</text>
<polyline fill="none" stroke="#ff7f00" points="1209.62,-473.75 1209.62,-509.25"/>
<text text-anchor="middle" x="1274.25" y="-486.45" font-family="Helvetica,Arial,sans-serif" font-size="14.00">Flat Back Pullover</text>
</a>
</g>
</g>
<!-- mov_fbpullsit -->
<g id="node6" class="node">
<title>mov_fbpullsit</title>
<g id="a_node6"><a xlink:href="https://www.youtube.com/watch?v=Ii2WZgl5mHA" xlink:title="{{27|Flat Back Pullover Situp}}">
<path fill="#fdbf6f" stroke="#ff7f00" d="M1171.12,-383C1171.12,-383 1344.88,-383 1344.88,-383 1350.88,-383 1356.88,-389 1356.88,-395 1356.88,-395 1356.88,-407 1356.88,-407 1356.88,-413 1350.88,-419 1344.88,-419 1344.88,-419 1171.12,-419 1171.12,-419 1165.12,-419 1159.12,-413 1159.12,-407 1159.12,-407 1159.12,-395 1159.12,-395 1159.12,-389 1165.12,-383 1171.12,-383"/>
<text text-anchor="middle" x="1175.38" y="-396.2" font-family="Helvetica,Arial,sans-serif" font-size="14.00">27</text>
<polyline fill="none" stroke="#ff7f00" points="1191.62,-383.5 1191.62,-419"/>
<text text-anchor="middle" x="1274.25" y="-396.2" font-family="Helvetica,Arial,sans-serif" font-size="14.00">Flat Back Pullover Situp</text>
</a>
</g>
</g>
<!-- mov_fbpull&#45;&gt;mov_fbpullsit -->
<g id="edge21" class="edge">
<title>mov_fbpull&#45;&gt;mov_fbpullsit</title>
<path fill="none" stroke="black" d="M1258,-472.81C1258,-460.85 1258,-444.69 1258,-430.83"/>
<polygon fill="black" stroke="black" points="1261.5,-430.91 1258,-420.91 1254.5,-430.91 1261.5,-430.91"/>
</g>
<!-- mov_kneelbackswing -->
<g id="node5" class="node">
<title>mov_kneelbackswing</title>
<g id="a_node5"><a xlink:href="https://www.youtube.com/watch?v=XH_HFWZQt4c" xlink:title="{{25|Half&#45;Kneeling\nBack Position Swing}}">
<path fill="#fdbf6f" stroke="#ff7f00" d="M578.62,-380.5C578.62,-380.5 731.38,-380.5 731.38,-380.5 737.38,-380.5 743.38,-386.5 743.38,-392.5 743.38,-392.5 743.38,-409.5 743.38,-409.5 743.38,-415.5 737.38,-421.5 731.38,-421.5 731.38,-421.5 578.62,-421.5 578.62,-421.5 572.62,-421.5 566.62,-415.5 566.62,-409.5 566.62,-409.5 566.62,-392.5 566.62,-392.5 566.62,-386.5 572.62,-380.5 578.62,-380.5"/>
<text text-anchor="middle" x="582.88" y="-395.95" font-family="Helvetica,Arial,sans-serif" font-size="14.00">25</text>
<polyline fill="none" stroke="#ff7f00" points="599.12,-380.5 599.12,-421.5"/>
<text text-anchor="middle" x="671.25" y="-404.2" font-family="Helvetica,Arial,sans-serif" font-size="14.00">Half&#45;Kneeling</text>
<text text-anchor="middle" x="671.25" y="-387.7" font-family="Helvetica,Arial,sans-serif" font-size="14.00">Back Position Swing</text>
</a>
</g>
</g>
<!-- mov_fbpullsitpress -->
<g id="node10" class="node">
<title>mov_fbpullsitpress</title>
<g id="a_node10"><a xlink:href="https://www.youtube.com/watch?v=8VL8tvinc28" xlink:title="{{29|Flat Back Pullover\nSitup Press}}">
<path fill="#fdbf6f" stroke="#ff7f00" d="M1189.12,-302.5C1189.12,-302.5 1326.88,-302.5 1326.88,-302.5 1332.88,-302.5 1338.88,-308.5 1338.88,-314.5 1338.88,-314.5 1338.88,-331.5 1338.88,-331.5 1338.88,-337.5 1332.88,-343.5 1326.88,-343.5 1326.88,-343.5 1189.12,-343.5 1189.12,-343.5 1183.12,-343.5 1177.12,-337.5 1177.12,-331.5 1177.12,-331.5 1177.12,-314.5 1177.12,-314.5 1177.12,-308.5 1183.12,-302.5 1189.12,-302.5"/>
<text text-anchor="middle" x="1193.38" y="-317.95" font-family="Helvetica,Arial,sans-serif" font-size="14.00">29</text>
<polyline fill="none" stroke="#ff7f00" points="1209.62,-302.5 1209.62,-343.5"/>
<text text-anchor="middle" x="1274.25" y="-326.2" font-family="Helvetica,Arial,sans-serif" font-size="14.00">Flat Back Pullover</text>
<text text-anchor="middle" x="1274.25" y="-309.7" font-family="Helvetica,Arial,sans-serif" font-size="14.00">Situp Press</text>
</a>
</g>
</g>
<!-- mov_fbpullsit&#45;&gt;mov_fbpullsitpress -->
<g id="edge23" class="edge">
<title>mov_fbpullsit&#45;&gt;mov_fbpullsitpress</title>
<path fill="none" stroke="black" d="M1258,-382.75C1258,-374.62 1258,-364.67 1258,-355.28"/>
<polygon fill="black" stroke="black" points="1261.5,-355.38 1258,-345.38 1254.5,-355.38 1261.5,-355.38"/>
</g>
<!-- mov_sblungepullsbpress -->
<g id="node13" class="node">
<title>mov_sblungepullsbpress</title>
<g id="a_node13"><a xlink:href="https://www.youtube.com/watch?v=1cXPBXfKNhU" xlink:title="{{35|Step&#45;Back Lunge Pullover\nStep&#45;Back Press}}">
<path fill="#fdbf6f" stroke="#ff7f00" d="M262.62,-302.5C262.62,-302.5 451.38,-302.5 451.38,-302.5 457.38,-302.5 463.38,-308.5 463.38,-314.5 463.38,-314.5 463.38,-331.5 463.38,-331.5 463.38,-337.5 457.38,-343.5 451.38,-343.5 451.38,-343.5 262.62,-343.5 262.62,-343.5 256.62,-343.5 250.62,-337.5 250.62,-331.5 250.62,-331.5 250.62,-314.5 250.62,-314.5 250.62,-308.5 256.62,-302.5 262.62,-302.5"/>
<text text-anchor="middle" x="266.88" y="-317.95" font-family="Helvetica,Arial,sans-serif" font-size="14.00">35</text>
<polyline fill="none" stroke="#ff7f00" points="283.12,-302.5 283.12,-343.5"/>
<text text-anchor="middle" x="373.25" y="-326.2" font-family="Helvetica,Arial,sans-serif" font-size="14.00">Step&#45;Back Lunge Pullover</text>
<text text-anchor="middle" x="373.25" y="-309.7" font-family="Helvetica,Arial,sans-serif" font-size="14.00">Step&#45;Back Press</text>
</a>
</g>
</g>
<!-- mov_sblungepullbot&#45;&gt;mov_sblungepullsbpress -->
<g id="edge26" class="edge">
<title>mov_sblungepullbot&#45;&gt;mov_sblungepullsbpress</title>
<path fill="none" stroke="black" d="M410.08,-380.03C401.98,-371.48 392.37,-361.34 383.58,-352.05"/>
<polygon fill="black" stroke="black" points="386.25,-349.79 376.83,-344.93 381.17,-354.6 386.25,-349.79"/>
</g>
<!-- mov_incirclesquat -->
<g id="node8" class="node">
<title>mov_incirclesquat</title>
<g id="a_node8"><a xlink:href="https://www.youtube.com/watch?v=icFHo5ufhUc" xlink:title="{{32|Inside Circle Squat}}">
<path fill="#fdbf6f" stroke="#ff7f00" d="M754.75,-567.5C754.75,-567.5 899.25,-567.5 899.25,-567.5 905.25,-567.5 911.25,-573.5 911.25,-579.5 911.25,-579.5 911.25,-591.5 911.25,-591.5 911.25,-597.5 905.25,-603.5 899.25,-603.5 899.25,-603.5 754.75,-603.5 754.75,-603.5 748.75,-603.5 742.75,-597.5 742.75,-591.5 742.75,-591.5 742.75,-579.5 742.75,-579.5 742.75,-573.5 748.75,-567.5 754.75,-567.5"/>
<text text-anchor="middle" x="759" y="-580.7" font-family="Helvetica,Arial,sans-serif" font-size="14.00">32</text>
<polyline fill="none" stroke="#ff7f00" points="775.25,-568 775.25,-603.5"/>
<text text-anchor="middle" x="843.25" y="-580.7" font-family="Helvetica,Arial,sans-serif" font-size="14.00">Inside Circle Squat</text>
</a>
</g>
</g>
<!-- mov_outcirclesquat -->
<g id="node9" class="node">
<title>mov_outcirclesquat</title>
<g id="a_node9"><a xlink:href="https://www.youtube.com/watch?v=z916C16iK54&amp;list=PLk4oYPJ7TXKiueHS7UMPv-DxNMK6UELds&amp;index=49" xlink:title="{{34|Outside Circle Squat}}">
<path fill="#fdbf6f" stroke="#ff7f00" d="M890.5,-473.25C890.5,-473.25 1045.5,-473.25 1045.5,-473.25 1051.5,-473.25 1057.5,-479.25 1057.5,-485.25 1057.5,-485.25 1057.5,-497.25 1057.5,-497.25 1057.5,-503.25 1051.5,-509.25 1045.5,-509.25 1045.5,-509.25 890.5,-509.25 890.5,-509.25 884.5,-509.25 878.5,-503.25 878.5,-497.25 878.5,-497.25 878.5,-485.25 878.5,-485.25 878.5,-479.25 884.5,-473.25 890.5,-473.25"/>
<text text-anchor="middle" x="894.75" y="-486.45" font-family="Helvetica,Arial,sans-serif" font-size="14.00">34</text>
<polyline fill="none" stroke="#ff7f00" points="911,-473.75 911,-509.25"/>
<text text-anchor="middle" x="984.25" y="-486.45" font-family="Helvetica,Arial,sans-serif" font-size="14.00">Outside Circle Squat</text>
</a>
</g>
</g>
<!-- mov_incirclesquat&#45;&gt;mov_outcirclesquat -->
<g id="edge25" class="edge">
<title>mov_incirclesquat&#45;&gt;mov_outcirclesquat</title>
<path fill="none" stroke="black" d="M853.52,-567.15C875.78,-552.59 907.76,-531.66 932.27,-515.62"/>
<polygon fill="black" stroke="black" points="933.88,-518.76 940.33,-510.35 930.05,-512.9 933.88,-518.76"/>
</g>
<!-- mov_altshinbox -->
<g id="node11" class="node">
<title>mov_altshinbox</title>
<g id="a_node11"><a xlink:href="https://www.youtube.com/watch?v=jogIwgDj0KM" xlink:title="{{31|Balance\nAlternating Shin Box}}">
<path fill="#fdbf6f" stroke="#ff7f00" d="M1387.38,-380.5C1387.38,-380.5 1538.62,-380.5 1538.62,-380.5 1544.62,-380.5 1550.62,-386.5 1550.62,-392.5 1550.62,-392.5 1550.62,-409.5 1550.62,-409.5 1550.62,-415.5 1544.62,-421.5 1538.62,-421.5 1538.62,-421.5 1387.38,-421.5 1387.38,-421.5 1381.38,-421.5 1375.38,-415.5 1375.38,-409.5 1375.38,-409.5 1375.38,-392.5 1375.38,-392.5 1375.38,-386.5 1381.38,-380.5 1387.38,-380.5"/>
<text text-anchor="middle" x="1391.62" y="-395.95" font-family="Helvetica,Arial,sans-serif" font-size="14.00">31</text>
<polyline fill="none" stroke="#ff7f00" points="1407.88,-380.5 1407.88,-421.5"/>
<text text-anchor="middle" x="1479.25" y="-404.2" font-family="Helvetica,Arial,sans-serif" font-size="14.00">Balance</text>
<text text-anchor="middle" x="1479.25" y="-387.7" font-family="Helvetica,Arial,sans-serif" font-size="14.00">Alternating Shin Box</text>
</a>
</g>
</g>
<!-- mov_altshinboxfrpress -->
<g id="node12" class="node">
<title>mov_altshinboxfrpress</title>
<g id="a_node12"><a xlink:href="https://www.youtube.com/watch?v=D2AJzIVufeY&amp;list=PLk4oYPJ7TXKiueHS7UMPv-DxNMK6UELds&amp;index=47" xlink:title="{{33|Alt Shinbox Front Press}}">
<path fill="#fdbf6f" stroke="#ff7f00" d="M1376.12,-305C1376.12,-305 1549.88,-305 1549.88,-305 1555.88,-305 1561.88,-311 1561.88,-317 1561.88,-317 1561.88,-329 1561.88,-329 1561.88,-335 1555.88,-341 1549.88,-341 1549.88,-341 1376.12,-341 1376.12,-341 1370.12,-341 1364.12,-335 1364.12,-329 1364.12,-329 1364.12,-317 1364.12,-317 1364.12,-311 1370.12,-305 1376.12,-305"/>
<text text-anchor="middle" x="1380.38" y="-318.2" font-family="Helvetica,Arial,sans-serif" font-size="14.00">33</text>
<polyline fill="none" stroke="#ff7f00" points="1396.62,-305.5 1396.62,-341"/>
<text text-anchor="middle" x="1479.25" y="-318.2" font-family="Helvetica,Arial,sans-serif" font-size="14.00">Alt Shinbox Front Press</text>
</a>
</g>
</g>
<!-- mov_altshinbox&#45;&gt;mov_altshinboxfrpress -->
<g id="edge24" class="edge">
<title>mov_altshinbox&#45;&gt;mov_altshinboxfrpress</title>
<path fill="none" stroke="black" d="M1463,-380.03C1463,-371.65 1463,-361.75 1463,-352.62"/>
<polygon fill="black" stroke="black" points="1466.5,-352.77 1463,-342.77 1459.5,-352.77 1466.5,-352.77"/>
</g>
<!-- mov_squatpress -->
<g id="node14" class="node">
<title>mov_squatpress</title>
<g id="a_node14"><a xlink:href="https://www.youtube.com/watch?v=6p1niExqXSA" xlink:title="{{36|Squat Press}}">
<path fill="#fdbf6f" stroke="#ff7f00" d="M262.75,-567.5C262.75,-567.5 365.25,-567.5 365.25,-567.5 371.25,-567.5 377.25,-573.5 377.25,-579.5 377.25,-579.5 377.25,-591.5 377.25,-591.5 377.25,-597.5 371.25,-603.5 365.25,-603.5 365.25,-603.5 262.75,-603.5 262.75,-603.5 256.75,-603.5 250.75,-597.5 250.75,-591.5 250.75,-591.5 250.75,-579.5 250.75,-579.5 250.75,-573.5 256.75,-567.5 262.75,-567.5"/>
<text text-anchor="middle" x="267" y="-580.7" font-family="Helvetica,Arial,sans-serif" font-size="14.00">36</text>
<polyline fill="none" stroke="#ff7f00" points="283.25,-568 283.25,-603.5"/>
<text text-anchor="middle" x="330.25" y="-580.7" font-family="Helvetica,Arial,sans-serif" font-size="14.00">Squat Press</text>
</a>
</g>
</g>
<!-- mov_millprep -->
<g id="node15" class="node">
<title>mov_millprep</title>
<g id="a_node15"><a xlink:href="https://www.youtube.com/watch?v=G_OXuFs2bRs" xlink:title="{{38|Mill Prep}}">
<path fill="#fdbf6f" stroke="#ff7f00" d="M1022.38,-305C1022.38,-305 1101.62,-305 1101.62,-305 1107.62,-305 1113.62,-311 1113.62,-317 1113.62,-317 1113.62,-329 1113.62,-329 1113.62,-335 1107.62,-341 1101.62,-341 1101.62,-341 1022.38,-341 1022.38,-341 1016.38,-341 1010.38,-335 1010.38,-329 1010.38,-329 1010.38,-317 1010.38,-317 1010.38,-311 1016.38,-305 1022.38,-305"/>
<text text-anchor="middle" x="1026.62" y="-318.2" font-family="Helvetica,Arial,sans-serif" font-size="14.00">38</text>
<polyline fill="none" stroke="#ff7f00" points="1042.88,-305.5 1042.88,-341"/>
<text text-anchor="middle" x="1078.25" y="-318.2" font-family="Helvetica,Arial,sans-serif" font-size="14.00">Mill Prep</text>
</a>
</g>
</g>
<!-- pre_shinbox -->
<g id="node16" class="node">
<title>pre_shinbox</title>
<path fill="#b2df8a" stroke="#33a02c" d="M1418.88,-473.25C1418.88,-473.25 1507.12,-473.25 1507.12,-473.25 1513.12,-473.25 1519.12,-479.25 1519.12,-485.25 1519.12,-485.25 1519.12,-497.25 1519.12,-497.25 1519.12,-503.25 1513.12,-509.25 1507.12,-509.25 1507.12,-509.25 1418.88,-509.25 1418.88,-509.25 1412.88,-509.25 1406.88,-503.25 1406.88,-497.25 1406.88,-497.25 1406.88,-485.25 1406.88,-485.25 1406.88,-479.25 1412.88,-473.25 1418.88,-473.25"/>
<text text-anchor="middle" x="1426.88" y="-486.45" font-family="Helvetica,Arial,sans-serif" font-size="14.00">BW</text>
<polyline fill="none" stroke="#33a02c" points="1446.88,-473.75 1446.88,-509.25"/>
<text text-anchor="middle" x="1483" y="-486.45" font-family="Helvetica,Arial,sans-serif" font-size="14.00">Shin Box</text>
</g>
<!-- pre_shinbox&#45;&gt;mov_altshinbox -->
<g id="edge1" class="edge">
<title>pre_shinbox&#45;&gt;mov_altshinbox</title>
<path fill="none" stroke="black" d="M1463,-472.81C1463,-461.47 1463,-446.36 1463,-433"/>
<polygon fill="black" stroke="black" points="1466.5,-433.38 1463,-423.38 1459.5,-433.38 1466.5,-433.38"/>
</g>
<!-- ext_2h_deadclean -->
<g id="node17" class="node">
<title>ext_2h_deadclean</title>
<g id="a_node17"><a xlink:href="https://www.youtube.com/watch?v=69RGME9RTcY&amp;list=PLk4oYPJ7TXKiueHS7UMPv-DxNMK6UELds&amp;index=4" xlink:title="{{2H&#45;04|Dead Clean}}">
<path fill="#b2df8a" stroke="#33a02c" d="M12,-647C12,-647 134,-647 134,-647 140,-647 146,-653 146,-659 146,-659 146,-671 146,-671 146,-677 140,-683 134,-683 134,-683 12,-683 12,-683 6,-683 0,-677 0,-671 0,-671 0,-659 0,-659 0,-653 6,-647 12,-647"/>
<text text-anchor="middle" x="27.5" y="-660.2" font-family="Helvetica,Arial,sans-serif" font-size="14.00">2H&#45;04</text>
<polyline fill="none" stroke="#33a02c" points="55,-647.5 55,-683"/>
<text text-anchor="middle" x="100.5" y="-660.2" font-family="Helvetica,Arial,sans-serif" font-size="14.00">Dead Clean</text>
</a>
</g>
</g>
<!-- ext_2h_deadclean&#45;&gt;mov_cap -->
<g id="edge3" class="edge">
<title>ext_2h_deadclean&#45;&gt;mov_cap</title>
<path fill="none" stroke="black" d="M78.77,-646.8C81.5,-638.66 84.86,-628.66 88.04,-619.16"/>
<polygon fill="black" stroke="black" points="91.32,-620.4 91.18,-609.81 84.68,-618.18 91.32,-620.4"/>
</g>
<!-- ext_2h_incircle -->
<g id="node18" class="node">
<title>ext_2h_incircle</title>
<g id="a_node18"><a xlink:href="https://www.youtube.com/watch?v=Mh6iWcLbE3k&amp;list=PLk4oYPJ7TXKiueHS7UMPv-DxNMK6UELds&amp;index=5" xlink:title="{{2H&#45;05|Inside Circle}}">
<path fill="#b2df8a" stroke="#33a02c" d="M946.75,-647C946.75,-647 1073.25,-647 1073.25,-647 1079.25,-647 1085.25,-653 1085.25,-659 1085.25,-659 1085.25,-671 1085.25,-671 1085.25,-677 1079.25,-683 1073.25,-683 1073.25,-683 946.75,-683 946.75,-683 940.75,-683 934.75,-677 934.75,-671 934.75,-671 934.75,-659 934.75,-659 934.75,-653 940.75,-647 946.75,-647"/>
<text text-anchor="middle" x="962.25" y="-660.2" font-family="Helvetica,Arial,sans-serif" font-size="14.00">2H&#45;05</text>
<polyline fill="none" stroke="#33a02c" points="989.75,-647.5 989.75,-683"/>
<text text-anchor="middle" x="1037.5" y="-660.2" font-family="Helvetica,Arial,sans-serif" font-size="14.00">Inside Circle</text>
</a>
</g>
</g>
<!-- ext_2h_incircle&#45;&gt;mov_incirclesquat -->
<g id="edge7" class="edge">
<title>ext_2h_incircle&#45;&gt;mov_incirclesquat</title>
<path fill="none" stroke="black" d="M968.93,-646.61C942.3,-635.33 907.38,-620.54 878.84,-608.46"/>
<polygon fill="black" stroke="black" points="880.21,-605.24 869.64,-604.56 877.48,-611.68 880.21,-605.24"/>
</g>
<!-- ext_2h_incircle&#45;&gt;mov_millprep -->
<g id="edge20" class="edge">
<title>ext_2h_incircle&#45;&gt;mov_millprep</title>
<path fill="none" stroke="black" d="M1058.57,-646.71C1074.68,-638.38 1090.83,-626.62 1100,-610.5 1148.16,-525.84 1101.43,-404.83 1076.03,-351.28"/>
<polygon fill="black" stroke="black" points="1079.31,-350.03 1071.78,-342.57 1073.02,-353.09 1079.31,-350.03"/>
</g>
<!-- ext_2h_outcircle -->
<g id="node22" class="node">
<title>ext_2h_outcircle</title>
<g id="a_node22"><a xlink:href="https://www.youtube.com/watch?v=QzMzCal-MYM&amp;list=PLk4oYPJ7TXKiueHS7UMPv-DxNMK6UELds&amp;index=6" xlink:title="{{2H&#45;06|Outside Circle}}">
<path fill="#b2df8a" stroke="#33a02c" d="M941.5,-567.5C941.5,-567.5 1078.5,-567.5 1078.5,-567.5 1084.5,-567.5 1090.5,-573.5 1090.5,-579.5 1090.5,-579.5 1090.5,-591.5 1090.5,-591.5 1090.5,-597.5 1084.5,-603.5 1078.5,-603.5 1078.5,-603.5 941.5,-603.5 941.5,-603.5 935.5,-603.5 929.5,-597.5 929.5,-591.5 929.5,-591.5 929.5,-579.5 929.5,-579.5 929.5,-573.5 935.5,-567.5 941.5,-567.5"/>
<text text-anchor="middle" x="957" y="-580.7" font-family="Helvetica,Arial,sans-serif" font-size="14.00">2H&#45;06</text>
<polyline fill="none" stroke="#33a02c" points="984.5,-568 984.5,-603.5"/>
<text text-anchor="middle" x="1037.5" y="-580.7" font-family="Helvetica,Arial,sans-serif" font-size="14.00">Outside Circle</text>
</a>
</g>
</g>
<!-- ext_2h_incircle&#45;&gt;ext_2h_outcircle -->
<g id="edge6" class="edge">
<title>ext_2h_incircle&#45;&gt;ext_2h_outcircle</title>
<path fill="none" stroke="black" d="M1010,-646.8C1010,-637.53 1010,-625.86 1010,-615.25"/>
<polygon fill="black" stroke="black" points="1013.5,-615.43 1010,-605.43 1006.5,-615.43 1013.5,-615.43"/>
</g>
<!-- ext_2h_sc -->
<g id="node19" class="node">
<title>ext_2h_sc</title>
<g id="a_node19"><a xlink:href="https://www.youtube.com/watch?v=W-iHvrjn72k&amp;list=PLk4oYPJ7TXKiueHS7UMPv-DxNMK6UELds&amp;index=9" xlink:title="{{2H&#45;09|Shield Cast}}">
<path fill="#b2df8a" stroke="#33a02c" d="M773.12,-383C773.12,-383 892.88,-383 892.88,-383 898.88,-383 904.88,-389 904.88,-395 904.88,-395 904.88,-407 904.88,-407 904.88,-413 898.88,-419 892.88,-419 892.88,-419 773.12,-419 773.12,-419 767.12,-419 761.12,-413 761.12,-407 761.12,-407 761.12,-395 761.12,-395 761.12,-389 767.12,-383 773.12,-383"/>
<text text-anchor="middle" x="788.62" y="-396.2" font-family="Helvetica,Arial,sans-serif" font-size="14.00">2H&#45;09</text>
<polyline fill="none" stroke="#33a02c" points="816.12,-383.5 816.12,-419"/>
<text text-anchor="middle" x="860.5" y="-396.2" font-family="Helvetica,Arial,sans-serif" font-size="14.00">Shield Cast</text>
</a>
</g>
</g>
<!-- ext_2h_sc&#45;&gt;mov_kneelsc -->
<g id="edge4" class="edge">
<title>ext_2h_sc:s&#45;&gt;mov_kneelsc</title>
<path fill="none" stroke="black" d="M833,-382C833,-372.48 833,-362.08 833,-352.75"/>
<polygon fill="black" stroke="black" points="836.5,-352.77 833,-342.77 829.5,-352.77 836.5,-352.77"/>
</g>
<!-- ext_2h_sc&#45;&gt;mov_millprep -->
<g id="edge19" class="edge">
<title>ext_2h_sc&#45;&gt;mov_millprep</title>
<path fill="none" stroke="black" d="M885.54,-382.56C919.4,-371.32 963.62,-356.65 999.32,-344.8"/>
<polygon fill="black" stroke="black" points="1000.28,-348.17 1008.67,-341.7 998.07,-341.53 1000.28,-348.17"/>
</g>
<!-- ext_2h_backposside2side -->
<g id="node20" class="node">
<title>ext_2h_backposside2side</title>
<g id="a_node20"><a xlink:href="https://www.youtube.com/watch?v=GKwGiB2UwyM&amp;list=PLk4oYPJ7TXKiueHS7UMPv-DxNMK6UELds&amp;index=8" xlink:title="{{2H&#45;08|Back Position\nSide to Side Swing}|SWING BEHIND HEAD}">
<path fill="#b2df8a" stroke="#33a02c" d="M573.5,-458.5C573.5,-458.5 740.5,-458.5 740.5,-458.5 746.5,-458.5 752.5,-464.5 752.5,-470.5 752.5,-470.5 752.5,-512 752.5,-512 752.5,-518 746.5,-524 740.5,-524 740.5,-524 573.5,-524 573.5,-524 567.5,-524 561.5,-518 561.5,-512 561.5,-512 561.5,-470.5 561.5,-470.5 561.5,-464.5 567.5,-458.5 573.5,-458.5"/>
<text text-anchor="middle" x="589" y="-498.45" font-family="Helvetica,Arial,sans-serif" font-size="14.00">2H&#45;08</text>
<polyline fill="none" stroke="#33a02c" points="616.5,-483 616.5,-524"/>
<text text-anchor="middle" x="684.5" y="-506.7" font-family="Helvetica,Arial,sans-serif" font-size="14.00">Back Position</text>
<text text-anchor="middle" x="684.5" y="-490.2" font-family="Helvetica,Arial,sans-serif" font-size="14.00">Side to Side Swing</text>
<polyline fill="none" stroke="#33a02c" points="561.5,-483 752.5,-483"/>
<text text-anchor="middle" x="657" y="-465.7" font-family="Helvetica,Arial,sans-serif" font-size="14.00">SWING BEHIND HEAD</text>
</a>
</g>
</g>
<!-- ext_2h_backposside2side&#45;&gt;mov_kneelbackswing -->
<g id="edge5" class="edge">
<title>ext_2h_backposside2side&#45;&gt;mov_kneelbackswing</title>
<path fill="none" stroke="black" d="M656.27,-458.14C656.09,-449.99 655.89,-441.26 655.71,-433.16"/>
<polygon fill="black" stroke="black" points="659.21,-433.33 655.49,-423.41 652.21,-433.49 659.21,-433.33"/>
</g>
<!-- ext_2h_backposside2side&#45;&gt;ext_2h_sc -->
<g id="edge2" class="edge">
<title>ext_2h_backposside2side&#45;&gt;ext_2h_sc</title>
<path fill="none" stroke="black" d="M721.04,-458.14C743.3,-446.98 767.78,-434.7 788.16,-424.49"/>
<polygon fill="black" stroke="black" points="789.68,-427.64 797.05,-420.03 786.54,-421.38 789.68,-427.64"/>
</g>
<!-- ext_2h_frontpress -->
<g id="node21" class="node">
<title>ext_2h_frontpress</title>
<g id="a_node21"><a xlink:href="https://www.youtube.com/watch?v=HBRWtm3tTp4&amp;list=PLk4oYPJ7TXKiueHS7UMPv-DxNMK6UELds&amp;index=15" xlink:title="{{2H&#45;13|Front Press}}">
<path fill="#b2df8a" stroke="#33a02c" d="M176.38,-647C176.38,-647 297.62,-647 297.62,-647 303.62,-647 309.62,-653 309.62,-659 309.62,-659 309.62,-671 309.62,-671 309.62,-677 303.62,-683 297.62,-683 297.62,-683 176.38,-683 176.38,-683 170.38,-683 164.38,-677 164.38,-671 164.38,-671 164.38,-659 164.38,-659 164.38,-653 170.38,-647 176.38,-647"/>
<text text-anchor="middle" x="191.88" y="-660.2" font-family="Helvetica,Arial,sans-serif" font-size="14.00">2H&#45;13</text>
<polyline fill="none" stroke="#33a02c" points="219.38,-647.5 219.38,-683"/>
<text text-anchor="middle" x="264.5" y="-660.2" font-family="Helvetica,Arial,sans-serif" font-size="14.00">Front Press</text>
</a>
</g>
</g>
<!-- ext_2h_frontpress&#45;&gt;mov_cap -->
<g id="edge15" class="edge">
<title>ext_2h_frontpress&#45;&gt;mov_cap</title>
<path fill="none" stroke="black" d="M206.03,-646.61C188.98,-637.03 167.42,-624.92 148.12,-614.09"/>
<polygon fill="black" stroke="black" points="150.03,-611.14 139.6,-609.3 146.6,-617.25 150.03,-611.14"/>
</g>
<!-- ext_2h_frontpress&#45;&gt;mov_squatpress -->
<g id="edge16" class="edge">
<title>ext_2h_frontpress&#45;&gt;mov_squatpress</title>
<path fill="none" stroke="black" d="M254.09,-646.8C264.29,-636.54 277.42,-623.32 288.79,-611.87"/>
<polygon fill="black" stroke="black" points="291.06,-614.55 295.63,-604.99 286.09,-609.62 291.06,-614.55"/>
</g>
<!-- mov_sbfrontpress -->
<g id="node26" class="node">
<title>mov_sbfrontpress</title>
<path fill="#a6cee3" stroke="#1f78b4" d="M177.88,-470.75C177.88,-470.75 320.12,-470.75 320.12,-470.75 326.12,-470.75 332.12,-476.75 332.12,-482.75 332.12,-482.75 332.12,-499.75 332.12,-499.75 332.12,-505.75 326.12,-511.75 320.12,-511.75 320.12,-511.75 177.88,-511.75 177.88,-511.75 171.88,-511.75 165.88,-505.75 165.88,-499.75 165.88,-499.75 165.88,-482.75 165.88,-482.75 165.88,-476.75 171.88,-470.75 177.88,-470.75"/>
<text text-anchor="middle" x="186.25" y="-486.2" font-family="Helvetica,Arial,sans-serif" font-size="14.00">30?</text>
<polyline fill="none" stroke="#1f78b4" points="206.62,-470.75 206.62,-511.75"/>
<text text-anchor="middle" x="269.38" y="-494.45" font-family="Helvetica,Arial,sans-serif" font-size="14.00">Step&#45;Back Lunge</text>
<text text-anchor="middle" x="269.38" y="-477.95" font-family="Helvetica,Arial,sans-serif" font-size="14.00">Front Press</text>
</g>
<!-- ext_2h_frontpress&#45;&gt;mov_sbfrontpress -->
<g id="edge17" class="edge">
<title>ext_2h_frontpress&#45;&gt;mov_sbfrontpress</title>
<path fill="none" stroke="black" d="M237.55,-646.77C238.27,-626.21 239.71,-590.82 242,-560.5 242.91,-548.42 244.2,-535.17 245.43,-523.59"/>
<polygon fill="black" stroke="black" points="248.9,-524.06 246.5,-513.74 241.94,-523.3 248.9,-524.06"/>
</g>
<!-- ext_2h_outcircle&#45;&gt;mov_outcirclesquat -->
<g id="edge8" class="edge">
<title>ext_2h_outcircle&#45;&gt;mov_outcirclesquat</title>
<path fill="none" stroke="black" d="M1002.1,-567.15C996.06,-553.88 987.61,-535.31 980.63,-519.99"/>
<polygon fill="black" stroke="black" points="983.82,-518.55 976.49,-510.9 977.45,-521.45 983.82,-518.55"/>
</g>
<!-- ext_2h_pullover -->
<g id="node23" class="node">
<title>ext_2h_pullover</title>
<g id="a_node23"><a xlink:href="https://www.youtube.com/watch?v=jpIn1Sumg78&amp;list=PLk4oYPJ7TXKiueHS7UMPv-DxNMK6UELds&amp;index=7" xlink:title="{{2H&#45;07|Pullover}|CLUB BEHIND HEAD}">
<path fill="#b2df8a" stroke="#33a02c" d="M581.25,-561C581.25,-561 712.75,-561 712.75,-561 718.75,-561 724.75,-567 724.75,-573 724.75,-573 724.75,-598 724.75,-598 724.75,-604 718.75,-610 712.75,-610 712.75,-610 581.25,-610 581.25,-610 575.25,-610 569.25,-604 569.25,-598 569.25,-598 569.25,-573 569.25,-573 569.25,-567 575.25,-561 581.25,-561"/>
<text text-anchor="middle" x="604.75" y="-592.7" font-family="Helvetica,Arial,sans-serif" font-size="14.00">2H&#45;07</text>
<polyline fill="none" stroke="#33a02c" points="640.25,-585.5 640.25,-610"/>
<text text-anchor="middle" x="682.25" y="-592.7" font-family="Helvetica,Arial,sans-serif" font-size="14.00">Pullover</text>
<polyline fill="none" stroke="#33a02c" points="569.25,-585.5 724.75,-585.5"/>
<text text-anchor="middle" x="647" y="-568.2" font-family="Helvetica,Arial,sans-serif" font-size="14.00">CLUB BEHIND HEAD</text>
</a>
</g>
</g>
<!-- ext_2h_pullover&#45;&gt;mov_sblungepull -->
<g id="edge11" class="edge">
<title>ext_2h_pullover&#45;&gt;mov_sblungepull</title>
<path fill="none" stroke="black" d="M599.4,-560.5C573.13,-547.26 540.53,-530.83 513.9,-517.4"/>
<polygon fill="black" stroke="black" points="515.5,-514.29 504.99,-512.91 512.35,-520.54 515.5,-514.29"/>
</g>
<!-- ext_2h_pullover&#45;&gt;ext_2h_sc -->
<g id="edge10" class="edge">
<title>ext_2h_pullover&#45;&gt;ext_2h_sc</title>
<path fill="none" stroke="black" d="M708.2,-560.55C726.93,-551.24 746.62,-539.21 762,-524.5 790.26,-497.47 810.81,-456.73 822.33,-429.76"/>
<polygon fill="black" stroke="black" points="825.42,-431.44 825.99,-420.86 818.95,-428.78 825.42,-431.44"/>
</g>
<!-- ext_2h_pullover&#45;&gt;ext_2h_backposside2side -->
<g id="edge9" class="edge">
<title>ext_2h_pullover&#45;&gt;ext_2h_backposside2side</title>
<path fill="none" stroke="black" d="M649.58,-560.74C650.41,-553.02 651.37,-544.2 652.31,-535.51"/>
<polygon fill="black" stroke="black" points="655.77,-536.1 653.37,-525.78 648.81,-535.34 655.77,-536.1"/>
</g>
<!-- ext_2h_squat -->
<g id="node24" class="node">
<title>ext_2h_squat</title>
<g id="a_node24"><a xlink:href="https://www.youtube.com/watch?v=LSXticZ67Pw&amp;list=PLk4oYPJ7TXKiueHS7UMPv-DxNMK6UELds&amp;index=11" xlink:title="{{2H&#45;10|Balance Squat}}">
<path fill="#b2df8a" stroke="#33a02c" d="M403.75,-647C403.75,-647 542.25,-647 542.25,-647 548.25,-647 554.25,-653 554.25,-659 554.25,-659 554.25,-671 554.25,-671 554.25,-677 548.25,-683 542.25,-683 542.25,-683 403.75,-683 403.75,-683 397.75,-683 391.75,-677 391.75,-671 391.75,-671 391.75,-659 391.75,-659 391.75,-653 397.75,-647 403.75,-647"/>
<text text-anchor="middle" x="419.25" y="-660.2" font-family="Helvetica,Arial,sans-serif" font-size="14.00">2H&#45;10</text>
<polyline fill="none" stroke="#33a02c" points="446.75,-647.5 446.75,-683"/>
<text text-anchor="middle" x="500.5" y="-660.2" font-family="Helvetica,Arial,sans-serif" font-size="14.00">Balance Squat</text>
</a>
</g>
</g>
<!-- ext_2h_squat&#45;&gt;mov_incirclesquat -->
<g id="edge13" class="edge">
<title>ext_2h_squat&#45;&gt;mov_incirclesquat</title>
<path fill="none" stroke="black" d="M554.64,-648.36C606.21,-638.21 674.18,-624.34 734,-610.5 739.21,-609.29 744.57,-608.02 749.97,-606.7"/>
<polygon fill="black" stroke="black" points="750.72,-610.12 759.59,-604.32 749.04,-603.32 750.72,-610.12"/>
</g>
<!-- ext_2h_squat&#45;&gt;mov_squatpress -->
<g id="edge14" class="edge">
<title>ext_2h_squat&#45;&gt;mov_squatpress</title>
<path fill="none" stroke="black" d="M437.32,-646.61C414.48,-635.48 384.64,-620.93 360.03,-608.94"/>
<polygon fill="black" stroke="black" points="361.72,-605.87 351.2,-604.63 358.65,-612.16 361.72,-605.87"/>
</g>
<!-- ext_2h_stepbacklunge -->
<g id="node25" class="node">
<title>ext_2h_stepbacklunge</title>
<g id="a_node25"><a xlink:href="https://www.youtube.com/watch?v=dNrYT5iU7BQ&amp;list=PLk4oYPJ7TXKiueHS7UMPv-DxNMK6UELds&amp;index=26" xlink:title="{{2H&#45;17|Balance Step\nBack Lunge}}">
<path fill="#b2df8a" stroke="#33a02c" d="M407.12,-565C407.12,-565 538.88,-565 538.88,-565 544.88,-565 550.88,-571 550.88,-577 550.88,-577 550.88,-594 550.88,-594 550.88,-600 544.88,-606 538.88,-606 538.88,-606 407.12,-606 407.12,-606 401.12,-606 395.12,-600 395.12,-594 395.12,-594 395.12,-577 395.12,-577 395.12,-571 401.12,-565 407.12,-565"/>
<text text-anchor="middle" x="422.62" y="-580.45" font-family="Helvetica,Arial,sans-serif" font-size="14.00">2H&#45;17</text>
<polyline fill="none" stroke="#33a02c" points="450.12,-565 450.12,-606"/>
<text text-anchor="middle" x="500.5" y="-588.7" font-family="Helvetica,Arial,sans-serif" font-size="14.00">Balance Step</text>
<text text-anchor="middle" x="500.5" y="-572.2" font-family="Helvetica,Arial,sans-serif" font-size="14.00">Back Lunge</text>
</a>
</g>
</g>
<!-- ext_2h_squat&#45;&gt;ext_2h_stepbacklunge -->
<g id="edge12" class="edge">
<title>ext_2h_squat&#45;&gt;ext_2h_stepbacklunge</title>
<path fill="none" stroke="black" d="M473,-646.8C473,-638.21 473,-627.55 473,-617.59"/>
<polygon fill="black" stroke="black" points="476.5,-617.9 473,-607.9 469.5,-617.9 476.5,-617.9"/>
</g>
<!-- ext_2h_stepbacklunge&#45;&gt;mov_sblungepull -->
<g id="edge18" class="edge">
<title>ext_2h_stepbacklunge&#45;&gt;mov_sblungepull</title>
<path fill="none" stroke="black" d="M471.09,-564.94C469.92,-552.91 468.39,-537.23 467.05,-523.51"/>
<polygon fill="black" stroke="black" points="470.54,-523.22 466.08,-513.61 463.57,-523.9 470.54,-523.22"/>
</g>
<!-- mov_sbfrontpress&#45;&gt;mov_sblungepullsbpress -->
<g id="edge27" class="edge">
<title>mov_sbfrontpress&#45;&gt;mov_sblungepullsbpress</title>
<path fill="none" stroke="black" d="M261.81,-470.53C280.68,-441.48 316.06,-387.02 337.97,-353.29"/>
<polygon fill="black" stroke="black" points="340.7,-355.52 343.21,-345.23 334.83,-351.71 340.7,-355.52"/>
</g>
<!-- Legend -->
<g id="node27" class="node">
<title>Legend</title>
<path fill="#a6cee3" stroke="none" d="M415.5,-266C415.5,-266 298.5,-266 298.5,-266 292.5,-266 286.5,-260 286.5,-254 286.5,-254 286.5,-174 286.5,-174 286.5,-168 292.5,-162 298.5,-162 298.5,-162 415.5,-162 415.5,-162 421.5,-162 427.5,-168 427.5,-174 427.5,-174 427.5,-254 427.5,-254 427.5,-260 421.5,-266 415.5,-266"/>
<polygon fill="none" stroke="#1f78b4" points="286.5,-240 286.5,-266 427.5,-266 427.5,-240 286.5,-240"/>
<text text-anchor="start" x="330.75" y="-248.7" font-family="Helvetica,Arial,sans-serif" font-weight="bold" font-size="14.00">Legend</text>
<polygon fill="none" stroke="#1f78b4" points="286.5,-214 286.5,-240 399.5,-240 399.5,-214 286.5,-214"/>
<text text-anchor="start" x="297.62" y="-221.7" font-family="Helvetica,Arial,sans-serif" font-size="14.00">Previous Drills</text>
<polygon fill="#b2df8a" stroke="none" points="399.5,-214 399.5,-240 427.5,-240 427.5,-214 399.5,-214"/>
<polygon fill="none" stroke="#1f78b4" points="399.5,-214 399.5,-240 427.5,-240 427.5,-214 399.5,-214"/>
<text text-anchor="start" x="404.12" y="-221.7" font-family="Helvetica,Arial,sans-serif" font-size="14.00">     </text>
<polygon fill="none" stroke="#1f78b4" points="286.5,-188 286.5,-214 399.5,-214 399.5,-188 286.5,-188"/>
<text text-anchor="start" x="301.38" y="-195.7" font-family="Helvetica,Arial,sans-serif" font-size="14.00">Primary Drills</text>
<polygon fill="#ffff99" stroke="none" points="399.5,-188 399.5,-214 427.5,-214 427.5,-188 399.5,-188"/>
<polygon fill="none" stroke="#1f78b4" points="399.5,-188 399.5,-214 427.5,-214 427.5,-188 399.5,-188"/>
<polygon fill="none" stroke="#1f78b4" points="286.5,-162 286.5,-188 399.5,-188 399.5,-162 286.5,-162"/>
<text text-anchor="start" x="291.25" y="-169.7" font-family="Helvetica,Arial,sans-serif" font-size="14.00">Secondary Drills</text>
<polygon fill="#fdbf6f" stroke="none" points="399.5,-162 399.5,-188 427.5,-188 427.5,-162 399.5,-162"/>
<polygon fill="none" stroke="#1f78b4" points="399.5,-162 399.5,-188 427.5,-188 427.5,-162 399.5,-162"/>
</g>
</g>
</svg>
