<?xml version="1.0" encoding="UTF-8" standalone="no"?>
<!DOCTYPE svg PUBLIC "-//W3C//DTD SVG 1.1//EN"
 "http://www.w3.org/Graphics/SVG/1.1/DTD/svg11.dtd">
<!-- Generated by graphviz version 8.1.0 (20230707.0739)
 -->
<!-- Title: HC2H Pages: 1 -->
<svg width="1573pt" height="554pt"
 viewBox="0.00 0.00 1572.88 554.00" xmlns="http://www.w3.org/2000/svg" xmlns:xlink="http://www.w3.org/1999/xlink">
<g id="graph0" class="graph" transform="scale(1 1) rotate(0) translate(4 550)">
<title>HC2H</title>
<polygon fill="white" stroke="none" points="-4,4 -4,-550 1568.88,-550 1568.88,4 -4,4"/>
<text text-anchor="middle" x="782.44" y="-7.2" font-family="Helvetica,Arial,sans-serif" font-size="14.00">Two&#45;Handed Heavy Club Skill Progression</text>
<!-- mov_cap -->
<g id="node1" class="node">
<title>mov_cap</title>
<g id="a_node1"><a xlink:href="https://www.youtube.com/watch?v=6kpEYglMJ1c" xlink:title="{{37|Clean &amp; Press}}">
<path fill="#ffff99" stroke="#b15928" d="M15.2,-425.35C15.2,-425.35 156.8,-425.35 156.8,-425.35 162.8,-425.35 168.8,-431.35 168.8,-437.35 168.8,-437.35 168.8,-458.65 168.8,-458.65 168.8,-464.65 162.8,-470.65 156.8,-470.65 156.8,-470.65 15.2,-470.65 15.2,-470.65 9.2,-470.65 3.2,-464.65 3.2,-458.65 3.2,-458.65 3.2,-437.35 3.2,-437.35 3.2,-431.35 9.2,-425.35 15.2,-425.35"/>
<text text-anchor="middle" x="25.85" y="-442.95" font-family="Helvetica,Arial,sans-serif" font-size="14.00">37</text>
<polyline fill="none" stroke="#b15928" points="48.5,-425.35 48.5,-470.65"/>
<text text-anchor="middle" x="108.65" y="-442.95" font-family="Helvetica,Arial,sans-serif" font-size="14.00">Clean &amp; Press</text>
</a>
</g>
</g>
<!-- mov_kneelsc -->
<g id="node2" class="node">
<title>mov_kneelsc</title>
<g id="a_node2"><a xlink:href="https://www.youtube.com/watch?v=yHIEZN0Nl_U&amp;list=PLk4oYPJ7TXKiueHS7UMPv-DxNMK6UELds&amp;index=42" xlink:title="{{23|Half&#45;Kneeling Shield Cast}}">
<path fill="#fdbf6f" stroke="#ff7f00" d="M964.12,-167.5C964.12,-167.5 1149.88,-167.5 1149.88,-167.5 1155.88,-167.5 1161.88,-173.5 1161.88,-179.5 1161.88,-179.5 1161.88,-191.5 1161.88,-191.5 1161.88,-197.5 1155.88,-203.5 1149.88,-203.5 1149.88,-203.5 964.12,-203.5 964.12,-203.5 958.12,-203.5 952.12,-197.5 952.12,-191.5 952.12,-191.5 952.12,-179.5 952.12,-179.5 952.12,-173.5 958.12,-167.5 964.12,-167.5"/>
<text text-anchor="middle" x="968.38" y="-180.7" font-family="Helvetica,Arial,sans-serif" font-size="14.00">23</text>
<polyline fill="none" stroke="#ff7f00" points="984.62,-168 984.62,-203.5"/>
<text text-anchor="middle" x="1073.25" y="-180.7" font-family="Helvetica,Arial,sans-serif" font-size="14.00">Half&#45;Kneeling Shield Cast</text>
</a>
</g>
</g>
<!-- mov_sblungepull -->
<g id="node3" class="node">
<title>mov_sblungepull</title>
<g id="a_node3"><a xlink:href="https://www.youtube.com/watch?v=yHIEZN0Nl_U&amp;list=PLk4oYPJ7TXKiueHS7UMPv-DxNMK6UELds&amp;index=44" xlink:title="{{24|Step&#45;Back Lunge\nPullover at Top}}">
<path fill="#fdbf6f" stroke="#ff7f00" d="M600,-333.25C600,-333.25 734,-333.25 734,-333.25 740,-333.25 746,-339.25 746,-345.25 746,-345.25 746,-362.25 746,-362.25 746,-368.25 740,-374.25 734,-374.25 734,-374.25 600,-374.25 600,-374.25 594,-374.25 588,-368.25 588,-362.25 588,-362.25 588,-345.25 588,-345.25 588,-339.25 594,-333.25 600,-333.25"/>
<text text-anchor="middle" x="604.25" y="-348.7" font-family="Helvetica,Arial,sans-serif" font-size="14.00">24</text>
<polyline fill="none" stroke="#ff7f00" points="620.5,-333.25 620.5,-374.25"/>
<text text-anchor="middle" x="683.25" y="-356.95" font-family="Helvetica,Arial,sans-serif" font-size="14.00">Step&#45;Back Lunge</text>
<text text-anchor="middle" x="683.25" y="-340.45" font-family="Helvetica,Arial,sans-serif" font-size="14.00">Pullover at Top</text>
</a>
</g>
</g>
<!-- mov_sblungepullbot -->
<g id="node7" class="node">
<title>mov_sblungepullbot</title>
<g id="a_node7"><a xlink:href="https://www.youtube.com/watch?v=UpY9zHuTZds" xlink:title="{{28|Step&#45;Back Lunge\nPullover at Bottom}}">
<path fill="#fdbf6f" stroke="#ff7f00" d="M551,-243C551,-243 691,-243 691,-243 697,-243 703,-249 703,-255 703,-255 703,-272 703,-272 703,-278 697,-284 691,-284 691,-284 551,-284 551,-284 545,-284 539,-278 539,-272 539,-272 539,-255 539,-255 539,-249 545,-243 551,-243"/>
<text text-anchor="middle" x="555.25" y="-258.45" font-family="Helvetica,Arial,sans-serif" font-size="14.00">28</text>
<polyline fill="none" stroke="#ff7f00" points="571.5,-243 571.5,-284"/>
<text text-anchor="middle" x="637.25" y="-266.7" font-family="Helvetica,Arial,sans-serif" font-size="14.00">Step&#45;Back Lunge</text>
<text text-anchor="middle" x="637.25" y="-250.2" font-family="Helvetica,Arial,sans-serif" font-size="14.00">Pullover at Bottom</text>
</a>
</g>
</g>
<!-- mov_sblungepull&#45;&gt;mov_sblungepullbot -->
<g id="edge20" class="edge">
<title>mov_sblungepull&#45;&gt;mov_sblungepullbot</title>
<path fill="none" stroke="black" d="M657.02,-333.6C650.91,-321.89 642.98,-306.67 636.11,-293.5"/>
<polygon fill="black" stroke="black" points="638.85,-292.17 631.12,-284.92 632.64,-295.4 638.85,-292.17"/>
</g>
<!-- mov_fbpull -->
<g id="node4" class="node">
<title>mov_fbpull</title>
<g id="a_node4"><a xlink:href="https://www.youtube.com/watch?v=yHIEZN0Nl_U&amp;list=PLk4oYPJ7TXKiueHS7UMPv-DxNMK6UELds&amp;index=45" xlink:title="{{26|Flat Back Pullover}}">
<path fill="#fdbf6f" stroke="#ff7f00" d="M1192.12,-335.75C1192.12,-335.75 1329.88,-335.75 1329.88,-335.75 1335.88,-335.75 1341.88,-341.75 1341.88,-347.75 1341.88,-347.75 1341.88,-359.75 1341.88,-359.75 1341.88,-365.75 1335.88,-371.75 1329.88,-371.75 1329.88,-371.75 1192.12,-371.75 1192.12,-371.75 1186.12,-371.75 1180.12,-365.75 1180.12,-359.75 1180.12,-359.75 1180.12,-347.75 1180.12,-347.75 1180.12,-341.75 1186.12,-335.75 1192.12,-335.75"/>
<text text-anchor="middle" x="1196.38" y="-348.95" font-family="Helvetica,Arial,sans-serif" font-size="14.00">26</text>
<polyline fill="none" stroke="#ff7f00" points="1212.62,-336.25 1212.62,-371.75"/>
<text text-anchor="middle" x="1277.25" y="-348.95" font-family="Helvetica,Arial,sans-serif" font-size="14.00">Flat Back Pullover</text>
</a>
</g>
</g>
<!-- mov_fbpullsit -->
<g id="node6" class="node">
<title>mov_fbpullsit</title>
<g id="a_node6"><a xlink:href="https://www.youtube.com/watch?v=Ii2WZgl5mHA" xlink:title="{{27|Flat Back Pullover Situp}}">
<path fill="#fdbf6f" stroke="#ff7f00" d="M1174.12,-245.5C1174.12,-245.5 1347.88,-245.5 1347.88,-245.5 1353.88,-245.5 1359.88,-251.5 1359.88,-257.5 1359.88,-257.5 1359.88,-269.5 1359.88,-269.5 1359.88,-275.5 1353.88,-281.5 1347.88,-281.5 1347.88,-281.5 1174.12,-281.5 1174.12,-281.5 1168.12,-281.5 1162.12,-275.5 1162.12,-269.5 1162.12,-269.5 1162.12,-257.5 1162.12,-257.5 1162.12,-251.5 1168.12,-245.5 1174.12,-245.5"/>
<text text-anchor="middle" x="1178.38" y="-258.7" font-family="Helvetica,Arial,sans-serif" font-size="14.00">27</text>
<polyline fill="none" stroke="#ff7f00" points="1194.62,-246 1194.62,-281.5"/>
<text text-anchor="middle" x="1277.25" y="-258.7" font-family="Helvetica,Arial,sans-serif" font-size="14.00">Flat Back Pullover Situp</text>
</a>
</g>
</g>
<!-- mov_fbpull&#45;&gt;mov_fbpullsit -->
<g id="edge19" class="edge">
<title>mov_fbpull&#45;&gt;mov_fbpullsit</title>
<path fill="none" stroke="black" d="M1261,-336.15C1261,-323.78 1261,-306.6 1261,-292.17"/>
<polygon fill="black" stroke="black" points="1264.5,-292.32 1261,-282.32 1257.5,-292.32 1264.5,-292.32"/>
</g>
<!-- mov_kneelbackswing -->
<g id="node5" class="node">
<title>mov_kneelbackswing</title>
<g id="a_node5"><a xlink:href="https://www.youtube.com/watch?v=XH_HFWZQt4c" xlink:title="{{25|Half&#45;Kneeling\nBack Position Swing}}">
<path fill="#fdbf6f" stroke="#ff7f00" d="M802.62,-243C802.62,-243 955.38,-243 955.38,-243 961.38,-243 967.38,-249 967.38,-255 967.38,-255 967.38,-272 967.38,-272 967.38,-278 961.38,-284 955.38,-284 955.38,-284 802.62,-284 802.62,-284 796.62,-284 790.62,-278 790.62,-272 790.62,-272 790.62,-255 790.62,-255 790.62,-249 796.62,-243 802.62,-243"/>
<text text-anchor="middle" x="806.88" y="-258.45" font-family="Helvetica,Arial,sans-serif" font-size="14.00">25</text>
<polyline fill="none" stroke="#ff7f00" points="823.12,-243 823.12,-284"/>
<text text-anchor="middle" x="895.25" y="-266.7" font-family="Helvetica,Arial,sans-serif" font-size="14.00">Half&#45;Kneeling</text>
<text text-anchor="middle" x="895.25" y="-250.2" font-family="Helvetica,Arial,sans-serif" font-size="14.00">Back Position Swing</text>
</a>
</g>
</g>
<!-- mov_fbpullsitpress -->
<g id="node10" class="node">
<title>mov_fbpullsitpress</title>
<g id="a_node10"><a xlink:href="https://www.youtube.com/watch?v=8VL8tvinc28" xlink:title="{{29|Flat Back Pullover\nSitup Press}}">
<path fill="#fdbf6f" stroke="#ff7f00" d="M1192.12,-165C1192.12,-165 1329.88,-165 1329.88,-165 1335.88,-165 1341.88,-171 1341.88,-177 1341.88,-177 1341.88,-194 1341.88,-194 1341.88,-200 1335.88,-206 1329.88,-206 1329.88,-206 1192.12,-206 1192.12,-206 1186.12,-206 1180.12,-200 1180.12,-194 1180.12,-194 1180.12,-177 1180.12,-177 1180.12,-171 1186.12,-165 1192.12,-165"/>
<text text-anchor="middle" x="1196.38" y="-180.45" font-family="Helvetica,Arial,sans-serif" font-size="14.00">29</text>
<polyline fill="none" stroke="#ff7f00" points="1212.62,-165 1212.62,-206"/>
<text text-anchor="middle" x="1277.25" y="-188.7" font-family="Helvetica,Arial,sans-serif" font-size="14.00">Flat Back Pullover</text>
<text text-anchor="middle" x="1277.25" y="-172.2" font-family="Helvetica,Arial,sans-serif" font-size="14.00">Situp Press</text>
</a>
</g>
</g>
<!-- mov_fbpullsit&#45;&gt;mov_fbpullsitpress -->
<g id="edge21" class="edge">
<title>mov_fbpullsit&#45;&gt;mov_fbpullsitpress</title>
<path fill="none" stroke="black" d="M1261,-245.63C1261,-237.05 1261,-226.37 1261,-216.45"/>
<polygon fill="black" stroke="black" points="1264.5,-216.73 1261,-206.73 1257.5,-216.73 1264.5,-216.73"/>
</g>
<!-- mov_sblungepullsbpress -->
<g id="node13" class="node">
<title>mov_sblungepullsbpress</title>
<g id="a_node13"><a xlink:href="https://www.youtube.com/watch?v=1cXPBXfKNhU" xlink:title="{{35|Step&#45;Back Lunge Pullover\nStep&#45;Back Press}}">
<path fill="#fdbf6f" stroke="#ff7f00" d="M471.62,-165C471.62,-165 660.38,-165 660.38,-165 666.38,-165 672.38,-171 672.38,-177 672.38,-177 672.38,-194 672.38,-194 672.38,-200 666.38,-206 660.38,-206 660.38,-206 471.62,-206 471.62,-206 465.62,-206 459.62,-200 459.62,-194 459.62,-194 459.62,-177 459.62,-177 459.62,-171 465.62,-165 471.62,-165"/>
<text text-anchor="middle" x="475.88" y="-180.45" font-family="Helvetica,Arial,sans-serif" font-size="14.00">35</text>
<polyline fill="none" stroke="#ff7f00" points="492.12,-165 492.12,-206"/>
<text text-anchor="middle" x="582.25" y="-188.7" font-family="Helvetica,Arial,sans-serif" font-size="14.00">Step&#45;Back Lunge Pullover</text>
<text text-anchor="middle" x="582.25" y="-172.2" font-family="Helvetica,Arial,sans-serif" font-size="14.00">Step&#45;Back Press</text>
</a>
</g>
</g>
<!-- mov_sblungepullbot&#45;&gt;mov_sblungepullsbpress -->
<g id="edge24" class="edge">
<title>mov_sblungepullbot&#45;&gt;mov_sblungepullsbpress</title>
<path fill="none" stroke="black" d="M607.12,-243.32C600.85,-234.66 593.32,-224.25 586.42,-214.72"/>
<polygon fill="black" stroke="black" points="588.76,-212.99 580.07,-206.94 583.09,-217.09 588.76,-212.99"/>
</g>
<!-- mov_incirclesquat -->
<g id="node8" class="node">
<title>mov_incirclesquat</title>
<g id="a_node8"><a xlink:href="https://www.youtube.com/watch?v=icFHo5ufhUc" xlink:title="{{32|Inside Circle Squat}}">
<path fill="#fdbf6f" stroke="#ff7f00" d="M407.75,-430C407.75,-430 552.25,-430 552.25,-430 558.25,-430 564.25,-436 564.25,-442 564.25,-442 564.25,-454 564.25,-454 564.25,-460 558.25,-466 552.25,-466 552.25,-466 407.75,-466 407.75,-466 401.75,-466 395.75,-460 395.75,-454 395.75,-454 395.75,-442 395.75,-442 395.75,-436 401.75,-430 407.75,-430"/>
<text text-anchor="middle" x="412" y="-443.2" font-family="Helvetica,Arial,sans-serif" font-size="14.00">32</text>
<polyline fill="none" stroke="#ff7f00" points="428.25,-430.5 428.25,-466"/>
<text text-anchor="middle" x="496.25" y="-443.2" font-family="Helvetica,Arial,sans-serif" font-size="14.00">Inside Circle Squat</text>
</a>
</g>
</g>
<!-- mov_outcirclesquat -->
<g id="node9" class="node">
<title>mov_outcirclesquat</title>
<g id="a_node9"><a xlink:href="https://www.youtube.com/watch?v=z916C16iK54&amp;list=PLk4oYPJ7TXKiueHS7UMPv-DxNMK6UELds&amp;index=49" xlink:title="{{34|Outside Circle Squat}}">
<path fill="#fdbf6f" stroke="#ff7f00" d="M402.5,-335.75C402.5,-335.75 557.5,-335.75 557.5,-335.75 563.5,-335.75 569.5,-341.75 569.5,-347.75 569.5,-347.75 569.5,-359.75 569.5,-359.75 569.5,-365.75 563.5,-371.75 557.5,-371.75 557.5,-371.75 402.5,-371.75 402.5,-371.75 396.5,-371.75 390.5,-365.75 390.5,-359.75 390.5,-359.75 390.5,-347.75 390.5,-347.75 390.5,-341.75 396.5,-335.75 402.5,-335.75"/>
<text text-anchor="middle" x="406.75" y="-348.95" font-family="Helvetica,Arial,sans-serif" font-size="14.00">34</text>
<polyline fill="none" stroke="#ff7f00" points="423,-336.25 423,-371.75"/>
<text text-anchor="middle" x="496.25" y="-348.95" font-family="Helvetica,Arial,sans-serif" font-size="14.00">Outside Circle Squat</text>
</a>
</g>
</g>
<!-- mov_incirclesquat&#45;&gt;mov_outcirclesquat -->
<g id="edge23" class="edge">
<title>mov_incirclesquat&#45;&gt;mov_outcirclesquat</title>
<path fill="none" stroke="black" d="M480,-430.08C480,-416.69 480,-397.71 480,-382.16"/>
<polygon fill="black" stroke="black" points="483.5,-382.56 480,-372.56 476.5,-382.56 483.5,-382.56"/>
</g>
<!-- mov_altshinbox -->
<g id="node11" class="node">
<title>mov_altshinbox</title>
<g id="a_node11"><a xlink:href="https://www.youtube.com/watch?v=jogIwgDj0KM" xlink:title="{{31|Balance\nAlternating Shin Box}}">
<path fill="#fdbf6f" stroke="#ff7f00" d="M1390.38,-243C1390.38,-243 1541.62,-243 1541.62,-243 1547.62,-243 1553.62,-249 1553.62,-255 1553.62,-255 1553.62,-272 1553.62,-272 1553.62,-278 1547.62,-284 1541.62,-284 1541.62,-284 1390.38,-284 1390.38,-284 1384.38,-284 1378.38,-278 1378.38,-272 1378.38,-272 1378.38,-255 1378.38,-255 1378.38,-249 1384.38,-243 1390.38,-243"/>
<text text-anchor="middle" x="1394.62" y="-258.45" font-family="Helvetica,Arial,sans-serif" font-size="14.00">31</text>
<polyline fill="none" stroke="#ff7f00" points="1410.88,-243 1410.88,-284"/>
<text text-anchor="middle" x="1482.25" y="-266.7" font-family="Helvetica,Arial,sans-serif" font-size="14.00">Balance</text>
<text text-anchor="middle" x="1482.25" y="-250.2" font-family="Helvetica,Arial,sans-serif" font-size="14.00">Alternating Shin Box</text>
</a>
</g>
</g>
<!-- mov_altshinboxfrpress -->
<g id="node12" class="node">
<title>mov_altshinboxfrpress</title>
<g id="a_node12"><a xlink:href="https://www.youtube.com/watch?v=D2AJzIVufeY&amp;list=PLk4oYPJ7TXKiueHS7UMPv-DxNMK6UELds&amp;index=47" xlink:title="{{33|Alt Shinbox Front Press}}">
<path fill="#fdbf6f" stroke="#ff7f00" d="M1379.12,-167.5C1379.12,-167.5 1552.88,-167.5 1552.88,-167.5 1558.88,-167.5 1564.88,-173.5 1564.88,-179.5 1564.88,-179.5 1564.88,-191.5 1564.88,-191.5 1564.88,-197.5 1558.88,-203.5 1552.88,-203.5 1552.88,-203.5 1379.12,-203.5 1379.12,-203.5 1373.12,-203.5 1367.12,-197.5 1367.12,-191.5 1367.12,-191.5 1367.12,-179.5 1367.12,-179.5 1367.12,-173.5 1373.12,-167.5 1379.12,-167.5"/>
<text text-anchor="middle" x="1383.38" y="-180.7" font-family="Helvetica,Arial,sans-serif" font-size="14.00">33</text>
<polyline fill="none" stroke="#ff7f00" points="1399.62,-168 1399.62,-203.5"/>
<text text-anchor="middle" x="1482.25" y="-180.7" font-family="Helvetica,Arial,sans-serif" font-size="14.00">Alt Shinbox Front Press</text>
</a>
</g>
</g>
<!-- mov_altshinbox&#45;&gt;mov_altshinboxfrpress -->
<g id="edge22" class="edge">
<title>mov_altshinbox&#45;&gt;mov_altshinboxfrpress</title>
<path fill="none" stroke="black" d="M1466,-243.32C1466,-234.47 1466,-223.8 1466,-214.11"/>
<polygon fill="black" stroke="black" points="1469.5,-214.34 1466,-204.34 1462.5,-214.34 1469.5,-214.34"/>
</g>
<!-- mov_squatpress -->
<g id="node14" class="node">
<title>mov_squatpress</title>
<g id="a_node14"><a xlink:href="https://www.youtube.com/watch?v=6p1niExqXSA" xlink:title="{{36|Squat Press}}">
<path fill="#fdbf6f" stroke="#ff7f00" d="M262.75,-430C262.75,-430 365.25,-430 365.25,-430 371.25,-430 377.25,-436 377.25,-442 377.25,-442 377.25,-454 377.25,-454 377.25,-460 371.25,-466 365.25,-466 365.25,-466 262.75,-466 262.75,-466 256.75,-466 250.75,-460 250.75,-454 250.75,-454 250.75,-442 250.75,-442 250.75,-436 256.75,-430 262.75,-430"/>
<text text-anchor="middle" x="267" y="-443.2" font-family="Helvetica,Arial,sans-serif" font-size="14.00">36</text>
<polyline fill="none" stroke="#ff7f00" points="283.25,-430.5 283.25,-466"/>
<text text-anchor="middle" x="330.25" y="-443.2" font-family="Helvetica,Arial,sans-serif" font-size="14.00">Squat Press</text>
</a>
</g>
</g>
<!-- pre_shinbox -->
<g id="node15" class="node">
<title>pre_shinbox</title>
<path fill="#b2df8a" stroke="#33a02c" d="M1421.88,-335.75C1421.88,-335.75 1510.12,-335.75 1510.12,-335.75 1516.12,-335.75 1522.12,-341.75 1522.12,-347.75 1522.12,-347.75 1522.12,-359.75 1522.12,-359.75 1522.12,-365.75 1516.12,-371.75 1510.12,-371.75 1510.12,-371.75 1421.88,-371.75 1421.88,-371.75 1415.88,-371.75 1409.88,-365.75 1409.88,-359.75 1409.88,-359.75 1409.88,-347.75 1409.88,-347.75 1409.88,-341.75 1415.88,-335.75 1421.88,-335.75"/>
<text text-anchor="middle" x="1429.88" y="-348.95" font-family="Helvetica,Arial,sans-serif" font-size="14.00">BW</text>
<polyline fill="none" stroke="#33a02c" points="1449.88,-336.25 1449.88,-371.75"/>
<text text-anchor="middle" x="1486" y="-348.95" font-family="Helvetica,Arial,sans-serif" font-size="14.00">Shin Box</text>
</g>
<!-- pre_shinbox&#45;&gt;mov_altshinbox -->
<g id="edge1" class="edge">
<title>pre_shinbox&#45;&gt;mov_altshinbox</title>
<path fill="none" stroke="black" d="M1466,-336.15C1466,-324.41 1466,-308.34 1466,-294.4"/>
<polygon fill="black" stroke="black" points="1469.5,-294.79 1466,-284.79 1462.5,-294.79 1469.5,-294.79"/>
</g>
<!-- ext_2h_deadclean -->
<g id="node16" class="node">
<title>ext_2h_deadclean</title>
<g id="a_node16"><a xlink:href="https://www.youtube.com/watch?v=69RGME9RTcY&amp;list=PLk4oYPJ7TXKiueHS7UMPv-DxNMK6UELds&amp;index=4" xlink:title="{{2H&#45;04|Dead Clean}}">
<path fill="#b2df8a" stroke="#33a02c" d="M12,-509.5C12,-509.5 134,-509.5 134,-509.5 140,-509.5 146,-515.5 146,-521.5 146,-521.5 146,-533.5 146,-533.5 146,-539.5 140,-545.5 134,-545.5 134,-545.5 12,-545.5 12,-545.5 6,-545.5 0,-539.5 0,-533.5 0,-533.5 0,-521.5 0,-521.5 0,-515.5 6,-509.5 12,-509.5"/>
<text text-anchor="middle" x="27.5" y="-522.7" font-family="Helvetica,Arial,sans-serif" font-size="14.00">2H&#45;04</text>
<polyline fill="none" stroke="#33a02c" points="55,-510 55,-545.5"/>
<text text-anchor="middle" x="100.5" y="-522.7" font-family="Helvetica,Arial,sans-serif" font-size="14.00">Dead Clean</text>
</a>
</g>
</g>
<!-- ext_2h_deadclean&#45;&gt;mov_cap -->
<g id="edge3" class="edge">
<title>ext_2h_deadclean&#45;&gt;mov_cap</title>
<path fill="none" stroke="black" d="M75.82,-509.68C77.22,-501.34 78.96,-490.97 80.6,-481.18"/>
<polygon fill="black" stroke="black" points="84.19,-481.95 82.39,-471.51 77.29,-480.79 84.19,-481.95"/>
</g>
<!-- ext_2h_incircle -->
<g id="node17" class="node">
<title>ext_2h_incircle</title>
<g id="a_node17"><a xlink:href="https://www.youtube.com/watch?v=Mh6iWcLbE3k&amp;list=PLk4oYPJ7TXKiueHS7UMPv-DxNMK6UELds&amp;index=5" xlink:title="{{2H&#45;05|Inside Circle}}">
<path fill="#b2df8a" stroke="#33a02c" d="M681.75,-509.5C681.75,-509.5 808.25,-509.5 808.25,-509.5 814.25,-509.5 820.25,-515.5 820.25,-521.5 820.25,-521.5 820.25,-533.5 820.25,-533.5 820.25,-539.5 814.25,-545.5 808.25,-545.5 808.25,-545.5 681.75,-545.5 681.75,-545.5 675.75,-545.5 669.75,-539.5 669.75,-533.5 669.75,-533.5 669.75,-521.5 669.75,-521.5 669.75,-515.5 675.75,-509.5 681.75,-509.5"/>
<text text-anchor="middle" x="697.25" y="-522.7" font-family="Helvetica,Arial,sans-serif" font-size="14.00">2H&#45;05</text>
<polyline fill="none" stroke="#33a02c" points="724.75,-510 724.75,-545.5"/>
<text text-anchor="middle" x="772.5" y="-522.7" font-family="Helvetica,Arial,sans-serif" font-size="14.00">Inside Circle</text>
</a>
</g>
</g>
<!-- ext_2h_incircle&#45;&gt;mov_incirclesquat -->
<g id="edge7" class="edge">
<title>ext_2h_incircle&#45;&gt;mov_incirclesquat</title>
<path fill="none" stroke="black" d="M687.17,-509.59C646.23,-497.61 591.17,-481.51 548.1,-468.92"/>
<polygon fill="black" stroke="black" points="549.29,-465.32 538.7,-465.88 547.32,-472.04 549.29,-465.32"/>
</g>
<!-- ext_2h_outcircle -->
<g id="node21" class="node">
<title>ext_2h_outcircle</title>
<g id="a_node21"><a xlink:href="https://www.youtube.com/watch?v=QzMzCal-MYM&amp;list=PLk4oYPJ7TXKiueHS7UMPv-DxNMK6UELds&amp;index=6" xlink:title="{{2H&#45;06|Outside Circle}}">
<path fill="#b2df8a" stroke="#33a02c" d="M767.5,-430C767.5,-430 904.5,-430 904.5,-430 910.5,-430 916.5,-436 916.5,-442 916.5,-442 916.5,-454 916.5,-454 916.5,-460 910.5,-466 904.5,-466 904.5,-466 767.5,-466 767.5,-466 761.5,-466 755.5,-460 755.5,-454 755.5,-454 755.5,-442 755.5,-442 755.5,-436 761.5,-430 767.5,-430"/>
<text text-anchor="middle" x="783" y="-443.2" font-family="Helvetica,Arial,sans-serif" font-size="14.00">2H&#45;06</text>
<polyline fill="none" stroke="#33a02c" points="810.5,-430.5 810.5,-466"/>
<text text-anchor="middle" x="863.5" y="-443.2" font-family="Helvetica,Arial,sans-serif" font-size="14.00">Outside Circle</text>
</a>
</g>
</g>
<!-- ext_2h_incircle&#45;&gt;ext_2h_outcircle -->
<g id="edge6" class="edge">
<title>ext_2h_incircle&#45;&gt;ext_2h_outcircle</title>
<path fill="none" stroke="black" d="M764.75,-509.68C777.39,-498.92 793.98,-484.79 807.97,-472.87"/>
<polygon fill="black" stroke="black" points="809.95,-474.93 815.29,-465.78 805.41,-469.6 809.95,-474.93"/>
</g>
<!-- ext_2h_sc -->
<g id="node18" class="node">
<title>ext_2h_sc</title>
<g id="a_node18"><a xlink:href="https://www.youtube.com/watch?v=W-iHvrjn72k&amp;list=PLk4oYPJ7TXKiueHS7UMPv-DxNMK6UELds&amp;index=9" xlink:title="{{2H&#45;09|Shield Cast}}">
<path fill="#b2df8a" stroke="#33a02c" d="M997.12,-245.5C997.12,-245.5 1116.88,-245.5 1116.88,-245.5 1122.88,-245.5 1128.88,-251.5 1128.88,-257.5 1128.88,-257.5 1128.88,-269.5 1128.88,-269.5 1128.88,-275.5 1122.88,-281.5 1116.88,-281.5 1116.88,-281.5 997.12,-281.5 997.12,-281.5 991.12,-281.5 985.12,-275.5 985.12,-269.5 985.12,-269.5 985.12,-257.5 985.12,-257.5 985.12,-251.5 991.12,-245.5 997.12,-245.5"/>
<text text-anchor="middle" x="1012.62" y="-258.7" font-family="Helvetica,Arial,sans-serif" font-size="14.00">2H&#45;09</text>
<polyline fill="none" stroke="#33a02c" points="1040.12,-246 1040.12,-281.5"/>
<text text-anchor="middle" x="1084.5" y="-258.7" font-family="Helvetica,Arial,sans-serif" font-size="14.00">Shield Cast</text>
</a>
</g>
</g>
<!-- ext_2h_sc&#45;&gt;mov_kneelsc -->
<g id="edge4" class="edge">
<title>ext_2h_sc:s&#45;&gt;mov_kneelsc</title>
<path fill="none" stroke="black" d="M1057,-244.5C1057,-234.62 1057,-223.8 1057,-214.2"/>
<polygon fill="black" stroke="black" points="1060.5,-214.25 1057,-204.25 1053.5,-214.25 1060.5,-214.25"/>
</g>
<!-- ext_2h_backposside2side -->
<g id="node19" class="node">
<title>ext_2h_backposside2side</title>
<g id="a_node19"><a xlink:href="https://www.youtube.com/watch?v=GKwGiB2UwyM&amp;list=PLk4oYPJ7TXKiueHS7UMPv-DxNMK6UELds&amp;index=8" xlink:title="{{2H&#45;08|Back Position\nSide to Side Swing}|SWING BEHIND HEAD}">
<path fill="#b2df8a" stroke="#33a02c" d="M849.5,-321C849.5,-321 1016.5,-321 1016.5,-321 1022.5,-321 1028.5,-327 1028.5,-333 1028.5,-333 1028.5,-374.5 1028.5,-374.5 1028.5,-380.5 1022.5,-386.5 1016.5,-386.5 1016.5,-386.5 849.5,-386.5 849.5,-386.5 843.5,-386.5 837.5,-380.5 837.5,-374.5 837.5,-374.5 837.5,-333 837.5,-333 837.5,-327 843.5,-321 849.5,-321"/>
<text text-anchor="middle" x="865" y="-360.95" font-family="Helvetica,Arial,sans-serif" font-size="14.00">2H&#45;08</text>
<polyline fill="none" stroke="#33a02c" points="892.5,-345.5 892.5,-386.5"/>
<text text-anchor="middle" x="960.5" y="-369.2" font-family="Helvetica,Arial,sans-serif" font-size="14.00">Back Position</text>
<text text-anchor="middle" x="960.5" y="-352.7" font-family="Helvetica,Arial,sans-serif" font-size="14.00">Side to Side Swing</text>
<polyline fill="none" stroke="#33a02c" points="837.5,-345.5 1028.5,-345.5"/>
<text text-anchor="middle" x="933" y="-328.2" font-family="Helvetica,Arial,sans-serif" font-size="14.00">SWING BEHIND HEAD</text>
</a>
</g>
</g>
<!-- ext_2h_backposside2side&#45;&gt;mov_kneelbackswing -->
<g id="edge5" class="edge">
<title>ext_2h_backposside2side&#45;&gt;mov_kneelbackswing</title>
<path fill="none" stroke="black" d="M913.81,-321.39C908.2,-312.22 902.1,-302.25 896.59,-293.25"/>
<polygon fill="black" stroke="black" points="899.11,-291.66 890.9,-284.95 893.14,-295.31 899.11,-291.66"/>
</g>
<!-- ext_2h_backposside2side&#45;&gt;ext_2h_sc -->
<g id="edge2" class="edge">
<title>ext_2h_backposside2side&#45;&gt;ext_2h_sc</title>
<path fill="none" stroke="black" d="M977.42,-321.14C993.07,-310 1010.35,-297.7 1024.8,-287.41"/>
<polygon fill="black" stroke="black" points="1026.28,-289.95 1032.39,-281.3 1022.22,-284.25 1026.28,-289.95"/>
</g>
<!-- ext_2h_frontpress -->
<g id="node20" class="node">
<title>ext_2h_frontpress</title>
<g id="a_node20"><a xlink:href="https://www.youtube.com/watch?v=HBRWtm3tTp4&amp;list=PLk4oYPJ7TXKiueHS7UMPv-DxNMK6UELds&amp;index=15" xlink:title="{{2H&#45;13|Front Press}}">
<path fill="#b2df8a" stroke="#33a02c" d="M176.38,-509.5C176.38,-509.5 297.62,-509.5 297.62,-509.5 303.62,-509.5 309.62,-515.5 309.62,-521.5 309.62,-521.5 309.62,-533.5 309.62,-533.5 309.62,-539.5 303.62,-545.5 297.62,-545.5 297.62,-545.5 176.38,-545.5 176.38,-545.5 170.38,-545.5 164.38,-539.5 164.38,-533.5 164.38,-533.5 164.38,-521.5 164.38,-521.5 164.38,-515.5 170.38,-509.5 176.38,-509.5"/>
<text text-anchor="middle" x="191.88" y="-522.7" font-family="Helvetica,Arial,sans-serif" font-size="14.00">2H&#45;13</text>
<polyline fill="none" stroke="#33a02c" points="219.38,-510 219.38,-545.5"/>
<text text-anchor="middle" x="264.5" y="-522.7" font-family="Helvetica,Arial,sans-serif" font-size="14.00">Front Press</text>
</a>
</g>
</g>
<!-- ext_2h_frontpress&#45;&gt;mov_cap -->
<g id="edge15" class="edge">
<title>ext_2h_frontpress&#45;&gt;mov_cap</title>
<path fill="none" stroke="black" d="M204.24,-509.68C184.74,-499.68 159.58,-486.76 137.48,-475.42"/>
<polygon fill="black" stroke="black" points="139.4,-471.96 128.9,-470.51 136.2,-478.19 139.4,-471.96"/>
</g>
<!-- ext_2h_frontpress&#45;&gt;mov_squatpress -->
<g id="edge16" class="edge">
<title>ext_2h_frontpress&#45;&gt;mov_squatpress</title>
<path fill="none" stroke="black" d="M253.71,-509.68C264.2,-499.12 277.92,-485.32 289.61,-473.54"/>
<polygon fill="black" stroke="black" points="291.76,-476.34 296.32,-466.78 286.79,-471.41 291.76,-476.34"/>
</g>
<!-- mov_sbfrontpress -->
<g id="node25" class="node">
<title>mov_sbfrontpress</title>
<path fill="#a6cee3" stroke="#1f78b4" d="M184.88,-333.25C184.88,-333.25 327.12,-333.25 327.12,-333.25 333.12,-333.25 339.12,-339.25 339.12,-345.25 339.12,-345.25 339.12,-362.25 339.12,-362.25 339.12,-368.25 333.12,-374.25 327.12,-374.25 327.12,-374.25 184.88,-374.25 184.88,-374.25 178.88,-374.25 172.88,-368.25 172.88,-362.25 172.88,-362.25 172.88,-345.25 172.88,-345.25 172.88,-339.25 178.88,-333.25 184.88,-333.25"/>
<text text-anchor="middle" x="193.25" y="-348.7" font-family="Helvetica,Arial,sans-serif" font-size="14.00">30?</text>
<polyline fill="none" stroke="#1f78b4" points="213.62,-333.25 213.62,-374.25"/>
<text text-anchor="middle" x="276.38" y="-356.95" font-family="Helvetica,Arial,sans-serif" font-size="14.00">Step&#45;Back Lunge</text>
<text text-anchor="middle" x="276.38" y="-340.45" font-family="Helvetica,Arial,sans-serif" font-size="14.00">Front Press</text>
</g>
<!-- ext_2h_frontpress&#45;&gt;mov_sbfrontpress -->
<g id="edge17" class="edge">
<title>ext_2h_frontpress&#45;&gt;mov_sbfrontpress</title>
<path fill="none" stroke="black" d="M237.02,-509.58C237.23,-489.03 238.18,-453.34 242,-423 243.59,-410.36 246.24,-396.57 248.81,-384.71"/>
<polygon fill="black" stroke="black" points="252.44,-385.56 251.22,-375.03 245.61,-384.02 252.44,-385.56"/>
</g>
<!-- ext_2h_outcircle&#45;&gt;mov_outcirclesquat -->
<g id="edge8" class="edge">
<title>ext_2h_outcircle&#45;&gt;mov_outcirclesquat</title>
<path fill="none" stroke="black" d="M774.83,-430.05C765.52,-427.61 756.02,-425.18 747,-423 672.78,-405.05 652.74,-406.85 579,-387 565.92,-383.48 552.01,-379.25 538.88,-375.04"/>
<polygon fill="black" stroke="black" points="540.13,-371.44 529.54,-371.68 537.97,-378.1 540.13,-371.44"/>
</g>
<!-- ext_2h_pullover -->
<g id="node22" class="node">
<title>ext_2h_pullover</title>
<g id="a_node22"><a xlink:href="https://www.youtube.com/watch?v=jpIn1Sumg78&amp;list=PLk4oYPJ7TXKiueHS7UMPv-DxNMK6UELds&amp;index=7" xlink:title="{{2H&#45;07|Pullover}|CLUB BEHIND HEAD}">
<path fill="#b2df8a" stroke="#33a02c" d="M946.25,-423.5C946.25,-423.5 1077.75,-423.5 1077.75,-423.5 1083.75,-423.5 1089.75,-429.5 1089.75,-435.5 1089.75,-435.5 1089.75,-460.5 1089.75,-460.5 1089.75,-466.5 1083.75,-472.5 1077.75,-472.5 1077.75,-472.5 946.25,-472.5 946.25,-472.5 940.25,-472.5 934.25,-466.5 934.25,-460.5 934.25,-460.5 934.25,-435.5 934.25,-435.5 934.25,-429.5 940.25,-423.5 946.25,-423.5"/>
<text text-anchor="middle" x="969.75" y="-455.2" font-family="Helvetica,Arial,sans-serif" font-size="14.00">2H&#45;07</text>
<polyline fill="none" stroke="#33a02c" points="1005.25,-448 1005.25,-472.5"/>
<text text-anchor="middle" x="1047.25" y="-455.2" font-family="Helvetica,Arial,sans-serif" font-size="14.00">Pullover</text>
<polyline fill="none" stroke="#33a02c" points="934.25,-448 1089.75,-448"/>
<text text-anchor="middle" x="1012" y="-430.7" font-family="Helvetica,Arial,sans-serif" font-size="14.00">CLUB BEHIND HEAD</text>
</a>
</g>
</g>
<!-- ext_2h_pullover&#45;&gt;mov_sblungepull -->
<g id="edge11" class="edge">
<title>ext_2h_pullover&#45;&gt;mov_sblungepull</title>
<path fill="none" stroke="black" d="M934.69,-425.63C931.42,-424.74 928.18,-423.86 925,-423 867.27,-407.4 802.17,-390.18 751.81,-376.94"/>
<polygon fill="black" stroke="black" points="752.85,-373.34 742.29,-374.18 751.07,-380.11 752.85,-373.34"/>
</g>
<!-- ext_2h_pullover&#45;&gt;ext_2h_sc -->
<g id="edge10" class="edge">
<title>ext_2h_pullover&#45;&gt;ext_2h_sc</title>
<path fill="none" stroke="black" d="M1023.28,-423.52C1028.12,-412.62 1033.47,-399.37 1037,-387 1046.1,-355.16 1051.48,-317.41 1054.33,-292.31"/>
<polygon fill="black" stroke="black" points="1057.91,-292.73 1055.5,-282.42 1050.95,-291.99 1057.91,-292.73"/>
</g>
<!-- ext_2h_pullover&#45;&gt;ext_2h_backposside2side -->
<g id="edge9" class="edge">
<title>ext_2h_pullover&#45;&gt;ext_2h_backposside2side</title>
<path fill="none" stroke="black" d="M992.06,-423.72C984.49,-414.88 975.64,-404.54 967.13,-394.6"/>
<polygon fill="black" stroke="black" points="969.25,-392.7 960.09,-387.38 963.94,-397.26 969.25,-392.7"/>
</g>
<!-- ext_2h_squat -->
<g id="node23" class="node">
<title>ext_2h_squat</title>
<g id="a_node23"><a xlink:href="https://www.youtube.com/watch?v=LSXticZ67Pw&amp;list=PLk4oYPJ7TXKiueHS7UMPv-DxNMK6UELds&amp;index=11" xlink:title="{{2H&#45;10|Balance Squat}}">
<path fill="#b2df8a" stroke="#33a02c" d="M410.75,-509.5C410.75,-509.5 549.25,-509.5 549.25,-509.5 555.25,-509.5 561.25,-515.5 561.25,-521.5 561.25,-521.5 561.25,-533.5 561.25,-533.5 561.25,-539.5 555.25,-545.5 549.25,-545.5 549.25,-545.5 410.75,-545.5 410.75,-545.5 404.75,-545.5 398.75,-539.5 398.75,-533.5 398.75,-533.5 398.75,-521.5 398.75,-521.5 398.75,-515.5 404.75,-509.5 410.75,-509.5"/>
<text text-anchor="middle" x="426.25" y="-522.7" font-family="Helvetica,Arial,sans-serif" font-size="14.00">2H&#45;10</text>
<polyline fill="none" stroke="#33a02c" points="453.75,-510 453.75,-545.5"/>
<text text-anchor="middle" x="507.5" y="-522.7" font-family="Helvetica,Arial,sans-serif" font-size="14.00">Balance Squat</text>
</a>
</g>
</g>
<!-- ext_2h_squat&#45;&gt;mov_incirclesquat -->
<g id="edge13" class="edge">
<title>ext_2h_squat&#45;&gt;mov_incirclesquat</title>
<path fill="none" stroke="black" d="M480,-509.68C480,-500.04 480,-487.68 480,-476.64"/>
<polygon fill="black" stroke="black" points="483.5,-476.78 480,-466.78 476.5,-476.78 483.5,-476.78"/>
</g>
<!-- ext_2h_squat&#45;&gt;mov_squatpress -->
<g id="edge14" class="edge">
<title>ext_2h_squat&#45;&gt;mov_squatpress</title>
<path fill="none" stroke="black" d="M443.98,-509.68C419.38,-498.2 386.56,-482.87 360.05,-470.5"/>
<polygon fill="black" stroke="black" points="361.78,-466.98 351.24,-465.92 358.82,-473.32 361.78,-466.98"/>
</g>
<!-- ext_2h_stepbacklunge -->
<g id="node24" class="node">
<title>ext_2h_stepbacklunge</title>
<g id="a_node24"><a xlink:href="https://www.youtube.com/watch?v=dNrYT5iU7BQ&amp;list=PLk4oYPJ7TXKiueHS7UMPv-DxNMK6UELds&amp;index=26" xlink:title="{{2H&#45;17|Balance Step\nBack Lunge}}">
<path fill="#b2df8a" stroke="#33a02c" d="M594.12,-427.5C594.12,-427.5 725.88,-427.5 725.88,-427.5 731.88,-427.5 737.88,-433.5 737.88,-439.5 737.88,-439.5 737.88,-456.5 737.88,-456.5 737.88,-462.5 731.88,-468.5 725.88,-468.5 725.88,-468.5 594.12,-468.5 594.12,-468.5 588.12,-468.5 582.12,-462.5 582.12,-456.5 582.12,-456.5 582.12,-439.5 582.12,-439.5 582.12,-433.5 588.12,-427.5 594.12,-427.5"/>
<text text-anchor="middle" x="609.62" y="-442.95" font-family="Helvetica,Arial,sans-serif" font-size="14.00">2H&#45;17</text>
<polyline fill="none" stroke="#33a02c" points="637.12,-427.5 637.12,-468.5"/>
<text text-anchor="middle" x="687.5" y="-451.2" font-family="Helvetica,Arial,sans-serif" font-size="14.00">Balance Step</text>
<text text-anchor="middle" x="687.5" y="-434.7" font-family="Helvetica,Arial,sans-serif" font-size="14.00">Back Lunge</text>
</a>
</g>
</g>
<!-- ext_2h_squat&#45;&gt;ext_2h_stepbacklunge -->
<g id="edge12" class="edge">
<title>ext_2h_squat&#45;&gt;ext_2h_stepbacklunge</title>
<path fill="none" stroke="black" d="M519.06,-509.68C544.2,-498.86 577.24,-484.63 605.02,-472.67"/>
<polygon fill="black" stroke="black" points="606.19,-475.55 613.99,-468.38 603.42,-469.12 606.19,-475.55"/>
</g>
<!-- ext_2h_stepbacklunge&#45;&gt;mov_sblungepull -->
<g id="edge18" class="edge">
<title>ext_2h_stepbacklunge&#45;&gt;mov_sblungepull</title>
<path fill="none" stroke="black" d="M661.45,-427.89C662.39,-415.48 663.64,-399.04 664.71,-384.89"/>
<polygon fill="black" stroke="black" points="668.26,-385.39 665.53,-375.16 661.28,-384.86 668.26,-385.39"/>
</g>
<!-- mov_sbfrontpress&#45;&gt;mov_sblungepullsbpress -->
<g id="edge25" class="edge">
<title>mov_sbfrontpress&#45;&gt;mov_sblungepullsbpress</title>
<path fill="none" stroke="black" d="M292.17,-333.35C348.87,-302.95 458.59,-244.1 520.54,-210.88"/>
<polygon fill="black" stroke="black" points="521.9,-213.58 529.06,-205.77 518.6,-207.41 521.9,-213.58"/>
</g>
<!-- Legend -->
<g id="node26" class="node">
<title>Legend</title>
<path fill="#a6cee3" stroke="none" d="M624.5,-128.5C624.5,-128.5 507.5,-128.5 507.5,-128.5 501.5,-128.5 495.5,-122.5 495.5,-116.5 495.5,-116.5 495.5,-36.5 495.5,-36.5 495.5,-30.5 501.5,-24.5 507.5,-24.5 507.5,-24.5 624.5,-24.5 624.5,-24.5 630.5,-24.5 636.5,-30.5 636.5,-36.5 636.5,-36.5 636.5,-116.5 636.5,-116.5 636.5,-122.5 630.5,-128.5 624.5,-128.5"/>
<polygon fill="none" stroke="#1f78b4" points="495.5,-102.5 495.5,-128.5 636.5,-128.5 636.5,-102.5 495.5,-102.5"/>
<text text-anchor="start" x="539.75" y="-111.2" font-family="Helvetica,Arial,sans-serif" font-weight="bold" font-size="14.00">Legend</text>
<polygon fill="none" stroke="#1f78b4" points="495.5,-76.5 495.5,-102.5 608.5,-102.5 608.5,-76.5 495.5,-76.5"/>
<text text-anchor="start" x="506.62" y="-84.2" font-family="Helvetica,Arial,sans-serif" font-size="14.00">Previous Drills</text>
<polygon fill="#b2df8a" stroke="none" points="608.5,-76.5 608.5,-102.5 636.5,-102.5 636.5,-76.5 608.5,-76.5"/>
<polygon fill="none" stroke="#1f78b4" points="608.5,-76.5 608.5,-102.5 636.5,-102.5 636.5,-76.5 608.5,-76.5"/>
<text text-anchor="start" x="613.12" y="-84.2" font-family="Helvetica,Arial,sans-serif" font-size="14.00">     </text>
<polygon fill="none" stroke="#1f78b4" points="495.5,-50.5 495.5,-76.5 608.5,-76.5 608.5,-50.5 495.5,-50.5"/>
<text text-anchor="start" x="510.38" y="-58.2" font-family="Helvetica,Arial,sans-serif" font-size="14.00">Primary Drills</text>
<polygon fill="#ffff99" stroke="none" points="608.5,-50.5 608.5,-76.5 636.5,-76.5 636.5,-50.5 608.5,-50.5"/>
<polygon fill="none" stroke="#1f78b4" points="608.5,-50.5 608.5,-76.5 636.5,-76.5 636.5,-50.5 608.5,-50.5"/>
<polygon fill="none" stroke="#1f78b4" points="495.5,-24.5 495.5,-50.5 608.5,-50.5 608.5,-24.5 495.5,-24.5"/>
<text text-anchor="start" x="500.25" y="-32.2" font-family="Helvetica,Arial,sans-serif" font-size="14.00">Secondary Drills</text>
<polygon fill="#fdbf6f" stroke="none" points="608.5,-24.5 608.5,-50.5 636.5,-50.5 636.5,-24.5 608.5,-24.5"/>
<polygon fill="none" stroke="#1f78b4" points="608.5,-24.5 608.5,-50.5 636.5,-50.5 636.5,-24.5 608.5,-24.5"/>
</g>
</g>
</svg>
