<?xml version="1.0" encoding="UTF-8" standalone="no"?>
<!DOCTYPE svg PUBLIC "-//W3C//DTD SVG 1.1//EN"
 "http://www.w3.org/Graphics/SVG/1.1/DTD/svg11.dtd">
<!-- Generated by graphviz version 9.0.0 (20230911.1827)
 -->
<!-- Title: HC2H Pages: 1 -->
<svg width="1861pt" height="697pt"
 viewBox="0.00 0.00 1860.88 696.50" xmlns="http://www.w3.org/2000/svg" xmlns:xlink="http://www.w3.org/1999/xlink">
<g id="graph0" class="graph" transform="scale(1 1) rotate(0) translate(4 692.5)">
<title>HC2H</title>
<polygon fill="white" stroke="none" points="-4,4 -4,-692.5 1856.88,-692.5 1856.88,4 -4,4"/>
<text text-anchor="start" x="1453.38" y="-145.7" font-family="Helvetica,Arial,sans-serif" font-weight="bold" font-size="14.00">Two&#45;Handed Heavy Club Skill Progression &#45; Part 2/2</text>
<text text-anchor="start" x="1453.38" y="-117.7" font-family="Helvetica,Arial,sans-serif" font-size="14.00">Diagram by dznz based on Mark Wildman&#39;s teachings.</text>
<text text-anchor="start" x="1453.38" y="-89.7" font-family="Helvetica,Arial,sans-serif" font-size="14.00">Source: </text>
<text text-anchor="start" x="1506.62" y="-89.7" font-family="Helvetica,Arial,sans-serif" font-weight="bold" font-size="14.00">https://github.com/dznz/wildman&#45;skill&#45;trees</text>
<text text-anchor="start" x="1453.38" y="-61.7" font-family="Helvetica,Arial,sans-serif" font-size="14.00">More by Mark Wildman &#45; </text>
<text text-anchor="start" x="1609.38" y="-61.7" font-family="Helvetica,Arial,sans-serif" font-weight="bold" font-size="14.00">https://www.wildmanathletica.com</text>
<text text-anchor="start" x="1453.38" y="-33.7" font-family="Helvetica,Arial,sans-serif" font-style="italic" font-size="14.00">© 2023. This work is openly licensed with CC BY&#45;NC&#45;SA 4.0</text>
<text text-anchor="start" x="1521.62" y="-19.7" font-family="Helvetica,Arial,sans-serif" font-style="italic" font-size="14.00">http://creativecommons.org/licenses/by&#45;nc&#45;sa/4.0/</text>
<text text-anchor="start" x="1645.38" y="-5.7" font-family="Helvetica,Arial,sans-serif" font-size="14.00"> &#160;</text>
<!-- mov_cap -->
<g id="node1" class="node">
<title>mov_cap</title>
<g id="a_node1"><a xlink:href="https://www.youtube.com/watch?v=6kpEYglMJ1c" xlink:title="{{37|Clean &amp; Press}}">
<path fill="#ffff99" stroke="#b15928" d="M28.2,-546.6C28.2,-546.6 169.8,-546.6 169.8,-546.6 175.8,-546.6 181.8,-552.6 181.8,-558.6 181.8,-558.6 181.8,-579.9 181.8,-579.9 181.8,-585.9 175.8,-591.9 169.8,-591.9 169.8,-591.9 28.2,-591.9 28.2,-591.9 22.2,-591.9 16.2,-585.9 16.2,-579.9 16.2,-579.9 16.2,-558.6 16.2,-558.6 16.2,-552.6 22.2,-546.6 28.2,-546.6"/>
<text text-anchor="middle" x="38.85" y="-564.2" font-family="Helvetica,Arial,sans-serif" font-size="14.00">37</text>
<polyline fill="none" stroke="#b15928" points="61.5,-546.6 61.5,-591.9"/>
<text text-anchor="middle" x="121.65" y="-564.2" font-family="Helvetica,Arial,sans-serif" font-size="14.00">Clean &amp; Press</text>
</a>
</g>
</g>
<!-- mov_kneelsc -->
<g id="node2" class="node">
<title>mov_kneelsc</title>
<g id="a_node2"><a xlink:href="https://www.youtube.com/watch?v=yHIEZN0Nl_U&amp;list=PLk4oYPJ7TXKiueHS7UMPv-DxNMK6UELds&amp;index=42" xlink:title="{{23|Half&#45;Kneeling Shield Cast}}">
<path fill="#fdbf6f" stroke="#ff7f00" d="M1234.12,-383C1234.12,-383 1419.88,-383 1419.88,-383 1425.88,-383 1431.88,-389 1431.88,-395 1431.88,-395 1431.88,-407 1431.88,-407 1431.88,-413 1425.88,-419 1419.88,-419 1419.88,-419 1234.12,-419 1234.12,-419 1228.12,-419 1222.12,-413 1222.12,-407 1222.12,-407 1222.12,-395 1222.12,-395 1222.12,-389 1228.12,-383 1234.12,-383"/>
<text text-anchor="middle" x="1238.38" y="-396.2" font-family="Helvetica,Arial,sans-serif" font-size="14.00">23</text>
<polyline fill="none" stroke="#ff7f00" points="1254.62,-383.5 1254.62,-419"/>
<text text-anchor="middle" x="1343.25" y="-396.2" font-family="Helvetica,Arial,sans-serif" font-size="14.00">Half&#45;Kneeling Shield Cast</text>
</a>
</g>
</g>
<!-- mov_sblungepull -->
<g id="node3" class="node">
<title>mov_sblungepull</title>
<g id="a_node3"><a xlink:href="https://www.youtube.com/watch?v=yHIEZN0Nl_U&amp;list=PLk4oYPJ7TXKiueHS7UMPv-DxNMK6UELds&amp;index=44" xlink:title="{{24|Step&#45;Back Lunge\nPullover at Top}}">
<path fill="#fdbf6f" stroke="#ff7f00" d="M810,-458.5C810,-458.5 944,-458.5 944,-458.5 950,-458.5 956,-464.5 956,-470.5 956,-470.5 956,-487.5 956,-487.5 956,-493.5 950,-499.5 944,-499.5 944,-499.5 810,-499.5 810,-499.5 804,-499.5 798,-493.5 798,-487.5 798,-487.5 798,-470.5 798,-470.5 798,-464.5 804,-458.5 810,-458.5"/>
<text text-anchor="middle" x="814.25" y="-473.95" font-family="Helvetica,Arial,sans-serif" font-size="14.00">24</text>
<polyline fill="none" stroke="#ff7f00" points="830.5,-458.5 830.5,-499.5"/>
<text text-anchor="middle" x="893.25" y="-482.2" font-family="Helvetica,Arial,sans-serif" font-size="14.00">Step&#45;Back Lunge</text>
<text text-anchor="middle" x="893.25" y="-465.7" font-family="Helvetica,Arial,sans-serif" font-size="14.00">Pullover at Top</text>
</a>
</g>
</g>
<!-- mov_sblungepullbot -->
<g id="node7" class="node">
<title>mov_sblungepullbot</title>
<g id="a_node7"><a xlink:href="https://www.youtube.com/watch?v=UpY9zHuTZds" xlink:title="{{28|Step&#45;Back Lunge\nPullover at Bottom}}">
<path fill="#fdbf6f" stroke="#ff7f00" d="M689,-380.5C689,-380.5 829,-380.5 829,-380.5 835,-380.5 841,-386.5 841,-392.5 841,-392.5 841,-409.5 841,-409.5 841,-415.5 835,-421.5 829,-421.5 829,-421.5 689,-421.5 689,-421.5 683,-421.5 677,-415.5 677,-409.5 677,-409.5 677,-392.5 677,-392.5 677,-386.5 683,-380.5 689,-380.5"/>
<text text-anchor="middle" x="693.25" y="-395.95" font-family="Helvetica,Arial,sans-serif" font-size="14.00">28</text>
<polyline fill="none" stroke="#ff7f00" points="709.5,-380.5 709.5,-421.5"/>
<text text-anchor="middle" x="775.25" y="-404.2" font-family="Helvetica,Arial,sans-serif" font-size="14.00">Step&#45;Back Lunge</text>
<text text-anchor="middle" x="775.25" y="-387.7" font-family="Helvetica,Arial,sans-serif" font-size="14.00">Pullover at Bottom</text>
</a>
</g>
</g>
<!-- mov_sblungepull&#45;&gt;mov_sblungepullbot -->
<g id="edge24" class="edge">
<title>mov_sblungepull&#45;&gt;mov_sblungepullbot</title>
<path fill="none" stroke="black" d="M846,-458.03C831.63,-448.78 814.39,-437.67 799.05,-427.8"/>
<polygon fill="black" stroke="black" points="801.37,-425.13 791.07,-422.65 797.58,-431.01 801.37,-425.13"/>
</g>
<!-- mov_fbpull -->
<g id="node4" class="node">
<title>mov_fbpull</title>
<g id="a_node4"><a xlink:href="https://www.youtube.com/watch?v=yHIEZN0Nl_U&amp;list=PLk4oYPJ7TXKiueHS7UMPv-DxNMK6UELds&amp;index=45" xlink:title="{{26|Flat Back Pullover}}">
<path fill="#fdbf6f" stroke="#ff7f00" d="M1480.12,-461C1480.12,-461 1617.88,-461 1617.88,-461 1623.88,-461 1629.88,-467 1629.88,-473 1629.88,-473 1629.88,-485 1629.88,-485 1629.88,-491 1623.88,-497 1617.88,-497 1617.88,-497 1480.12,-497 1480.12,-497 1474.12,-497 1468.12,-491 1468.12,-485 1468.12,-485 1468.12,-473 1468.12,-473 1468.12,-467 1474.12,-461 1480.12,-461"/>
<text text-anchor="middle" x="1484.38" y="-474.2" font-family="Helvetica,Arial,sans-serif" font-size="14.00">26</text>
<polyline fill="none" stroke="#ff7f00" points="1500.62,-461.5 1500.62,-497"/>
<text text-anchor="middle" x="1565.25" y="-474.2" font-family="Helvetica,Arial,sans-serif" font-size="14.00">Flat Back Pullover</text>
</a>
</g>
</g>
<!-- mov_fbpullsit -->
<g id="node6" class="node">
<title>mov_fbpullsit</title>
<g id="a_node6"><a xlink:href="https://www.youtube.com/watch?v=Ii2WZgl5mHA" xlink:title="{{27|Flat Back Pullover Situp}}">
<path fill="#fdbf6f" stroke="#ff7f00" d="M1462.12,-383C1462.12,-383 1635.88,-383 1635.88,-383 1641.88,-383 1647.88,-389 1647.88,-395 1647.88,-395 1647.88,-407 1647.88,-407 1647.88,-413 1641.88,-419 1635.88,-419 1635.88,-419 1462.12,-419 1462.12,-419 1456.12,-419 1450.12,-413 1450.12,-407 1450.12,-407 1450.12,-395 1450.12,-395 1450.12,-389 1456.12,-383 1462.12,-383"/>
<text text-anchor="middle" x="1466.38" y="-396.2" font-family="Helvetica,Arial,sans-serif" font-size="14.00">27</text>
<polyline fill="none" stroke="#ff7f00" points="1482.62,-383.5 1482.62,-419"/>
<text text-anchor="middle" x="1565.25" y="-396.2" font-family="Helvetica,Arial,sans-serif" font-size="14.00">Flat Back Pullover Situp</text>
</a>
</g>
</g>
<!-- mov_fbpull&#45;&gt;mov_fbpullsit -->
<g id="edge23" class="edge">
<title>mov_fbpull&#45;&gt;mov_fbpullsit</title>
<path fill="none" stroke="black" d="M1549,-460.75C1549,-451.88 1549,-440.82 1549,-430.7"/>
<polygon fill="black" stroke="black" points="1552.5,-430.95 1549,-420.95 1545.5,-430.95 1552.5,-430.95"/>
</g>
<!-- mov_kneelbackswing -->
<g id="node5" class="node">
<title>mov_kneelbackswing</title>
<g id="a_node5"><a xlink:href="https://www.youtube.com/watch?v=XH_HFWZQt4c" xlink:title="{{25|Half&#45;Kneeling\nBack Position Swing}}">
<path fill="#fdbf6f" stroke="#ff7f00" d="M1072.62,-458.5C1072.62,-458.5 1225.38,-458.5 1225.38,-458.5 1231.38,-458.5 1237.38,-464.5 1237.38,-470.5 1237.38,-470.5 1237.38,-487.5 1237.38,-487.5 1237.38,-493.5 1231.38,-499.5 1225.38,-499.5 1225.38,-499.5 1072.62,-499.5 1072.62,-499.5 1066.62,-499.5 1060.62,-493.5 1060.62,-487.5 1060.62,-487.5 1060.62,-470.5 1060.62,-470.5 1060.62,-464.5 1066.62,-458.5 1072.62,-458.5"/>
<text text-anchor="middle" x="1076.88" y="-473.95" font-family="Helvetica,Arial,sans-serif" font-size="14.00">25</text>
<polyline fill="none" stroke="#ff7f00" points="1093.12,-458.5 1093.12,-499.5"/>
<text text-anchor="middle" x="1165.25" y="-482.2" font-family="Helvetica,Arial,sans-serif" font-size="14.00">Half&#45;Kneeling</text>
<text text-anchor="middle" x="1165.25" y="-465.7" font-family="Helvetica,Arial,sans-serif" font-size="14.00">Back Position Swing</text>
</a>
</g>
</g>
<!-- mov_fbpullsitpress -->
<g id="node8" class="node">
<title>mov_fbpullsitpress</title>
<g id="a_node8"><a xlink:href="https://www.youtube.com/watch?v=8VL8tvinc28" xlink:title="{{29|Flat Back Pullover\nSitup Press}}">
<path fill="#fdbf6f" stroke="#ff7f00" d="M1480.12,-302.5C1480.12,-302.5 1617.88,-302.5 1617.88,-302.5 1623.88,-302.5 1629.88,-308.5 1629.88,-314.5 1629.88,-314.5 1629.88,-331.5 1629.88,-331.5 1629.88,-337.5 1623.88,-343.5 1617.88,-343.5 1617.88,-343.5 1480.12,-343.5 1480.12,-343.5 1474.12,-343.5 1468.12,-337.5 1468.12,-331.5 1468.12,-331.5 1468.12,-314.5 1468.12,-314.5 1468.12,-308.5 1474.12,-302.5 1480.12,-302.5"/>
<text text-anchor="middle" x="1484.38" y="-317.95" font-family="Helvetica,Arial,sans-serif" font-size="14.00">29</text>
<polyline fill="none" stroke="#ff7f00" points="1500.62,-302.5 1500.62,-343.5"/>
<text text-anchor="middle" x="1565.25" y="-326.2" font-family="Helvetica,Arial,sans-serif" font-size="14.00">Flat Back Pullover</text>
<text text-anchor="middle" x="1565.25" y="-309.7" font-family="Helvetica,Arial,sans-serif" font-size="14.00">Situp Press</text>
</a>
</g>
</g>
<!-- mov_fbpullsit&#45;&gt;mov_fbpullsitpress -->
<g id="edge25" class="edge">
<title>mov_fbpullsit&#45;&gt;mov_fbpullsitpress</title>
<path fill="none" stroke="black" d="M1549,-382.75C1549,-374.62 1549,-364.67 1549,-355.28"/>
<polygon fill="black" stroke="black" points="1552.5,-355.38 1549,-345.38 1545.5,-355.38 1552.5,-355.38"/>
</g>
<!-- mov_sblungepullsbpress -->
<g id="node11" class="node">
<title>mov_sblungepullsbpress</title>
<g id="a_node11"><a xlink:href="https://www.youtube.com/watch?v=1cXPBXfKNhU" xlink:title="{{35|Step&#45;Back Lunge Pullover\nStep&#45;Back Press}}">
<path fill="#fdbf6f" stroke="#ff7f00" d="M455.62,-302.5C455.62,-302.5 644.38,-302.5 644.38,-302.5 650.38,-302.5 656.38,-308.5 656.38,-314.5 656.38,-314.5 656.38,-331.5 656.38,-331.5 656.38,-337.5 650.38,-343.5 644.38,-343.5 644.38,-343.5 455.62,-343.5 455.62,-343.5 449.62,-343.5 443.62,-337.5 443.62,-331.5 443.62,-331.5 443.62,-314.5 443.62,-314.5 443.62,-308.5 449.62,-302.5 455.62,-302.5"/>
<text text-anchor="middle" x="459.88" y="-317.95" font-family="Helvetica,Arial,sans-serif" font-size="14.00">35</text>
<polyline fill="none" stroke="#ff7f00" points="476.12,-302.5 476.12,-343.5"/>
<text text-anchor="middle" x="566.25" y="-326.2" font-family="Helvetica,Arial,sans-serif" font-size="14.00">Step&#45;Back Lunge Pullover</text>
<text text-anchor="middle" x="566.25" y="-309.7" font-family="Helvetica,Arial,sans-serif" font-size="14.00">Step&#45;Back Press</text>
</a>
</g>
</g>
<!-- mov_sblungepullbot&#45;&gt;mov_sblungepullsbpress -->
<g id="edge28" class="edge">
<title>mov_sblungepullbot&#45;&gt;mov_sblungepullsbpress</title>
<path fill="none" stroke="black" d="M704.09,-380.03C676.96,-370.17 644.02,-358.19 615.57,-347.84"/>
<polygon fill="black" stroke="black" points="616.92,-344.61 606.33,-344.48 614.53,-351.19 616.92,-344.61"/>
</g>
<!-- mov_altshinbox -->
<g id="node9" class="node">
<title>mov_altshinbox</title>
<g id="a_node9"><a xlink:href="https://www.youtube.com/watch?v=jogIwgDj0KM" xlink:title="{{31|Balance\nAlternating Shin Box}}">
<path fill="#fdbf6f" stroke="#ff7f00" d="M1678.38,-380.5C1678.38,-380.5 1829.62,-380.5 1829.62,-380.5 1835.62,-380.5 1841.62,-386.5 1841.62,-392.5 1841.62,-392.5 1841.62,-409.5 1841.62,-409.5 1841.62,-415.5 1835.62,-421.5 1829.62,-421.5 1829.62,-421.5 1678.38,-421.5 1678.38,-421.5 1672.38,-421.5 1666.38,-415.5 1666.38,-409.5 1666.38,-409.5 1666.38,-392.5 1666.38,-392.5 1666.38,-386.5 1672.38,-380.5 1678.38,-380.5"/>
<text text-anchor="middle" x="1682.62" y="-395.95" font-family="Helvetica,Arial,sans-serif" font-size="14.00">31</text>
<polyline fill="none" stroke="#ff7f00" points="1698.88,-380.5 1698.88,-421.5"/>
<text text-anchor="middle" x="1770.25" y="-404.2" font-family="Helvetica,Arial,sans-serif" font-size="14.00">Balance</text>
<text text-anchor="middle" x="1770.25" y="-387.7" font-family="Helvetica,Arial,sans-serif" font-size="14.00">Alternating Shin Box</text>
</a>
</g>
</g>
<!-- mov_altshinboxfrpress -->
<g id="node10" class="node">
<title>mov_altshinboxfrpress</title>
<g id="a_node10"><a xlink:href="https://www.youtube.com/watch?v=D2AJzIVufeY&amp;list=PLk4oYPJ7TXKiueHS7UMPv-DxNMK6UELds&amp;index=47" xlink:title="{{33|Alt Shinbox Front Press}}">
<path fill="#fdbf6f" stroke="#ff7f00" d="M1667.12,-305C1667.12,-305 1840.88,-305 1840.88,-305 1846.88,-305 1852.88,-311 1852.88,-317 1852.88,-317 1852.88,-329 1852.88,-329 1852.88,-335 1846.88,-341 1840.88,-341 1840.88,-341 1667.12,-341 1667.12,-341 1661.12,-341 1655.12,-335 1655.12,-329 1655.12,-329 1655.12,-317 1655.12,-317 1655.12,-311 1661.12,-305 1667.12,-305"/>
<text text-anchor="middle" x="1671.38" y="-318.2" font-family="Helvetica,Arial,sans-serif" font-size="14.00">33</text>
<polyline fill="none" stroke="#ff7f00" points="1687.62,-305.5 1687.62,-341"/>
<text text-anchor="middle" x="1770.25" y="-318.2" font-family="Helvetica,Arial,sans-serif" font-size="14.00">Alt Shinbox Front Press</text>
</a>
</g>
</g>
<!-- mov_altshinbox&#45;&gt;mov_altshinboxfrpress -->
<g id="edge26" class="edge">
<title>mov_altshinbox&#45;&gt;mov_altshinboxfrpress</title>
<path fill="none" stroke="black" d="M1754,-380.03C1754,-371.65 1754,-361.75 1754,-352.62"/>
<polygon fill="black" stroke="black" points="1757.5,-352.77 1754,-342.77 1750.5,-352.77 1757.5,-352.77"/>
</g>
<!-- mov_squatpress -->
<g id="node12" class="node">
<title>mov_squatpress</title>
<g id="a_node12"><a xlink:href="https://www.youtube.com/watch?v=6p1niExqXSA" xlink:title="{{36|Squat Press}}">
<path fill="#fdbf6f" stroke="#ff7f00" d="M262.75,-551.25C262.75,-551.25 365.25,-551.25 365.25,-551.25 371.25,-551.25 377.25,-557.25 377.25,-563.25 377.25,-563.25 377.25,-575.25 377.25,-575.25 377.25,-581.25 371.25,-587.25 365.25,-587.25 365.25,-587.25 262.75,-587.25 262.75,-587.25 256.75,-587.25 250.75,-581.25 250.75,-575.25 250.75,-575.25 250.75,-563.25 250.75,-563.25 250.75,-557.25 256.75,-551.25 262.75,-551.25"/>
<text text-anchor="middle" x="267" y="-564.45" font-family="Helvetica,Arial,sans-serif" font-size="14.00">36</text>
<polyline fill="none" stroke="#ff7f00" points="283.25,-551.75 283.25,-587.25"/>
<text text-anchor="middle" x="330.25" y="-564.45" font-family="Helvetica,Arial,sans-serif" font-size="14.00">Squat Press</text>
</a>
</g>
</g>
<!-- mov_millprep -->
<g id="node13" class="node">
<title>mov_millprep</title>
<g id="a_node13"><a xlink:href="https://www.youtube.com/watch?v=G_OXuFs2bRs" xlink:title="{{38|Mill Prep}}">
<path fill="#fdbf6f" stroke="#ff7f00" d="M901.38,-383C901.38,-383 980.62,-383 980.62,-383 986.62,-383 992.62,-389 992.62,-395 992.62,-395 992.62,-407 992.62,-407 992.62,-413 986.62,-419 980.62,-419 980.62,-419 901.38,-419 901.38,-419 895.38,-419 889.38,-413 889.38,-407 889.38,-407 889.38,-395 889.38,-395 889.38,-389 895.38,-383 901.38,-383"/>
<text text-anchor="middle" x="905.62" y="-396.2" font-family="Helvetica,Arial,sans-serif" font-size="14.00">38</text>
<polyline fill="none" stroke="#ff7f00" points="921.88,-383.5 921.88,-419"/>
<text text-anchor="middle" x="957.25" y="-396.2" font-family="Helvetica,Arial,sans-serif" font-size="14.00">Mill Prep</text>
</a>
</g>
</g>
<!-- mov_incirclesquat -->
<g id="node14" class="node">
<title>mov_incirclesquat</title>
<g id="a_node14"><a xlink:href="https://www.youtube.com/watch?v=icFHo5ufhUc" xlink:title="{{32|Inside Circle Squat}}">
<path fill="#fdbf6f" stroke="#ff7f00" d="M624.75,-551.25C624.75,-551.25 769.25,-551.25 769.25,-551.25 775.25,-551.25 781.25,-557.25 781.25,-563.25 781.25,-563.25 781.25,-575.25 781.25,-575.25 781.25,-581.25 775.25,-587.25 769.25,-587.25 769.25,-587.25 624.75,-587.25 624.75,-587.25 618.75,-587.25 612.75,-581.25 612.75,-575.25 612.75,-575.25 612.75,-563.25 612.75,-563.25 612.75,-557.25 618.75,-551.25 624.75,-551.25"/>
<text text-anchor="middle" x="629" y="-564.45" font-family="Helvetica,Arial,sans-serif" font-size="14.00">32</text>
<polyline fill="none" stroke="#ff7f00" points="645.25,-551.75 645.25,-587.25"/>
<text text-anchor="middle" x="713.25" y="-564.45" font-family="Helvetica,Arial,sans-serif" font-size="14.00">Inside Circle Squat</text>
</a>
</g>
</g>
<!-- mov_outcirclesquat -->
<g id="node15" class="node">
<title>mov_outcirclesquat</title>
<g id="a_node15"><a xlink:href="https://www.youtube.com/watch?v=z916C16iK54&amp;list=PLk4oYPJ7TXKiueHS7UMPv-DxNMK6UELds&amp;index=49" xlink:title="{{34|Outside Circle Squat}}">
<path fill="#fdbf6f" stroke="#ff7f00" d="M529.5,-461C529.5,-461 684.5,-461 684.5,-461 690.5,-461 696.5,-467 696.5,-473 696.5,-473 696.5,-485 696.5,-485 696.5,-491 690.5,-497 684.5,-497 684.5,-497 529.5,-497 529.5,-497 523.5,-497 517.5,-491 517.5,-485 517.5,-485 517.5,-473 517.5,-473 517.5,-467 523.5,-461 529.5,-461"/>
<text text-anchor="middle" x="533.75" y="-474.2" font-family="Helvetica,Arial,sans-serif" font-size="14.00">34</text>
<polyline fill="none" stroke="#ff7f00" points="550,-461.5 550,-497"/>
<text text-anchor="middle" x="623.25" y="-474.2" font-family="Helvetica,Arial,sans-serif" font-size="14.00">Outside Circle Squat</text>
</a>
</g>
</g>
<!-- mov_incirclesquat&#45;&gt;mov_outcirclesquat -->
<g id="edge27" class="edge">
<title>mov_incirclesquat&#45;&gt;mov_outcirclesquat</title>
<path fill="none" stroke="black" d="M679.22,-550.81C665.91,-537.76 647.5,-519.71 632.6,-505.11"/>
<polygon fill="black" stroke="black" points="635.42,-502.96 625.82,-498.46 630.51,-507.96 635.42,-502.96"/>
</g>
<!-- mov_39_pullsquat -->
<g id="node16" class="node">
<title>mov_39_pullsquat</title>
<g id="a_node16"><a xlink:href="https://www.youtube.com/watch?v=3yf3VO2sd-4" xlink:title="{{39|Pullover Squat}}">
<path fill="#fdbf6f" stroke="#ff7f00" d="M985,-551.25C985,-551.25 1101,-551.25 1101,-551.25 1107,-551.25 1113,-557.25 1113,-563.25 1113,-563.25 1113,-575.25 1113,-575.25 1113,-581.25 1107,-587.25 1101,-587.25 1101,-587.25 985,-587.25 985,-587.25 979,-587.25 973,-581.25 973,-575.25 973,-575.25 973,-563.25 973,-563.25 973,-557.25 979,-551.25 985,-551.25"/>
<text text-anchor="middle" x="989.25" y="-564.45" font-family="Helvetica,Arial,sans-serif" font-size="14.00">39</text>
<polyline fill="none" stroke="#ff7f00" points="1005.5,-551.75 1005.5,-587.25"/>
<text text-anchor="middle" x="1059.25" y="-564.45" font-family="Helvetica,Arial,sans-serif" font-size="14.00">Pullover Squat</text>
</a>
</g>
</g>
<!-- pre_shinbox -->
<g id="node17" class="node">
<title>pre_shinbox</title>
<path fill="#b2df8a" stroke="#33a02c" d="M1709.88,-461C1709.88,-461 1798.12,-461 1798.12,-461 1804.12,-461 1810.12,-467 1810.12,-473 1810.12,-473 1810.12,-485 1810.12,-485 1810.12,-491 1804.12,-497 1798.12,-497 1798.12,-497 1709.88,-497 1709.88,-497 1703.88,-497 1697.88,-491 1697.88,-485 1697.88,-485 1697.88,-473 1697.88,-473 1697.88,-467 1703.88,-461 1709.88,-461"/>
<text text-anchor="middle" x="1717.88" y="-474.2" font-family="Helvetica,Arial,sans-serif" font-size="14.00">BW</text>
<polyline fill="none" stroke="#33a02c" points="1737.88,-461.5 1737.88,-497"/>
<text text-anchor="middle" x="1774" y="-474.2" font-family="Helvetica,Arial,sans-serif" font-size="14.00">Shin Box</text>
</g>
<!-- pre_shinbox&#45;&gt;mov_altshinbox -->
<g id="edge1" class="edge">
<title>pre_shinbox&#45;&gt;mov_altshinbox</title>
<path fill="none" stroke="black" d="M1754,-460.75C1754,-452.62 1754,-442.67 1754,-433.28"/>
<polygon fill="black" stroke="black" points="1757.5,-433.38 1754,-423.38 1750.5,-433.38 1757.5,-433.38"/>
</g>
<!-- ext_2h_deadclean -->
<g id="node18" class="node">
<title>ext_2h_deadclean</title>
<g id="a_node18"><a xlink:href="https://www.youtube.com/watch?v=69RGME9RTcY&amp;list=PLk4oYPJ7TXKiueHS7UMPv-DxNMK6UELds&amp;index=4" xlink:title="{{2H&#45;04|Dead Clean}}">
<path fill="#b2df8a" stroke="#33a02c" d="M12,-645.5C12,-645.5 134,-645.5 134,-645.5 140,-645.5 146,-651.5 146,-657.5 146,-657.5 146,-669.5 146,-669.5 146,-675.5 140,-681.5 134,-681.5 134,-681.5 12,-681.5 12,-681.5 6,-681.5 0,-675.5 0,-669.5 0,-669.5 0,-657.5 0,-657.5 0,-651.5 6,-645.5 12,-645.5"/>
<text text-anchor="middle" x="27.5" y="-658.7" font-family="Helvetica,Arial,sans-serif" font-size="14.00">2H&#45;04</text>
<polyline fill="none" stroke="#33a02c" points="55,-646 55,-681.5"/>
<text text-anchor="middle" x="100.5" y="-658.7" font-family="Helvetica,Arial,sans-serif" font-size="14.00">Dead Clean</text>
</a>
</g>
</g>
<!-- ext_2h_deadclean&#45;&gt;mov_cap -->
<g id="edge3" class="edge">
<title>ext_2h_deadclean&#45;&gt;mov_cap</title>
<path fill="none" stroke="black" d="M77.89,-645.15C81.23,-633.29 85.77,-617.2 89.78,-602.98"/>
<polygon fill="black" stroke="black" points="93.09,-604.11 92.44,-593.54 86.35,-602.22 93.09,-604.11"/>
</g>
<!-- ext_2h_incircle -->
<g id="node19" class="node">
<title>ext_2h_incircle</title>
<g id="a_node19"><a xlink:href="https://www.youtube.com/watch?v=Mh6iWcLbE3k&amp;list=PLk4oYPJ7TXKiueHS7UMPv-DxNMK6UELds&amp;index=5" xlink:title="{{2H&#45;05|Inside Circle}}">
<path fill="#b2df8a" stroke="#33a02c" d="M450.75,-645.5C450.75,-645.5 577.25,-645.5 577.25,-645.5 583.25,-645.5 589.25,-651.5 589.25,-657.5 589.25,-657.5 589.25,-669.5 589.25,-669.5 589.25,-675.5 583.25,-681.5 577.25,-681.5 577.25,-681.5 450.75,-681.5 450.75,-681.5 444.75,-681.5 438.75,-675.5 438.75,-669.5 438.75,-669.5 438.75,-657.5 438.75,-657.5 438.75,-651.5 444.75,-645.5 450.75,-645.5"/>
<text text-anchor="middle" x="466.25" y="-658.7" font-family="Helvetica,Arial,sans-serif" font-size="14.00">2H&#45;05</text>
<polyline fill="none" stroke="#33a02c" points="493.75,-646 493.75,-681.5"/>
<text text-anchor="middle" x="541.5" y="-658.7" font-family="Helvetica,Arial,sans-serif" font-size="14.00">Inside Circle</text>
</a>
</g>
</g>
<!-- ext_2h_incircle&#45;&gt;mov_millprep -->
<g id="edge20" class="edge">
<title>ext_2h_incircle&#45;&gt;mov_millprep</title>
<path fill="none" stroke="black" d="M470.97,-645.02C453.05,-635.34 434.1,-621.37 424,-602.5 388.95,-537 440.37,-488.74 508,-458 647.14,-394.75 699.13,-446.44 850,-422 859.08,-420.53 868.62,-418.72 877.96,-416.81"/>
<polygon fill="black" stroke="black" points="878.68,-420.23 887.74,-414.74 877.23,-413.38 878.68,-420.23"/>
</g>
<!-- ext_2h_incircle&#45;&gt;mov_incirclesquat -->
<g id="edge7" class="edge">
<title>ext_2h_incircle&#45;&gt;mov_incirclesquat</title>
<path fill="none" stroke="black" d="M548.42,-645.15C577.85,-630.31 620.4,-608.87 652.42,-592.72"/>
<polygon fill="black" stroke="black" points="653.72,-595.99 661.07,-588.36 650.57,-589.74 653.72,-595.99"/>
</g>
<!-- ext_2h_outcircle -->
<g id="node23" class="node">
<title>ext_2h_outcircle</title>
<g id="a_node23"><a xlink:href="https://www.youtube.com/watch?v=QzMzCal-MYM&amp;list=PLk4oYPJ7TXKiueHS7UMPv-DxNMK6UELds&amp;index=6" xlink:title="{{2H&#45;06|Outside Circle}}">
<path fill="#b2df8a" stroke="#33a02c" d="M445.5,-551.25C445.5,-551.25 582.5,-551.25 582.5,-551.25 588.5,-551.25 594.5,-557.25 594.5,-563.25 594.5,-563.25 594.5,-575.25 594.5,-575.25 594.5,-581.25 588.5,-587.25 582.5,-587.25 582.5,-587.25 445.5,-587.25 445.5,-587.25 439.5,-587.25 433.5,-581.25 433.5,-575.25 433.5,-575.25 433.5,-563.25 433.5,-563.25 433.5,-557.25 439.5,-551.25 445.5,-551.25"/>
<text text-anchor="middle" x="461" y="-564.45" font-family="Helvetica,Arial,sans-serif" font-size="14.00">2H&#45;06</text>
<polyline fill="none" stroke="#33a02c" points="488.5,-551.75 488.5,-587.25"/>
<text text-anchor="middle" x="541.5" y="-564.45" font-family="Helvetica,Arial,sans-serif" font-size="14.00">Outside Circle</text>
</a>
</g>
</g>
<!-- ext_2h_incircle&#45;&gt;ext_2h_outcircle -->
<g id="edge6" class="edge">
<title>ext_2h_incircle&#45;&gt;ext_2h_outcircle</title>
<path fill="none" stroke="black" d="M514,-645.15C514,-632.13 514,-614.03 514,-598.88"/>
<polygon fill="black" stroke="black" points="517.5,-599.04 514,-589.04 510.5,-599.04 517.5,-599.04"/>
</g>
<!-- ext_2h_sc -->
<g id="node20" class="node">
<title>ext_2h_sc</title>
<g id="a_node20"><a xlink:href="https://www.youtube.com/watch?v=W-iHvrjn72k&amp;list=PLk4oYPJ7TXKiueHS7UMPv-DxNMK6UELds&amp;index=9" xlink:title="{{2H&#45;09|Shield Cast}}">
<path fill="#b2df8a" stroke="#33a02c" d="M1267.12,-461C1267.12,-461 1386.88,-461 1386.88,-461 1392.88,-461 1398.88,-467 1398.88,-473 1398.88,-473 1398.88,-485 1398.88,-485 1398.88,-491 1392.88,-497 1386.88,-497 1386.88,-497 1267.12,-497 1267.12,-497 1261.12,-497 1255.12,-491 1255.12,-485 1255.12,-485 1255.12,-473 1255.12,-473 1255.12,-467 1261.12,-461 1267.12,-461"/>
<text text-anchor="middle" x="1282.62" y="-474.2" font-family="Helvetica,Arial,sans-serif" font-size="14.00">2H&#45;09</text>
<polyline fill="none" stroke="#33a02c" points="1310.12,-461.5 1310.12,-497"/>
<text text-anchor="middle" x="1354.5" y="-474.2" font-family="Helvetica,Arial,sans-serif" font-size="14.00">Shield Cast</text>
</a>
</g>
</g>
<!-- ext_2h_sc&#45;&gt;mov_kneelsc -->
<g id="edge4" class="edge">
<title>ext_2h_sc:s&#45;&gt;mov_kneelsc</title>
<path fill="none" stroke="black" d="M1327,-460C1327,-450.48 1327,-440.08 1327,-430.75"/>
<polygon fill="black" stroke="black" points="1330.5,-430.77 1327,-420.77 1323.5,-430.77 1330.5,-430.77"/>
</g>
<!-- ext_2h_sc&#45;&gt;mov_millprep -->
<g id="edge19" class="edge">
<title>ext_2h_sc&#45;&gt;mov_millprep</title>
<path fill="none" stroke="black" d="M1257.69,-460.59C1253.74,-459.69 1249.82,-458.82 1246,-458 1162.76,-440.1 1065.96,-422.94 1004.12,-412.44"/>
<polygon fill="black" stroke="black" points="1004.93,-409.03 994.49,-410.81 1003.77,-415.93 1004.93,-409.03"/>
</g>
<!-- ext_2h_backposside2side -->
<g id="node21" class="node">
<title>ext_2h_backposside2side</title>
<g id="a_node21"><a xlink:href="https://www.youtube.com/watch?v=GKwGiB2UwyM&amp;list=PLk4oYPJ7TXKiueHS7UMPv-DxNMK6UELds&amp;index=8" xlink:title="{{2H&#45;08|Back Position\nSide to Side Swing}|SWING BEHIND HEAD}">
<path fill="#b2df8a" stroke="#33a02c" d="M1181.5,-536.5C1181.5,-536.5 1348.5,-536.5 1348.5,-536.5 1354.5,-536.5 1360.5,-542.5 1360.5,-548.5 1360.5,-548.5 1360.5,-590 1360.5,-590 1360.5,-596 1354.5,-602 1348.5,-602 1348.5,-602 1181.5,-602 1181.5,-602 1175.5,-602 1169.5,-596 1169.5,-590 1169.5,-590 1169.5,-548.5 1169.5,-548.5 1169.5,-542.5 1175.5,-536.5 1181.5,-536.5"/>
<text text-anchor="middle" x="1197" y="-576.45" font-family="Helvetica,Arial,sans-serif" font-size="14.00">2H&#45;08</text>
<polyline fill="none" stroke="#33a02c" points="1224.5,-561 1224.5,-602"/>
<text text-anchor="middle" x="1292.5" y="-584.7" font-family="Helvetica,Arial,sans-serif" font-size="14.00">Back Position</text>
<text text-anchor="middle" x="1292.5" y="-568.2" font-family="Helvetica,Arial,sans-serif" font-size="14.00">Side to Side Swing</text>
<polyline fill="none" stroke="#33a02c" points="1169.5,-561 1360.5,-561"/>
<text text-anchor="middle" x="1265" y="-543.7" font-family="Helvetica,Arial,sans-serif" font-size="14.00">SWING BEHIND HEAD</text>
</a>
</g>
</g>
<!-- ext_2h_backposside2side&#45;&gt;mov_kneelbackswing -->
<g id="edge5" class="edge">
<title>ext_2h_backposside2side&#45;&gt;mov_kneelbackswing</title>
<path fill="none" stroke="black" d="M1222.79,-536.14C1210.09,-526.48 1196.3,-515.99 1184.12,-506.71"/>
<polygon fill="black" stroke="black" points="1186.44,-504.08 1176.36,-500.81 1182.2,-509.65 1186.44,-504.08"/>
</g>
<!-- ext_2h_backposside2side&#45;&gt;ext_2h_sc -->
<g id="edge2" class="edge">
<title>ext_2h_backposside2side&#45;&gt;ext_2h_sc</title>
<path fill="none" stroke="black" d="M1287.56,-536.14C1294.45,-526.34 1301.93,-515.68 1308.52,-506.31"/>
<polygon fill="black" stroke="black" points="1311.23,-508.53 1314.12,-498.34 1305.5,-504.51 1311.23,-508.53"/>
</g>
<!-- ext_2h_frontpress -->
<g id="node22" class="node">
<title>ext_2h_frontpress</title>
<g id="a_node22"><a xlink:href="https://www.youtube.com/watch?v=HBRWtm3tTp4&amp;list=PLk4oYPJ7TXKiueHS7UMPv-DxNMK6UELds&amp;index=15" xlink:title="{{2H&#45;13|Front Press}}">
<path fill="#b2df8a" stroke="#33a02c" d="M176.38,-645.5C176.38,-645.5 297.62,-645.5 297.62,-645.5 303.62,-645.5 309.62,-651.5 309.62,-657.5 309.62,-657.5 309.62,-669.5 309.62,-669.5 309.62,-675.5 303.62,-681.5 297.62,-681.5 297.62,-681.5 176.38,-681.5 176.38,-681.5 170.38,-681.5 164.38,-675.5 164.38,-669.5 164.38,-669.5 164.38,-657.5 164.38,-657.5 164.38,-651.5 170.38,-645.5 176.38,-645.5"/>
<text text-anchor="middle" x="191.88" y="-658.7" font-family="Helvetica,Arial,sans-serif" font-size="14.00">2H&#45;13</text>
<polyline fill="none" stroke="#33a02c" points="219.38,-646 219.38,-681.5"/>
<text text-anchor="middle" x="264.5" y="-658.7" font-family="Helvetica,Arial,sans-serif" font-size="14.00">Front Press</text>
</a>
</g>
</g>
<!-- ext_2h_frontpress&#45;&gt;mov_cap -->
<g id="edge15" class="edge">
<title>ext_2h_frontpress&#45;&gt;mov_cap</title>
<path fill="none" stroke="black" d="M211.04,-645.15C191.44,-632.04 164.11,-613.77 141.35,-598.56"/>
<polygon fill="black" stroke="black" points="143.43,-595.74 133.17,-593.09 139.54,-601.56 143.43,-595.74"/>
</g>
<!-- ext_2h_frontpress&#45;&gt;mov_squatpress -->
<g id="edge16" class="edge">
<title>ext_2h_frontpress&#45;&gt;mov_squatpress</title>
<path fill="none" stroke="black" d="M251.48,-645.15C262.99,-631.36 279.27,-611.86 292.32,-596.22"/>
<polygon fill="black" stroke="black" points="294.89,-598.61 298.61,-588.69 289.52,-594.12 294.89,-598.61"/>
</g>
<!-- mov_sbfrontpress -->
<g id="node27" class="node">
<title>mov_sbfrontpress</title>
<path fill="#a6cee3" stroke="#1f78b4" d="M269.88,-380.5C269.88,-380.5 412.12,-380.5 412.12,-380.5 418.12,-380.5 424.12,-386.5 424.12,-392.5 424.12,-392.5 424.12,-409.5 424.12,-409.5 424.12,-415.5 418.12,-421.5 412.12,-421.5 412.12,-421.5 269.88,-421.5 269.88,-421.5 263.88,-421.5 257.88,-415.5 257.88,-409.5 257.88,-409.5 257.88,-392.5 257.88,-392.5 257.88,-386.5 263.88,-380.5 269.88,-380.5"/>
<text text-anchor="middle" x="278.25" y="-395.95" font-family="Helvetica,Arial,sans-serif" font-size="14.00">30?</text>
<polyline fill="none" stroke="#1f78b4" points="298.62,-380.5 298.62,-421.5"/>
<text text-anchor="middle" x="361.38" y="-404.2" font-family="Helvetica,Arial,sans-serif" font-size="14.00">Step&#45;Back Lunge</text>
<text text-anchor="middle" x="361.38" y="-387.7" font-family="Helvetica,Arial,sans-serif" font-size="14.00">Front Press</text>
</g>
<!-- ext_2h_frontpress&#45;&gt;mov_sbfrontpress -->
<g id="edge17" class="edge">
<title>ext_2h_frontpress&#45;&gt;mov_sbfrontpress</title>
<path fill="none" stroke="black" d="M234.55,-645.13C231.71,-620.18 228.96,-573.12 242,-536 256.56,-494.57 288.67,-455.14 312.4,-429.92"/>
<polygon fill="black" stroke="black" points="314.63,-432.65 319.04,-423.02 309.58,-427.8 314.63,-432.65"/>
</g>
<!-- ext_2h_outcircle&#45;&gt;mov_outcirclesquat -->
<g id="edge8" class="edge">
<title>ext_2h_outcircle&#45;&gt;mov_outcirclesquat</title>
<path fill="none" stroke="black" d="M532.37,-550.81C546.13,-537.76 565.15,-519.71 580.54,-505.11"/>
<polygon fill="black" stroke="black" points="582.72,-507.86 587.57,-498.44 577.9,-502.79 582.72,-507.86"/>
</g>
<!-- ext_2h_pullover -->
<g id="node24" class="node">
<title>ext_2h_pullover</title>
<g id="a_node24"><a xlink:href="https://www.youtube.com/watch?v=jpIn1Sumg78&amp;list=PLk4oYPJ7TXKiueHS7UMPv-DxNMK6UELds&amp;index=7" xlink:title="{{2H&#45;07|Pullover}|CLUB BEHIND HEAD}">
<path fill="#b2df8a" stroke="#33a02c" d="M1137.25,-639C1137.25,-639 1268.75,-639 1268.75,-639 1274.75,-639 1280.75,-645 1280.75,-651 1280.75,-651 1280.75,-676 1280.75,-676 1280.75,-682 1274.75,-688 1268.75,-688 1268.75,-688 1137.25,-688 1137.25,-688 1131.25,-688 1125.25,-682 1125.25,-676 1125.25,-676 1125.25,-651 1125.25,-651 1125.25,-645 1131.25,-639 1137.25,-639"/>
<text text-anchor="middle" x="1160.75" y="-670.7" font-family="Helvetica,Arial,sans-serif" font-size="14.00">2H&#45;07</text>
<polyline fill="none" stroke="#33a02c" points="1196.25,-663.5 1196.25,-688"/>
<text text-anchor="middle" x="1238.25" y="-670.7" font-family="Helvetica,Arial,sans-serif" font-size="14.00">Pullover</text>
<polyline fill="none" stroke="#33a02c" points="1125.25,-663.5 1280.75,-663.5"/>
<text text-anchor="middle" x="1203" y="-646.2" font-family="Helvetica,Arial,sans-serif" font-size="14.00">CLUB BEHIND HEAD</text>
</a>
</g>
</g>
<!-- ext_2h_pullover&#45;&gt;mov_sblungepull -->
<g id="edge11" class="edge">
<title>ext_2h_pullover&#45;&gt;mov_sblungepull</title>
<path fill="none" stroke="black" d="M1185.59,-638.57C1177.85,-627.7 1168.76,-614.59 1161,-602.5 1142.49,-573.66 1149.63,-556.26 1122,-536 1077.6,-503.45 1017.45,-489.39 967.87,-483.49"/>
<polygon fill="black" stroke="black" points="968.31,-480.02 957.99,-482.42 967.55,-486.97 968.31,-480.02"/>
</g>
<!-- ext_2h_pullover&#45;&gt;mov_39_pullsquat -->
<g id="edge22" class="edge">
<title>ext_2h_pullover&#45;&gt;mov_39_pullsquat</title>
<path fill="none" stroke="black" d="M1161.38,-638.5C1137.24,-624.58 1106.98,-607.14 1083.1,-593.37"/>
<polygon fill="black" stroke="black" points="1085.02,-590.43 1074.6,-588.47 1081.52,-596.5 1085.02,-590.43"/>
</g>
<!-- ext_2h_pullover&#45;&gt;ext_2h_sc -->
<g id="edge10" class="edge">
<title>ext_2h_pullover&#45;&gt;ext_2h_sc</title>
<path fill="none" stroke="black" d="M1281.06,-654.22C1314.16,-646.4 1349.71,-631.35 1370,-602.5 1387,-578.32 1379.5,-563.99 1370,-536 1366.31,-525.15 1359.58,-514.75 1352.52,-505.92"/>
<polygon fill="black" stroke="black" points="1355.31,-503.8 1346.15,-498.49 1350,-508.36 1355.31,-503.8"/>
</g>
<!-- ext_2h_pullover&#45;&gt;ext_2h_backposside2side -->
<g id="edge9" class="edge">
<title>ext_2h_pullover&#45;&gt;ext_2h_backposside2side</title>
<path fill="none" stroke="black" d="M1218.97,-638.74C1224.51,-630.5 1230.89,-621 1237.1,-611.76"/>
<polygon fill="black" stroke="black" points="1239.96,-613.78 1242.63,-603.53 1234.15,-609.88 1239.96,-613.78"/>
</g>
<!-- ext_2h_squat -->
<g id="node25" class="node">
<title>ext_2h_squat</title>
<g id="a_node25"><a xlink:href="https://www.youtube.com/watch?v=LSXticZ67Pw&amp;list=PLk4oYPJ7TXKiueHS7UMPv-DxNMK6UELds&amp;index=11" xlink:title="{{2H&#45;10|Balance Squat}}">
<path fill="#b2df8a" stroke="#33a02c" d="M717.75,-645.5C717.75,-645.5 856.25,-645.5 856.25,-645.5 862.25,-645.5 868.25,-651.5 868.25,-657.5 868.25,-657.5 868.25,-669.5 868.25,-669.5 868.25,-675.5 862.25,-681.5 856.25,-681.5 856.25,-681.5 717.75,-681.5 717.75,-681.5 711.75,-681.5 705.75,-675.5 705.75,-669.5 705.75,-669.5 705.75,-657.5 705.75,-657.5 705.75,-651.5 711.75,-645.5 717.75,-645.5"/>
<text text-anchor="middle" x="733.25" y="-658.7" font-family="Helvetica,Arial,sans-serif" font-size="14.00">2H&#45;10</text>
<polyline fill="none" stroke="#33a02c" points="760.75,-646 760.75,-681.5"/>
<text text-anchor="middle" x="814.5" y="-658.7" font-family="Helvetica,Arial,sans-serif" font-size="14.00">Balance Squat</text>
</a>
</g>
</g>
<!-- ext_2h_squat&#45;&gt;mov_squatpress -->
<g id="edge14" class="edge">
<title>ext_2h_squat&#45;&gt;mov_squatpress</title>
<path fill="none" stroke="black" d="M705.35,-651.89C631.42,-641.61 519.74,-624.36 424,-602.5 409.54,-599.2 394.19,-595.09 379.67,-590.92"/>
<polygon fill="black" stroke="black" points="380.8,-587.6 370.22,-588.15 378.84,-594.32 380.8,-587.6"/>
</g>
<!-- ext_2h_squat&#45;&gt;mov_incirclesquat -->
<g id="edge13" class="edge">
<title>ext_2h_squat&#45;&gt;mov_incirclesquat</title>
<path fill="none" stroke="black" d="M770.07,-645.15C756.37,-631.1 736.89,-611.13 721.48,-595.35"/>
<polygon fill="black" stroke="black" points="724.4,-593.32 714.91,-588.61 719.39,-598.21 724.4,-593.32"/>
</g>
<!-- ext_2h_squat&#45;&gt;mov_39_pullsquat -->
<g id="edge21" class="edge">
<title>ext_2h_squat&#45;&gt;mov_39_pullsquat</title>
<path fill="none" stroke="black" d="M841.14,-645.09C876.33,-633.55 923.11,-617.76 964,-602.5 972.88,-599.19 982.25,-595.52 991.32,-591.87"/>
<polygon fill="black" stroke="black" points="992.42,-595.2 1000.37,-588.2 989.79,-588.72 992.42,-595.2"/>
</g>
<!-- ext_2h_stepbacklunge -->
<g id="node26" class="node">
<title>ext_2h_stepbacklunge</title>
<g id="a_node26"><a xlink:href="https://www.youtube.com/watch?v=dNrYT5iU7BQ&amp;list=PLk4oYPJ7TXKiueHS7UMPv-DxNMK6UELds&amp;index=26" xlink:title="{{2H&#45;17|Balance Step\nBack Lunge}}">
<path fill="#b2df8a" stroke="#33a02c" d="M811.12,-548.75C811.12,-548.75 942.88,-548.75 942.88,-548.75 948.88,-548.75 954.88,-554.75 954.88,-560.75 954.88,-560.75 954.88,-577.75 954.88,-577.75 954.88,-583.75 948.88,-589.75 942.88,-589.75 942.88,-589.75 811.12,-589.75 811.12,-589.75 805.12,-589.75 799.12,-583.75 799.12,-577.75 799.12,-577.75 799.12,-560.75 799.12,-560.75 799.12,-554.75 805.12,-548.75 811.12,-548.75"/>
<text text-anchor="middle" x="826.62" y="-564.2" font-family="Helvetica,Arial,sans-serif" font-size="14.00">2H&#45;17</text>
<polyline fill="none" stroke="#33a02c" points="854.12,-548.75 854.12,-589.75"/>
<text text-anchor="middle" x="904.5" y="-572.45" font-family="Helvetica,Arial,sans-serif" font-size="14.00">Balance Step</text>
<text text-anchor="middle" x="904.5" y="-555.95" font-family="Helvetica,Arial,sans-serif" font-size="14.00">Back Lunge</text>
</a>
</g>
</g>
<!-- ext_2h_squat&#45;&gt;ext_2h_stepbacklunge -->
<g id="edge12" class="edge">
<title>ext_2h_squat&#45;&gt;ext_2h_stepbacklunge</title>
<path fill="none" stroke="black" d="M803.93,-645.15C816.82,-631.94 834.82,-613.48 849.73,-598.2"/>
<polygon fill="black" stroke="black" points="852.11,-600.77 856.59,-591.17 847.1,-595.88 852.11,-600.77"/>
</g>
<!-- ext_2h_stepbacklunge&#45;&gt;mov_sblungepull -->
<g id="edge18" class="edge">
<title>ext_2h_stepbacklunge&#45;&gt;mov_sblungepull</title>
<path fill="none" stroke="black" d="M877,-548.66C877,-537.66 877,-523.67 877,-511.19"/>
<polygon fill="black" stroke="black" points="880.5,-511.35 877,-501.35 873.5,-511.35 880.5,-511.35"/>
</g>
<!-- mov_sbfrontpress&#45;&gt;mov_sblungepullsbpress -->
<g id="edge29" class="edge">
<title>mov_sbfrontpress&#45;&gt;mov_sblungepullsbpress</title>
<path fill="none" stroke="black" d="M395.91,-380.03C423.04,-370.17 455.98,-358.19 484.43,-347.84"/>
<polygon fill="black" stroke="black" points="485.47,-351.19 493.67,-344.48 483.08,-344.61 485.47,-351.19"/>
</g>
<!-- Legend -->
<g id="node28" class="node">
<title>Legend</title>
<path fill="#a6cee3" stroke="none" d="M608.5,-266C608.5,-266 491.5,-266 491.5,-266 485.5,-266 479.5,-260 479.5,-254 479.5,-254 479.5,-174 479.5,-174 479.5,-168 485.5,-162 491.5,-162 491.5,-162 608.5,-162 608.5,-162 614.5,-162 620.5,-168 620.5,-174 620.5,-174 620.5,-254 620.5,-254 620.5,-260 614.5,-266 608.5,-266"/>
<polygon fill="none" stroke="#1f78b4" points="479.5,-240 479.5,-266 620.5,-266 620.5,-240 479.5,-240"/>
<text text-anchor="start" x="523.75" y="-248.7" font-family="Helvetica,Arial,sans-serif" font-weight="bold" font-size="14.00">Legend</text>
<polygon fill="none" stroke="#1f78b4" points="479.5,-214 479.5,-240 592.5,-240 592.5,-214 479.5,-214"/>
<text text-anchor="start" x="490.62" y="-221.7" font-family="Helvetica,Arial,sans-serif" font-size="14.00">Previous Drills</text>
<polygon fill="#b2df8a" stroke="none" points="592.5,-214 592.5,-240 620.5,-240 620.5,-214 592.5,-214"/>
<polygon fill="none" stroke="#1f78b4" points="592.5,-214 592.5,-240 620.5,-240 620.5,-214 592.5,-214"/>
<text text-anchor="start" x="597.12" y="-221.7" font-family="Helvetica,Arial,sans-serif" font-size="14.00">     </text>
<polygon fill="none" stroke="#1f78b4" points="479.5,-188 479.5,-214 592.5,-214 592.5,-188 479.5,-188"/>
<text text-anchor="start" x="494.38" y="-195.7" font-family="Helvetica,Arial,sans-serif" font-size="14.00">Primary Drills</text>
<polygon fill="#ffff99" stroke="none" points="592.5,-188 592.5,-214 620.5,-214 620.5,-188 592.5,-188"/>
<polygon fill="none" stroke="#1f78b4" points="592.5,-188 592.5,-214 620.5,-214 620.5,-188 592.5,-188"/>
<polygon fill="none" stroke="#1f78b4" points="479.5,-162 479.5,-188 592.5,-188 592.5,-162 479.5,-162"/>
<text text-anchor="start" x="484.25" y="-169.7" font-family="Helvetica,Arial,sans-serif" font-size="14.00">Secondary Drills</text>
<polygon fill="#fdbf6f" stroke="none" points="592.5,-162 592.5,-188 620.5,-188 620.5,-162 592.5,-162"/>
<polygon fill="none" stroke="#1f78b4" points="592.5,-162 592.5,-188 620.5,-188 620.5,-162 592.5,-162"/>
</g>
</g>
</svg>
