<?xml version="1.0" encoding="UTF-8" standalone="no"?>
<!DOCTYPE svg PUBLIC "-//W3C//DTD SVG 1.1//EN"
 "http://www.w3.org/Graphics/SVG/1.1/DTD/svg11.dtd">
<!-- Generated by graphviz version 9.0.0 (20230911.1827)
 -->
<!-- Title: kb_progression Pages: 1 -->
<svg width="1022pt" height="683pt"
 viewBox="0.00 0.00 1021.81 683.25" xmlns="http://www.w3.org/2000/svg" xmlns:xlink="http://www.w3.org/1999/xlink">
<g id="graph0" class="graph" transform="scale(1 1) rotate(0) translate(4 679.25)">
<title>kb_progression</title>
<polygon fill="white" stroke="none" points="-4,4 -4,-679.25 1017.81,-679.25 1017.81,4 -4,4"/>
<text text-anchor="middle" x="506.9" y="-6.45" font-family="Times New Roman,serif" font-size="14.00">Single Arm Heavy Club Skill Progression</text>
<!-- mov_backs2s -->
<g id="node1" class="node">
<title>mov_backs2s</title>
<g id="a_node1"><a xlink:href="https://www.youtube.com/watch?v=sxePeWDR1U0" xlink:title="{{05|Back Position Swing}|THUMB TO SHIRT}">
<path fill="#cab2d6" stroke="#6a3d9a" d="M843.25,-466.38C843.25,-466.38 981,-466.38 981,-466.38 987,-466.38 993,-472.38 993,-478.38 993,-478.38 993,-501.88 993,-501.88 993,-507.88 987,-513.88 981,-513.88 981,-513.88 843.25,-513.88 843.25,-513.88 837.25,-513.88 831.25,-507.88 831.25,-501.88 831.25,-501.88 831.25,-478.38 831.25,-478.38 831.25,-472.38 837.25,-466.38 843.25,-466.38"/>
<text text-anchor="middle" x="846" y="-496.57" font-family="Times New Roman,serif" font-size="14.00">05</text>
<polyline fill="none" stroke="#6a3d9a" points="860.75,-490.12 860.75,-513.88"/>
<text text-anchor="middle" x="926.88" y="-496.57" font-family="Times New Roman,serif" font-size="14.00">Back Position Swing</text>
<polyline fill="none" stroke="#6a3d9a" points="831.25,-490.12 993,-490.12"/>
<text text-anchor="middle" x="912.12" y="-472.82" font-family="Times New Roman,serif" font-size="14.00">THUMB TO SHIRT</text>
</a>
</g>
</g>
<!-- mov_sc -->
<g id="node18" class="node">
<title>mov_sc</title>
<g id="a_node18"><a xlink:href="https://www.youtube.com/watch?v=huwc0g3yLWk&amp;list=PLk4oYPJ7TXKgCH_TpdUCNs2-m5ZCqx-Pw&amp;index=4" xlink:title="{{07|Shield Cast}}">
<path fill="#ffff99" stroke="#b15928" d="M714.5,-364C714.5,-364 799.75,-364 799.75,-364 805.75,-364 811.75,-370 811.75,-376 811.75,-376 811.75,-388 811.75,-388 811.75,-394 805.75,-400 799.75,-400 799.75,-400 714.5,-400 714.5,-400 708.5,-400 702.5,-394 702.5,-388 702.5,-388 702.5,-376 702.5,-376 702.5,-370 708.5,-364 714.5,-364"/>
<text text-anchor="middle" x="717.25" y="-376.7" font-family="Times New Roman,serif" font-size="14.00">07</text>
<polyline fill="none" stroke="#b15928" points="732,-364.25 732,-400"/>
<text text-anchor="middle" x="771.88" y="-376.7" font-family="Times New Roman,serif" font-size="14.00">Shield Cast</text>
</a>
</g>
</g>
<!-- mov_backs2s&#45;&gt;mov_sc -->
<g id="edge29" class="edge">
<title>mov_backs2s&#45;&gt;mov_sc</title>
<path fill="none" stroke="black" d="M878.49,-466.1C852.91,-448.58 817.83,-424.56 791.96,-406.85"/>
<polygon fill="black" stroke="black" points="794.01,-404.01 783.78,-401.25 790.05,-409.79 794.01,-404.01"/>
</g>
<!-- mov_outpull -->
<g id="node25" class="node">
<title>mov_outpull</title>
<g id="a_node25"><a xlink:href="https://www.youtube.com/watch?v=sJ5XCgdCMx8&amp;list=PLk4oYPJ7TXKgCH_TpdUCNs2-m5ZCqx-Pw&amp;index=14" xlink:title="{{14|Outside Pullover}|+ EXT ROTATION}">
<path fill="#ffff99" stroke="#b15928" d="M848.88,-358.25C848.88,-358.25 963.38,-358.25 963.38,-358.25 969.38,-358.25 975.38,-364.25 975.38,-370.25 975.38,-370.25 975.38,-393.75 975.38,-393.75 975.38,-399.75 969.38,-405.75 963.38,-405.75 963.38,-405.75 848.88,-405.75 848.88,-405.75 842.88,-405.75 836.88,-399.75 836.88,-393.75 836.88,-393.75 836.88,-370.25 836.88,-370.25 836.88,-364.25 842.88,-358.25 848.88,-358.25"/>
<text text-anchor="middle" x="851.62" y="-388.45" font-family="Times New Roman,serif" font-size="14.00">14</text>
<polyline fill="none" stroke="#b15928" points="866.38,-382 866.38,-405.75"/>
<text text-anchor="middle" x="920.88" y="-388.45" font-family="Times New Roman,serif" font-size="14.00">Outside Pullover</text>
<polyline fill="none" stroke="#b15928" points="836.88,-382 975.38,-382"/>
<text text-anchor="middle" x="906.12" y="-364.7" font-family="Times New Roman,serif" font-size="14.00">+ EXT ROTATION</text>
</a>
</g>
</g>
<!-- mov_backs2s&#45;&gt;mov_outpull -->
<g id="edge32" class="edge">
<title>mov_backs2s&#45;&gt;mov_outpull</title>
<path fill="none" stroke="black" d="M910.82,-466.1C910.01,-451.77 908.96,-433.1 908.05,-417.08"/>
<polygon fill="black" stroke="black" points="911.57,-417.28 907.51,-407.49 904.58,-417.68 911.57,-417.28"/>
</g>
<!-- mov_perry -->
<g id="node2" class="node">
<title>mov_perry</title>
<g id="a_node2"><a xlink:href="https://www.youtube.com/watch?v=FpUecSrX_AI&amp;list=PLk4oYPJ7TXKgCH_TpdUCNs2-m5ZCqx-Pw&amp;index=3" xlink:title="{{06|Perry Cast\naka Bailout}|SAFE FAILURE}">
<path fill="#cab2d6" stroke="#6a3d9a" d="M712.75,-458.5C712.75,-458.5 801.5,-458.5 801.5,-458.5 807.5,-458.5 813.5,-464.5 813.5,-470.5 813.5,-470.5 813.5,-509.75 813.5,-509.75 813.5,-515.75 807.5,-521.75 801.5,-521.75 801.5,-521.75 712.75,-521.75 712.75,-521.75 706.75,-521.75 700.75,-515.75 700.75,-509.75 700.75,-509.75 700.75,-470.5 700.75,-470.5 700.75,-464.5 706.75,-458.5 712.75,-458.5"/>
<text text-anchor="middle" x="716.5" y="-496.57" font-family="Times New Roman,serif" font-size="14.00">06</text>
<polyline fill="none" stroke="#6a3d9a" points="732.25,-482.25 732.25,-521.75"/>
<text text-anchor="middle" x="772.5" y="-504.45" font-family="Times New Roman,serif" font-size="14.00">Perry Cast</text>
<text text-anchor="middle" x="772.5" y="-488.7" font-family="Times New Roman,serif" font-size="14.00">aka Bailout</text>
<polyline fill="none" stroke="#6a3d9a" points="700.75,-482.25 813.5,-482.25"/>
<text text-anchor="middle" x="757.12" y="-464.95" font-family="Times New Roman,serif" font-size="14.00">SAFE FAILURE</text>
</a>
</g>
</g>
<!-- mov_perry&#45;&gt;mov_sc -->
<g id="edge31" class="edge">
<title>mov_perry&#45;&gt;mov_sc</title>
<path fill="none" stroke="black" d="M757.12,-458.14C757.12,-443.42 757.12,-425.94 757.12,-411.55"/>
<polygon fill="black" stroke="black" points="760.63,-411.82 757.13,-401.82 753.63,-411.82 760.63,-411.82"/>
</g>
<!-- mov_perry&#45;&gt;mov_outpull -->
<g id="edge33" class="edge">
<title>mov_perry&#45;&gt;mov_outpull</title>
<path fill="none" stroke="black" d="M800.62,-458.14C820.79,-443.78 844.65,-426.78 864.57,-412.59"/>
<polygon fill="black" stroke="black" points="866.37,-415.62 872.48,-406.96 862.31,-409.91 866.37,-415.62"/>
</g>
<!-- mov_millprep -->
<g id="node3" class="node">
<title>mov_millprep</title>
<g id="a_node3"><a xlink:href="https://www.youtube.com/watch?v=I26O1ct_hik&amp;list=PLk4oYPJ7TXKgCH_TpdUCNs2-m5ZCqx-Pw&amp;index=17" xlink:title="{{17|Mill Prep}}">
<path fill="#cab2d6" stroke="#6a3d9a" d="M712.88,-259.88C712.88,-259.88 785.38,-259.88 785.38,-259.88 791.38,-259.88 797.38,-265.88 797.38,-271.88 797.38,-271.88 797.38,-283.88 797.38,-283.88 797.38,-289.88 791.38,-295.88 785.38,-295.88 785.38,-295.88 712.88,-295.88 712.88,-295.88 706.88,-295.88 700.88,-289.88 700.88,-283.88 700.88,-283.88 700.88,-271.88 700.88,-271.88 700.88,-265.88 706.88,-259.88 712.88,-259.88"/>
<text text-anchor="middle" x="715.62" y="-272.57" font-family="Times New Roman,serif" font-size="14.00">17</text>
<polyline fill="none" stroke="#6a3d9a" points="730.38,-260.12 730.38,-295.88"/>
<text text-anchor="middle" x="763.88" y="-272.57" font-family="Times New Roman,serif" font-size="14.00">Mill Prep</text>
</a>
</g>
</g>
<!-- mov_alt180pull -->
<g id="node28" class="node">
<title>mov_alt180pull</title>
<g id="a_node28"><a xlink:href="https://www.youtube.com/watch?v=I26O1ct_hik&amp;list=PLk4oYPJ7TXKgCH_TpdUCNs2-m5ZCqx-Pw&amp;index=18" xlink:title="{{18|Alternating 180 Degree\nPullover}}">
<path fill="#ffff99" stroke="#b15928" d="M723,-173.75C723,-173.75 871.25,-173.75 871.25,-173.75 877.25,-173.75 883.25,-179.75 883.25,-185.75 883.25,-185.75 883.25,-201.25 883.25,-201.25 883.25,-207.25 877.25,-213.25 871.25,-213.25 871.25,-213.25 723,-213.25 723,-213.25 717,-213.25 711,-207.25 711,-201.25 711,-201.25 711,-185.75 711,-185.75 711,-179.75 717,-173.75 723,-173.75"/>
<text text-anchor="middle" x="725.75" y="-188.07" font-family="Times New Roman,serif" font-size="14.00">18</text>
<polyline fill="none" stroke="#b15928" points="740.5,-173.75 740.5,-213.25"/>
<text text-anchor="middle" x="811.88" y="-195.95" font-family="Times New Roman,serif" font-size="14.00">Alternating 180 Degree</text>
<text text-anchor="middle" x="811.88" y="-180.2" font-family="Times New Roman,serif" font-size="14.00">Pullover</text>
</a>
</g>
</g>
<!-- mov_millprep&#45;&gt;mov_alt180pull -->
<g id="edge38" class="edge">
<title>mov_millprep&#45;&gt;mov_alt180pull</title>
<path fill="none" stroke="black" d="M759.3,-259.41C765.41,-248.93 773.33,-235.34 780.34,-223.31"/>
<polygon fill="black" stroke="black" points="783.18,-225.38 785.19,-214.98 777.13,-221.86 783.18,-225.38"/>
</g>
<!-- mov_outcirclesc -->
<g id="node31" class="node">
<title>mov_outcirclesc</title>
<g id="a_node31"><a xlink:href="https://www.youtube.com/watch?v=NdJlzFTbQwo&amp;list=PLk4oYPJ7TXKgCH_TpdUCNs2-m5ZCqx-Pw&amp;index=21" xlink:title="{{21|Outside Circle\nShield Cast}}">
<path fill="#ffff99" stroke="#b15928" d="M579.25,-173.75C579.25,-173.75 681,-173.75 681,-173.75 687,-173.75 693,-179.75 693,-185.75 693,-185.75 693,-201.25 693,-201.25 693,-207.25 687,-213.25 681,-213.25 681,-213.25 579.25,-213.25 579.25,-213.25 573.25,-213.25 567.25,-207.25 567.25,-201.25 567.25,-201.25 567.25,-185.75 567.25,-185.75 567.25,-179.75 573.25,-173.75 579.25,-173.75"/>
<text text-anchor="middle" x="582" y="-188.07" font-family="Times New Roman,serif" font-size="14.00">21</text>
<polyline fill="none" stroke="#b15928" points="596.75,-173.75 596.75,-213.25"/>
<text text-anchor="middle" x="644.88" y="-195.95" font-family="Times New Roman,serif" font-size="14.00">Outside Circle</text>
<text text-anchor="middle" x="644.88" y="-180.2" font-family="Times New Roman,serif" font-size="14.00">Shield Cast</text>
</a>
</g>
</g>
<!-- mov_millprep&#45;&gt;mov_outcirclesc -->
<g id="edge46" class="edge">
<title>mov_millprep&#45;&gt;mov_outcirclesc</title>
<path fill="none" stroke="black" d="M723.89,-259.41C707.39,-247.98 685.56,-232.87 667.11,-220.1"/>
<polygon fill="black" stroke="black" points="669.28,-217.35 659.06,-214.53 665.29,-223.1 669.28,-217.35"/>
</g>
<!-- ext_2h_s2s -->
<g id="node4" class="node">
<title>ext_2h_s2s</title>
<path fill="#b2df8a" stroke="#33a02c" d="M199.62,-558.75C199.62,-558.75 348.62,-558.75 348.62,-558.75 354.62,-558.75 360.62,-564.75 360.62,-570.75 360.62,-570.75 360.62,-586.25 360.62,-586.25 360.62,-592.25 354.62,-598.25 348.62,-598.25 348.62,-598.25 199.62,-598.25 199.62,-598.25 193.62,-598.25 187.62,-592.25 187.62,-586.25 187.62,-586.25 187.62,-570.75 187.62,-570.75 187.62,-564.75 193.62,-558.75 199.62,-558.75"/>
<text text-anchor="middle" x="212.88" y="-573.08" font-family="Times New Roman,serif" font-size="14.00">2H&#45;01</text>
<polyline fill="none" stroke="#33a02c" points="238.12,-558.75 238.12,-598.25"/>
<text text-anchor="middle" x="299.38" y="-580.95" font-family="Times New Roman,serif" font-size="14.00">Two&#45;Hand</text>
<text text-anchor="middle" x="299.38" y="-565.2" font-family="Times New Roman,serif" font-size="14.00">Side to Side Swing</text>
</g>
<!-- ext_2h_sideswingl2h -->
<g id="node5" class="node">
<title>ext_2h_sideswingl2h</title>
<path fill="#b2df8a" stroke="#33a02c" d="M135.62,-462.5C135.62,-462.5 248.62,-462.5 248.62,-462.5 254.62,-462.5 260.62,-468.5 260.62,-474.5 260.62,-474.5 260.62,-505.75 260.62,-505.75 260.62,-511.75 254.62,-517.75 248.62,-517.75 248.62,-517.75 135.62,-517.75 135.62,-517.75 129.62,-517.75 123.62,-511.75 123.62,-505.75 123.62,-505.75 123.62,-474.5 123.62,-474.5 123.62,-468.5 129.62,-462.5 135.62,-462.5"/>
<text text-anchor="middle" x="148.88" y="-484.7" font-family="Times New Roman,serif" font-size="14.00">2H&#45;02</text>
<polyline fill="none" stroke="#33a02c" points="174.12,-462.5 174.12,-517.75"/>
<text text-anchor="middle" x="217.38" y="-500.45" font-family="Times New Roman,serif" font-size="14.00">Two&#45;Hand</text>
<text text-anchor="middle" x="217.38" y="-484.7" font-family="Times New Roman,serif" font-size="14.00">Side Swing</text>
<text text-anchor="middle" x="217.38" y="-468.95" font-family="Times New Roman,serif" font-size="14.00">Low to High</text>
</g>
<!-- ext_2h_s2s&#45;&gt;ext_2h_sideswingl2h -->
<g id="edge1" class="edge">
<title>ext_2h_s2s&#45;&gt;ext_2h_sideswingl2h</title>
<path fill="none" stroke="black" d="M255.93,-558.33C246.98,-548.9 235.9,-537.24 225.51,-526.29"/>
<polygon fill="black" stroke="black" points="228.2,-524.04 218.78,-519.2 223.13,-528.86 228.2,-524.04"/>
</g>
<!-- mov_s2s -->
<g id="node14" class="node">
<title>mov_s2s</title>
<g id="a_node14"><a xlink:href="https://www.youtube.com/watch?v=cosgyt2BQG4&amp;list=PLk4oYPJ7TXKgCH_TpdUCNs2-m5ZCqx-Pw" xlink:title="{{01|Side to Side Swing}|ELBOWS LOCKED}">
<path fill="#ffff99" stroke="#b15928" d="M291.12,-466.38C291.12,-466.38 419.12,-466.38 419.12,-466.38 425.12,-466.38 431.12,-472.38 431.12,-478.38 431.12,-478.38 431.12,-501.88 431.12,-501.88 431.12,-507.88 425.12,-513.88 419.12,-513.88 419.12,-513.88 291.12,-513.88 291.12,-513.88 285.12,-513.88 279.12,-507.88 279.12,-501.88 279.12,-501.88 279.12,-478.38 279.12,-478.38 279.12,-472.38 285.12,-466.38 291.12,-466.38"/>
<text text-anchor="middle" x="293.88" y="-496.57" font-family="Times New Roman,serif" font-size="14.00">01</text>
<polyline fill="none" stroke="#b15928" points="308.62,-490.12 308.62,-513.88"/>
<text text-anchor="middle" x="369.88" y="-496.57" font-family="Times New Roman,serif" font-size="14.00">Side to Side Swing</text>
<polyline fill="none" stroke="#b15928" points="279.12,-490.12 431.12,-490.12"/>
<text text-anchor="middle" x="355.12" y="-472.82" font-family="Times New Roman,serif" font-size="14.00">ELBOWS LOCKED</text>
</a>
</g>
</g>
<!-- ext_2h_s2s&#45;&gt;mov_s2s -->
<g id="edge7" class="edge">
<title>ext_2h_s2s&#45;&gt;mov_s2s</title>
<path fill="none" stroke="black" d="M292.1,-558.33C302.02,-547.75 314.59,-534.35 325.89,-522.3"/>
<polygon fill="black" stroke="black" points="328.13,-525.03 332.42,-515.34 323.03,-520.24 328.13,-525.03"/>
</g>
<!-- ext_2h_s2srockit -->
<g id="node8" class="node">
<title>ext_2h_s2srockit</title>
<path fill="#b2df8a" stroke="#33a02c" d="M129.75,-354.38C129.75,-354.38 240.5,-354.38 240.5,-354.38 246.5,-354.38 252.5,-360.38 252.5,-366.38 252.5,-366.38 252.5,-397.62 252.5,-397.62 252.5,-403.62 246.5,-409.62 240.5,-409.62 240.5,-409.62 129.75,-409.62 129.75,-409.62 123.75,-409.62 117.75,-403.62 117.75,-397.62 117.75,-397.62 117.75,-366.38 117.75,-366.38 117.75,-360.38 123.75,-354.38 129.75,-354.38"/>
<text text-anchor="middle" x="143" y="-376.57" font-family="Times New Roman,serif" font-size="14.00">2H&#45;15</text>
<polyline fill="none" stroke="#33a02c" points="168.25,-354.38 168.25,-409.62"/>
<text text-anchor="middle" x="210.38" y="-392.32" font-family="Times New Roman,serif" font-size="14.00">Two&#45;Hand</text>
<text text-anchor="middle" x="210.38" y="-376.57" font-family="Times New Roman,serif" font-size="14.00">Side to Side</text>
<text text-anchor="middle" x="210.38" y="-360.82" font-family="Times New Roman,serif" font-size="14.00">Rockit</text>
</g>
<!-- ext_2h_sideswingl2h&#45;&gt;ext_2h_s2srockit -->
<g id="edge2" class="edge">
<title>ext_2h_sideswingl2h&#45;&gt;ext_2h_s2srockit</title>
<path fill="none" stroke="black" d="M190.34,-462.07C189.53,-449.72 188.55,-434.88 187.66,-421.4"/>
<polygon fill="black" stroke="black" points="191.16,-421.26 187.01,-411.52 184.17,-421.72 191.16,-421.26"/>
</g>
<!-- mov_sideswingl2h -->
<g id="node19" class="node">
<title>mov_sideswingl2h</title>
<g id="a_node19"><a xlink:href="https://www.youtube.com/watch?v=huwc0g3yLWk&amp;list=PLk4oYPJ7TXKgCH_TpdUCNs2-m5ZCqx-Pw&amp;index=5" xlink:title="{{08|Side Swing\nLow to High\nwith Stop}|HIP SNAP}">
<path fill="#ffff99" stroke="#b15928" d="M282.12,-342.5C282.12,-342.5 374.12,-342.5 374.12,-342.5 380.12,-342.5 386.12,-348.5 386.12,-354.5 386.12,-354.5 386.12,-409.5 386.12,-409.5 386.12,-415.5 380.12,-421.5 374.12,-421.5 374.12,-421.5 282.12,-421.5 282.12,-421.5 276.12,-421.5 270.12,-415.5 270.12,-409.5 270.12,-409.5 270.12,-354.5 270.12,-354.5 270.12,-348.5 276.12,-342.5 282.12,-342.5"/>
<text text-anchor="middle" x="284.88" y="-388.45" font-family="Times New Roman,serif" font-size="14.00">08</text>
<polyline fill="none" stroke="#b15928" points="299.62,-366.25 299.62,-421.5"/>
<text text-anchor="middle" x="342.88" y="-404.2" font-family="Times New Roman,serif" font-size="14.00">Side Swing</text>
<text text-anchor="middle" x="342.88" y="-388.45" font-family="Times New Roman,serif" font-size="14.00">Low to High</text>
<text text-anchor="middle" x="342.88" y="-372.7" font-family="Times New Roman,serif" font-size="14.00">with Stop</text>
<polyline fill="none" stroke="#b15928" points="270.12,-366.25 386.12,-366.25"/>
<text text-anchor="middle" x="328.12" y="-348.95" font-family="Times New Roman,serif" font-size="14.00">HIP SNAP</text>
</a>
</g>
</g>
<!-- ext_2h_sideswingl2h&#45;&gt;mov_sideswingl2h -->
<g id="edge12" class="edge">
<title>ext_2h_sideswingl2h&#45;&gt;mov_sideswingl2h</title>
<path fill="none" stroke="black" d="M226.8,-462.07C239.76,-451.95 254.88,-440.15 269.42,-428.81"/>
<polygon fill="black" stroke="black" points="271.45,-431.66 277.18,-422.75 267.15,-426.14 271.45,-431.66"/>
</g>
<!-- ext_2h_sc -->
<g id="node6" class="node">
<title>ext_2h_sc</title>
<path fill="#b2df8a" stroke="#33a02c" d="M582,-558.75C582,-558.75 688.25,-558.75 688.25,-558.75 694.25,-558.75 700.25,-564.75 700.25,-570.75 700.25,-570.75 700.25,-586.25 700.25,-586.25 700.25,-592.25 694.25,-598.25 688.25,-598.25 688.25,-598.25 582,-598.25 582,-598.25 576,-598.25 570,-592.25 570,-586.25 570,-586.25 570,-570.75 570,-570.75 570,-564.75 576,-558.75 582,-558.75"/>
<text text-anchor="middle" x="595.25" y="-573.08" font-family="Times New Roman,serif" font-size="14.00">2H&#45;09</text>
<polyline fill="none" stroke="#33a02c" points="620.5,-558.75 620.5,-598.25"/>
<text text-anchor="middle" x="660.38" y="-580.95" font-family="Times New Roman,serif" font-size="14.00">Two&#45;Hand</text>
<text text-anchor="middle" x="660.38" y="-565.2" font-family="Times New Roman,serif" font-size="14.00">Shield Cast</text>
</g>
<!-- ext_2h_sc&#45;&gt;mov_sc -->
<g id="edge10" class="edge">
<title>ext_2h_sc&#45;&gt;mov_sc</title>
<path fill="none" stroke="black" d="M639.3,-558.48C645.32,-533.83 658.08,-490.2 679.12,-458 691.7,-438.76 710.07,-420.78 725.82,-407.25"/>
<polygon fill="black" stroke="black" points="727.66,-410.28 733.09,-401.18 723.17,-404.91 727.66,-410.28"/>
</g>
<!-- ext_2h_pullover -->
<g id="node7" class="node">
<title>ext_2h_pullover</title>
<g id="a_node7"><a xlink:href="https://www.youtube.com/watch?v=jpIn1Sumg78&amp;list=PLk4oYPJ7TXKiueHS7UMPv-DxNMK6UELds&amp;index=7" xlink:title="{{2H&#45;07|Two&#45;Hand\nPullover}}">
<path fill="#b2df8a" stroke="#33a02c" d="M647.5,-635.25C647.5,-635.25 750.75,-635.25 750.75,-635.25 756.75,-635.25 762.75,-641.25 762.75,-647.25 762.75,-647.25 762.75,-662.75 762.75,-662.75 762.75,-668.75 756.75,-674.75 750.75,-674.75 750.75,-674.75 647.5,-674.75 647.5,-674.75 641.5,-674.75 635.5,-668.75 635.5,-662.75 635.5,-662.75 635.5,-647.25 635.5,-647.25 635.5,-641.25 641.5,-635.25 647.5,-635.25"/>
<text text-anchor="middle" x="660.75" y="-649.58" font-family="Times New Roman,serif" font-size="14.00">2H&#45;07</text>
<polyline fill="none" stroke="#33a02c" points="686,-635.25 686,-674.75"/>
<text text-anchor="middle" x="724.38" y="-657.45" font-family="Times New Roman,serif" font-size="14.00">Two&#45;Hand</text>
<text text-anchor="middle" x="724.38" y="-641.7" font-family="Times New Roman,serif" font-size="14.00">Pullover</text>
</a>
</g>
</g>
<!-- ext_2h_pullover&#45;&gt;ext_2h_sc -->
<g id="edge6" class="edge">
<title>ext_2h_pullover&#45;&gt;ext_2h_sc</title>
<path fill="none" stroke="black" d="M682.64,-634.81C675.4,-626.39 666.76,-616.33 658.85,-607.11"/>
<polygon fill="black" stroke="black" points="661.71,-605.07 652.54,-599.77 656.4,-609.63 661.71,-605.07"/>
</g>
<!-- mov_pullover -->
<g id="node17" class="node">
<title>mov_pullover</title>
<g id="a_node17"><a xlink:href="https://www.youtube.com/watch?v=HHT6TrTLJM8" xlink:title="{{04|Pullover}}">
<path fill="#ffff99" stroke="#b15928" d="M730.5,-560.5C730.5,-560.5 797.75,-560.5 797.75,-560.5 803.75,-560.5 809.75,-566.5 809.75,-572.5 809.75,-572.5 809.75,-584.5 809.75,-584.5 809.75,-590.5 803.75,-596.5 797.75,-596.5 797.75,-596.5 730.5,-596.5 730.5,-596.5 724.5,-596.5 718.5,-590.5 718.5,-584.5 718.5,-584.5 718.5,-572.5 718.5,-572.5 718.5,-566.5 724.5,-560.5 730.5,-560.5"/>
<text text-anchor="middle" x="733.25" y="-573.2" font-family="Times New Roman,serif" font-size="14.00">04</text>
<polyline fill="none" stroke="#b15928" points="748,-560.75 748,-596.5"/>
<text text-anchor="middle" x="778.88" y="-573.2" font-family="Times New Roman,serif" font-size="14.00">Pullover</text>
</a>
</g>
</g>
<!-- ext_2h_pullover&#45;&gt;mov_pullover -->
<g id="edge11" class="edge">
<title>ext_2h_pullover&#45;&gt;mov_pullover</title>
<path fill="none" stroke="black" d="M715.86,-634.81C723.7,-625.84 733.14,-615.01 741.59,-605.33"/>
<polygon fill="black" stroke="black" points="744.07,-607.81 748,-597.98 738.79,-603.21 744.07,-607.81"/>
</g>
<!-- mov_s2srockit -->
<g id="node20" class="node">
<title>mov_s2srockit</title>
<g id="a_node20"><a xlink:href="https://www.youtube.com/watch?v=I26O1ct_hik&amp;list=PLk4oYPJ7TXKgCH_TpdUCNs2-m5ZCqx-Pw&amp;index=6" xlink:title="{{09|Side to Side Rockit}}">
<path fill="#ffff99" stroke="#b15928" d="M205.62,-259.88C205.62,-259.88 336.62,-259.88 336.62,-259.88 342.62,-259.88 348.62,-265.88 348.62,-271.88 348.62,-271.88 348.62,-283.88 348.62,-283.88 348.62,-289.88 342.62,-295.88 336.62,-295.88 336.62,-295.88 205.62,-295.88 205.62,-295.88 199.62,-295.88 193.62,-289.88 193.62,-283.88 193.62,-283.88 193.62,-271.88 193.62,-271.88 193.62,-265.88 199.62,-259.88 205.62,-259.88"/>
<text text-anchor="middle" x="208.38" y="-272.57" font-family="Times New Roman,serif" font-size="14.00">09</text>
<polyline fill="none" stroke="#b15928" points="223.12,-260.12 223.12,-295.88"/>
<text text-anchor="middle" x="285.88" y="-272.57" font-family="Times New Roman,serif" font-size="14.00">Side to Side Rockit</text>
</a>
</g>
</g>
<!-- ext_2h_s2srockit&#45;&gt;mov_s2srockit -->
<g id="edge13" class="edge">
<title>ext_2h_s2srockit&#45;&gt;mov_s2srockit</title>
<path fill="none" stroke="black" d="M207.95,-353.9C220.72,-338.73 236.57,-319.91 249.2,-304.92"/>
<polygon fill="black" stroke="black" points="251.85,-307.2 255.61,-297.3 246.49,-302.69 251.85,-307.2"/>
</g>
<!-- ext_2h_incircle -->
<g id="node9" class="node">
<title>ext_2h_incircle</title>
<path fill="#b2df8a" stroke="#33a02c" d="M474.62,-470.38C474.62,-470.38 587.62,-470.38 587.62,-470.38 593.62,-470.38 599.62,-476.38 599.62,-482.38 599.62,-482.38 599.62,-497.88 599.62,-497.88 599.62,-503.88 593.62,-509.88 587.62,-509.88 587.62,-509.88 474.62,-509.88 474.62,-509.88 468.62,-509.88 462.62,-503.88 462.62,-497.88 462.62,-497.88 462.62,-482.38 462.62,-482.38 462.62,-476.38 468.62,-470.38 474.62,-470.38"/>
<text text-anchor="middle" x="487.88" y="-484.7" font-family="Times New Roman,serif" font-size="14.00">2H&#45;05</text>
<polyline fill="none" stroke="#33a02c" points="513.12,-470.38 513.12,-509.88"/>
<text text-anchor="middle" x="556.38" y="-492.57" font-family="Times New Roman,serif" font-size="14.00">Two&#45;Hand</text>
<text text-anchor="middle" x="556.38" y="-476.82" font-family="Times New Roman,serif" font-size="14.00">Inside Circle</text>
</g>
<!-- ext_2h_outcircle -->
<g id="node10" class="node">
<title>ext_2h_outcircle</title>
<path fill="#b2df8a" stroke="#33a02c" d="M549.75,-362.25C549.75,-362.25 672.5,-362.25 672.5,-362.25 678.5,-362.25 684.5,-368.25 684.5,-374.25 684.5,-374.25 684.5,-389.75 684.5,-389.75 684.5,-395.75 678.5,-401.75 672.5,-401.75 672.5,-401.75 549.75,-401.75 549.75,-401.75 543.75,-401.75 537.75,-395.75 537.75,-389.75 537.75,-389.75 537.75,-374.25 537.75,-374.25 537.75,-368.25 543.75,-362.25 549.75,-362.25"/>
<text text-anchor="middle" x="563" y="-376.57" font-family="Times New Roman,serif" font-size="14.00">2H&#45;06</text>
<polyline fill="none" stroke="#33a02c" points="588.25,-362.25 588.25,-401.75"/>
<text text-anchor="middle" x="636.38" y="-384.45" font-family="Times New Roman,serif" font-size="14.00">Two&#45;Hand</text>
<text text-anchor="middle" x="636.38" y="-368.7" font-family="Times New Roman,serif" font-size="14.00">Outside Circle</text>
</g>
<!-- ext_2h_incircle&#45;&gt;ext_2h_outcircle -->
<g id="edge5" class="edge">
<title>ext_2h_incircle&#45;&gt;ext_2h_outcircle</title>
<path fill="none" stroke="black" d="M545.43,-470.15C557.75,-453.8 575.72,-429.97 589.75,-411.36"/>
<polygon fill="black" stroke="black" points="592.54,-413.47 595.77,-403.38 586.95,-409.25 592.54,-413.47"/>
</g>
<!-- mov_incircle -->
<g id="node15" class="node">
<title>mov_incircle</title>
<g id="a_node15"><a xlink:href="https://www.youtube.com/watch?v=-gtRj1KEUmw" xlink:title="{{02|Inside Circle}}">
<path fill="#ffff99" stroke="#b15928" d="M416.12,-364C416.12,-364 508.12,-364 508.12,-364 514.12,-364 520.12,-370 520.12,-376 520.12,-376 520.12,-388 520.12,-388 520.12,-394 514.12,-400 508.12,-400 508.12,-400 416.12,-400 416.12,-400 410.12,-400 404.12,-394 404.12,-388 404.12,-388 404.12,-376 404.12,-376 404.12,-370 410.12,-364 416.12,-364"/>
<text text-anchor="middle" x="418.88" y="-376.7" font-family="Times New Roman,serif" font-size="14.00">02</text>
<polyline fill="none" stroke="#b15928" points="433.62,-364.25 433.62,-400"/>
<text text-anchor="middle" x="476.88" y="-376.7" font-family="Times New Roman,serif" font-size="14.00">Inside Circle</text>
</a>
</g>
</g>
<!-- ext_2h_incircle&#45;&gt;mov_incircle -->
<g id="edge8" class="edge">
<title>ext_2h_incircle&#45;&gt;mov_incircle</title>
<path fill="none" stroke="black" d="M518.79,-470.15C507.88,-453.37 491.84,-428.71 479.61,-409.9"/>
<polygon fill="black" stroke="black" points="482.65,-408.15 474.26,-401.67 476.78,-411.96 482.65,-408.15"/>
</g>
<!-- mov_outcircle -->
<g id="node16" class="node">
<title>mov_outcircle</title>
<g id="a_node16"><a xlink:href="https://www.youtube.com/watch?v=Mf2QuZvRtQ4&amp;list=PLk4oYPJ7TXKgCH_TpdUCNs2-m5ZCqx-Pw&amp;index=2" xlink:title="{{03|Outside Circle}}">
<path fill="#ffff99" stroke="#b15928" d="M513.25,-259.88C513.25,-259.88 615,-259.88 615,-259.88 621,-259.88 627,-265.88 627,-271.88 627,-271.88 627,-283.88 627,-283.88 627,-289.88 621,-295.88 615,-295.88 615,-295.88 513.25,-295.88 513.25,-295.88 507.25,-295.88 501.25,-289.88 501.25,-283.88 501.25,-283.88 501.25,-271.88 501.25,-271.88 501.25,-265.88 507.25,-259.88 513.25,-259.88"/>
<text text-anchor="middle" x="516" y="-272.57" font-family="Times New Roman,serif" font-size="14.00">03</text>
<polyline fill="none" stroke="#b15928" points="530.75,-260.12 530.75,-295.88"/>
<text text-anchor="middle" x="578.88" y="-272.57" font-family="Times New Roman,serif" font-size="14.00">Outside Circle</text>
</a>
</g>
</g>
<!-- ext_2h_outcircle&#45;&gt;mov_outcircle -->
<g id="edge9" class="edge">
<title>ext_2h_outcircle&#45;&gt;mov_outcircle</title>
<path fill="none" stroke="black" d="M602.28,-361.79C595.11,-346.19 584.89,-323.99 576.83,-306.49"/>
<polygon fill="black" stroke="black" points="580.14,-305.29 572.77,-297.67 573.78,-308.22 580.14,-305.29"/>
</g>
<!-- ext_2h_outpend -->
<g id="node11" class="node">
<title>ext_2h_outpend</title>
<path fill="#b2df8a" stroke="#33a02c" d="M18.5,-258.12C18.5,-258.12 163.75,-258.12 163.75,-258.12 169.75,-258.12 175.75,-264.12 175.75,-270.12 175.75,-270.12 175.75,-285.62 175.75,-285.62 175.75,-291.62 169.75,-297.62 163.75,-297.62 163.75,-297.62 18.5,-297.62 18.5,-297.62 12.5,-297.62 6.5,-291.62 6.5,-285.62 6.5,-285.62 6.5,-270.12 6.5,-270.12 6.5,-264.12 12.5,-258.12 18.5,-258.12"/>
<text text-anchor="middle" x="31.75" y="-272.45" font-family="Times New Roman,serif" font-size="14.00">2H&#45;16</text>
<polyline fill="none" stroke="#33a02c" points="57,-258.12 57,-297.62"/>
<text text-anchor="middle" x="116.38" y="-280.32" font-family="Times New Roman,serif" font-size="14.00">Two&#45;Hand</text>
<text text-anchor="middle" x="116.38" y="-264.57" font-family="Times New Roman,serif" font-size="14.00">Outside Pendulum</text>
</g>
<!-- ext_2h_inpend -->
<g id="node12" class="node">
<title>ext_2h_inpend</title>
<path fill="#b2df8a" stroke="#33a02c" d="M24.38,-173.75C24.38,-173.75 159.88,-173.75 159.88,-173.75 165.88,-173.75 171.88,-179.75 171.88,-185.75 171.88,-185.75 171.88,-201.25 171.88,-201.25 171.88,-207.25 165.88,-213.25 159.88,-213.25 159.88,-213.25 24.38,-213.25 24.38,-213.25 18.38,-213.25 12.38,-207.25 12.38,-201.25 12.38,-201.25 12.38,-185.75 12.38,-185.75 12.38,-179.75 18.38,-173.75 24.38,-173.75"/>
<text text-anchor="middle" x="37.62" y="-188.07" font-family="Times New Roman,serif" font-size="14.00">2H&#45;16</text>
<polyline fill="none" stroke="#33a02c" points="62.88,-173.75 62.88,-213.25"/>
<text text-anchor="middle" x="117.38" y="-195.95" font-family="Times New Roman,serif" font-size="14.00">Two&#45;Hand</text>
<text text-anchor="middle" x="117.38" y="-180.2" font-family="Times New Roman,serif" font-size="14.00">Inside Pendulum</text>
</g>
<!-- ext_2h_outpend&#45;&gt;ext_2h_inpend -->
<g id="edge3" class="edge">
<title>ext_2h_outpend&#45;&gt;ext_2h_inpend</title>
<path fill="none" stroke="black" d="M91.36,-257.77C91.48,-248 91.62,-235.87 91.76,-224.85"/>
<polygon fill="black" stroke="black" points="95.25,-225.06 91.88,-215.02 88.25,-224.97 95.25,-225.06"/>
</g>
<!-- mov_outpend -->
<g id="node23" class="node">
<title>mov_outpend</title>
<g id="a_node23"><a xlink:href="https://www.youtube.com/watch?v=I26O1ct_hik&amp;list=PLk4oYPJ7TXKgCH_TpdUCNs2-m5ZCqx-Pw&amp;index=9" xlink:title="{{12|Outside Pendulum}}">
<path fill="#ffff99" stroke="#b15928" d="M209,-175.5C209,-175.5 333.25,-175.5 333.25,-175.5 339.25,-175.5 345.25,-181.5 345.25,-187.5 345.25,-187.5 345.25,-199.5 345.25,-199.5 345.25,-205.5 339.25,-211.5 333.25,-211.5 333.25,-211.5 209,-211.5 209,-211.5 203,-211.5 197,-205.5 197,-199.5 197,-199.5 197,-187.5 197,-187.5 197,-181.5 203,-175.5 209,-175.5"/>
<text text-anchor="middle" x="211.75" y="-188.2" font-family="Times New Roman,serif" font-size="14.00">12</text>
<polyline fill="none" stroke="#b15928" points="226.5,-175.75 226.5,-211.5"/>
<text text-anchor="middle" x="285.88" y="-188.2" font-family="Times New Roman,serif" font-size="14.00">Outside Pendulum</text>
</a>
</g>
</g>
<!-- ext_2h_outpend&#45;&gt;mov_outpend -->
<g id="edge14" class="edge">
<title>ext_2h_outpend&#45;&gt;mov_outpend</title>
<path fill="none" stroke="black" d="M132.87,-257.77C159.67,-245.51 194.57,-229.53 222.6,-216.71"/>
<polygon fill="black" stroke="black" points="223.97,-219.93 231.6,-212.59 221.05,-213.57 223.97,-219.93"/>
</g>
<!-- ext_2h_altpend -->
<g id="node13" class="node">
<title>ext_2h_altpend</title>
<g id="a_node13"><a xlink:href="https://www.youtube.com/watch?v=GULjXPS_ba4" xlink:title="{{2H&#45;??|Two&#45;Hand\nAlternating Pendulum}}">
<path fill="#b2df8a" stroke="#33a02c" d="M12,-97.25C12,-97.25 172.25,-97.25 172.25,-97.25 178.25,-97.25 184.25,-103.25 184.25,-109.25 184.25,-109.25 184.25,-124.75 184.25,-124.75 184.25,-130.75 178.25,-136.75 172.25,-136.75 172.25,-136.75 12,-136.75 12,-136.75 6,-136.75 0,-130.75 0,-124.75 0,-124.75 0,-109.25 0,-109.25 0,-103.25 6,-97.25 12,-97.25"/>
<text text-anchor="middle" x="24.5" y="-111.58" font-family="Times New Roman,serif" font-size="14.00">2H&#45;??</text>
<polyline fill="none" stroke="#33a02c" points="49,-97.25 49,-136.75"/>
<text text-anchor="middle" x="116.62" y="-119.45" font-family="Times New Roman,serif" font-size="14.00">Two&#45;Hand</text>
<text text-anchor="middle" x="116.62" y="-103.7" font-family="Times New Roman,serif" font-size="14.00">Alternating Pendulum</text>
</a>
</g>
</g>
<!-- ext_2h_inpend&#45;&gt;ext_2h_altpend -->
<g id="edge4" class="edge">
<title>ext_2h_inpend&#45;&gt;ext_2h_altpend</title>
<path fill="none" stroke="black" d="M92.12,-173.31C92.12,-165.75 92.12,-156.88 92.12,-148.49"/>
<polygon fill="black" stroke="black" points="95.63,-148.63 92.13,-138.63 88.63,-148.63 95.63,-148.63"/>
</g>
<!-- mov_inpend -->
<g id="node24" class="node">
<title>mov_inpend</title>
<g id="a_node24"><a xlink:href="https://www.youtube.com/watch?v=I26O1ct_hik&amp;list=PLk4oYPJ7TXKgCH_TpdUCNs2-m5ZCqx-Pw&amp;index=10" xlink:title="{{13|Inside Pendulum}}">
<path fill="#ffff99" stroke="#b15928" d="M213.88,-99C213.88,-99 328.38,-99 328.38,-99 334.38,-99 340.38,-105 340.38,-111 340.38,-111 340.38,-123 340.38,-123 340.38,-129 334.38,-135 328.38,-135 328.38,-135 213.88,-135 213.88,-135 207.88,-135 201.88,-129 201.88,-123 201.88,-123 201.88,-111 201.88,-111 201.88,-105 207.88,-99 213.88,-99"/>
<text text-anchor="middle" x="216.62" y="-111.7" font-family="Times New Roman,serif" font-size="14.00">13</text>
<polyline fill="none" stroke="#b15928" points="231.38,-99.25 231.38,-135"/>
<text text-anchor="middle" x="285.88" y="-111.7" font-family="Times New Roman,serif" font-size="14.00">Inside Pendulum</text>
</a>
</g>
</g>
<!-- ext_2h_inpend&#45;&gt;mov_inpend -->
<g id="edge15" class="edge">
<title>ext_2h_inpend&#45;&gt;mov_inpend</title>
<path fill="none" stroke="black" d="M138.22,-173.31C162.78,-163.09 193.1,-150.47 218.58,-139.87"/>
<polygon fill="black" stroke="black" points="219.88,-143.12 227.77,-136.04 217.19,-136.66 219.88,-143.12"/>
</g>
<!-- mov_altpend -->
<g id="node27" class="node">
<title>mov_altpend</title>
<g id="a_node27"><a xlink:href="https://www.youtube.com/watch?v=I26O1ct_hik&amp;list=PLk4oYPJ7TXKgCH_TpdUCNs2-m5ZCqx-Pw&amp;index=16" xlink:title="{{16|Alternating Pendulum}}">
<path fill="#ffff99" stroke="#b15928" d="M200.75,-24.25C200.75,-24.25 341.5,-24.25 341.5,-24.25 347.5,-24.25 353.5,-30.25 353.5,-36.25 353.5,-36.25 353.5,-48.25 353.5,-48.25 353.5,-54.25 347.5,-60.25 341.5,-60.25 341.5,-60.25 200.75,-60.25 200.75,-60.25 194.75,-60.25 188.75,-54.25 188.75,-48.25 188.75,-48.25 188.75,-36.25 188.75,-36.25 188.75,-30.25 194.75,-24.25 200.75,-24.25"/>
<text text-anchor="middle" x="203.5" y="-36.95" font-family="Times New Roman,serif" font-size="14.00">16</text>
<polyline fill="none" stroke="#b15928" points="218.25,-24.5 218.25,-60.25"/>
<text text-anchor="middle" x="285.88" y="-36.95" font-family="Times New Roman,serif" font-size="14.00">Alternating Pendulum</text>
</a>
</g>
</g>
<!-- ext_2h_altpend&#45;&gt;mov_altpend -->
<g id="edge16" class="edge">
<title>ext_2h_altpend&#45;&gt;mov_altpend</title>
<path fill="none" stroke="black" d="M139.16,-96.89C163.26,-87.09 192.73,-75.11 217.69,-64.97"/>
<polygon fill="black" stroke="black" points="218.74,-68.32 226.68,-61.31 216.1,-61.83 218.74,-68.32"/>
</g>
<!-- mov_s2s&#45;&gt;mov_incircle -->
<g id="edge18" class="edge">
<title>mov_s2s&#45;&gt;mov_incircle</title>
<path fill="none" stroke="black" d="M378.34,-466.1C395.61,-448.97 419.16,-425.62 436.89,-408.03"/>
<polygon fill="black" stroke="black" points="438.88,-410.99 443.51,-401.46 433.95,-406.02 438.88,-410.99"/>
</g>
<!-- mov_s2s&#45;&gt;mov_sideswingl2h -->
<g id="edge17" class="edge">
<title>mov_s2s&#45;&gt;mov_sideswingl2h</title>
<path fill="none" stroke="black" d="M349.27,-466.1C346.77,-456.3 343.77,-444.47 340.81,-432.85"/>
<polygon fill="black" stroke="black" points="344.24,-432.14 338.38,-423.31 337.45,-433.86 344.24,-432.14"/>
</g>
<!-- mov_incircle&#45;&gt;mov_millprep -->
<g id="edge36" class="edge">
<title>mov_incircle&#45;&gt;mov_millprep</title>
<path fill="none" stroke="black" d="M488.39,-363.68C500.44,-356.27 515.14,-347.97 529.12,-342 557.93,-329.71 634.68,-308.62 689.41,-294.23"/>
<polygon fill="black" stroke="black" points="690.13,-297.66 698.92,-291.74 688.36,-290.88 690.13,-297.66"/>
</g>
<!-- mov_incircle&#45;&gt;mov_outcircle -->
<g id="edge19" class="edge">
<title>mov_incircle&#45;&gt;mov_outcircle</title>
<path fill="none" stroke="black" d="M479.43,-363.68C495.69,-347.39 520.24,-322.82 538.72,-304.31"/>
<polygon fill="black" stroke="black" points="541.08,-306.9 545.67,-297.35 536.12,-301.96 541.08,-306.9"/>
</g>
<!-- mov_altcircle -->
<g id="node22" class="node">
<title>mov_altcircle</title>
<g id="a_node22"><a xlink:href="https://www.youtube.com/watch?v=I26O1ct_hik&amp;list=PLk4oYPJ7TXKgCH_TpdUCNs2-m5ZCqx-Pw&amp;index=8" xlink:title="{{11|Alternating Circle}}">
<path fill="#ffff99" stroke="#b15928" d="M419,-175.5C419,-175.5 537.25,-175.5 537.25,-175.5 543.25,-175.5 549.25,-181.5 549.25,-187.5 549.25,-187.5 549.25,-199.5 549.25,-199.5 549.25,-205.5 543.25,-211.5 537.25,-211.5 537.25,-211.5 419,-211.5 419,-211.5 413,-211.5 407,-205.5 407,-199.5 407,-199.5 407,-187.5 407,-187.5 407,-181.5 413,-175.5 419,-175.5"/>
<text text-anchor="middle" x="421.75" y="-188.2" font-family="Times New Roman,serif" font-size="14.00">11</text>
<polyline fill="none" stroke="#b15928" points="436.5,-175.75 436.5,-211.5"/>
<text text-anchor="middle" x="492.88" y="-188.2" font-family="Times New Roman,serif" font-size="14.00">Alternating Circle</text>
</a>
</g>
</g>
<!-- mov_outcircle&#45;&gt;mov_altcircle -->
<g id="edge24" class="edge">
<title>mov_outcircle&#45;&gt;mov_altcircle</title>
<path fill="none" stroke="black" d="M545.89,-259.41C533.8,-247.83 517.76,-232.46 504.31,-219.58"/>
<polygon fill="black" stroke="black" points="507.07,-217.38 497.43,-212.99 502.23,-222.44 507.07,-217.38"/>
</g>
<!-- mov_outcircle&#45;&gt;mov_outpend -->
<g id="edge22" class="edge">
<title>mov_outcircle&#45;&gt;mov_outpend</title>
<path fill="none" stroke="black" d="M520.24,-259.42C511.02,-256.02 501.31,-252.62 492.12,-249.75 447.95,-235.96 397.98,-223.23 356.75,-213.47"/>
<polygon fill="black" stroke="black" points="357.65,-210.09 347.11,-211.21 356.05,-216.91 357.65,-210.09"/>
</g>
<!-- mov_outcircle&#45;&gt;mov_outcirclesc -->
<g id="edge45" class="edge">
<title>mov_outcircle&#45;&gt;mov_outcirclesc</title>
<path fill="none" stroke="black" d="M578.12,-259.41C586.69,-248.72 597.84,-234.8 607.62,-222.59"/>
<polygon fill="black" stroke="black" points="610.3,-224.84 613.82,-214.85 604.83,-220.47 610.3,-224.84"/>
</g>
<!-- mov_pullover&#45;&gt;mov_backs2s -->
<g id="edge28" class="edge">
<title>mov_pullover&#45;&gt;mov_backs2s</title>
<path fill="none" stroke="black" d="M794.08,-560.02C813.72,-548.56 839.88,-533.29 862.58,-520.04"/>
<polygon fill="black" stroke="black" points="864.21,-523.14 871.09,-515.08 860.69,-517.09 864.21,-523.14"/>
</g>
<!-- mov_pullover&#45;&gt;mov_perry -->
<g id="edge30" class="edge">
<title>mov_pullover&#45;&gt;mov_perry</title>
<path fill="none" stroke="black" d="M762.71,-560.02C762.08,-552.31 761.32,-542.88 760.56,-533.5"/>
<polygon fill="black" stroke="black" points="764.06,-533.4 759.77,-523.72 757.09,-533.97 764.06,-533.4"/>
</g>
<!-- mov_pullover&#45;&gt;mov_sc -->
<g id="edge27" class="edge">
<title>mov_pullover&#45;&gt;mov_sc</title>
<path fill="none" stroke="black" d="M729.58,-560.23C715.22,-551.08 700.07,-538.36 692.12,-522.25 679.5,-496.64 682.14,-484.75 692.12,-458 699.26,-438.88 713.7,-421.4 727.16,-408.14"/>
<polygon fill="black" stroke="black" points="729.35,-410.88 734.24,-401.48 724.56,-405.78 729.35,-410.88"/>
</g>
<!-- mov_pullover&#45;&gt;mov_outpull -->
<g id="edge34" class="edge">
<title>mov_pullover&#45;&gt;mov_outpull</title>
<path fill="none" stroke="black" d="M810.14,-573.5C872.45,-567.02 978.61,-551.85 1002.12,-522.25 1019.89,-499.89 1014.64,-483.67 1002.12,-458 993.09,-439.47 977.02,-424.19 960.58,-412.35"/>
<polygon fill="black" stroke="black" points="962.94,-409.72 952.71,-406.99 959,-415.51 962.94,-409.72"/>
</g>
<!-- mov_sc&#45;&gt;mov_millprep -->
<g id="edge37" class="edge">
<title>mov_sc&#45;&gt;mov_millprep</title>
<path fill="none" stroke="black" d="M755.77,-363.68C754.57,-348.34 752.79,-325.67 751.38,-307.62"/>
<polygon fill="black" stroke="black" points="754.88,-307.49 750.61,-297.79 747.9,-308.04 754.88,-307.49"/>
</g>
<!-- mov_sideswingl2h&#45;&gt;mov_s2srockit -->
<g id="edge20" class="edge">
<title>mov_sideswingl2h&#45;&gt;mov_s2srockit</title>
<path fill="none" stroke="black" d="M306.41,-342.1C299.74,-330.14 292.53,-317.23 286.39,-306.22"/>
<polygon fill="black" stroke="black" points="289.54,-304.68 281.61,-297.65 283.42,-308.09 289.54,-304.68"/>
</g>
<!-- mov_sideswingl2hcont -->
<g id="node21" class="node">
<title>mov_sideswingl2hcont</title>
<g id="a_node21"><a xlink:href="https://www.youtube.com/watch?v=I26O1ct_hik&amp;list=PLk4oYPJ7TXKgCH_TpdUCNs2-m5ZCqx-Pw&amp;index=7" xlink:title="{{10|Side Swing\nLow to High\nContinuous}}">
<path fill="#ffff99" stroke="#b15928" d="M379.12,-250.25C379.12,-250.25 471.12,-250.25 471.12,-250.25 477.12,-250.25 483.12,-256.25 483.12,-262.25 483.12,-262.25 483.12,-293.5 483.12,-293.5 483.12,-299.5 477.12,-305.5 471.12,-305.5 471.12,-305.5 379.12,-305.5 379.12,-305.5 373.12,-305.5 367.12,-299.5 367.12,-293.5 367.12,-293.5 367.12,-262.25 367.12,-262.25 367.12,-256.25 373.12,-250.25 379.12,-250.25"/>
<text text-anchor="middle" x="381.88" y="-272.45" font-family="Times New Roman,serif" font-size="14.00">10</text>
<polyline fill="none" stroke="#b15928" points="396.62,-250.25 396.62,-305.5"/>
<text text-anchor="middle" x="439.88" y="-288.2" font-family="Times New Roman,serif" font-size="14.00">Side Swing</text>
<text text-anchor="middle" x="439.88" y="-272.45" font-family="Times New Roman,serif" font-size="14.00">Low to High</text>
<text text-anchor="middle" x="439.88" y="-256.7" font-family="Times New Roman,serif" font-size="14.00">Continuous</text>
</a>
</g>
</g>
<!-- mov_sideswingl2h&#45;&gt;mov_sideswingl2hcont -->
<g id="edge23" class="edge">
<title>mov_sideswingl2h&#45;&gt;mov_sideswingl2hcont</title>
<path fill="none" stroke="black" d="M365.07,-342.1C373.85,-332.86 383.15,-323.06 391.75,-314.01"/>
<polygon fill="black" stroke="black" points="394.03,-316.7 398.38,-307.04 388.95,-311.88 394.03,-316.7"/>
</g>
<!-- mov_s2srockit&#45;&gt;mov_outpend -->
<g id="edge21" class="edge">
<title>mov_s2srockit&#45;&gt;mov_outpend</title>
<path fill="none" stroke="black" d="M271.12,-259.41C271.12,-248.92 271.12,-235.33 271.12,-223.29"/>
<polygon fill="black" stroke="black" points="274.63,-223.46 271.13,-213.46 267.63,-223.46 274.63,-223.46"/>
</g>
<!-- mov_altcircle&#45;&gt;mov_altpend -->
<g id="edge44" class="edge">
<title>mov_altcircle&#45;&gt;mov_altpend</title>
<path fill="none" stroke="black" d="M455.48,-175.29C429.86,-155.92 386.81,-123.65 349.12,-96.75 335.25,-86.85 319.8,-76.18 306.34,-66.99"/>
<polygon fill="black" stroke="black" points="308.43,-64.18 298.19,-61.45 304.49,-69.97 308.43,-64.18"/>
</g>
<!-- mov_mill -->
<g id="node29" class="node">
<title>mov_mill</title>
<g id="a_node29"><a xlink:href="https://www.youtube.com/watch?v=I26O1ct_hik&amp;list=PLk4oYPJ7TXKgCH_TpdUCNs2-m5ZCqx-Pw&amp;index=19" xlink:title="{{19|Mill}}">
<path fill="#ffff99" stroke="#b15928" d="M691.88,-99C691.88,-99 734.38,-99 734.38,-99 740.38,-99 746.38,-105 746.38,-111 746.38,-111 746.38,-123 746.38,-123 746.38,-129 740.38,-135 734.38,-135 734.38,-135 691.88,-135 691.88,-135 685.88,-135 679.88,-129 679.88,-123 679.88,-123 679.88,-111 679.88,-111 679.88,-105 685.88,-99 691.88,-99"/>
<text text-anchor="middle" x="694.62" y="-111.7" font-family="Times New Roman,serif" font-size="14.00">19</text>
<polyline fill="none" stroke="#b15928" points="709.38,-99.25 709.38,-135"/>
<text text-anchor="middle" x="727.88" y="-111.7" font-family="Times New Roman,serif" font-size="14.00">Mill</text>
</a>
</g>
</g>
<!-- mov_altcircle&#45;&gt;mov_mill -->
<g id="edge41" class="edge">
<title>mov_altcircle&#45;&gt;mov_mill</title>
<path fill="none" stroke="black" d="M533.22,-175.03C574.46,-161.96 630.15,-144.3 668.59,-132.12"/>
<polygon fill="black" stroke="black" points="669.52,-135.49 678,-129.14 667.41,-128.82 669.52,-135.49"/>
</g>
<!-- mov_revmill -->
<g id="node30" class="node">
<title>mov_revmill</title>
<g id="a_node30"><a xlink:href="https://www.youtube.com/watch?v=I26O1ct_hik&amp;list=PLk4oYPJ7TXKgCH_TpdUCNs2-m5ZCqx-Pw&amp;index=20" xlink:title="{{20|Reverse Mill}}">
<path fill="#ffff99" stroke="#b15928" d="M519.5,-99C519.5,-99 610.75,-99 610.75,-99 616.75,-99 622.75,-105 622.75,-111 622.75,-111 622.75,-123 622.75,-123 622.75,-129 616.75,-135 610.75,-135 610.75,-135 519.5,-135 519.5,-135 513.5,-135 507.5,-129 507.5,-123 507.5,-123 507.5,-111 507.5,-111 507.5,-105 513.5,-99 519.5,-99"/>
<text text-anchor="middle" x="522.25" y="-111.7" font-family="Times New Roman,serif" font-size="14.00">20</text>
<polyline fill="none" stroke="#b15928" points="537,-99.25 537,-135"/>
<text text-anchor="middle" x="579.88" y="-111.7" font-family="Times New Roman,serif" font-size="14.00">Reverse Mill</text>
</a>
</g>
</g>
<!-- mov_altcircle&#45;&gt;mov_revmill -->
<g id="edge42" class="edge">
<title>mov_altcircle&#45;&gt;mov_revmill</title>
<path fill="none" stroke="black" d="M498.3,-175.22C509.53,-165.61 523.71,-153.47 536.11,-142.85"/>
<polygon fill="black" stroke="black" points="538.29,-145.59 543.61,-136.43 533.73,-140.27 538.29,-145.59"/>
</g>
<!-- mov_outpend&#45;&gt;mov_inpend -->
<g id="edge25" class="edge">
<title>mov_outpend&#45;&gt;mov_inpend</title>
<path fill="none" stroke="black" d="M271.12,-175.22C271.12,-166.82 271.12,-156.49 271.12,-146.93"/>
<polygon fill="black" stroke="black" points="274.63,-146.96 271.13,-136.96 267.63,-146.96 274.63,-146.96"/>
</g>
<!-- mov_inpend&#45;&gt;mov_altpend -->
<g id="edge26" class="edge">
<title>mov_inpend&#45;&gt;mov_altpend</title>
<path fill="none" stroke="black" d="M271.12,-98.76C271.12,-90.75 271.12,-81.02 271.12,-71.95"/>
<polygon fill="black" stroke="black" points="274.63,-72.13 271.13,-62.13 267.63,-72.13 274.63,-72.13"/>
</g>
<!-- mov_inpull -->
<g id="node26" class="node">
<title>mov_inpull</title>
<g id="a_node26"><a xlink:href="https://www.youtube.com/watch?v=sJ5XCgdCMx8&amp;list=PLk4oYPJ7TXKgCH_TpdUCNs2-m5ZCqx-Pw&amp;index=15" xlink:title="{{15|Inside Pullover}|+ INT ROTATION}">
<path fill="#ffff99" stroke="#b15928" d="M839.75,-254.12C839.75,-254.12 944.5,-254.12 944.5,-254.12 950.5,-254.12 956.5,-260.12 956.5,-266.12 956.5,-266.12 956.5,-289.62 956.5,-289.62 956.5,-295.62 950.5,-301.62 944.5,-301.62 944.5,-301.62 839.75,-301.62 839.75,-301.62 833.75,-301.62 827.75,-295.62 827.75,-289.62 827.75,-289.62 827.75,-266.12 827.75,-266.12 827.75,-260.12 833.75,-254.12 839.75,-254.12"/>
<text text-anchor="middle" x="842.5" y="-284.32" font-family="Times New Roman,serif" font-size="14.00">15</text>
<polyline fill="none" stroke="#b15928" points="857.25,-277.88 857.25,-301.62"/>
<text text-anchor="middle" x="906.88" y="-284.32" font-family="Times New Roman,serif" font-size="14.00">Inside Pullover</text>
<polyline fill="none" stroke="#b15928" points="827.75,-277.88 956.5,-277.88"/>
<text text-anchor="middle" x="892.12" y="-260.57" font-family="Times New Roman,serif" font-size="14.00">+ INT ROTATION</text>
</a>
</g>
</g>
<!-- mov_outpull&#45;&gt;mov_inpull -->
<g id="edge35" class="edge">
<title>mov_outpull&#45;&gt;mov_inpull</title>
<path fill="none" stroke="black" d="M902.95,-357.83C901.14,-344.64 898.84,-327.87 896.83,-313.18"/>
<polygon fill="black" stroke="black" points="900.32,-312.89 895.49,-303.46 893.39,-313.84 900.32,-312.89"/>
</g>
<!-- mov_inpull&#45;&gt;mov_alt180pull -->
<g id="edge39" class="edge">
<title>mov_inpull&#45;&gt;mov_alt180pull</title>
<path fill="none" stroke="black" d="M865.41,-253.71C853.66,-243.52 839.8,-231.51 827.65,-220.97"/>
<polygon fill="black" stroke="black" points="830.15,-218.5 820.3,-214.6 825.56,-223.79 830.15,-218.5"/>
</g>
<!-- mov_alt180pull&#45;&gt;mov_mill -->
<g id="edge40" class="edge">
<title>mov_alt180pull&#45;&gt;mov_mill</title>
<path fill="none" stroke="black" d="M775.49,-173.31C765.06,-164.06 752.41,-152.85 741.24,-142.94"/>
<polygon fill="black" stroke="black" points="743.61,-140.36 733.81,-136.34 738.96,-145.6 743.61,-140.36"/>
</g>
<!-- mov_alt180pull&#45;&gt;mov_revmill -->
<g id="edge43" class="edge">
<title>mov_alt180pull&#45;&gt;mov_revmill</title>
<path fill="none" stroke="black" d="M737.38,-173.31C704.55,-162.77 663.79,-149.68 630.16,-138.88"/>
<polygon fill="black" stroke="black" points="631.54,-135.65 620.95,-135.93 629.4,-142.32 631.54,-135.65"/>
</g>
</g>
</svg>
