<?xml version="1.0" encoding="UTF-8" standalone="no"?>
<!DOCTYPE svg PUBLIC "-//W3C//DTD SVG 1.1//EN"
 "http://www.w3.org/Graphics/SVG/1.1/DTD/svg11.dtd">
<!-- Generated by graphviz version 8.1.0 (20230707.0739)
 -->
<!-- Title: kb_progression Pages: 1 -->
<svg width="1056pt" height="683pt"
 viewBox="0.00 0.00 1055.81 683.25" xmlns="http://www.w3.org/2000/svg" xmlns:xlink="http://www.w3.org/1999/xlink">
<g id="graph0" class="graph" transform="scale(1 1) rotate(0) translate(4 679.25)">
<title>kb_progression</title>
<polygon fill="white" stroke="none" points="-4,4 -4,-679.25 1051.81,-679.25 1051.81,4 -4,4"/>
<text text-anchor="middle" x="523.9" y="-6.45" font-family="Times New Roman,serif" font-size="14.00">Single Arm Heavy Club Skill Progression</text>
<!-- mov_backs2s -->
<g id="node1" class="node">
<title>mov_backs2s</title>
<g id="a_node1"><a xlink:href="https://www.youtube.com/watch?v=sxePeWDR1U0" xlink:title="{{05|Back Position Swing}|THUMB TO SHIRT}">
<path fill="#cab2d6" stroke="#6a3d9a" d="M877.25,-466.38C877.25,-466.38 1015,-466.38 1015,-466.38 1021,-466.38 1027,-472.38 1027,-478.38 1027,-478.38 1027,-501.88 1027,-501.88 1027,-507.88 1021,-513.88 1015,-513.88 1015,-513.88 877.25,-513.88 877.25,-513.88 871.25,-513.88 865.25,-507.88 865.25,-501.88 865.25,-501.88 865.25,-478.38 865.25,-478.38 865.25,-472.38 871.25,-466.38 877.25,-466.38"/>
<text text-anchor="middle" x="880" y="-496.57" font-family="Times New Roman,serif" font-size="14.00">05</text>
<polyline fill="none" stroke="#6a3d9a" points="894.75,-490.12 894.75,-513.88"/>
<text text-anchor="middle" x="960.88" y="-496.57" font-family="Times New Roman,serif" font-size="14.00">Back Position Swing</text>
<polyline fill="none" stroke="#6a3d9a" points="865.25,-490.12 1027,-490.12"/>
<text text-anchor="middle" x="946.12" y="-472.82" font-family="Times New Roman,serif" font-size="14.00">THUMB TO SHIRT</text>
</a>
</g>
</g>
<!-- mov_sc -->
<g id="node18" class="node">
<title>mov_sc</title>
<g id="a_node18"><a xlink:href="https://www.youtube.com/watch?v=huwc0g3yLWk&amp;list=PLk4oYPJ7TXKgCH_TpdUCNs2-m5ZCqx-Pw&amp;index=4" xlink:title="{{07|Shield Cast}}">
<path fill="#ffff99" stroke="#b15928" d="M748.5,-364C748.5,-364 833.75,-364 833.75,-364 839.75,-364 845.75,-370 845.75,-376 845.75,-376 845.75,-388 845.75,-388 845.75,-394 839.75,-400 833.75,-400 833.75,-400 748.5,-400 748.5,-400 742.5,-400 736.5,-394 736.5,-388 736.5,-388 736.5,-376 736.5,-376 736.5,-370 742.5,-364 748.5,-364"/>
<text text-anchor="middle" x="751.25" y="-376.7" font-family="Times New Roman,serif" font-size="14.00">07</text>
<polyline fill="none" stroke="#b15928" points="766,-364.25 766,-400"/>
<text text-anchor="middle" x="805.88" y="-376.7" font-family="Times New Roman,serif" font-size="14.00">Shield Cast</text>
</a>
</g>
</g>
<!-- mov_backs2s&#45;&gt;mov_sc -->
<g id="edge29" class="edge">
<title>mov_backs2s&#45;&gt;mov_sc</title>
<path fill="none" stroke="black" d="M913.25,-466.62C887.18,-448.77 850.88,-423.92 824.64,-405.95"/>
<polygon fill="black" stroke="black" points="827.04,-402.67 816.81,-399.9 823.09,-408.44 827.04,-402.67"/>
</g>
<!-- mov_outpull -->
<g id="node25" class="node">
<title>mov_outpull</title>
<g id="a_node25"><a xlink:href="https://www.youtube.com/watch?v=sJ5XCgdCMx8&amp;list=PLk4oYPJ7TXKgCH_TpdUCNs2-m5ZCqx-Pw&amp;index=14" xlink:title="{{14|Outside Pullover}|+ EXT ROTATION}">
<path fill="#ffff99" stroke="#b15928" d="M882.88,-358.25C882.88,-358.25 997.38,-358.25 997.38,-358.25 1003.38,-358.25 1009.38,-364.25 1009.38,-370.25 1009.38,-370.25 1009.38,-393.75 1009.38,-393.75 1009.38,-399.75 1003.38,-405.75 997.38,-405.75 997.38,-405.75 882.88,-405.75 882.88,-405.75 876.88,-405.75 870.88,-399.75 870.88,-393.75 870.88,-393.75 870.88,-370.25 870.88,-370.25 870.88,-364.25 876.88,-358.25 882.88,-358.25"/>
<text text-anchor="middle" x="885.62" y="-388.45" font-family="Times New Roman,serif" font-size="14.00">14</text>
<polyline fill="none" stroke="#b15928" points="900.38,-382 900.38,-405.75"/>
<text text-anchor="middle" x="954.88" y="-388.45" font-family="Times New Roman,serif" font-size="14.00">Outside Pullover</text>
<polyline fill="none" stroke="#b15928" points="870.88,-382 1009.38,-382"/>
<text text-anchor="middle" x="940.12" y="-364.7" font-family="Times New Roman,serif" font-size="14.00">+ EXT ROTATION</text>
</a>
</g>
</g>
<!-- mov_backs2s&#45;&gt;mov_outpull -->
<g id="edge32" class="edge">
<title>mov_backs2s&#45;&gt;mov_outpull</title>
<path fill="none" stroke="black" d="M944.85,-466.62C944.03,-451.99 942.93,-432.65 942.01,-416.26"/>
<polygon fill="black" stroke="black" points="945.45,-416.26 941.4,-406.47 938.47,-416.66 945.45,-416.26"/>
</g>
<!-- mov_perry -->
<g id="node2" class="node">
<title>mov_perry</title>
<g id="a_node2"><a xlink:href="https://www.youtube.com/watch?v=FpUecSrX_AI&amp;list=PLk4oYPJ7TXKgCH_TpdUCNs2-m5ZCqx-Pw&amp;index=3" xlink:title="{{06|Perry Cast\naka Bailout}|SAFE FAILURE}">
<path fill="#cab2d6" stroke="#6a3d9a" d="M746.75,-458.5C746.75,-458.5 835.5,-458.5 835.5,-458.5 841.5,-458.5 847.5,-464.5 847.5,-470.5 847.5,-470.5 847.5,-509.75 847.5,-509.75 847.5,-515.75 841.5,-521.75 835.5,-521.75 835.5,-521.75 746.75,-521.75 746.75,-521.75 740.75,-521.75 734.75,-515.75 734.75,-509.75 734.75,-509.75 734.75,-470.5 734.75,-470.5 734.75,-464.5 740.75,-458.5 746.75,-458.5"/>
<text text-anchor="middle" x="750.5" y="-496.57" font-family="Times New Roman,serif" font-size="14.00">06</text>
<polyline fill="none" stroke="#6a3d9a" points="766.25,-482.25 766.25,-521.75"/>
<text text-anchor="middle" x="806.5" y="-504.45" font-family="Times New Roman,serif" font-size="14.00">Perry Cast</text>
<text text-anchor="middle" x="806.5" y="-488.7" font-family="Times New Roman,serif" font-size="14.00">aka Bailout</text>
<polyline fill="none" stroke="#6a3d9a" points="734.75,-482.25 847.5,-482.25"/>
<text text-anchor="middle" x="791.12" y="-464.95" font-family="Times New Roman,serif" font-size="14.00">SAFE FAILURE</text>
</a>
</g>
</g>
<!-- mov_perry&#45;&gt;mov_sc -->
<g id="edge31" class="edge">
<title>mov_perry&#45;&gt;mov_sc</title>
<path fill="none" stroke="black" d="M791.12,-458.71C791.12,-443.63 791.12,-425.55 791.12,-410.84"/>
<polygon fill="black" stroke="black" points="794.63,-410.89 791.12,-400.89 787.63,-410.89 794.63,-410.89"/>
</g>
<!-- mov_perry&#45;&gt;mov_outpull -->
<g id="edge33" class="edge">
<title>mov_perry&#45;&gt;mov_outpull</title>
<path fill="none" stroke="black" d="M833.82,-458.71C854.5,-443.99 879.2,-426.4 899.58,-411.88"/>
<polygon fill="black" stroke="black" points="901.2,-414.31 907.32,-405.65 897.14,-408.61 901.2,-414.31"/>
</g>
<!-- mov_millprep -->
<g id="node3" class="node">
<title>mov_millprep</title>
<g id="a_node3"><a xlink:href="https://www.youtube.com/watch?v=I26O1ct_hik&amp;list=PLk4oYPJ7TXKgCH_TpdUCNs2-m5ZCqx-Pw&amp;index=17" xlink:title="{{17|Mill Prep}}">
<path fill="#cab2d6" stroke="#6a3d9a" d="M702.88,-259.88C702.88,-259.88 775.38,-259.88 775.38,-259.88 781.38,-259.88 787.38,-265.88 787.38,-271.88 787.38,-271.88 787.38,-283.88 787.38,-283.88 787.38,-289.88 781.38,-295.88 775.38,-295.88 775.38,-295.88 702.88,-295.88 702.88,-295.88 696.88,-295.88 690.88,-289.88 690.88,-283.88 690.88,-283.88 690.88,-271.88 690.88,-271.88 690.88,-265.88 696.88,-259.88 702.88,-259.88"/>
<text text-anchor="middle" x="705.62" y="-272.57" font-family="Times New Roman,serif" font-size="14.00">17</text>
<polyline fill="none" stroke="#6a3d9a" points="720.38,-260.12 720.38,-295.88"/>
<text text-anchor="middle" x="753.88" y="-272.57" font-family="Times New Roman,serif" font-size="14.00">Mill Prep</text>
</a>
</g>
</g>
<!-- mov_alt180pull -->
<g id="node28" class="node">
<title>mov_alt180pull</title>
<g id="a_node28"><a xlink:href="https://www.youtube.com/watch?v=I26O1ct_hik&amp;list=PLk4oYPJ7TXKgCH_TpdUCNs2-m5ZCqx-Pw&amp;index=18" xlink:title="{{18|Alternating 180 Degree\nPullover}}">
<path fill="#ffff99" stroke="#b15928" d="M665,-173.75C665,-173.75 813.25,-173.75 813.25,-173.75 819.25,-173.75 825.25,-179.75 825.25,-185.75 825.25,-185.75 825.25,-201.25 825.25,-201.25 825.25,-207.25 819.25,-213.25 813.25,-213.25 813.25,-213.25 665,-213.25 665,-213.25 659,-213.25 653,-207.25 653,-201.25 653,-201.25 653,-185.75 653,-185.75 653,-179.75 659,-173.75 665,-173.75"/>
<text text-anchor="middle" x="667.75" y="-188.07" font-family="Times New Roman,serif" font-size="14.00">18</text>
<polyline fill="none" stroke="#b15928" points="682.5,-173.75 682.5,-213.25"/>
<text text-anchor="middle" x="753.88" y="-195.95" font-family="Times New Roman,serif" font-size="14.00">Alternating 180 Degree</text>
<text text-anchor="middle" x="753.88" y="-180.2" font-family="Times New Roman,serif" font-size="14.00">Pullover</text>
</a>
</g>
</g>
<!-- mov_millprep&#45;&gt;mov_alt180pull -->
<g id="edge38" class="edge">
<title>mov_millprep&#45;&gt;mov_alt180pull</title>
<path fill="none" stroke="black" d="M739.12,-260.21C739.12,-249.77 739.12,-236.03 739.12,-223.81"/>
<polygon fill="black" stroke="black" points="742.63,-224.16 739.12,-214.16 735.63,-224.16 742.63,-224.16"/>
</g>
<!-- ext_2h_s2s -->
<g id="node4" class="node">
<title>ext_2h_s2s</title>
<path fill="#b2df8a" stroke="#33a02c" d="M233.62,-558.75C233.62,-558.75 382.62,-558.75 382.62,-558.75 388.62,-558.75 394.62,-564.75 394.62,-570.75 394.62,-570.75 394.62,-586.25 394.62,-586.25 394.62,-592.25 388.62,-598.25 382.62,-598.25 382.62,-598.25 233.62,-598.25 233.62,-598.25 227.62,-598.25 221.62,-592.25 221.62,-586.25 221.62,-586.25 221.62,-570.75 221.62,-570.75 221.62,-564.75 227.62,-558.75 233.62,-558.75"/>
<text text-anchor="middle" x="246.88" y="-573.08" font-family="Times New Roman,serif" font-size="14.00">2H&#45;01</text>
<polyline fill="none" stroke="#33a02c" points="272.12,-558.75 272.12,-598.25"/>
<text text-anchor="middle" x="333.38" y="-580.95" font-family="Times New Roman,serif" font-size="14.00">Two&#45;Hand</text>
<text text-anchor="middle" x="333.38" y="-565.2" font-family="Times New Roman,serif" font-size="14.00">Side to Side Swing</text>
</g>
<!-- ext_2h_sideswingl2h -->
<g id="node5" class="node">
<title>ext_2h_sideswingl2h</title>
<path fill="#b2df8a" stroke="#33a02c" d="M169.62,-462.5C169.62,-462.5 282.62,-462.5 282.62,-462.5 288.62,-462.5 294.62,-468.5 294.62,-474.5 294.62,-474.5 294.62,-505.75 294.62,-505.75 294.62,-511.75 288.62,-517.75 282.62,-517.75 282.62,-517.75 169.62,-517.75 169.62,-517.75 163.62,-517.75 157.62,-511.75 157.62,-505.75 157.62,-505.75 157.62,-474.5 157.62,-474.5 157.62,-468.5 163.62,-462.5 169.62,-462.5"/>
<text text-anchor="middle" x="182.88" y="-484.7" font-family="Times New Roman,serif" font-size="14.00">2H&#45;02</text>
<polyline fill="none" stroke="#33a02c" points="208.12,-462.5 208.12,-517.75"/>
<text text-anchor="middle" x="251.38" y="-500.45" font-family="Times New Roman,serif" font-size="14.00">Two&#45;Hand</text>
<text text-anchor="middle" x="251.38" y="-484.7" font-family="Times New Roman,serif" font-size="14.00">Side Swing</text>
<text text-anchor="middle" x="251.38" y="-468.95" font-family="Times New Roman,serif" font-size="14.00">Low to High</text>
</g>
<!-- ext_2h_s2s&#45;&gt;ext_2h_sideswingl2h -->
<g id="edge1" class="edge">
<title>ext_2h_s2s&#45;&gt;ext_2h_sideswingl2h</title>
<path fill="none" stroke="black" d="M290.33,-558.76C281.07,-549 269.45,-536.76 258.66,-525.39"/>
<polygon fill="black" stroke="black" points="261.77,-523.54 252.35,-518.7 256.7,-528.36 261.77,-523.54"/>
</g>
<!-- mov_s2s -->
<g id="node14" class="node">
<title>mov_s2s</title>
<g id="a_node14"><a xlink:href="https://www.youtube.com/watch?v=cosgyt2BQG4&amp;list=PLk4oYPJ7TXKgCH_TpdUCNs2-m5ZCqx-Pw" xlink:title="{{01|Side to Side Swing}|ELBOWS LOCKED}">
<path fill="#ffff99" stroke="#b15928" d="M325.12,-466.38C325.12,-466.38 453.12,-466.38 453.12,-466.38 459.12,-466.38 465.12,-472.38 465.12,-478.38 465.12,-478.38 465.12,-501.88 465.12,-501.88 465.12,-507.88 459.12,-513.88 453.12,-513.88 453.12,-513.88 325.12,-513.88 325.12,-513.88 319.12,-513.88 313.12,-507.88 313.12,-501.88 313.12,-501.88 313.12,-478.38 313.12,-478.38 313.12,-472.38 319.12,-466.38 325.12,-466.38"/>
<text text-anchor="middle" x="327.88" y="-496.57" font-family="Times New Roman,serif" font-size="14.00">01</text>
<polyline fill="none" stroke="#b15928" points="342.62,-490.12 342.62,-513.88"/>
<text text-anchor="middle" x="403.88" y="-496.57" font-family="Times New Roman,serif" font-size="14.00">Side to Side Swing</text>
<polyline fill="none" stroke="#b15928" points="313.12,-490.12 465.12,-490.12"/>
<text text-anchor="middle" x="389.12" y="-472.82" font-family="Times New Roman,serif" font-size="14.00">ELBOWS LOCKED</text>
</a>
</g>
</g>
<!-- ext_2h_s2s&#45;&gt;mov_s2s -->
<g id="edge7" class="edge">
<title>ext_2h_s2s&#45;&gt;mov_s2s</title>
<path fill="none" stroke="black" d="M325.7,-558.76C335.85,-547.93 348.87,-534.05 360.47,-521.68"/>
<polygon fill="black" stroke="black" points="362.55,-524.51 366.84,-514.82 357.45,-519.72 362.55,-524.51"/>
</g>
<!-- ext_2h_s2srockit -->
<g id="node8" class="node">
<title>ext_2h_s2srockit</title>
<path fill="#b2df8a" stroke="#33a02c" d="M163.75,-354.38C163.75,-354.38 274.5,-354.38 274.5,-354.38 280.5,-354.38 286.5,-360.38 286.5,-366.38 286.5,-366.38 286.5,-397.62 286.5,-397.62 286.5,-403.62 280.5,-409.62 274.5,-409.62 274.5,-409.62 163.75,-409.62 163.75,-409.62 157.75,-409.62 151.75,-403.62 151.75,-397.62 151.75,-397.62 151.75,-366.38 151.75,-366.38 151.75,-360.38 157.75,-354.38 163.75,-354.38"/>
<text text-anchor="middle" x="177" y="-376.57" font-family="Times New Roman,serif" font-size="14.00">2H&#45;15</text>
<polyline fill="none" stroke="#33a02c" points="202.25,-354.38 202.25,-409.62"/>
<text text-anchor="middle" x="244.38" y="-392.32" font-family="Times New Roman,serif" font-size="14.00">Two&#45;Hand</text>
<text text-anchor="middle" x="244.38" y="-376.57" font-family="Times New Roman,serif" font-size="14.00">Side to Side</text>
<text text-anchor="middle" x="244.38" y="-360.82" font-family="Times New Roman,serif" font-size="14.00">Rockit</text>
</g>
<!-- ext_2h_sideswingl2h&#45;&gt;ext_2h_s2srockit -->
<g id="edge2" class="edge">
<title>ext_2h_sideswingl2h&#45;&gt;ext_2h_s2srockit</title>
<path fill="none" stroke="black" d="M224.38,-462.62C223.53,-449.83 222.51,-434.27 221.59,-420.31"/>
<polygon fill="black" stroke="black" points="225.03,-420.28 220.88,-410.54 218.04,-420.74 225.03,-420.28"/>
</g>
<!-- mov_sideswingl2h -->
<g id="node19" class="node">
<title>mov_sideswingl2h</title>
<g id="a_node19"><a xlink:href="https://www.youtube.com/watch?v=huwc0g3yLWk&amp;list=PLk4oYPJ7TXKgCH_TpdUCNs2-m5ZCqx-Pw&amp;index=5" xlink:title="{{08|Side Swing\nLow to High\nwith Stop}|HIP SNAP}">
<path fill="#ffff99" stroke="#b15928" d="M316.12,-342.5C316.12,-342.5 408.12,-342.5 408.12,-342.5 414.12,-342.5 420.12,-348.5 420.12,-354.5 420.12,-354.5 420.12,-409.5 420.12,-409.5 420.12,-415.5 414.12,-421.5 408.12,-421.5 408.12,-421.5 316.12,-421.5 316.12,-421.5 310.12,-421.5 304.12,-415.5 304.12,-409.5 304.12,-409.5 304.12,-354.5 304.12,-354.5 304.12,-348.5 310.12,-342.5 316.12,-342.5"/>
<text text-anchor="middle" x="318.88" y="-388.45" font-family="Times New Roman,serif" font-size="14.00">08</text>
<polyline fill="none" stroke="#b15928" points="333.62,-366.25 333.62,-421.5"/>
<text text-anchor="middle" x="376.88" y="-404.2" font-family="Times New Roman,serif" font-size="14.00">Side Swing</text>
<text text-anchor="middle" x="376.88" y="-388.45" font-family="Times New Roman,serif" font-size="14.00">Low to High</text>
<text text-anchor="middle" x="376.88" y="-372.7" font-family="Times New Roman,serif" font-size="14.00">with Stop</text>
<polyline fill="none" stroke="#b15928" points="304.12,-366.25 420.12,-366.25"/>
<text text-anchor="middle" x="362.12" y="-348.95" font-family="Times New Roman,serif" font-size="14.00">HIP SNAP</text>
</a>
</g>
</g>
<!-- ext_2h_sideswingl2h&#45;&gt;mov_sideswingl2h -->
<g id="edge12" class="edge">
<title>ext_2h_sideswingl2h&#45;&gt;mov_sideswingl2h</title>
<path fill="none" stroke="black" d="M260.09,-462.62C273.57,-452.1 289.45,-439.71 304.61,-427.88"/>
<polygon fill="black" stroke="black" points="306.21,-430.29 311.94,-421.38 301.91,-424.77 306.21,-430.29"/>
</g>
<!-- ext_2h_sc -->
<g id="node6" class="node">
<title>ext_2h_sc</title>
<path fill="#b2df8a" stroke="#33a02c" d="M616,-558.75C616,-558.75 722.25,-558.75 722.25,-558.75 728.25,-558.75 734.25,-564.75 734.25,-570.75 734.25,-570.75 734.25,-586.25 734.25,-586.25 734.25,-592.25 728.25,-598.25 722.25,-598.25 722.25,-598.25 616,-598.25 616,-598.25 610,-598.25 604,-592.25 604,-586.25 604,-586.25 604,-570.75 604,-570.75 604,-564.75 610,-558.75 616,-558.75"/>
<text text-anchor="middle" x="629.25" y="-573.08" font-family="Times New Roman,serif" font-size="14.00">2H&#45;09</text>
<polyline fill="none" stroke="#33a02c" points="654.5,-558.75 654.5,-598.25"/>
<text text-anchor="middle" x="694.38" y="-580.95" font-family="Times New Roman,serif" font-size="14.00">Two&#45;Hand</text>
<text text-anchor="middle" x="694.38" y="-565.2" font-family="Times New Roman,serif" font-size="14.00">Shield Cast</text>
</g>
<!-- ext_2h_sc&#45;&gt;mov_sc -->
<g id="edge10" class="edge">
<title>ext_2h_sc&#45;&gt;mov_sc</title>
<path fill="none" stroke="black" d="M673.2,-558.91C679.17,-534.34 691.96,-490.39 713.12,-458 725.9,-438.45 744.67,-420.2 760.59,-406.6"/>
<polygon fill="black" stroke="black" points="762.16,-409.01 767.61,-399.93 757.68,-403.63 762.16,-409.01"/>
</g>
<!-- ext_2h_pullover -->
<g id="node7" class="node">
<title>ext_2h_pullover</title>
<g id="a_node7"><a xlink:href="https://www.youtube.com/watch?v=jpIn1Sumg78&amp;list=PLk4oYPJ7TXKiueHS7UMPv-DxNMK6UELds&amp;index=7" xlink:title="{{2H&#45;07|Two&#45;Hand\nPullover}}">
<path fill="#b2df8a" stroke="#33a02c" d="M681.5,-635.25C681.5,-635.25 784.75,-635.25 784.75,-635.25 790.75,-635.25 796.75,-641.25 796.75,-647.25 796.75,-647.25 796.75,-662.75 796.75,-662.75 796.75,-668.75 790.75,-674.75 784.75,-674.75 784.75,-674.75 681.5,-674.75 681.5,-674.75 675.5,-674.75 669.5,-668.75 669.5,-662.75 669.5,-662.75 669.5,-647.25 669.5,-647.25 669.5,-641.25 675.5,-635.25 681.5,-635.25"/>
<text text-anchor="middle" x="694.75" y="-649.58" font-family="Times New Roman,serif" font-size="14.00">2H&#45;07</text>
<polyline fill="none" stroke="#33a02c" points="720,-635.25 720,-674.75"/>
<text text-anchor="middle" x="758.38" y="-657.45" font-family="Times New Roman,serif" font-size="14.00">Two&#45;Hand</text>
<text text-anchor="middle" x="758.38" y="-641.7" font-family="Times New Roman,serif" font-size="14.00">Pullover</text>
</a>
</g>
</g>
<!-- ext_2h_pullover&#45;&gt;ext_2h_sc -->
<g id="edge6" class="edge">
<title>ext_2h_pullover&#45;&gt;ext_2h_sc</title>
<path fill="none" stroke="black" d="M717.3,-635.58C709.75,-626.79 700.55,-616.09 692.23,-606.4"/>
<polygon fill="black" stroke="black" points="694.38,-604.53 685.21,-599.22 689.07,-609.09 694.38,-604.53"/>
</g>
<!-- mov_pullover -->
<g id="node17" class="node">
<title>mov_pullover</title>
<g id="a_node17"><a xlink:href="https://www.youtube.com/watch?v=HHT6TrTLJM8" xlink:title="{{04|Pullover}}">
<path fill="#ffff99" stroke="#b15928" d="M764.5,-560.5C764.5,-560.5 831.75,-560.5 831.75,-560.5 837.75,-560.5 843.75,-566.5 843.75,-572.5 843.75,-572.5 843.75,-584.5 843.75,-584.5 843.75,-590.5 837.75,-596.5 831.75,-596.5 831.75,-596.5 764.5,-596.5 764.5,-596.5 758.5,-596.5 752.5,-590.5 752.5,-584.5 752.5,-584.5 752.5,-572.5 752.5,-572.5 752.5,-566.5 758.5,-560.5 764.5,-560.5"/>
<text text-anchor="middle" x="767.25" y="-573.2" font-family="Times New Roman,serif" font-size="14.00">04</text>
<polyline fill="none" stroke="#b15928" points="782,-560.75 782,-596.5"/>
<text text-anchor="middle" x="812.88" y="-573.2" font-family="Times New Roman,serif" font-size="14.00">Pullover</text>
</a>
</g>
</g>
<!-- ext_2h_pullover&#45;&gt;mov_pullover -->
<g id="edge11" class="edge">
<title>ext_2h_pullover&#45;&gt;mov_pullover</title>
<path fill="none" stroke="black" d="M749.19,-635.58C757.36,-626.23 767.4,-614.72 776.26,-604.56"/>
<polygon fill="black" stroke="black" points="779.42,-607.27 783.35,-597.43 774.14,-602.66 779.42,-607.27"/>
</g>
<!-- mov_s2srockit -->
<g id="node20" class="node">
<title>mov_s2srockit</title>
<g id="a_node20"><a xlink:href="https://www.youtube.com/watch?v=I26O1ct_hik&amp;list=PLk4oYPJ7TXKgCH_TpdUCNs2-m5ZCqx-Pw&amp;index=6" xlink:title="{{09|Side to Side Rockit}}">
<path fill="#ffff99" stroke="#b15928" d="M205.62,-259.88C205.62,-259.88 336.62,-259.88 336.62,-259.88 342.62,-259.88 348.62,-265.88 348.62,-271.88 348.62,-271.88 348.62,-283.88 348.62,-283.88 348.62,-289.88 342.62,-295.88 336.62,-295.88 336.62,-295.88 205.62,-295.88 205.62,-295.88 199.62,-295.88 193.62,-289.88 193.62,-283.88 193.62,-283.88 193.62,-271.88 193.62,-271.88 193.62,-265.88 199.62,-259.88 205.62,-259.88"/>
<text text-anchor="middle" x="208.38" y="-272.57" font-family="Times New Roman,serif" font-size="14.00">09</text>
<polyline fill="none" stroke="#b15928" points="223.12,-260.12 223.12,-295.88"/>
<text text-anchor="middle" x="285.88" y="-272.57" font-family="Times New Roman,serif" font-size="14.00">Side to Side Rockit</text>
</a>
</g>
</g>
<!-- ext_2h_s2srockit&#45;&gt;mov_s2srockit -->
<g id="edge13" class="edge">
<title>ext_2h_s2srockit&#45;&gt;mov_s2srockit</title>
<path fill="none" stroke="black" d="M232.65,-354.43C240.33,-339.36 249.91,-320.54 257.59,-305.46"/>
<polygon fill="black" stroke="black" points="261.13,-307.21 262.55,-296.71 254.9,-304.03 261.13,-307.21"/>
</g>
<!-- ext_2h_incircle -->
<g id="node9" class="node">
<title>ext_2h_incircle</title>
<path fill="#b2df8a" stroke="#33a02c" d="M508.62,-470.38C508.62,-470.38 621.62,-470.38 621.62,-470.38 627.62,-470.38 633.62,-476.38 633.62,-482.38 633.62,-482.38 633.62,-497.88 633.62,-497.88 633.62,-503.88 627.62,-509.88 621.62,-509.88 621.62,-509.88 508.62,-509.88 508.62,-509.88 502.62,-509.88 496.62,-503.88 496.62,-497.88 496.62,-497.88 496.62,-482.38 496.62,-482.38 496.62,-476.38 502.62,-470.38 508.62,-470.38"/>
<text text-anchor="middle" x="521.88" y="-484.7" font-family="Times New Roman,serif" font-size="14.00">2H&#45;05</text>
<polyline fill="none" stroke="#33a02c" points="547.12,-470.38 547.12,-509.88"/>
<text text-anchor="middle" x="590.38" y="-492.57" font-family="Times New Roman,serif" font-size="14.00">Two&#45;Hand</text>
<text text-anchor="middle" x="590.38" y="-476.82" font-family="Times New Roman,serif" font-size="14.00">Inside Circle</text>
</g>
<!-- ext_2h_outcircle -->
<g id="node10" class="node">
<title>ext_2h_outcircle</title>
<path fill="#b2df8a" stroke="#33a02c" d="M583.75,-362.25C583.75,-362.25 706.5,-362.25 706.5,-362.25 712.5,-362.25 718.5,-368.25 718.5,-374.25 718.5,-374.25 718.5,-389.75 718.5,-389.75 718.5,-395.75 712.5,-401.75 706.5,-401.75 706.5,-401.75 583.75,-401.75 583.75,-401.75 577.75,-401.75 571.75,-395.75 571.75,-389.75 571.75,-389.75 571.75,-374.25 571.75,-374.25 571.75,-368.25 577.75,-362.25 583.75,-362.25"/>
<text text-anchor="middle" x="597" y="-376.57" font-family="Times New Roman,serif" font-size="14.00">2H&#45;06</text>
<polyline fill="none" stroke="#33a02c" points="622.25,-362.25 622.25,-401.75"/>
<text text-anchor="middle" x="670.38" y="-384.45" font-family="Times New Roman,serif" font-size="14.00">Two&#45;Hand</text>
<text text-anchor="middle" x="670.38" y="-368.7" font-family="Times New Roman,serif" font-size="14.00">Outside Circle</text>
</g>
<!-- ext_2h_incircle&#45;&gt;ext_2h_outcircle -->
<g id="edge5" class="edge">
<title>ext_2h_incircle&#45;&gt;ext_2h_outcircle</title>
<path fill="none" stroke="black" d="M579.06,-470.64C591.6,-454 610.2,-429.33 624.47,-410.4"/>
<polygon fill="black" stroke="black" points="627.86,-412.72 631.08,-402.63 622.27,-408.51 627.86,-412.72"/>
</g>
<!-- mov_incircle -->
<g id="node15" class="node">
<title>mov_incircle</title>
<g id="a_node15"><a xlink:href="https://www.youtube.com/watch?v=-gtRj1KEUmw" xlink:title="{{02|Inside Circle}}">
<path fill="#ffff99" stroke="#b15928" d="M450.12,-364C450.12,-364 542.12,-364 542.12,-364 548.12,-364 554.12,-370 554.12,-376 554.12,-376 554.12,-388 554.12,-388 554.12,-394 548.12,-400 542.12,-400 542.12,-400 450.12,-400 450.12,-400 444.12,-400 438.12,-394 438.12,-388 438.12,-388 438.12,-376 438.12,-376 438.12,-370 444.12,-364 450.12,-364"/>
<text text-anchor="middle" x="452.88" y="-376.7" font-family="Times New Roman,serif" font-size="14.00">02</text>
<polyline fill="none" stroke="#b15928" points="467.62,-364.25 467.62,-400"/>
<text text-anchor="middle" x="510.88" y="-376.7" font-family="Times New Roman,serif" font-size="14.00">Inside Circle</text>
</a>
</g>
</g>
<!-- ext_2h_incircle&#45;&gt;mov_incircle -->
<g id="edge8" class="edge">
<title>ext_2h_incircle&#45;&gt;mov_incircle</title>
<path fill="none" stroke="black" d="M553.11,-470.64C542.01,-453.57 525.41,-428.04 512.99,-408.94"/>
<polygon fill="black" stroke="black" points="515.48,-407.35 507.1,-400.87 509.61,-411.17 515.48,-407.35"/>
</g>
<!-- mov_outcircle -->
<g id="node16" class="node">
<title>mov_outcircle</title>
<g id="a_node16"><a xlink:href="https://www.youtube.com/watch?v=Mf2QuZvRtQ4&amp;list=PLk4oYPJ7TXKgCH_TpdUCNs2-m5ZCqx-Pw&amp;index=2" xlink:title="{{03|Outside Circle}}">
<path fill="#ffff99" stroke="#b15928" d="M513.25,-259.88C513.25,-259.88 615,-259.88 615,-259.88 621,-259.88 627,-265.88 627,-271.88 627,-271.88 627,-283.88 627,-283.88 627,-289.88 621,-295.88 615,-295.88 615,-295.88 513.25,-295.88 513.25,-295.88 507.25,-295.88 501.25,-289.88 501.25,-283.88 501.25,-283.88 501.25,-271.88 501.25,-271.88 501.25,-265.88 507.25,-259.88 513.25,-259.88"/>
<text text-anchor="middle" x="516" y="-272.57" font-family="Times New Roman,serif" font-size="14.00">03</text>
<polyline fill="none" stroke="#b15928" points="530.75,-260.12 530.75,-295.88"/>
<text text-anchor="middle" x="578.88" y="-272.57" font-family="Times New Roman,serif" font-size="14.00">Outside Circle</text>
</a>
</g>
</g>
<!-- ext_2h_outcircle&#45;&gt;mov_outcircle -->
<g id="edge9" class="edge">
<title>ext_2h_outcircle&#45;&gt;mov_outcircle</title>
<path fill="none" stroke="black" d="M630.27,-362.27C617.32,-345.94 598.42,-322.11 584.14,-304.11"/>
<polygon fill="black" stroke="black" points="586.5,-302.45 577.54,-296.79 581.02,-306.8 586.5,-302.45"/>
</g>
<!-- ext_2h_outpend -->
<g id="node11" class="node">
<title>ext_2h_outpend</title>
<path fill="#b2df8a" stroke="#33a02c" d="M18.5,-258.12C18.5,-258.12 163.75,-258.12 163.75,-258.12 169.75,-258.12 175.75,-264.12 175.75,-270.12 175.75,-270.12 175.75,-285.62 175.75,-285.62 175.75,-291.62 169.75,-297.62 163.75,-297.62 163.75,-297.62 18.5,-297.62 18.5,-297.62 12.5,-297.62 6.5,-291.62 6.5,-285.62 6.5,-285.62 6.5,-270.12 6.5,-270.12 6.5,-264.12 12.5,-258.12 18.5,-258.12"/>
<text text-anchor="middle" x="31.75" y="-272.45" font-family="Times New Roman,serif" font-size="14.00">2H&#45;16</text>
<polyline fill="none" stroke="#33a02c" points="57,-258.12 57,-297.62"/>
<text text-anchor="middle" x="116.38" y="-280.32" font-family="Times New Roman,serif" font-size="14.00">Two&#45;Hand</text>
<text text-anchor="middle" x="116.38" y="-264.57" font-family="Times New Roman,serif" font-size="14.00">Outside Pendulum</text>
</g>
<!-- ext_2h_inpend -->
<g id="node12" class="node">
<title>ext_2h_inpend</title>
<path fill="#b2df8a" stroke="#33a02c" d="M24.38,-173.75C24.38,-173.75 159.88,-173.75 159.88,-173.75 165.88,-173.75 171.88,-179.75 171.88,-185.75 171.88,-185.75 171.88,-201.25 171.88,-201.25 171.88,-207.25 165.88,-213.25 159.88,-213.25 159.88,-213.25 24.38,-213.25 24.38,-213.25 18.38,-213.25 12.38,-207.25 12.38,-201.25 12.38,-201.25 12.38,-185.75 12.38,-185.75 12.38,-179.75 18.38,-173.75 24.38,-173.75"/>
<text text-anchor="middle" x="37.62" y="-188.07" font-family="Times New Roman,serif" font-size="14.00">2H&#45;16</text>
<polyline fill="none" stroke="#33a02c" points="62.88,-173.75 62.88,-213.25"/>
<text text-anchor="middle" x="117.38" y="-195.95" font-family="Times New Roman,serif" font-size="14.00">Two&#45;Hand</text>
<text text-anchor="middle" x="117.38" y="-180.2" font-family="Times New Roman,serif" font-size="14.00">Inside Pendulum</text>
</g>
<!-- ext_2h_outpend&#45;&gt;ext_2h_inpend -->
<g id="edge3" class="edge">
<title>ext_2h_outpend&#45;&gt;ext_2h_inpend</title>
<path fill="none" stroke="black" d="M91.35,-258.18C91.47,-248.07 91.63,-235.35 91.77,-223.94"/>
<polygon fill="black" stroke="black" points="95.28,-224.16 91.9,-214.12 88.28,-224.07 95.28,-224.16"/>
</g>
<!-- mov_outpend -->
<g id="node23" class="node">
<title>mov_outpend</title>
<g id="a_node23"><a xlink:href="https://www.youtube.com/watch?v=I26O1ct_hik&amp;list=PLk4oYPJ7TXKgCH_TpdUCNs2-m5ZCqx-Pw&amp;index=9" xlink:title="{{12|Outside Pendulum}}">
<path fill="#ffff99" stroke="#b15928" d="M209,-175.5C209,-175.5 333.25,-175.5 333.25,-175.5 339.25,-175.5 345.25,-181.5 345.25,-187.5 345.25,-187.5 345.25,-199.5 345.25,-199.5 345.25,-205.5 339.25,-211.5 333.25,-211.5 333.25,-211.5 209,-211.5 209,-211.5 203,-211.5 197,-205.5 197,-199.5 197,-199.5 197,-187.5 197,-187.5 197,-181.5 203,-175.5 209,-175.5"/>
<text text-anchor="middle" x="211.75" y="-188.2" font-family="Times New Roman,serif" font-size="14.00">12</text>
<polyline fill="none" stroke="#b15928" points="226.5,-175.75 226.5,-211.5"/>
<text text-anchor="middle" x="285.88" y="-188.2" font-family="Times New Roman,serif" font-size="14.00">Outside Pendulum</text>
</a>
</g>
</g>
<!-- ext_2h_outpend&#45;&gt;mov_outpend -->
<g id="edge14" class="edge">
<title>ext_2h_outpend&#45;&gt;mov_outpend</title>
<path fill="none" stroke="black" d="M131.97,-258.18C159.43,-245.61 195.71,-229.01 224.34,-215.91"/>
<polygon fill="black" stroke="black" points="225.48,-218.78 233.12,-211.44 222.57,-212.42 225.48,-218.78"/>
</g>
<!-- ext_2h_altpend -->
<g id="node13" class="node">
<title>ext_2h_altpend</title>
<g id="a_node13"><a xlink:href="https://www.youtube.com/watch?v=GULjXPS_ba4" xlink:title="{{2H&#45;??|Two&#45;Hand\nAlternating Pendulum}}">
<path fill="#b2df8a" stroke="#33a02c" d="M12,-97.25C12,-97.25 172.25,-97.25 172.25,-97.25 178.25,-97.25 184.25,-103.25 184.25,-109.25 184.25,-109.25 184.25,-124.75 184.25,-124.75 184.25,-130.75 178.25,-136.75 172.25,-136.75 172.25,-136.75 12,-136.75 12,-136.75 6,-136.75 0,-130.75 0,-124.75 0,-124.75 0,-109.25 0,-109.25 0,-103.25 6,-97.25 12,-97.25"/>
<text text-anchor="middle" x="24.5" y="-111.58" font-family="Times New Roman,serif" font-size="14.00">2H&#45;??</text>
<polyline fill="none" stroke="#33a02c" points="49,-97.25 49,-136.75"/>
<text text-anchor="middle" x="116.62" y="-119.45" font-family="Times New Roman,serif" font-size="14.00">Two&#45;Hand</text>
<text text-anchor="middle" x="116.62" y="-103.7" font-family="Times New Roman,serif" font-size="14.00">Alternating Pendulum</text>
</a>
</g>
</g>
<!-- ext_2h_inpend&#45;&gt;ext_2h_altpend -->
<g id="edge4" class="edge">
<title>ext_2h_inpend&#45;&gt;ext_2h_altpend</title>
<path fill="none" stroke="black" d="M92.12,-174.08C92.12,-166.09 92.12,-156.52 92.12,-147.56"/>
<polygon fill="black" stroke="black" points="95.63,-147.72 92.12,-137.72 88.63,-147.72 95.63,-147.72"/>
</g>
<!-- mov_inpend -->
<g id="node24" class="node">
<title>mov_inpend</title>
<g id="a_node24"><a xlink:href="https://www.youtube.com/watch?v=I26O1ct_hik&amp;list=PLk4oYPJ7TXKgCH_TpdUCNs2-m5ZCqx-Pw&amp;index=10" xlink:title="{{13|Inside Pendulum}}">
<path fill="#ffff99" stroke="#b15928" d="M213.88,-99C213.88,-99 328.38,-99 328.38,-99 334.38,-99 340.38,-105 340.38,-111 340.38,-111 340.38,-123 340.38,-123 340.38,-129 334.38,-135 328.38,-135 328.38,-135 213.88,-135 213.88,-135 207.88,-135 201.88,-129 201.88,-123 201.88,-123 201.88,-111 201.88,-111 201.88,-105 207.88,-99 213.88,-99"/>
<text text-anchor="middle" x="216.62" y="-111.7" font-family="Times New Roman,serif" font-size="14.00">13</text>
<polyline fill="none" stroke="#b15928" points="231.38,-99.25 231.38,-135"/>
<text text-anchor="middle" x="285.88" y="-111.7" font-family="Times New Roman,serif" font-size="14.00">Inside Pendulum</text>
</a>
</g>
</g>
<!-- ext_2h_inpend&#45;&gt;mov_inpend -->
<g id="edge15" class="edge">
<title>ext_2h_inpend&#45;&gt;mov_inpend</title>
<path fill="none" stroke="black" d="M136.83,-173.89C162.15,-163.35 193.92,-150.13 220.2,-139.19"/>
<polygon fill="black" stroke="black" points="221.46,-142.04 229.35,-134.97 218.77,-135.58 221.46,-142.04"/>
</g>
<!-- mov_altpend -->
<g id="node27" class="node">
<title>mov_altpend</title>
<g id="a_node27"><a xlink:href="https://www.youtube.com/watch?v=I26O1ct_hik&amp;list=PLk4oYPJ7TXKgCH_TpdUCNs2-m5ZCqx-Pw&amp;index=16" xlink:title="{{16|Alternating Pendulum}}">
<path fill="#ffff99" stroke="#b15928" d="M200.75,-24.25C200.75,-24.25 341.5,-24.25 341.5,-24.25 347.5,-24.25 353.5,-30.25 353.5,-36.25 353.5,-36.25 353.5,-48.25 353.5,-48.25 353.5,-54.25 347.5,-60.25 341.5,-60.25 341.5,-60.25 200.75,-60.25 200.75,-60.25 194.75,-60.25 188.75,-54.25 188.75,-48.25 188.75,-48.25 188.75,-36.25 188.75,-36.25 188.75,-30.25 194.75,-24.25 200.75,-24.25"/>
<text text-anchor="middle" x="203.5" y="-36.95" font-family="Times New Roman,serif" font-size="14.00">16</text>
<polyline fill="none" stroke="#b15928" points="218.25,-24.5 218.25,-60.25"/>
<text text-anchor="middle" x="285.88" y="-36.95" font-family="Times New Roman,serif" font-size="14.00">Alternating Pendulum</text>
</a>
</g>
</g>
<!-- ext_2h_altpend&#45;&gt;mov_altpend -->
<g id="edge16" class="edge">
<title>ext_2h_altpend&#45;&gt;mov_altpend</title>
<path fill="none" stroke="black" d="M138.22,-97.27C163.1,-87.16 193.87,-74.65 219.54,-64.22"/>
<polygon fill="black" stroke="black" points="220.52,-67.19 228.47,-60.18 217.89,-60.7 220.52,-67.19"/>
</g>
<!-- mov_s2s&#45;&gt;mov_incircle -->
<g id="edge18" class="edge">
<title>mov_s2s&#45;&gt;mov_incircle</title>
<path fill="none" stroke="black" d="M411.82,-466.62C429.27,-449.31 453.35,-425.43 471.31,-407.62"/>
<polygon fill="black" stroke="black" points="473.45,-410.43 478.08,-400.9 468.52,-405.46 473.45,-410.43"/>
</g>
<!-- mov_s2s&#45;&gt;mov_sideswingl2h -->
<g id="edge17" class="edge">
<title>mov_s2s&#45;&gt;mov_sideswingl2h</title>
<path fill="none" stroke="black" d="M383.4,-466.62C380.81,-456.45 377.65,-444.02 374.56,-431.88"/>
<polygon fill="black" stroke="black" points="377.74,-431.18 371.88,-422.35 370.96,-432.91 377.74,-431.18"/>
</g>
<!-- mov_incircle&#45;&gt;mov_millprep -->
<g id="edge36" class="edge">
<title>mov_incircle&#45;&gt;mov_millprep</title>
<path fill="none" stroke="black" d="M522.58,-364.1C534.67,-356.77 549.34,-348.42 563.12,-342 601.26,-324.24 645.89,-308.29 680.66,-296.86"/>
<polygon fill="black" stroke="black" points="681.69,-299.88 690.12,-293.46 679.53,-293.22 681.69,-299.88"/>
</g>
<!-- mov_incircle&#45;&gt;mov_outcircle -->
<g id="edge19" class="edge">
<title>mov_incircle&#45;&gt;mov_outcircle</title>
<path fill="none" stroke="black" d="M507.35,-364.14C518.08,-348.02 534.41,-323.5 546.81,-304.88"/>
<polygon fill="black" stroke="black" points="550.25,-307.03 552.88,-296.76 544.42,-303.15 550.25,-307.03"/>
</g>
<!-- mov_altcircle -->
<g id="node22" class="node">
<title>mov_altcircle</title>
<g id="a_node22"><a xlink:href="https://www.youtube.com/watch?v=I26O1ct_hik&amp;list=PLk4oYPJ7TXKgCH_TpdUCNs2-m5ZCqx-Pw&amp;index=8" xlink:title="{{11|Alternating Circle}}">
<path fill="#ffff99" stroke="#b15928" d="M505,-175.5C505,-175.5 623.25,-175.5 623.25,-175.5 629.25,-175.5 635.25,-181.5 635.25,-187.5 635.25,-187.5 635.25,-199.5 635.25,-199.5 635.25,-205.5 629.25,-211.5 623.25,-211.5 623.25,-211.5 505,-211.5 505,-211.5 499,-211.5 493,-205.5 493,-199.5 493,-199.5 493,-187.5 493,-187.5 493,-181.5 499,-175.5 505,-175.5"/>
<text text-anchor="middle" x="507.75" y="-188.2" font-family="Times New Roman,serif" font-size="14.00">11</text>
<polyline fill="none" stroke="#b15928" points="522.5,-175.75 522.5,-211.5"/>
<text text-anchor="middle" x="578.88" y="-188.2" font-family="Times New Roman,serif" font-size="14.00">Alternating Circle</text>
</a>
</g>
</g>
<!-- mov_outcircle&#45;&gt;mov_altcircle -->
<g id="edge24" class="edge">
<title>mov_outcircle&#45;&gt;mov_altcircle</title>
<path fill="none" stroke="black" d="M564.12,-260.21C564.12,-249.34 564.12,-234.88 564.12,-222.3"/>
<polygon fill="black" stroke="black" points="567.63,-222.43 564.12,-212.43 560.63,-222.43 567.63,-222.43"/>
</g>
<!-- mov_outcircle&#45;&gt;mov_outpend -->
<g id="edge22" class="edge">
<title>mov_outcircle&#45;&gt;mov_outpend</title>
<path fill="none" stroke="black" d="M521.77,-259.99C512.1,-256.4 501.82,-252.78 492.12,-249.75 447.59,-235.84 397.16,-223.02 355.73,-213.24"/>
<polygon fill="black" stroke="black" points="356.67,-209.62 346.13,-210.75 355.07,-216.44 356.67,-209.62"/>
</g>
<!-- mov_pullover&#45;&gt;mov_backs2s -->
<g id="edge28" class="edge">
<title>mov_pullover&#45;&gt;mov_backs2s</title>
<path fill="none" stroke="black" d="M827.01,-560.64C847.12,-548.9 874.42,-532.97 897.81,-519.32"/>
<polygon fill="black" stroke="black" points="899.36,-521.89 906.23,-513.83 895.83,-515.84 899.36,-521.89"/>
</g>
<!-- mov_pullover&#45;&gt;mov_perry -->
<g id="edge30" class="edge">
<title>mov_pullover&#45;&gt;mov_perry</title>
<path fill="none" stroke="black" d="M796.78,-560.85C796.12,-552.71 795.29,-542.52 794.48,-532.47"/>
<polygon fill="black" stroke="black" points="797.9,-532.4 793.6,-522.71 790.92,-532.96 797.9,-532.4"/>
</g>
<!-- mov_pullover&#45;&gt;mov_sc -->
<g id="edge27" class="edge">
<title>mov_pullover&#45;&gt;mov_sc</title>
<path fill="none" stroke="black" d="M764.33,-560.71C749.75,-551.52 734.21,-538.64 726.12,-522.25 713.5,-496.64 716.14,-484.75 726.12,-458 733.42,-438.43 748.38,-420.58 762.11,-407.21"/>
<polygon fill="black" stroke="black" points="764.06,-410.25 768.99,-400.87 759.28,-405.13 764.06,-410.25"/>
</g>
<!-- mov_pullover&#45;&gt;mov_outpull -->
<g id="edge34" class="edge">
<title>mov_pullover&#45;&gt;mov_outpull</title>
<path fill="none" stroke="black" d="M843.62,-573.55C905.86,-567.1 1012.54,-551.93 1036.12,-522.25 1053.89,-499.89 1048.64,-483.67 1036.12,-458 1026.89,-439.06 1010.3,-423.5 993.48,-411.56"/>
<polygon fill="black" stroke="black" points="995.95,-408.33 985.7,-405.65 992.04,-414.14 995.95,-408.33"/>
</g>
<!-- mov_sc&#45;&gt;mov_millprep -->
<g id="edge37" class="edge">
<title>mov_sc&#45;&gt;mov_millprep</title>
<path fill="none" stroke="black" d="M782.54,-364.14C774.41,-348.17 762.08,-323.95 752.63,-305.4"/>
<polygon fill="black" stroke="black" points="755.38,-304.09 747.72,-296.76 749.14,-307.26 755.38,-304.09"/>
</g>
<!-- mov_sideswingl2h&#45;&gt;mov_s2srockit -->
<g id="edge20" class="edge">
<title>mov_sideswingl2h&#45;&gt;mov_s2srockit</title>
<path fill="none" stroke="black" d="M327.98,-342.68C316.37,-329.66 303.71,-315.45 293.29,-303.75"/>
<polygon fill="black" stroke="black" points="296.41,-301.87 287.15,-296.73 291.19,-306.53 296.41,-301.87"/>
</g>
<!-- mov_sideswingl2hcont -->
<g id="node21" class="node">
<title>mov_sideswingl2hcont</title>
<g id="a_node21"><a xlink:href="https://www.youtube.com/watch?v=I26O1ct_hik&amp;list=PLk4oYPJ7TXKgCH_TpdUCNs2-m5ZCqx-Pw&amp;index=7" xlink:title="{{10|Side Swing\nLow to High\nContinuous}}">
<path fill="#ffff99" stroke="#b15928" d="M379.12,-250.25C379.12,-250.25 471.12,-250.25 471.12,-250.25 477.12,-250.25 483.12,-256.25 483.12,-262.25 483.12,-262.25 483.12,-293.5 483.12,-293.5 483.12,-299.5 477.12,-305.5 471.12,-305.5 471.12,-305.5 379.12,-305.5 379.12,-305.5 373.12,-305.5 367.12,-299.5 367.12,-293.5 367.12,-293.5 367.12,-262.25 367.12,-262.25 367.12,-256.25 373.12,-250.25 379.12,-250.25"/>
<text text-anchor="middle" x="381.88" y="-272.45" font-family="Times New Roman,serif" font-size="14.00">10</text>
<polyline fill="none" stroke="#b15928" points="396.62,-250.25 396.62,-305.5"/>
<text text-anchor="middle" x="439.88" y="-288.2" font-family="Times New Roman,serif" font-size="14.00">Side Swing</text>
<text text-anchor="middle" x="439.88" y="-272.45" font-family="Times New Roman,serif" font-size="14.00">Low to High</text>
<text text-anchor="middle" x="439.88" y="-256.7" font-family="Times New Roman,serif" font-size="14.00">Continuous</text>
</a>
</g>
</g>
<!-- mov_sideswingl2h&#45;&gt;mov_sideswingl2hcont -->
<g id="edge23" class="edge">
<title>mov_sideswingl2h&#45;&gt;mov_sideswingl2hcont</title>
<path fill="none" stroke="black" d="M385.76,-342.68C391.46,-333.44 397.53,-323.6 403.15,-314.49"/>
<polygon fill="black" stroke="black" points="406.54,-316.66 408.82,-306.31 400.59,-312.99 406.54,-316.66"/>
</g>
<!-- mov_s2srockit&#45;&gt;mov_outpend -->
<g id="edge21" class="edge">
<title>mov_s2srockit&#45;&gt;mov_outpend</title>
<path fill="none" stroke="black" d="M271.12,-260.21C271.12,-249.34 271.12,-234.88 271.12,-222.3"/>
<polygon fill="black" stroke="black" points="274.63,-222.43 271.12,-212.43 267.63,-222.43 274.63,-222.43"/>
</g>
<!-- mov_altcircle&#45;&gt;mov_altpend -->
<g id="edge44" class="edge">
<title>mov_altcircle&#45;&gt;mov_altpend</title>
<path fill="none" stroke="black" d="M530.8,-175.52C477.49,-148.37 373.05,-95.17 314.16,-65.17"/>
<polygon fill="black" stroke="black" points="315.92,-61.63 305.42,-60.21 312.74,-67.87 315.92,-61.63"/>
</g>
<!-- mov_mill -->
<g id="node29" class="node">
<title>mov_mill</title>
<g id="a_node29"><a xlink:href="https://www.youtube.com/watch?v=I26O1ct_hik&amp;list=PLk4oYPJ7TXKgCH_TpdUCNs2-m5ZCqx-Pw&amp;index=19" xlink:title="{{19|Mill}}">
<path fill="#ffff99" stroke="#b15928" d="M700.88,-99C700.88,-99 743.38,-99 743.38,-99 749.38,-99 755.38,-105 755.38,-111 755.38,-111 755.38,-123 755.38,-123 755.38,-129 749.38,-135 743.38,-135 743.38,-135 700.88,-135 700.88,-135 694.88,-135 688.88,-129 688.88,-123 688.88,-123 688.88,-111 688.88,-111 688.88,-105 694.88,-99 700.88,-99"/>
<text text-anchor="middle" x="703.62" y="-111.7" font-family="Times New Roman,serif" font-size="14.00">19</text>
<polyline fill="none" stroke="#b15928" points="718.38,-99.25 718.38,-135"/>
<text text-anchor="middle" x="736.88" y="-111.7" font-family="Times New Roman,serif" font-size="14.00">Mill</text>
</a>
</g>
</g>
<!-- mov_altcircle&#45;&gt;mov_mill -->
<g id="edge41" class="edge">
<title>mov_altcircle&#45;&gt;mov_mill</title>
<path fill="none" stroke="black" d="M599.98,-175.59C623.5,-164.5 654.4,-149.94 679.23,-138.23"/>
<polygon fill="black" stroke="black" points="680.56,-141 688.11,-133.57 677.57,-134.67 680.56,-141"/>
</g>
<!-- mov_revmill -->
<g id="node30" class="node">
<title>mov_revmill</title>
<g id="a_node30"><a xlink:href="https://www.youtube.com/watch?v=I26O1ct_hik&amp;list=PLk4oYPJ7TXKgCH_TpdUCNs2-m5ZCqx-Pw&amp;index=20" xlink:title="{{20|Reverse Mill}}">
<path fill="#ffff99" stroke="#b15928" d="M534.5,-99C534.5,-99 625.75,-99 625.75,-99 631.75,-99 637.75,-105 637.75,-111 637.75,-111 637.75,-123 637.75,-123 637.75,-129 631.75,-135 625.75,-135 625.75,-135 534.5,-135 534.5,-135 528.5,-135 522.5,-129 522.5,-123 522.5,-123 522.5,-111 522.5,-111 522.5,-105 528.5,-99 534.5,-99"/>
<text text-anchor="middle" x="537.25" y="-111.7" font-family="Times New Roman,serif" font-size="14.00">20</text>
<polyline fill="none" stroke="#b15928" points="552,-99.25 552,-135"/>
<text text-anchor="middle" x="594.88" y="-111.7" font-family="Times New Roman,serif" font-size="14.00">Reverse Mill</text>
</a>
</g>
</g>
<!-- mov_altcircle&#45;&gt;mov_revmill -->
<g id="edge42" class="edge">
<title>mov_altcircle&#45;&gt;mov_revmill</title>
<path fill="none" stroke="black" d="M567.76,-175.59C569.68,-166.64 572.09,-155.42 574.27,-145.28"/>
<polygon fill="black" stroke="black" points="577.83,-146.35 576.51,-135.84 570.99,-144.88 577.83,-146.35"/>
</g>
<!-- mov_outpend&#45;&gt;mov_inpend -->
<g id="edge25" class="edge">
<title>mov_outpend&#45;&gt;mov_inpend</title>
<path fill="none" stroke="black" d="M271.12,-175.59C271.12,-166.74 271.12,-155.66 271.12,-145.6"/>
<polygon fill="black" stroke="black" points="274.63,-145.84 271.12,-135.84 267.63,-145.84 274.63,-145.84"/>
</g>
<!-- mov_inpend&#45;&gt;mov_altpend -->
<g id="edge26" class="edge">
<title>mov_inpend&#45;&gt;mov_altpend</title>
<path fill="none" stroke="black" d="M271.12,-99.13C271.12,-90.77 271.12,-80.47 271.12,-70.99"/>
<polygon fill="black" stroke="black" points="274.63,-71.03 271.12,-61.03 267.63,-71.03 274.63,-71.03"/>
</g>
<!-- mov_inpull -->
<g id="node26" class="node">
<title>mov_inpull</title>
<g id="a_node26"><a xlink:href="https://www.youtube.com/watch?v=sJ5XCgdCMx8&amp;list=PLk4oYPJ7TXKgCH_TpdUCNs2-m5ZCqx-Pw&amp;index=15" xlink:title="{{15|Inside Pullover}|+ INT ROTATION}">
<path fill="#ffff99" stroke="#b15928" d="M855.75,-254.12C855.75,-254.12 960.5,-254.12 960.5,-254.12 966.5,-254.12 972.5,-260.12 972.5,-266.12 972.5,-266.12 972.5,-289.62 972.5,-289.62 972.5,-295.62 966.5,-301.62 960.5,-301.62 960.5,-301.62 855.75,-301.62 855.75,-301.62 849.75,-301.62 843.75,-295.62 843.75,-289.62 843.75,-289.62 843.75,-266.12 843.75,-266.12 843.75,-260.12 849.75,-254.12 855.75,-254.12"/>
<text text-anchor="middle" x="858.5" y="-284.32" font-family="Times New Roman,serif" font-size="14.00">15</text>
<polyline fill="none" stroke="#b15928" points="873.25,-277.88 873.25,-301.62"/>
<text text-anchor="middle" x="922.88" y="-284.32" font-family="Times New Roman,serif" font-size="14.00">Inside Pullover</text>
<polyline fill="none" stroke="#b15928" points="843.75,-277.88 972.5,-277.88"/>
<text text-anchor="middle" x="908.12" y="-260.57" font-family="Times New Roman,serif" font-size="14.00">+ INT ROTATION</text>
</a>
</g>
</g>
<!-- mov_outpull&#45;&gt;mov_inpull -->
<g id="edge35" class="edge">
<title>mov_outpull&#45;&gt;mov_inpull</title>
<path fill="none" stroke="black" d="M933.02,-358.34C928.71,-344.58 923.14,-326.81 918.36,-311.55"/>
<polygon fill="black" stroke="black" points="921.54,-310.97 915.21,-302.48 914.86,-313.07 921.54,-310.97"/>
</g>
<!-- mov_inpull&#45;&gt;mov_alt180pull -->
<g id="edge39" class="edge">
<title>mov_inpull&#45;&gt;mov_alt180pull</title>
<path fill="none" stroke="black" d="M861.5,-254.15C838.33,-242.86 810.37,-229.23 787.03,-217.85"/>
<polygon fill="black" stroke="black" points="788.86,-214.36 778.34,-213.13 785.8,-220.66 788.86,-214.36"/>
</g>
<!-- mov_alt180pull&#45;&gt;mov_mill -->
<g id="edge40" class="edge">
<title>mov_alt180pull&#45;&gt;mov_mill</title>
<path fill="none" stroke="black" d="M734.92,-174.08C732.96,-165.47 730.58,-155.04 728.41,-145.52"/>
<polygon fill="black" stroke="black" points="731.63,-144.9 725.99,-135.93 724.8,-146.46 731.63,-144.9"/>
</g>
<!-- mov_alt180pull&#45;&gt;mov_revmill -->
<g id="edge43" class="edge">
<title>mov_alt180pull&#45;&gt;mov_revmill</title>
<path fill="none" stroke="black" d="M699.41,-173.89C677.22,-163.49 649.45,-150.48 626.29,-139.63"/>
<polygon fill="black" stroke="black" points="627.88,-136.04 617.34,-134.97 624.91,-142.38 627.88,-136.04"/>
</g>
</g>
</svg>
