<?xml version="1.0" encoding="UTF-8" standalone="no"?>
<!DOCTYPE svg PUBLIC "-//W3C//DTD SVG 1.1//EN"
 "http://www.w3.org/Graphics/SVG/1.1/DTD/svg11.dtd">
<!-- Generated by graphviz version 8.1.0 (20230707.0739)
 -->
<!-- Title: kb_progression Pages: 1 -->
<svg width="1056pt" height="758pt"
 viewBox="0.00 0.00 1055.73 758.25" xmlns="http://www.w3.org/2000/svg" xmlns:xlink="http://www.w3.org/1999/xlink">
<g id="graph0" class="graph" transform="scale(1 1) rotate(0) translate(4 754.25)">
<title>kb_progression</title>
<polygon fill="white" stroke="none" points="-4,4 -4,-754.25 1051.73,-754.25 1051.73,4 -4,4"/>
<text text-anchor="middle" x="523.87" y="-6.45" font-family="Times New Roman,serif" font-size="14.00">Single Arm Heavy Club Skill Progression</text>
<!-- mov_backs2s -->
<g id="node1" class="node">
<title>mov_backs2s</title>
<g id="a_node1"><a xlink:href="https://www.youtube.com/watch?v=sxePeWDR1U0" xlink:title="{{05|Back Position Swing}|THUMB TO SHIRT}">
<path fill="#cab2d6" stroke="#6a3d9a" d="M877.25,-533.38C877.25,-533.38 1015,-533.38 1015,-533.38 1021,-533.38 1027,-539.38 1027,-545.38 1027,-545.38 1027,-568.88 1027,-568.88 1027,-574.88 1021,-580.88 1015,-580.88 1015,-580.88 877.25,-580.88 877.25,-580.88 871.25,-580.88 865.25,-574.88 865.25,-568.88 865.25,-568.88 865.25,-545.38 865.25,-545.38 865.25,-539.38 871.25,-533.38 877.25,-533.38"/>
<text text-anchor="middle" x="880" y="-563.58" font-family="Times New Roman,serif" font-size="14.00">05</text>
<polyline fill="none" stroke="#6a3d9a" points="894.75,-557.12 894.75,-580.88"/>
<text text-anchor="middle" x="960.88" y="-563.58" font-family="Times New Roman,serif" font-size="14.00">Back Position Swing</text>
<polyline fill="none" stroke="#6a3d9a" points="865.25,-557.12 1027,-557.12"/>
<text text-anchor="middle" x="946.12" y="-539.83" font-family="Times New Roman,serif" font-size="14.00">THUMB TO SHIRT</text>
</a>
</g>
</g>
<!-- mov_sc -->
<g id="node18" class="node">
<title>mov_sc</title>
<g id="a_node18"><a xlink:href="https://www.youtube.com/watch?v=huwc0g3yLWk&amp;list=PLk4oYPJ7TXKgCH_TpdUCNs2-m5ZCqx-Pw&amp;index=4" xlink:title="{{07|Shield Cast}|}">
<path fill="#ffff99" stroke="#b15928" d="M748.5,-425.25C748.5,-425.25 833.75,-425.25 833.75,-425.25 839.75,-425.25 845.75,-431.25 845.75,-437.25 845.75,-437.25 845.75,-460.75 845.75,-460.75 845.75,-466.75 839.75,-472.75 833.75,-472.75 833.75,-472.75 748.5,-472.75 748.5,-472.75 742.5,-472.75 736.5,-466.75 736.5,-460.75 736.5,-460.75 736.5,-437.25 736.5,-437.25 736.5,-431.25 742.5,-425.25 748.5,-425.25"/>
<text text-anchor="middle" x="751.25" y="-455.45" font-family="Times New Roman,serif" font-size="14.00">07</text>
<polyline fill="none" stroke="#b15928" points="766,-449 766,-472.75"/>
<text text-anchor="middle" x="805.88" y="-455.45" font-family="Times New Roman,serif" font-size="14.00">Shield Cast</text>
<polyline fill="none" stroke="#b15928" points="736.5,-449 845.75,-449"/>
<text text-anchor="middle" x="791.12" y="-431.7" font-family="Times New Roman,serif" font-size="14.00"> </text>
</a>
</g>
</g>
<!-- mov_backs2s&#45;&gt;mov_sc -->
<g id="edge29" class="edge">
<title>mov_backs2s&#45;&gt;mov_sc</title>
<path fill="none" stroke="black" d="M913.25,-533.62C889.91,-517.63 858.36,-496.03 833.18,-478.79"/>
<polygon fill="black" stroke="black" points="835.44,-475.42 825.22,-472.66 831.49,-481.19 835.44,-475.42"/>
</g>
<!-- mov_outpull -->
<g id="node25" class="node">
<title>mov_outpull</title>
<g id="a_node25"><a xlink:href="https://www.youtube.com/watch?v=sJ5XCgdCMx8&amp;list=PLk4oYPJ7TXKgCH_TpdUCNs2-m5ZCqx-Pw&amp;index=14" xlink:title="{{14|Outside Pullover}|+ EXT ROTATION}">
<path fill="#ffff99" stroke="#b15928" d="M882.88,-425.25C882.88,-425.25 997.38,-425.25 997.38,-425.25 1003.38,-425.25 1009.38,-431.25 1009.38,-437.25 1009.38,-437.25 1009.38,-460.75 1009.38,-460.75 1009.38,-466.75 1003.38,-472.75 997.38,-472.75 997.38,-472.75 882.88,-472.75 882.88,-472.75 876.88,-472.75 870.88,-466.75 870.88,-460.75 870.88,-460.75 870.88,-437.25 870.88,-437.25 870.88,-431.25 876.88,-425.25 882.88,-425.25"/>
<text text-anchor="middle" x="885.62" y="-455.45" font-family="Times New Roman,serif" font-size="14.00">14</text>
<polyline fill="none" stroke="#b15928" points="900.38,-449 900.38,-472.75"/>
<text text-anchor="middle" x="954.88" y="-455.45" font-family="Times New Roman,serif" font-size="14.00">Outside Pullover</text>
<polyline fill="none" stroke="#b15928" points="870.88,-449 1009.38,-449"/>
<text text-anchor="middle" x="940.12" y="-431.7" font-family="Times New Roman,serif" font-size="14.00">+ EXT ROTATION</text>
</a>
</g>
</g>
<!-- mov_backs2s&#45;&gt;mov_outpull -->
<g id="edge32" class="edge">
<title>mov_backs2s&#45;&gt;mov_outpull</title>
<path fill="none" stroke="black" d="M944.85,-533.62C944.03,-518.99 942.93,-499.65 942.01,-483.26"/>
<polygon fill="black" stroke="black" points="945.45,-483.26 941.4,-473.47 938.47,-483.66 945.45,-483.26"/>
</g>
<!-- mov_perry -->
<g id="node2" class="node">
<title>mov_perry</title>
<g id="a_node2"><a xlink:href="https://www.youtube.com/watch?v=FpUecSrX_AI&amp;list=PLk4oYPJ7TXKgCH_TpdUCNs2-m5ZCqx-Pw&amp;index=3" xlink:title="{{06|Perry Cast\naka Bailout}|SAFE FAILURE}">
<path fill="#cab2d6" stroke="#6a3d9a" d="M746.75,-525.5C746.75,-525.5 835.5,-525.5 835.5,-525.5 841.5,-525.5 847.5,-531.5 847.5,-537.5 847.5,-537.5 847.5,-576.75 847.5,-576.75 847.5,-582.75 841.5,-588.75 835.5,-588.75 835.5,-588.75 746.75,-588.75 746.75,-588.75 740.75,-588.75 734.75,-582.75 734.75,-576.75 734.75,-576.75 734.75,-537.5 734.75,-537.5 734.75,-531.5 740.75,-525.5 746.75,-525.5"/>
<text text-anchor="middle" x="750.5" y="-563.58" font-family="Times New Roman,serif" font-size="14.00">06</text>
<polyline fill="none" stroke="#6a3d9a" points="766.25,-549.25 766.25,-588.75"/>
<text text-anchor="middle" x="806.5" y="-571.45" font-family="Times New Roman,serif" font-size="14.00">Perry Cast</text>
<text text-anchor="middle" x="806.5" y="-555.7" font-family="Times New Roman,serif" font-size="14.00">aka Bailout</text>
<polyline fill="none" stroke="#6a3d9a" points="734.75,-549.25 847.5,-549.25"/>
<text text-anchor="middle" x="791.12" y="-531.95" font-family="Times New Roman,serif" font-size="14.00">SAFE FAILURE</text>
</a>
</g>
</g>
<!-- mov_perry&#45;&gt;mov_sc -->
<g id="edge31" class="edge">
<title>mov_perry&#45;&gt;mov_sc</title>
<path fill="none" stroke="black" d="M791.12,-525.71C791.12,-512.51 791.12,-497 791.12,-483.46"/>
<polygon fill="black" stroke="black" points="794.63,-483.65 791.12,-473.65 787.63,-483.65 794.63,-483.65"/>
</g>
<!-- mov_perry&#45;&gt;mov_outpull -->
<g id="edge33" class="edge">
<title>mov_perry&#45;&gt;mov_outpull</title>
<path fill="none" stroke="black" d="M833.82,-525.71C854.5,-510.99 879.2,-493.4 899.58,-478.88"/>
<polygon fill="black" stroke="black" points="901.2,-481.31 907.32,-472.65 897.14,-475.61 901.2,-481.31"/>
</g>
<!-- mov_millprep -->
<g id="node3" class="node">
<title>mov_millprep</title>
<g id="a_node3"><a xlink:href="https://www.youtube.com/watch?v=I26O1ct_hik&amp;list=PLk4oYPJ7TXKgCH_TpdUCNs2-m5ZCqx-Pw&amp;index=17" xlink:title="{{17|Mill Prep}|}">
<path fill="#cab2d6" stroke="#6a3d9a" d="M702.88,-309.25C702.88,-309.25 775.38,-309.25 775.38,-309.25 781.38,-309.25 787.38,-315.25 787.38,-321.25 787.38,-321.25 787.38,-344.75 787.38,-344.75 787.38,-350.75 781.38,-356.75 775.38,-356.75 775.38,-356.75 702.88,-356.75 702.88,-356.75 696.88,-356.75 690.88,-350.75 690.88,-344.75 690.88,-344.75 690.88,-321.25 690.88,-321.25 690.88,-315.25 696.88,-309.25 702.88,-309.25"/>
<text text-anchor="middle" x="705.62" y="-339.45" font-family="Times New Roman,serif" font-size="14.00">17</text>
<polyline fill="none" stroke="#6a3d9a" points="720.38,-333 720.38,-356.75"/>
<text text-anchor="middle" x="753.88" y="-339.45" font-family="Times New Roman,serif" font-size="14.00">Mill Prep</text>
<polyline fill="none" stroke="#6a3d9a" points="690.88,-333 787.38,-333"/>
<text text-anchor="middle" x="739.12" y="-315.7" font-family="Times New Roman,serif" font-size="14.00"> </text>
</a>
</g>
</g>
<!-- mov_alt180pull -->
<g id="node28" class="node">
<title>mov_alt180pull</title>
<g id="a_node28"><a xlink:href="https://www.youtube.com/watch?v=I26O1ct_hik&amp;list=PLk4oYPJ7TXKgCH_TpdUCNs2-m5ZCqx-Pw&amp;index=18" xlink:title="{{18|Alternating 180 Degree\nPullover}|}">
<path fill="#ffff99" stroke="#b15928" d="M665,-193.25C665,-193.25 813.25,-193.25 813.25,-193.25 819.25,-193.25 825.25,-199.25 825.25,-205.25 825.25,-205.25 825.25,-244.5 825.25,-244.5 825.25,-250.5 819.25,-256.5 813.25,-256.5 813.25,-256.5 665,-256.5 665,-256.5 659,-256.5 653,-250.5 653,-244.5 653,-244.5 653,-205.25 653,-205.25 653,-199.25 659,-193.25 665,-193.25"/>
<text text-anchor="middle" x="667.75" y="-231.32" font-family="Times New Roman,serif" font-size="14.00">18</text>
<polyline fill="none" stroke="#b15928" points="682.5,-217 682.5,-256.5"/>
<text text-anchor="middle" x="753.88" y="-239.2" font-family="Times New Roman,serif" font-size="14.00">Alternating 180 Degree</text>
<text text-anchor="middle" x="753.88" y="-223.45" font-family="Times New Roman,serif" font-size="14.00">Pullover</text>
<polyline fill="none" stroke="#b15928" points="653,-217 825.25,-217"/>
<text text-anchor="middle" x="739.12" y="-199.7" font-family="Times New Roman,serif" font-size="14.00"> </text>
</a>
</g>
</g>
<!-- mov_millprep&#45;&gt;mov_alt180pull -->
<g id="edge38" class="edge">
<title>mov_millprep&#45;&gt;mov_alt180pull</title>
<path fill="none" stroke="black" d="M739.12,-309.49C739.12,-297.18 739.12,-281.53 739.12,-267.11"/>
<polygon fill="black" stroke="black" points="742.63,-267.4 739.12,-257.4 735.63,-267.4 742.63,-267.4"/>
</g>
<!-- ext_2h_s2s -->
<g id="node4" class="node">
<title>ext_2h_s2s</title>
<path fill="#b2df8a" stroke="#33a02c" d="M233.62,-629.75C233.62,-629.75 382.62,-629.75 382.62,-629.75 388.62,-629.75 394.62,-635.75 394.62,-641.75 394.62,-641.75 394.62,-657.25 394.62,-657.25 394.62,-663.25 388.62,-669.25 382.62,-669.25 382.62,-669.25 233.62,-669.25 233.62,-669.25 227.62,-669.25 221.62,-663.25 221.62,-657.25 221.62,-657.25 221.62,-641.75 221.62,-641.75 221.62,-635.75 227.62,-629.75 233.62,-629.75"/>
<text text-anchor="middle" x="246.88" y="-644.08" font-family="Times New Roman,serif" font-size="14.00">2H&#45;01</text>
<polyline fill="none" stroke="#33a02c" points="272.12,-629.75 272.12,-669.25"/>
<text text-anchor="middle" x="333.38" y="-651.95" font-family="Times New Roman,serif" font-size="14.00">Two&#45;Hand</text>
<text text-anchor="middle" x="333.38" y="-636.2" font-family="Times New Roman,serif" font-size="14.00">Side to Side Swing</text>
</g>
<!-- ext_2h_sideswingl2h -->
<g id="node5" class="node">
<title>ext_2h_sideswingl2h</title>
<path fill="#b2df8a" stroke="#33a02c" d="M169.62,-529.5C169.62,-529.5 282.62,-529.5 282.62,-529.5 288.62,-529.5 294.62,-535.5 294.62,-541.5 294.62,-541.5 294.62,-572.75 294.62,-572.75 294.62,-578.75 288.62,-584.75 282.62,-584.75 282.62,-584.75 169.62,-584.75 169.62,-584.75 163.62,-584.75 157.62,-578.75 157.62,-572.75 157.62,-572.75 157.62,-541.5 157.62,-541.5 157.62,-535.5 163.62,-529.5 169.62,-529.5"/>
<text text-anchor="middle" x="182.88" y="-551.7" font-family="Times New Roman,serif" font-size="14.00">2H&#45;02</text>
<polyline fill="none" stroke="#33a02c" points="208.12,-529.5 208.12,-584.75"/>
<text text-anchor="middle" x="251.38" y="-567.45" font-family="Times New Roman,serif" font-size="14.00">Two&#45;Hand</text>
<text text-anchor="middle" x="251.38" y="-551.7" font-family="Times New Roman,serif" font-size="14.00">Side Swing</text>
<text text-anchor="middle" x="251.38" y="-535.95" font-family="Times New Roman,serif" font-size="14.00">Low to High</text>
</g>
<!-- ext_2h_s2s&#45;&gt;ext_2h_sideswingl2h -->
<g id="edge1" class="edge">
<title>ext_2h_s2s&#45;&gt;ext_2h_sideswingl2h</title>
<path fill="none" stroke="black" d="M291.13,-629.77C281.44,-619.09 268.97,-605.35 257.56,-592.77"/>
<polygon fill="black" stroke="black" points="260.56,-590.76 251.25,-585.71 255.37,-595.47 260.56,-590.76"/>
</g>
<!-- mov_s2s -->
<g id="node14" class="node">
<title>mov_s2s</title>
<g id="a_node14"><a xlink:href="https://www.youtube.com/watch?v=cosgyt2BQG4&amp;list=PLk4oYPJ7TXKgCH_TpdUCNs2-m5ZCqx-Pw" xlink:title="{{01|Side to Side Swing}|ELBOWS LOCKED}">
<path fill="#ffff99" stroke="#b15928" d="M325.12,-533.38C325.12,-533.38 453.12,-533.38 453.12,-533.38 459.12,-533.38 465.12,-539.38 465.12,-545.38 465.12,-545.38 465.12,-568.88 465.12,-568.88 465.12,-574.88 459.12,-580.88 453.12,-580.88 453.12,-580.88 325.12,-580.88 325.12,-580.88 319.12,-580.88 313.12,-574.88 313.12,-568.88 313.12,-568.88 313.12,-545.38 313.12,-545.38 313.12,-539.38 319.12,-533.38 325.12,-533.38"/>
<text text-anchor="middle" x="327.88" y="-563.58" font-family="Times New Roman,serif" font-size="14.00">01</text>
<polyline fill="none" stroke="#b15928" points="342.62,-557.12 342.62,-580.88"/>
<text text-anchor="middle" x="403.88" y="-563.58" font-family="Times New Roman,serif" font-size="14.00">Side to Side Swing</text>
<polyline fill="none" stroke="#b15928" points="313.12,-557.12 465.12,-557.12"/>
<text text-anchor="middle" x="389.12" y="-539.83" font-family="Times New Roman,serif" font-size="14.00">ELBOWS LOCKED</text>
</a>
</g>
</g>
<!-- ext_2h_s2s&#45;&gt;mov_s2s -->
<g id="edge7" class="edge">
<title>ext_2h_s2s&#45;&gt;mov_s2s</title>
<path fill="none" stroke="black" d="M324.91,-629.77C335.5,-617.96 349.43,-602.41 361.61,-588.82"/>
<polygon fill="black" stroke="black" points="363.86,-591.45 367.92,-581.66 358.64,-586.78 363.86,-591.45"/>
</g>
<!-- ext_2h_s2srockit -->
<g id="node8" class="node">
<title>ext_2h_s2srockit</title>
<path fill="#b2df8a" stroke="#33a02c" d="M163.75,-421.38C163.75,-421.38 274.5,-421.38 274.5,-421.38 280.5,-421.38 286.5,-427.38 286.5,-433.38 286.5,-433.38 286.5,-464.62 286.5,-464.62 286.5,-470.62 280.5,-476.62 274.5,-476.62 274.5,-476.62 163.75,-476.62 163.75,-476.62 157.75,-476.62 151.75,-470.62 151.75,-464.62 151.75,-464.62 151.75,-433.38 151.75,-433.38 151.75,-427.38 157.75,-421.38 163.75,-421.38"/>
<text text-anchor="middle" x="177" y="-443.57" font-family="Times New Roman,serif" font-size="14.00">2H&#45;15</text>
<polyline fill="none" stroke="#33a02c" points="202.25,-421.38 202.25,-476.62"/>
<text text-anchor="middle" x="244.38" y="-459.32" font-family="Times New Roman,serif" font-size="14.00">Two&#45;Hand</text>
<text text-anchor="middle" x="244.38" y="-443.57" font-family="Times New Roman,serif" font-size="14.00">Side to Side</text>
<text text-anchor="middle" x="244.38" y="-427.82" font-family="Times New Roman,serif" font-size="14.00">Rockit</text>
</g>
<!-- ext_2h_sideswingl2h&#45;&gt;ext_2h_s2srockit -->
<g id="edge2" class="edge">
<title>ext_2h_sideswingl2h&#45;&gt;ext_2h_s2srockit</title>
<path fill="none" stroke="black" d="M224.38,-529.62C223.53,-516.83 222.51,-501.27 221.59,-487.31"/>
<polygon fill="black" stroke="black" points="225.03,-487.28 220.88,-477.54 218.04,-487.74 225.03,-487.28"/>
</g>
<!-- mov_sideswingl2h -->
<g id="node19" class="node">
<title>mov_sideswingl2h</title>
<g id="a_node19"><a xlink:href="https://www.youtube.com/watch?v=huwc0g3yLWk&amp;list=PLk4oYPJ7TXKgCH_TpdUCNs2-m5ZCqx-Pw&amp;index=5" xlink:title="{{08|Side Swing\nLow to High\nwith Stop}|HIP SNAP}">
<path fill="#ffff99" stroke="#b15928" d="M316.12,-409.5C316.12,-409.5 408.12,-409.5 408.12,-409.5 414.12,-409.5 420.12,-415.5 420.12,-421.5 420.12,-421.5 420.12,-476.5 420.12,-476.5 420.12,-482.5 414.12,-488.5 408.12,-488.5 408.12,-488.5 316.12,-488.5 316.12,-488.5 310.12,-488.5 304.12,-482.5 304.12,-476.5 304.12,-476.5 304.12,-421.5 304.12,-421.5 304.12,-415.5 310.12,-409.5 316.12,-409.5"/>
<text text-anchor="middle" x="318.88" y="-455.45" font-family="Times New Roman,serif" font-size="14.00">08</text>
<polyline fill="none" stroke="#b15928" points="333.62,-433.25 333.62,-488.5"/>
<text text-anchor="middle" x="376.88" y="-471.2" font-family="Times New Roman,serif" font-size="14.00">Side Swing</text>
<text text-anchor="middle" x="376.88" y="-455.45" font-family="Times New Roman,serif" font-size="14.00">Low to High</text>
<text text-anchor="middle" x="376.88" y="-439.7" font-family="Times New Roman,serif" font-size="14.00">with Stop</text>
<polyline fill="none" stroke="#b15928" points="304.12,-433.25 420.12,-433.25"/>
<text text-anchor="middle" x="362.12" y="-415.95" font-family="Times New Roman,serif" font-size="14.00">HIP SNAP</text>
</a>
</g>
</g>
<!-- ext_2h_sideswingl2h&#45;&gt;mov_sideswingl2h -->
<g id="edge12" class="edge">
<title>ext_2h_sideswingl2h&#45;&gt;mov_sideswingl2h</title>
<path fill="none" stroke="black" d="M260.09,-529.62C273.57,-519.1 289.45,-506.71 304.61,-494.88"/>
<polygon fill="black" stroke="black" points="306.21,-497.29 311.94,-488.38 301.91,-491.77 306.21,-497.29"/>
</g>
<!-- ext_2h_sc -->
<g id="node6" class="node">
<title>ext_2h_sc</title>
<path fill="#b2df8a" stroke="#33a02c" d="M616,-629.75C616,-629.75 722.25,-629.75 722.25,-629.75 728.25,-629.75 734.25,-635.75 734.25,-641.75 734.25,-641.75 734.25,-657.25 734.25,-657.25 734.25,-663.25 728.25,-669.25 722.25,-669.25 722.25,-669.25 616,-669.25 616,-669.25 610,-669.25 604,-663.25 604,-657.25 604,-657.25 604,-641.75 604,-641.75 604,-635.75 610,-629.75 616,-629.75"/>
<text text-anchor="middle" x="629.25" y="-644.08" font-family="Times New Roman,serif" font-size="14.00">2H&#45;09</text>
<polyline fill="none" stroke="#33a02c" points="654.5,-629.75 654.5,-669.25"/>
<text text-anchor="middle" x="694.38" y="-651.95" font-family="Times New Roman,serif" font-size="14.00">Two&#45;Hand</text>
<text text-anchor="middle" x="694.38" y="-636.2" font-family="Times New Roman,serif" font-size="14.00">Shield Cast</text>
</g>
<!-- ext_2h_sc&#45;&gt;mov_sc -->
<g id="edge10" class="edge">
<title>ext_2h_sc&#45;&gt;mov_sc</title>
<path fill="none" stroke="black" d="M672.86,-630.14C678.6,-604.92 691.26,-558.84 713.12,-525 723.95,-508.25 739.21,-492.49 753.37,-479.79"/>
<polygon fill="black" stroke="black" points="755.29,-481.88 760.53,-472.67 750.69,-476.6 755.29,-481.88"/>
</g>
<!-- ext_2h_pullover -->
<g id="node7" class="node">
<title>ext_2h_pullover</title>
<g id="a_node7"><a xlink:href="https://www.youtube.com/watch?v=jpIn1Sumg78&amp;list=PLk4oYPJ7TXKiueHS7UMPv-DxNMK6UELds&amp;index=7" xlink:title="{{2H&#45;07|Two&#45;Hand\nPullover}}">
<path fill="#b2df8a" stroke="#33a02c" d="M681.5,-710.25C681.5,-710.25 784.75,-710.25 784.75,-710.25 790.75,-710.25 796.75,-716.25 796.75,-722.25 796.75,-722.25 796.75,-737.75 796.75,-737.75 796.75,-743.75 790.75,-749.75 784.75,-749.75 784.75,-749.75 681.5,-749.75 681.5,-749.75 675.5,-749.75 669.5,-743.75 669.5,-737.75 669.5,-737.75 669.5,-722.25 669.5,-722.25 669.5,-716.25 675.5,-710.25 681.5,-710.25"/>
<text text-anchor="middle" x="694.75" y="-724.58" font-family="Times New Roman,serif" font-size="14.00">2H&#45;07</text>
<polyline fill="none" stroke="#33a02c" points="720,-710.25 720,-749.75"/>
<text text-anchor="middle" x="758.38" y="-732.45" font-family="Times New Roman,serif" font-size="14.00">Two&#45;Hand</text>
<text text-anchor="middle" x="758.38" y="-716.7" font-family="Times New Roman,serif" font-size="14.00">Pullover</text>
</a>
</g>
</g>
<!-- ext_2h_pullover&#45;&gt;ext_2h_sc -->
<g id="edge6" class="edge">
<title>ext_2h_pullover&#45;&gt;ext_2h_sc</title>
<path fill="none" stroke="black" d="M717.96,-710.4C709.97,-700.59 700.02,-688.39 691.19,-677.56"/>
<polygon fill="black" stroke="black" points="693.44,-675.78 684.41,-670.24 688.01,-680.2 693.44,-675.78"/>
</g>
<!-- mov_pullover -->
<g id="node17" class="node">
<title>mov_pullover</title>
<g id="a_node17"><a xlink:href="https://www.youtube.com/watch?v=HHT6TrTLJM8" xlink:title="{{04|Pullover}|}">
<path fill="#ffff99" stroke="#b15928" d="M764.5,-625.75C764.5,-625.75 831.75,-625.75 831.75,-625.75 837.75,-625.75 843.75,-631.75 843.75,-637.75 843.75,-637.75 843.75,-661.25 843.75,-661.25 843.75,-667.25 837.75,-673.25 831.75,-673.25 831.75,-673.25 764.5,-673.25 764.5,-673.25 758.5,-673.25 752.5,-667.25 752.5,-661.25 752.5,-661.25 752.5,-637.75 752.5,-637.75 752.5,-631.75 758.5,-625.75 764.5,-625.75"/>
<text text-anchor="middle" x="767.25" y="-655.95" font-family="Times New Roman,serif" font-size="14.00">04</text>
<polyline fill="none" stroke="#b15928" points="782,-649.5 782,-673.25"/>
<text text-anchor="middle" x="812.88" y="-655.95" font-family="Times New Roman,serif" font-size="14.00">Pullover</text>
<polyline fill="none" stroke="#b15928" points="752.5,-649.5 843.75,-649.5"/>
<text text-anchor="middle" x="798.12" y="-632.2" font-family="Times New Roman,serif" font-size="14.00"> </text>
</a>
</g>
</g>
<!-- ext_2h_pullover&#45;&gt;mov_pullover -->
<g id="edge11" class="edge">
<title>ext_2h_pullover&#45;&gt;mov_pullover</title>
<path fill="none" stroke="black" d="M748.53,-710.4C755.67,-701.77 764.36,-691.28 772.45,-681.51"/>
<polygon fill="black" stroke="black" points="775.67,-684.11 779.35,-674.17 770.28,-679.64 775.67,-684.11"/>
</g>
<!-- mov_s2srockit -->
<g id="node20" class="node">
<title>mov_s2srockit</title>
<g id="a_node20"><a xlink:href="https://www.youtube.com/watch?v=I26O1ct_hik&amp;list=PLk4oYPJ7TXKgCH_TpdUCNs2-m5ZCqx-Pw&amp;index=6" xlink:title="{{09|Side to Side Rockit}|}">
<path fill="#ffff99" stroke="#b15928" d="M205.62,-309.25C205.62,-309.25 336.62,-309.25 336.62,-309.25 342.62,-309.25 348.62,-315.25 348.62,-321.25 348.62,-321.25 348.62,-344.75 348.62,-344.75 348.62,-350.75 342.62,-356.75 336.62,-356.75 336.62,-356.75 205.62,-356.75 205.62,-356.75 199.62,-356.75 193.62,-350.75 193.62,-344.75 193.62,-344.75 193.62,-321.25 193.62,-321.25 193.62,-315.25 199.62,-309.25 205.62,-309.25"/>
<text text-anchor="middle" x="208.38" y="-339.45" font-family="Times New Roman,serif" font-size="14.00">09</text>
<polyline fill="none" stroke="#b15928" points="223.12,-333 223.12,-356.75"/>
<text text-anchor="middle" x="285.88" y="-339.45" font-family="Times New Roman,serif" font-size="14.00">Side to Side Rockit</text>
<polyline fill="none" stroke="#b15928" points="193.62,-333 348.62,-333"/>
<text text-anchor="middle" x="271.12" y="-315.7" font-family="Times New Roman,serif" font-size="14.00"> </text>
</a>
</g>
</g>
<!-- ext_2h_s2srockit&#45;&gt;mov_s2srockit -->
<g id="edge13" class="edge">
<title>ext_2h_s2srockit&#45;&gt;mov_s2srockit</title>
<path fill="none" stroke="black" d="M231.19,-421.56C238.71,-405.06 248.44,-383.72 256.42,-366.24"/>
<polygon fill="black" stroke="black" points="259.92,-368.01 260.88,-357.45 253.55,-365.1 259.92,-368.01"/>
</g>
<!-- ext_2h_incircle -->
<g id="node9" class="node">
<title>ext_2h_incircle</title>
<path fill="#b2df8a" stroke="#33a02c" d="M508.62,-537.38C508.62,-537.38 621.62,-537.38 621.62,-537.38 627.62,-537.38 633.62,-543.38 633.62,-549.38 633.62,-549.38 633.62,-564.88 633.62,-564.88 633.62,-570.88 627.62,-576.88 621.62,-576.88 621.62,-576.88 508.62,-576.88 508.62,-576.88 502.62,-576.88 496.62,-570.88 496.62,-564.88 496.62,-564.88 496.62,-549.38 496.62,-549.38 496.62,-543.38 502.62,-537.38 508.62,-537.38"/>
<text text-anchor="middle" x="521.88" y="-551.7" font-family="Times New Roman,serif" font-size="14.00">2H&#45;05</text>
<polyline fill="none" stroke="#33a02c" points="547.12,-537.38 547.12,-576.88"/>
<text text-anchor="middle" x="590.38" y="-559.58" font-family="Times New Roman,serif" font-size="14.00">Two&#45;Hand</text>
<text text-anchor="middle" x="590.38" y="-543.83" font-family="Times New Roman,serif" font-size="14.00">Inside Circle</text>
</g>
<!-- ext_2h_outcircle -->
<g id="node10" class="node">
<title>ext_2h_outcircle</title>
<path fill="#b2df8a" stroke="#33a02c" d="M583.75,-429.25C583.75,-429.25 706.5,-429.25 706.5,-429.25 712.5,-429.25 718.5,-435.25 718.5,-441.25 718.5,-441.25 718.5,-456.75 718.5,-456.75 718.5,-462.75 712.5,-468.75 706.5,-468.75 706.5,-468.75 583.75,-468.75 583.75,-468.75 577.75,-468.75 571.75,-462.75 571.75,-456.75 571.75,-456.75 571.75,-441.25 571.75,-441.25 571.75,-435.25 577.75,-429.25 583.75,-429.25"/>
<text text-anchor="middle" x="597" y="-443.57" font-family="Times New Roman,serif" font-size="14.00">2H&#45;06</text>
<polyline fill="none" stroke="#33a02c" points="622.25,-429.25 622.25,-468.75"/>
<text text-anchor="middle" x="670.38" y="-451.45" font-family="Times New Roman,serif" font-size="14.00">Two&#45;Hand</text>
<text text-anchor="middle" x="670.38" y="-435.7" font-family="Times New Roman,serif" font-size="14.00">Outside Circle</text>
</g>
<!-- ext_2h_incircle&#45;&gt;ext_2h_outcircle -->
<g id="edge5" class="edge">
<title>ext_2h_incircle&#45;&gt;ext_2h_outcircle</title>
<path fill="none" stroke="black" d="M579.06,-537.64C591.6,-521 610.2,-496.33 624.47,-477.4"/>
<polygon fill="black" stroke="black" points="627.86,-479.72 631.08,-469.63 622.27,-475.51 627.86,-479.72"/>
</g>
<!-- mov_incircle -->
<g id="node15" class="node">
<title>mov_incircle</title>
<g id="a_node15"><a xlink:href="https://www.youtube.com/watch?v=-gtRj1KEUmw" xlink:title="{{02|Inside Circle}|}">
<path fill="#ffff99" stroke="#b15928" d="M450.12,-425.25C450.12,-425.25 542.12,-425.25 542.12,-425.25 548.12,-425.25 554.12,-431.25 554.12,-437.25 554.12,-437.25 554.12,-460.75 554.12,-460.75 554.12,-466.75 548.12,-472.75 542.12,-472.75 542.12,-472.75 450.12,-472.75 450.12,-472.75 444.12,-472.75 438.12,-466.75 438.12,-460.75 438.12,-460.75 438.12,-437.25 438.12,-437.25 438.12,-431.25 444.12,-425.25 450.12,-425.25"/>
<text text-anchor="middle" x="452.88" y="-455.45" font-family="Times New Roman,serif" font-size="14.00">02</text>
<polyline fill="none" stroke="#b15928" points="467.62,-449 467.62,-472.75"/>
<text text-anchor="middle" x="510.88" y="-455.45" font-family="Times New Roman,serif" font-size="14.00">Inside Circle</text>
<polyline fill="none" stroke="#b15928" points="438.12,-449 554.12,-449"/>
<text text-anchor="middle" x="496.12" y="-431.7" font-family="Times New Roman,serif" font-size="14.00"> </text>
</a>
</g>
</g>
<!-- ext_2h_incircle&#45;&gt;mov_incircle -->
<g id="edge8" class="edge">
<title>ext_2h_incircle&#45;&gt;mov_incircle</title>
<path fill="none" stroke="black" d="M553.11,-537.64C543.11,-522.27 528.66,-500.03 516.81,-481.81"/>
<polygon fill="black" stroke="black" points="519.27,-480.18 510.88,-473.7 513.4,-483.99 519.27,-480.18"/>
</g>
<!-- mov_outcircle -->
<g id="node16" class="node">
<title>mov_outcircle</title>
<g id="a_node16"><a xlink:href="https://www.youtube.com/watch?v=Mf2QuZvRtQ4&amp;list=PLk4oYPJ7TXKgCH_TpdUCNs2-m5ZCqx-Pw&amp;index=2" xlink:title="{{03|Outside Circle}|}">
<path fill="#ffff99" stroke="#b15928" d="M513.25,-309.25C513.25,-309.25 615,-309.25 615,-309.25 621,-309.25 627,-315.25 627,-321.25 627,-321.25 627,-344.75 627,-344.75 627,-350.75 621,-356.75 615,-356.75 615,-356.75 513.25,-356.75 513.25,-356.75 507.25,-356.75 501.25,-350.75 501.25,-344.75 501.25,-344.75 501.25,-321.25 501.25,-321.25 501.25,-315.25 507.25,-309.25 513.25,-309.25"/>
<text text-anchor="middle" x="516" y="-339.45" font-family="Times New Roman,serif" font-size="14.00">03</text>
<polyline fill="none" stroke="#b15928" points="530.75,-333 530.75,-356.75"/>
<text text-anchor="middle" x="578.88" y="-339.45" font-family="Times New Roman,serif" font-size="14.00">Outside Circle</text>
<polyline fill="none" stroke="#b15928" points="501.25,-333 627,-333"/>
<text text-anchor="middle" x="564.12" y="-315.7" font-family="Times New Roman,serif" font-size="14.00"> </text>
</a>
</g>
</g>
<!-- ext_2h_outcircle&#45;&gt;mov_outcircle -->
<g id="edge9" class="edge">
<title>ext_2h_outcircle&#45;&gt;mov_outcircle</title>
<path fill="none" stroke="black" d="M631.93,-429.43C619.59,-412.06 600.92,-385.79 586.29,-365.2"/>
<polygon fill="black" stroke="black" points="588.74,-363.61 580.1,-357.48 583.04,-367.66 588.74,-363.61"/>
</g>
<!-- ext_2h_outpend -->
<g id="node11" class="node">
<title>ext_2h_outpend</title>
<path fill="#b2df8a" stroke="#33a02c" d="M18.5,-313.25C18.5,-313.25 163.75,-313.25 163.75,-313.25 169.75,-313.25 175.75,-319.25 175.75,-325.25 175.75,-325.25 175.75,-340.75 175.75,-340.75 175.75,-346.75 169.75,-352.75 163.75,-352.75 163.75,-352.75 18.5,-352.75 18.5,-352.75 12.5,-352.75 6.5,-346.75 6.5,-340.75 6.5,-340.75 6.5,-325.25 6.5,-325.25 6.5,-319.25 12.5,-313.25 18.5,-313.25"/>
<text text-anchor="middle" x="31.75" y="-327.57" font-family="Times New Roman,serif" font-size="14.00">2H&#45;16</text>
<polyline fill="none" stroke="#33a02c" points="57,-313.25 57,-352.75"/>
<text text-anchor="middle" x="116.38" y="-335.45" font-family="Times New Roman,serif" font-size="14.00">Two&#45;Hand</text>
<text text-anchor="middle" x="116.38" y="-319.7" font-family="Times New Roman,serif" font-size="14.00">Outside Pendulum</text>
</g>
<!-- ext_2h_inpend -->
<g id="node12" class="node">
<title>ext_2h_inpend</title>
<path fill="#b2df8a" stroke="#33a02c" d="M24.38,-205.12C24.38,-205.12 159.88,-205.12 159.88,-205.12 165.88,-205.12 171.88,-211.12 171.88,-217.12 171.88,-217.12 171.88,-232.62 171.88,-232.62 171.88,-238.62 165.88,-244.62 159.88,-244.62 159.88,-244.62 24.38,-244.62 24.38,-244.62 18.38,-244.62 12.38,-238.62 12.38,-232.62 12.38,-232.62 12.38,-217.12 12.38,-217.12 12.38,-211.12 18.38,-205.12 24.38,-205.12"/>
<text text-anchor="middle" x="37.62" y="-219.45" font-family="Times New Roman,serif" font-size="14.00">2H&#45;16</text>
<polyline fill="none" stroke="#33a02c" points="62.88,-205.12 62.88,-244.62"/>
<text text-anchor="middle" x="117.38" y="-227.32" font-family="Times New Roman,serif" font-size="14.00">Two&#45;Hand</text>
<text text-anchor="middle" x="117.38" y="-211.57" font-family="Times New Roman,serif" font-size="14.00">Inside Pendulum</text>
</g>
<!-- ext_2h_outpend&#45;&gt;ext_2h_inpend -->
<g id="edge3" class="edge">
<title>ext_2h_outpend&#45;&gt;ext_2h_inpend</title>
<path fill="none" stroke="black" d="M91.3,-313.51C91.45,-297.48 91.67,-273.99 91.85,-255.36"/>
<polygon fill="black" stroke="black" points="95.35,-255.54 91.95,-245.5 88.36,-255.47 95.35,-255.54"/>
</g>
<!-- mov_outpend -->
<g id="node23" class="node">
<title>mov_outpend</title>
<g id="a_node23"><a xlink:href="https://www.youtube.com/watch?v=I26O1ct_hik&amp;list=PLk4oYPJ7TXKgCH_TpdUCNs2-m5ZCqx-Pw&amp;index=9" xlink:title="{{12|Outside Pendulum}|}">
<path fill="#ffff99" stroke="#b15928" d="M209,-201.12C209,-201.12 333.25,-201.12 333.25,-201.12 339.25,-201.12 345.25,-207.12 345.25,-213.12 345.25,-213.12 345.25,-236.62 345.25,-236.62 345.25,-242.62 339.25,-248.62 333.25,-248.62 333.25,-248.62 209,-248.62 209,-248.62 203,-248.62 197,-242.62 197,-236.62 197,-236.62 197,-213.12 197,-213.12 197,-207.12 203,-201.12 209,-201.12"/>
<text text-anchor="middle" x="211.75" y="-231.32" font-family="Times New Roman,serif" font-size="14.00">12</text>
<polyline fill="none" stroke="#b15928" points="226.5,-224.88 226.5,-248.62"/>
<text text-anchor="middle" x="285.88" y="-231.32" font-family="Times New Roman,serif" font-size="14.00">Outside Pendulum</text>
<polyline fill="none" stroke="#b15928" points="197,-224.88 345.25,-224.88"/>
<text text-anchor="middle" x="271.12" y="-207.57" font-family="Times New Roman,serif" font-size="14.00"> </text>
</a>
</g>
</g>
<!-- ext_2h_outpend&#45;&gt;mov_outpend -->
<g id="edge14" class="edge">
<title>ext_2h_outpend&#45;&gt;mov_outpend</title>
<path fill="none" stroke="black" d="M122.89,-313.27C150.82,-296.81 191.85,-272.61 223.67,-253.85"/>
<polygon fill="black" stroke="black" points="224.96,-256.56 231.8,-248.47 221.41,-250.53 224.96,-256.56"/>
</g>
<!-- ext_2h_altpend -->
<g id="node13" class="node">
<title>ext_2h_altpend</title>
<g id="a_node13"><a xlink:href="https://www.youtube.com/watch?v=GULjXPS_ba4" xlink:title="{{2H&#45;??|Two&#45;Hand\nAlternating Pendulum}}">
<path fill="#b2df8a" stroke="#33a02c" d="M12,-112.75C12,-112.75 172.25,-112.75 172.25,-112.75 178.25,-112.75 184.25,-118.75 184.25,-124.75 184.25,-124.75 184.25,-140.25 184.25,-140.25 184.25,-146.25 178.25,-152.25 172.25,-152.25 172.25,-152.25 12,-152.25 12,-152.25 6,-152.25 0,-146.25 0,-140.25 0,-140.25 0,-124.75 0,-124.75 0,-118.75 6,-112.75 12,-112.75"/>
<text text-anchor="middle" x="24.5" y="-127.08" font-family="Times New Roman,serif" font-size="14.00">2H&#45;??</text>
<polyline fill="none" stroke="#33a02c" points="49,-112.75 49,-152.25"/>
<text text-anchor="middle" x="116.62" y="-134.95" font-family="Times New Roman,serif" font-size="14.00">Two&#45;Hand</text>
<text text-anchor="middle" x="116.62" y="-119.2" font-family="Times New Roman,serif" font-size="14.00">Alternating Pendulum</text>
</a>
</g>
</g>
<!-- ext_2h_inpend&#45;&gt;ext_2h_altpend -->
<g id="edge4" class="edge">
<title>ext_2h_inpend&#45;&gt;ext_2h_altpend</title>
<path fill="none" stroke="black" d="M92.12,-205.15C92.12,-193.03 92.12,-176.99 92.12,-163.16"/>
<polygon fill="black" stroke="black" points="95.63,-163.2 92.12,-153.2 88.63,-163.2 95.63,-163.2"/>
</g>
<!-- mov_inpend -->
<g id="node24" class="node">
<title>mov_inpend</title>
<g id="a_node24"><a xlink:href="https://www.youtube.com/watch?v=I26O1ct_hik&amp;list=PLk4oYPJ7TXKgCH_TpdUCNs2-m5ZCqx-Pw&amp;index=10" xlink:title="{{13|Inside Pendulum}|}">
<path fill="#ffff99" stroke="#b15928" d="M213.88,-108.75C213.88,-108.75 328.38,-108.75 328.38,-108.75 334.38,-108.75 340.38,-114.75 340.38,-120.75 340.38,-120.75 340.38,-144.25 340.38,-144.25 340.38,-150.25 334.38,-156.25 328.38,-156.25 328.38,-156.25 213.88,-156.25 213.88,-156.25 207.88,-156.25 201.88,-150.25 201.88,-144.25 201.88,-144.25 201.88,-120.75 201.88,-120.75 201.88,-114.75 207.88,-108.75 213.88,-108.75"/>
<text text-anchor="middle" x="216.62" y="-138.95" font-family="Times New Roman,serif" font-size="14.00">13</text>
<polyline fill="none" stroke="#b15928" points="231.38,-132.5 231.38,-156.25"/>
<text text-anchor="middle" x="285.88" y="-138.95" font-family="Times New Roman,serif" font-size="14.00">Inside Pendulum</text>
<polyline fill="none" stroke="#b15928" points="201.88,-132.5 340.38,-132.5"/>
<text text-anchor="middle" x="271.12" y="-115.2" font-family="Times New Roman,serif" font-size="14.00"> </text>
</a>
</g>
</g>
<!-- ext_2h_inpend&#45;&gt;mov_inpend -->
<g id="edge15" class="edge">
<title>ext_2h_inpend&#45;&gt;mov_inpend</title>
<path fill="none" stroke="black" d="M129.21,-205.15C154.4,-192.43 188.15,-175.39 216.41,-161.12"/>
<polygon fill="black" stroke="black" points="217.81,-163.84 225.16,-156.2 214.65,-157.59 217.81,-163.84"/>
</g>
<!-- mov_altpend -->
<g id="node27" class="node">
<title>mov_altpend</title>
<g id="a_node27"><a xlink:href="https://www.youtube.com/watch?v=I26O1ct_hik&amp;list=PLk4oYPJ7TXKgCH_TpdUCNs2-m5ZCqx-Pw&amp;index=16" xlink:title="{{16|Alternating Pendulum}|}">
<path fill="#ffff99" stroke="#b15928" d="M200.75,-24.25C200.75,-24.25 341.5,-24.25 341.5,-24.25 347.5,-24.25 353.5,-30.25 353.5,-36.25 353.5,-36.25 353.5,-59.75 353.5,-59.75 353.5,-65.75 347.5,-71.75 341.5,-71.75 341.5,-71.75 200.75,-71.75 200.75,-71.75 194.75,-71.75 188.75,-65.75 188.75,-59.75 188.75,-59.75 188.75,-36.25 188.75,-36.25 188.75,-30.25 194.75,-24.25 200.75,-24.25"/>
<text text-anchor="middle" x="203.5" y="-54.45" font-family="Times New Roman,serif" font-size="14.00">16</text>
<polyline fill="none" stroke="#b15928" points="218.25,-48 218.25,-71.75"/>
<text text-anchor="middle" x="285.88" y="-54.45" font-family="Times New Roman,serif" font-size="14.00">Alternating Pendulum</text>
<polyline fill="none" stroke="#b15928" points="188.75,-48 353.5,-48"/>
<text text-anchor="middle" x="271.12" y="-30.7" font-family="Times New Roman,serif" font-size="14.00"> </text>
</a>
</g>
</g>
<!-- ext_2h_altpend&#45;&gt;mov_altpend -->
<g id="edge16" class="edge">
<title>ext_2h_altpend&#45;&gt;mov_altpend</title>
<path fill="none" stroke="black" d="M132.74,-112.78C156.25,-101.95 186.25,-88.12 212.3,-76.11"/>
<polygon fill="black" stroke="black" points="213.45,-78.98 221.07,-71.61 210.52,-72.62 213.45,-78.98"/>
</g>
<!-- mov_s2s&#45;&gt;mov_incircle -->
<g id="edge18" class="edge">
<title>mov_s2s&#45;&gt;mov_incircle</title>
<path fill="none" stroke="black" d="M411.82,-533.62C427.56,-518 448.71,-497.03 465.89,-479.99"/>
<polygon fill="black" stroke="black" points="467.83,-483 472.47,-473.47 462.9,-478.03 467.83,-483"/>
</g>
<!-- mov_s2s&#45;&gt;mov_sideswingl2h -->
<g id="edge17" class="edge">
<title>mov_s2s&#45;&gt;mov_sideswingl2h</title>
<path fill="none" stroke="black" d="M383.4,-533.62C380.81,-523.45 377.65,-511.02 374.56,-498.88"/>
<polygon fill="black" stroke="black" points="377.74,-498.18 371.88,-489.35 370.96,-499.91 377.74,-498.18"/>
</g>
<!-- mov_incircle&#45;&gt;mov_millprep -->
<g id="edge36" class="edge">
<title>mov_incircle&#45;&gt;mov_millprep</title>
<path fill="none" stroke="black" d="M533.23,-425.3C542.84,-419.73 553.26,-413.95 563.12,-409 601.63,-389.68 646.29,-370.69 680.99,-356.65"/>
<polygon fill="black" stroke="black" points="681.99,-359.62 689.96,-352.64 679.38,-353.12 681.99,-359.62"/>
</g>
<!-- mov_incircle&#45;&gt;mov_outcircle -->
<g id="edge19" class="edge">
<title>mov_incircle&#45;&gt;mov_outcircle</title>
<path fill="none" stroke="black" d="M509.56,-425.48C519.71,-408.46 533.78,-384.87 545.09,-365.91"/>
<polygon fill="black" stroke="black" points="548.6,-367.86 550.72,-357.48 542.59,-364.27 548.6,-367.86"/>
</g>
<!-- mov_altcircle -->
<g id="node22" class="node">
<title>mov_altcircle</title>
<g id="a_node22"><a xlink:href="https://www.youtube.com/watch?v=I26O1ct_hik&amp;list=PLk4oYPJ7TXKgCH_TpdUCNs2-m5ZCqx-Pw&amp;index=8" xlink:title="{{11|Alternating Circle}|}">
<path fill="#ffff99" stroke="#b15928" d="M505,-201.12C505,-201.12 623.25,-201.12 623.25,-201.12 629.25,-201.12 635.25,-207.12 635.25,-213.12 635.25,-213.12 635.25,-236.62 635.25,-236.62 635.25,-242.62 629.25,-248.62 623.25,-248.62 623.25,-248.62 505,-248.62 505,-248.62 499,-248.62 493,-242.62 493,-236.62 493,-236.62 493,-213.12 493,-213.12 493,-207.12 499,-201.12 505,-201.12"/>
<text text-anchor="middle" x="507.75" y="-231.32" font-family="Times New Roman,serif" font-size="14.00">11</text>
<polyline fill="none" stroke="#b15928" points="522.5,-224.88 522.5,-248.62"/>
<text text-anchor="middle" x="578.88" y="-231.32" font-family="Times New Roman,serif" font-size="14.00">Alternating Circle</text>
<polyline fill="none" stroke="#b15928" points="493,-224.88 635.25,-224.88"/>
<text text-anchor="middle" x="564.12" y="-207.57" font-family="Times New Roman,serif" font-size="14.00"> </text>
</a>
</g>
</g>
<!-- mov_outcircle&#45;&gt;mov_altcircle -->
<g id="edge24" class="edge">
<title>mov_outcircle&#45;&gt;mov_altcircle</title>
<path fill="none" stroke="black" d="M564.12,-309.49C564.12,-294.86 564.12,-275.52 564.12,-259.13"/>
<polygon fill="black" stroke="black" points="567.63,-259.35 564.12,-249.35 560.63,-259.35 567.63,-259.35"/>
</g>
<!-- mov_outcircle&#45;&gt;mov_outpend -->
<g id="edge22" class="edge">
<title>mov_outcircle&#45;&gt;mov_outpend</title>
<path fill="none" stroke="black" d="M525.59,-309.28C514.96,-303.52 503.28,-297.66 492.12,-293 448.12,-274.62 397.31,-258.83 355.51,-247.19"/>
<polygon fill="black" stroke="black" points="356.66,-243.6 346.09,-244.32 354.8,-250.35 356.66,-243.6"/>
</g>
<!-- mov_pullover&#45;&gt;mov_backs2s -->
<g id="edge28" class="edge">
<title>mov_pullover&#45;&gt;mov_backs2s</title>
<path fill="none" stroke="black" d="M835.09,-625.93C854.69,-613.96 878.96,-599.14 899.81,-586.41"/>
<polygon fill="black" stroke="black" points="901.41,-588.92 908.12,-580.72 897.76,-582.95 901.41,-588.92"/>
</g>
<!-- mov_pullover&#45;&gt;mov_perry -->
<g id="edge30" class="edge">
<title>mov_pullover&#45;&gt;mov_perry</title>
<path fill="none" stroke="black" d="M796.39,-626.16C795.77,-618.13 795.05,-608.8 794.34,-599.67"/>
<polygon fill="black" stroke="black" points="797.76,-599.43 793.5,-589.73 790.78,-599.97 797.76,-599.43"/>
</g>
<!-- mov_pullover&#45;&gt;mov_sc -->
<g id="edge27" class="edge">
<title>mov_pullover&#45;&gt;mov_sc</title>
<path fill="none" stroke="black" d="M758.58,-625.9C745.79,-616.38 733.11,-604.04 726.12,-589.25 713.93,-563.43 716.14,-551.75 726.12,-525 732.35,-508.31 744.14,-492.88 756,-480.4"/>
<polygon fill="black" stroke="black" points="758.15,-483.19 762.73,-473.64 753.19,-478.25 758.15,-483.19"/>
</g>
<!-- mov_pullover&#45;&gt;mov_outpull -->
<g id="edge34" class="edge">
<title>mov_pullover&#45;&gt;mov_outpull</title>
<path fill="none" stroke="black" d="M843.66,-643.76C905.95,-636.23 1012.69,-619.23 1036.12,-589.25 1053.71,-566.75 1048.64,-550.67 1036.12,-525 1026.89,-506.06 1010.3,-490.5 993.48,-478.56"/>
<polygon fill="black" stroke="black" points="995.95,-475.33 985.7,-472.65 992.04,-481.14 995.95,-475.33"/>
</g>
<!-- mov_sc&#45;&gt;mov_millprep -->
<g id="edge37" class="edge">
<title>mov_sc&#45;&gt;mov_millprep</title>
<path fill="none" stroke="black" d="M780.85,-425.48C773.16,-408.61 762.53,-385.3 753.92,-366.43"/>
<polygon fill="black" stroke="black" points="756.71,-365.12 749.38,-357.48 750.34,-368.03 756.71,-365.12"/>
</g>
<!-- mov_sideswingl2h&#45;&gt;mov_s2srockit -->
<g id="edge20" class="edge">
<title>mov_sideswingl2h&#45;&gt;mov_s2srockit</title>
<path fill="none" stroke="black" d="M331.57,-409.72C319.94,-395.15 306.84,-378.75 295.82,-364.94"/>
<polygon fill="black" stroke="black" points="298.23,-363.35 289.26,-357.72 292.76,-367.72 298.23,-363.35"/>
</g>
<!-- mov_sideswingl2hcont -->
<g id="node21" class="node">
<title>mov_sideswingl2hcont</title>
<g id="a_node21"><a xlink:href="https://www.youtube.com/watch?v=I26O1ct_hik&amp;list=PLk4oYPJ7TXKgCH_TpdUCNs2-m5ZCqx-Pw&amp;index=7" xlink:title="{{10|Side Swing\nLow to High\nContinuous}|}">
<path fill="#ffff99" stroke="#b15928" d="M379.12,-293.5C379.12,-293.5 471.12,-293.5 471.12,-293.5 477.12,-293.5 483.12,-299.5 483.12,-305.5 483.12,-305.5 483.12,-360.5 483.12,-360.5 483.12,-366.5 477.12,-372.5 471.12,-372.5 471.12,-372.5 379.12,-372.5 379.12,-372.5 373.12,-372.5 367.12,-366.5 367.12,-360.5 367.12,-360.5 367.12,-305.5 367.12,-305.5 367.12,-299.5 373.12,-293.5 379.12,-293.5"/>
<text text-anchor="middle" x="381.88" y="-339.45" font-family="Times New Roman,serif" font-size="14.00">10</text>
<polyline fill="none" stroke="#b15928" points="396.62,-317.25 396.62,-372.5"/>
<text text-anchor="middle" x="439.88" y="-355.2" font-family="Times New Roman,serif" font-size="14.00">Side Swing</text>
<text text-anchor="middle" x="439.88" y="-339.45" font-family="Times New Roman,serif" font-size="14.00">Low to High</text>
<text text-anchor="middle" x="439.88" y="-323.7" font-family="Times New Roman,serif" font-size="14.00">Continuous</text>
<polyline fill="none" stroke="#b15928" points="367.12,-317.25 483.12,-317.25"/>
<text text-anchor="middle" x="425.12" y="-299.95" font-family="Times New Roman,serif" font-size="14.00"> </text>
</a>
</g>
</g>
<!-- mov_sideswingl2h&#45;&gt;mov_sideswingl2hcont -->
<g id="edge23" class="edge">
<title>mov_sideswingl2h&#45;&gt;mov_sideswingl2hcont</title>
<path fill="none" stroke="black" d="M383.28,-409.72C388.21,-400.79 393.53,-391.17 398.66,-381.89"/>
<polygon fill="black" stroke="black" points="402.15,-383.82 403.92,-373.37 396.02,-380.43 402.15,-383.82"/>
</g>
<!-- mov_s2srockit&#45;&gt;mov_outpend -->
<g id="edge21" class="edge">
<title>mov_s2srockit&#45;&gt;mov_outpend</title>
<path fill="none" stroke="black" d="M271.12,-309.49C271.12,-294.86 271.12,-275.52 271.12,-259.13"/>
<polygon fill="black" stroke="black" points="274.63,-259.35 271.12,-249.35 267.63,-259.35 274.63,-259.35"/>
</g>
<!-- mov_altcircle&#45;&gt;mov_altpend -->
<g id="edge44" class="edge">
<title>mov_altcircle&#45;&gt;mov_altpend</title>
<path fill="none" stroke="black" d="M526.12,-201.19C472.88,-169.41 376.14,-111.68 318.34,-77.18"/>
<polygon fill="black" stroke="black" points="320.44,-73.76 310.06,-71.64 316.86,-79.77 320.44,-73.76"/>
</g>
<!-- mov_mill -->
<g id="node29" class="node">
<title>mov_mill</title>
<g id="a_node29"><a xlink:href="https://www.youtube.com/watch?v=I26O1ct_hik&amp;list=PLk4oYPJ7TXKgCH_TpdUCNs2-m5ZCqx-Pw&amp;index=19" xlink:title="{{19|Mill}|}">
<path fill="#ffff99" stroke="#b15928" d="M700.88,-108.75C700.88,-108.75 743.38,-108.75 743.38,-108.75 749.38,-108.75 755.38,-114.75 755.38,-120.75 755.38,-120.75 755.38,-144.25 755.38,-144.25 755.38,-150.25 749.38,-156.25 743.38,-156.25 743.38,-156.25 700.88,-156.25 700.88,-156.25 694.88,-156.25 688.88,-150.25 688.88,-144.25 688.88,-144.25 688.88,-120.75 688.88,-120.75 688.88,-114.75 694.88,-108.75 700.88,-108.75"/>
<text text-anchor="middle" x="703.62" y="-138.95" font-family="Times New Roman,serif" font-size="14.00">19</text>
<polyline fill="none" stroke="#b15928" points="718.38,-132.5 718.38,-156.25"/>
<text text-anchor="middle" x="736.88" y="-138.95" font-family="Times New Roman,serif" font-size="14.00">Mill</text>
<polyline fill="none" stroke="#b15928" points="688.88,-132.5 755.38,-132.5"/>
<text text-anchor="middle" x="722.12" y="-115.2" font-family="Times New Roman,serif" font-size="14.00"> </text>
</a>
</g>
</g>
<!-- mov_altcircle&#45;&gt;mov_mill -->
<g id="edge41" class="edge">
<title>mov_altcircle&#45;&gt;mov_mill</title>
<path fill="none" stroke="black" d="M603.59,-201.3C626.72,-188.07 655.96,-171.35 679.6,-157.82"/>
<polygon fill="black" stroke="black" points="681.08,-160.44 688.03,-152.43 677.61,-154.36 681.08,-160.44"/>
</g>
<!-- mov_revmill -->
<g id="node30" class="node">
<title>mov_revmill</title>
<g id="a_node30"><a xlink:href="https://www.youtube.com/watch?v=I26O1ct_hik&amp;list=PLk4oYPJ7TXKgCH_TpdUCNs2-m5ZCqx-Pw&amp;index=20" xlink:title="{{20|Reverse Mill}|}">
<path fill="#ffff99" stroke="#b15928" d="M534.5,-108.75C534.5,-108.75 625.75,-108.75 625.75,-108.75 631.75,-108.75 637.75,-114.75 637.75,-120.75 637.75,-120.75 637.75,-144.25 637.75,-144.25 637.75,-150.25 631.75,-156.25 625.75,-156.25 625.75,-156.25 534.5,-156.25 534.5,-156.25 528.5,-156.25 522.5,-150.25 522.5,-144.25 522.5,-144.25 522.5,-120.75 522.5,-120.75 522.5,-114.75 528.5,-108.75 534.5,-108.75"/>
<text text-anchor="middle" x="537.25" y="-138.95" font-family="Times New Roman,serif" font-size="14.00">20</text>
<polyline fill="none" stroke="#b15928" points="552,-132.5 552,-156.25"/>
<text text-anchor="middle" x="594.88" y="-138.95" font-family="Times New Roman,serif" font-size="14.00">Reverse Mill</text>
<polyline fill="none" stroke="#b15928" points="522.5,-132.5 637.75,-132.5"/>
<text text-anchor="middle" x="580.12" y="-115.2" font-family="Times New Roman,serif" font-size="14.00"> </text>
</a>
</g>
</g>
<!-- mov_altcircle&#45;&gt;mov_revmill -->
<g id="edge42" class="edge">
<title>mov_altcircle&#45;&gt;mov_revmill</title>
<path fill="none" stroke="black" d="M568.08,-201.54C569.93,-191.08 572.18,-178.4 574.22,-166.84"/>
<polygon fill="black" stroke="black" points="577.81,-167.67 576.1,-157.21 570.91,-166.45 577.81,-167.67"/>
</g>
<!-- mov_outpend&#45;&gt;mov_inpend -->
<g id="edge25" class="edge">
<title>mov_outpend&#45;&gt;mov_inpend</title>
<path fill="none" stroke="black" d="M271.12,-201.54C271.12,-191.19 271.12,-178.67 271.12,-167.2"/>
<polygon fill="black" stroke="black" points="274.63,-167.21 271.12,-157.21 267.63,-167.21 274.63,-167.21"/>
</g>
<!-- mov_inpend&#45;&gt;mov_altpend -->
<g id="edge26" class="edge">
<title>mov_inpend&#45;&gt;mov_altpend</title>
<path fill="none" stroke="black" d="M271.12,-108.96C271.12,-100.77 271.12,-91.34 271.12,-82.42"/>
<polygon fill="black" stroke="black" points="274.63,-82.52 271.12,-72.52 267.63,-82.52 274.63,-82.52"/>
</g>
<!-- mov_inpull -->
<g id="node26" class="node">
<title>mov_inpull</title>
<g id="a_node26"><a xlink:href="https://www.youtube.com/watch?v=sJ5XCgdCMx8&amp;list=PLk4oYPJ7TXKgCH_TpdUCNs2-m5ZCqx-Pw&amp;index=15" xlink:title="{{15|Inside Pullover}|+ INT ROTATION}">
<path fill="#ffff99" stroke="#b15928" d="M855.75,-309.25C855.75,-309.25 960.5,-309.25 960.5,-309.25 966.5,-309.25 972.5,-315.25 972.5,-321.25 972.5,-321.25 972.5,-344.75 972.5,-344.75 972.5,-350.75 966.5,-356.75 960.5,-356.75 960.5,-356.75 855.75,-356.75 855.75,-356.75 849.75,-356.75 843.75,-350.75 843.75,-344.75 843.75,-344.75 843.75,-321.25 843.75,-321.25 843.75,-315.25 849.75,-309.25 855.75,-309.25"/>
<text text-anchor="middle" x="858.5" y="-339.45" font-family="Times New Roman,serif" font-size="14.00">15</text>
<polyline fill="none" stroke="#b15928" points="873.25,-333 873.25,-356.75"/>
<text text-anchor="middle" x="922.88" y="-339.45" font-family="Times New Roman,serif" font-size="14.00">Inside Pullover</text>
<polyline fill="none" stroke="#b15928" points="843.75,-333 972.5,-333"/>
<text text-anchor="middle" x="908.12" y="-315.7" font-family="Times New Roman,serif" font-size="14.00">+ INT ROTATION</text>
</a>
</g>
</g>
<!-- mov_outpull&#45;&gt;mov_inpull -->
<g id="edge35" class="edge">
<title>mov_outpull&#45;&gt;mov_inpull</title>
<path fill="none" stroke="black" d="M933.8,-425.48C929.11,-408.77 922.65,-385.73 917.38,-366.96"/>
<polygon fill="black" stroke="black" points="920.51,-366.16 914.43,-357.48 913.77,-368.05 920.51,-366.16"/>
</g>
<!-- mov_inpull&#45;&gt;mov_alt180pull -->
<g id="edge39" class="edge">
<title>mov_inpull&#45;&gt;mov_alt180pull</title>
<path fill="none" stroke="black" d="M872.28,-309.49C850.37,-295.73 821.82,-277.8 796.78,-262.08"/>
<polygon fill="black" stroke="black" points="799.07,-258.76 788.74,-256.4 795.34,-264.68 799.07,-258.76"/>
</g>
<!-- mov_alt180pull&#45;&gt;mov_mill -->
<g id="edge40" class="edge">
<title>mov_alt180pull&#45;&gt;mov_mill</title>
<path fill="none" stroke="black" d="M733.37,-193.28C731.76,-184.71 730,-175.36 728.36,-166.65"/>
<polygon fill="black" stroke="black" points="731.66,-166.25 726.37,-157.07 724.78,-167.54 731.66,-166.25"/>
</g>
<!-- mov_alt180pull&#45;&gt;mov_revmill -->
<g id="edge43" class="edge">
<title>mov_alt180pull&#45;&gt;mov_revmill</title>
<path fill="none" stroke="black" d="M685.29,-193.28C667.04,-182.9 646.75,-171.37 628.91,-161.23"/>
<polygon fill="black" stroke="black" points="631.25,-157.96 620.82,-156.07 627.79,-164.05 631.25,-157.96"/>
</g>
</g>
</svg>
