<?xml version="1.0" encoding="UTF-8" standalone="no"?>
<!DOCTYPE svg PUBLIC "-//W3C//DTD SVG 1.1//EN"
 "http://www.w3.org/Graphics/SVG/1.1/DTD/svg11.dtd">
<!-- Generated by graphviz version 8.1.0 (20230707.0739)
 -->
<!-- Title: kb_progression Pages: 1 -->
<svg width="990pt" height="634pt"
 viewBox="0.00 0.00 989.50 634.25" xmlns="http://www.w3.org/2000/svg" xmlns:xlink="http://www.w3.org/1999/xlink">
<g id="graph0" class="graph" transform="scale(1 1) rotate(0) translate(4 630.25)">
<title>kb_progression</title>
<polygon fill="white" stroke="none" points="-4,4 -4,-630.25 985.5,-630.25 985.5,4 -4,4"/>
<text text-anchor="middle" x="490.75" y="-6.45" font-family="Times New Roman,serif" font-size="14.00">Kettlebell Basic Skill Progression</text>
<!-- mov_atw -->
<g id="node1" class="node">
<title>mov_atw</title>
<g id="a_node1"><a xlink:href="https://www.youtube.com/watch?v=XaegZzSbtr0&amp;list=PLk4oYPJ7TXKhX8YqA2AVrfgs_pEF6p7KA&amp;index=3" xlink:title="{{3|Around the World}|HAND TRANSITION}">
<path fill="#fdbf6f" stroke="#ff7f00" d="M97,-485.88C97,-485.88 216.5,-485.88 216.5,-485.88 222.5,-485.88 228.5,-491.88 228.5,-497.88 228.5,-497.88 228.5,-521.38 228.5,-521.38 228.5,-527.38 222.5,-533.38 216.5,-533.38 216.5,-533.38 97,-533.38 97,-533.38 91,-533.38 85,-527.38 85,-521.38 85,-521.38 85,-497.88 85,-497.88 85,-491.88 91,-485.88 97,-485.88"/>
<text text-anchor="middle" x="96.88" y="-516.08" font-family="Times New Roman,serif" font-size="14.00">3</text>
<polyline fill="none" stroke="#ff7f00" points="108.75,-509.62 108.75,-533.38"/>
<text text-anchor="middle" x="168.62" y="-516.08" font-family="Times New Roman,serif" font-size="14.00">Around the World</text>
<polyline fill="none" stroke="#ff7f00" points="85,-509.62 228.5,-509.62"/>
<text text-anchor="middle" x="156.75" y="-492.32" font-family="Times New Roman,serif" font-size="14.00">HAND TRANSITION</text>
</a>
</g>
</g>
<!-- mov_atwf2b -->
<g id="node3" class="node">
<title>mov_atwf2b</title>
<g id="a_node3"><a xlink:href="https://www.youtube.com/watch?v=TwlQQXAQpaQ&amp;list=PLk4oYPJ7TXKhX8YqA2AVrfgs_pEF6p7KA&amp;index=5" xlink:title="5|Around the World\nFront to Back">
<path fill="#fdbf6f" stroke="#ff7f00" d="M12,-389.62C12,-389.62 129.5,-389.62 129.5,-389.62 135.5,-389.62 141.5,-395.62 141.5,-401.62 141.5,-401.62 141.5,-417.12 141.5,-417.12 141.5,-423.12 135.5,-429.12 129.5,-429.12 129.5,-429.12 12,-429.12 12,-429.12 6,-429.12 0,-423.12 0,-417.12 0,-417.12 0,-401.62 0,-401.62 0,-395.62 6,-389.62 12,-389.62"/>
<text text-anchor="middle" x="11.38" y="-403.95" font-family="Times New Roman,serif" font-size="14.00">5</text>
<polyline fill="none" stroke="#ff7f00" points="22.75,-389.62 22.75,-429.12"/>
<text text-anchor="middle" x="82.12" y="-411.82" font-family="Times New Roman,serif" font-size="14.00">Around the World</text>
<text text-anchor="middle" x="82.12" y="-396.07" font-family="Times New Roman,serif" font-size="14.00">Front to Back</text>
</a>
</g>
</g>
<!-- mov_atw&#45;&gt;mov_atwf2b -->
<g id="edge4" class="edge">
<title>mov_atw&#45;&gt;mov_atwf2b</title>
<path fill="none" stroke="black" d="M137.24,-486.33C124.44,-471.71 107.64,-452.52 94.13,-437.09"/>
<polygon fill="black" stroke="black" points="96.23,-435.17 87.01,-429.95 90.97,-439.78 96.23,-435.17"/>
</g>
<!-- mov_halo -->
<g id="node2" class="node">
<title>mov_halo</title>
<g id="a_node2"><a xlink:href="https://www.youtube.com/watch?v=25xdtjbFPtw&amp;list=PLk4oYPJ7TXKhX8YqA2AVrfgs_pEF6p7KA&amp;index=4" xlink:title="{{4|Halo}|GLOBE UP\nORDER POSITION}">
<path fill="#fdbf6f" stroke="#ff7f00" d="M344.25,-478C344.25,-478 453.25,-478 453.25,-478 459.25,-478 465.25,-484 465.25,-490 465.25,-490 465.25,-529.25 465.25,-529.25 465.25,-535.25 459.25,-541.25 453.25,-541.25 453.25,-541.25 344.25,-541.25 344.25,-541.25 338.25,-541.25 332.25,-535.25 332.25,-529.25 332.25,-529.25 332.25,-490 332.25,-490 332.25,-484 338.25,-478 344.25,-478"/>
<text text-anchor="middle" x="360.62" y="-523.95" font-family="Times New Roman,serif" font-size="14.00">4</text>
<polyline fill="none" stroke="#ff7f00" points="389,-517.5 389,-541.25"/>
<text text-anchor="middle" x="427.12" y="-523.95" font-family="Times New Roman,serif" font-size="14.00">Halo</text>
<polyline fill="none" stroke="#ff7f00" points="332.25,-517.5 465.25,-517.5"/>
<text text-anchor="middle" x="398.75" y="-500.2" font-family="Times New Roman,serif" font-size="14.00">GLOBE UP</text>
<text text-anchor="middle" x="398.75" y="-484.45" font-family="Times New Roman,serif" font-size="14.00">ORDER POSITION</text>
</a>
</g>
</g>
<!-- mov_althalo -->
<g id="node10" class="node">
<title>mov_althalo</title>
<g id="a_node10"><a xlink:href="https://www.youtube.com/watch?v=SMpquy5zSL4&amp;list=PLk4oYPJ7TXKhX8YqA2AVrfgs_pEF6p7KA&amp;index=7" xlink:title="7|Alternating Halo">
<path fill="#ffff99" stroke="#b15928" d="M346.38,-391.38C346.38,-391.38 451.12,-391.38 451.12,-391.38 457.12,-391.38 463.12,-397.38 463.12,-403.38 463.12,-403.38 463.12,-415.38 463.12,-415.38 463.12,-421.38 457.12,-427.38 451.12,-427.38 451.12,-427.38 346.38,-427.38 346.38,-427.38 340.38,-427.38 334.38,-421.38 334.38,-415.38 334.38,-415.38 334.38,-403.38 334.38,-403.38 334.38,-397.38 340.38,-391.38 346.38,-391.38"/>
<text text-anchor="middle" x="345.75" y="-403.95" font-family="Times New Roman,serif" font-size="14.00">7</text>
<polyline fill="none" stroke="#b15928" points="357.12,-391.38 357.12,-427.38"/>
<text text-anchor="middle" x="410.12" y="-403.95" font-family="Times New Roman,serif" font-size="14.00">Alternating Halo</text>
</a>
</g>
</g>
<!-- mov_halo&#45;&gt;mov_althalo -->
<g id="edge6" class="edge">
<title>mov_halo&#45;&gt;mov_althalo</title>
<path fill="none" stroke="black" d="M398.75,-478.08C398.75,-465.22 398.75,-450.38 398.75,-437.88"/>
<polygon fill="black" stroke="black" points="402.25,-438.17 398.75,-428.17 395.25,-438.17 402.25,-438.17"/>
</g>
<!-- mov_gobboxsquat -->
<g id="node20" class="node">
<title>mov_gobboxsquat</title>
<g id="a_node20"><a xlink:href="https://www.youtube.com/watch?v=k5Bc7pkEmrU&amp;list=PLk4oYPJ7TXKhX8YqA2AVrfgs_pEF6p7KA&amp;index=20" xlink:title="{{20|Bottoms&#45;Up Goblet\nBox Squat}|SQUAT BACK}">
<path fill="#ffff99" stroke="#b15928" d="M171.12,-377.75C171.12,-377.75 304.38,-377.75 304.38,-377.75 310.38,-377.75 316.38,-383.75 316.38,-389.75 316.38,-389.75 316.38,-429 316.38,-429 316.38,-435 310.38,-441 304.38,-441 304.38,-441 171.12,-441 171.12,-441 165.12,-441 159.12,-435 159.12,-429 159.12,-429 159.12,-389.75 159.12,-389.75 159.12,-383.75 165.12,-377.75 171.12,-377.75"/>
<text text-anchor="middle" x="173.88" y="-415.82" font-family="Times New Roman,serif" font-size="14.00">20</text>
<polyline fill="none" stroke="#b15928" points="188.62,-401.5 188.62,-441"/>
<text text-anchor="middle" x="252.5" y="-423.7" font-family="Times New Roman,serif" font-size="14.00">Bottoms&#45;Up Goblet</text>
<text text-anchor="middle" x="252.5" y="-407.95" font-family="Times New Roman,serif" font-size="14.00">Box Squat</text>
<polyline fill="none" stroke="#b15928" points="159.12,-401.5 316.38,-401.5"/>
<text text-anchor="middle" x="237.75" y="-384.2" font-family="Times New Roman,serif" font-size="14.00">SQUAT BACK</text>
</a>
</g>
</g>
<!-- mov_halo&#45;&gt;mov_gobboxsquat -->
<g id="edge23" class="edge">
<title>mov_halo&#45;&gt;mov_gobboxsquat</title>
<path fill="none" stroke="black" d="M348.69,-478.08C332.34,-468.1 314.01,-456.91 297.04,-446.56"/>
<polygon fill="black" stroke="black" points="299.14,-443.13 288.78,-440.9 295.49,-449.1 299.14,-443.13"/>
</g>
<!-- mov_atwb2f -->
<g id="node4" class="node">
<title>mov_atwb2f</title>
<g id="a_node4"><a xlink:href="https://www.youtube.com/watch?v=GrRO00YOIWM&amp;list=PLk4oYPJ7TXKhX8YqA2AVrfgs_pEF6p7KA&amp;index=6" xlink:title="6|Around the World\nBack to Front">
<path fill="#fdbf6f" stroke="#ff7f00" d="M12,-289.38C12,-289.38 129.5,-289.38 129.5,-289.38 135.5,-289.38 141.5,-295.38 141.5,-301.38 141.5,-301.38 141.5,-316.88 141.5,-316.88 141.5,-322.88 135.5,-328.88 129.5,-328.88 129.5,-328.88 12,-328.88 12,-328.88 6,-328.88 0,-322.88 0,-316.88 0,-316.88 0,-301.38 0,-301.38 0,-295.38 6,-289.38 12,-289.38"/>
<text text-anchor="middle" x="11.38" y="-303.7" font-family="Times New Roman,serif" font-size="14.00">6</text>
<polyline fill="none" stroke="#ff7f00" points="22.75,-289.38 22.75,-328.88"/>
<text text-anchor="middle" x="82.12" y="-311.57" font-family="Times New Roman,serif" font-size="14.00">Around the World</text>
<text text-anchor="middle" x="82.12" y="-295.82" font-family="Times New Roman,serif" font-size="14.00">Back to Front</text>
</a>
</g>
</g>
<!-- mov_atwf2b&#45;&gt;mov_atwb2f -->
<g id="edge5" class="edge">
<title>mov_atwf2b&#45;&gt;mov_atwb2f</title>
<path fill="none" stroke="black" d="M70.75,-389.89C70.75,-375.71 70.75,-355.86 70.75,-339.51"/>
<polygon fill="black" stroke="black" points="74.25,-339.86 70.75,-329.86 67.25,-339.86 74.25,-339.86"/>
</g>
<!-- mov_2hu1hd -->
<g id="node5" class="node">
<title>mov_2hu1hd</title>
<g id="a_node5"><a xlink:href="https://www.youtube.com/watch?v=eMkDP9VmMc0&amp;list=PLk4oYPJ7TXKhX8YqA2AVrfgs_pEF6p7KA&amp;index=8" xlink:title="{{8|Two Hand Pickup\nOne Hand Putdown}|RACK POSITION}">
<path fill="#cab2d6" stroke="#6a3d9a" d="M492.88,-377.75C492.88,-377.75 618.62,-377.75 618.62,-377.75 624.62,-377.75 630.62,-383.75 630.62,-389.75 630.62,-389.75 630.62,-429 630.62,-429 630.62,-435 624.62,-441 618.62,-441 618.62,-441 492.88,-441 492.88,-441 486.88,-441 480.88,-435 480.88,-429 480.88,-429 480.88,-389.75 480.88,-389.75 480.88,-383.75 486.88,-377.75 492.88,-377.75"/>
<text text-anchor="middle" x="492.25" y="-415.82" font-family="Times New Roman,serif" font-size="14.00">8</text>
<polyline fill="none" stroke="#6a3d9a" points="503.62,-401.5 503.62,-441"/>
<text text-anchor="middle" x="567.12" y="-423.7" font-family="Times New Roman,serif" font-size="14.00">Two Hand Pickup</text>
<text text-anchor="middle" x="567.12" y="-407.95" font-family="Times New Roman,serif" font-size="14.00">One Hand Putdown</text>
<polyline fill="none" stroke="#6a3d9a" points="480.88,-401.5 630.62,-401.5"/>
<text text-anchor="middle" x="555.75" y="-384.2" font-family="Times New Roman,serif" font-size="14.00">RACK POSITION</text>
</a>
</g>
</g>
<!-- mov_2hucleandown -->
<g id="node6" class="node">
<title>mov_2hucleandown</title>
<g id="a_node6"><a xlink:href="https://www.youtube.com/watch?v=cQC2y-ByaAw&amp;list=PLk4oYPJ7TXKhX8YqA2AVrfgs_pEF6p7KA&amp;index=11" xlink:title="11|Two Hand Pickup\nClean Putdown">
<path fill="#cab2d6" stroke="#6a3d9a" d="M594.62,-289.38C594.62,-289.38 718.88,-289.38 718.88,-289.38 724.88,-289.38 730.88,-295.38 730.88,-301.38 730.88,-301.38 730.88,-316.88 730.88,-316.88 730.88,-322.88 724.88,-328.88 718.88,-328.88 718.88,-328.88 594.62,-328.88 594.62,-328.88 588.62,-328.88 582.62,-322.88 582.62,-316.88 582.62,-316.88 582.62,-301.38 582.62,-301.38 582.62,-295.38 588.62,-289.38 594.62,-289.38"/>
<text text-anchor="middle" x="597.38" y="-303.7" font-family="Times New Roman,serif" font-size="14.00">11</text>
<polyline fill="none" stroke="#6a3d9a" points="612.12,-289.38 612.12,-328.88"/>
<text text-anchor="middle" x="671.5" y="-311.57" font-family="Times New Roman,serif" font-size="14.00">Two Hand Pickup</text>
<text text-anchor="middle" x="671.5" y="-295.82" font-family="Times New Roman,serif" font-size="14.00">Clean Putdown</text>
</a>
</g>
</g>
<!-- mov_2hu1hd&#45;&gt;mov_2hucleandown -->
<g id="edge10" class="edge">
<title>mov_2hu1hd&#45;&gt;mov_2hucleandown</title>
<path fill="none" stroke="black" d="M587.15,-377.83C600.87,-364.48 616.79,-349 629.94,-336.21"/>
<polygon fill="black" stroke="black" points="631.99,-339.12 636.72,-329.64 627.11,-334.1 631.99,-339.12"/>
</g>
<!-- mov_press -->
<g id="node15" class="node">
<title>mov_press</title>
<g id="a_node15"><a xlink:href="https://www.youtube.com/watch?v=XHkI03S6Pls&amp;list=PLk4oYPJ7TXKhX8YqA2AVrfgs_pEF6p7KA&amp;index=14" xlink:title="14|Single Arm\nOverhead Press">
<path fill="#ffff99" stroke="#b15928" d="M436.75,-189.12C436.75,-189.12 546.75,-189.12 546.75,-189.12 552.75,-189.12 558.75,-195.12 558.75,-201.12 558.75,-201.12 558.75,-216.62 558.75,-216.62 558.75,-222.62 552.75,-228.62 546.75,-228.62 546.75,-228.62 436.75,-228.62 436.75,-228.62 430.75,-228.62 424.75,-222.62 424.75,-216.62 424.75,-216.62 424.75,-201.12 424.75,-201.12 424.75,-195.12 430.75,-189.12 436.75,-189.12"/>
<text text-anchor="middle" x="439.5" y="-203.45" font-family="Times New Roman,serif" font-size="14.00">14</text>
<polyline fill="none" stroke="#b15928" points="454.25,-189.12 454.25,-228.62"/>
<text text-anchor="middle" x="506.5" y="-211.32" font-family="Times New Roman,serif" font-size="14.00">Single Arm</text>
<text text-anchor="middle" x="506.5" y="-195.57" font-family="Times New Roman,serif" font-size="14.00">Overhead Press</text>
</a>
</g>
</g>
<!-- mov_2hu1hd&#45;&gt;mov_press -->
<g id="edge15" class="edge">
<title>mov_2hu1hd&#45;&gt;mov_press</title>
<path fill="none" stroke="black" d="M545.89,-377.79C533.67,-339.88 512.99,-275.76 501.04,-238.69"/>
<polygon fill="black" stroke="black" points="504.17,-237.99 497.77,-229.55 497.51,-240.14 504.17,-237.99"/>
</g>
<!-- mov_racksquat -->
<g id="node23" class="node">
<title>mov_racksquat</title>
<g id="a_node23"><a xlink:href="https://www.youtube.com/watch?v=KTDVl0Lkdc4&amp;list=PLk4oYPJ7TXKhX8YqA2AVrfgs_pEF6p7KA&amp;index=23" xlink:title="{{23|Single&#45;bell front squat}}">
<path fill="#ffff99" stroke="#b15928" d="M209.88,-102.5C209.88,-102.5 353.62,-102.5 353.62,-102.5 359.62,-102.5 365.62,-108.5 365.62,-114.5 365.62,-114.5 365.62,-126.5 365.62,-126.5 365.62,-132.5 359.62,-138.5 353.62,-138.5 353.62,-138.5 209.88,-138.5 209.88,-138.5 203.88,-138.5 197.88,-132.5 197.88,-126.5 197.88,-126.5 197.88,-114.5 197.88,-114.5 197.88,-108.5 203.88,-102.5 209.88,-102.5"/>
<text text-anchor="middle" x="212.62" y="-115.2" font-family="Times New Roman,serif" font-size="14.00">23</text>
<polyline fill="none" stroke="#b15928" points="227.38,-102.75 227.38,-138.5"/>
<text text-anchor="middle" x="296.5" y="-115.2" font-family="Times New Roman,serif" font-size="14.00">Single&#45;bell front squat</text>
</a>
</g>
</g>
<!-- mov_2hu1hd&#45;&gt;mov_racksquat -->
<g id="edge27" class="edge">
<title>mov_2hu1hd&#45;&gt;mov_racksquat</title>
<path fill="none" stroke="black" d="M526.69,-377.95C472.17,-320.87 355.55,-198.77 305.44,-146.3"/>
<polygon fill="black" stroke="black" points="308.42,-144.31 298.99,-139.5 303.36,-149.15 308.42,-144.31"/>
</g>
<!-- mov_clean -->
<g id="node13" class="node">
<title>mov_clean</title>
<g id="a_node13"><a xlink:href="https://www.youtube.com/watch?v=_nIsSXWs5iU&amp;list=PLk4oYPJ7TXKhX8YqA2AVrfgs_pEF6p7KA&amp;index=12" xlink:title="12|Swing Clean">
<path fill="#ffff99" stroke="#b15928" d="M611.12,-190.88C611.12,-190.88 702.38,-190.88 702.38,-190.88 708.38,-190.88 714.38,-196.88 714.38,-202.88 714.38,-202.88 714.38,-214.88 714.38,-214.88 714.38,-220.88 708.38,-226.88 702.38,-226.88 702.38,-226.88 611.12,-226.88 611.12,-226.88 605.12,-226.88 599.12,-220.88 599.12,-214.88 599.12,-214.88 599.12,-202.88 599.12,-202.88 599.12,-196.88 605.12,-190.88 611.12,-190.88"/>
<text text-anchor="middle" x="613.88" y="-203.45" font-family="Times New Roman,serif" font-size="14.00">12</text>
<polyline fill="none" stroke="#b15928" points="628.62,-190.88 628.62,-226.88"/>
<text text-anchor="middle" x="671.5" y="-203.45" font-family="Times New Roman,serif" font-size="14.00">Swing Clean</text>
</a>
</g>
</g>
<!-- mov_2hucleandown&#45;&gt;mov_clean -->
<g id="edge12" class="edge">
<title>mov_2hucleandown&#45;&gt;mov_clean</title>
<path fill="none" stroke="black" d="M656.75,-289.64C656.75,-274.92 656.75,-254.08 656.75,-237.4"/>
<polygon fill="black" stroke="black" points="660.25,-237.63 656.75,-227.63 653.25,-237.63 660.25,-237.63"/>
</g>
<!-- mov_news -->
<g id="node7" class="node">
<title>mov_news</title>
<g id="a_node7"><a xlink:href="https://www.youtube.com/watch?v=htByOXjHLXE&amp;list=PLk4oYPJ7TXKhX8YqA2AVrfgs_pEF6p7KA&amp;index=15" xlink:title="15|Newspaper drill">
<path fill="#cab2d6" stroke="#6a3d9a" d="M707.12,-102.5C707.12,-102.5 816.38,-102.5 816.38,-102.5 822.38,-102.5 828.38,-108.5 828.38,-114.5 828.38,-114.5 828.38,-126.5 828.38,-126.5 828.38,-132.5 822.38,-138.5 816.38,-138.5 816.38,-138.5 707.12,-138.5 707.12,-138.5 701.12,-138.5 695.12,-132.5 695.12,-126.5 695.12,-126.5 695.12,-114.5 695.12,-114.5 695.12,-108.5 701.12,-102.5 707.12,-102.5"/>
<text text-anchor="middle" x="709.88" y="-115.08" font-family="Times New Roman,serif" font-size="14.00">15</text>
<polyline fill="none" stroke="#6a3d9a" points="724.62,-102.5 724.62,-138.5"/>
<text text-anchor="middle" x="776.5" y="-115.08" font-family="Times New Roman,serif" font-size="14.00">Newspaper drill</text>
</a>
</g>
</g>
<!-- mov_deadlift -->
<g id="node8" class="node">
<title>mov_deadlift</title>
<g id="a_node8"><a xlink:href="https://www.youtube.com/watch?v=x0XkmM34BPI&amp;list=PLk4oYPJ7TXKhX8YqA2AVrfgs_pEF6p7KA&amp;index=1" xlink:title="{{1|Two Hand Deadlift}|HIP HINGE}">
<path fill="#ffff99" stroke="#b15928" d="M400.75,-578.25C400.75,-578.25 522.75,-578.25 522.75,-578.25 528.75,-578.25 534.75,-584.25 534.75,-590.25 534.75,-590.25 534.75,-613.75 534.75,-613.75 534.75,-619.75 528.75,-625.75 522.75,-625.75 522.75,-625.75 400.75,-625.75 400.75,-625.75 394.75,-625.75 388.75,-619.75 388.75,-613.75 388.75,-613.75 388.75,-590.25 388.75,-590.25 388.75,-584.25 394.75,-578.25 400.75,-578.25"/>
<text text-anchor="middle" x="400.12" y="-608.45" font-family="Times New Roman,serif" font-size="14.00">1</text>
<polyline fill="none" stroke="#b15928" points="411.5,-602 411.5,-625.75"/>
<text text-anchor="middle" x="473.12" y="-608.45" font-family="Times New Roman,serif" font-size="14.00">Two Hand Deadlift</text>
<polyline fill="none" stroke="#b15928" points="388.75,-602 534.75,-602"/>
<text text-anchor="middle" x="461.75" y="-584.7" font-family="Times New Roman,serif" font-size="14.00">HIP HINGE</text>
</a>
</g>
</g>
<!-- mov_deadlift&#45;&gt;mov_atw -->
<g id="edge2" class="edge">
<title>mov_deadlift&#45;&gt;mov_atw</title>
<path fill="none" stroke="black" d="M389.08,-579.47C343.87,-566.07 285.62,-548.81 238.76,-534.93"/>
<polygon fill="black" stroke="black" points="239.92,-531.32 229.33,-531.84 237.93,-538.03 239.92,-531.32"/>
</g>
<!-- mov_deadlift&#45;&gt;mov_halo -->
<g id="edge3" class="edge">
<title>mov_deadlift&#45;&gt;mov_halo</title>
<path fill="none" stroke="black" d="M446.18,-578.66C440.15,-570.02 433.07,-559.86 426.24,-550.07"/>
<polygon fill="black" stroke="black" points="428.67,-548.43 420.08,-542.23 422.93,-552.43 428.67,-548.43"/>
</g>
<!-- mov_deadlift&#45;&gt;mov_2hu1hd -->
<g id="edge7" class="edge">
<title>mov_deadlift&#45;&gt;mov_2hu1hd</title>
<path fill="none" stroke="black" d="M472.9,-578.38C488.46,-546.84 516.92,-489.13 536.08,-450.26"/>
<polygon fill="black" stroke="black" points="539.46,-452.33 540.74,-441.81 533.18,-449.23 539.46,-452.33"/>
</g>
<!-- mov_swing -->
<g id="node9" class="node">
<title>mov_swing</title>
<g id="a_node9"><a xlink:href="https://www.youtube.com/watch?v=m-S9H2XVvYg&amp;list=PLk4oYPJ7TXKhX8YqA2AVrfgs_pEF6p7KA&amp;index=2" xlink:title="{{2|Two Hand Swing}|LEG DRIVE &amp;\nHIP SNAP}">
<path fill="#ffff99" stroke="#b15928" d="M619.25,-478C619.25,-478 732.25,-478 732.25,-478 738.25,-478 744.25,-484 744.25,-490 744.25,-490 744.25,-529.25 744.25,-529.25 744.25,-535.25 738.25,-541.25 732.25,-541.25 732.25,-541.25 619.25,-541.25 619.25,-541.25 613.25,-541.25 607.25,-535.25 607.25,-529.25 607.25,-529.25 607.25,-490 607.25,-490 607.25,-484 613.25,-478 619.25,-478"/>
<text text-anchor="middle" x="618.62" y="-523.95" font-family="Times New Roman,serif" font-size="14.00">2</text>
<polyline fill="none" stroke="#b15928" points="630,-517.5 630,-541.25"/>
<text text-anchor="middle" x="687.12" y="-523.95" font-family="Times New Roman,serif" font-size="14.00">Two Hand Swing</text>
<polyline fill="none" stroke="#b15928" points="607.25,-517.5 744.25,-517.5"/>
<text text-anchor="middle" x="675.75" y="-500.2" font-family="Times New Roman,serif" font-size="14.00">LEG DRIVE &amp;</text>
<text text-anchor="middle" x="675.75" y="-484.45" font-family="Times New Roman,serif" font-size="14.00">HIP SNAP</text>
</a>
</g>
</g>
<!-- mov_deadlift&#45;&gt;mov_swing -->
<g id="edge1" class="edge">
<title>mov_deadlift&#45;&gt;mov_swing</title>
<path fill="none" stroke="black" d="M515.48,-578.31C540.29,-567.83 570.23,-555.19 597.48,-543.68"/>
<polygon fill="black" stroke="black" points="598.54,-546.61 606.39,-539.5 595.81,-540.16 598.54,-546.61"/>
</g>
<!-- mov_saswing -->
<g id="node11" class="node">
<title>mov_saswing</title>
<g id="a_node11"><a xlink:href="https://www.youtube.com/watch?v=ejPpyLKZ1L4&amp;list=PLk4oYPJ7TXKhX8YqA2AVrfgs_pEF6p7KA&amp;index=9" xlink:title="{{9|Single Arm Swing}|THUMB POINTS BACK}">
<path fill="#ffff99" stroke="#b15928" d="M661,-385.62C661,-385.62 798.5,-385.62 798.5,-385.62 804.5,-385.62 810.5,-391.62 810.5,-397.62 810.5,-397.62 810.5,-421.12 810.5,-421.12 810.5,-427.12 804.5,-433.12 798.5,-433.12 798.5,-433.12 661,-433.12 661,-433.12 655,-433.12 649,-427.12 649,-421.12 649,-421.12 649,-397.62 649,-397.62 649,-391.62 655,-385.62 661,-385.62"/>
<text text-anchor="middle" x="665.88" y="-415.82" font-family="Times New Roman,serif" font-size="14.00">9</text>
<polyline fill="none" stroke="#b15928" points="682.75,-409.38 682.75,-433.12"/>
<text text-anchor="middle" x="746.5" y="-415.82" font-family="Times New Roman,serif" font-size="14.00">Single Arm Swing</text>
<polyline fill="none" stroke="#b15928" points="649,-409.38 810.5,-409.38"/>
<text text-anchor="middle" x="729.75" y="-392.07" font-family="Times New Roman,serif" font-size="14.00">THUMB POINTS BACK</text>
</a>
</g>
</g>
<!-- mov_swing&#45;&gt;mov_saswing -->
<g id="edge8" class="edge">
<title>mov_swing&#45;&gt;mov_saswing</title>
<path fill="none" stroke="black" d="M692.54,-478.08C698.72,-466.84 705.73,-454.07 711.99,-442.68"/>
<polygon fill="black" stroke="black" points="715.51,-444.55 717.26,-434.1 709.38,-441.18 715.51,-444.55"/>
</g>
<!-- mov_saswing&#45;&gt;mov_2hucleandown -->
<g id="edge11" class="edge">
<title>mov_saswing&#45;&gt;mov_2hucleandown</title>
<path fill="none" stroke="black" d="M713.19,-386.08C702.42,-371.6 688.33,-352.63 676.92,-337.27"/>
<polygon fill="black" stroke="black" points="679.33,-335.64 670.55,-329.7 673.71,-339.82 679.33,-335.64"/>
</g>
<!-- mov_h2h -->
<g id="node12" class="node">
<title>mov_h2h</title>
<g id="a_node12"><a xlink:href="https://www.youtube.com/watch?v=0Uk0Rdm3QFs&amp;list=PLk4oYPJ7TXKhX8YqA2AVrfgs_pEF6p7KA&amp;index=10" xlink:title="10|Hand to Hand\nTransition">
<path fill="#ffff99" stroke="#b15928" d="M809.62,-189.12C809.62,-189.12 909.88,-189.12 909.88,-189.12 915.88,-189.12 921.88,-195.12 921.88,-201.12 921.88,-201.12 921.88,-216.62 921.88,-216.62 921.88,-222.62 915.88,-228.62 909.88,-228.62 909.88,-228.62 809.62,-228.62 809.62,-228.62 803.62,-228.62 797.62,-222.62 797.62,-216.62 797.62,-216.62 797.62,-201.12 797.62,-201.12 797.62,-195.12 803.62,-189.12 809.62,-189.12"/>
<text text-anchor="middle" x="812.38" y="-203.45" font-family="Times New Roman,serif" font-size="14.00">10</text>
<polyline fill="none" stroke="#b15928" points="827.12,-189.12 827.12,-228.62"/>
<text text-anchor="middle" x="874.5" y="-211.32" font-family="Times New Roman,serif" font-size="14.00">Hand to Hand</text>
<text text-anchor="middle" x="874.5" y="-195.57" font-family="Times New Roman,serif" font-size="14.00">Transition</text>
</a>
</g>
</g>
<!-- mov_saswing&#45;&gt;mov_h2h -->
<g id="edge9" class="edge">
<title>mov_saswing&#45;&gt;mov_h2h</title>
<path fill="none" stroke="black" d="M744.41,-385.99C768.39,-349.38 815.9,-276.83 841.84,-237.23"/>
<polygon fill="black" stroke="black" points="845.08,-239.66 847.64,-229.37 839.23,-235.82 845.08,-239.66"/>
</g>
<!-- mov_cleanh2h -->
<g id="node14" class="node">
<title>mov_cleanh2h</title>
<g id="a_node14"><a xlink:href="https://www.youtube.com/watch?v=6TVqHl2gtuM&amp;list=PLk4oYPJ7TXKhX8YqA2AVrfgs_pEF6p7KA&amp;index=13" xlink:title="13|Clean with\nHand Transition">
<path fill="#ffff99" stroke="#b15928" d="M858,-100.75C858,-100.75 969.5,-100.75 969.5,-100.75 975.5,-100.75 981.5,-106.75 981.5,-112.75 981.5,-112.75 981.5,-128.25 981.5,-128.25 981.5,-134.25 975.5,-140.25 969.5,-140.25 969.5,-140.25 858,-140.25 858,-140.25 852,-140.25 846,-134.25 846,-128.25 846,-128.25 846,-112.75 846,-112.75 846,-106.75 852,-100.75 858,-100.75"/>
<text text-anchor="middle" x="860.75" y="-115.08" font-family="Times New Roman,serif" font-size="14.00">13</text>
<polyline fill="none" stroke="#b15928" points="875.5,-100.75 875.5,-140.25"/>
<text text-anchor="middle" x="928.5" y="-122.95" font-family="Times New Roman,serif" font-size="14.00">Clean with</text>
<text text-anchor="middle" x="928.5" y="-107.2" font-family="Times New Roman,serif" font-size="14.00">Hand Transition</text>
</a>
</g>
</g>
<!-- mov_h2h&#45;&gt;mov_cleanh2h -->
<g id="edge14" class="edge">
<title>mov_h2h&#45;&gt;mov_cleanh2h</title>
<path fill="none" stroke="black" d="M871.47,-189.13C878.76,-177.47 888.26,-162.27 896.41,-149.23"/>
<polygon fill="black" stroke="black" points="899.72,-151.54 902.06,-141.21 893.79,-147.83 899.72,-151.54"/>
</g>
<!-- mov_clean&#45;&gt;mov_news -->
<g id="edge16" class="edge">
<title>mov_clean&#45;&gt;mov_news</title>
<path fill="none" stroke="black" d="M677.24,-191.02C693.14,-177.94 715.38,-159.65 733.05,-145.11"/>
<polygon fill="black" stroke="black" points="734.81,-147.37 740.31,-138.32 730.36,-141.97 734.81,-147.37"/>
</g>
<!-- mov_clean&#45;&gt;mov_cleanh2h -->
<g id="edge13" class="edge">
<title>mov_clean&#45;&gt;mov_cleanh2h</title>
<path fill="none" stroke="black" d="M707.22,-190.91C747.41,-177.4 804,-158.39 847.78,-143.67"/>
<polygon fill="black" stroke="black" points="848.68,-146.72 857.05,-140.22 846.45,-140.09 848.68,-146.72"/>
</g>
<!-- mov_startstopclean -->
<g id="node16" class="node">
<title>mov_startstopclean</title>
<g id="a_node16"><a xlink:href="https://www.youtube.com/watch?v=XbK3jxI0WNQ&amp;list=PLk4oYPJ7TXKhX8YqA2AVrfgs_pEF6p7KA&amp;index=16" xlink:title="16|Start Stop Clean">
<path fill="#ffff99" stroke="#b15928" d="M550.88,-102.5C550.88,-102.5 664.62,-102.5 664.62,-102.5 670.62,-102.5 676.62,-108.5 676.62,-114.5 676.62,-114.5 676.62,-126.5 676.62,-126.5 676.62,-132.5 670.62,-138.5 664.62,-138.5 664.62,-138.5 550.88,-138.5 550.88,-138.5 544.88,-138.5 538.88,-132.5 538.88,-126.5 538.88,-126.5 538.88,-114.5 538.88,-114.5 538.88,-108.5 544.88,-102.5 550.88,-102.5"/>
<text text-anchor="middle" x="553.62" y="-115.08" font-family="Times New Roman,serif" font-size="14.00">16</text>
<polyline fill="none" stroke="#b15928" points="568.38,-102.5 568.38,-138.5"/>
<text text-anchor="middle" x="622.5" y="-115.08" font-family="Times New Roman,serif" font-size="14.00">Start Stop Clean</text>
</a>
</g>
</g>
<!-- mov_clean&#45;&gt;mov_startstopclean -->
<g id="edge17" class="edge">
<title>mov_clean&#45;&gt;mov_startstopclean</title>
<path fill="none" stroke="black" d="M647.3,-191.22C640.3,-178.87 630.61,-161.8 622.58,-147.64"/>
<polygon fill="black" stroke="black" points="625.31,-146.37 617.34,-139.4 619.23,-149.82 625.31,-146.37"/>
</g>
<!-- mov_cap -->
<g id="node17" class="node">
<title>mov_cap</title>
<g id="a_node17"><a xlink:href="https://www.youtube.com/watch?v=SSxB3m5qRas&amp;list=PLk4oYPJ7TXKhX8YqA2AVrfgs_pEF6p7KA&amp;index=17" xlink:title="17|Clean &amp; Press">
<path fill="#ffff99" stroke="#b15928" d="M406.5,-102.5C406.5,-102.5 509,-102.5 509,-102.5 515,-102.5 521,-108.5 521,-114.5 521,-114.5 521,-126.5 521,-126.5 521,-132.5 515,-138.5 509,-138.5 509,-138.5 406.5,-138.5 406.5,-138.5 400.5,-138.5 394.5,-132.5 394.5,-126.5 394.5,-126.5 394.5,-114.5 394.5,-114.5 394.5,-108.5 400.5,-102.5 406.5,-102.5"/>
<text text-anchor="middle" x="409.25" y="-115.08" font-family="Times New Roman,serif" font-size="14.00">17</text>
<polyline fill="none" stroke="#b15928" points="424,-102.5 424,-138.5"/>
<text text-anchor="middle" x="472.5" y="-115.08" font-family="Times New Roman,serif" font-size="14.00">Clean &amp; Press</text>
</a>
</g>
</g>
<!-- mov_clean&#45;&gt;mov_cap -->
<g id="edge18" class="edge">
<title>mov_clean&#45;&gt;mov_cap</title>
<path fill="none" stroke="black" d="M617.91,-191.02C586.1,-177.21 540.91,-157.6 506.64,-142.72"/>
<polygon fill="black" stroke="black" points="508.4,-139.23 497.83,-138.46 505.61,-145.66 508.4,-139.23"/>
</g>
<!-- mov_caph2h -->
<g id="node18" class="node">
<title>mov_caph2h</title>
<g id="a_node18"><a xlink:href="https://www.youtube.com/watch?v=5Q4vMOYvAGg&amp;list=PLk4oYPJ7TXKhX8YqA2AVrfgs_pEF6p7KA&amp;index=18" xlink:title="18|Clean &amp; Press with\nHand Transition">
<path fill="#ffff99" stroke="#b15928" d="M700,-24.25C700,-24.25 829.5,-24.25 829.5,-24.25 835.5,-24.25 841.5,-30.25 841.5,-36.25 841.5,-36.25 841.5,-51.75 841.5,-51.75 841.5,-57.75 835.5,-63.75 829.5,-63.75 829.5,-63.75 700,-63.75 700,-63.75 694,-63.75 688,-57.75 688,-51.75 688,-51.75 688,-36.25 688,-36.25 688,-30.25 694,-24.25 700,-24.25"/>
<text text-anchor="middle" x="702.75" y="-38.58" font-family="Times New Roman,serif" font-size="14.00">18</text>
<polyline fill="none" stroke="#b15928" points="717.5,-24.25 717.5,-63.75"/>
<text text-anchor="middle" x="779.5" y="-46.45" font-family="Times New Roman,serif" font-size="14.00">Clean &amp; Press with</text>
<text text-anchor="middle" x="779.5" y="-30.7" font-family="Times New Roman,serif" font-size="14.00">Hand Transition</text>
</a>
</g>
</g>
<!-- mov_cleanh2h&#45;&gt;mov_caph2h -->
<g id="edge21" class="edge">
<title>mov_cleanh2h&#45;&gt;mov_caph2h</title>
<path fill="none" stroke="black" d="M876.54,-100.89C856.89,-91.07 832.59,-78.92 811.66,-68.46"/>
<polygon fill="black" stroke="black" points="813.52,-64.97 803.01,-63.63 810.39,-71.23 813.52,-64.97"/>
</g>
<!-- mov_press&#45;&gt;mov_cap -->
<g id="edge19" class="edge">
<title>mov_press&#45;&gt;mov_cap</title>
<path fill="none" stroke="black" d="M484.37,-189.13C479.69,-177.23 473.55,-161.64 468.35,-148.42"/>
<polygon fill="black" stroke="black" points="471.34,-147.47 464.42,-139.45 464.83,-150.04 471.34,-147.47"/>
</g>
<!-- mov_cap&#45;&gt;mov_caph2h -->
<g id="edge20" class="edge">
<title>mov_cap&#45;&gt;mov_caph2h</title>
<path fill="none" stroke="black" d="M520.55,-102.59C523.66,-101.79 526.74,-101.01 529.75,-100.25 578.58,-87.99 633.32,-75.07 677.68,-64.81"/>
<polygon fill="black" stroke="black" points="678.18,-68.05 687.14,-62.39 676.61,-61.23 678.18,-68.05"/>
</g>
<!-- mov_startstopcap -->
<g id="node19" class="node">
<title>mov_startstopcap</title>
<g id="a_node19"><a xlink:href="https://www.youtube.com/watch?v=dSj3kqbuois&amp;list=PLk4oYPJ7TXKhX8YqA2AVrfgs_pEF6p7KA&amp;index=19" xlink:title="19|Start Stop\nClean &amp; Press">
<path fill="#ffff99" stroke="#b15928" d="M406.5,-24.25C406.5,-24.25 509,-24.25 509,-24.25 515,-24.25 521,-30.25 521,-36.25 521,-36.25 521,-51.75 521,-51.75 521,-57.75 515,-63.75 509,-63.75 509,-63.75 406.5,-63.75 406.5,-63.75 400.5,-63.75 394.5,-57.75 394.5,-51.75 394.5,-51.75 394.5,-36.25 394.5,-36.25 394.5,-30.25 400.5,-24.25 406.5,-24.25"/>
<text text-anchor="middle" x="409.25" y="-38.58" font-family="Times New Roman,serif" font-size="14.00">19</text>
<polyline fill="none" stroke="#b15928" points="424,-24.25 424,-63.75"/>
<text text-anchor="middle" x="472.5" y="-46.45" font-family="Times New Roman,serif" font-size="14.00">Start Stop</text>
<text text-anchor="middle" x="472.5" y="-30.7" font-family="Times New Roman,serif" font-size="14.00">Clean &amp; Press</text>
</a>
</g>
</g>
<!-- mov_cap&#45;&gt;mov_startstopcap -->
<g id="edge22" class="edge">
<title>mov_cap&#45;&gt;mov_startstopcap</title>
<path fill="none" stroke="black" d="M457.75,-102.59C457.75,-94.26 457.75,-83.97 457.75,-74.41"/>
<polygon fill="black" stroke="black" points="461.25,-74.67 457.75,-64.67 454.25,-74.67 461.25,-74.67"/>
</g>
<!-- mov_boxsquathalo -->
<g id="node21" class="node">
<title>mov_boxsquathalo</title>
<g id="a_node21"><a xlink:href="https://www.youtube.com/watch?v=Aik5-BStbnc&amp;list=PLk4oYPJ7TXKhX8YqA2AVrfgs_pEF6p7KA&amp;index=21" xlink:title="{{21|Goblet Box Squat\nwith Halo}|STAND AT TOP}">
<path fill="#ffff99" stroke="#b15928" d="M177.38,-277.5C177.38,-277.5 300.12,-277.5 300.12,-277.5 306.12,-277.5 312.12,-283.5 312.12,-289.5 312.12,-289.5 312.12,-328.75 312.12,-328.75 312.12,-334.75 306.12,-340.75 300.12,-340.75 300.12,-340.75 177.38,-340.75 177.38,-340.75 171.38,-340.75 165.38,-334.75 165.38,-328.75 165.38,-328.75 165.38,-289.5 165.38,-289.5 165.38,-283.5 171.38,-277.5 177.38,-277.5"/>
<text text-anchor="middle" x="180.12" y="-315.57" font-family="Times New Roman,serif" font-size="14.00">21</text>
<polyline fill="none" stroke="#b15928" points="194.88,-301.25 194.88,-340.75"/>
<text text-anchor="middle" x="253.5" y="-323.45" font-family="Times New Roman,serif" font-size="14.00">Goblet Box Squat</text>
<text text-anchor="middle" x="253.5" y="-307.7" font-family="Times New Roman,serif" font-size="14.00">with Halo</text>
<polyline fill="none" stroke="#b15928" points="165.38,-301.25 312.12,-301.25"/>
<text text-anchor="middle" x="238.75" y="-283.95" font-family="Times New Roman,serif" font-size="14.00">STAND AT TOP</text>
</a>
</g>
</g>
<!-- mov_gobboxsquat&#45;&gt;mov_boxsquathalo -->
<g id="edge24" class="edge">
<title>mov_gobboxsquat&#45;&gt;mov_boxsquathalo</title>
<path fill="none" stroke="black" d="M238.06,-377.83C238.15,-369.51 238.24,-360.36 238.33,-351.55"/>
<polygon fill="black" stroke="black" points="241.84,-351.69 238.44,-341.65 234.84,-351.62 241.84,-351.69"/>
</g>
<!-- mov_gobsquathalo -->
<g id="node22" class="node">
<title>mov_gobsquathalo</title>
<g id="a_node22"><a xlink:href="https://www.youtube.com/watch?v=cnZ8Mx8NQPE&amp;list=PLk4oYPJ7TXKhX8YqA2AVrfgs_pEF6p7KA&amp;index=22" xlink:title="{{22|Goblet Squat\nwith Halo}|FULL DEPTH}">
<path fill="#ffff99" stroke="#b15928" d="M202.88,-177.25C202.88,-177.25 298.62,-177.25 298.62,-177.25 304.62,-177.25 310.62,-183.25 310.62,-189.25 310.62,-189.25 310.62,-228.5 310.62,-228.5 310.62,-234.5 304.62,-240.5 298.62,-240.5 298.62,-240.5 202.88,-240.5 202.88,-240.5 196.88,-240.5 190.88,-234.5 190.88,-228.5 190.88,-228.5 190.88,-189.25 190.88,-189.25 190.88,-183.25 196.88,-177.25 202.88,-177.25"/>
<text text-anchor="middle" x="205.62" y="-215.32" font-family="Times New Roman,serif" font-size="14.00">22</text>
<polyline fill="none" stroke="#b15928" points="220.38,-201 220.38,-240.5"/>
<text text-anchor="middle" x="265.5" y="-223.2" font-family="Times New Roman,serif" font-size="14.00">Goblet Squat</text>
<text text-anchor="middle" x="265.5" y="-207.45" font-family="Times New Roman,serif" font-size="14.00">with Halo</text>
<polyline fill="none" stroke="#b15928" points="190.88,-201 310.62,-201"/>
<text text-anchor="middle" x="250.75" y="-183.7" font-family="Times New Roman,serif" font-size="14.00">FULL DEPTH</text>
</a>
</g>
</g>
<!-- mov_boxsquathalo&#45;&gt;mov_gobsquathalo -->
<g id="edge25" class="edge">
<title>mov_boxsquathalo&#45;&gt;mov_gobsquathalo</title>
<path fill="none" stroke="black" d="M242.48,-277.58C243.5,-269.26 244.61,-260.11 245.69,-251.3"/>
<polygon fill="black" stroke="black" points="249.28,-251.76 247.02,-241.4 242.33,-250.91 249.28,-251.76"/>
</g>
<!-- mov_gobsquathalo&#45;&gt;mov_racksquat -->
<g id="edge26" class="edge">
<title>mov_gobsquathalo&#45;&gt;mov_racksquat</title>
<path fill="none" stroke="black" d="M261.59,-177.67C264.98,-168.22 268.7,-157.87 272,-148.65"/>
<polygon fill="black" stroke="black" points="275.57,-150.07 275.66,-139.48 268.98,-147.71 275.57,-150.07"/>
</g>
</g>
</svg>
