<?xml version="1.0" encoding="UTF-8" standalone="no"?>
<!DOCTYPE svg PUBLIC "-//W3C//DTD SVG 1.1//EN"
 "http://www.w3.org/Graphics/SVG/1.1/DTD/svg11.dtd">
<!-- Generated by graphviz version 8.1.0 (20230707.0739)
 -->
<!-- Title: kb_progression Pages: 1 -->
<svg width="882pt" height="911pt"
 viewBox="0.00 0.00 881.50 911.25" xmlns="http://www.w3.org/2000/svg" xmlns:xlink="http://www.w3.org/1999/xlink">
<g id="graph0" class="graph" transform="scale(1 1) rotate(0) translate(4 907.25)">
<title>kb_progression</title>
<polygon fill="white" stroke="none" points="-4,4 -4,-907.25 877.5,-907.25 877.5,4 -4,4"/>
<text text-anchor="middle" x="436.75" y="-6.45" font-family="Times New Roman,serif" font-size="14.00">Kettlebell Basic Skill Progression</text>
<!-- mov_atw -->
<g id="node1" class="node">
<title>mov_atw</title>
<g id="a_node1"><a xlink:href="https://www.youtube.com/watch?v=XaegZzSbtr0&amp;list=PLk4oYPJ7TXKhX8YqA2AVrfgs_pEF6p7KA&amp;index=3" xlink:title="{{3|Around the World}|HAND TRANSITION}">
<path fill="#fdbf6f" stroke="#ff7f00" d="M90,-762.88C90,-762.88 209.5,-762.88 209.5,-762.88 215.5,-762.88 221.5,-768.88 221.5,-774.88 221.5,-774.88 221.5,-798.38 221.5,-798.38 221.5,-804.38 215.5,-810.38 209.5,-810.38 209.5,-810.38 90,-810.38 90,-810.38 84,-810.38 78,-804.38 78,-798.38 78,-798.38 78,-774.88 78,-774.88 78,-768.88 84,-762.88 90,-762.88"/>
<text text-anchor="middle" x="89.88" y="-793.08" font-family="Times New Roman,serif" font-size="14.00">3</text>
<polyline fill="none" stroke="#ff7f00" points="101.75,-786.62 101.75,-810.38"/>
<text text-anchor="middle" x="161.62" y="-793.08" font-family="Times New Roman,serif" font-size="14.00">Around the World</text>
<polyline fill="none" stroke="#ff7f00" points="78,-786.62 221.5,-786.62"/>
<text text-anchor="middle" x="149.75" y="-769.33" font-family="Times New Roman,serif" font-size="14.00">HAND TRANSITION</text>
</a>
</g>
</g>
<!-- mov_atwf2b -->
<g id="node3" class="node">
<title>mov_atwf2b</title>
<g id="a_node3"><a xlink:href="https://www.youtube.com/watch?v=TwlQQXAQpaQ&amp;list=PLk4oYPJ7TXKhX8YqA2AVrfgs_pEF6p7KA&amp;index=5" xlink:title="5|Around the World\nFront to Back">
<path fill="#fdbf6f" stroke="#ff7f00" d="M12,-666.62C12,-666.62 129.5,-666.62 129.5,-666.62 135.5,-666.62 141.5,-672.62 141.5,-678.62 141.5,-678.62 141.5,-694.12 141.5,-694.12 141.5,-700.12 135.5,-706.12 129.5,-706.12 129.5,-706.12 12,-706.12 12,-706.12 6,-706.12 0,-700.12 0,-694.12 0,-694.12 0,-678.62 0,-678.62 0,-672.62 6,-666.62 12,-666.62"/>
<text text-anchor="middle" x="11.38" y="-680.95" font-family="Times New Roman,serif" font-size="14.00">5</text>
<polyline fill="none" stroke="#ff7f00" points="22.75,-666.62 22.75,-706.12"/>
<text text-anchor="middle" x="82.12" y="-688.83" font-family="Times New Roman,serif" font-size="14.00">Around the World</text>
<text text-anchor="middle" x="82.12" y="-673.08" font-family="Times New Roman,serif" font-size="14.00">Front to Back</text>
</a>
</g>
</g>
<!-- mov_atw&#45;&gt;mov_atwf2b -->
<g id="edge4" class="edge">
<title>mov_atw&#45;&gt;mov_atwf2b</title>
<path fill="none" stroke="black" d="M131.82,-763.33C120.18,-748.85 104.93,-729.88 92.58,-714.52"/>
<polygon fill="black" stroke="black" points="94.68,-712.55 85.69,-706.95 89.23,-716.94 94.68,-712.55"/>
</g>
<!-- mov_halo -->
<g id="node2" class="node">
<title>mov_halo</title>
<g id="a_node2"><a xlink:href="https://www.youtube.com/watch?v=25xdtjbFPtw&amp;list=PLk4oYPJ7TXKhX8YqA2AVrfgs_pEF6p7KA&amp;index=4" xlink:title="{{4|Halo}|GLOBE UP\nORDER POSITION}">
<path fill="#fdbf6f" stroke="#ff7f00" d="M330.25,-755C330.25,-755 439.25,-755 439.25,-755 445.25,-755 451.25,-761 451.25,-767 451.25,-767 451.25,-806.25 451.25,-806.25 451.25,-812.25 445.25,-818.25 439.25,-818.25 439.25,-818.25 330.25,-818.25 330.25,-818.25 324.25,-818.25 318.25,-812.25 318.25,-806.25 318.25,-806.25 318.25,-767 318.25,-767 318.25,-761 324.25,-755 330.25,-755"/>
<text text-anchor="middle" x="346.62" y="-800.95" font-family="Times New Roman,serif" font-size="14.00">4</text>
<polyline fill="none" stroke="#ff7f00" points="375,-794.5 375,-818.25"/>
<text text-anchor="middle" x="413.12" y="-800.95" font-family="Times New Roman,serif" font-size="14.00">Halo</text>
<polyline fill="none" stroke="#ff7f00" points="318.25,-794.5 451.25,-794.5"/>
<text text-anchor="middle" x="384.75" y="-777.2" font-family="Times New Roman,serif" font-size="14.00">GLOBE UP</text>
<text text-anchor="middle" x="384.75" y="-761.45" font-family="Times New Roman,serif" font-size="14.00">ORDER POSITION</text>
</a>
</g>
</g>
<!-- mov_althalo -->
<g id="node14" class="node">
<title>mov_althalo</title>
<g id="a_node14"><a xlink:href="https://www.youtube.com/watch?v=SMpquy5zSL4&amp;list=PLk4oYPJ7TXKhX8YqA2AVrfgs_pEF6p7KA&amp;index=7" xlink:title="7|Alternating Halo">
<path fill="#ffff99" stroke="#b15928" d="M171.38,-668.38C171.38,-668.38 276.12,-668.38 276.12,-668.38 282.12,-668.38 288.12,-674.38 288.12,-680.38 288.12,-680.38 288.12,-692.38 288.12,-692.38 288.12,-698.38 282.12,-704.38 276.12,-704.38 276.12,-704.38 171.38,-704.38 171.38,-704.38 165.38,-704.38 159.38,-698.38 159.38,-692.38 159.38,-692.38 159.38,-680.38 159.38,-680.38 159.38,-674.38 165.38,-668.38 171.38,-668.38"/>
<text text-anchor="middle" x="170.75" y="-680.95" font-family="Times New Roman,serif" font-size="14.00">7</text>
<polyline fill="none" stroke="#b15928" points="182.12,-668.38 182.12,-704.38"/>
<text text-anchor="middle" x="235.12" y="-680.95" font-family="Times New Roman,serif" font-size="14.00">Alternating Halo</text>
</a>
</g>
</g>
<!-- mov_halo&#45;&gt;mov_althalo -->
<g id="edge6" class="edge">
<title>mov_halo&#45;&gt;mov_althalo</title>
<path fill="none" stroke="black" d="M334.69,-755.08C310.73,-740.45 282.55,-723.26 260.58,-709.85"/>
<polygon fill="black" stroke="black" points="262.63,-706.39 252.28,-704.17 258.99,-712.37 262.63,-706.39"/>
</g>
<!-- mov_gobboxsquat -->
<g id="node24" class="node">
<title>mov_gobboxsquat</title>
<g id="a_node24"><a xlink:href="https://www.youtube.com/watch?v=k5Bc7pkEmrU&amp;list=PLk4oYPJ7TXKhX8YqA2AVrfgs_pEF6p7KA&amp;index=20" xlink:title="{{20|Bottoms&#45;Up Goblet\nBox Squat}|SQUAT BACK}">
<path fill="#ffff99" stroke="#b15928" d="M318.12,-654.75C318.12,-654.75 451.38,-654.75 451.38,-654.75 457.38,-654.75 463.38,-660.75 463.38,-666.75 463.38,-666.75 463.38,-706 463.38,-706 463.38,-712 457.38,-718 451.38,-718 451.38,-718 318.12,-718 318.12,-718 312.12,-718 306.12,-712 306.12,-706 306.12,-706 306.12,-666.75 306.12,-666.75 306.12,-660.75 312.12,-654.75 318.12,-654.75"/>
<text text-anchor="middle" x="320.88" y="-692.83" font-family="Times New Roman,serif" font-size="14.00">20</text>
<polyline fill="none" stroke="#b15928" points="335.62,-678.5 335.62,-718"/>
<text text-anchor="middle" x="399.5" y="-700.7" font-family="Times New Roman,serif" font-size="14.00">Bottoms&#45;Up Goblet</text>
<text text-anchor="middle" x="399.5" y="-684.95" font-family="Times New Roman,serif" font-size="14.00">Box Squat</text>
<polyline fill="none" stroke="#b15928" points="306.12,-678.5 463.38,-678.5"/>
<text text-anchor="middle" x="384.75" y="-661.2" font-family="Times New Roman,serif" font-size="14.00">SQUAT BACK</text>
</a>
</g>
</g>
<!-- mov_halo&#45;&gt;mov_gobboxsquat -->
<g id="edge23" class="edge">
<title>mov_halo&#45;&gt;mov_gobboxsquat</title>
<path fill="none" stroke="black" d="M384.75,-755.08C384.75,-746.76 384.75,-737.61 384.75,-728.8"/>
<polygon fill="black" stroke="black" points="388.25,-728.9 384.75,-718.9 381.25,-728.9 388.25,-728.9"/>
</g>
<!-- mov_atwb2f -->
<g id="node4" class="node">
<title>mov_atwb2f</title>
<g id="a_node4"><a xlink:href="https://www.youtube.com/watch?v=GrRO00YOIWM&amp;list=PLk4oYPJ7TXKhX8YqA2AVrfgs_pEF6p7KA&amp;index=6" xlink:title="6|Around the World\nBack to Front">
<path fill="#fdbf6f" stroke="#ff7f00" d="M12,-566.38C12,-566.38 129.5,-566.38 129.5,-566.38 135.5,-566.38 141.5,-572.38 141.5,-578.38 141.5,-578.38 141.5,-593.88 141.5,-593.88 141.5,-599.88 135.5,-605.88 129.5,-605.88 129.5,-605.88 12,-605.88 12,-605.88 6,-605.88 0,-599.88 0,-593.88 0,-593.88 0,-578.38 0,-578.38 0,-572.38 6,-566.38 12,-566.38"/>
<text text-anchor="middle" x="11.38" y="-580.7" font-family="Times New Roman,serif" font-size="14.00">6</text>
<polyline fill="none" stroke="#ff7f00" points="22.75,-566.38 22.75,-605.88"/>
<text text-anchor="middle" x="82.12" y="-588.58" font-family="Times New Roman,serif" font-size="14.00">Around the World</text>
<text text-anchor="middle" x="82.12" y="-572.83" font-family="Times New Roman,serif" font-size="14.00">Back to Front</text>
</a>
</g>
</g>
<!-- mov_atwf2b&#45;&gt;mov_atwb2f -->
<g id="edge5" class="edge">
<title>mov_atwf2b&#45;&gt;mov_atwb2f</title>
<path fill="none" stroke="black" d="M70.75,-666.89C70.75,-652.71 70.75,-632.86 70.75,-616.51"/>
<polygon fill="black" stroke="black" points="74.25,-616.86 70.75,-606.86 67.25,-616.86 74.25,-616.86"/>
</g>
<!-- mov_2hu1hd -->
<g id="node5" class="node">
<title>mov_2hu1hd</title>
<g id="a_node5"><a xlink:href="https://www.youtube.com/watch?v=eMkDP9VmMc0&amp;list=PLk4oYPJ7TXKhX8YqA2AVrfgs_pEF6p7KA&amp;index=8" xlink:title="{{8|Two Hand Pickup\nOne Hand Putdown}|RACK POSITION}">
<path fill="#cab2d6" stroke="#6a3d9a" d="M428.88,-554.5C428.88,-554.5 554.62,-554.5 554.62,-554.5 560.62,-554.5 566.62,-560.5 566.62,-566.5 566.62,-566.5 566.62,-605.75 566.62,-605.75 566.62,-611.75 560.62,-617.75 554.62,-617.75 554.62,-617.75 428.88,-617.75 428.88,-617.75 422.88,-617.75 416.88,-611.75 416.88,-605.75 416.88,-605.75 416.88,-566.5 416.88,-566.5 416.88,-560.5 422.88,-554.5 428.88,-554.5"/>
<text text-anchor="middle" x="428.25" y="-592.58" font-family="Times New Roman,serif" font-size="14.00">8</text>
<polyline fill="none" stroke="#6a3d9a" points="439.62,-578.25 439.62,-617.75"/>
<text text-anchor="middle" x="503.12" y="-600.45" font-family="Times New Roman,serif" font-size="14.00">Two Hand Pickup</text>
<text text-anchor="middle" x="503.12" y="-584.7" font-family="Times New Roman,serif" font-size="14.00">One Hand Putdown</text>
<polyline fill="none" stroke="#6a3d9a" points="416.88,-578.25 566.62,-578.25"/>
<text text-anchor="middle" x="491.75" y="-560.95" font-family="Times New Roman,serif" font-size="14.00">RACK POSITION</text>
</a>
</g>
</g>
<!-- mov_2hucleandown -->
<g id="node6" class="node">
<title>mov_2hucleandown</title>
<g id="a_node6"><a xlink:href="https://www.youtube.com/watch?v=cQC2y-ByaAw&amp;list=PLk4oYPJ7TXKhX8YqA2AVrfgs_pEF6p7KA&amp;index=11" xlink:title="11|Two Hand Pickup\nClean Putdown">
<path fill="#cab2d6" stroke="#6a3d9a" d="M596.62,-466.12C596.62,-466.12 720.88,-466.12 720.88,-466.12 726.88,-466.12 732.88,-472.12 732.88,-478.12 732.88,-478.12 732.88,-493.62 732.88,-493.62 732.88,-499.62 726.88,-505.62 720.88,-505.62 720.88,-505.62 596.62,-505.62 596.62,-505.62 590.62,-505.62 584.62,-499.62 584.62,-493.62 584.62,-493.62 584.62,-478.12 584.62,-478.12 584.62,-472.12 590.62,-466.12 596.62,-466.12"/>
<text text-anchor="middle" x="599.38" y="-480.45" font-family="Times New Roman,serif" font-size="14.00">11</text>
<polyline fill="none" stroke="#6a3d9a" points="614.12,-466.12 614.12,-505.62"/>
<text text-anchor="middle" x="673.5" y="-488.32" font-family="Times New Roman,serif" font-size="14.00">Two Hand Pickup</text>
<text text-anchor="middle" x="673.5" y="-472.57" font-family="Times New Roman,serif" font-size="14.00">Clean Putdown</text>
</a>
</g>
</g>
<!-- mov_2hu1hd&#45;&gt;mov_2hucleandown -->
<g id="edge10" class="edge">
<title>mov_2hu1hd&#45;&gt;mov_2hucleandown</title>
<path fill="none" stroke="black" d="M543.67,-554.58C567.64,-540.48 595.66,-523.99 618.06,-510.81"/>
<polygon fill="black" stroke="black" points="619.44,-513.47 626.29,-505.39 615.89,-507.44 619.44,-513.47"/>
</g>
<!-- mov_press -->
<g id="node19" class="node">
<title>mov_press</title>
<g id="a_node19"><a xlink:href="https://www.youtube.com/watch?v=XHkI03S6Pls&amp;list=PLk4oYPJ7TXKhX8YqA2AVrfgs_pEF6p7KA&amp;index=14" xlink:title="14|Single Arm\nOverhead Press">
<path fill="#ffff99" stroke="#b15928" d="M444.75,-466.12C444.75,-466.12 554.75,-466.12 554.75,-466.12 560.75,-466.12 566.75,-472.12 566.75,-478.12 566.75,-478.12 566.75,-493.62 566.75,-493.62 566.75,-499.62 560.75,-505.62 554.75,-505.62 554.75,-505.62 444.75,-505.62 444.75,-505.62 438.75,-505.62 432.75,-499.62 432.75,-493.62 432.75,-493.62 432.75,-478.12 432.75,-478.12 432.75,-472.12 438.75,-466.12 444.75,-466.12"/>
<text text-anchor="middle" x="447.5" y="-480.45" font-family="Times New Roman,serif" font-size="14.00">14</text>
<polyline fill="none" stroke="#b15928" points="462.25,-466.12 462.25,-505.62"/>
<text text-anchor="middle" x="514.5" y="-488.32" font-family="Times New Roman,serif" font-size="14.00">Single Arm</text>
<text text-anchor="middle" x="514.5" y="-472.57" font-family="Times New Roman,serif" font-size="14.00">Overhead Press</text>
</a>
</g>
</g>
<!-- mov_2hu1hd&#45;&gt;mov_press -->
<g id="edge15" class="edge">
<title>mov_2hu1hd&#45;&gt;mov_press</title>
<path fill="none" stroke="black" d="M494.24,-554.58C495.23,-542.37 496.37,-528.36 497.36,-516.27"/>
<polygon fill="black" stroke="black" points="500.92,-516.64 498.24,-506.39 493.94,-516.07 500.92,-516.64"/>
</g>
<!-- mov_racksquat -->
<g id="node27" class="node">
<title>mov_racksquat</title>
<g id="a_node27"><a xlink:href="https://www.youtube.com/watch?v=KTDVl0Lkdc4&amp;list=PLk4oYPJ7TXKhX8YqA2AVrfgs_pEF6p7KA&amp;index=23" xlink:title="{{23|Single&#45;bell Front Squat}}">
<path fill="#ffff99" stroke="#b15928" d="M241.88,-379.5C241.88,-379.5 391.62,-379.5 391.62,-379.5 397.62,-379.5 403.62,-385.5 403.62,-391.5 403.62,-391.5 403.62,-403.5 403.62,-403.5 403.62,-409.5 397.62,-415.5 391.62,-415.5 391.62,-415.5 241.88,-415.5 241.88,-415.5 235.88,-415.5 229.88,-409.5 229.88,-403.5 229.88,-403.5 229.88,-391.5 229.88,-391.5 229.88,-385.5 235.88,-379.5 241.88,-379.5"/>
<text text-anchor="middle" x="244.62" y="-392.2" font-family="Times New Roman,serif" font-size="14.00">23</text>
<polyline fill="none" stroke="#b15928" points="259.38,-379.75 259.38,-415.5"/>
<text text-anchor="middle" x="331.5" y="-392.2" font-family="Times New Roman,serif" font-size="14.00">Single&#45;bell Front Squat</text>
</a>
</g>
</g>
<!-- mov_2hu1hd&#45;&gt;mov_racksquat -->
<g id="edge27" class="edge">
<title>mov_2hu1hd&#45;&gt;mov_racksquat</title>
<path fill="none" stroke="black" d="M457.45,-554.62C446.07,-543.65 433.76,-530.81 423.75,-518 403.33,-491.85 407.5,-478.8 385.75,-453.75 375.65,-442.11 362.86,-431.11 351.04,-422.02"/>
<polygon fill="black" stroke="black" points="353.36,-418.64 343.25,-415.48 349.18,-424.26 353.36,-418.64"/>
</g>
<!-- mov_clean -->
<g id="node17" class="node">
<title>mov_clean</title>
<g id="a_node17"><a xlink:href="https://www.youtube.com/watch?v=_nIsSXWs5iU&amp;list=PLk4oYPJ7TXKhX8YqA2AVrfgs_pEF6p7KA&amp;index=12" xlink:title="12|Swing Clean">
<path fill="#ffff99" stroke="#b15928" d="M608.12,-379.5C608.12,-379.5 699.38,-379.5 699.38,-379.5 705.38,-379.5 711.38,-385.5 711.38,-391.5 711.38,-391.5 711.38,-403.5 711.38,-403.5 711.38,-409.5 705.38,-415.5 699.38,-415.5 699.38,-415.5 608.12,-415.5 608.12,-415.5 602.12,-415.5 596.12,-409.5 596.12,-403.5 596.12,-403.5 596.12,-391.5 596.12,-391.5 596.12,-385.5 602.12,-379.5 608.12,-379.5"/>
<text text-anchor="middle" x="610.88" y="-392.07" font-family="Times New Roman,serif" font-size="14.00">12</text>
<polyline fill="none" stroke="#b15928" points="625.62,-379.5 625.62,-415.5"/>
<text text-anchor="middle" x="668.5" y="-392.07" font-family="Times New Roman,serif" font-size="14.00">Swing Clean</text>
</a>
</g>
</g>
<!-- mov_2hucleandown&#45;&gt;mov_clean -->
<g id="edge12" class="edge">
<title>mov_2hucleandown&#45;&gt;mov_clean</title>
<path fill="none" stroke="black" d="M657.67,-466.13C656.99,-454.47 656.11,-439.25 655.35,-426.21"/>
<polygon fill="black" stroke="black" points="658.8,-426.23 654.73,-416.45 651.81,-426.63 658.8,-426.23"/>
</g>
<!-- mov_news -->
<g id="node7" class="node">
<title>mov_news</title>
<g id="a_node7"><a xlink:href="https://www.youtube.com/watch?v=htByOXjHLXE&amp;list=PLk4oYPJ7TXKhX8YqA2AVrfgs_pEF6p7KA&amp;index=15" xlink:title="15|Newspaper drill">
<path fill="#cab2d6" stroke="#6a3d9a" d="M599.12,-291.12C599.12,-291.12 708.38,-291.12 708.38,-291.12 714.38,-291.12 720.38,-297.12 720.38,-303.12 720.38,-303.12 720.38,-315.12 720.38,-315.12 720.38,-321.12 714.38,-327.12 708.38,-327.12 708.38,-327.12 599.12,-327.12 599.12,-327.12 593.12,-327.12 587.12,-321.12 587.12,-315.12 587.12,-315.12 587.12,-303.12 587.12,-303.12 587.12,-297.12 593.12,-291.12 599.12,-291.12"/>
<text text-anchor="middle" x="601.88" y="-303.7" font-family="Times New Roman,serif" font-size="14.00">15</text>
<polyline fill="none" stroke="#6a3d9a" points="616.62,-291.12 616.62,-327.12"/>
<text text-anchor="middle" x="668.5" y="-303.7" font-family="Times New Roman,serif" font-size="14.00">Newspaper drill</text>
</a>
</g>
</g>
<!-- mov_racklunge -->
<g id="node8" class="node">
<title>mov_racklunge</title>
<g id="a_node8"><a xlink:href="https://www.youtube.com/watch?v=KTDVl0Lkdc4&amp;list=PLk4oYPJ7TXKhX8YqA2AVrfgs_pEF6p7KA&amp;index=24" xlink:title="{{24|Rack Opposite Leg\nStep&#45;Back Lunge}|VERTICAL SPINE}">
<path fill="#b2df8a" stroke="#33a02c" d="M106.25,-277.5C106.25,-277.5 237.25,-277.5 237.25,-277.5 243.25,-277.5 249.25,-283.5 249.25,-289.5 249.25,-289.5 249.25,-328.75 249.25,-328.75 249.25,-334.75 243.25,-340.75 237.25,-340.75 237.25,-340.75 106.25,-340.75 106.25,-340.75 100.25,-340.75 94.25,-334.75 94.25,-328.75 94.25,-328.75 94.25,-289.5 94.25,-289.5 94.25,-283.5 100.25,-277.5 106.25,-277.5"/>
<text text-anchor="middle" x="109" y="-315.57" font-family="Times New Roman,serif" font-size="14.00">24</text>
<polyline fill="none" stroke="#33a02c" points="123.75,-301.25 123.75,-340.75"/>
<text text-anchor="middle" x="186.5" y="-323.45" font-family="Times New Roman,serif" font-size="14.00">Rack Opposite Leg</text>
<text text-anchor="middle" x="186.5" y="-307.7" font-family="Times New Roman,serif" font-size="14.00">Step&#45;Back Lunge</text>
<polyline fill="none" stroke="#33a02c" points="94.25,-301.25 249.25,-301.25"/>
<text text-anchor="middle" x="171.75" y="-283.95" font-family="Times New Roman,serif" font-size="14.00">VERTICAL SPINE</text>
</a>
</g>
</g>
<!-- mov_clean2sblunge -->
<g id="node9" class="node">
<title>mov_clean2sblunge</title>
<g id="a_node9"><a xlink:href="https://www.youtube.com/watch?v=KTDVl0Lkdc4&amp;list=PLk4oYPJ7TXKhX8YqA2AVrfgs_pEF6p7KA&amp;index=25" xlink:title="{{25|Clean Step&#45;Back Clean}}">
<path fill="#b2df8a" stroke="#33a02c" d="M263.5,-202.75C263.5,-202.75 414,-202.75 414,-202.75 420,-202.75 426,-208.75 426,-214.75 426,-214.75 426,-226.75 426,-226.75 426,-232.75 420,-238.75 414,-238.75 414,-238.75 263.5,-238.75 263.5,-238.75 257.5,-238.75 251.5,-232.75 251.5,-226.75 251.5,-226.75 251.5,-214.75 251.5,-214.75 251.5,-208.75 257.5,-202.75 263.5,-202.75"/>
<text text-anchor="middle" x="266.25" y="-215.45" font-family="Times New Roman,serif" font-size="14.00">25</text>
<polyline fill="none" stroke="#33a02c" points="281,-203 281,-238.75"/>
<text text-anchor="middle" x="353.5" y="-215.45" font-family="Times New Roman,serif" font-size="14.00">Clean Step&#45;Back Clean</text>
</a>
</g>
</g>
<!-- mov_racklunge&#45;&gt;mov_clean2sblunge -->
<g id="edge29" class="edge">
<title>mov_racklunge&#45;&gt;mov_clean2sblunge</title>
<path fill="none" stroke="black" d="M230.63,-277.67C252.32,-266.45 276.44,-253.98 296.39,-243.66"/>
<polygon fill="black" stroke="black" points="297.84,-246.33 305.11,-238.63 294.62,-240.12 297.84,-246.33"/>
</g>
<!-- mov_halfkneelclean -->
<g id="node10" class="node">
<title>mov_halfkneelclean</title>
<g id="a_node10"><a xlink:href="https://www.youtube.com/watch?v=KTDVl0Lkdc4&amp;list=PLk4oYPJ7TXKhX8YqA2AVrfgs_pEF6p7KA&amp;index=26" xlink:title="{{26|Half&#45;Kneeling Clean}}">
<path fill="#b2df8a" stroke="#33a02c" d="M272.5,-114.38C272.5,-114.38 405,-114.38 405,-114.38 411,-114.38 417,-120.38 417,-126.38 417,-126.38 417,-138.38 417,-138.38 417,-144.38 411,-150.38 405,-150.38 405,-150.38 272.5,-150.38 272.5,-150.38 266.5,-150.38 260.5,-144.38 260.5,-138.38 260.5,-138.38 260.5,-126.38 260.5,-126.38 260.5,-120.38 266.5,-114.38 272.5,-114.38"/>
<text text-anchor="middle" x="275.25" y="-127.08" font-family="Times New Roman,serif" font-size="14.00">26</text>
<polyline fill="none" stroke="#33a02c" points="290,-114.62 290,-150.38"/>
<text text-anchor="middle" x="353.5" y="-127.08" font-family="Times New Roman,serif" font-size="14.00">Half&#45;Kneeling Clean</text>
</a>
</g>
</g>
<!-- mov_clean2sblunge&#45;&gt;mov_halfkneelclean -->
<g id="edge31" class="edge">
<title>mov_clean2sblunge&#45;&gt;mov_halfkneelclean</title>
<path fill="none" stroke="black" d="M338.75,-203.1C338.75,-191.22 338.75,-174.98 338.75,-161.16"/>
<polygon fill="black" stroke="black" points="342.25,-161.27 338.75,-151.27 335.25,-161.27 342.25,-161.27"/>
</g>
<!-- mov_halfkneelcap -->
<g id="node11" class="node">
<title>mov_halfkneelcap</title>
<g id="a_node11"><a xlink:href="https://www.youtube.com/watch?v=KTDVl0Lkdc4&amp;list=PLk4oYPJ7TXKhX8YqA2AVrfgs_pEF6p7KA&amp;index=29" xlink:title="{{29|Half&#45;Kneeling\nClean &amp; Press}}">
<path fill="#b2df8a" stroke="#33a02c" d="M370.5,-24.25C370.5,-24.25 473,-24.25 473,-24.25 479,-24.25 485,-30.25 485,-36.25 485,-36.25 485,-51.75 485,-51.75 485,-57.75 479,-63.75 473,-63.75 473,-63.75 370.5,-63.75 370.5,-63.75 364.5,-63.75 358.5,-57.75 358.5,-51.75 358.5,-51.75 358.5,-36.25 358.5,-36.25 358.5,-30.25 364.5,-24.25 370.5,-24.25"/>
<text text-anchor="middle" x="373.25" y="-38.58" font-family="Times New Roman,serif" font-size="14.00">29</text>
<polyline fill="none" stroke="#33a02c" points="388,-24.25 388,-63.75"/>
<text text-anchor="middle" x="436.5" y="-46.45" font-family="Times New Roman,serif" font-size="14.00">Half&#45;Kneeling</text>
<text text-anchor="middle" x="436.5" y="-30.7" font-family="Times New Roman,serif" font-size="14.00">Clean &amp; Press</text>
</a>
</g>
</g>
<!-- mov_halfkneelclean&#45;&gt;mov_halfkneelcap -->
<g id="edge33" class="edge">
<title>mov_halfkneelclean&#45;&gt;mov_halfkneelcap</title>
<path fill="none" stroke="black" d="M354.75,-114.72C366.49,-102.51 382.66,-85.68 396.18,-71.61"/>
<polygon fill="black" stroke="black" points="398.37,-74.34 402.78,-64.7 393.33,-69.49 398.37,-74.34"/>
</g>
<!-- mov_deadlift -->
<g id="node12" class="node">
<title>mov_deadlift</title>
<g id="a_node12"><a xlink:href="https://www.youtube.com/watch?v=x0XkmM34BPI&amp;list=PLk4oYPJ7TXKhX8YqA2AVrfgs_pEF6p7KA&amp;index=1" xlink:title="{{1|Two Hand Deadlift}|HIP HINGE}">
<path fill="#ffff99" stroke="#b15928" d="M376.75,-855.25C376.75,-855.25 498.75,-855.25 498.75,-855.25 504.75,-855.25 510.75,-861.25 510.75,-867.25 510.75,-867.25 510.75,-890.75 510.75,-890.75 510.75,-896.75 504.75,-902.75 498.75,-902.75 498.75,-902.75 376.75,-902.75 376.75,-902.75 370.75,-902.75 364.75,-896.75 364.75,-890.75 364.75,-890.75 364.75,-867.25 364.75,-867.25 364.75,-861.25 370.75,-855.25 376.75,-855.25"/>
<text text-anchor="middle" x="376.12" y="-885.45" font-family="Times New Roman,serif" font-size="14.00">1</text>
<polyline fill="none" stroke="#b15928" points="387.5,-879 387.5,-902.75"/>
<text text-anchor="middle" x="449.12" y="-885.45" font-family="Times New Roman,serif" font-size="14.00">Two Hand Deadlift</text>
<polyline fill="none" stroke="#b15928" points="364.75,-879 510.75,-879"/>
<text text-anchor="middle" x="437.75" y="-861.7" font-family="Times New Roman,serif" font-size="14.00">HIP HINGE</text>
</a>
</g>
</g>
<!-- mov_deadlift&#45;&gt;mov_atw -->
<g id="edge2" class="edge">
<title>mov_deadlift&#45;&gt;mov_atw</title>
<path fill="none" stroke="black" d="M365.45,-855.31C324.66,-842.51 273.56,-826.48 231.34,-813.23"/>
<polygon fill="black" stroke="black" points="232.67,-809.66 222.08,-810.01 230.58,-816.34 232.67,-809.66"/>
</g>
<!-- mov_deadlift&#45;&gt;mov_halo -->
<g id="edge3" class="edge">
<title>mov_deadlift&#45;&gt;mov_halo</title>
<path fill="none" stroke="black" d="M424.65,-855.66C419.68,-847.19 413.87,-837.27 408.23,-827.67"/>
<polygon fill="black" stroke="black" points="410.78,-826.09 402.7,-819.23 404.74,-829.63 410.78,-826.09"/>
</g>
<!-- mov_deadlift&#45;&gt;mov_2hu1hd -->
<g id="edge7" class="edge">
<title>mov_deadlift&#45;&gt;mov_2hu1hd</title>
<path fill="none" stroke="black" d="M447.51,-855.3C451.84,-844.42 456.65,-831.09 459.75,-818.75 476.22,-753.28 484.79,-675.14 488.78,-628.4"/>
<polygon fill="black" stroke="black" points="492.35,-628.76 489.68,-618.51 485.37,-628.19 492.35,-628.76"/>
</g>
<!-- mov_swing -->
<g id="node13" class="node">
<title>mov_swing</title>
<g id="a_node13"><a xlink:href="https://www.youtube.com/watch?v=m-S9H2XVvYg&amp;list=PLk4oYPJ7TXKhX8YqA2AVrfgs_pEF6p7KA&amp;index=2" xlink:title="{{2|Two Hand Swing}|LEG DRIVE &amp;\nHIP SNAP}">
<path fill="#ffff99" stroke="#b15928" d="M551.25,-755C551.25,-755 664.25,-755 664.25,-755 670.25,-755 676.25,-761 676.25,-767 676.25,-767 676.25,-806.25 676.25,-806.25 676.25,-812.25 670.25,-818.25 664.25,-818.25 664.25,-818.25 551.25,-818.25 551.25,-818.25 545.25,-818.25 539.25,-812.25 539.25,-806.25 539.25,-806.25 539.25,-767 539.25,-767 539.25,-761 545.25,-755 551.25,-755"/>
<text text-anchor="middle" x="550.62" y="-800.95" font-family="Times New Roman,serif" font-size="14.00">2</text>
<polyline fill="none" stroke="#b15928" points="562,-794.5 562,-818.25"/>
<text text-anchor="middle" x="619.12" y="-800.95" font-family="Times New Roman,serif" font-size="14.00">Two Hand Swing</text>
<polyline fill="none" stroke="#b15928" points="539.25,-794.5 676.25,-794.5"/>
<text text-anchor="middle" x="607.75" y="-777.2" font-family="Times New Roman,serif" font-size="14.00">LEG DRIVE &amp;</text>
<text text-anchor="middle" x="607.75" y="-761.45" font-family="Times New Roman,serif" font-size="14.00">HIP SNAP</text>
</a>
</g>
</g>
<!-- mov_deadlift&#45;&gt;mov_swing -->
<g id="edge1" class="edge">
<title>mov_deadlift&#45;&gt;mov_swing</title>
<path fill="none" stroke="black" d="M480.21,-855.43C498.55,-845.68 520.45,-834.04 540.88,-823.18"/>
<polygon fill="black" stroke="black" points="542.27,-825.87 549.45,-818.08 538.98,-819.69 542.27,-825.87"/>
</g>
<!-- mov_saswing -->
<g id="node15" class="node">
<title>mov_saswing</title>
<g id="a_node15"><a xlink:href="https://www.youtube.com/watch?v=ejPpyLKZ1L4&amp;list=PLk4oYPJ7TXKhX8YqA2AVrfgs_pEF6p7KA&amp;index=9" xlink:title="{{9|Single Arm Swing}|THUMB POINTS BACK}">
<path fill="#ffff99" stroke="#b15928" d="M597,-562.38C597,-562.38 734.5,-562.38 734.5,-562.38 740.5,-562.38 746.5,-568.38 746.5,-574.38 746.5,-574.38 746.5,-597.88 746.5,-597.88 746.5,-603.88 740.5,-609.88 734.5,-609.88 734.5,-609.88 597,-609.88 597,-609.88 591,-609.88 585,-603.88 585,-597.88 585,-597.88 585,-574.38 585,-574.38 585,-568.38 591,-562.38 597,-562.38"/>
<text text-anchor="middle" x="601.88" y="-592.58" font-family="Times New Roman,serif" font-size="14.00">9</text>
<polyline fill="none" stroke="#b15928" points="618.75,-586.12 618.75,-609.88"/>
<text text-anchor="middle" x="682.5" y="-592.58" font-family="Times New Roman,serif" font-size="14.00">Single Arm Swing</text>
<polyline fill="none" stroke="#b15928" points="585,-586.12 746.5,-586.12"/>
<text text-anchor="middle" x="665.75" y="-568.83" font-family="Times New Roman,serif" font-size="14.00">THUMB POINTS BACK</text>
</a>
</g>
</g>
<!-- mov_swing&#45;&gt;mov_saswing -->
<g id="edge8" class="edge">
<title>mov_swing&#45;&gt;mov_saswing</title>
<path fill="none" stroke="black" d="M616.69,-755.04C627.36,-718.52 645.14,-657.66 656.11,-620.11"/>
<polygon fill="black" stroke="black" points="659.7,-621.29 659.15,-610.71 652.99,-619.33 659.7,-621.29"/>
</g>
<!-- mov_saswing&#45;&gt;mov_2hucleandown -->
<g id="edge11" class="edge">
<title>mov_saswing&#45;&gt;mov_2hucleandown</title>
<path fill="none" stroke="black" d="M664.16,-562.83C663.18,-549.02 661.9,-531.14 660.84,-516.19"/>
<polygon fill="black" stroke="black" points="664.28,-516.18 660.07,-506.45 657.29,-516.68 664.28,-516.18"/>
</g>
<!-- mov_h2h -->
<g id="node16" class="node">
<title>mov_h2h</title>
<g id="a_node16"><a xlink:href="https://www.youtube.com/watch?v=0Uk0Rdm3QFs&amp;list=PLk4oYPJ7TXKhX8YqA2AVrfgs_pEF6p7KA&amp;index=10" xlink:title="10|Hand to Hand\nTransition">
<path fill="#ffff99" stroke="#b15928" d="M748.62,-377.75C748.62,-377.75 848.88,-377.75 848.88,-377.75 854.88,-377.75 860.88,-383.75 860.88,-389.75 860.88,-389.75 860.88,-405.25 860.88,-405.25 860.88,-411.25 854.88,-417.25 848.88,-417.25 848.88,-417.25 748.62,-417.25 748.62,-417.25 742.62,-417.25 736.62,-411.25 736.62,-405.25 736.62,-405.25 736.62,-389.75 736.62,-389.75 736.62,-383.75 742.62,-377.75 748.62,-377.75"/>
<text text-anchor="middle" x="751.38" y="-392.07" font-family="Times New Roman,serif" font-size="14.00">10</text>
<polyline fill="none" stroke="#b15928" points="766.12,-377.75 766.12,-417.25"/>
<text text-anchor="middle" x="813.5" y="-399.95" font-family="Times New Roman,serif" font-size="14.00">Hand to Hand</text>
<text text-anchor="middle" x="813.5" y="-384.2" font-family="Times New Roman,serif" font-size="14.00">Transition</text>
</a>
</g>
</g>
<!-- mov_saswing&#45;&gt;mov_h2h -->
<g id="edge9" class="edge">
<title>mov_saswing&#45;&gt;mov_h2h</title>
<path fill="none" stroke="black" d="M696.91,-562.4C711.83,-550.41 729.14,-534.73 741.75,-518 762.94,-489.9 779.18,-452.66 788.8,-427.27"/>
<polygon fill="black" stroke="black" points="792.35,-428.77 792.52,-418.17 785.78,-426.35 792.35,-428.77"/>
</g>
<!-- mov_cleanh2h -->
<g id="node18" class="node">
<title>mov_cleanh2h</title>
<g id="a_node18"><a xlink:href="https://www.youtube.com/watch?v=6TVqHl2gtuM&amp;list=PLk4oYPJ7TXKhX8YqA2AVrfgs_pEF6p7KA&amp;index=13" xlink:title="13|Clean with\nHand Transition">
<path fill="#ffff99" stroke="#b15928" d="M750,-289.38C750,-289.38 861.5,-289.38 861.5,-289.38 867.5,-289.38 873.5,-295.38 873.5,-301.38 873.5,-301.38 873.5,-316.88 873.5,-316.88 873.5,-322.88 867.5,-328.88 861.5,-328.88 861.5,-328.88 750,-328.88 750,-328.88 744,-328.88 738,-322.88 738,-316.88 738,-316.88 738,-301.38 738,-301.38 738,-295.38 744,-289.38 750,-289.38"/>
<text text-anchor="middle" x="752.75" y="-303.7" font-family="Times New Roman,serif" font-size="14.00">13</text>
<polyline fill="none" stroke="#b15928" points="767.5,-289.38 767.5,-328.88"/>
<text text-anchor="middle" x="820.5" y="-311.57" font-family="Times New Roman,serif" font-size="14.00">Clean with</text>
<text text-anchor="middle" x="820.5" y="-295.82" font-family="Times New Roman,serif" font-size="14.00">Hand Transition</text>
</a>
</g>
</g>
<!-- mov_h2h&#45;&gt;mov_cleanh2h -->
<g id="edge14" class="edge">
<title>mov_h2h&#45;&gt;mov_cleanh2h</title>
<path fill="none" stroke="black" d="M800.27,-377.76C801.17,-366.67 802.33,-352.37 803.35,-339.77"/>
<polygon fill="black" stroke="black" points="806.91,-340.08 804.23,-329.83 799.94,-339.52 806.91,-340.08"/>
</g>
<!-- mov_clean&#45;&gt;mov_news -->
<g id="edge16" class="edge">
<title>mov_clean&#45;&gt;mov_news</title>
<path fill="none" stroke="black" d="M653.75,-379.85C653.75,-367.97 653.75,-351.73 653.75,-337.91"/>
<polygon fill="black" stroke="black" points="657.25,-338.02 653.75,-328.02 650.25,-338.02 657.25,-338.02"/>
</g>
<!-- mov_clean&#45;&gt;mov_cleanh2h -->
<g id="edge13" class="edge">
<title>mov_clean&#45;&gt;mov_cleanh2h</title>
<path fill="none" stroke="black" d="M683.42,-379.64C706.25,-366.67 738.1,-348.57 763.57,-334.09"/>
<polygon fill="black" stroke="black" points="765.03,-336.72 771.99,-328.74 761.57,-330.64 765.03,-336.72"/>
</g>
<!-- mov_startstopclean -->
<g id="node20" class="node">
<title>mov_startstopclean</title>
<g id="a_node20"><a xlink:href="https://www.youtube.com/watch?v=XbK3jxI0WNQ&amp;list=PLk4oYPJ7TXKhX8YqA2AVrfgs_pEF6p7KA&amp;index=16" xlink:title="{{16|Start Stop Clean}|START &amp; END CLEAN}">
<path fill="#ffff99" stroke="#b15928" d="M278.88,-285.38C278.88,-285.38 412.62,-285.38 412.62,-285.38 418.62,-285.38 424.62,-291.38 424.62,-297.38 424.62,-297.38 424.62,-320.88 424.62,-320.88 424.62,-326.88 418.62,-332.88 412.62,-332.88 412.62,-332.88 278.88,-332.88 278.88,-332.88 272.88,-332.88 266.88,-326.88 266.88,-320.88 266.88,-320.88 266.88,-297.38 266.88,-297.38 266.88,-291.38 272.88,-285.38 278.88,-285.38"/>
<text text-anchor="middle" x="286.62" y="-315.57" font-family="Times New Roman,serif" font-size="14.00">16</text>
<polyline fill="none" stroke="#b15928" points="306.38,-309.12 306.38,-332.88"/>
<text text-anchor="middle" x="365.5" y="-315.57" font-family="Times New Roman,serif" font-size="14.00">Start Stop Clean</text>
<polyline fill="none" stroke="#b15928" points="266.88,-309.12 424.62,-309.12"/>
<text text-anchor="middle" x="345.75" y="-291.82" font-family="Times New Roman,serif" font-size="14.00">START &amp; END CLEAN</text>
</a>
</g>
</g>
<!-- mov_clean&#45;&gt;mov_startstopclean -->
<g id="edge17" class="edge">
<title>mov_clean&#45;&gt;mov_startstopclean</title>
<path fill="none" stroke="black" d="M596.37,-383.65C551.74,-373.28 488.42,-357.74 433.75,-341.25 428.55,-339.68 423.2,-337.99 417.84,-336.23"/>
<polygon fill="black" stroke="black" points="419.12,-332.64 408.53,-332.8 416.91,-339.28 419.12,-332.64"/>
</g>
<!-- mov_cap -->
<g id="node21" class="node">
<title>mov_cap</title>
<g id="a_node21"><a xlink:href="https://www.youtube.com/watch?v=SSxB3m5qRas&amp;list=PLk4oYPJ7TXKhX8YqA2AVrfgs_pEF6p7KA&amp;index=17" xlink:title="17|Clean &amp; Press">
<path fill="#ffff99" stroke="#b15928" d="M454.5,-291.12C454.5,-291.12 557,-291.12 557,-291.12 563,-291.12 569,-297.12 569,-303.12 569,-303.12 569,-315.12 569,-315.12 569,-321.12 563,-327.12 557,-327.12 557,-327.12 454.5,-327.12 454.5,-327.12 448.5,-327.12 442.5,-321.12 442.5,-315.12 442.5,-315.12 442.5,-303.12 442.5,-303.12 442.5,-297.12 448.5,-291.12 454.5,-291.12"/>
<text text-anchor="middle" x="457.25" y="-303.7" font-family="Times New Roman,serif" font-size="14.00">17</text>
<polyline fill="none" stroke="#b15928" points="472,-291.12 472,-327.12"/>
<text text-anchor="middle" x="520.5" y="-303.7" font-family="Times New Roman,serif" font-size="14.00">Clean &amp; Press</text>
</a>
</g>
</g>
<!-- mov_clean&#45;&gt;mov_cap -->
<g id="edge18" class="edge">
<title>mov_clean&#45;&gt;mov_cap</title>
<path fill="none" stroke="black" d="M624.86,-379.64C601.81,-366.19 569.32,-347.23 544.09,-332.5"/>
<polygon fill="black" stroke="black" points="546.22,-329.11 535.82,-327.09 542.69,-335.15 546.22,-329.11"/>
</g>
<!-- mov_caph2h -->
<g id="node22" class="node">
<title>mov_caph2h</title>
<g id="a_node22"><a xlink:href="https://www.youtube.com/watch?v=5Q4vMOYvAGg&amp;list=PLk4oYPJ7TXKhX8YqA2AVrfgs_pEF6p7KA&amp;index=18" xlink:title="18|Clean &amp; Press with\nHand Transition">
<path fill="#ffff99" stroke="#b15928" d="M643,-201C643,-201 772.5,-201 772.5,-201 778.5,-201 784.5,-207 784.5,-213 784.5,-213 784.5,-228.5 784.5,-228.5 784.5,-234.5 778.5,-240.5 772.5,-240.5 772.5,-240.5 643,-240.5 643,-240.5 637,-240.5 631,-234.5 631,-228.5 631,-228.5 631,-213 631,-213 631,-207 637,-201 643,-201"/>
<text text-anchor="middle" x="645.75" y="-215.32" font-family="Times New Roman,serif" font-size="14.00">18</text>
<polyline fill="none" stroke="#b15928" points="660.5,-201 660.5,-240.5"/>
<text text-anchor="middle" x="722.5" y="-223.2" font-family="Times New Roman,serif" font-size="14.00">Clean &amp; Press with</text>
<text text-anchor="middle" x="722.5" y="-207.45" font-family="Times New Roman,serif" font-size="14.00">Hand Transition</text>
</a>
</g>
</g>
<!-- mov_cleanh2h&#45;&gt;mov_caph2h -->
<g id="edge21" class="edge">
<title>mov_cleanh2h&#45;&gt;mov_caph2h</title>
<path fill="none" stroke="black" d="M784.49,-289.38C770.62,-277.16 752.33,-261.04 737.08,-247.6"/>
<polygon fill="black" stroke="black" points="739.79,-245.44 729.97,-241.46 735.16,-250.69 739.79,-245.44"/>
</g>
<!-- mov_press&#45;&gt;mov_cap -->
<g id="edge19" class="edge">
<title>mov_press&#45;&gt;mov_cap</title>
<path fill="none" stroke="black" d="M500.39,-466.17C501.45,-435.27 503.58,-373.39 504.81,-337.54"/>
<polygon fill="black" stroke="black" points="508.33,-338 505.17,-327.89 501.33,-337.76 508.33,-338"/>
</g>
<!-- mov_startstopclean&#45;&gt;mov_clean2sblunge -->
<g id="edge30" class="edge">
<title>mov_startstopclean&#45;&gt;mov_clean2sblunge</title>
<path fill="none" stroke="black" d="M343.91,-285.43C343.02,-274.41 341.94,-261.07 341,-249.45"/>
<polygon fill="black" stroke="black" points="344.41,-249.25 340.11,-239.56 337.43,-249.81 344.41,-249.25"/>
</g>
<!-- mov_cap&#45;&gt;mov_caph2h -->
<g id="edge20" class="edge">
<title>mov_cap&#45;&gt;mov_caph2h</title>
<path fill="none" stroke="black" d="M544.59,-291.28C555.33,-286.64 566.99,-281.61 577.75,-277 602.59,-266.35 630.13,-254.64 653.45,-244.74"/>
<polygon fill="black" stroke="black" points="654.66,-247.61 662.5,-240.48 651.92,-241.16 654.66,-247.61"/>
</g>
<!-- mov_startstopcap -->
<g id="node23" class="node">
<title>mov_startstopcap</title>
<g id="a_node23"><a xlink:href="https://www.youtube.com/watch?v=dSj3kqbuois&amp;list=PLk4oYPJ7TXKhX8YqA2AVrfgs_pEF6p7KA&amp;index=19" xlink:title="{{19|Start Stop\nClean &amp; Press}|START &amp; END C&amp;P}">
<path fill="#ffff99" stroke="#b15928" d="M447.12,-100.75C447.12,-100.75 564.38,-100.75 564.38,-100.75 570.38,-100.75 576.38,-106.75 576.38,-112.75 576.38,-112.75 576.38,-152 576.38,-152 576.38,-158 570.38,-164 564.38,-164 564.38,-164 447.12,-164 447.12,-164 441.12,-164 435.12,-158 435.12,-152 435.12,-152 435.12,-112.75 435.12,-112.75 435.12,-106.75 441.12,-100.75 447.12,-100.75"/>
<text text-anchor="middle" x="453.38" y="-138.82" font-family="Times New Roman,serif" font-size="14.00">19</text>
<polyline fill="none" stroke="#b15928" points="471.62,-124.5 471.62,-164"/>
<text text-anchor="middle" x="523.62" y="-146.7" font-family="Times New Roman,serif" font-size="14.00">Start Stop</text>
<text text-anchor="middle" x="523.62" y="-130.95" font-family="Times New Roman,serif" font-size="14.00">Clean &amp; Press</text>
<polyline fill="none" stroke="#b15928" points="435.12,-124.5 576.38,-124.5"/>
<text text-anchor="middle" x="505.75" y="-107.2" font-family="Times New Roman,serif" font-size="14.00">START &amp; END C&amp;P</text>
</a>
</g>
</g>
<!-- mov_cap&#45;&gt;mov_startstopcap -->
<g id="edge22" class="edge">
<title>mov_cap&#45;&gt;mov_startstopcap</title>
<path fill="none" stroke="black" d="M505.75,-291.37C505.75,-264.62 505.75,-211.51 505.75,-174.27"/>
<polygon fill="black" stroke="black" points="509.25,-174.75 505.75,-164.75 502.25,-174.75 509.25,-174.75"/>
</g>
<!-- mov_startstopcap&#45;&gt;mov_halfkneelcap -->
<g id="edge32" class="edge">
<title>mov_startstopcap&#45;&gt;mov_halfkneelcap</title>
<path fill="none" stroke="black" d="M476.37,-101.17C467,-91.53 456.71,-80.95 447.61,-71.59"/>
<polygon fill="black" stroke="black" points="450.46,-69.47 440.98,-64.74 445.44,-74.35 450.46,-69.47"/>
</g>
<!-- mov_boxsquathalo -->
<g id="node25" class="node">
<title>mov_boxsquathalo</title>
<g id="a_node25"><a xlink:href="https://www.youtube.com/watch?v=Aik5-BStbnc&amp;list=PLk4oYPJ7TXKhX8YqA2AVrfgs_pEF6p7KA&amp;index=21" xlink:title="{{21|Goblet Box Squat\nwith Halo}|STAND AT TOP}">
<path fill="#ffff99" stroke="#b15928" d="M256.38,-554.5C256.38,-554.5 379.12,-554.5 379.12,-554.5 385.12,-554.5 391.12,-560.5 391.12,-566.5 391.12,-566.5 391.12,-605.75 391.12,-605.75 391.12,-611.75 385.12,-617.75 379.12,-617.75 379.12,-617.75 256.38,-617.75 256.38,-617.75 250.38,-617.75 244.38,-611.75 244.38,-605.75 244.38,-605.75 244.38,-566.5 244.38,-566.5 244.38,-560.5 250.38,-554.5 256.38,-554.5"/>
<text text-anchor="middle" x="259.12" y="-592.58" font-family="Times New Roman,serif" font-size="14.00">21</text>
<polyline fill="none" stroke="#b15928" points="273.88,-578.25 273.88,-617.75"/>
<text text-anchor="middle" x="332.5" y="-600.45" font-family="Times New Roman,serif" font-size="14.00">Goblet Box Squat</text>
<text text-anchor="middle" x="332.5" y="-584.7" font-family="Times New Roman,serif" font-size="14.00">with Halo</text>
<polyline fill="none" stroke="#b15928" points="244.38,-578.25 391.12,-578.25"/>
<text text-anchor="middle" x="317.75" y="-560.95" font-family="Times New Roman,serif" font-size="14.00">STAND AT TOP</text>
</a>
</g>
</g>
<!-- mov_gobboxsquat&#45;&gt;mov_boxsquathalo -->
<g id="edge24" class="edge">
<title>mov_gobboxsquat&#45;&gt;mov_boxsquathalo</title>
<path fill="none" stroke="black" d="M363.92,-654.83C357.8,-645.86 351.03,-635.93 344.6,-626.5"/>
<polygon fill="black" stroke="black" points="347.09,-624.94 338.57,-618.65 341.31,-628.89 347.09,-624.94"/>
</g>
<!-- mov_gobsquathalo -->
<g id="node26" class="node">
<title>mov_gobsquathalo</title>
<g id="a_node26"><a xlink:href="https://www.youtube.com/watch?v=cnZ8Mx8NQPE&amp;list=PLk4oYPJ7TXKhX8YqA2AVrfgs_pEF6p7KA&amp;index=22" xlink:title="{{22|Goblet Squat\nwith Halo}|FULL DEPTH}">
<path fill="#ffff99" stroke="#b15928" d="M268.88,-454.25C268.88,-454.25 364.62,-454.25 364.62,-454.25 370.62,-454.25 376.62,-460.25 376.62,-466.25 376.62,-466.25 376.62,-505.5 376.62,-505.5 376.62,-511.5 370.62,-517.5 364.62,-517.5 364.62,-517.5 268.88,-517.5 268.88,-517.5 262.88,-517.5 256.88,-511.5 256.88,-505.5 256.88,-505.5 256.88,-466.25 256.88,-466.25 256.88,-460.25 262.88,-454.25 268.88,-454.25"/>
<text text-anchor="middle" x="271.62" y="-492.32" font-family="Times New Roman,serif" font-size="14.00">22</text>
<polyline fill="none" stroke="#b15928" points="286.38,-478 286.38,-517.5"/>
<text text-anchor="middle" x="331.5" y="-500.2" font-family="Times New Roman,serif" font-size="14.00">Goblet Squat</text>
<text text-anchor="middle" x="331.5" y="-484.45" font-family="Times New Roman,serif" font-size="14.00">with Halo</text>
<polyline fill="none" stroke="#b15928" points="256.88,-478 376.62,-478"/>
<text text-anchor="middle" x="316.75" y="-460.7" font-family="Times New Roman,serif" font-size="14.00">FULL DEPTH</text>
</a>
</g>
</g>
<!-- mov_boxsquathalo&#45;&gt;mov_gobsquathalo -->
<g id="edge25" class="edge">
<title>mov_boxsquathalo&#45;&gt;mov_gobsquathalo</title>
<path fill="none" stroke="black" d="M317.44,-554.58C317.35,-546.26 317.26,-537.11 317.17,-528.3"/>
<polygon fill="black" stroke="black" points="320.66,-528.37 317.06,-518.4 313.66,-528.44 320.66,-528.37"/>
</g>
<!-- mov_gobsquathalo&#45;&gt;mov_racksquat -->
<g id="edge26" class="edge">
<title>mov_gobsquathalo&#45;&gt;mov_racksquat</title>
<path fill="none" stroke="black" d="M316.75,-454.67C316.75,-445.43 316.75,-435.32 316.75,-426.26"/>
<polygon fill="black" stroke="black" points="320.25,-426.48 316.75,-416.48 313.25,-426.48 320.25,-426.48"/>
</g>
<!-- mov_racksquat&#45;&gt;mov_racklunge -->
<g id="edge28" class="edge">
<title>mov_racksquat&#45;&gt;mov_racklunge</title>
<path fill="none" stroke="black" d="M288.45,-379.64C272.44,-370.11 251.79,-357.8 232.31,-346.2"/>
<polygon fill="black" stroke="black" points="234.26,-342.69 223.87,-340.58 230.67,-348.7 234.26,-342.69"/>
</g>
</g>
</svg>
