<?xml version="1.0" encoding="UTF-8" standalone="no"?>
<!DOCTYPE svg PUBLIC "-//W3C//DTD SVG 1.1//EN"
 "http://www.w3.org/Graphics/SVG/1.1/DTD/svg11.dtd">
<!-- Generated by graphviz version 8.1.0 (20230707.0739)
 -->
<!-- Title: kb_progression Pages: 1 -->
<svg width="1417pt" height="769pt"
 viewBox="0.00 0.00 1417.12 768.75" xmlns="http://www.w3.org/2000/svg" xmlns:xlink="http://www.w3.org/1999/xlink">
<g id="graph0" class="graph" transform="scale(1 1) rotate(0) translate(4 764.75)">
<title>kb_progression</title>
<polygon fill="white" stroke="none" points="-4,4 -4,-764.75 1413.12,-764.75 1413.12,4 -4,4"/>
<text text-anchor="middle" x="704.56" y="-6.45" font-family="Times New Roman,serif" font-size="14.00">Kettlebell Turkish Get&#45;Up Progression</text>
<g id="clust3" class="cluster">
<title>cluster_snatch</title>
<polygon fill="none" stroke="black" points="871.62,-31.75 871.62,-383.62 1207.62,-383.62 1207.62,-31.75 871.62,-31.75"/>
<text text-anchor="middle" x="1039.62" y="-366.32" font-family="Times New Roman,serif" font-size="14.00">Snatch</text>
</g>
<g id="clust2" class="cluster">
<title>cluster_double</title>
<polygon fill="none" stroke="black" points="141.62,-104.75 141.62,-631.25 704.62,-631.25 704.62,-104.75 141.62,-104.75"/>
<text text-anchor="middle" x="423.12" y="-613.95" font-family="Times New Roman,serif" font-size="14.00">Doubles</text>
</g>
<!-- ext_hc_dblswing -->
<g id="node1" class="node">
<title>ext_hc_dblswing</title>
<path fill="ghostwhite" stroke="lightslategrey" d="M13.5,-407.75C13.5,-407.75 119.75,-407.75 119.75,-407.75 125.75,-407.75 131.75,-413.75 131.75,-419.75 131.75,-419.75 131.75,-431.75 131.75,-431.75 131.75,-437.75 125.75,-443.75 119.75,-443.75 119.75,-443.75 13.5,-443.75 13.5,-443.75 7.5,-443.75 1.5,-437.75 1.5,-431.75 1.5,-431.75 1.5,-419.75 1.5,-419.75 1.5,-413.75 7.5,-407.75 13.5,-407.75"/>
<text text-anchor="middle" x="19.25" y="-420.45" font-family="Times New Roman,serif" font-size="14.00">HC</text>
<polyline fill="none" stroke="lightslategrey" points="37,-408 37,-443.75"/>
<text text-anchor="middle" x="84.38" y="-420.45" font-family="Times New Roman,serif" font-size="14.00">Double Swing</text>
</g>
<!-- ext_hc_dblrockit -->
<g id="node2" class="node">
<title>ext_hc_dblrockit</title>
<path fill="ghostwhite" stroke="lightslategrey" d="M12,-315.38C12,-315.38 121.25,-315.38 121.25,-315.38 127.25,-315.38 133.25,-321.38 133.25,-327.38 133.25,-327.38 133.25,-339.38 133.25,-339.38 133.25,-345.38 127.25,-351.38 121.25,-351.38 121.25,-351.38 12,-351.38 12,-351.38 6,-351.38 0,-345.38 0,-339.38 0,-339.38 0,-327.38 0,-327.38 0,-321.38 6,-315.38 12,-315.38"/>
<text text-anchor="middle" x="17.75" y="-328.07" font-family="Times New Roman,serif" font-size="14.00">HC</text>
<polyline fill="none" stroke="lightslategrey" points="35.5,-315.62 35.5,-351.38"/>
<text text-anchor="middle" x="84.38" y="-328.07" font-family="Times New Roman,serif" font-size="14.00">Double Rockit</text>
</g>
<!-- ext_hc_dblswing&#45;&gt;ext_hc_dblrockit -->
<g id="edge1" class="edge">
<title>ext_hc_dblswing&#45;&gt;ext_hc_dblrockit</title>
<path fill="none" stroke="black" d="M66.62,-407.75C66.62,-394.88 66.62,-376.92 66.62,-361.99"/>
<polygon fill="black" stroke="black" points="70.13,-362.3 66.62,-352.3 63.13,-362.3 70.13,-362.3"/>
</g>
<!-- mov_dblrockit -->
<g id="node17" class="node">
<title>mov_dblrockit</title>
<g id="a_node17"><a xlink:href="https://www.youtube.com/watch?v=zXB6hFrrBkA&amp;list=PLk4oYPJ7TXKhX8YqA2AVrfgs_pEF6p7KA&amp;index=63" xlink:title="{{64?|Double Rockit}}">
<path fill="#ffff99" stroke="#b15928" d="M162,-209.25C162,-209.25 271.25,-209.25 271.25,-209.25 277.25,-209.25 283.25,-215.25 283.25,-221.25 283.25,-221.25 283.25,-233.25 283.25,-233.25 283.25,-239.25 277.25,-245.25 271.25,-245.25 271.25,-245.25 162,-245.25 162,-245.25 156,-245.25 150,-239.25 150,-233.25 150,-233.25 150,-221.25 150,-221.25 150,-215.25 156,-209.25 162,-209.25"/>
<text text-anchor="middle" x="167.75" y="-221.95" font-family="Times New Roman,serif" font-size="14.00">64?</text>
<polyline fill="none" stroke="#b15928" points="185.5,-209.5 185.5,-245.25"/>
<text text-anchor="middle" x="234.38" y="-221.95" font-family="Times New Roman,serif" font-size="14.00">Double Rockit</text>
</a>
</g>
</g>
<!-- ext_hc_dblrockit&#45;&gt;mov_dblrockit -->
<g id="edge2" class="edge">
<title>ext_hc_dblrockit&#45;&gt;mov_dblrockit</title>
<path fill="none" stroke="black" d="M91.06,-315.41C116.12,-298.02 155.28,-270.83 183.2,-251.45"/>
<polygon fill="black" stroke="black" points="184.98,-253.78 191.2,-245.2 180.99,-248.03 184.98,-253.78"/>
</g>
<!-- mov_deadlift -->
<g id="node3" class="node">
<title>mov_deadlift</title>
<g id="a_node3"><a xlink:href="https://www.youtube.com/watch?v=x0XkmM34BPI&amp;list=PLk4oYPJ7TXKhX8YqA2AVrfgs_pEF6p7KA&amp;index=1" xlink:title="{{KB&#45;01|Two Hand Deadlift}|HIP HINGE}">
<path fill="ghostwhite" stroke="lightslategrey" d="M654.62,-712.75C654.62,-712.75 806.62,-712.75 806.62,-712.75 812.62,-712.75 818.62,-718.75 818.62,-724.75 818.62,-724.75 818.62,-748.25 818.62,-748.25 818.62,-754.25 812.62,-760.25 806.62,-760.25 806.62,-760.25 654.62,-760.25 654.62,-760.25 648.62,-760.25 642.62,-754.25 642.62,-748.25 642.62,-748.25 642.62,-724.75 642.62,-724.75 642.62,-718.75 648.62,-712.75 654.62,-712.75"/>
<text text-anchor="middle" x="669" y="-742.95" font-family="Times New Roman,serif" font-size="14.00">KB&#45;01</text>
<polyline fill="none" stroke="lightslategrey" points="695.38,-736.5 695.38,-760.25"/>
<text text-anchor="middle" x="757" y="-742.95" font-family="Times New Roman,serif" font-size="14.00">Two Hand Deadlift</text>
<polyline fill="none" stroke="lightslategrey" points="642.62,-736.5 818.62,-736.5"/>
<text text-anchor="middle" x="730.62" y="-719.2" font-family="Times New Roman,serif" font-size="14.00">HIP HINGE</text>
</a>
</g>
</g>
<!-- mov_suitcasedl -->
<g id="node9" class="node">
<title>mov_suitcasedl</title>
<g id="a_node9"><a xlink:href="https://www.youtube.com/watch?v=d6i6MwVOmk0&amp;list=PLk4oYPJ7TXKhX8YqA2AVrfgs_pEF6p7KA&amp;index=58" xlink:title="{{56|Suitcase Deadlift}}">
<path fill="#ffff99" stroke="#b15928" d="M673,-639.75C673,-639.75 788.25,-639.75 788.25,-639.75 794.25,-639.75 800.25,-645.75 800.25,-651.75 800.25,-651.75 800.25,-663.75 800.25,-663.75 800.25,-669.75 794.25,-675.75 788.25,-675.75 788.25,-675.75 673,-675.75 673,-675.75 667,-675.75 661,-669.75 661,-663.75 661,-663.75 661,-651.75 661,-651.75 661,-645.75 667,-639.75 673,-639.75"/>
<text text-anchor="middle" x="675.75" y="-652.45" font-family="Times New Roman,serif" font-size="14.00">56</text>
<polyline fill="none" stroke="#b15928" points="690.5,-640 690.5,-675.75"/>
<text text-anchor="middle" x="745.38" y="-652.45" font-family="Times New Roman,serif" font-size="14.00">Suitcase Deadlift</text>
</a>
</g>
</g>
<!-- mov_deadlift&#45;&gt;mov_suitcasedl -->
<g id="edge10" class="edge">
<title>mov_deadlift&#45;&gt;mov_suitcasedl</title>
<path fill="none" stroke="black" d="M730.62,-712.89C730.62,-704.52 730.62,-694.95 730.62,-686.21"/>
<polygon fill="black" stroke="black" points="734.13,-686.36 730.62,-676.36 727.13,-686.36 734.13,-686.36"/>
</g>
<!-- mov_h2h -->
<g id="node4" class="node">
<title>mov_h2h</title>
<g id="a_node4"><a xlink:href="https://www.youtube.com/watch?v=0Uk0Rdm3QFs&amp;list=PLk4oYPJ7TXKhX8YqA2AVrfgs_pEF6p7KA&amp;index=10" xlink:title="{{KB&#45;10|Hand to Hand\nTransition}}">
<path fill="ghostwhite" stroke="lightslategrey" d="M725.88,-486.5C725.88,-486.5 849.38,-486.5 849.38,-486.5 855.38,-486.5 861.38,-492.5 861.38,-498.5 861.38,-498.5 861.38,-514 861.38,-514 861.38,-520 855.38,-526 849.38,-526 849.38,-526 725.88,-526 725.88,-526 719.88,-526 713.88,-520 713.88,-514 713.88,-514 713.88,-498.5 713.88,-498.5 713.88,-492.5 719.88,-486.5 725.88,-486.5"/>
<text text-anchor="middle" x="740.25" y="-500.82" font-family="Times New Roman,serif" font-size="14.00">KB&#45;10</text>
<polyline fill="none" stroke="lightslategrey" points="766.62,-486.5 766.62,-526"/>
<text text-anchor="middle" x="814" y="-508.7" font-family="Times New Roman,serif" font-size="14.00">Hand to Hand</text>
<text text-anchor="middle" x="814" y="-492.95" font-family="Times New Roman,serif" font-size="14.00">Transition</text>
</a>
</g>
</g>
<!-- mov_dblswing -->
<g id="node13" class="node">
<title>mov_dblswing</title>
<g id="a_node13"><a xlink:href="https://www.youtube.com/watch?v=P5IFTJySA_s&amp;list=PLk4oYPJ7TXKhX8YqA2AVrfgs_pEF6p7KA&amp;index=61" xlink:title="{{60|Double Swing}}">
<path fill="#ffff99" stroke="#b15928" d="M560.5,-407.75C560.5,-407.75 660.75,-407.75 660.75,-407.75 666.75,-407.75 672.75,-413.75 672.75,-419.75 672.75,-419.75 672.75,-431.75 672.75,-431.75 672.75,-437.75 666.75,-443.75 660.75,-443.75 660.75,-443.75 560.5,-443.75 560.5,-443.75 554.5,-443.75 548.5,-437.75 548.5,-431.75 548.5,-431.75 548.5,-419.75 548.5,-419.75 548.5,-413.75 554.5,-407.75 560.5,-407.75"/>
<text text-anchor="middle" x="563.25" y="-420.45" font-family="Times New Roman,serif" font-size="14.00">60</text>
<polyline fill="none" stroke="#b15928" points="578,-408 578,-443.75"/>
<text text-anchor="middle" x="625.38" y="-420.45" font-family="Times New Roman,serif" font-size="14.00">Double Swing</text>
</a>
</g>
</g>
<!-- mov_h2h&#45;&gt;mov_dblswing -->
<g id="edge3" class="edge">
<title>mov_h2h&#45;&gt;mov_dblswing</title>
<path fill="none" stroke="black" d="M745.68,-486.65C719.55,-475.06 685.85,-460.11 658.65,-448.05"/>
<polygon fill="black" stroke="black" points="660.51,-444.6 649.95,-443.75 657.67,-451 660.51,-444.6"/>
</g>
<!-- mov_clean -->
<g id="node5" class="node">
<title>mov_clean</title>
<g id="a_node5"><a xlink:href="https://www.youtube.com/watch?v=_nIsSXWs5iU&amp;list=PLk4oYPJ7TXKhX8YqA2AVrfgs_pEF6p7KA&amp;index=12" xlink:title="KB&#45;12|Swing Clean">
<path fill="ghostwhite" stroke="lightslategrey" d="M900.38,-488.25C900.38,-488.25 1014.88,-488.25 1014.88,-488.25 1020.88,-488.25 1026.88,-494.25 1026.88,-500.25 1026.88,-500.25 1026.88,-512.25 1026.88,-512.25 1026.88,-518.25 1020.88,-524.25 1014.88,-524.25 1014.88,-524.25 900.38,-524.25 900.38,-524.25 894.38,-524.25 888.38,-518.25 888.38,-512.25 888.38,-512.25 888.38,-500.25 888.38,-500.25 888.38,-494.25 894.38,-488.25 900.38,-488.25"/>
<text text-anchor="middle" x="914.75" y="-500.82" font-family="Times New Roman,serif" font-size="14.00">KB&#45;12</text>
<polyline fill="none" stroke="lightslategrey" points="941.12,-488.25 941.12,-524.25"/>
<text text-anchor="middle" x="984" y="-500.82" font-family="Times New Roman,serif" font-size="14.00">Swing Clean</text>
</a>
</g>
</g>
<!-- mov_startstopclean -->
<g id="node6" class="node">
<title>mov_startstopclean</title>
<g id="a_node6"><a xlink:href="https://www.youtube.com/watch?v=XbK3jxI0WNQ&amp;list=PLk4oYPJ7TXKhX8YqA2AVrfgs_pEF6p7KA&amp;index=16" xlink:title="{{KB&#45;16|Start Stop Clean}|START &amp; END CLEAN}">
<path fill="ghostwhite" stroke="lightslategrey" d="M725.12,-402C725.12,-402 862.12,-402 862.12,-402 868.12,-402 874.12,-408 874.12,-414 874.12,-414 874.12,-437.5 874.12,-437.5 874.12,-443.5 868.12,-449.5 862.12,-449.5 862.12,-449.5 725.12,-449.5 725.12,-449.5 719.12,-449.5 713.12,-443.5 713.12,-437.5 713.12,-437.5 713.12,-414 713.12,-414 713.12,-408 719.12,-402 725.12,-402"/>
<text text-anchor="middle" x="739.5" y="-432.2" font-family="Times New Roman,serif" font-size="14.00">KB&#45;16</text>
<polyline fill="none" stroke="lightslategrey" points="765.88,-425.75 765.88,-449.5"/>
<text text-anchor="middle" x="820" y="-432.2" font-family="Times New Roman,serif" font-size="14.00">Start Stop Clean</text>
<polyline fill="none" stroke="lightslategrey" points="713.12,-425.75 874.12,-425.75"/>
<text text-anchor="middle" x="793.62" y="-408.45" font-family="Times New Roman,serif" font-size="14.00">START &amp; END CLEAN</text>
</a>
</g>
</g>
<!-- mov_clean&#45;&gt;mov_startstopclean -->
<g id="edge4" class="edge">
<title>mov_clean&#45;&gt;mov_startstopclean</title>
<path fill="none" stroke="black" d="M922.44,-488.41C901.51,-478.39 874.47,-465.45 850.56,-454"/>
<polygon fill="black" stroke="black" points="852.42,-450.53 841.89,-449.37 849.39,-456.85 852.42,-450.53"/>
</g>
<!-- mov_cap -->
<g id="node7" class="node">
<title>mov_cap</title>
<g id="a_node7"><a xlink:href="https://www.youtube.com/watch?v=SSxB3m5qRas&amp;list=PLk4oYPJ7TXKhX8YqA2AVrfgs_pEF6p7KA&amp;index=17" xlink:title="KB&#45;17|Clean &amp; Press">
<path fill="ghostwhite" stroke="lightslategrey" d="M903.75,-407.75C903.75,-407.75 1029.5,-407.75 1029.5,-407.75 1035.5,-407.75 1041.5,-413.75 1041.5,-419.75 1041.5,-419.75 1041.5,-431.75 1041.5,-431.75 1041.5,-437.75 1035.5,-443.75 1029.5,-443.75 1029.5,-443.75 903.75,-443.75 903.75,-443.75 897.75,-443.75 891.75,-437.75 891.75,-431.75 891.75,-431.75 891.75,-419.75 891.75,-419.75 891.75,-413.75 897.75,-407.75 903.75,-407.75"/>
<text text-anchor="middle" x="918.12" y="-420.32" font-family="Times New Roman,serif" font-size="14.00">KB&#45;17</text>
<polyline fill="none" stroke="lightslategrey" points="944.5,-407.75 944.5,-443.75"/>
<text text-anchor="middle" x="993" y="-420.32" font-family="Times New Roman,serif" font-size="14.00">Clean &amp; Press</text>
</a>
</g>
</g>
<!-- mov_clean&#45;&gt;mov_cap -->
<g id="edge5" class="edge">
<title>mov_clean&#45;&gt;mov_cap</title>
<path fill="none" stroke="black" d="M959.53,-488.6C960.67,-478.68 962.14,-465.83 963.45,-454.42"/>
<polygon fill="black" stroke="black" points="967.03,-454.98 964.69,-444.64 960.07,-454.18 967.03,-454.98"/>
</g>
<!-- mov_halfsnatchdown -->
<g id="node12" class="node">
<title>mov_halfsnatchdown</title>
<g id="a_node12"><a xlink:href="https://www.youtube.com/watch?v=u2NbMtX_Rb0&amp;list=PLk4oYPJ7TXKhX8YqA2AVrfgs_pEF6p7KA&amp;index=60" xlink:title="{{59|Half Snatch Down}}">
<path fill="#ffff99" stroke="#b15928" d="M892.5,-315.38C892.5,-315.38 1016.75,-315.38 1016.75,-315.38 1022.75,-315.38 1028.75,-321.38 1028.75,-327.38 1028.75,-327.38 1028.75,-339.38 1028.75,-339.38 1028.75,-345.38 1022.75,-351.38 1016.75,-351.38 1016.75,-351.38 892.5,-351.38 892.5,-351.38 886.5,-351.38 880.5,-345.38 880.5,-339.38 880.5,-339.38 880.5,-327.38 880.5,-327.38 880.5,-321.38 886.5,-315.38 892.5,-315.38"/>
<text text-anchor="middle" x="895.25" y="-328.07" font-family="Times New Roman,serif" font-size="14.00">59</text>
<polyline fill="none" stroke="#b15928" points="910,-315.62 910,-351.38"/>
<text text-anchor="middle" x="969.38" y="-328.07" font-family="Times New Roman,serif" font-size="14.00">Half Snatch Down</text>
</a>
</g>
</g>
<!-- mov_startstopclean&#45;&gt;mov_halfsnatchdown -->
<g id="edge8" class="edge">
<title>mov_startstopclean&#45;&gt;mov_halfsnatchdown</title>
<path fill="none" stroke="black" d="M837.56,-402.08C848.73,-396.18 860.67,-389.76 871.62,-383.62 886.86,-375.1 903.44,-365.35 917.75,-356.8"/>
<polygon fill="black" stroke="black" points="919.01,-359.52 925.78,-351.37 915.41,-353.52 919.01,-359.52"/>
</g>
<!-- mov_dblclean -->
<g id="node15" class="node">
<title>mov_dblclean</title>
<g id="a_node15"><a xlink:href="https://www.youtube.com/watch?v=Qe9ejhAtdGY&amp;list=PLk4oYPJ7TXKhX8YqA2AVrfgs_pEF6p7KA&amp;index=62" xlink:title="{{62|Double Clean}}">
<path fill="#ffff99" stroke="#b15928" d="M562,-315.38C562,-315.38 659.25,-315.38 659.25,-315.38 665.25,-315.38 671.25,-321.38 671.25,-327.38 671.25,-327.38 671.25,-339.38 671.25,-339.38 671.25,-345.38 665.25,-351.38 659.25,-351.38 659.25,-351.38 562,-351.38 562,-351.38 556,-351.38 550,-345.38 550,-339.38 550,-339.38 550,-327.38 550,-327.38 550,-321.38 556,-315.38 562,-315.38"/>
<text text-anchor="middle" x="564.75" y="-328.07" font-family="Times New Roman,serif" font-size="14.00">62</text>
<polyline fill="none" stroke="#b15928" points="579.5,-315.62 579.5,-351.38"/>
<text text-anchor="middle" x="625.38" y="-328.07" font-family="Times New Roman,serif" font-size="14.00">Double Clean</text>
</a>
</g>
</g>
<!-- mov_startstopclean&#45;&gt;mov_dblclean -->
<g id="edge7" class="edge">
<title>mov_startstopclean&#45;&gt;mov_dblclean</title>
<path fill="none" stroke="black" d="M742.92,-402.21C730.04,-396.31 716.26,-389.85 703.62,-383.62 686.09,-374.98 666.97,-364.96 650.64,-356.22"/>
<polygon fill="black" stroke="black" points="652.86,-352.9 642.39,-351.25 649.54,-359.07 652.86,-352.9"/>
</g>
<!-- mov_startstopcap -->
<g id="node8" class="node">
<title>mov_startstopcap</title>
<g id="a_node8"><a xlink:href="https://www.youtube.com/watch?v=dSj3kqbuois&amp;list=PLk4oYPJ7TXKhX8YqA2AVrfgs_pEF6p7KA&amp;index=19" xlink:title="{{KB&#45;19|Start Stop\nClean &amp; Press}|START &amp; END C&amp;P}">
<path fill="ghostwhite" stroke="lightslategrey" d="M724.75,-301.75C724.75,-301.75 850.5,-301.75 850.5,-301.75 856.5,-301.75 862.5,-307.75 862.5,-313.75 862.5,-313.75 862.5,-353 862.5,-353 862.5,-359 856.5,-365 850.5,-365 850.5,-365 724.75,-365 724.75,-365 718.75,-365 712.75,-359 712.75,-353 712.75,-353 712.75,-313.75 712.75,-313.75 712.75,-307.75 718.75,-301.75 724.75,-301.75"/>
<text text-anchor="middle" x="739.12" y="-339.82" font-family="Times New Roman,serif" font-size="14.00">KB&#45;19</text>
<polyline fill="none" stroke="lightslategrey" points="765.5,-325.5 765.5,-365"/>
<text text-anchor="middle" x="814" y="-347.7" font-family="Times New Roman,serif" font-size="14.00">Start Stop</text>
<text text-anchor="middle" x="814" y="-331.95" font-family="Times New Roman,serif" font-size="14.00">Clean &amp; Press</text>
<polyline fill="none" stroke="lightslategrey" points="712.75,-325.5 862.5,-325.5"/>
<text text-anchor="middle" x="787.62" y="-308.2" font-family="Times New Roman,serif" font-size="14.00">START &amp; END C&amp;P</text>
</a>
</g>
</g>
<!-- mov_cap&#45;&gt;mov_startstopcap -->
<g id="edge6" class="edge">
<title>mov_cap&#45;&gt;mov_startstopcap</title>
<path fill="none" stroke="black" d="M921.59,-407.79C904.43,-400.88 884.86,-392.44 867.62,-383.62 859.69,-379.57 851.5,-375 843.53,-370.32"/>
<polygon fill="black" stroke="black" points="845.67,-366.93 835.29,-364.81 842.08,-372.94 845.67,-366.93"/>
</g>
<!-- mov_dblcap -->
<g id="node18" class="node">
<title>mov_dblcap</title>
<g id="a_node18"><a xlink:href="https://www.youtube.com/watch?v=RizGV8ef--s" xlink:title="{{65|Double\nClean &amp; Press}}">
<path fill="#ffff99" stroke="#b15928" d="M582.38,-207.5C582.38,-207.5 684.88,-207.5 684.88,-207.5 690.88,-207.5 696.88,-213.5 696.88,-219.5 696.88,-219.5 696.88,-235 696.88,-235 696.88,-241 690.88,-247 684.88,-247 684.88,-247 582.38,-247 582.38,-247 576.38,-247 570.38,-241 570.38,-235 570.38,-235 570.38,-219.5 570.38,-219.5 570.38,-213.5 576.38,-207.5 582.38,-207.5"/>
<text text-anchor="middle" x="585.12" y="-221.82" font-family="Times New Roman,serif" font-size="14.00">65</text>
<polyline fill="none" stroke="#b15928" points="599.88,-207.5 599.88,-247"/>
<text text-anchor="middle" x="648.38" y="-229.7" font-family="Times New Roman,serif" font-size="14.00">Double</text>
<text text-anchor="middle" x="648.38" y="-213.95" font-family="Times New Roman,serif" font-size="14.00">Clean &amp; Press</text>
</a>
</g>
</g>
<!-- mov_startstopcap&#45;&gt;mov_dblcap -->
<g id="edge9" class="edge">
<title>mov_startstopcap&#45;&gt;mov_dblcap</title>
<path fill="none" stroke="black" d="M742.67,-301.98C719.52,-286.33 691.67,-267.49 669.91,-252.78"/>
<polygon fill="black" stroke="black" points="672.23,-249.45 661.98,-246.75 668.31,-255.25 672.23,-249.45"/>
</g>
<!-- mov_dblsuitcase -->
<g id="node10" class="node">
<title>mov_dblsuitcase</title>
<g id="a_node10"><a xlink:href="https://www.youtube.com/watch?v=4PSOSrDcGfc&amp;list=PLk4oYPJ7TXKhX8YqA2AVrfgs_pEF6p7KA&amp;index=59" xlink:title="{{57|Double Suitcase}}">
<path fill="#ffff99" stroke="#b15928" d="M562.5,-563C562.5,-563 674.75,-563 674.75,-563 680.75,-563 686.75,-569 686.75,-575 686.75,-575 686.75,-587 686.75,-587 686.75,-593 680.75,-599 674.75,-599 674.75,-599 562.5,-599 562.5,-599 556.5,-599 550.5,-593 550.5,-587 550.5,-587 550.5,-575 550.5,-575 550.5,-569 556.5,-563 562.5,-563"/>
<text text-anchor="middle" x="565.25" y="-575.7" font-family="Times New Roman,serif" font-size="14.00">57</text>
<polyline fill="none" stroke="#b15928" points="580,-563.25 580,-599"/>
<text text-anchor="middle" x="633.38" y="-575.7" font-family="Times New Roman,serif" font-size="14.00">Double Suitcase</text>
</a>
</g>
</g>
<!-- mov_suitcasedl&#45;&gt;mov_dblsuitcase -->
<g id="edge11" class="edge">
<title>mov_suitcasedl&#45;&gt;mov_dblsuitcase</title>
<path fill="none" stroke="black" d="M705.21,-639.79C689.74,-629.47 669.79,-616.15 652.94,-604.9"/>
<polygon fill="black" stroke="black" points="655.2,-601.53 644.94,-598.89 651.31,-607.36 655.2,-601.53"/>
</g>
<!-- mov_2hsbldl -->
<g id="node25" class="node">
<title>mov_2hsbldl</title>
<g id="a_node25"><a xlink:href="https://www.youtube.com/watch?v=-RD1qqe7P8M" xlink:title="{{73|Two Hand Single Bent Leg Deadlift}}">
<path fill="#ffff99" stroke="#b15928" d="M724.5,-563C724.5,-563 944.75,-563 944.75,-563 950.75,-563 956.75,-569 956.75,-575 956.75,-575 956.75,-587 956.75,-587 956.75,-593 950.75,-599 944.75,-599 944.75,-599 724.5,-599 724.5,-599 718.5,-599 712.5,-593 712.5,-587 712.5,-587 712.5,-575 712.5,-575 712.5,-569 718.5,-563 724.5,-563"/>
<text text-anchor="middle" x="727.25" y="-575.7" font-family="Times New Roman,serif" font-size="14.00">73</text>
<polyline fill="none" stroke="#b15928" points="742,-563.25 742,-599"/>
<text text-anchor="middle" x="849.38" y="-575.7" font-family="Times New Roman,serif" font-size="14.00">Two Hand Single Bent Leg Deadlift</text>
</a>
</g>
</g>
<!-- mov_suitcasedl&#45;&gt;mov_2hsbldl -->
<g id="edge12" class="edge">
<title>mov_suitcasedl&#45;&gt;mov_2hsbldl</title>
<path fill="none" stroke="black" d="M754.22,-639.79C768.45,-629.56 786.77,-616.39 802.33,-605.21"/>
<polygon fill="black" stroke="black" points="804.04,-607.57 810.12,-598.89 799.96,-601.89 804.04,-607.57"/>
</g>
<!-- mov_dblsumodl -->
<g id="node11" class="node">
<title>mov_dblsumodl</title>
<g id="a_node11"><a xlink:href="https://www.youtube.com/watch?v=gdutIla6nMw" xlink:title="{{58|Double Sumo Deadlift}}">
<path fill="#ffff99" stroke="#b15928" d="M537.62,-488.25C537.62,-488.25 683.62,-488.25 683.62,-488.25 689.62,-488.25 695.62,-494.25 695.62,-500.25 695.62,-500.25 695.62,-512.25 695.62,-512.25 695.62,-518.25 689.62,-524.25 683.62,-524.25 683.62,-524.25 537.62,-524.25 537.62,-524.25 531.62,-524.25 525.62,-518.25 525.62,-512.25 525.62,-512.25 525.62,-500.25 525.62,-500.25 525.62,-494.25 531.62,-488.25 537.62,-488.25"/>
<text text-anchor="middle" x="540.38" y="-500.95" font-family="Times New Roman,serif" font-size="14.00">58</text>
<polyline fill="none" stroke="#b15928" points="555.12,-488.5 555.12,-524.25"/>
<text text-anchor="middle" x="625.38" y="-500.95" font-family="Times New Roman,serif" font-size="14.00">Double Sumo Deadlift</text>
</a>
</g>
</g>
<!-- mov_dblsuitcase&#45;&gt;mov_dblsumodl -->
<g id="edge14" class="edge">
<title>mov_dblsuitcase&#45;&gt;mov_dblsumodl</title>
<path fill="none" stroke="black" d="M616.77,-563.13C615.84,-554.68 614.69,-544.24 613.64,-534.68"/>
<polygon fill="black" stroke="black" points="617.04,-534.59 612.47,-525.03 610.08,-535.35 617.04,-534.59"/>
</g>
<!-- mov_dblsumodl&#45;&gt;mov_dblswing -->
<g id="edge20" class="edge">
<title>mov_dblsumodl&#45;&gt;mov_dblswing</title>
<path fill="none" stroke="black" d="M610.62,-488.6C610.62,-478.68 610.62,-465.83 610.62,-454.42"/>
<polygon fill="black" stroke="black" points="614.13,-454.64 610.62,-444.64 607.13,-454.64 614.13,-454.64"/>
</g>
<!-- mov_halfsnatchup -->
<g id="node14" class="node">
<title>mov_halfsnatchup</title>
<g id="a_node14"><a xlink:href="https://www.youtube.com/watch?v=3HEmUyLYjjc" xlink:title="{{61|Half Snatch Up}}">
<path fill="#ffff99" stroke="#b15928" d="M900.75,-209.25C900.75,-209.25 1008.5,-209.25 1008.5,-209.25 1014.5,-209.25 1020.5,-215.25 1020.5,-221.25 1020.5,-221.25 1020.5,-233.25 1020.5,-233.25 1020.5,-239.25 1014.5,-245.25 1008.5,-245.25 1008.5,-245.25 900.75,-245.25 900.75,-245.25 894.75,-245.25 888.75,-239.25 888.75,-233.25 888.75,-233.25 888.75,-221.25 888.75,-221.25 888.75,-215.25 894.75,-209.25 900.75,-209.25"/>
<text text-anchor="middle" x="903.5" y="-221.95" font-family="Times New Roman,serif" font-size="14.00">61</text>
<polyline fill="none" stroke="#b15928" points="918.25,-209.5 918.25,-245.25"/>
<text text-anchor="middle" x="969.38" y="-221.95" font-family="Times New Roman,serif" font-size="14.00">Half Snatch Up</text>
</a>
</g>
</g>
<!-- mov_halfsnatchdown&#45;&gt;mov_halfsnatchup -->
<g id="edge22" class="edge">
<title>mov_halfsnatchdown&#45;&gt;mov_halfsnatchup</title>
<path fill="none" stroke="black" d="M954.62,-315.65C954.62,-299.55 954.62,-274.94 954.62,-255.92"/>
<polygon fill="black" stroke="black" points="958.13,-255.94 954.62,-245.94 951.13,-255.94 958.13,-255.94"/>
</g>
<!-- mov_dblswing&#45;&gt;mov_dblclean -->
<g id="edge15" class="edge">
<title>mov_dblswing&#45;&gt;mov_dblclean</title>
<path fill="none" stroke="black" d="M610.62,-407.75C610.62,-394.88 610.62,-376.92 610.62,-361.99"/>
<polygon fill="black" stroke="black" points="614.13,-362.3 610.62,-352.3 607.13,-362.3 614.13,-362.3"/>
</g>
<!-- mov_dbloutswing -->
<g id="node16" class="node">
<title>mov_dbloutswing</title>
<g id="a_node16"><a xlink:href="https://www.youtube.com/watch?v=yr_fRgGevsE" xlink:title="{{64|Double\nOutside Swing}}">
<path fill="#ffff99" stroke="#b15928" d="M292,-313.62C292,-313.62 395.25,-313.62 395.25,-313.62 401.25,-313.62 407.25,-319.62 407.25,-325.62 407.25,-325.62 407.25,-341.12 407.25,-341.12 407.25,-347.12 401.25,-353.12 395.25,-353.12 395.25,-353.12 292,-353.12 292,-353.12 286,-353.12 280,-347.12 280,-341.12 280,-341.12 280,-325.62 280,-325.62 280,-319.62 286,-313.62 292,-313.62"/>
<text text-anchor="middle" x="294.75" y="-327.95" font-family="Times New Roman,serif" font-size="14.00">64</text>
<polyline fill="none" stroke="#b15928" points="309.5,-313.62 309.5,-353.12"/>
<text text-anchor="middle" x="358.38" y="-335.82" font-family="Times New Roman,serif" font-size="14.00">Double</text>
<text text-anchor="middle" x="358.38" y="-320.07" font-family="Times New Roman,serif" font-size="14.00">Outside Swing</text>
</a>
</g>
</g>
<!-- mov_dblswing&#45;&gt;mov_dbloutswing -->
<g id="edge21" class="edge">
<title>mov_dblswing&#45;&gt;mov_dbloutswing</title>
<path fill="none" stroke="black" d="M560.4,-407.75C517.57,-393.25 455.69,-372.31 409,-356.5"/>
<polygon fill="black" stroke="black" points="410.28,-352.9 399.68,-353.01 408.03,-359.53 410.28,-352.9"/>
</g>
<!-- mov_snatch -->
<g id="node19" class="node">
<title>mov_snatch</title>
<g id="a_node19"><a xlink:href="https://www.youtube.com/watch?v=f-zkPiAlpQw&amp;list=PLk4oYPJ7TXKhX8YqA2AVrfgs_pEF6p7KA&amp;index=65" xlink:title="{{66|Full Snatch}}">
<path fill="#ffff99" stroke="#b15928" d="M912.38,-115C912.38,-115 996.88,-115 996.88,-115 1002.88,-115 1008.88,-121 1008.88,-127 1008.88,-127 1008.88,-139 1008.88,-139 1008.88,-145 1002.88,-151 996.88,-151 996.88,-151 912.38,-151 912.38,-151 906.38,-151 900.38,-145 900.38,-139 900.38,-139 900.38,-127 900.38,-127 900.38,-121 906.38,-115 912.38,-115"/>
<text text-anchor="middle" x="915.12" y="-127.7" font-family="Times New Roman,serif" font-size="14.00">66</text>
<polyline fill="none" stroke="#b15928" points="929.88,-115.25 929.88,-151"/>
<text text-anchor="middle" x="969.38" y="-127.7" font-family="Times New Roman,serif" font-size="14.00">Full Snatch</text>
</a>
</g>
</g>
<!-- mov_halfsnatchup&#45;&gt;mov_snatch -->
<g id="edge23" class="edge">
<title>mov_halfsnatchup&#45;&gt;mov_snatch</title>
<path fill="none" stroke="black" d="M954.62,-209.33C954.62,-195.94 954.62,-176.96 954.62,-161.41"/>
<polygon fill="black" stroke="black" points="958.13,-161.81 954.62,-151.81 951.13,-161.81 958.13,-161.81"/>
</g>
<!-- mov_dblclean&#45;&gt;mov_dblcap -->
<g id="edge16" class="edge">
<title>mov_dblclean&#45;&gt;mov_dblcap</title>
<path fill="none" stroke="black" d="M614.32,-315.65C617.79,-299.96 623.04,-276.16 627.19,-257.36"/>
<polygon fill="black" stroke="black" points="630.81,-258.21 629.55,-247.69 623.98,-256.7 630.81,-258.21"/>
</g>
<!-- mov_dblsquat -->
<g id="node20" class="node">
<title>mov_dblsquat</title>
<g id="a_node20"><a xlink:href="https://www.youtube.com/watch?v=dX5yXJa5Dm0&amp;list=PLk4oYPJ7TXKhX8YqA2AVrfgs_pEF6p7KA&amp;index=66" xlink:title="{{67|Double\nFront Squat}}">
<path fill="#ffff99" stroke="#b15928" d="M452.5,-207.5C452.5,-207.5 540.75,-207.5 540.75,-207.5 546.75,-207.5 552.75,-213.5 552.75,-219.5 552.75,-219.5 552.75,-235 552.75,-235 552.75,-241 546.75,-247 540.75,-247 540.75,-247 452.5,-247 452.5,-247 446.5,-247 440.5,-241 440.5,-235 440.5,-235 440.5,-219.5 440.5,-219.5 440.5,-213.5 446.5,-207.5 452.5,-207.5"/>
<text text-anchor="middle" x="455.25" y="-221.82" font-family="Times New Roman,serif" font-size="14.00">67</text>
<polyline fill="none" stroke="#b15928" points="470,-207.5 470,-247"/>
<text text-anchor="middle" x="511.38" y="-229.7" font-family="Times New Roman,serif" font-size="14.00">Double</text>
<text text-anchor="middle" x="511.38" y="-213.95" font-family="Times New Roman,serif" font-size="14.00">Front Squat</text>
</a>
</g>
</g>
<!-- mov_dblclean&#45;&gt;mov_dblsquat -->
<g id="edge17" class="edge">
<title>mov_dblclean&#45;&gt;mov_dblsquat</title>
<path fill="none" stroke="black" d="M592.06,-315.41C573.9,-298.83 546,-273.35 525.05,-254.21"/>
<polygon fill="black" stroke="black" points="527.86,-252.12 518.11,-247.96 523.14,-257.29 527.86,-252.12"/>
</g>
<!-- mov_deaddblclean -->
<g id="node24" class="node">
<title>mov_deaddblclean</title>
<g id="a_node24"><a xlink:href="https://www.youtube.com/watch?v=22bKQqMqAQY" xlink:title="{{71|Dead Stop\nDouble Clean}}">
<path fill="#ffff99" stroke="#b15928" d="M313,-207.5C313,-207.5 410.25,-207.5 410.25,-207.5 416.25,-207.5 422.25,-213.5 422.25,-219.5 422.25,-219.5 422.25,-235 422.25,-235 422.25,-241 416.25,-247 410.25,-247 410.25,-247 313,-247 313,-247 307,-247 301,-241 301,-235 301,-235 301,-219.5 301,-219.5 301,-213.5 307,-207.5 313,-207.5"/>
<text text-anchor="middle" x="315.75" y="-221.82" font-family="Times New Roman,serif" font-size="14.00">71</text>
<polyline fill="none" stroke="#b15928" points="330.5,-207.5 330.5,-247"/>
<text text-anchor="middle" x="376.38" y="-229.7" font-family="Times New Roman,serif" font-size="14.00">Dead Stop</text>
<text text-anchor="middle" x="376.38" y="-213.95" font-family="Times New Roman,serif" font-size="14.00">Double Clean</text>
</a>
</g>
</g>
<!-- mov_dblclean&#45;&gt;mov_deaddblclean -->
<g id="edge19" class="edge">
<title>mov_dblclean&#45;&gt;mov_deaddblclean</title>
<path fill="none" stroke="black" d="M560.17,-315.39C523.92,-302.72 474.16,-284.37 431.62,-265.25 422.6,-261.19 413.12,-256.49 404.15,-251.83"/>
<polygon fill="black" stroke="black" points="406.14,-248.4 395.66,-246.82 402.87,-254.59 406.14,-248.4"/>
</g>
<!-- mov_dbloutswing&#45;&gt;mov_dblrockit -->
<g id="edge13" class="edge">
<title>mov_dbloutswing&#45;&gt;mov_dblrockit</title>
<path fill="none" stroke="black" d="M320.92,-313.76C299.79,-296.44 268.21,-270.54 245.34,-251.79"/>
<polygon fill="black" stroke="black" points="247.99,-248.62 238.04,-244.98 243.55,-254.03 247.99,-248.62"/>
</g>
<!-- mov_snatchpress -->
<g id="node22" class="node">
<title>mov_snatchpress</title>
<g id="a_node22"><a xlink:href="https://www.youtube.com/watch?v=IzFPa_Q1yHM&amp;list=PLk4oYPJ7TXKhX8YqA2AVrfgs_pEF6p7KA&amp;index=67" xlink:title="{{69|Snatch Press}}">
<path fill="#ffff99" stroke="#b15928" d="M891.5,-40.25C891.5,-40.25 985.75,-40.25 985.75,-40.25 991.75,-40.25 997.75,-46.25 997.75,-52.25 997.75,-52.25 997.75,-64.25 997.75,-64.25 997.75,-70.25 991.75,-76.25 985.75,-76.25 985.75,-76.25 891.5,-76.25 891.5,-76.25 885.5,-76.25 879.5,-70.25 879.5,-64.25 879.5,-64.25 879.5,-52.25 879.5,-52.25 879.5,-46.25 885.5,-40.25 891.5,-40.25"/>
<text text-anchor="middle" x="894.25" y="-52.95" font-family="Times New Roman,serif" font-size="14.00">69</text>
<polyline fill="none" stroke="#b15928" points="909,-40.5 909,-76.25"/>
<text text-anchor="middle" x="953.38" y="-52.95" font-family="Times New Roman,serif" font-size="14.00">Snatch Press</text>
</a>
</g>
</g>
<!-- mov_snatch&#45;&gt;mov_snatchpress -->
<g id="edge24" class="edge">
<title>mov_snatch&#45;&gt;mov_snatchpress</title>
<path fill="none" stroke="black" d="M950.91,-115.13C949.06,-106.68 946.76,-96.24 944.66,-86.68"/>
<polygon fill="black" stroke="black" points="947.88,-86.05 942.32,-77.03 941.05,-87.55 947.88,-86.05"/>
</g>
<!-- mov_kneelsnatchup -->
<g id="node23" class="node">
<title>mov_kneelsnatchup</title>
<g id="a_node23"><a xlink:href="https://www.youtube.com/watch?v=1_UrK5SopL4" xlink:title="{{70|Half&#45;Kneeling Snatch Up}}">
<path fill="#ffff99" stroke="#b15928" d="M1027.5,-40.25C1027.5,-40.25 1187.75,-40.25 1187.75,-40.25 1193.75,-40.25 1199.75,-46.25 1199.75,-52.25 1199.75,-52.25 1199.75,-64.25 1199.75,-64.25 1199.75,-70.25 1193.75,-76.25 1187.75,-76.25 1187.75,-76.25 1027.5,-76.25 1027.5,-76.25 1021.5,-76.25 1015.5,-70.25 1015.5,-64.25 1015.5,-64.25 1015.5,-52.25 1015.5,-52.25 1015.5,-46.25 1021.5,-40.25 1027.5,-40.25"/>
<text text-anchor="middle" x="1030.25" y="-52.95" font-family="Times New Roman,serif" font-size="14.00">70</text>
<polyline fill="none" stroke="#b15928" points="1045,-40.5 1045,-76.25"/>
<text text-anchor="middle" x="1122.38" y="-52.95" font-family="Times New Roman,serif" font-size="14.00">Half&#45;Kneeling Snatch Up</text>
</a>
</g>
</g>
<!-- mov_snatch&#45;&gt;mov_kneelsnatchup -->
<g id="edge25" class="edge">
<title>mov_snatch&#45;&gt;mov_kneelsnatchup</title>
<path fill="none" stroke="black" d="M990.11,-115.13C1011.57,-104.93 1039.13,-91.82 1062.17,-80.86"/>
<polygon fill="black" stroke="black" points="1063.54,-83.61 1071.07,-76.16 1060.53,-77.29 1063.54,-83.61"/>
</g>
<!-- mov_dblclean2squat -->
<g id="node21" class="node">
<title>mov_dblclean2squat</title>
<g id="a_node21"><a xlink:href="https://www.youtube.com/watch?v=R3s6Wb_ApHM" xlink:title="{{68|Double Clean\nto Front Squat}}">
<path fill="#ffff99" stroke="#b15928" d="M445,-113.25C445,-113.25 548.25,-113.25 548.25,-113.25 554.25,-113.25 560.25,-119.25 560.25,-125.25 560.25,-125.25 560.25,-140.75 560.25,-140.75 560.25,-146.75 554.25,-152.75 548.25,-152.75 548.25,-152.75 445,-152.75 445,-152.75 439,-152.75 433,-146.75 433,-140.75 433,-140.75 433,-125.25 433,-125.25 433,-119.25 439,-113.25 445,-113.25"/>
<text text-anchor="middle" x="447.75" y="-127.58" font-family="Times New Roman,serif" font-size="14.00">68</text>
<polyline fill="none" stroke="#b15928" points="462.5,-113.25 462.5,-152.75"/>
<text text-anchor="middle" x="511.38" y="-135.45" font-family="Times New Roman,serif" font-size="14.00">Double Clean</text>
<text text-anchor="middle" x="511.38" y="-119.7" font-family="Times New Roman,serif" font-size="14.00">to Front Squat</text>
</a>
</g>
</g>
<!-- mov_dblsquat&#45;&gt;mov_dblclean2squat -->
<g id="edge18" class="edge">
<title>mov_dblsquat&#45;&gt;mov_dblclean2squat</title>
<path fill="none" stroke="black" d="M496.62,-207.58C496.62,-194.95 496.62,-178.01 496.62,-163.56"/>
<polygon fill="black" stroke="black" points="500.13,-163.64 496.62,-153.64 493.13,-163.64 500.13,-163.64"/>
</g>
<!-- Legend -->
<g id="node26" class="node">
<title>Legend</title>
<path fill="#ffff99" stroke="none" d="M1397.12,-265.25C1397.12,-265.25 1228.12,-265.25 1228.12,-265.25 1222.12,-265.25 1216.12,-259.25 1216.12,-253.25 1216.12,-253.25 1216.12,-201.25 1216.12,-201.25 1216.12,-195.25 1222.12,-189.25 1228.12,-189.25 1228.12,-189.25 1397.12,-189.25 1397.12,-189.25 1403.12,-189.25 1409.12,-195.25 1409.12,-201.25 1409.12,-201.25 1409.12,-253.25 1409.12,-253.25 1409.12,-259.25 1403.12,-265.25 1397.12,-265.25"/>
<polygon fill="none" stroke="#b15928" points="1216.12,-239.25 1216.12,-265.25 1409.12,-265.25 1409.12,-239.25 1216.12,-239.25"/>
<text text-anchor="start" x="1290.12" y="-247.95" font-family="Times New Roman,serif" font-weight="bold" font-size="14.00">Legend</text>
<polygon fill="none" stroke="#b15928" points="1216.12,-214.25 1216.12,-239.25 1381.12,-239.25 1381.12,-214.25 1216.12,-214.25"/>
<text text-anchor="start" x="1221" y="-220.95" font-family="Times New Roman,serif" font-size="14.00">Prerequisites and next steps</text>
<polygon fill="ghostwhite" stroke="none" points="1381.12,-214.25 1381.12,-239.25 1409.12,-239.25 1409.12,-214.25 1381.12,-214.25"/>
<polygon fill="none" stroke="#b15928" points="1381.12,-214.25 1381.12,-239.25 1409.12,-239.25 1409.12,-214.25 1381.12,-214.25"/>
<text text-anchor="start" x="1385.75" y="-220.95" font-family="Times New Roman,serif" font-size="14.00">     </text>
<polygon fill="none" stroke="#b15928" points="1216.12,-189.25 1216.12,-214.25 1381.12,-214.25 1381.12,-189.25 1216.12,-189.25"/>
<text text-anchor="start" x="1284" y="-195.95" font-family="Times New Roman,serif" font-size="14.00">Drills</text>
<polygon fill="#ffff99" stroke="none" points="1381.12,-189.25 1381.12,-214.25 1409.12,-214.25 1409.12,-189.25 1381.12,-189.25"/>
<polygon fill="none" stroke="#b15928" points="1381.12,-189.25 1381.12,-214.25 1409.12,-214.25 1409.12,-189.25 1381.12,-189.25"/>
</g>
</g>
</svg>
