<?xml version="1.0" encoding="UTF-8" standalone="no"?>
<!DOCTYPE svg PUBLIC "-//W3C//DTD SVG 1.1//EN"
 "http://www.w3.org/Graphics/SVG/1.1/DTD/svg11.dtd">
<!-- Generated by graphviz version 9.0.0 (20230911.1827)
 -->
<!-- Title: kb_progression Pages: 1 -->
<svg width="1411pt" height="913pt"
 viewBox="0.00 0.00 1411.12 913.00" xmlns="http://www.w3.org/2000/svg" xmlns:xlink="http://www.w3.org/1999/xlink">
<g id="graph0" class="graph" transform="scale(1 1) rotate(0) translate(4 909)">
<title>kb_progression</title>
<polygon fill="white" stroke="none" points="-4,4 -4,-909 1407.12,-909 1407.12,4 -4,4"/>
<text text-anchor="start" x="1003.62" y="-145.7" font-family="Helvetica,Arial,sans-serif" font-weight="bold" font-size="14.00">Kettlebell Basic Skill Progression &#45; Part 4/4</text>
<text text-anchor="start" x="1003.62" y="-117.7" font-family="Helvetica,Arial,sans-serif" font-size="14.00">Diagram by dznz based on Mark Wildman&#39;s teachings.</text>
<text text-anchor="start" x="1003.62" y="-89.7" font-family="Helvetica,Arial,sans-serif" font-size="14.00">Source: </text>
<text text-anchor="start" x="1056.88" y="-89.7" font-family="Helvetica,Arial,sans-serif" font-weight="bold" font-size="14.00">https://github.com/dznz/wildman&#45;skill&#45;trees</text>
<text text-anchor="start" x="1003.62" y="-61.7" font-family="Helvetica,Arial,sans-serif" font-size="14.00">More by Mark Wildman &#45; </text>
<text text-anchor="start" x="1159.62" y="-61.7" font-family="Helvetica,Arial,sans-serif" font-weight="bold" font-size="14.00">https://www.wildmanathletica.com</text>
<text text-anchor="start" x="1003.62" y="-33.7" font-family="Helvetica,Arial,sans-serif" font-style="italic" font-size="14.00">© 2023. This work is openly licensed with CC BY&#45;NC&#45;SA 4.0</text>
<text text-anchor="start" x="1071.88" y="-19.7" font-family="Helvetica,Arial,sans-serif" font-style="italic" font-size="14.00">http://creativecommons.org/licenses/by&#45;nc&#45;sa/4.0/</text>
<text text-anchor="start" x="1195.62" y="-5.7" font-family="Helvetica,Arial,sans-serif" font-size="14.00"> &#160;</text>
<g id="clust2" class="cluster">
<title>cluster_double</title>
<polygon fill="none" stroke="black" points="141.62,-170 141.62,-775.5 698.62,-775.5 698.62,-170 141.62,-170"/>
<text text-anchor="middle" x="664" y="-758.2" font-family="Helvetica,Arial,sans-serif" font-size="14.00">Doubles</text>
</g>
<g id="clust3" class="cluster">
<title>cluster_snatch</title>
<polygon fill="none" stroke="black" points="865.62,-171.75 865.62,-526.12 1201.62,-526.12 1201.62,-171.75 865.62,-171.75"/>
<text text-anchor="middle" x="1171.88" y="-508.82" font-family="Helvetica,Arial,sans-serif" font-size="14.00">Snatch</text>
</g>
<!-- ext_hc_dblswing -->
<g id="node1" class="node">
<title>ext_hc_dblswing</title>
<path fill="ghostwhite" stroke="lightslategrey" d="M13.5,-549.5C13.5,-549.5 119.75,-549.5 119.75,-549.5 125.75,-549.5 131.75,-555.5 131.75,-561.5 131.75,-561.5 131.75,-573.5 131.75,-573.5 131.75,-579.5 125.75,-585.5 119.75,-585.5 119.75,-585.5 13.5,-585.5 13.5,-585.5 7.5,-585.5 1.5,-579.5 1.5,-573.5 1.5,-573.5 1.5,-561.5 1.5,-561.5 1.5,-555.5 7.5,-549.5 13.5,-549.5"/>
<text text-anchor="middle" x="19.25" y="-562.2" font-family="Times New Roman,serif" font-size="14.00">HC</text>
<polyline fill="none" stroke="lightslategrey" points="37,-549.75 37,-585.5"/>
<text text-anchor="middle" x="84.38" y="-562.2" font-family="Times New Roman,serif" font-size="14.00">Double Swing</text>
</g>
<!-- ext_hc_dblrockit -->
<g id="node2" class="node">
<title>ext_hc_dblrockit</title>
<path fill="ghostwhite" stroke="lightslategrey" d="M12,-457.12C12,-457.12 121.25,-457.12 121.25,-457.12 127.25,-457.12 133.25,-463.12 133.25,-469.12 133.25,-469.12 133.25,-481.12 133.25,-481.12 133.25,-487.12 127.25,-493.12 121.25,-493.12 121.25,-493.12 12,-493.12 12,-493.12 6,-493.12 0,-487.12 0,-481.12 0,-481.12 0,-469.12 0,-469.12 0,-463.12 6,-457.12 12,-457.12"/>
<text text-anchor="middle" x="17.75" y="-469.82" font-family="Times New Roman,serif" font-size="14.00">HC</text>
<polyline fill="none" stroke="lightslategrey" points="35.5,-457.38 35.5,-493.12"/>
<text text-anchor="middle" x="84.38" y="-469.82" font-family="Times New Roman,serif" font-size="14.00">Double Rockit</text>
</g>
<!-- ext_hc_dblswing&#45;&gt;ext_hc_dblrockit -->
<g id="edge1" class="edge">
<title>ext_hc_dblswing&#45;&gt;ext_hc_dblrockit</title>
<path fill="none" stroke="black" d="M66.62,-549.07C66.62,-536.57 66.62,-519.44 66.62,-504.92"/>
<polygon fill="black" stroke="black" points="70.13,-505.01 66.63,-495.01 63.13,-505.01 70.13,-505.01"/>
</g>
<!-- mov_63_dblrockit -->
<g id="node16" class="node">
<title>mov_63_dblrockit</title>
<g id="a_node16"><a xlink:href="https://www.youtube.com/watch?v=zXB6hFrrBkA&amp;list=PLk4oYPJ7TXKhX8YqA2AVrfgs_pEF6p7KA&amp;index=63" xlink:title="{{63|Double Rockit}}">
<path fill="#ffff99" stroke="#b15928" d="M162,-351C162,-351 265.25,-351 265.25,-351 271.25,-351 277.25,-357 277.25,-363 277.25,-363 277.25,-375 277.25,-375 277.25,-381 271.25,-387 265.25,-387 265.25,-387 162,-387 162,-387 156,-387 150,-381 150,-375 150,-375 150,-363 150,-363 150,-357 156,-351 162,-351"/>
<text text-anchor="middle" x="164.75" y="-363.7" font-family="Times New Roman,serif" font-size="14.00">63</text>
<polyline fill="none" stroke="#b15928" points="179.5,-351.25 179.5,-387"/>
<text text-anchor="middle" x="228.38" y="-363.7" font-family="Times New Roman,serif" font-size="14.00">Double Rockit</text>
</a>
</g>
</g>
<!-- ext_hc_dblrockit&#45;&gt;mov_63_dblrockit -->
<g id="edge2" class="edge">
<title>ext_hc_dblrockit&#45;&gt;mov_63_dblrockit</title>
<path fill="none" stroke="black" d="M91.23,-456.7C115.5,-439.5 152.8,-413.09 179.84,-393.93"/>
<polygon fill="black" stroke="black" points="181.57,-397 187.71,-388.36 177.52,-391.28 181.57,-397"/>
</g>
<!-- mov_01_deadlift -->
<g id="node3" class="node">
<title>mov_01_deadlift</title>
<g id="a_node3"><a xlink:href="https://www.youtube.com/watch?v=x0XkmM34BPI&amp;list=PLk4oYPJ7TXKhX8YqA2AVrfgs_pEF6p7KA&amp;index=1" xlink:title="{{KB&#45;01|Two Hand Deadlift}|HIP HINGE}">
<path fill="ghostwhite" stroke="lightslategrey" d="M625.62,-857C625.62,-857 777.62,-857 777.62,-857 783.62,-857 789.62,-863 789.62,-869 789.62,-869 789.62,-892.5 789.62,-892.5 789.62,-898.5 783.62,-904.5 777.62,-904.5 777.62,-904.5 625.62,-904.5 625.62,-904.5 619.62,-904.5 613.62,-898.5 613.62,-892.5 613.62,-892.5 613.62,-869 613.62,-869 613.62,-863 619.62,-857 625.62,-857"/>
<text text-anchor="middle" x="640" y="-887.2" font-family="Times New Roman,serif" font-size="14.00">KB&#45;01</text>
<polyline fill="none" stroke="lightslategrey" points="666.38,-880.75 666.38,-904.5"/>
<text text-anchor="middle" x="728" y="-887.2" font-family="Times New Roman,serif" font-size="14.00">Two Hand Deadlift</text>
<polyline fill="none" stroke="lightslategrey" points="613.62,-880.75 789.62,-880.75"/>
<text text-anchor="middle" x="701.62" y="-863.45" font-family="Times New Roman,serif" font-size="14.00">HIP HINGE</text>
</a>
</g>
</g>
<!-- mov_56_suitcasedl -->
<g id="node9" class="node">
<title>mov_56_suitcasedl</title>
<g id="a_node9"><a xlink:href="https://www.youtube.com/watch?v=d6i6MwVOmk0&amp;list=PLk4oYPJ7TXKhX8YqA2AVrfgs_pEF6p7KA&amp;index=58" xlink:title="{{56|Suitcase Deadlift}}">
<path fill="#ffff99" stroke="#b15928" d="M644,-784C644,-784 759.25,-784 759.25,-784 765.25,-784 771.25,-790 771.25,-796 771.25,-796 771.25,-808 771.25,-808 771.25,-814 765.25,-820 759.25,-820 759.25,-820 644,-820 644,-820 638,-820 632,-814 632,-808 632,-808 632,-796 632,-796 632,-790 638,-784 644,-784"/>
<text text-anchor="middle" x="646.75" y="-796.7" font-family="Times New Roman,serif" font-size="14.00">56</text>
<polyline fill="none" stroke="#b15928" points="661.5,-784.25 661.5,-820"/>
<text text-anchor="middle" x="716.38" y="-796.7" font-family="Times New Roman,serif" font-size="14.00">Suitcase Deadlift</text>
</a>
</g>
</g>
<!-- mov_01_deadlift&#45;&gt;mov_56_suitcasedl -->
<g id="edge10" class="edge">
<title>mov_01_deadlift&#45;&gt;mov_56_suitcasedl</title>
<path fill="none" stroke="black" d="M701.62,-856.72C701.62,-848.89 701.62,-840.04 701.62,-831.81"/>
<polygon fill="black" stroke="black" points="705.13,-831.91 701.63,-821.91 698.13,-831.91 705.13,-831.91"/>
</g>
<!-- mov_10_h2h -->
<g id="node4" class="node">
<title>mov_10_h2h</title>
<g id="a_node4"><a xlink:href="https://www.youtube.com/watch?v=0Uk0Rdm3QFs&amp;list=PLk4oYPJ7TXKhX8YqA2AVrfgs_pEF6p7KA&amp;index=10" xlink:title="{{KB&#45;10|Hand to Hand\nTransition}}">
<path fill="ghostwhite" stroke="lightslategrey" d="M896.88,-628.25C896.88,-628.25 1020.38,-628.25 1020.38,-628.25 1026.38,-628.25 1032.38,-634.25 1032.38,-640.25 1032.38,-640.25 1032.38,-655.75 1032.38,-655.75 1032.38,-661.75 1026.38,-667.75 1020.38,-667.75 1020.38,-667.75 896.88,-667.75 896.88,-667.75 890.88,-667.75 884.88,-661.75 884.88,-655.75 884.88,-655.75 884.88,-640.25 884.88,-640.25 884.88,-634.25 890.88,-628.25 896.88,-628.25"/>
<text text-anchor="middle" x="911.25" y="-642.58" font-family="Times New Roman,serif" font-size="14.00">KB&#45;10</text>
<polyline fill="none" stroke="lightslategrey" points="937.62,-628.25 937.62,-667.75"/>
<text text-anchor="middle" x="985" y="-650.45" font-family="Times New Roman,serif" font-size="14.00">Hand to Hand</text>
<text text-anchor="middle" x="985" y="-634.7" font-family="Times New Roman,serif" font-size="14.00">Transition</text>
</a>
</g>
</g>
<!-- mov_60_dblswing -->
<g id="node13" class="node">
<title>mov_60_dblswing</title>
<g id="a_node13"><a xlink:href="https://www.youtube.com/watch?v=P5IFTJySA_s&amp;list=PLk4oYPJ7TXKhX8YqA2AVrfgs_pEF6p7KA&amp;index=61" xlink:title="{{60|Double Swing}}">
<path fill="#ffff99" stroke="#b15928" d="M553.5,-549.5C553.5,-549.5 653.75,-549.5 653.75,-549.5 659.75,-549.5 665.75,-555.5 665.75,-561.5 665.75,-561.5 665.75,-573.5 665.75,-573.5 665.75,-579.5 659.75,-585.5 653.75,-585.5 653.75,-585.5 553.5,-585.5 553.5,-585.5 547.5,-585.5 541.5,-579.5 541.5,-573.5 541.5,-573.5 541.5,-561.5 541.5,-561.5 541.5,-555.5 547.5,-549.5 553.5,-549.5"/>
<text text-anchor="middle" x="556.25" y="-562.2" font-family="Times New Roman,serif" font-size="14.00">60</text>
<polyline fill="none" stroke="#b15928" points="571,-549.75 571,-585.5"/>
<text text-anchor="middle" x="618.38" y="-562.2" font-family="Times New Roman,serif" font-size="14.00">Double Swing</text>
</a>
</g>
</g>
<!-- mov_10_h2h&#45;&gt;mov_60_dblswing -->
<g id="edge3" class="edge">
<title>mov_10_h2h&#45;&gt;mov_60_dblswing</title>
<path fill="none" stroke="black" d="M884.42,-629.74C881.45,-629.06 878.51,-628.4 875.62,-627.75 808.46,-612.65 731.83,-596.01 677.06,-584.22"/>
<polygon fill="black" stroke="black" points="678.06,-580.85 667.55,-582.17 676.59,-587.7 678.06,-580.85"/>
</g>
<!-- mov_12_clean -->
<g id="node5" class="node">
<title>mov_12_clean</title>
<g id="a_node5"><a xlink:href="https://www.youtube.com/watch?v=_nIsSXWs5iU&amp;list=PLk4oYPJ7TXKhX8YqA2AVrfgs_pEF6p7KA&amp;index=12" xlink:title="KB&#45;12|Swing Clean">
<path fill="ghostwhite" stroke="lightslategrey" d="M1062.38,-630C1062.38,-630 1176.88,-630 1176.88,-630 1182.88,-630 1188.88,-636 1188.88,-642 1188.88,-642 1188.88,-654 1188.88,-654 1188.88,-660 1182.88,-666 1176.88,-666 1176.88,-666 1062.38,-666 1062.38,-666 1056.38,-666 1050.38,-660 1050.38,-654 1050.38,-654 1050.38,-642 1050.38,-642 1050.38,-636 1056.38,-630 1062.38,-630"/>
<text text-anchor="middle" x="1076.75" y="-642.58" font-family="Times New Roman,serif" font-size="14.00">KB&#45;12</text>
<polyline fill="none" stroke="lightslategrey" points="1103.12,-630 1103.12,-666"/>
<text text-anchor="middle" x="1146" y="-642.58" font-family="Times New Roman,serif" font-size="14.00">Swing Clean</text>
</a>
</g>
</g>
<!-- mov_16_startstopclean -->
<g id="node6" class="node">
<title>mov_16_startstopclean</title>
<g id="a_node6"><a xlink:href="https://www.youtube.com/watch?v=XbK3jxI0WNQ&amp;list=PLk4oYPJ7TXKhX8YqA2AVrfgs_pEF6p7KA&amp;index=16" xlink:title="{{KB&#45;16|Start Stop Clean}|START &amp; END CLEAN}">
<path fill="ghostwhite" stroke="lightslategrey" d="M878.12,-543.75C878.12,-543.75 1015.12,-543.75 1015.12,-543.75 1021.12,-543.75 1027.12,-549.75 1027.12,-555.75 1027.12,-555.75 1027.12,-579.25 1027.12,-579.25 1027.12,-585.25 1021.12,-591.25 1015.12,-591.25 1015.12,-591.25 878.12,-591.25 878.12,-591.25 872.12,-591.25 866.12,-585.25 866.12,-579.25 866.12,-579.25 866.12,-555.75 866.12,-555.75 866.12,-549.75 872.12,-543.75 878.12,-543.75"/>
<text text-anchor="middle" x="892.5" y="-573.95" font-family="Times New Roman,serif" font-size="14.00">KB&#45;16</text>
<polyline fill="none" stroke="lightslategrey" points="918.88,-567.5 918.88,-591.25"/>
<text text-anchor="middle" x="973" y="-573.95" font-family="Times New Roman,serif" font-size="14.00">Start Stop Clean</text>
<polyline fill="none" stroke="lightslategrey" points="866.12,-567.5 1027.12,-567.5"/>
<text text-anchor="middle" x="946.62" y="-550.2" font-family="Times New Roman,serif" font-size="14.00">START &amp; END CLEAN</text>
</a>
</g>
</g>
<!-- mov_12_clean&#45;&gt;mov_16_startstopclean -->
<g id="edge4" class="edge">
<title>mov_12_clean&#45;&gt;mov_16_startstopclean</title>
<path fill="none" stroke="black" d="M1081.23,-629.58C1059.72,-619.82 1032.38,-607.41 1007.97,-596.34"/>
<polygon fill="black" stroke="black" points="1009.65,-593.25 999.09,-592.31 1006.75,-599.63 1009.65,-593.25"/>
</g>
<!-- mov_17_cap -->
<g id="node7" class="node">
<title>mov_17_cap</title>
<g id="a_node7"><a xlink:href="https://www.youtube.com/watch?v=SSxB3m5qRas&amp;list=PLk4oYPJ7TXKhX8YqA2AVrfgs_pEF6p7KA&amp;index=17" xlink:title="KB&#45;17|Clean &amp; Press">
<path fill="ghostwhite" stroke="lightslategrey" d="M1056.75,-549.5C1056.75,-549.5 1182.5,-549.5 1182.5,-549.5 1188.5,-549.5 1194.5,-555.5 1194.5,-561.5 1194.5,-561.5 1194.5,-573.5 1194.5,-573.5 1194.5,-579.5 1188.5,-585.5 1182.5,-585.5 1182.5,-585.5 1056.75,-585.5 1056.75,-585.5 1050.75,-585.5 1044.75,-579.5 1044.75,-573.5 1044.75,-573.5 1044.75,-561.5 1044.75,-561.5 1044.75,-555.5 1050.75,-549.5 1056.75,-549.5"/>
<text text-anchor="middle" x="1071.12" y="-562.08" font-family="Times New Roman,serif" font-size="14.00">KB&#45;17</text>
<polyline fill="none" stroke="lightslategrey" points="1097.5,-549.5 1097.5,-585.5"/>
<text text-anchor="middle" x="1146" y="-562.08" font-family="Times New Roman,serif" font-size="14.00">Clean &amp; Press</text>
</a>
</g>
</g>
<!-- mov_12_clean&#45;&gt;mov_17_cap -->
<g id="edge5" class="edge">
<title>mov_12_clean&#45;&gt;mov_17_cap</title>
<path fill="none" stroke="black" d="M1119.62,-629.58C1119.62,-620.02 1119.62,-607.94 1119.62,-597.05"/>
<polygon fill="black" stroke="black" points="1123.13,-597.39 1119.63,-587.39 1116.13,-597.39 1123.13,-597.39"/>
</g>
<!-- mov_59_halfsnatchdown -->
<g id="node12" class="node">
<title>mov_59_halfsnatchdown</title>
<g id="a_node12"><a xlink:href="https://www.youtube.com/watch?v=u2NbMtX_Rb0&amp;list=PLk4oYPJ7TXKhX8YqA2AVrfgs_pEF6p7KA&amp;index=60" xlink:title="{{59|Half Snatch Down}}">
<path fill="#ffff99" stroke="#b15928" d="M886.5,-457.12C886.5,-457.12 1010.75,-457.12 1010.75,-457.12 1016.75,-457.12 1022.75,-463.12 1022.75,-469.12 1022.75,-469.12 1022.75,-481.12 1022.75,-481.12 1022.75,-487.12 1016.75,-493.12 1010.75,-493.12 1010.75,-493.12 886.5,-493.12 886.5,-493.12 880.5,-493.12 874.5,-487.12 874.5,-481.12 874.5,-481.12 874.5,-469.12 874.5,-469.12 874.5,-463.12 880.5,-457.12 886.5,-457.12"/>
<text text-anchor="middle" x="889.25" y="-469.82" font-family="Times New Roman,serif" font-size="14.00">59</text>
<polyline fill="none" stroke="#b15928" points="904,-457.38 904,-493.12"/>
<text text-anchor="middle" x="963.38" y="-469.82" font-family="Times New Roman,serif" font-size="14.00">Half Snatch Down</text>
</a>
</g>
</g>
<!-- mov_16_startstopclean&#45;&gt;mov_59_halfsnatchdown -->
<g id="edge8" class="edge">
<title>mov_16_startstopclean&#45;&gt;mov_59_halfsnatchdown</title>
<path fill="none" stroke="black" d="M947.13,-543.69C947.39,-531.89 947.71,-517.35 947.99,-504.79"/>
<polygon fill="black" stroke="black" points="951.48,-505.09 948.21,-495.02 944.49,-504.94 951.48,-505.09"/>
</g>
<!-- mov_62_dblclean -->
<g id="node15" class="node">
<title>mov_62_dblclean</title>
<g id="a_node15"><a xlink:href="https://www.youtube.com/watch?v=Qe9ejhAtdGY&amp;list=PLk4oYPJ7TXKhX8YqA2AVrfgs_pEF6p7KA&amp;index=62" xlink:title="{{62|Double Clean}}">
<path fill="#ffff99" stroke="#b15928" d="M555,-457.12C555,-457.12 652.25,-457.12 652.25,-457.12 658.25,-457.12 664.25,-463.12 664.25,-469.12 664.25,-469.12 664.25,-481.12 664.25,-481.12 664.25,-487.12 658.25,-493.12 652.25,-493.12 652.25,-493.12 555,-493.12 555,-493.12 549,-493.12 543,-487.12 543,-481.12 543,-481.12 543,-469.12 543,-469.12 543,-463.12 549,-457.12 555,-457.12"/>
<text text-anchor="middle" x="557.75" y="-469.82" font-family="Times New Roman,serif" font-size="14.00">62</text>
<polyline fill="none" stroke="#b15928" points="572.5,-457.38 572.5,-493.12"/>
<text text-anchor="middle" x="618.38" y="-469.82" font-family="Times New Roman,serif" font-size="14.00">Double Clean</text>
</a>
</g>
</g>
<!-- mov_16_startstopclean&#45;&gt;mov_62_dblclean -->
<g id="edge7" class="edge">
<title>mov_16_startstopclean&#45;&gt;mov_62_dblclean</title>
<path fill="none" stroke="black" d="M865.67,-560.15C816.17,-554.61 752.1,-544.47 697.62,-526.12 677.71,-519.42 656.94,-508.81 640.01,-499.08"/>
<polygon fill="black" stroke="black" points="642.22,-496.32 631.82,-494.26 638.67,-502.35 642.22,-496.32"/>
</g>
<!-- mov_19_startstopcap -->
<g id="node8" class="node">
<title>mov_19_startstopcap</title>
<g id="a_node8"><a xlink:href="https://www.youtube.com/watch?v=dSj3kqbuois&amp;list=PLk4oYPJ7TXKhX8YqA2AVrfgs_pEF6p7KA&amp;index=19" xlink:title="{{KB&#45;19|Start Stop\nClean &amp; Press}|START &amp; END C&amp;P}">
<path fill="ghostwhite" stroke="lightslategrey" d="M718.75,-443.5C718.75,-443.5 844.5,-443.5 844.5,-443.5 850.5,-443.5 856.5,-449.5 856.5,-455.5 856.5,-455.5 856.5,-494.75 856.5,-494.75 856.5,-500.75 850.5,-506.75 844.5,-506.75 844.5,-506.75 718.75,-506.75 718.75,-506.75 712.75,-506.75 706.75,-500.75 706.75,-494.75 706.75,-494.75 706.75,-455.5 706.75,-455.5 706.75,-449.5 712.75,-443.5 718.75,-443.5"/>
<text text-anchor="middle" x="733.12" y="-481.57" font-family="Times New Roman,serif" font-size="14.00">KB&#45;19</text>
<polyline fill="none" stroke="lightslategrey" points="759.5,-467.25 759.5,-506.75"/>
<text text-anchor="middle" x="808" y="-489.45" font-family="Times New Roman,serif" font-size="14.00">Start Stop</text>
<text text-anchor="middle" x="808" y="-473.7" font-family="Times New Roman,serif" font-size="14.00">Clean &amp; Press</text>
<polyline fill="none" stroke="lightslategrey" points="706.75,-467.25 856.5,-467.25"/>
<text text-anchor="middle" x="781.62" y="-449.95" font-family="Times New Roman,serif" font-size="14.00">START &amp; END C&amp;P</text>
</a>
</g>
</g>
<!-- mov_17_cap&#45;&gt;mov_19_startstopcap -->
<g id="edge6" class="edge">
<title>mov_17_cap&#45;&gt;mov_19_startstopcap</title>
<path fill="none" stroke="black" d="M1062.33,-549.04C1053.77,-546.85 1045.01,-544.82 1036.62,-543.25 959.81,-528.85 935.61,-551.31 861.62,-526.12 851.95,-522.83 842.23,-518.17 833.07,-513.01"/>
<polygon fill="black" stroke="black" points="835.07,-510.12 824.68,-508.02 831.49,-516.14 835.07,-510.12"/>
</g>
<!-- mov_65_dblcap -->
<g id="node18" class="node">
<title>mov_65_dblcap</title>
<g id="a_node18"><a xlink:href="https://www.youtube.com/watch?v=RizGV8ef--s" xlink:title="{{65|Double\nClean &amp; Press}}">
<path fill="#ffff99" stroke="#b15928" d="M576.38,-349.25C576.38,-349.25 678.88,-349.25 678.88,-349.25 684.88,-349.25 690.88,-355.25 690.88,-361.25 690.88,-361.25 690.88,-376.75 690.88,-376.75 690.88,-382.75 684.88,-388.75 678.88,-388.75 678.88,-388.75 576.38,-388.75 576.38,-388.75 570.38,-388.75 564.38,-382.75 564.38,-376.75 564.38,-376.75 564.38,-361.25 564.38,-361.25 564.38,-355.25 570.38,-349.25 576.38,-349.25"/>
<text text-anchor="middle" x="579.12" y="-363.57" font-family="Times New Roman,serif" font-size="14.00">65</text>
<polyline fill="none" stroke="#b15928" points="593.88,-349.25 593.88,-388.75"/>
<text text-anchor="middle" x="642.38" y="-371.45" font-family="Times New Roman,serif" font-size="14.00">Double</text>
<text text-anchor="middle" x="642.38" y="-355.7" font-family="Times New Roman,serif" font-size="14.00">Clean &amp; Press</text>
</a>
</g>
</g>
<!-- mov_19_startstopcap&#45;&gt;mov_65_dblcap -->
<g id="edge9" class="edge">
<title>mov_19_startstopcap&#45;&gt;mov_65_dblcap</title>
<path fill="none" stroke="black" d="M735.84,-443.17C713.39,-427.99 686.67,-409.92 665.41,-395.55"/>
<polygon fill="black" stroke="black" points="667.55,-392.77 657.31,-390.07 663.63,-398.57 667.55,-392.77"/>
</g>
<!-- mov_57_dblsuitcase -->
<g id="node10" class="node">
<title>mov_57_dblsuitcase</title>
<g id="a_node10"><a xlink:href="https://www.youtube.com/watch?v=4PSOSrDcGfc&amp;list=PLk4oYPJ7TXKhX8YqA2AVrfgs_pEF6p7KA&amp;index=59" xlink:title="{{57|Double Suitcase}}">
<path fill="#ffff99" stroke="#b15928" d="M556.5,-706.5C556.5,-706.5 668.75,-706.5 668.75,-706.5 674.75,-706.5 680.75,-712.5 680.75,-718.5 680.75,-718.5 680.75,-730.5 680.75,-730.5 680.75,-736.5 674.75,-742.5 668.75,-742.5 668.75,-742.5 556.5,-742.5 556.5,-742.5 550.5,-742.5 544.5,-736.5 544.5,-730.5 544.5,-730.5 544.5,-718.5 544.5,-718.5 544.5,-712.5 550.5,-706.5 556.5,-706.5"/>
<text text-anchor="middle" x="559.25" y="-719.2" font-family="Times New Roman,serif" font-size="14.00">57</text>
<polyline fill="none" stroke="#b15928" points="574,-706.75 574,-742.5"/>
<text text-anchor="middle" x="627.38" y="-719.2" font-family="Times New Roman,serif" font-size="14.00">Double Suitcase</text>
</a>
</g>
</g>
<!-- mov_56_suitcasedl&#45;&gt;mov_57_dblsuitcase -->
<g id="edge11" class="edge">
<title>mov_56_suitcasedl&#45;&gt;mov_57_dblsuitcase</title>
<path fill="none" stroke="black" d="M681.43,-783.87C669.68,-773.9 654.67,-761.16 641.66,-750.13"/>
<polygon fill="black" stroke="black" points="644.09,-747.6 634.2,-743.8 639.56,-752.94 644.09,-747.6"/>
</g>
<!-- mov_73_2hsbldl -->
<g id="node25" class="node">
<title>mov_73_2hsbldl</title>
<g id="a_node25"><a xlink:href="https://www.youtube.com/watch?v=-RD1qqe7P8M" xlink:title="{{73|Two Hand Single\nBent Leg Deadlift}}">
<path fill="#ffff99" stroke="#b15928" d="M723.12,-704.75C723.12,-704.75 842.12,-704.75 842.12,-704.75 848.12,-704.75 854.12,-710.75 854.12,-716.75 854.12,-716.75 854.12,-732.25 854.12,-732.25 854.12,-738.25 848.12,-744.25 842.12,-744.25 842.12,-744.25 723.12,-744.25 723.12,-744.25 717.12,-744.25 711.12,-738.25 711.12,-732.25 711.12,-732.25 711.12,-716.75 711.12,-716.75 711.12,-710.75 717.12,-704.75 723.12,-704.75"/>
<text text-anchor="middle" x="725.88" y="-719.08" font-family="Times New Roman,serif" font-size="14.00">73</text>
<polyline fill="none" stroke="#b15928" points="740.62,-704.75 740.62,-744.25"/>
<text text-anchor="middle" x="797.38" y="-726.95" font-family="Times New Roman,serif" font-size="14.00">Two Hand Single</text>
<text text-anchor="middle" x="797.38" y="-711.2" font-family="Times New Roman,serif" font-size="14.00">Bent Leg Deadlift</text>
</a>
</g>
</g>
<!-- mov_56_suitcasedl&#45;&gt;mov_73_2hsbldl -->
<g id="edge12" class="edge">
<title>mov_56_suitcasedl&#45;&gt;mov_73_2hsbldl</title>
<path fill="none" stroke="black" d="M720.01,-783.87C729.97,-774.58 742.52,-762.88 753.76,-752.4"/>
<polygon fill="black" stroke="black" points="756,-755.1 760.93,-745.72 751.23,-749.98 756,-755.1"/>
</g>
<!-- mov_58_dblsumodl -->
<g id="node11" class="node">
<title>mov_58_dblsumodl</title>
<g id="a_node11"><a xlink:href="https://www.youtube.com/watch?v=gdutIla6nMw" xlink:title="{{58|Double Sumo Deadlift}}">
<path fill="#ffff99" stroke="#b15928" d="M530.62,-630C530.62,-630 676.62,-630 676.62,-630 682.62,-630 688.62,-636 688.62,-642 688.62,-642 688.62,-654 688.62,-654 688.62,-660 682.62,-666 676.62,-666 676.62,-666 530.62,-666 530.62,-666 524.62,-666 518.62,-660 518.62,-654 518.62,-654 518.62,-642 518.62,-642 518.62,-636 524.62,-630 530.62,-630"/>
<text text-anchor="middle" x="533.38" y="-642.7" font-family="Times New Roman,serif" font-size="14.00">58</text>
<polyline fill="none" stroke="#b15928" points="548.12,-630.25 548.12,-666"/>
<text text-anchor="middle" x="618.38" y="-642.7" font-family="Times New Roman,serif" font-size="14.00">Double Sumo Deadlift</text>
</a>
</g>
</g>
<!-- mov_57_dblsuitcase&#45;&gt;mov_58_dblsumodl -->
<g id="edge15" class="edge">
<title>mov_57_dblsuitcase&#45;&gt;mov_58_dblsumodl</title>
<path fill="none" stroke="black" d="M610.54,-706.22C609.51,-697.73 608.25,-687.26 607.08,-677.62"/>
<polygon fill="black" stroke="black" points="610.59,-677.45 605.91,-667.95 603.64,-678.29 610.59,-677.45"/>
</g>
<!-- mov_58_dblsumodl&#45;&gt;mov_60_dblswing -->
<g id="edge21" class="edge">
<title>mov_58_dblsumodl&#45;&gt;mov_60_dblswing</title>
<path fill="none" stroke="black" d="M603.62,-629.58C603.62,-620.02 603.62,-607.94 603.62,-597.05"/>
<polygon fill="black" stroke="black" points="607.13,-597.39 603.63,-587.39 600.13,-597.39 607.13,-597.39"/>
</g>
<!-- mov_61_halfsnatchup -->
<g id="node14" class="node">
<title>mov_61_halfsnatchup</title>
<g id="a_node14"><a xlink:href="https://www.youtube.com/watch?v=3HEmUyLYjjc" xlink:title="{{61|Half Snatch Up}}">
<path fill="#ffff99" stroke="#b15928" d="M894.75,-351C894.75,-351 1002.5,-351 1002.5,-351 1008.5,-351 1014.5,-357 1014.5,-363 1014.5,-363 1014.5,-375 1014.5,-375 1014.5,-381 1008.5,-387 1002.5,-387 1002.5,-387 894.75,-387 894.75,-387 888.75,-387 882.75,-381 882.75,-375 882.75,-375 882.75,-363 882.75,-363 882.75,-357 888.75,-351 894.75,-351"/>
<text text-anchor="middle" x="897.5" y="-363.7" font-family="Times New Roman,serif" font-size="14.00">61</text>
<polyline fill="none" stroke="#b15928" points="912.25,-351.25 912.25,-387"/>
<text text-anchor="middle" x="963.38" y="-363.7" font-family="Times New Roman,serif" font-size="14.00">Half Snatch Up</text>
</a>
</g>
</g>
<!-- mov_59_halfsnatchdown&#45;&gt;mov_61_halfsnatchup -->
<g id="edge25" class="edge">
<title>mov_59_halfsnatchdown&#45;&gt;mov_61_halfsnatchup</title>
<path fill="none" stroke="black" d="M948.62,-456.93C948.62,-441.1 948.62,-417.32 948.62,-398.63"/>
<polygon fill="black" stroke="black" points="952.13,-398.73 948.63,-388.73 945.13,-398.73 952.13,-398.73"/>
</g>
<!-- mov_60_dblswing&#45;&gt;mov_62_dblclean -->
<g id="edge16" class="edge">
<title>mov_60_dblswing&#45;&gt;mov_62_dblclean</title>
<path fill="none" stroke="black" d="M603.62,-549.07C603.62,-536.57 603.62,-519.44 603.62,-504.92"/>
<polygon fill="black" stroke="black" points="607.13,-505.01 603.63,-495.01 600.13,-505.01 607.13,-505.01"/>
</g>
<!-- mov_64_dbloutswing -->
<g id="node17" class="node">
<title>mov_64_dbloutswing</title>
<g id="a_node17"><a xlink:href="https://www.youtube.com/watch?v=yr_fRgGevsE" xlink:title="{{64|Double\nOutside Swing}}">
<path fill="#ffff99" stroke="#b15928" d="M287,-455.38C287,-455.38 390.25,-455.38 390.25,-455.38 396.25,-455.38 402.25,-461.38 402.25,-467.38 402.25,-467.38 402.25,-482.88 402.25,-482.88 402.25,-488.88 396.25,-494.88 390.25,-494.88 390.25,-494.88 287,-494.88 287,-494.88 281,-494.88 275,-488.88 275,-482.88 275,-482.88 275,-467.38 275,-467.38 275,-461.38 281,-455.38 287,-455.38"/>
<text text-anchor="middle" x="289.75" y="-469.7" font-family="Times New Roman,serif" font-size="14.00">64</text>
<polyline fill="none" stroke="#b15928" points="304.5,-455.38 304.5,-494.88"/>
<text text-anchor="middle" x="353.38" y="-477.57" font-family="Times New Roman,serif" font-size="14.00">Double</text>
<text text-anchor="middle" x="353.38" y="-461.82" font-family="Times New Roman,serif" font-size="14.00">Outside Swing</text>
</a>
</g>
</g>
<!-- mov_60_dblswing&#45;&gt;mov_64_dbloutswing -->
<g id="edge22" class="edge">
<title>mov_60_dblswing&#45;&gt;mov_64_dbloutswing</title>
<path fill="none" stroke="black" d="M552.53,-549.07C510.76,-534.83 451.36,-514.57 405.75,-499.02"/>
<polygon fill="black" stroke="black" points="407.09,-495.78 396.5,-495.86 404.84,-502.4 407.09,-495.78"/>
</g>
<!-- mov_66_snatch -->
<g id="node19" class="node">
<title>mov_66_snatch</title>
<g id="a_node19"><a xlink:href="https://www.youtube.com/watch?v=f-zkPiAlpQw&amp;list=PLk4oYPJ7TXKhX8YqA2AVrfgs_pEF6p7KA&amp;index=65" xlink:title="{{66|Full Snatch}}">
<path fill="#ffff99" stroke="#b15928" d="M906.38,-256.75C906.38,-256.75 990.88,-256.75 990.88,-256.75 996.88,-256.75 1002.88,-262.75 1002.88,-268.75 1002.88,-268.75 1002.88,-280.75 1002.88,-280.75 1002.88,-286.75 996.88,-292.75 990.88,-292.75 990.88,-292.75 906.38,-292.75 906.38,-292.75 900.38,-292.75 894.38,-286.75 894.38,-280.75 894.38,-280.75 894.38,-268.75 894.38,-268.75 894.38,-262.75 900.38,-256.75 906.38,-256.75"/>
<text text-anchor="middle" x="909.12" y="-269.45" font-family="Times New Roman,serif" font-size="14.00">66</text>
<polyline fill="none" stroke="#b15928" points="923.88,-257 923.88,-292.75"/>
<text text-anchor="middle" x="963.38" y="-269.45" font-family="Times New Roman,serif" font-size="14.00">Full Snatch</text>
</a>
</g>
</g>
<!-- mov_61_halfsnatchup&#45;&gt;mov_66_snatch -->
<g id="edge26" class="edge">
<title>mov_61_halfsnatchup&#45;&gt;mov_66_snatch</title>
<path fill="none" stroke="black" d="M948.62,-350.65C948.62,-337.63 948.62,-319.53 948.62,-304.38"/>
<polygon fill="black" stroke="black" points="952.13,-304.54 948.63,-294.54 945.13,-304.54 952.13,-304.54"/>
</g>
<!-- mov_62_dblclean&#45;&gt;mov_65_dblcap -->
<g id="edge17" class="edge">
<title>mov_62_dblclean&#45;&gt;mov_65_dblcap</title>
<path fill="none" stroke="black" d="M607.59,-456.93C611.14,-441.51 616.44,-418.52 620.7,-400.06"/>
<polygon fill="black" stroke="black" points="624.07,-400.99 622.91,-390.46 617.25,-399.42 624.07,-400.99"/>
</g>
<!-- mov_67_dblsquat -->
<g id="node20" class="node">
<title>mov_67_dblsquat</title>
<g id="a_node20"><a xlink:href="https://www.youtube.com/watch?v=dX5yXJa5Dm0&amp;list=PLk4oYPJ7TXKhX8YqA2AVrfgs_pEF6p7KA&amp;index=66" xlink:title="{{67|Double\nFront Squat}}">
<path fill="#ffff99" stroke="#b15928" d="M446.5,-349.25C446.5,-349.25 534.75,-349.25 534.75,-349.25 540.75,-349.25 546.75,-355.25 546.75,-361.25 546.75,-361.25 546.75,-376.75 546.75,-376.75 546.75,-382.75 540.75,-388.75 534.75,-388.75 534.75,-388.75 446.5,-388.75 446.5,-388.75 440.5,-388.75 434.5,-382.75 434.5,-376.75 434.5,-376.75 434.5,-361.25 434.5,-361.25 434.5,-355.25 440.5,-349.25 446.5,-349.25"/>
<text text-anchor="middle" x="449.25" y="-363.57" font-family="Times New Roman,serif" font-size="14.00">67</text>
<polyline fill="none" stroke="#b15928" points="464,-349.25 464,-388.75"/>
<text text-anchor="middle" x="505.38" y="-371.45" font-family="Times New Roman,serif" font-size="14.00">Double</text>
<text text-anchor="middle" x="505.38" y="-355.7" font-family="Times New Roman,serif" font-size="14.00">Front Squat</text>
</a>
</g>
</g>
<!-- mov_62_dblclean&#45;&gt;mov_67_dblsquat -->
<g id="edge18" class="edge">
<title>mov_62_dblclean&#45;&gt;mov_67_dblsquat</title>
<path fill="none" stroke="black" d="M584.71,-456.7C566.9,-440.28 539.97,-415.47 519.47,-396.58"/>
<polygon fill="black" stroke="black" points="521.97,-394.12 512.24,-389.92 517.23,-399.27 521.97,-394.12"/>
</g>
<!-- mov_71_deaddblclean -->
<g id="node24" class="node">
<title>mov_71_deaddblclean</title>
<g id="a_node24"><a xlink:href="https://www.youtube.com/watch?v=22bKQqMqAQY" xlink:title="{{71|Dead Stop\nDouble Clean}}">
<path fill="#ffff99" stroke="#b15928" d="M307,-349.25C307,-349.25 404.25,-349.25 404.25,-349.25 410.25,-349.25 416.25,-355.25 416.25,-361.25 416.25,-361.25 416.25,-376.75 416.25,-376.75 416.25,-382.75 410.25,-388.75 404.25,-388.75 404.25,-388.75 307,-388.75 307,-388.75 301,-388.75 295,-382.75 295,-376.75 295,-376.75 295,-361.25 295,-361.25 295,-355.25 301,-349.25 307,-349.25"/>
<text text-anchor="middle" x="309.75" y="-363.57" font-family="Times New Roman,serif" font-size="14.00">71</text>
<polyline fill="none" stroke="#b15928" points="324.5,-349.25 324.5,-388.75"/>
<text text-anchor="middle" x="370.38" y="-371.45" font-family="Times New Roman,serif" font-size="14.00">Dead Stop</text>
<text text-anchor="middle" x="370.38" y="-355.7" font-family="Times New Roman,serif" font-size="14.00">Double Clean</text>
</a>
</g>
</g>
<!-- mov_62_dblclean&#45;&gt;mov_71_deaddblclean -->
<g id="edge20" class="edge">
<title>mov_62_dblclean&#45;&gt;mov_71_deaddblclean</title>
<path fill="none" stroke="black" d="M552.3,-456.7C516.36,-444.03 467.48,-425.86 425.62,-407 417.16,-403.19 408.29,-398.81 399.82,-394.43"/>
<polygon fill="black" stroke="black" points="401.55,-391.39 391.07,-389.83 398.3,-397.58 401.55,-391.39"/>
</g>
<!-- mov_64_dbloutswing&#45;&gt;mov_63_dblrockit -->
<g id="edge14" class="edge">
<title>mov_64_dbloutswing&#45;&gt;mov_63_dblrockit</title>
<path fill="none" stroke="black" d="M315.7,-455.03C295.26,-438 265.22,-412.98 243.02,-394.48"/>
<polygon fill="black" stroke="black" points="245.42,-391.93 235.49,-388.22 240.94,-397.31 245.42,-391.93"/>
</g>
<!-- mov_76_dblhangcap -->
<g id="node28" class="node">
<title>mov_76_dblhangcap</title>
<g id="a_node28"><a xlink:href="https://www.youtube.com/watch?v=ieDA4V9WGNQ" xlink:title="{{76|Double Dead Hang\nClean &amp; Press}}">
<path fill="#ffff99" stroke="#b15928" d="M550.62,-255C550.62,-255 678.62,-255 678.62,-255 684.62,-255 690.62,-261 690.62,-267 690.62,-267 690.62,-282.5 690.62,-282.5 690.62,-288.5 684.62,-294.5 678.62,-294.5 678.62,-294.5 550.62,-294.5 550.62,-294.5 544.62,-294.5 538.62,-288.5 538.62,-282.5 538.62,-282.5 538.62,-267 538.62,-267 538.62,-261 544.62,-255 550.62,-255"/>
<text text-anchor="middle" x="553.38" y="-269.32" font-family="Times New Roman,serif" font-size="14.00">76</text>
<polyline fill="none" stroke="#b15928" points="568.12,-255 568.12,-294.5"/>
<text text-anchor="middle" x="629.38" y="-277.2" font-family="Times New Roman,serif" font-size="14.00">Double Dead Hang</text>
<text text-anchor="middle" x="629.38" y="-261.45" font-family="Times New Roman,serif" font-size="14.00">Clean &amp; Press</text>
</a>
</g>
</g>
<!-- mov_65_dblcap&#45;&gt;mov_76_dblhangcap -->
<g id="edge24" class="edge">
<title>mov_65_dblcap&#45;&gt;mov_76_dblhangcap</title>
<path fill="none" stroke="black" d="M624.93,-348.89C623.19,-336.52 620.88,-320.15 618.89,-306.03"/>
<polygon fill="black" stroke="black" points="622.39,-305.75 617.53,-296.34 615.46,-306.73 622.39,-305.75"/>
</g>
<!-- mov_69_snatchpress -->
<g id="node22" class="node">
<title>mov_69_snatchpress</title>
<g id="a_node22"><a xlink:href="https://www.youtube.com/watch?v=IzFPa_Q1yHM&amp;list=PLk4oYPJ7TXKhX8YqA2AVrfgs_pEF6p7KA&amp;index=67" xlink:title="{{69|Snatch Press}}">
<path fill="#ffff99" stroke="#b15928" d="M885.5,-180.25C885.5,-180.25 979.75,-180.25 979.75,-180.25 985.75,-180.25 991.75,-186.25 991.75,-192.25 991.75,-192.25 991.75,-204.25 991.75,-204.25 991.75,-210.25 985.75,-216.25 979.75,-216.25 979.75,-216.25 885.5,-216.25 885.5,-216.25 879.5,-216.25 873.5,-210.25 873.5,-204.25 873.5,-204.25 873.5,-192.25 873.5,-192.25 873.5,-186.25 879.5,-180.25 885.5,-180.25"/>
<text text-anchor="middle" x="888.25" y="-192.95" font-family="Times New Roman,serif" font-size="14.00">69</text>
<polyline fill="none" stroke="#b15928" points="903,-180.5 903,-216.25"/>
<text text-anchor="middle" x="947.38" y="-192.95" font-family="Times New Roman,serif" font-size="14.00">Snatch Press</text>
</a>
</g>
</g>
<!-- mov_66_snatch&#45;&gt;mov_69_snatchpress -->
<g id="edge27" class="edge">
<title>mov_66_snatch&#45;&gt;mov_69_snatchpress</title>
<path fill="none" stroke="black" d="M944.91,-256.47C943.09,-247.98 940.84,-237.51 938.77,-227.87"/>
<polygon fill="black" stroke="black" points="942.21,-227.22 936.69,-218.17 935.37,-228.69 942.21,-227.22"/>
</g>
<!-- mov_70_kneelsnatchup -->
<g id="node23" class="node">
<title>mov_70_kneelsnatchup</title>
<g id="a_node23"><a xlink:href="https://www.youtube.com/watch?v=1_UrK5SopL4" xlink:title="{{70|Half&#45;Kneeling Snatch Up}}">
<path fill="#ffff99" stroke="#b15928" d="M1021.5,-180.25C1021.5,-180.25 1181.75,-180.25 1181.75,-180.25 1187.75,-180.25 1193.75,-186.25 1193.75,-192.25 1193.75,-192.25 1193.75,-204.25 1193.75,-204.25 1193.75,-210.25 1187.75,-216.25 1181.75,-216.25 1181.75,-216.25 1021.5,-216.25 1021.5,-216.25 1015.5,-216.25 1009.5,-210.25 1009.5,-204.25 1009.5,-204.25 1009.5,-192.25 1009.5,-192.25 1009.5,-186.25 1015.5,-180.25 1021.5,-180.25"/>
<text text-anchor="middle" x="1024.25" y="-192.95" font-family="Times New Roman,serif" font-size="14.00">70</text>
<polyline fill="none" stroke="#b15928" points="1039,-180.5 1039,-216.25"/>
<text text-anchor="middle" x="1116.38" y="-192.95" font-family="Times New Roman,serif" font-size="14.00">Half&#45;Kneeling Snatch Up</text>
</a>
</g>
</g>
<!-- mov_66_snatch&#45;&gt;mov_70_kneelsnatchup -->
<g id="edge28" class="edge">
<title>mov_66_snatch&#45;&gt;mov_70_kneelsnatchup</title>
<path fill="none" stroke="black" d="M984.5,-256.28C1005.71,-245.95 1032.8,-232.76 1055.59,-221.67"/>
<polygon fill="black" stroke="black" points="1056.89,-224.92 1064.35,-217.4 1053.83,-218.63 1056.89,-224.92"/>
</g>
<!-- mov_68_dblclean2squat -->
<g id="node21" class="node">
<title>mov_68_dblclean2squat</title>
<g id="a_node21"><a xlink:href="https://www.youtube.com/watch?v=R3s6Wb_ApHM" xlink:title="{{68|Double Clean\nto Front Squat}}">
<path fill="#ffff99" stroke="#b15928" d="M405,-255C405,-255 508.25,-255 508.25,-255 514.25,-255 520.25,-261 520.25,-267 520.25,-267 520.25,-282.5 520.25,-282.5 520.25,-288.5 514.25,-294.5 508.25,-294.5 508.25,-294.5 405,-294.5 405,-294.5 399,-294.5 393,-288.5 393,-282.5 393,-282.5 393,-267 393,-267 393,-261 399,-255 405,-255"/>
<text text-anchor="middle" x="407.75" y="-269.32" font-family="Times New Roman,serif" font-size="14.00">68</text>
<polyline fill="none" stroke="#b15928" points="422.5,-255 422.5,-294.5"/>
<text text-anchor="middle" x="471.38" y="-277.2" font-family="Times New Roman,serif" font-size="14.00">Double Clean</text>
<text text-anchor="middle" x="471.38" y="-261.45" font-family="Times New Roman,serif" font-size="14.00">to Front Squat</text>
</a>
</g>
</g>
<!-- mov_67_dblsquat&#45;&gt;mov_68_dblclean2squat -->
<g id="edge19" class="edge">
<title>mov_67_dblsquat&#45;&gt;mov_68_dblclean2squat</title>
<path fill="none" stroke="black" d="M483.58,-348.89C478.98,-336.39 472.87,-319.82 467.63,-305.61"/>
<polygon fill="black" stroke="black" points="470.93,-304.43 464.18,-296.26 464.36,-306.85 470.93,-304.43"/>
</g>
<!-- mov_74_dblhangclean2squat -->
<g id="node26" class="node">
<title>mov_74_dblhangclean2squat</title>
<g id="a_node26"><a xlink:href="https://www.youtube.com/watch?v=SdPEkv56Lt8" xlink:title="{{74|Double Hang Clean\nTo Squat}}">
<path fill="#ffff99" stroke="#b15928" d="M391.5,-178.5C391.5,-178.5 521.75,-178.5 521.75,-178.5 527.75,-178.5 533.75,-184.5 533.75,-190.5 533.75,-190.5 533.75,-206 533.75,-206 533.75,-212 527.75,-218 521.75,-218 521.75,-218 391.5,-218 391.5,-218 385.5,-218 379.5,-212 379.5,-206 379.5,-206 379.5,-190.5 379.5,-190.5 379.5,-184.5 385.5,-178.5 391.5,-178.5"/>
<text text-anchor="middle" x="394.25" y="-192.82" font-family="Times New Roman,serif" font-size="14.00">74</text>
<polyline fill="none" stroke="#b15928" points="409,-178.5 409,-218"/>
<text text-anchor="middle" x="471.38" y="-200.7" font-family="Times New Roman,serif" font-size="14.00">Double Hang Clean</text>
<text text-anchor="middle" x="471.38" y="-184.95" font-family="Times New Roman,serif" font-size="14.00">To Squat</text>
</a>
</g>
</g>
<!-- mov_68_dblclean2squat&#45;&gt;mov_74_dblhangclean2squat -->
<g id="edge23" class="edge">
<title>mov_68_dblclean2squat&#45;&gt;mov_74_dblhangclean2squat</title>
<path fill="none" stroke="black" d="M456.62,-254.56C456.62,-247 456.62,-238.13 456.62,-229.74"/>
<polygon fill="black" stroke="black" points="460.13,-229.88 456.63,-219.88 453.13,-229.88 460.13,-229.88"/>
</g>
<!-- mov_75_2hssldl -->
<g id="node27" class="node">
<title>mov_75_2hssldl</title>
<g id="a_node27"><a xlink:href="https://www.youtube.com/watch?v=tMt2hzfFGzo" xlink:title="{{75|Two Hand Single\nStraight Leg Deadlift}}">
<path fill="#ffff99" stroke="#b15928" d="M718.5,-628.25C718.5,-628.25 854.75,-628.25 854.75,-628.25 860.75,-628.25 866.75,-634.25 866.75,-640.25 866.75,-640.25 866.75,-655.75 866.75,-655.75 866.75,-661.75 860.75,-667.75 854.75,-667.75 854.75,-667.75 718.5,-667.75 718.5,-667.75 712.5,-667.75 706.5,-661.75 706.5,-655.75 706.5,-655.75 706.5,-640.25 706.5,-640.25 706.5,-634.25 712.5,-628.25 718.5,-628.25"/>
<text text-anchor="middle" x="721.25" y="-642.58" font-family="Times New Roman,serif" font-size="14.00">75</text>
<polyline fill="none" stroke="#b15928" points="736,-628.25 736,-667.75"/>
<text text-anchor="middle" x="801.38" y="-650.45" font-family="Times New Roman,serif" font-size="14.00">Two Hand Single</text>
<text text-anchor="middle" x="801.38" y="-634.7" font-family="Times New Roman,serif" font-size="14.00">Straight Leg Deadlift</text>
</a>
</g>
</g>
<!-- mov_73_2hsbldl&#45;&gt;mov_75_2hssldl -->
<g id="edge13" class="edge">
<title>mov_73_2hsbldl&#45;&gt;mov_75_2hssldl</title>
<path fill="none" stroke="black" d="M783.66,-704.31C784.06,-696.75 784.54,-687.88 784.99,-679.49"/>
<polygon fill="black" stroke="black" points="788.48,-679.81 785.52,-669.63 781.49,-679.43 788.48,-679.81"/>
</g>
<!-- Legend -->
<g id="node29" class="node">
<title>Legend</title>
<path fill="#ffff99" stroke="none" d="M1391.12,-407C1391.12,-407 1222.12,-407 1222.12,-407 1216.12,-407 1210.12,-401 1210.12,-395 1210.12,-395 1210.12,-343 1210.12,-343 1210.12,-337 1216.12,-331 1222.12,-331 1222.12,-331 1391.12,-331 1391.12,-331 1397.12,-331 1403.12,-337 1403.12,-343 1403.12,-343 1403.12,-395 1403.12,-395 1403.12,-401 1397.12,-407 1391.12,-407"/>
<polygon fill="none" stroke="#b15928" points="1210.12,-381 1210.12,-407 1403.12,-407 1403.12,-381 1210.12,-381"/>
<text text-anchor="start" x="1284.12" y="-389.7" font-family="Times New Roman,serif" font-weight="bold" font-size="14.00">Legend</text>
<polygon fill="none" stroke="#b15928" points="1210.12,-356 1210.12,-381 1375.12,-381 1375.12,-356 1210.12,-356"/>
<text text-anchor="start" x="1215" y="-362.7" font-family="Times New Roman,serif" font-size="14.00">Prerequisites and next steps</text>
<polygon fill="ghostwhite" stroke="none" points="1375.12,-356 1375.12,-381 1403.12,-381 1403.12,-356 1375.12,-356"/>
<polygon fill="none" stroke="#b15928" points="1375.12,-356 1375.12,-381 1403.12,-381 1403.12,-356 1375.12,-356"/>
<text text-anchor="start" x="1379.75" y="-362.7" font-family="Times New Roman,serif" font-size="14.00">     </text>
<polygon fill="none" stroke="#b15928" points="1210.12,-331 1210.12,-356 1375.12,-356 1375.12,-331 1210.12,-331"/>
<text text-anchor="start" x="1278" y="-337.7" font-family="Times New Roman,serif" font-size="14.00">Drills</text>
<polygon fill="#ffff99" stroke="none" points="1375.12,-331 1375.12,-356 1403.12,-356 1403.12,-331 1375.12,-331"/>
<polygon fill="none" stroke="#b15928" points="1375.12,-331 1375.12,-356 1403.12,-356 1403.12,-331 1375.12,-331"/>
</g>
</g>
</svg>
