<?xml version="1.0" encoding="UTF-8" standalone="no"?>
<!DOCTYPE svg PUBLIC "-//W3C//DTD SVG 1.1//EN"
 "http://www.w3.org/Graphics/SVG/1.1/DTD/svg11.dtd">
<!-- Generated by graphviz version 8.1.0 (20230707.0739)
 -->
<!-- Title: kb_progression Pages: 1 -->
<svg width="765pt" height="917pt"
 viewBox="0.00 0.00 764.88 917.25" xmlns="http://www.w3.org/2000/svg" xmlns:xlink="http://www.w3.org/1999/xlink">
<g id="graph0" class="graph" transform="scale(1 1) rotate(0) translate(4 913.25)">
<title>kb_progression</title>
<polygon fill="white" stroke="none" points="-4,4 -4,-913.25 760.88,-913.25 760.88,4 -4,4"/>
<text text-anchor="middle" x="378.44" y="-6.45" font-family="Times New Roman,serif" font-size="14.00">Kettlebell Turkish Get&#45;Up Progression</text>
<g id="clust3" class="cluster">
<title>cluster_tgu</title>
<polygon fill="none" stroke="black" points="123.88,-200.75 123.88,-660 323.88,-660 323.88,-200.75 123.88,-200.75"/>
<text text-anchor="middle" x="223.88" y="-642.7" font-family="Times New Roman,serif" font-size="14.00">Turkish Get Up</text>
</g>
<g id="clust2" class="cluster">
<title>cluster_tgd</title>
<polygon fill="none" stroke="black" points="336.88,-200.75 336.88,-864.25 748.88,-864.25 748.88,-200.75 336.88,-200.75"/>
<text text-anchor="middle" x="542.88" y="-846.95" font-family="Times New Roman,serif" font-size="14.00">Turkish Get Down</text>
</g>
<!-- mov_racksquat -->
<g id="node1" class="node">
<title>mov_racksquat</title>
<g id="a_node1"><a xlink:href="https://www.youtube.com/watch?v=KTDVl0Lkdc4&amp;list=PLk4oYPJ7TXKhX8YqA2AVrfgs_pEF6p7KA&amp;index=23" xlink:title="{{KB&#45;23|Single&#45;Bell Front Squat}}">
<path fill="ghostwhite" stroke="lightslategrey" d="M352.62,-872.75C352.62,-872.75 527.12,-872.75 527.12,-872.75 533.12,-872.75 539.12,-878.75 539.12,-884.75 539.12,-884.75 539.12,-896.75 539.12,-896.75 539.12,-902.75 533.12,-908.75 527.12,-908.75 527.12,-908.75 352.62,-908.75 352.62,-908.75 346.62,-908.75 340.62,-902.75 340.62,-896.75 340.62,-896.75 340.62,-884.75 340.62,-884.75 340.62,-878.75 346.62,-872.75 352.62,-872.75"/>
<text text-anchor="middle" x="367" y="-885.45" font-family="Times New Roman,serif" font-size="14.00">KB&#45;23</text>
<polyline fill="none" stroke="lightslategrey" points="393.38,-873 393.38,-908.75"/>
<text text-anchor="middle" x="466.25" y="-885.45" font-family="Times New Roman,serif" font-size="14.00">Single&#45;Bell Front Squat</text>
</a>
</g>
</g>
<!-- mov_racklunge -->
<g id="node8" class="node">
<title>mov_racklunge</title>
<g id="a_node8"><a xlink:href="https://www.youtube.com/watch?v=KTDVl0Lkdc4&amp;list=PLk4oYPJ7TXKhX8YqA2AVrfgs_pEF6p7KA&amp;index=24" xlink:title="{{24|Rack Opposite Leg\nStep&#45;Back Lunge}|VERTICAL SPINE}">
<path fill="#ffff99" stroke="#b15928" d="M374.38,-768.75C374.38,-768.75 505.38,-768.75 505.38,-768.75 511.38,-768.75 517.38,-774.75 517.38,-780.75 517.38,-780.75 517.38,-820 517.38,-820 517.38,-826 511.38,-832 505.38,-832 505.38,-832 374.38,-832 374.38,-832 368.38,-832 362.38,-826 362.38,-820 362.38,-820 362.38,-780.75 362.38,-780.75 362.38,-774.75 368.38,-768.75 374.38,-768.75"/>
<text text-anchor="middle" x="377.12" y="-806.83" font-family="Times New Roman,serif" font-size="14.00">24</text>
<polyline fill="none" stroke="#b15928" points="391.88,-792.5 391.88,-832"/>
<text text-anchor="middle" x="454.62" y="-814.7" font-family="Times New Roman,serif" font-size="14.00">Rack Opposite Leg</text>
<text text-anchor="middle" x="454.62" y="-798.95" font-family="Times New Roman,serif" font-size="14.00">Step&#45;Back Lunge</text>
<polyline fill="none" stroke="#b15928" points="362.38,-792.5 517.38,-792.5"/>
<text text-anchor="middle" x="439.88" y="-775.2" font-family="Times New Roman,serif" font-size="14.00">VERTICAL SPINE</text>
</a>
</g>
</g>
<!-- mov_racksquat&#45;&gt;mov_racklunge -->
<g id="edge4" class="edge">
<title>mov_racksquat&#45;&gt;mov_racklunge</title>
<path fill="none" stroke="black" d="M439.88,-873.13C439.88,-864.52 439.88,-853.58 439.88,-842.86"/>
<polygon fill="black" stroke="black" points="443.38,-842.87 439.88,-832.87 436.38,-842.87 443.38,-842.87"/>
</g>
<!-- mov_cap -->
<g id="node2" class="node">
<title>mov_cap</title>
<g id="a_node2"><a xlink:href="https://www.youtube.com/watch?v=SSxB3m5qRas&amp;list=PLk4oYPJ7TXKhX8YqA2AVrfgs_pEF6p7KA&amp;index=17" xlink:title="KB&#45;17|Clean &amp; Press">
<path fill="ghostwhite" stroke="lightslategrey" d="M12,-782.38C12,-782.38 137.75,-782.38 137.75,-782.38 143.75,-782.38 149.75,-788.38 149.75,-794.38 149.75,-794.38 149.75,-806.38 149.75,-806.38 149.75,-812.38 143.75,-818.38 137.75,-818.38 137.75,-818.38 12,-818.38 12,-818.38 6,-818.38 0,-812.38 0,-806.38 0,-806.38 0,-794.38 0,-794.38 0,-788.38 6,-782.38 12,-782.38"/>
<text text-anchor="middle" x="26.38" y="-794.95" font-family="Times New Roman,serif" font-size="14.00">KB&#45;17</text>
<polyline fill="none" stroke="lightslategrey" points="52.75,-782.38 52.75,-818.38"/>
<text text-anchor="middle" x="101.25" y="-794.95" font-family="Times New Roman,serif" font-size="14.00">Clean &amp; Press</text>
</a>
</g>
</g>
<!-- mov_startstopcap -->
<g id="node3" class="node">
<title>mov_startstopcap</title>
<g id="a_node3"><a xlink:href="https://www.youtube.com/watch?v=dSj3kqbuois&amp;list=PLk4oYPJ7TXKhX8YqA2AVrfgs_pEF6p7KA&amp;index=19" xlink:title="{{KB&#45;19|Start Stop\nClean &amp; Press}|START &amp; END C&amp;P}">
<path fill="ghostwhite" stroke="lightslategrey" d="M101,-668.5C101,-668.5 226.75,-668.5 226.75,-668.5 232.75,-668.5 238.75,-674.5 238.75,-680.5 238.75,-680.5 238.75,-719.75 238.75,-719.75 238.75,-725.75 232.75,-731.75 226.75,-731.75 226.75,-731.75 101,-731.75 101,-731.75 95,-731.75 89,-725.75 89,-719.75 89,-719.75 89,-680.5 89,-680.5 89,-674.5 95,-668.5 101,-668.5"/>
<text text-anchor="middle" x="115.38" y="-706.58" font-family="Times New Roman,serif" font-size="14.00">KB&#45;19</text>
<polyline fill="none" stroke="lightslategrey" points="141.75,-692.25 141.75,-731.75"/>
<text text-anchor="middle" x="190.25" y="-714.45" font-family="Times New Roman,serif" font-size="14.00">Start Stop</text>
<text text-anchor="middle" x="190.25" y="-698.7" font-family="Times New Roman,serif" font-size="14.00">Clean &amp; Press</text>
<polyline fill="none" stroke="lightslategrey" points="89,-692.25 238.75,-692.25"/>
<text text-anchor="middle" x="163.88" y="-674.95" font-family="Times New Roman,serif" font-size="14.00">START &amp; END C&amp;P</text>
</a>
</g>
</g>
<!-- mov_cap&#45;&gt;mov_startstopcap -->
<g id="edge3" class="edge">
<title>mov_cap&#45;&gt;mov_startstopcap</title>
<path fill="none" stroke="black" d="M89.97,-782.71C100.68,-770.88 115.51,-754.51 129.07,-739.54"/>
<polygon fill="black" stroke="black" points="131.33,-742.17 135.45,-732.4 126.14,-737.47 131.33,-742.17"/>
</g>
<!-- mov_halfkneelcap -->
<g id="node13" class="node">
<title>mov_halfkneelcap</title>
<g id="a_node13"><a xlink:href="https://www.youtube.com/watch?v=KTDVl0Lkdc4&amp;list=PLk4oYPJ7TXKhX8YqA2AVrfgs_pEF6p7KA&amp;index=29" xlink:title="{{29|Half&#45;Kneeling\nClean &amp; Press}}">
<path fill="#ffff99" stroke="#b15928" d="M387.62,-515.25C387.62,-515.25 490.12,-515.25 490.12,-515.25 496.12,-515.25 502.12,-521.25 502.12,-527.25 502.12,-527.25 502.12,-542.75 502.12,-542.75 502.12,-548.75 496.12,-554.75 490.12,-554.75 490.12,-554.75 387.62,-554.75 387.62,-554.75 381.62,-554.75 375.62,-548.75 375.62,-542.75 375.62,-542.75 375.62,-527.25 375.62,-527.25 375.62,-521.25 381.62,-515.25 387.62,-515.25"/>
<text text-anchor="middle" x="390.38" y="-529.58" font-family="Times New Roman,serif" font-size="14.00">29</text>
<polyline fill="none" stroke="#b15928" points="405.12,-515.25 405.12,-554.75"/>
<text text-anchor="middle" x="453.62" y="-537.45" font-family="Times New Roman,serif" font-size="14.00">Half&#45;Kneeling</text>
<text text-anchor="middle" x="453.62" y="-521.7" font-family="Times New Roman,serif" font-size="14.00">Clean &amp; Press</text>
</a>
</g>
</g>
<!-- mov_startstopcap&#45;&gt;mov_halfkneelcap -->
<g id="edge5" class="edge">
<title>mov_startstopcap&#45;&gt;mov_halfkneelcap</title>
<path fill="none" stroke="black" d="M238.6,-695.19C269.01,-690.28 302.81,-680.21 327.88,-660 354.26,-638.72 339.01,-617.15 360.88,-591.25 370.78,-579.51 383.72,-569.04 396.2,-560.46"/>
<polygon fill="black" stroke="black" points="397.74,-562.98 404.16,-554.55 393.88,-557.13 397.74,-562.98"/>
</g>
<!-- mov_clean -->
<g id="node4" class="node">
<title>mov_clean</title>
<g id="a_node4"><a xlink:href="https://www.youtube.com/watch?v=_nIsSXWs5iU&amp;list=PLk4oYPJ7TXKhX8YqA2AVrfgs_pEF6p7KA&amp;index=12" xlink:title="KB&#45;12|Swing Clean">
<path fill="ghostwhite" stroke="lightslategrey" d="M104.62,-872.75C104.62,-872.75 219.12,-872.75 219.12,-872.75 225.12,-872.75 231.12,-878.75 231.12,-884.75 231.12,-884.75 231.12,-896.75 231.12,-896.75 231.12,-902.75 225.12,-908.75 219.12,-908.75 219.12,-908.75 104.62,-908.75 104.62,-908.75 98.62,-908.75 92.62,-902.75 92.62,-896.75 92.62,-896.75 92.62,-884.75 92.62,-884.75 92.62,-878.75 98.62,-872.75 104.62,-872.75"/>
<text text-anchor="middle" x="119" y="-885.33" font-family="Times New Roman,serif" font-size="14.00">KB&#45;12</text>
<polyline fill="none" stroke="lightslategrey" points="145.38,-872.75 145.38,-908.75"/>
<text text-anchor="middle" x="188.25" y="-885.33" font-family="Times New Roman,serif" font-size="14.00">Swing Clean</text>
</a>
</g>
</g>
<!-- mov_clean&#45;&gt;mov_cap -->
<g id="edge2" class="edge">
<title>mov_clean&#45;&gt;mov_cap</title>
<path fill="none" stroke="black" d="M145.51,-873.13C132.35,-859.76 113.67,-840.78 98.83,-825.7"/>
<polygon fill="black" stroke="black" points="101.97,-823.89 92.46,-819.22 96.98,-828.81 101.97,-823.89"/>
</g>
<!-- mov_startstopclean -->
<g id="node5" class="node">
<title>mov_startstopclean</title>
<g id="a_node5"><a xlink:href="https://www.youtube.com/watch?v=XbK3jxI0WNQ&amp;list=PLk4oYPJ7TXKhX8YqA2AVrfgs_pEF6p7KA&amp;index=16" xlink:title="{{KB&#45;16|Start Stop Clean}|START &amp; END CLEAN}">
<path fill="ghostwhite" stroke="lightslategrey" d="M179.38,-776.62C179.38,-776.62 316.38,-776.62 316.38,-776.62 322.38,-776.62 328.38,-782.62 328.38,-788.62 328.38,-788.62 328.38,-812.12 328.38,-812.12 328.38,-818.12 322.38,-824.12 316.38,-824.12 316.38,-824.12 179.38,-824.12 179.38,-824.12 173.38,-824.12 167.38,-818.12 167.38,-812.12 167.38,-812.12 167.38,-788.62 167.38,-788.62 167.38,-782.62 173.38,-776.62 179.38,-776.62"/>
<text text-anchor="middle" x="193.75" y="-806.83" font-family="Times New Roman,serif" font-size="14.00">KB&#45;16</text>
<polyline fill="none" stroke="lightslategrey" points="220.12,-800.38 220.12,-824.12"/>
<text text-anchor="middle" x="274.25" y="-806.83" font-family="Times New Roman,serif" font-size="14.00">Start Stop Clean</text>
<polyline fill="none" stroke="lightslategrey" points="167.38,-800.38 328.38,-800.38"/>
<text text-anchor="middle" x="247.88" y="-783.08" font-family="Times New Roman,serif" font-size="14.00">START &amp; END CLEAN</text>
</a>
</g>
</g>
<!-- mov_clean&#45;&gt;mov_startstopclean -->
<g id="edge1" class="edge">
<title>mov_clean&#45;&gt;mov_startstopclean</title>
<path fill="none" stroke="black" d="M178.05,-873.13C189.36,-861.51 204.79,-845.65 218.26,-831.8"/>
<polygon fill="black" stroke="black" points="220.46,-834.54 224.93,-824.93 215.45,-829.65 220.46,-834.54"/>
</g>
<!-- mov_clean2sblunge -->
<g id="node9" class="node">
<title>mov_clean2sblunge</title>
<g id="a_node9"><a xlink:href="https://www.youtube.com/watch?v=KTDVl0Lkdc4&amp;list=PLk4oYPJ7TXKhX8YqA2AVrfgs_pEF6p7KA&amp;index=25" xlink:title="{{25|Clean Step&#45;Back Clean}}">
<path fill="#ffff99" stroke="#b15928" d="M364.62,-682.12C364.62,-682.12 515.12,-682.12 515.12,-682.12 521.12,-682.12 527.12,-688.12 527.12,-694.12 527.12,-694.12 527.12,-706.12 527.12,-706.12 527.12,-712.12 521.12,-718.12 515.12,-718.12 515.12,-718.12 364.62,-718.12 364.62,-718.12 358.62,-718.12 352.62,-712.12 352.62,-706.12 352.62,-706.12 352.62,-694.12 352.62,-694.12 352.62,-688.12 358.62,-682.12 364.62,-682.12"/>
<text text-anchor="middle" x="367.38" y="-694.83" font-family="Times New Roman,serif" font-size="14.00">25</text>
<polyline fill="none" stroke="#b15928" points="382.12,-682.38 382.12,-718.12"/>
<text text-anchor="middle" x="454.62" y="-694.83" font-family="Times New Roman,serif" font-size="14.00">Clean Step&#45;Back Clean</text>
</a>
</g>
</g>
<!-- mov_startstopclean&#45;&gt;mov_clean2sblunge -->
<g id="edge6" class="edge">
<title>mov_startstopclean&#45;&gt;mov_clean2sblunge</title>
<path fill="none" stroke="black" d="M291.92,-776.83C323.49,-760.68 365.79,-739.04 397.07,-723.03"/>
<polygon fill="black" stroke="black" points="398.5,-725.72 405.81,-718.04 395.31,-719.48 398.5,-725.72"/>
</g>
<!-- mov_tgd -->
<g id="node6" class="node">
<title>mov_tgd</title>
<path fill="ghostwhite" stroke="lightslategrey" d="M425.88,-136.25C425.88,-136.25 541.88,-136.25 541.88,-136.25 547.88,-136.25 553.88,-142.25 553.88,-148.25 553.88,-148.25 553.88,-160.25 553.88,-160.25 553.88,-166.25 547.88,-172.25 541.88,-172.25 541.88,-172.25 425.88,-172.25 425.88,-172.25 419.88,-172.25 413.88,-166.25 413.88,-160.25 413.88,-160.25 413.88,-148.25 413.88,-148.25 413.88,-142.25 419.88,-136.25 425.88,-136.25"/>
<text text-anchor="middle" x="423.75" y="-148.95" font-family="Times New Roman,serif" font-size="14.00"> </text>
<polyline fill="none" stroke="lightslategrey" points="433.62,-136.5 433.62,-172.25"/>
<text text-anchor="middle" x="493.75" y="-148.95" font-family="Times New Roman,serif" font-size="14.00">Turkish Get Down</text>
</g>
<!-- mov_tgu -->
<g id="node7" class="node">
<title>mov_tgu</title>
<path fill="ghostwhite" stroke="lightslategrey" d="M284.12,-136.25C284.12,-136.25 383.62,-136.25 383.62,-136.25 389.62,-136.25 395.62,-142.25 395.62,-148.25 395.62,-148.25 395.62,-160.25 395.62,-160.25 395.62,-166.25 389.62,-172.25 383.62,-172.25 383.62,-172.25 284.12,-172.25 284.12,-172.25 278.12,-172.25 272.12,-166.25 272.12,-160.25 272.12,-160.25 272.12,-148.25 272.12,-148.25 272.12,-142.25 278.12,-136.25 284.12,-136.25"/>
<text text-anchor="middle" x="282" y="-148.95" font-family="Times New Roman,serif" font-size="14.00"> </text>
<polyline fill="none" stroke="lightslategrey" points="291.88,-136.5 291.88,-172.25"/>
<text text-anchor="middle" x="343.75" y="-148.95" font-family="Times New Roman,serif" font-size="14.00">Turkish Get Up</text>
</g>
<!-- mov_racklunge&#45;&gt;mov_clean2sblunge -->
<g id="edge7" class="edge">
<title>mov_racklunge&#45;&gt;mov_clean2sblunge</title>
<path fill="none" stroke="black" d="M439.88,-768.83C439.88,-755.97 439.88,-741.13 439.88,-728.63"/>
<polygon fill="black" stroke="black" points="443.38,-728.92 439.88,-718.92 436.38,-728.92 443.38,-728.92"/>
</g>
<!-- mov_halfkneelclean -->
<g id="node10" class="node">
<title>mov_halfkneelclean</title>
<g id="a_node10"><a xlink:href="https://www.youtube.com/watch?v=KTDVl0Lkdc4&amp;list=PLk4oYPJ7TXKhX8YqA2AVrfgs_pEF6p7KA&amp;index=26" xlink:title="{{26|Half&#45;Kneeling Clean}}">
<path fill="#ffff99" stroke="#b15928" d="M381.62,-591.75C381.62,-591.75 514.12,-591.75 514.12,-591.75 520.12,-591.75 526.12,-597.75 526.12,-603.75 526.12,-603.75 526.12,-615.75 526.12,-615.75 526.12,-621.75 520.12,-627.75 514.12,-627.75 514.12,-627.75 381.62,-627.75 381.62,-627.75 375.62,-627.75 369.62,-621.75 369.62,-615.75 369.62,-615.75 369.62,-603.75 369.62,-603.75 369.62,-597.75 375.62,-591.75 381.62,-591.75"/>
<text text-anchor="middle" x="384.38" y="-604.45" font-family="Times New Roman,serif" font-size="14.00">26</text>
<polyline fill="none" stroke="#b15928" points="399.12,-592 399.12,-627.75"/>
<text text-anchor="middle" x="462.62" y="-604.45" font-family="Times New Roman,serif" font-size="14.00">Half&#45;Kneeling Clean</text>
</a>
</g>
</g>
<!-- mov_clean2sblunge&#45;&gt;mov_halfkneelclean -->
<g id="edge8" class="edge">
<title>mov_clean2sblunge&#45;&gt;mov_halfkneelclean</title>
<path fill="none" stroke="black" d="M441.38,-682.5C442.5,-670.11 444.06,-652.91 445.37,-638.46"/>
<polygon fill="black" stroke="black" points="448.93,-638.87 446.35,-628.6 441.96,-638.24 448.93,-638.87"/>
</g>
<!-- mov_cleansblungeclean -->
<g id="node11" class="node">
<title>mov_cleansblungeclean</title>
<g id="a_node11"><a xlink:href="https://www.youtube.com/watch?v=KTDVl0Lkdc4&amp;list=PLk4oYPJ7TXKhX8YqA2AVrfgs_pEF6p7KA&amp;index=27" xlink:title="{{27|Clean Step&#45;Back\nLunge Clean}}">
<path fill="#ffff99" stroke="#b15928" d="M571.25,-438.75C571.25,-438.75 686.5,-438.75 686.5,-438.75 692.5,-438.75 698.5,-444.75 698.5,-450.75 698.5,-450.75 698.5,-466.25 698.5,-466.25 698.5,-472.25 692.5,-478.25 686.5,-478.25 686.5,-478.25 571.25,-478.25 571.25,-478.25 565.25,-478.25 559.25,-472.25 559.25,-466.25 559.25,-466.25 559.25,-450.75 559.25,-450.75 559.25,-444.75 565.25,-438.75 571.25,-438.75"/>
<text text-anchor="middle" x="574" y="-453.07" font-family="Times New Roman,serif" font-size="14.00">27</text>
<polyline fill="none" stroke="#b15928" points="588.75,-438.75 588.75,-478.25"/>
<text text-anchor="middle" x="643.62" y="-460.95" font-family="Times New Roman,serif" font-size="14.00">Clean Step&#45;Back</text>
<text text-anchor="middle" x="643.62" y="-445.2" font-family="Times New Roman,serif" font-size="14.00">Lunge Clean</text>
</a>
</g>
</g>
<!-- mov_halfkneelclean&#45;&gt;mov_cleansblungeclean -->
<g id="edge9" class="edge">
<title>mov_halfkneelclean&#45;&gt;mov_cleansblungeclean</title>
<path fill="none" stroke="black" d="M468.29,-591.92C499.87,-565.88 560.8,-515.64 597.85,-485.08"/>
<polygon fill="black" stroke="black" points="599.79,-487.2 605.28,-478.14 595.33,-481.8 599.79,-487.2"/>
</g>
<!-- mov_halfkneelclean&#45;&gt;mov_halfkneelcap -->
<g id="edge10" class="edge">
<title>mov_halfkneelclean&#45;&gt;mov_halfkneelcap</title>
<path fill="none" stroke="black" d="M445.79,-591.88C444.82,-584.03 443.63,-574.45 442.52,-565.47"/>
<polygon fill="black" stroke="black" points="445.87,-565.06 441.17,-555.57 438.93,-565.92 445.87,-565.06"/>
</g>
<!-- mov_cap2ohsblunge -->
<g id="node19" class="node">
<title>mov_cap2ohsblunge</title>
<g id="a_node19"><a xlink:href="https://www.youtube.com/watch?v=KTDVl0Lkdc4&amp;list=PLk4oYPJ7TXKhX8YqA2AVrfgs_pEF6p7KA&amp;index=37" xlink:title="{{35|Clean &amp; Press to Overhead\nStep&#45;Back Lunge}}">
<path fill="#ffff99" stroke="#b15928" d="M553.25,-285.75C553.25,-285.75 728.5,-285.75 728.5,-285.75 734.5,-285.75 740.5,-291.75 740.5,-297.75 740.5,-297.75 740.5,-313.25 740.5,-313.25 740.5,-319.25 734.5,-325.25 728.5,-325.25 728.5,-325.25 553.25,-325.25 553.25,-325.25 547.25,-325.25 541.25,-319.25 541.25,-313.25 541.25,-313.25 541.25,-297.75 541.25,-297.75 541.25,-291.75 547.25,-285.75 553.25,-285.75"/>
<text text-anchor="middle" x="556" y="-300.07" font-family="Times New Roman,serif" font-size="14.00">35</text>
<polyline fill="none" stroke="#b15928" points="570.75,-285.75 570.75,-325.25"/>
<text text-anchor="middle" x="655.62" y="-307.95" font-family="Times New Roman,serif" font-size="14.00">Clean &amp; Press to Overhead</text>
<text text-anchor="middle" x="655.62" y="-292.2" font-family="Times New Roman,serif" font-size="14.00">Step&#45;Back Lunge</text>
</a>
</g>
</g>
<!-- mov_cleansblungeclean&#45;&gt;mov_cap2ohsblunge -->
<g id="edge14" class="edge">
<title>mov_cleansblungeclean&#45;&gt;mov_cap2ohsblunge</title>
<path fill="none" stroke="black" d="M630.35,-438.98C632.39,-413.29 636.1,-366.53 638.53,-336"/>
<polygon fill="black" stroke="black" points="642.09,-336.41 639.39,-326.17 635.11,-335.86 642.09,-336.41"/>
</g>
<!-- mov_floorpress -->
<g id="node12" class="node">
<title>mov_floorpress</title>
<g id="a_node12"><a xlink:href="https://www.youtube.com/watch?v=KTDVl0Lkdc4&amp;list=PLk4oYPJ7TXKhX8YqA2AVrfgs_pEF6p7KA&amp;index=28" xlink:title="{{28|Single&#45;Bell Floor Press}}">
<path fill="#ffff99" stroke="#b15928" d="M149,-591.75C149,-591.75 298.75,-591.75 298.75,-591.75 304.75,-591.75 310.75,-597.75 310.75,-603.75 310.75,-603.75 310.75,-615.75 310.75,-615.75 310.75,-621.75 304.75,-627.75 298.75,-627.75 298.75,-627.75 149,-627.75 149,-627.75 143,-627.75 137,-621.75 137,-615.75 137,-615.75 137,-603.75 137,-603.75 137,-597.75 143,-591.75 149,-591.75"/>
<text text-anchor="middle" x="151.75" y="-604.45" font-family="Times New Roman,serif" font-size="14.00">28</text>
<polyline fill="none" stroke="#b15928" points="166.5,-592 166.5,-627.75"/>
<text text-anchor="middle" x="238.62" y="-604.45" font-family="Times New Roman,serif" font-size="14.00">Single&#45;Bell Floor Press</text>
</a>
</g>
</g>
<!-- mov_floorpressroll -->
<g id="node14" class="node">
<title>mov_floorpressroll</title>
<g id="a_node14"><a xlink:href="https://www.youtube.com/watch?v=KTDVl0Lkdc4&amp;list=PLk4oYPJ7TXKhX8YqA2AVrfgs_pEF6p7KA&amp;index=30" xlink:title="{{30|Floor Press with Roll}}">
<path fill="#ffff99" stroke="#b15928" d="M153.5,-517C153.5,-517 294.25,-517 294.25,-517 300.25,-517 306.25,-523 306.25,-529 306.25,-529 306.25,-541 306.25,-541 306.25,-547 300.25,-553 294.25,-553 294.25,-553 153.5,-553 153.5,-553 147.5,-553 141.5,-547 141.5,-541 141.5,-541 141.5,-529 141.5,-529 141.5,-523 147.5,-517 153.5,-517"/>
<text text-anchor="middle" x="156.25" y="-529.7" font-family="Times New Roman,serif" font-size="14.00">30</text>
<polyline fill="none" stroke="#b15928" points="171,-517.25 171,-553"/>
<text text-anchor="middle" x="238.62" y="-529.7" font-family="Times New Roman,serif" font-size="14.00">Floor Press with Roll</text>
</a>
</g>
</g>
<!-- mov_floorpress&#45;&gt;mov_floorpressroll -->
<g id="edge23" class="edge">
<title>mov_floorpress&#45;&gt;mov_floorpressroll</title>
<path fill="none" stroke="black" d="M223.88,-591.88C223.88,-583.52 223.88,-573.22 223.88,-563.74"/>
<polygon fill="black" stroke="black" points="227.38,-563.78 223.88,-553.78 220.38,-563.78 227.38,-563.78"/>
</g>
<!-- mov_kneelwindmill -->
<g id="node15" class="node">
<title>mov_kneelwindmill</title>
<g id="a_node15"><a xlink:href="https://www.youtube.com/watch?v=KTDVl0Lkdc4&amp;list=PLk4oYPJ7TXKhX8YqA2AVrfgs_pEF6p7KA&amp;index=31" xlink:title="{{31|Half&#45;Kneeling Windmill}}">
<path fill="#ffff99" stroke="#b15928" d="M363.25,-440.5C363.25,-440.5 514.5,-440.5 514.5,-440.5 520.5,-440.5 526.5,-446.5 526.5,-452.5 526.5,-452.5 526.5,-464.5 526.5,-464.5 526.5,-470.5 520.5,-476.5 514.5,-476.5 514.5,-476.5 363.25,-476.5 363.25,-476.5 357.25,-476.5 351.25,-470.5 351.25,-464.5 351.25,-464.5 351.25,-452.5 351.25,-452.5 351.25,-446.5 357.25,-440.5 363.25,-440.5"/>
<text text-anchor="middle" x="366" y="-453.2" font-family="Times New Roman,serif" font-size="14.00">31</text>
<polyline fill="none" stroke="#b15928" points="380.75,-440.75 380.75,-476.5"/>
<text text-anchor="middle" x="453.62" y="-453.2" font-family="Times New Roman,serif" font-size="14.00">Half&#45;Kneeling Windmill</text>
</a>
</g>
</g>
<!-- mov_halfkneelcap&#45;&gt;mov_kneelwindmill -->
<g id="edge11" class="edge">
<title>mov_halfkneelcap&#45;&gt;mov_kneelwindmill</title>
<path fill="none" stroke="black" d="M438.88,-515.58C438.88,-507.07 438.88,-496.77 438.88,-487.33"/>
<polygon fill="black" stroke="black" points="442.38,-487.43 438.88,-477.43 435.38,-487.43 442.38,-487.43"/>
</g>
<!-- mov_quartgu -->
<g id="node16" class="node">
<title>mov_quartgu</title>
<g id="a_node16"><a xlink:href="https://www.youtube.com/watch?v=KTDVl0Lkdc4&amp;list=PLk4oYPJ7TXKhX8YqA2AVrfgs_pEF6p7KA&amp;index=32" xlink:title="{{32|Quarter Turkish Get&#45;Up}}">
<path fill="#ffff99" stroke="#b15928" d="M146,-440.5C146,-440.5 301.75,-440.5 301.75,-440.5 307.75,-440.5 313.75,-446.5 313.75,-452.5 313.75,-452.5 313.75,-464.5 313.75,-464.5 313.75,-470.5 307.75,-476.5 301.75,-476.5 301.75,-476.5 146,-476.5 146,-476.5 140,-476.5 134,-470.5 134,-464.5 134,-464.5 134,-452.5 134,-452.5 134,-446.5 140,-440.5 146,-440.5"/>
<text text-anchor="middle" x="148.75" y="-453.2" font-family="Times New Roman,serif" font-size="14.00">32</text>
<polyline fill="none" stroke="#b15928" points="163.5,-440.75 163.5,-476.5"/>
<text text-anchor="middle" x="238.62" y="-453.2" font-family="Times New Roman,serif" font-size="14.00">Quarter Turkish Get&#45;Up</text>
</a>
</g>
</g>
<!-- mov_floorpressroll&#45;&gt;mov_quartgu -->
<g id="edge24" class="edge">
<title>mov_floorpressroll&#45;&gt;mov_quartgu</title>
<path fill="none" stroke="black" d="M223.88,-517.09C223.88,-508.24 223.88,-497.16 223.88,-487.1"/>
<polygon fill="black" stroke="black" points="227.38,-487.34 223.88,-477.34 220.38,-487.34 227.38,-487.34"/>
</g>
<!-- mov_kneelcapwindmill -->
<g id="node17" class="node">
<title>mov_kneelcapwindmill</title>
<g id="a_node17"><a xlink:href="https://www.youtube.com/watch?v=KTDVl0Lkdc4&amp;list=PLk4oYPJ7TXKhX8YqA2AVrfgs_pEF6p7KA&amp;index=34" xlink:title="{{33|Half&#45;Kneeling\nClean &amp; Press Windmill}}">
<path fill="#ffff99" stroke="#b15928" d="M360.62,-362.25C360.62,-362.25 517.12,-362.25 517.12,-362.25 523.12,-362.25 529.12,-368.25 529.12,-374.25 529.12,-374.25 529.12,-389.75 529.12,-389.75 529.12,-395.75 523.12,-401.75 517.12,-401.75 517.12,-401.75 360.62,-401.75 360.62,-401.75 354.62,-401.75 348.62,-395.75 348.62,-389.75 348.62,-389.75 348.62,-374.25 348.62,-374.25 348.62,-368.25 354.62,-362.25 360.62,-362.25"/>
<text text-anchor="middle" x="363.38" y="-376.57" font-family="Times New Roman,serif" font-size="14.00">33</text>
<polyline fill="none" stroke="#b15928" points="378.12,-362.25 378.12,-401.75"/>
<text text-anchor="middle" x="453.62" y="-384.45" font-family="Times New Roman,serif" font-size="14.00">Half&#45;Kneeling</text>
<text text-anchor="middle" x="453.62" y="-368.7" font-family="Times New Roman,serif" font-size="14.00">Clean &amp; Press Windmill</text>
</a>
</g>
</g>
<!-- mov_kneelwindmill&#45;&gt;mov_kneelcapwindmill -->
<g id="edge12" class="edge">
<title>mov_kneelwindmill&#45;&gt;mov_kneelcapwindmill</title>
<path fill="none" stroke="black" d="M438.88,-440.59C438.88,-432.26 438.88,-421.97 438.88,-412.41"/>
<polygon fill="black" stroke="black" points="442.38,-412.67 438.88,-402.67 435.38,-412.67 442.38,-412.67"/>
</g>
<!-- mov_halfgu -->
<g id="node18" class="node">
<title>mov_halfgu</title>
<g id="a_node18"><a xlink:href="https://www.youtube.com/watch?v=KTDVl0Lkdc4&amp;list=PLk4oYPJ7TXKhX8YqA2AVrfgs_pEF6p7KA&amp;index=35" xlink:title="{{34|Half Get&#45;Up}}">
<path fill="#ffff99" stroke="#b15928" d="M178.62,-364C178.62,-364 269.12,-364 269.12,-364 275.12,-364 281.12,-370 281.12,-376 281.12,-376 281.12,-388 281.12,-388 281.12,-394 275.12,-400 269.12,-400 269.12,-400 178.62,-400 178.62,-400 172.62,-400 166.62,-394 166.62,-388 166.62,-388 166.62,-376 166.62,-376 166.62,-370 172.62,-364 178.62,-364"/>
<text text-anchor="middle" x="181.38" y="-376.7" font-family="Times New Roman,serif" font-size="14.00">34</text>
<polyline fill="none" stroke="#b15928" points="196.12,-364.25 196.12,-400"/>
<text text-anchor="middle" x="238.62" y="-376.7" font-family="Times New Roman,serif" font-size="14.00">Half Get&#45;Up</text>
</a>
</g>
</g>
<!-- mov_quartgu&#45;&gt;mov_halfgu -->
<g id="edge25" class="edge">
<title>mov_quartgu&#45;&gt;mov_halfgu</title>
<path fill="none" stroke="black" d="M223.88,-440.59C223.88,-431.74 223.88,-420.66 223.88,-410.6"/>
<polygon fill="black" stroke="black" points="227.38,-410.84 223.88,-400.84 220.38,-410.84 227.38,-410.84"/>
</g>
<!-- mov_kneelcapwindmill&#45;&gt;mov_cap2ohsblunge -->
<g id="edge13" class="edge">
<title>mov_kneelcapwindmill&#45;&gt;mov_cap2ohsblunge</title>
<path fill="none" stroke="black" d="M489.59,-362.3C517.08,-352.16 551.25,-339.55 580.16,-328.89"/>
<polygon fill="black" stroke="black" points="580.97,-331.96 589.14,-325.21 578.55,-325.39 580.97,-331.96"/>
</g>
<!-- mov_kneelhipdrop -->
<g id="node20" class="node">
<title>mov_kneelhipdrop</title>
<g id="a_node20"><a xlink:href="https://www.youtube.com/watch?v=KTDVl0Lkdc4&amp;list=PLk4oYPJ7TXKhX8YqA2AVrfgs_pEF6p7KA&amp;index=38" xlink:title="{{36|Half&#45;Kneeling Hip Drop}}">
<path fill="#ffff99" stroke="#b15928" d="M356.75,-287.5C356.75,-287.5 511,-287.5 511,-287.5 517,-287.5 523,-293.5 523,-299.5 523,-299.5 523,-311.5 523,-311.5 523,-317.5 517,-323.5 511,-323.5 511,-323.5 356.75,-323.5 356.75,-323.5 350.75,-323.5 344.75,-317.5 344.75,-311.5 344.75,-311.5 344.75,-299.5 344.75,-299.5 344.75,-293.5 350.75,-287.5 356.75,-287.5"/>
<text text-anchor="middle" x="359.5" y="-300.2" font-family="Times New Roman,serif" font-size="14.00">36</text>
<polyline fill="none" stroke="#b15928" points="374.25,-287.75 374.25,-323.5"/>
<text text-anchor="middle" x="448.62" y="-300.2" font-family="Times New Roman,serif" font-size="14.00">Half&#45;Kneeling Hip Drop</text>
</a>
</g>
</g>
<!-- mov_kneelcapwindmill&#45;&gt;mov_kneelhipdrop -->
<g id="edge15" class="edge">
<title>mov_kneelcapwindmill&#45;&gt;mov_kneelhipdrop</title>
<path fill="none" stroke="black" d="M437.64,-362.58C437.07,-354.07 436.38,-343.77 435.74,-334.33"/>
<polygon fill="black" stroke="black" points="439.17,-334.17 435.01,-324.43 432.19,-334.64 439.17,-334.17"/>
</g>
<!-- mov_halfgu2hip -->
<g id="node21" class="node">
<title>mov_halfgu2hip</title>
<g id="a_node21"><a xlink:href="https://www.youtube.com/watch?v=KTDVl0Lkdc4&amp;list=PLk4oYPJ7TXKhX8YqA2AVrfgs_pEF6p7KA&amp;index=39" xlink:title="{{37|Half Get&#45;Up\nto Hip Pass}}">
<path fill="#ffff99" stroke="#b15928" d="M178.62,-285.75C178.62,-285.75 269.12,-285.75 269.12,-285.75 275.12,-285.75 281.12,-291.75 281.12,-297.75 281.12,-297.75 281.12,-313.25 281.12,-313.25 281.12,-319.25 275.12,-325.25 269.12,-325.25 269.12,-325.25 178.62,-325.25 178.62,-325.25 172.62,-325.25 166.62,-319.25 166.62,-313.25 166.62,-313.25 166.62,-297.75 166.62,-297.75 166.62,-291.75 172.62,-285.75 178.62,-285.75"/>
<text text-anchor="middle" x="181.38" y="-300.07" font-family="Times New Roman,serif" font-size="14.00">37</text>
<polyline fill="none" stroke="#b15928" points="196.12,-285.75 196.12,-325.25"/>
<text text-anchor="middle" x="238.62" y="-307.95" font-family="Times New Roman,serif" font-size="14.00">Half Get&#45;Up</text>
<text text-anchor="middle" x="238.62" y="-292.2" font-family="Times New Roman,serif" font-size="14.00">to Hip Pass</text>
</a>
</g>
</g>
<!-- mov_halfgu&#45;&gt;mov_halfgu2hip -->
<g id="edge26" class="edge">
<title>mov_halfgu&#45;&gt;mov_halfgu2hip</title>
<path fill="none" stroke="black" d="M223.88,-364.09C223.88,-355.76 223.88,-345.47 223.88,-335.91"/>
<polygon fill="black" stroke="black" points="227.38,-336.17 223.88,-326.17 220.38,-336.17 227.38,-336.17"/>
</g>
<!-- mov_cap2ohsblunge&#45;&gt;mov_tgd -->
<g id="edge17" class="edge">
<title>mov_cap2ohsblunge&#45;&gt;mov_tgd</title>
<path fill="none" stroke="black" d="M635.48,-286.04C627.97,-263.27 612.35,-224.64 586.88,-200.75 576.42,-190.94 563.51,-183.02 550.4,-176.71"/>
<polygon fill="black" stroke="black" points="551.93,-173.11 541.38,-172.2 549.06,-179.5 551.93,-173.11"/>
</g>
<!-- mov_cap2ohsblunge&#45;&gt;mov_tgu -->
<g id="edge18" class="edge">
<title>mov_cap2ohsblunge&#45;&gt;mov_tgu</title>
<path fill="none" stroke="black" d="M541.45,-285.96C463.06,-271.15 366.33,-252.37 362.88,-249.25 344.36,-232.55 337.53,-204.34 335.08,-183.16"/>
<polygon fill="black" stroke="black" points="338.48,-182.9 334.12,-173.25 331.51,-183.51 338.48,-182.9"/>
</g>
<!-- mov_kneelcap2hip -->
<g id="node22" class="node">
<title>mov_kneelcap2hip</title>
<g id="a_node22"><a xlink:href="https://www.youtube.com/watch?v=KTDVl0Lkdc4&amp;list=PLk4oYPJ7TXKhX8YqA2AVrfgs_pEF6p7KA&amp;index=40" xlink:title="{{38|Half&#45;Kneeling Clean &amp; Press\nto Hip Drop}}">
<path fill="#ffff99" stroke="#b15928" d="M383.88,-209.25C383.88,-209.25 565.88,-209.25 565.88,-209.25 571.88,-209.25 577.88,-215.25 577.88,-221.25 577.88,-221.25 577.88,-236.75 577.88,-236.75 577.88,-242.75 571.88,-248.75 565.88,-248.75 565.88,-248.75 383.88,-248.75 383.88,-248.75 377.88,-248.75 371.88,-242.75 371.88,-236.75 371.88,-236.75 371.88,-221.25 371.88,-221.25 371.88,-215.25 377.88,-209.25 383.88,-209.25"/>
<text text-anchor="middle" x="386.62" y="-223.57" font-family="Times New Roman,serif" font-size="14.00">38</text>
<polyline fill="none" stroke="#b15928" points="401.38,-209.25 401.38,-248.75"/>
<text text-anchor="middle" x="489.62" y="-231.45" font-family="Times New Roman,serif" font-size="14.00">Half&#45;Kneeling Clean &amp; Press</text>
<text text-anchor="middle" x="489.62" y="-215.7" font-family="Times New Roman,serif" font-size="14.00">to Hip Drop</text>
</a>
</g>
</g>
<!-- mov_kneelhipdrop&#45;&gt;mov_kneelcap2hip -->
<g id="edge16" class="edge">
<title>mov_kneelhipdrop&#45;&gt;mov_kneelcap2hip</title>
<path fill="none" stroke="black" d="M443.18,-287.59C447.96,-278.9 453.92,-268.08 459.38,-258.16"/>
<polygon fill="black" stroke="black" points="462.85,-260.12 464.6,-249.67 456.71,-256.74 462.85,-260.12"/>
</g>
<!-- mov_halfgu2kneel -->
<g id="node23" class="node">
<title>mov_halfgu2kneel</title>
<g id="a_node23"><a xlink:href="https://www.youtube.com/watch?v=KTDVl0Lkdc4&amp;list=PLk4oYPJ7TXKhX8YqA2AVrfgs_pEF6p7KA&amp;index=45" xlink:title="{{42|Half Get&#45;Up to Hip Pass\n(to Half&#45;Kneeling)}}">
<path fill="#ffff99" stroke="#b15928" d="M144.12,-209.25C144.12,-209.25 303.62,-209.25 303.62,-209.25 309.62,-209.25 315.62,-215.25 315.62,-221.25 315.62,-221.25 315.62,-236.75 315.62,-236.75 315.62,-242.75 309.62,-248.75 303.62,-248.75 303.62,-248.75 144.12,-248.75 144.12,-248.75 138.12,-248.75 132.12,-242.75 132.12,-236.75 132.12,-236.75 132.12,-221.25 132.12,-221.25 132.12,-215.25 138.12,-209.25 144.12,-209.25"/>
<text text-anchor="middle" x="146.88" y="-223.57" font-family="Times New Roman,serif" font-size="14.00">42</text>
<polyline fill="none" stroke="#b15928" points="161.62,-209.25 161.62,-248.75"/>
<text text-anchor="middle" x="238.62" y="-231.45" font-family="Times New Roman,serif" font-size="14.00">Half Get&#45;Up to Hip Pass</text>
<text text-anchor="middle" x="238.62" y="-215.7" font-family="Times New Roman,serif" font-size="14.00">(to Half&#45;Kneeling)</text>
</a>
</g>
</g>
<!-- mov_halfgu2hip&#45;&gt;mov_halfgu2kneel -->
<g id="edge27" class="edge">
<title>mov_halfgu2hip&#45;&gt;mov_halfgu2kneel</title>
<path fill="none" stroke="black" d="M223.88,-286.08C223.88,-278.09 223.88,-268.52 223.88,-259.56"/>
<polygon fill="black" stroke="black" points="227.38,-259.72 223.88,-249.72 220.38,-259.72 227.38,-259.72"/>
</g>
<!-- mov_kneelcap2hip&#45;&gt;mov_tgd -->
<g id="edge19" class="edge">
<title>mov_kneelcap2hip&#45;&gt;mov_tgd</title>
<path fill="none" stroke="black" d="M477.19,-209.27C478.19,-201.21 479.37,-191.64 480.47,-182.81"/>
<polygon fill="black" stroke="black" points="484.03,-183.53 481.78,-173.18 477.08,-182.68 484.03,-183.53"/>
</g>
<!-- mov_kneelcap2hip&#45;&gt;mov_tgu -->
<g id="edge20" class="edge">
<title>mov_kneelcap2hip&#45;&gt;mov_tgu</title>
<path fill="none" stroke="black" d="M438.56,-209.27C419.58,-199.47 396.23,-187.42 376.4,-177.19"/>
<polygon fill="black" stroke="black" points="378.18,-173.66 367.69,-172.18 374.97,-179.88 378.18,-173.66"/>
</g>
<!-- mov_halfgu2kneel&#45;&gt;mov_tgd -->
<g id="edge21" class="edge">
<title>mov_halfgu2kneel&#45;&gt;mov_tgd</title>
<path fill="none" stroke="black" d="M290.83,-209.27C328.24,-198.8 374.84,-185.76 412.88,-175.12"/>
<polygon fill="black" stroke="black" points="413.68,-178.25 422.37,-172.18 411.79,-171.5 413.68,-178.25"/>
</g>
<!-- mov_halfgu2kneel&#45;&gt;mov_tgu -->
<g id="edge22" class="edge">
<title>mov_halfgu2kneel&#45;&gt;mov_tgu</title>
<path fill="none" stroke="black" d="M252.2,-209.27C266.54,-199.78 284.07,-188.19 299.21,-178.18"/>
<polygon fill="black" stroke="black" points="300.87,-180.62 307.28,-172.18 297,-174.78 300.87,-180.62"/>
</g>
<!-- Legend -->
<g id="node24" class="node">
<title>Legend</title>
<path fill="#ffff99" stroke="none" d="M418.38,-99.75C418.38,-99.75 249.38,-99.75 249.38,-99.75 243.38,-99.75 237.38,-93.75 237.38,-87.75 237.38,-87.75 237.38,-35.75 237.38,-35.75 237.38,-29.75 243.38,-23.75 249.38,-23.75 249.38,-23.75 418.38,-23.75 418.38,-23.75 424.38,-23.75 430.38,-29.75 430.38,-35.75 430.38,-35.75 430.38,-87.75 430.38,-87.75 430.38,-93.75 424.38,-99.75 418.38,-99.75"/>
<polygon fill="none" stroke="#b15928" points="237.38,-73.75 237.38,-99.75 430.38,-99.75 430.38,-73.75 237.38,-73.75"/>
<text text-anchor="start" x="311.38" y="-82.45" font-family="Times New Roman,serif" font-weight="bold" font-size="14.00">Legend</text>
<polygon fill="none" stroke="#b15928" points="237.38,-48.75 237.38,-73.75 402.38,-73.75 402.38,-48.75 237.38,-48.75"/>
<text text-anchor="start" x="242.25" y="-55.45" font-family="Times New Roman,serif" font-size="14.00">Prerequisites and next steps</text>
<polygon fill="ghostwhite" stroke="none" points="402.38,-48.75 402.38,-73.75 430.38,-73.75 430.38,-48.75 402.38,-48.75"/>
<polygon fill="none" stroke="#b15928" points="402.38,-48.75 402.38,-73.75 430.38,-73.75 430.38,-48.75 402.38,-48.75"/>
<text text-anchor="start" x="407" y="-55.45" font-family="Times New Roman,serif" font-size="14.00">     </text>
<polygon fill="none" stroke="#b15928" points="237.38,-23.75 237.38,-48.75 402.38,-48.75 402.38,-23.75 237.38,-23.75"/>
<text text-anchor="start" x="305.25" y="-30.45" font-family="Times New Roman,serif" font-size="14.00">Drills</text>
<polygon fill="#ffff99" stroke="none" points="402.38,-23.75 402.38,-48.75 430.38,-48.75 430.38,-23.75 402.38,-23.75"/>
<polygon fill="none" stroke="#b15928" points="402.38,-23.75 402.38,-48.75 430.38,-48.75 430.38,-23.75 402.38,-23.75"/>
</g>
</g>
</svg>
