<?xml version="1.0" encoding="UTF-8" standalone="no"?>
<!DOCTYPE svg PUBLIC "-//W3C//DTD SVG 1.1//EN"
 "http://www.w3.org/Graphics/SVG/1.1/DTD/svg11.dtd">
<!-- Generated by graphviz version 9.0.0 (20230911.1827)
 -->
<!-- Title: kb_progression Pages: 1 -->
<svg width="1411pt" height="911pt"
 viewBox="0.00 0.00 1411.12 911.25" xmlns="http://www.w3.org/2000/svg" xmlns:xlink="http://www.w3.org/1999/xlink">
<g id="graph0" class="graph" transform="scale(1 1) rotate(0) translate(4 907.25)">
<title>kb_progression</title>
<polygon fill="white" stroke="none" points="-4,4 -4,-907.25 1407.12,-907.25 1407.12,4 -4,4"/>
<text text-anchor="start" x="1003.62" y="-145.7" font-family="Helvetica,Arial,sans-serif" font-weight="bold" font-size="14.00">Kettlebell Basic Skill Progression &#45; Part 4/4</text>
<text text-anchor="start" x="1003.62" y="-117.7" font-family="Helvetica,Arial,sans-serif" font-size="14.00">Diagram by dznz based on Mark Wildman&#39;s teachings.</text>
<text text-anchor="start" x="1003.62" y="-89.7" font-family="Helvetica,Arial,sans-serif" font-size="14.00">Source: </text>
<text text-anchor="start" x="1056.88" y="-89.7" font-family="Helvetica,Arial,sans-serif" font-weight="bold" font-size="14.00">https://github.com/dznz/wildman&#45;skill&#45;trees</text>
<text text-anchor="start" x="1003.62" y="-61.7" font-family="Helvetica,Arial,sans-serif" font-size="14.00">More by Mark Wildman &#45; </text>
<text text-anchor="start" x="1159.62" y="-61.7" font-family="Helvetica,Arial,sans-serif" font-weight="bold" font-size="14.00">https://www.wildmanathletica.com</text>
<text text-anchor="start" x="1003.62" y="-33.7" font-family="Helvetica,Arial,sans-serif" font-style="italic" font-size="14.00">© 2023. This work is openly licensed with CC BY&#45;NC&#45;SA 4.0</text>
<text text-anchor="start" x="1071.88" y="-19.7" font-family="Helvetica,Arial,sans-serif" font-style="italic" font-size="14.00">http://creativecommons.org/licenses/by&#45;nc&#45;sa/4.0/</text>
<text text-anchor="start" x="1195.62" y="-5.7" font-family="Helvetica,Arial,sans-serif" font-size="14.00"> &#160;</text>
<g id="clust2" class="cluster">
<title>cluster_double</title>
<polygon fill="none" stroke="black" points="141.62,-170 141.62,-773.75 698.62,-773.75 698.62,-170 141.62,-170"/>
<text text-anchor="middle" x="664" y="-756.45" font-family="Helvetica,Arial,sans-serif" font-size="14.00">Doubles</text>
</g>
<g id="clust3" class="cluster">
<title>cluster_snatch</title>
<polygon fill="none" stroke="black" points="865.62,-171.75 865.62,-526.12 1201.62,-526.12 1201.62,-171.75 865.62,-171.75"/>
<text text-anchor="middle" x="1171.88" y="-508.82" font-family="Helvetica,Arial,sans-serif" font-size="14.00">Snatch</text>
</g>
<!-- ext_hc_dblswing -->
<g id="node1" class="node">
<title>ext_hc_dblswing</title>
<path fill="ghostwhite" stroke="lightslategrey" d="M13.5,-549.5C13.5,-549.5 119.75,-549.5 119.75,-549.5 125.75,-549.5 131.75,-555.5 131.75,-561.5 131.75,-561.5 131.75,-573.5 131.75,-573.5 131.75,-579.5 125.75,-585.5 119.75,-585.5 119.75,-585.5 13.5,-585.5 13.5,-585.5 7.5,-585.5 1.5,-579.5 1.5,-573.5 1.5,-573.5 1.5,-561.5 1.5,-561.5 1.5,-555.5 7.5,-549.5 13.5,-549.5"/>
<text text-anchor="middle" x="19.25" y="-562.2" font-family="Times New Roman,serif" font-size="14.00">HC</text>
<polyline fill="none" stroke="lightslategrey" points="37,-549.75 37,-585.5"/>
<text text-anchor="middle" x="84.38" y="-562.2" font-family="Times New Roman,serif" font-size="14.00">Double Swing</text>
</g>
<!-- ext_hc_dblrockit -->
<g id="node2" class="node">
<title>ext_hc_dblrockit</title>
<path fill="ghostwhite" stroke="lightslategrey" d="M12,-457.12C12,-457.12 121.25,-457.12 121.25,-457.12 127.25,-457.12 133.25,-463.12 133.25,-469.12 133.25,-469.12 133.25,-481.12 133.25,-481.12 133.25,-487.12 127.25,-493.12 121.25,-493.12 121.25,-493.12 12,-493.12 12,-493.12 6,-493.12 0,-487.12 0,-481.12 0,-481.12 0,-469.12 0,-469.12 0,-463.12 6,-457.12 12,-457.12"/>
<text text-anchor="middle" x="17.75" y="-469.82" font-family="Times New Roman,serif" font-size="14.00">HC</text>
<polyline fill="none" stroke="lightslategrey" points="35.5,-457.38 35.5,-493.12"/>
<text text-anchor="middle" x="84.38" y="-469.82" font-family="Times New Roman,serif" font-size="14.00">Double Rockit</text>
</g>
<!-- ext_hc_dblswing&#45;&gt;ext_hc_dblrockit -->
<g id="edge1" class="edge">
<title>ext_hc_dblswing&#45;&gt;ext_hc_dblrockit</title>
<path fill="none" stroke="black" d="M66.62,-549.07C66.62,-536.57 66.62,-519.44 66.62,-504.92"/>
<polygon fill="black" stroke="black" points="70.13,-505.01 66.63,-495.01 63.13,-505.01 70.13,-505.01"/>
</g>
<!-- mov_63_dblrockit -->
<g id="node16" class="node">
<title>mov_63_dblrockit</title>
<g id="a_node16"><a xlink:href="https://www.youtube.com/watch?v=zXB6hFrrBkA&amp;list=PLk4oYPJ7TXKhX8YqA2AVrfgs_pEF6p7KA&amp;index=63" xlink:title="{{63|Double Rockit}}">
<path fill="#ffff99" stroke="#b15928" d="M162,-351C162,-351 265.25,-351 265.25,-351 271.25,-351 277.25,-357 277.25,-363 277.25,-363 277.25,-375 277.25,-375 277.25,-381 271.25,-387 265.25,-387 265.25,-387 162,-387 162,-387 156,-387 150,-381 150,-375 150,-375 150,-363 150,-363 150,-357 156,-351 162,-351"/>
<text text-anchor="middle" x="164.75" y="-363.7" font-family="Times New Roman,serif" font-size="14.00">63</text>
<polyline fill="none" stroke="#b15928" points="179.5,-351.25 179.5,-387"/>
<text text-anchor="middle" x="228.38" y="-363.7" font-family="Times New Roman,serif" font-size="14.00">Double Rockit</text>
</a>
</g>
</g>
<!-- ext_hc_dblrockit&#45;&gt;mov_63_dblrockit -->
<g id="edge2" class="edge">
<title>ext_hc_dblrockit&#45;&gt;mov_63_dblrockit</title>
<path fill="none" stroke="black" d="M91.23,-456.7C115.5,-439.5 152.8,-413.09 179.84,-393.93"/>
<polygon fill="black" stroke="black" points="181.57,-397 187.71,-388.36 177.52,-391.28 181.57,-397"/>
</g>
<!-- mov_01_deadlift -->
<g id="node3" class="node">
<title>mov_01_deadlift</title>
<g id="a_node3"><a xlink:href="https://www.youtube.com/watch?v=x0XkmM34BPI&amp;list=PLk4oYPJ7TXKhX8YqA2AVrfgs_pEF6p7KA&amp;index=1" xlink:title="{{KB&#45;01|Two Hand Deadlift}|HIP HINGE}">
<path fill="ghostwhite" stroke="lightslategrey" d="M648.62,-855.25C648.62,-855.25 800.62,-855.25 800.62,-855.25 806.62,-855.25 812.62,-861.25 812.62,-867.25 812.62,-867.25 812.62,-890.75 812.62,-890.75 812.62,-896.75 806.62,-902.75 800.62,-902.75 800.62,-902.75 648.62,-902.75 648.62,-902.75 642.62,-902.75 636.62,-896.75 636.62,-890.75 636.62,-890.75 636.62,-867.25 636.62,-867.25 636.62,-861.25 642.62,-855.25 648.62,-855.25"/>
<text text-anchor="middle" x="663" y="-885.45" font-family="Times New Roman,serif" font-size="14.00">KB&#45;01</text>
<polyline fill="none" stroke="lightslategrey" points="689.38,-879 689.38,-902.75"/>
<text text-anchor="middle" x="751" y="-885.45" font-family="Times New Roman,serif" font-size="14.00">Two Hand Deadlift</text>
<polyline fill="none" stroke="lightslategrey" points="636.62,-879 812.62,-879"/>
<text text-anchor="middle" x="724.62" y="-861.7" font-family="Times New Roman,serif" font-size="14.00">HIP HINGE</text>
</a>
</g>
</g>
<!-- mov_56_suitcasedl -->
<g id="node9" class="node">
<title>mov_56_suitcasedl</title>
<g id="a_node9"><a xlink:href="https://www.youtube.com/watch?v=d6i6MwVOmk0&amp;list=PLk4oYPJ7TXKhX8YqA2AVrfgs_pEF6p7KA&amp;index=58" xlink:title="{{56|Suitcase Deadlift}}">
<path fill="#ffff99" stroke="#b15928" d="M667,-782.25C667,-782.25 782.25,-782.25 782.25,-782.25 788.25,-782.25 794.25,-788.25 794.25,-794.25 794.25,-794.25 794.25,-806.25 794.25,-806.25 794.25,-812.25 788.25,-818.25 782.25,-818.25 782.25,-818.25 667,-818.25 667,-818.25 661,-818.25 655,-812.25 655,-806.25 655,-806.25 655,-794.25 655,-794.25 655,-788.25 661,-782.25 667,-782.25"/>
<text text-anchor="middle" x="669.75" y="-794.95" font-family="Times New Roman,serif" font-size="14.00">56</text>
<polyline fill="none" stroke="#b15928" points="684.5,-782.5 684.5,-818.25"/>
<text text-anchor="middle" x="739.38" y="-794.95" font-family="Times New Roman,serif" font-size="14.00">Suitcase Deadlift</text>
</a>
</g>
</g>
<!-- mov_01_deadlift&#45;&gt;mov_56_suitcasedl -->
<g id="edge10" class="edge">
<title>mov_01_deadlift&#45;&gt;mov_56_suitcasedl</title>
<path fill="none" stroke="black" d="M724.62,-854.97C724.62,-847.14 724.62,-838.29 724.62,-830.06"/>
<polygon fill="black" stroke="black" points="728.13,-830.16 724.63,-820.16 721.13,-830.16 728.13,-830.16"/>
</g>
<!-- mov_10_h2h -->
<g id="node4" class="node">
<title>mov_10_h2h</title>
<g id="a_node4"><a xlink:href="https://www.youtube.com/watch?v=0Uk0Rdm3QFs&amp;list=PLk4oYPJ7TXKhX8YqA2AVrfgs_pEF6p7KA&amp;index=10" xlink:title="{{KB&#45;10|Hand to Hand\nTransition}}">
<path fill="ghostwhite" stroke="lightslategrey" d="M719.88,-628.25C719.88,-628.25 843.38,-628.25 843.38,-628.25 849.38,-628.25 855.38,-634.25 855.38,-640.25 855.38,-640.25 855.38,-655.75 855.38,-655.75 855.38,-661.75 849.38,-667.75 843.38,-667.75 843.38,-667.75 719.88,-667.75 719.88,-667.75 713.88,-667.75 707.88,-661.75 707.88,-655.75 707.88,-655.75 707.88,-640.25 707.88,-640.25 707.88,-634.25 713.88,-628.25 719.88,-628.25"/>
<text text-anchor="middle" x="734.25" y="-642.58" font-family="Times New Roman,serif" font-size="14.00">KB&#45;10</text>
<polyline fill="none" stroke="lightslategrey" points="760.62,-628.25 760.62,-667.75"/>
<text text-anchor="middle" x="808" y="-650.45" font-family="Times New Roman,serif" font-size="14.00">Hand to Hand</text>
<text text-anchor="middle" x="808" y="-634.7" font-family="Times New Roman,serif" font-size="14.00">Transition</text>
</a>
</g>
</g>
<!-- mov_60_dblswing -->
<g id="node13" class="node">
<title>mov_60_dblswing</title>
<g id="a_node13"><a xlink:href="https://www.youtube.com/watch?v=P5IFTJySA_s&amp;list=PLk4oYPJ7TXKhX8YqA2AVrfgs_pEF6p7KA&amp;index=61" xlink:title="{{60|Double Swing}}">
<path fill="#ffff99" stroke="#b15928" d="M554.5,-549.5C554.5,-549.5 654.75,-549.5 654.75,-549.5 660.75,-549.5 666.75,-555.5 666.75,-561.5 666.75,-561.5 666.75,-573.5 666.75,-573.5 666.75,-579.5 660.75,-585.5 654.75,-585.5 654.75,-585.5 554.5,-585.5 554.5,-585.5 548.5,-585.5 542.5,-579.5 542.5,-573.5 542.5,-573.5 542.5,-561.5 542.5,-561.5 542.5,-555.5 548.5,-549.5 554.5,-549.5"/>
<text text-anchor="middle" x="557.25" y="-562.2" font-family="Times New Roman,serif" font-size="14.00">60</text>
<polyline fill="none" stroke="#b15928" points="572,-549.75 572,-585.5"/>
<text text-anchor="middle" x="619.38" y="-562.2" font-family="Times New Roman,serif" font-size="14.00">Double Swing</text>
</a>
</g>
</g>
<!-- mov_10_h2h&#45;&gt;mov_60_dblswing -->
<g id="edge3" class="edge">
<title>mov_10_h2h&#45;&gt;mov_60_dblswing</title>
<path fill="none" stroke="black" d="M738.33,-627.8C712.85,-616.5 680.54,-602.17 654.06,-590.42"/>
<polygon fill="black" stroke="black" points="655.8,-587.37 645.24,-586.51 652.96,-593.77 655.8,-587.37"/>
</g>
<!-- mov_12_clean -->
<g id="node5" class="node">
<title>mov_12_clean</title>
<g id="a_node5"><a xlink:href="https://www.youtube.com/watch?v=_nIsSXWs5iU&amp;list=PLk4oYPJ7TXKhX8YqA2AVrfgs_pEF6p7KA&amp;index=12" xlink:title="KB&#45;12|Swing Clean">
<path fill="ghostwhite" stroke="lightslategrey" d="M894.38,-630C894.38,-630 1008.88,-630 1008.88,-630 1014.88,-630 1020.88,-636 1020.88,-642 1020.88,-642 1020.88,-654 1020.88,-654 1020.88,-660 1014.88,-666 1008.88,-666 1008.88,-666 894.38,-666 894.38,-666 888.38,-666 882.38,-660 882.38,-654 882.38,-654 882.38,-642 882.38,-642 882.38,-636 888.38,-630 894.38,-630"/>
<text text-anchor="middle" x="908.75" y="-642.58" font-family="Times New Roman,serif" font-size="14.00">KB&#45;12</text>
<polyline fill="none" stroke="lightslategrey" points="935.12,-630 935.12,-666"/>
<text text-anchor="middle" x="978" y="-642.58" font-family="Times New Roman,serif" font-size="14.00">Swing Clean</text>
</a>
</g>
</g>
<!-- mov_16_startstopclean -->
<g id="node6" class="node">
<title>mov_16_startstopclean</title>
<g id="a_node6"><a xlink:href="https://www.youtube.com/watch?v=XbK3jxI0WNQ&amp;list=PLk4oYPJ7TXKhX8YqA2AVrfgs_pEF6p7KA&amp;index=16" xlink:title="{{KB&#45;16|Start Stop Clean}|START &amp; END CLEAN}">
<path fill="ghostwhite" stroke="lightslategrey" d="M719.12,-543.75C719.12,-543.75 856.12,-543.75 856.12,-543.75 862.12,-543.75 868.12,-549.75 868.12,-555.75 868.12,-555.75 868.12,-579.25 868.12,-579.25 868.12,-585.25 862.12,-591.25 856.12,-591.25 856.12,-591.25 719.12,-591.25 719.12,-591.25 713.12,-591.25 707.12,-585.25 707.12,-579.25 707.12,-579.25 707.12,-555.75 707.12,-555.75 707.12,-549.75 713.12,-543.75 719.12,-543.75"/>
<text text-anchor="middle" x="733.5" y="-573.95" font-family="Times New Roman,serif" font-size="14.00">KB&#45;16</text>
<polyline fill="none" stroke="lightslategrey" points="759.88,-567.5 759.88,-591.25"/>
<text text-anchor="middle" x="814" y="-573.95" font-family="Times New Roman,serif" font-size="14.00">Start Stop Clean</text>
<polyline fill="none" stroke="lightslategrey" points="707.12,-567.5 868.12,-567.5"/>
<text text-anchor="middle" x="787.62" y="-550.2" font-family="Times New Roman,serif" font-size="14.00">START &amp; END CLEAN</text>
</a>
</g>
</g>
<!-- mov_12_clean&#45;&gt;mov_16_startstopclean -->
<g id="edge4" class="edge">
<title>mov_12_clean&#45;&gt;mov_16_startstopclean</title>
<path fill="none" stroke="black" d="M915.23,-629.58C895.02,-619.9 869.38,-607.63 846.4,-596.63"/>
<polygon fill="black" stroke="black" points="847.95,-593.5 837.42,-592.34 844.93,-599.81 847.95,-593.5"/>
</g>
<!-- mov_17_cap -->
<g id="node7" class="node">
<title>mov_17_cap</title>
<g id="a_node7"><a xlink:href="https://www.youtube.com/watch?v=SSxB3m5qRas&amp;list=PLk4oYPJ7TXKhX8YqA2AVrfgs_pEF6p7KA&amp;index=17" xlink:title="KB&#45;17|Clean &amp; Press">
<path fill="ghostwhite" stroke="lightslategrey" d="M897.75,-549.5C897.75,-549.5 1023.5,-549.5 1023.5,-549.5 1029.5,-549.5 1035.5,-555.5 1035.5,-561.5 1035.5,-561.5 1035.5,-573.5 1035.5,-573.5 1035.5,-579.5 1029.5,-585.5 1023.5,-585.5 1023.5,-585.5 897.75,-585.5 897.75,-585.5 891.75,-585.5 885.75,-579.5 885.75,-573.5 885.75,-573.5 885.75,-561.5 885.75,-561.5 885.75,-555.5 891.75,-549.5 897.75,-549.5"/>
<text text-anchor="middle" x="912.12" y="-562.08" font-family="Times New Roman,serif" font-size="14.00">KB&#45;17</text>
<polyline fill="none" stroke="lightslategrey" points="938.5,-549.5 938.5,-585.5"/>
<text text-anchor="middle" x="987" y="-562.08" font-family="Times New Roman,serif" font-size="14.00">Clean &amp; Press</text>
</a>
</g>
</g>
<!-- mov_12_clean&#45;&gt;mov_17_cap -->
<g id="edge5" class="edge">
<title>mov_12_clean&#45;&gt;mov_17_cap</title>
<path fill="none" stroke="black" d="M953.62,-629.58C954.72,-620.02 956.1,-607.94 957.35,-597.05"/>
<polygon fill="black" stroke="black" points="960.8,-597.71 958.46,-587.38 953.84,-596.91 960.8,-597.71"/>
</g>
<!-- mov_59_halfsnatchdown -->
<g id="node12" class="node">
<title>mov_59_halfsnatchdown</title>
<g id="a_node12"><a xlink:href="https://www.youtube.com/watch?v=u2NbMtX_Rb0&amp;list=PLk4oYPJ7TXKhX8YqA2AVrfgs_pEF6p7KA&amp;index=60" xlink:title="{{59|Half Snatch Down}}">
<path fill="#ffff99" stroke="#b15928" d="M886.5,-457.12C886.5,-457.12 1010.75,-457.12 1010.75,-457.12 1016.75,-457.12 1022.75,-463.12 1022.75,-469.12 1022.75,-469.12 1022.75,-481.12 1022.75,-481.12 1022.75,-487.12 1016.75,-493.12 1010.75,-493.12 1010.75,-493.12 886.5,-493.12 886.5,-493.12 880.5,-493.12 874.5,-487.12 874.5,-481.12 874.5,-481.12 874.5,-469.12 874.5,-469.12 874.5,-463.12 880.5,-457.12 886.5,-457.12"/>
<text text-anchor="middle" x="889.25" y="-469.82" font-family="Times New Roman,serif" font-size="14.00">59</text>
<polyline fill="none" stroke="#b15928" points="904,-457.38 904,-493.12"/>
<text text-anchor="middle" x="963.38" y="-469.82" font-family="Times New Roman,serif" font-size="14.00">Half Snatch Down</text>
</a>
</g>
</g>
<!-- mov_16_startstopclean&#45;&gt;mov_59_halfsnatchdown -->
<g id="edge8" class="edge">
<title>mov_16_startstopclean&#45;&gt;mov_59_halfsnatchdown</title>
<path fill="none" stroke="black" d="M833.67,-543.29C844.24,-537.79 855.38,-531.86 865.62,-526.12 880.78,-517.65 897.2,-507.89 911.4,-499.25"/>
<polygon fill="black" stroke="black" points="912.85,-502.47 919.55,-494.26 909.19,-496.49 912.85,-502.47"/>
</g>
<!-- mov_62_dblclean -->
<g id="node15" class="node">
<title>mov_62_dblclean</title>
<g id="a_node15"><a xlink:href="https://www.youtube.com/watch?v=Qe9ejhAtdGY&amp;list=PLk4oYPJ7TXKhX8YqA2AVrfgs_pEF6p7KA&amp;index=62" xlink:title="{{62|Double Clean}}">
<path fill="#ffff99" stroke="#b15928" d="M556,-457.12C556,-457.12 653.25,-457.12 653.25,-457.12 659.25,-457.12 665.25,-463.12 665.25,-469.12 665.25,-469.12 665.25,-481.12 665.25,-481.12 665.25,-487.12 659.25,-493.12 653.25,-493.12 653.25,-493.12 556,-493.12 556,-493.12 550,-493.12 544,-487.12 544,-481.12 544,-481.12 544,-469.12 544,-469.12 544,-463.12 550,-457.12 556,-457.12"/>
<text text-anchor="middle" x="558.75" y="-469.82" font-family="Times New Roman,serif" font-size="14.00">62</text>
<polyline fill="none" stroke="#b15928" points="573.5,-457.38 573.5,-493.12"/>
<text text-anchor="middle" x="619.38" y="-469.82" font-family="Times New Roman,serif" font-size="14.00">Double Clean</text>
</a>
</g>
</g>
<!-- mov_16_startstopclean&#45;&gt;mov_62_dblclean -->
<g id="edge7" class="edge">
<title>mov_16_startstopclean&#45;&gt;mov_62_dblclean</title>
<path fill="none" stroke="black" d="M734.51,-543.43C722.31,-537.92 709.46,-531.95 697.62,-526.12 680.33,-517.61 661.55,-507.65 645.42,-498.87"/>
<polygon fill="black" stroke="black" points="647.54,-496.04 637.09,-494.31 644.18,-502.18 647.54,-496.04"/>
</g>
<!-- mov_19_startstopcap -->
<g id="node8" class="node">
<title>mov_19_startstopcap</title>
<g id="a_node8"><a xlink:href="https://www.youtube.com/watch?v=dSj3kqbuois&amp;list=PLk4oYPJ7TXKhX8YqA2AVrfgs_pEF6p7KA&amp;index=19" xlink:title="{{KB&#45;19|Start Stop\nClean &amp; Press}|START &amp; END C&amp;P}">
<path fill="ghostwhite" stroke="lightslategrey" d="M718.75,-443.5C718.75,-443.5 844.5,-443.5 844.5,-443.5 850.5,-443.5 856.5,-449.5 856.5,-455.5 856.5,-455.5 856.5,-494.75 856.5,-494.75 856.5,-500.75 850.5,-506.75 844.5,-506.75 844.5,-506.75 718.75,-506.75 718.75,-506.75 712.75,-506.75 706.75,-500.75 706.75,-494.75 706.75,-494.75 706.75,-455.5 706.75,-455.5 706.75,-449.5 712.75,-443.5 718.75,-443.5"/>
<text text-anchor="middle" x="733.12" y="-481.57" font-family="Times New Roman,serif" font-size="14.00">KB&#45;19</text>
<polyline fill="none" stroke="lightslategrey" points="759.5,-467.25 759.5,-506.75"/>
<text text-anchor="middle" x="808" y="-489.45" font-family="Times New Roman,serif" font-size="14.00">Start Stop</text>
<text text-anchor="middle" x="808" y="-473.7" font-family="Times New Roman,serif" font-size="14.00">Clean &amp; Press</text>
<polyline fill="none" stroke="lightslategrey" points="706.75,-467.25 856.5,-467.25"/>
<text text-anchor="middle" x="781.62" y="-449.95" font-family="Times New Roman,serif" font-size="14.00">START &amp; END C&amp;P</text>
</a>
</g>
</g>
<!-- mov_17_cap&#45;&gt;mov_19_startstopcap -->
<g id="edge6" class="edge">
<title>mov_17_cap&#45;&gt;mov_19_startstopcap</title>
<path fill="none" stroke="black" d="M913.05,-549.01C896.5,-542.43 877.98,-534.5 861.62,-526.12 853.83,-522.14 845.81,-517.64 837.99,-513.01"/>
<polygon fill="black" stroke="black" points="839.89,-510.07 829.52,-507.89 836.27,-516.06 839.89,-510.07"/>
</g>
<!-- mov_65_dblcap -->
<g id="node18" class="node">
<title>mov_65_dblcap</title>
<g id="a_node18"><a xlink:href="https://www.youtube.com/watch?v=RizGV8ef--s" xlink:title="{{65|Double\nClean &amp; Press}}">
<path fill="#ffff99" stroke="#b15928" d="M576.38,-349.25C576.38,-349.25 678.88,-349.25 678.88,-349.25 684.88,-349.25 690.88,-355.25 690.88,-361.25 690.88,-361.25 690.88,-376.75 690.88,-376.75 690.88,-382.75 684.88,-388.75 678.88,-388.75 678.88,-388.75 576.38,-388.75 576.38,-388.75 570.38,-388.75 564.38,-382.75 564.38,-376.75 564.38,-376.75 564.38,-361.25 564.38,-361.25 564.38,-355.25 570.38,-349.25 576.38,-349.25"/>
<text text-anchor="middle" x="579.12" y="-363.57" font-family="Times New Roman,serif" font-size="14.00">65</text>
<polyline fill="none" stroke="#b15928" points="593.88,-349.25 593.88,-388.75"/>
<text text-anchor="middle" x="642.38" y="-371.45" font-family="Times New Roman,serif" font-size="14.00">Double</text>
<text text-anchor="middle" x="642.38" y="-355.7" font-family="Times New Roman,serif" font-size="14.00">Clean &amp; Press</text>
</a>
</g>
</g>
<!-- mov_19_startstopcap&#45;&gt;mov_65_dblcap -->
<g id="edge9" class="edge">
<title>mov_19_startstopcap&#45;&gt;mov_65_dblcap</title>
<path fill="none" stroke="black" d="M735.84,-443.17C713.39,-427.99 686.67,-409.92 665.41,-395.55"/>
<polygon fill="black" stroke="black" points="667.55,-392.77 657.31,-390.07 663.63,-398.57 667.55,-392.77"/>
</g>
<!-- mov_57_dblsuitcase -->
<g id="node10" class="node">
<title>mov_57_dblsuitcase</title>
<g id="a_node10"><a xlink:href="https://www.youtube.com/watch?v=4PSOSrDcGfc&amp;list=PLk4oYPJ7TXKhX8YqA2AVrfgs_pEF6p7KA&amp;index=59" xlink:title="{{57|Double Suitcase}}">
<path fill="#ffff99" stroke="#b15928" d="M556.5,-704.75C556.5,-704.75 668.75,-704.75 668.75,-704.75 674.75,-704.75 680.75,-710.75 680.75,-716.75 680.75,-716.75 680.75,-728.75 680.75,-728.75 680.75,-734.75 674.75,-740.75 668.75,-740.75 668.75,-740.75 556.5,-740.75 556.5,-740.75 550.5,-740.75 544.5,-734.75 544.5,-728.75 544.5,-728.75 544.5,-716.75 544.5,-716.75 544.5,-710.75 550.5,-704.75 556.5,-704.75"/>
<text text-anchor="middle" x="559.25" y="-717.45" font-family="Times New Roman,serif" font-size="14.00">57</text>
<polyline fill="none" stroke="#b15928" points="574,-705 574,-740.75"/>
<text text-anchor="middle" x="627.38" y="-717.45" font-family="Times New Roman,serif" font-size="14.00">Double Suitcase</text>
</a>
</g>
</g>
<!-- mov_56_suitcasedl&#45;&gt;mov_57_dblsuitcase -->
<g id="edge11" class="edge">
<title>mov_56_suitcasedl&#45;&gt;mov_57_dblsuitcase</title>
<path fill="none" stroke="black" d="M698.93,-781.93C683.71,-771.67 664.21,-758.52 647.59,-747.32"/>
<polygon fill="black" stroke="black" points="649.7,-744.52 639.46,-741.84 645.79,-750.33 649.7,-744.52"/>
</g>
<!-- mov_73_2hsbldl -->
<g id="node25" class="node">
<title>mov_73_2hsbldl</title>
<g id="a_node25"><a xlink:href="https://www.youtube.com/watch?v=-RD1qqe7P8M" xlink:title="{{73|Two Hand Single Bent Leg Deadlift}}">
<path fill="#ffff99" stroke="#b15928" d="M718.5,-704.75C718.5,-704.75 938.75,-704.75 938.75,-704.75 944.75,-704.75 950.75,-710.75 950.75,-716.75 950.75,-716.75 950.75,-728.75 950.75,-728.75 950.75,-734.75 944.75,-740.75 938.75,-740.75 938.75,-740.75 718.5,-740.75 718.5,-740.75 712.5,-740.75 706.5,-734.75 706.5,-728.75 706.5,-728.75 706.5,-716.75 706.5,-716.75 706.5,-710.75 712.5,-704.75 718.5,-704.75"/>
<text text-anchor="middle" x="721.25" y="-717.45" font-family="Times New Roman,serif" font-size="14.00">73</text>
<polyline fill="none" stroke="#b15928" points="736,-705 736,-740.75"/>
<text text-anchor="middle" x="843.38" y="-717.45" font-family="Times New Roman,serif" font-size="14.00">Two Hand Single Bent Leg Deadlift</text>
</a>
</g>
</g>
<!-- mov_56_suitcasedl&#45;&gt;mov_73_2hsbldl -->
<g id="edge12" class="edge">
<title>mov_56_suitcasedl&#45;&gt;mov_73_2hsbldl</title>
<path fill="none" stroke="black" d="M748.48,-781.93C762.49,-771.76 780.39,-758.77 795.72,-747.64"/>
<polygon fill="black" stroke="black" points="797.62,-750.59 803.65,-741.88 793.5,-744.92 797.62,-750.59"/>
</g>
<!-- mov_58_dblsumodl -->
<g id="node11" class="node">
<title>mov_58_dblsumodl</title>
<g id="a_node11"><a xlink:href="https://www.youtube.com/watch?v=gdutIla6nMw" xlink:title="{{58|Double Sumo Deadlift}}">
<path fill="#ffff99" stroke="#b15928" d="M531.62,-630C531.62,-630 677.62,-630 677.62,-630 683.62,-630 689.62,-636 689.62,-642 689.62,-642 689.62,-654 689.62,-654 689.62,-660 683.62,-666 677.62,-666 677.62,-666 531.62,-666 531.62,-666 525.62,-666 519.62,-660 519.62,-654 519.62,-654 519.62,-642 519.62,-642 519.62,-636 525.62,-630 531.62,-630"/>
<text text-anchor="middle" x="534.38" y="-642.7" font-family="Times New Roman,serif" font-size="14.00">58</text>
<polyline fill="none" stroke="#b15928" points="549.12,-630.25 549.12,-666"/>
<text text-anchor="middle" x="619.38" y="-642.7" font-family="Times New Roman,serif" font-size="14.00">Double Sumo Deadlift</text>
</a>
</g>
</g>
<!-- mov_57_dblsuitcase&#45;&gt;mov_58_dblsumodl -->
<g id="edge14" class="edge">
<title>mov_57_dblsuitcase&#45;&gt;mov_58_dblsumodl</title>
<path fill="none" stroke="black" d="M610.73,-704.51C609.85,-696.5 608.78,-686.77 607.78,-677.7"/>
<polygon fill="black" stroke="black" points="611.27,-677.43 606.7,-667.87 604.31,-678.2 611.27,-677.43"/>
</g>
<!-- mov_58_dblsumodl&#45;&gt;mov_60_dblswing -->
<g id="edge20" class="edge">
<title>mov_58_dblsumodl&#45;&gt;mov_60_dblswing</title>
<path fill="none" stroke="black" d="M604.62,-629.58C604.62,-620.02 604.62,-607.94 604.62,-597.05"/>
<polygon fill="black" stroke="black" points="608.13,-597.39 604.63,-587.39 601.13,-597.39 608.13,-597.39"/>
</g>
<!-- mov_61_halfsnatchup -->
<g id="node14" class="node">
<title>mov_61_halfsnatchup</title>
<g id="a_node14"><a xlink:href="https://www.youtube.com/watch?v=3HEmUyLYjjc" xlink:title="{{61|Half Snatch Up}}">
<path fill="#ffff99" stroke="#b15928" d="M894.75,-351C894.75,-351 1002.5,-351 1002.5,-351 1008.5,-351 1014.5,-357 1014.5,-363 1014.5,-363 1014.5,-375 1014.5,-375 1014.5,-381 1008.5,-387 1002.5,-387 1002.5,-387 894.75,-387 894.75,-387 888.75,-387 882.75,-381 882.75,-375 882.75,-375 882.75,-363 882.75,-363 882.75,-357 888.75,-351 894.75,-351"/>
<text text-anchor="middle" x="897.5" y="-363.7" font-family="Times New Roman,serif" font-size="14.00">61</text>
<polyline fill="none" stroke="#b15928" points="912.25,-351.25 912.25,-387"/>
<text text-anchor="middle" x="963.38" y="-363.7" font-family="Times New Roman,serif" font-size="14.00">Half Snatch Up</text>
</a>
</g>
</g>
<!-- mov_59_halfsnatchdown&#45;&gt;mov_61_halfsnatchup -->
<g id="edge23" class="edge">
<title>mov_59_halfsnatchdown&#45;&gt;mov_61_halfsnatchup</title>
<path fill="none" stroke="black" d="M948.62,-456.93C948.62,-441.1 948.62,-417.32 948.62,-398.63"/>
<polygon fill="black" stroke="black" points="952.13,-398.73 948.63,-388.73 945.13,-398.73 952.13,-398.73"/>
</g>
<!-- mov_60_dblswing&#45;&gt;mov_62_dblclean -->
<g id="edge15" class="edge">
<title>mov_60_dblswing&#45;&gt;mov_62_dblclean</title>
<path fill="none" stroke="black" d="M604.62,-549.07C604.62,-536.57 604.62,-519.44 604.62,-504.92"/>
<polygon fill="black" stroke="black" points="608.13,-505.01 604.63,-495.01 601.13,-505.01 608.13,-505.01"/>
</g>
<!-- mov_64_dbloutswing -->
<g id="node17" class="node">
<title>mov_64_dbloutswing</title>
<g id="a_node17"><a xlink:href="https://www.youtube.com/watch?v=yr_fRgGevsE" xlink:title="{{64|Double\nOutside Swing}}">
<path fill="#ffff99" stroke="#b15928" d="M288,-455.38C288,-455.38 391.25,-455.38 391.25,-455.38 397.25,-455.38 403.25,-461.38 403.25,-467.38 403.25,-467.38 403.25,-482.88 403.25,-482.88 403.25,-488.88 397.25,-494.88 391.25,-494.88 391.25,-494.88 288,-494.88 288,-494.88 282,-494.88 276,-488.88 276,-482.88 276,-482.88 276,-467.38 276,-467.38 276,-461.38 282,-455.38 288,-455.38"/>
<text text-anchor="middle" x="290.75" y="-469.7" font-family="Times New Roman,serif" font-size="14.00">64</text>
<polyline fill="none" stroke="#b15928" points="305.5,-455.38 305.5,-494.88"/>
<text text-anchor="middle" x="354.38" y="-477.57" font-family="Times New Roman,serif" font-size="14.00">Double</text>
<text text-anchor="middle" x="354.38" y="-461.82" font-family="Times New Roman,serif" font-size="14.00">Outside Swing</text>
</a>
</g>
</g>
<!-- mov_60_dblswing&#45;&gt;mov_64_dbloutswing -->
<g id="edge21" class="edge">
<title>mov_60_dblswing&#45;&gt;mov_64_dbloutswing</title>
<path fill="none" stroke="black" d="M553.53,-549.07C511.76,-534.83 452.36,-514.57 406.75,-499.02"/>
<polygon fill="black" stroke="black" points="408.09,-495.78 397.5,-495.86 405.84,-502.4 408.09,-495.78"/>
</g>
<!-- mov_66_snatch -->
<g id="node19" class="node">
<title>mov_66_snatch</title>
<g id="a_node19"><a xlink:href="https://www.youtube.com/watch?v=f-zkPiAlpQw&amp;list=PLk4oYPJ7TXKhX8YqA2AVrfgs_pEF6p7KA&amp;index=65" xlink:title="{{66|Full Snatch}}">
<path fill="#ffff99" stroke="#b15928" d="M906.38,-256.75C906.38,-256.75 990.88,-256.75 990.88,-256.75 996.88,-256.75 1002.88,-262.75 1002.88,-268.75 1002.88,-268.75 1002.88,-280.75 1002.88,-280.75 1002.88,-286.75 996.88,-292.75 990.88,-292.75 990.88,-292.75 906.38,-292.75 906.38,-292.75 900.38,-292.75 894.38,-286.75 894.38,-280.75 894.38,-280.75 894.38,-268.75 894.38,-268.75 894.38,-262.75 900.38,-256.75 906.38,-256.75"/>
<text text-anchor="middle" x="909.12" y="-269.45" font-family="Times New Roman,serif" font-size="14.00">66</text>
<polyline fill="none" stroke="#b15928" points="923.88,-257 923.88,-292.75"/>
<text text-anchor="middle" x="963.38" y="-269.45" font-family="Times New Roman,serif" font-size="14.00">Full Snatch</text>
</a>
</g>
</g>
<!-- mov_61_halfsnatchup&#45;&gt;mov_66_snatch -->
<g id="edge24" class="edge">
<title>mov_61_halfsnatchup&#45;&gt;mov_66_snatch</title>
<path fill="none" stroke="black" d="M948.62,-350.65C948.62,-337.63 948.62,-319.53 948.62,-304.38"/>
<polygon fill="black" stroke="black" points="952.13,-304.54 948.63,-294.54 945.13,-304.54 952.13,-304.54"/>
</g>
<!-- mov_62_dblclean&#45;&gt;mov_65_dblcap -->
<g id="edge16" class="edge">
<title>mov_62_dblclean&#45;&gt;mov_65_dblcap</title>
<path fill="none" stroke="black" d="M608.42,-456.93C611.83,-441.51 616.91,-418.52 620.98,-400.06"/>
<polygon fill="black" stroke="black" points="624.37,-400.98 623.11,-390.46 617.53,-399.47 624.37,-400.98"/>
</g>
<!-- mov_67_dblsquat -->
<g id="node20" class="node">
<title>mov_67_dblsquat</title>
<g id="a_node20"><a xlink:href="https://www.youtube.com/watch?v=dX5yXJa5Dm0&amp;list=PLk4oYPJ7TXKhX8YqA2AVrfgs_pEF6p7KA&amp;index=66" xlink:title="{{67|Double\nFront Squat}}">
<path fill="#ffff99" stroke="#b15928" d="M446.5,-349.25C446.5,-349.25 534.75,-349.25 534.75,-349.25 540.75,-349.25 546.75,-355.25 546.75,-361.25 546.75,-361.25 546.75,-376.75 546.75,-376.75 546.75,-382.75 540.75,-388.75 534.75,-388.75 534.75,-388.75 446.5,-388.75 446.5,-388.75 440.5,-388.75 434.5,-382.75 434.5,-376.75 434.5,-376.75 434.5,-361.25 434.5,-361.25 434.5,-355.25 440.5,-349.25 446.5,-349.25"/>
<text text-anchor="middle" x="449.25" y="-363.57" font-family="Times New Roman,serif" font-size="14.00">67</text>
<polyline fill="none" stroke="#b15928" points="464,-349.25 464,-388.75"/>
<text text-anchor="middle" x="505.38" y="-371.45" font-family="Times New Roman,serif" font-size="14.00">Double</text>
<text text-anchor="middle" x="505.38" y="-355.7" font-family="Times New Roman,serif" font-size="14.00">Front Squat</text>
</a>
</g>
</g>
<!-- mov_62_dblclean&#45;&gt;mov_67_dblsquat -->
<g id="edge17" class="edge">
<title>mov_62_dblclean&#45;&gt;mov_67_dblsquat</title>
<path fill="none" stroke="black" d="M585.54,-456.7C567.57,-440.28 540.4,-415.47 519.73,-396.58"/>
<polygon fill="black" stroke="black" points="522.17,-394.08 512.43,-389.92 517.45,-399.24 522.17,-394.08"/>
</g>
<!-- mov_71_deaddblclean -->
<g id="node24" class="node">
<title>mov_71_deaddblclean</title>
<g id="a_node24"><a xlink:href="https://www.youtube.com/watch?v=22bKQqMqAQY" xlink:title="{{71|Dead Stop\nDouble Clean}}">
<path fill="#ffff99" stroke="#b15928" d="M307,-349.25C307,-349.25 404.25,-349.25 404.25,-349.25 410.25,-349.25 416.25,-355.25 416.25,-361.25 416.25,-361.25 416.25,-376.75 416.25,-376.75 416.25,-382.75 410.25,-388.75 404.25,-388.75 404.25,-388.75 307,-388.75 307,-388.75 301,-388.75 295,-382.75 295,-376.75 295,-376.75 295,-361.25 295,-361.25 295,-355.25 301,-349.25 307,-349.25"/>
<text text-anchor="middle" x="309.75" y="-363.57" font-family="Times New Roman,serif" font-size="14.00">71</text>
<polyline fill="none" stroke="#b15928" points="324.5,-349.25 324.5,-388.75"/>
<text text-anchor="middle" x="370.38" y="-371.45" font-family="Times New Roman,serif" font-size="14.00">Dead Stop</text>
<text text-anchor="middle" x="370.38" y="-355.7" font-family="Times New Roman,serif" font-size="14.00">Double Clean</text>
</a>
</g>
</g>
<!-- mov_62_dblclean&#45;&gt;mov_71_deaddblclean -->
<g id="edge19" class="edge">
<title>mov_62_dblclean&#45;&gt;mov_71_deaddblclean</title>
<path fill="none" stroke="black" d="M553,-456.73C516.86,-444.08 467.7,-425.92 425.62,-407 417.16,-403.19 408.29,-398.82 399.81,-394.44"/>
<polygon fill="black" stroke="black" points="401.55,-391.4 391.07,-389.85 398.29,-397.6 401.55,-391.4"/>
</g>
<!-- mov_64_dbloutswing&#45;&gt;mov_63_dblrockit -->
<g id="edge13" class="edge">
<title>mov_64_dbloutswing&#45;&gt;mov_63_dblrockit</title>
<path fill="none" stroke="black" d="M316.51,-455.03C295.91,-438 265.63,-412.98 243.25,-394.48"/>
<polygon fill="black" stroke="black" points="245.6,-391.89 235.66,-388.21 241.14,-397.28 245.6,-391.89"/>
</g>
<!-- mov_69_snatchpress -->
<g id="node22" class="node">
<title>mov_69_snatchpress</title>
<g id="a_node22"><a xlink:href="https://www.youtube.com/watch?v=IzFPa_Q1yHM&amp;list=PLk4oYPJ7TXKhX8YqA2AVrfgs_pEF6p7KA&amp;index=67" xlink:title="{{69|Snatch Press}}">
<path fill="#ffff99" stroke="#b15928" d="M885.5,-180.25C885.5,-180.25 979.75,-180.25 979.75,-180.25 985.75,-180.25 991.75,-186.25 991.75,-192.25 991.75,-192.25 991.75,-204.25 991.75,-204.25 991.75,-210.25 985.75,-216.25 979.75,-216.25 979.75,-216.25 885.5,-216.25 885.5,-216.25 879.5,-216.25 873.5,-210.25 873.5,-204.25 873.5,-204.25 873.5,-192.25 873.5,-192.25 873.5,-186.25 879.5,-180.25 885.5,-180.25"/>
<text text-anchor="middle" x="888.25" y="-192.95" font-family="Times New Roman,serif" font-size="14.00">69</text>
<polyline fill="none" stroke="#b15928" points="903,-180.5 903,-216.25"/>
<text text-anchor="middle" x="947.38" y="-192.95" font-family="Times New Roman,serif" font-size="14.00">Snatch Press</text>
</a>
</g>
</g>
<!-- mov_66_snatch&#45;&gt;mov_69_snatchpress -->
<g id="edge25" class="edge">
<title>mov_66_snatch&#45;&gt;mov_69_snatchpress</title>
<path fill="none" stroke="black" d="M944.91,-256.47C943.09,-247.98 940.84,-237.51 938.77,-227.87"/>
<polygon fill="black" stroke="black" points="942.21,-227.22 936.69,-218.17 935.37,-228.69 942.21,-227.22"/>
</g>
<!-- mov_70_kneelsnatchup -->
<g id="node23" class="node">
<title>mov_70_kneelsnatchup</title>
<g id="a_node23"><a xlink:href="https://www.youtube.com/watch?v=1_UrK5SopL4" xlink:title="{{70|Half&#45;Kneeling Snatch Up}}">
<path fill="#ffff99" stroke="#b15928" d="M1021.5,-180.25C1021.5,-180.25 1181.75,-180.25 1181.75,-180.25 1187.75,-180.25 1193.75,-186.25 1193.75,-192.25 1193.75,-192.25 1193.75,-204.25 1193.75,-204.25 1193.75,-210.25 1187.75,-216.25 1181.75,-216.25 1181.75,-216.25 1021.5,-216.25 1021.5,-216.25 1015.5,-216.25 1009.5,-210.25 1009.5,-204.25 1009.5,-204.25 1009.5,-192.25 1009.5,-192.25 1009.5,-186.25 1015.5,-180.25 1021.5,-180.25"/>
<text text-anchor="middle" x="1024.25" y="-192.95" font-family="Times New Roman,serif" font-size="14.00">70</text>
<polyline fill="none" stroke="#b15928" points="1039,-180.5 1039,-216.25"/>
<text text-anchor="middle" x="1116.38" y="-192.95" font-family="Times New Roman,serif" font-size="14.00">Half&#45;Kneeling Snatch Up</text>
</a>
</g>
</g>
<!-- mov_66_snatch&#45;&gt;mov_70_kneelsnatchup -->
<g id="edge26" class="edge">
<title>mov_66_snatch&#45;&gt;mov_70_kneelsnatchup</title>
<path fill="none" stroke="black" d="M984.5,-256.28C1005.71,-245.95 1032.8,-232.76 1055.59,-221.67"/>
<polygon fill="black" stroke="black" points="1056.89,-224.92 1064.35,-217.4 1053.83,-218.63 1056.89,-224.92"/>
</g>
<!-- mov_68_dblclean2squat -->
<g id="node21" class="node">
<title>mov_68_dblclean2squat</title>
<g id="a_node21"><a xlink:href="https://www.youtube.com/watch?v=R3s6Wb_ApHM" xlink:title="{{68|Double Clean\nto Front Squat}}">
<path fill="#ffff99" stroke="#b15928" d="M439,-255C439,-255 542.25,-255 542.25,-255 548.25,-255 554.25,-261 554.25,-267 554.25,-267 554.25,-282.5 554.25,-282.5 554.25,-288.5 548.25,-294.5 542.25,-294.5 542.25,-294.5 439,-294.5 439,-294.5 433,-294.5 427,-288.5 427,-282.5 427,-282.5 427,-267 427,-267 427,-261 433,-255 439,-255"/>
<text text-anchor="middle" x="441.75" y="-269.32" font-family="Times New Roman,serif" font-size="14.00">68</text>
<polyline fill="none" stroke="#b15928" points="456.5,-255 456.5,-294.5"/>
<text text-anchor="middle" x="505.38" y="-277.2" font-family="Times New Roman,serif" font-size="14.00">Double Clean</text>
<text text-anchor="middle" x="505.38" y="-261.45" font-family="Times New Roman,serif" font-size="14.00">to Front Squat</text>
</a>
</g>
</g>
<!-- mov_67_dblsquat&#45;&gt;mov_68_dblclean2squat -->
<g id="edge18" class="edge">
<title>mov_67_dblsquat&#45;&gt;mov_68_dblclean2squat</title>
<path fill="none" stroke="black" d="M490.62,-348.89C490.62,-336.52 490.62,-320.15 490.62,-306.03"/>
<polygon fill="black" stroke="black" points="494.13,-306.35 490.63,-296.35 487.13,-306.35 494.13,-306.35"/>
</g>
<!-- mov_74_dblhangclean2squat -->
<g id="node26" class="node">
<title>mov_74_dblhangclean2squat</title>
<g id="a_node26"><a xlink:href="https://www.youtube.com/watch?v=SdPEkv56Lt8" xlink:title="{{74|Double Hang Clean\nTo Squat}}">
<path fill="#ffff99" stroke="#b15928" d="M425.5,-178.5C425.5,-178.5 555.75,-178.5 555.75,-178.5 561.75,-178.5 567.75,-184.5 567.75,-190.5 567.75,-190.5 567.75,-206 567.75,-206 567.75,-212 561.75,-218 555.75,-218 555.75,-218 425.5,-218 425.5,-218 419.5,-218 413.5,-212 413.5,-206 413.5,-206 413.5,-190.5 413.5,-190.5 413.5,-184.5 419.5,-178.5 425.5,-178.5"/>
<text text-anchor="middle" x="428.25" y="-192.82" font-family="Times New Roman,serif" font-size="14.00">74</text>
<polyline fill="none" stroke="#b15928" points="443,-178.5 443,-218"/>
<text text-anchor="middle" x="505.38" y="-200.7" font-family="Times New Roman,serif" font-size="14.00">Double Hang Clean</text>
<text text-anchor="middle" x="505.38" y="-184.95" font-family="Times New Roman,serif" font-size="14.00">To Squat</text>
</a>
</g>
</g>
<!-- mov_68_dblclean2squat&#45;&gt;mov_74_dblhangclean2squat -->
<g id="edge22" class="edge">
<title>mov_68_dblclean2squat&#45;&gt;mov_74_dblhangclean2squat</title>
<path fill="none" stroke="black" d="M490.62,-254.56C490.62,-247 490.62,-238.13 490.62,-229.74"/>
<polygon fill="black" stroke="black" points="494.13,-229.88 490.63,-219.88 487.13,-229.88 494.13,-229.88"/>
</g>
<!-- Legend -->
<g id="node27" class="node">
<title>Legend</title>
<path fill="#ffff99" stroke="none" d="M1391.12,-407C1391.12,-407 1222.12,-407 1222.12,-407 1216.12,-407 1210.12,-401 1210.12,-395 1210.12,-395 1210.12,-343 1210.12,-343 1210.12,-337 1216.12,-331 1222.12,-331 1222.12,-331 1391.12,-331 1391.12,-331 1397.12,-331 1403.12,-337 1403.12,-343 1403.12,-343 1403.12,-395 1403.12,-395 1403.12,-401 1397.12,-407 1391.12,-407"/>
<polygon fill="none" stroke="#b15928" points="1210.12,-381 1210.12,-407 1403.12,-407 1403.12,-381 1210.12,-381"/>
<text text-anchor="start" x="1284.12" y="-389.7" font-family="Times New Roman,serif" font-weight="bold" font-size="14.00">Legend</text>
<polygon fill="none" stroke="#b15928" points="1210.12,-356 1210.12,-381 1375.12,-381 1375.12,-356 1210.12,-356"/>
<text text-anchor="start" x="1215" y="-362.7" font-family="Times New Roman,serif" font-size="14.00">Prerequisites and next steps</text>
<polygon fill="ghostwhite" stroke="none" points="1375.12,-356 1375.12,-381 1403.12,-381 1403.12,-356 1375.12,-356"/>
<polygon fill="none" stroke="#b15928" points="1375.12,-356 1375.12,-381 1403.12,-381 1403.12,-356 1375.12,-356"/>
<text text-anchor="start" x="1379.75" y="-362.7" font-family="Times New Roman,serif" font-size="14.00">     </text>
<polygon fill="none" stroke="#b15928" points="1210.12,-331 1210.12,-356 1375.12,-356 1375.12,-331 1210.12,-331"/>
<text text-anchor="start" x="1278" y="-337.7" font-family="Times New Roman,serif" font-size="14.00">Drills</text>
<polygon fill="#ffff99" stroke="none" points="1375.12,-331 1375.12,-356 1403.12,-356 1403.12,-331 1375.12,-331"/>
<polygon fill="none" stroke="#b15928" points="1375.12,-331 1375.12,-356 1403.12,-356 1403.12,-331 1375.12,-331"/>
</g>
</g>
</svg>
