<?xml version="1.0" encoding="UTF-8" standalone="no"?>
<!DOCTYPE svg PUBLIC "-//W3C//DTD SVG 1.1//EN"
 "http://www.w3.org/Graphics/SVG/1.1/DTD/svg11.dtd">
<!-- Generated by graphviz version 8.1.0 (20230707.0739)
 -->
<!-- Title: kb_progression Pages: 1 -->
<svg width="1427pt" height="596pt"
 viewBox="0.00 0.00 1427.16 596.00" xmlns="http://www.w3.org/2000/svg" xmlns:xlink="http://www.w3.org/1999/xlink">
<g id="graph0" class="graph" transform="scale(1 1) rotate(0) translate(4 592)">
<title>kb_progression</title>
<polygon fill="white" stroke="none" points="-4,4 -4,-592 1423.16,-592 1423.16,4 -4,4"/>
<text text-anchor="middle" x="709.58" y="-6.45" font-family="Times New Roman,serif" font-size="14.00">Kettlebell Turkish Get&#45;Up Progression</text>
<g id="clust2" class="cluster">
<title>cluster_squat</title>
<polygon fill="none" stroke="black" points="20.91,-31.75 20.91,-281.75 826.91,-281.75 826.91,-31.75 20.91,-31.75"/>
<text text-anchor="middle" x="423.91" y="-264.45" font-family="Times New Roman,serif" font-size="14.00">Squats</text>
</g>
<!-- mov_gobsquathalo -->
<g id="node1" class="node">
<title>mov_gobsquathalo</title>
<g id="a_node1"><a xlink:href="https://www.youtube.com/watch?v=cnZ8Mx8NQPE&amp;list=PLk4oYPJ7TXKhX8YqA2AVrfgs_pEF6p7KA&amp;index=22" xlink:title="{{22|Goblet Squat\nwith Halo}|FULL DEPTH}">
<path fill="#b2df8a" stroke="#33a02c" d="M307.03,-363.25C307.03,-363.25 402.78,-363.25 402.78,-363.25 408.78,-363.25 414.78,-369.25 414.78,-375.25 414.78,-375.25 414.78,-414.5 414.78,-414.5 414.78,-420.5 408.78,-426.5 402.78,-426.5 402.78,-426.5 307.03,-426.5 307.03,-426.5 301.03,-426.5 295.03,-420.5 295.03,-414.5 295.03,-414.5 295.03,-375.25 295.03,-375.25 295.03,-369.25 301.03,-363.25 307.03,-363.25"/>
<text text-anchor="middle" x="309.78" y="-401.32" font-family="Times New Roman,serif" font-size="14.00">22</text>
<polyline fill="none" stroke="#33a02c" points="324.53,-387 324.53,-426.5"/>
<text text-anchor="middle" x="369.66" y="-409.2" font-family="Times New Roman,serif" font-size="14.00">Goblet Squat</text>
<text text-anchor="middle" x="369.66" y="-393.45" font-family="Times New Roman,serif" font-size="14.00">with Halo</text>
<polyline fill="none" stroke="#33a02c" points="295.03,-387 414.78,-387"/>
<text text-anchor="middle" x="354.91" y="-369.7" font-family="Times New Roman,serif" font-size="14.00">FULL DEPTH</text>
</a>
</g>
</g>
<!-- mov_racksquat -->
<g id="node2" class="node">
<title>mov_racksquat</title>
<g id="a_node2"><a xlink:href="https://www.youtube.com/watch?v=KTDVl0Lkdc4&amp;list=PLk4oYPJ7TXKhX8YqA2AVrfgs_pEF6p7KA&amp;index=23" xlink:title="{{KB&#45;23|Single&#45;Bell Front Squat}}">
<path fill="#b2df8a" stroke="#33a02c" d="M514.66,-290.25C514.66,-290.25 689.16,-290.25 689.16,-290.25 695.16,-290.25 701.16,-296.25 701.16,-302.25 701.16,-302.25 701.16,-314.25 701.16,-314.25 701.16,-320.25 695.16,-326.25 689.16,-326.25 689.16,-326.25 514.66,-326.25 514.66,-326.25 508.66,-326.25 502.66,-320.25 502.66,-314.25 502.66,-314.25 502.66,-302.25 502.66,-302.25 502.66,-296.25 508.66,-290.25 514.66,-290.25"/>
<text text-anchor="middle" x="529.03" y="-302.95" font-family="Times New Roman,serif" font-size="14.00">KB&#45;23</text>
<polyline fill="none" stroke="#33a02c" points="555.41,-290.5 555.41,-326.25"/>
<text text-anchor="middle" x="628.28" y="-302.95" font-family="Times New Roman,serif" font-size="14.00">Single&#45;Bell Front Squat</text>
</a>
</g>
</g>
<!-- mov_gobsquathalo&#45;&gt;mov_racksquat -->
<g id="edge1" class="edge">
<title>mov_gobsquathalo&#45;&gt;mov_racksquat</title>
<path fill="none" stroke="black" d="M414.7,-373.39C453.49,-360.1 503.84,-342.85 542.55,-329.59"/>
<polygon fill="black" stroke="black" points="543.3,-332.69 551.63,-326.13 541.03,-326.06 543.3,-332.69"/>
</g>
<!-- mov_boxsquat2boat -->
<g id="node7" class="node">
<title>mov_boxsquat2boat</title>
<g id="a_node7"><a xlink:href="https://www.youtube.com/watch?v=KTDVl0Lkdc4&amp;list=PLk4oYPJ7TXKhX8YqA2AVrfgs_pEF6p7KA&amp;index=41" xlink:title="{{39|Box Squat to Boat Pose}}">
<path fill="#ffff99" stroke="#b15928" d="M277.28,-113.25C277.28,-113.25 434.53,-113.25 434.53,-113.25 440.53,-113.25 446.53,-119.25 446.53,-125.25 446.53,-125.25 446.53,-137.25 446.53,-137.25 446.53,-143.25 440.53,-149.25 434.53,-149.25 434.53,-149.25 277.28,-149.25 277.28,-149.25 271.28,-149.25 265.28,-143.25 265.28,-137.25 265.28,-137.25 265.28,-125.25 265.28,-125.25 265.28,-119.25 271.28,-113.25 277.28,-113.25"/>
<text text-anchor="middle" x="280.03" y="-125.95" font-family="Times New Roman,serif" font-size="14.00">39</text>
<polyline fill="none" stroke="#b15928" points="294.78,-113.5 294.78,-149.25"/>
<text text-anchor="middle" x="370.66" y="-125.95" font-family="Times New Roman,serif" font-size="14.00">Box Squat to Boat Pose</text>
</a>
</g>
</g>
<!-- mov_gobsquathalo&#45;&gt;mov_boxsquat2boat -->
<g id="edge6" class="edge">
<title>mov_gobsquathalo&#45;&gt;mov_boxsquat2boat</title>
<path fill="none" stroke="black" d="M295.35,-393.52C217.28,-389.44 82.88,-369.23 19.91,-281.75 -5.02,-247.12 -7.79,-218.21 19.91,-185.75 49.68,-150.87 166.94,-138.62 254.61,-134.38"/>
<polygon fill="black" stroke="black" points="254.59,-137.84 264.42,-133.89 254.27,-130.85 254.59,-137.84"/>
</g>
<!-- mov_gobsquatcurl -->
<g id="node12" class="node">
<title>mov_gobsquatcurl</title>
<g id="a_node12"><a xlink:href="https://www.youtube.com/watch?v=KTDVl0Lkdc4&amp;list=PLk4oYPJ7TXKhX8YqA2AVrfgs_pEF6p7KA&amp;index=50" xlink:title="{{45|Rock&#45;Bottom\nCurl with Goblet Squat}}">
<path fill="#ffff99" stroke="#b15928" d="M40.66,-198.12C40.66,-198.12 191.16,-198.12 191.16,-198.12 197.16,-198.12 203.16,-204.12 203.16,-210.12 203.16,-210.12 203.16,-225.62 203.16,-225.62 203.16,-231.62 197.16,-237.62 191.16,-237.62 191.16,-237.62 40.66,-237.62 40.66,-237.62 34.66,-237.62 28.66,-231.62 28.66,-225.62 28.66,-225.62 28.66,-210.12 28.66,-210.12 28.66,-204.12 34.66,-198.12 40.66,-198.12"/>
<text text-anchor="middle" x="43.41" y="-212.45" font-family="Times New Roman,serif" font-size="14.00">45</text>
<polyline fill="none" stroke="#b15928" points="58.16,-198.12 58.16,-237.62"/>
<text text-anchor="middle" x="130.66" y="-220.32" font-family="Times New Roman,serif" font-size="14.00">Rock&#45;Bottom</text>
<text text-anchor="middle" x="130.66" y="-204.57" font-family="Times New Roman,serif" font-size="14.00">Curl with Goblet Squat</text>
</a>
</g>
</g>
<!-- mov_gobsquathalo&#45;&gt;mov_gobsquatcurl -->
<g id="edge7" class="edge">
<title>mov_gobsquathalo&#45;&gt;mov_gobsquatcurl</title>
<path fill="none" stroke="black" d="M313.28,-363.39C266.95,-329.47 192.98,-275.31 149.97,-243.81"/>
<polygon fill="black" stroke="black" points="152.41,-240.54 142.28,-237.45 148.28,-246.18 152.41,-240.54"/>
</g>
<!-- mov_hornygobsquat -->
<g id="node19" class="node">
<title>mov_hornygobsquat</title>
<g id="a_node19"><a xlink:href="https://www.youtube.com/watch?v=i2AtDi4yZSA" xlink:title="{{53|Handle Up\nGoblet Squat}}">
<path fill="#ffff99" stroke="#b15928" d="M399.03,-198.12C399.03,-198.12 494.78,-198.12 494.78,-198.12 500.78,-198.12 506.78,-204.12 506.78,-210.12 506.78,-210.12 506.78,-225.62 506.78,-225.62 506.78,-231.62 500.78,-237.62 494.78,-237.62 494.78,-237.62 399.03,-237.62 399.03,-237.62 393.03,-237.62 387.03,-231.62 387.03,-225.62 387.03,-225.62 387.03,-210.12 387.03,-210.12 387.03,-204.12 393.03,-198.12 399.03,-198.12"/>
<text text-anchor="middle" x="401.78" y="-212.45" font-family="Times New Roman,serif" font-size="14.00">53</text>
<polyline fill="none" stroke="#b15928" points="416.53,-198.12 416.53,-237.62"/>
<text text-anchor="middle" x="461.66" y="-220.32" font-family="Times New Roman,serif" font-size="14.00">Handle Up</text>
<text text-anchor="middle" x="461.66" y="-204.57" font-family="Times New Roman,serif" font-size="14.00">Goblet Squat</text>
</a>
</g>
</g>
<!-- mov_gobsquathalo&#45;&gt;mov_hornygobsquat -->
<g id="edge8" class="edge">
<title>mov_gobsquathalo&#45;&gt;mov_hornygobsquat</title>
<path fill="none" stroke="black" d="M370.93,-363.39C388.21,-330.52 415.49,-278.63 432.23,-246.79"/>
<polygon fill="black" stroke="black" points="435.71,-248.69 437.27,-238.21 429.52,-245.43 435.71,-248.69"/>
</g>
<!-- mov_racksquatpickup -->
<g id="node13" class="node">
<title>mov_racksquatpickup</title>
<g id="a_node13"><a xlink:href="https://www.youtube.com/watch?v=KTDVl0Lkdc4&amp;list=PLk4oYPJ7TXKhX8YqA2AVrfgs_pEF6p7KA&amp;index=52" xlink:title="{{47|Rock&#45;Bottom\nFront Squat Pickup}|PAUSE AT BOTTOM}">
<path fill="#ffff99" stroke="#b15928" d="M536.41,-186.25C536.41,-186.25 667.41,-186.25 667.41,-186.25 673.41,-186.25 679.41,-192.25 679.41,-198.25 679.41,-198.25 679.41,-237.5 679.41,-237.5 679.41,-243.5 673.41,-249.5 667.41,-249.5 667.41,-249.5 536.41,-249.5 536.41,-249.5 530.41,-249.5 524.41,-243.5 524.41,-237.5 524.41,-237.5 524.41,-198.25 524.41,-198.25 524.41,-192.25 530.41,-186.25 536.41,-186.25"/>
<text text-anchor="middle" x="539.16" y="-224.32" font-family="Times New Roman,serif" font-size="14.00">47</text>
<polyline fill="none" stroke="#b15928" points="553.91,-210 553.91,-249.5"/>
<text text-anchor="middle" x="616.66" y="-232.2" font-family="Times New Roman,serif" font-size="14.00">Rock&#45;Bottom</text>
<text text-anchor="middle" x="616.66" y="-216.45" font-family="Times New Roman,serif" font-size="14.00">Front Squat Pickup</text>
<polyline fill="none" stroke="#b15928" points="524.41,-210 679.41,-210"/>
<text text-anchor="middle" x="601.91" y="-192.7" font-family="Times New Roman,serif" font-size="14.00">PAUSE AT BOTTOM</text>
</a>
</g>
</g>
<!-- mov_racksquat&#45;&gt;mov_racksquatpickup -->
<g id="edge9" class="edge">
<title>mov_racksquat&#45;&gt;mov_racksquatpickup</title>
<path fill="none" stroke="black" d="M601.91,-290.63C601.91,-282.02 601.91,-271.08 601.91,-260.36"/>
<polygon fill="black" stroke="black" points="605.41,-260.37 601.91,-250.37 598.41,-260.37 605.41,-260.37"/>
</g>
<!-- mov_thruster -->
<g id="node14" class="node">
<title>mov_thruster</title>
<g id="a_node14"><a xlink:href="https://www.youtube.com/watch?v=KTDVl0Lkdc4&amp;list=PLk4oYPJ7TXKhX8YqA2AVrfgs_pEF6p7KA&amp;index=48" xlink:title="{{48|Thruster}}">
<path fill="#ffff99" stroke="#b15928" d="M848.53,-199.88C848.53,-199.88 917.28,-199.88 917.28,-199.88 923.28,-199.88 929.28,-205.88 929.28,-211.88 929.28,-211.88 929.28,-223.88 929.28,-223.88 929.28,-229.88 923.28,-235.88 917.28,-235.88 917.28,-235.88 848.53,-235.88 848.53,-235.88 842.53,-235.88 836.53,-229.88 836.53,-223.88 836.53,-223.88 836.53,-211.88 836.53,-211.88 836.53,-205.88 842.53,-199.88 848.53,-199.88"/>
<text text-anchor="middle" x="851.28" y="-212.57" font-family="Times New Roman,serif" font-size="14.00">48</text>
<polyline fill="none" stroke="#b15928" points="866.03,-200.12 866.03,-235.88"/>
<text text-anchor="middle" x="897.66" y="-212.57" font-family="Times New Roman,serif" font-size="14.00">Thruster</text>
</a>
</g>
</g>
<!-- mov_racksquat&#45;&gt;mov_thruster -->
<g id="edge10" class="edge">
<title>mov_racksquat&#45;&gt;mov_thruster</title>
<path fill="none" stroke="black" d="M701.03,-303.53C752.25,-300.17 808.6,-293.8 830.91,-281.75 846.45,-273.35 859.19,-258.21 868.17,-244.89"/>
<polygon fill="black" stroke="black" points="871.64,-246.96 874.03,-236.64 865.72,-243.22 871.64,-246.96"/>
</g>
<!-- mov_cap -->
<g id="node3" class="node">
<title>mov_cap</title>
<g id="a_node3"><a xlink:href="https://www.youtube.com/watch?v=SSxB3m5qRas&amp;list=PLk4oYPJ7TXKhX8YqA2AVrfgs_pEF6p7KA&amp;index=17" xlink:title="KB&#45;17|Clean &amp; Press">
<path fill="#b2df8a" stroke="#33a02c" d="M820.03,-469.25C820.03,-469.25 945.78,-469.25 945.78,-469.25 951.78,-469.25 957.78,-475.25 957.78,-481.25 957.78,-481.25 957.78,-493.25 957.78,-493.25 957.78,-499.25 951.78,-505.25 945.78,-505.25 945.78,-505.25 820.03,-505.25 820.03,-505.25 814.03,-505.25 808.03,-499.25 808.03,-493.25 808.03,-493.25 808.03,-481.25 808.03,-481.25 808.03,-475.25 814.03,-469.25 820.03,-469.25"/>
<text text-anchor="middle" x="834.41" y="-481.82" font-family="Times New Roman,serif" font-size="14.00">KB&#45;17</text>
<polyline fill="none" stroke="#33a02c" points="860.78,-469.25 860.78,-505.25"/>
<text text-anchor="middle" x="909.28" y="-481.82" font-family="Times New Roman,serif" font-size="14.00">Clean &amp; Press</text>
</a>
</g>
</g>
<!-- mov_startstopcap -->
<g id="node4" class="node">
<title>mov_startstopcap</title>
<g id="a_node4"><a xlink:href="https://www.youtube.com/watch?v=dSj3kqbuois&amp;list=PLk4oYPJ7TXKhX8YqA2AVrfgs_pEF6p7KA&amp;index=19" xlink:title="{{KB&#45;19|Start Stop\nClean &amp; Press}|START &amp; END C&amp;P}">
<path fill="#b2df8a" stroke="#33a02c" d="M820.03,-363.25C820.03,-363.25 945.78,-363.25 945.78,-363.25 951.78,-363.25 957.78,-369.25 957.78,-375.25 957.78,-375.25 957.78,-414.5 957.78,-414.5 957.78,-420.5 951.78,-426.5 945.78,-426.5 945.78,-426.5 820.03,-426.5 820.03,-426.5 814.03,-426.5 808.03,-420.5 808.03,-414.5 808.03,-414.5 808.03,-375.25 808.03,-375.25 808.03,-369.25 814.03,-363.25 820.03,-363.25"/>
<text text-anchor="middle" x="834.41" y="-401.32" font-family="Times New Roman,serif" font-size="14.00">KB&#45;19</text>
<polyline fill="none" stroke="#33a02c" points="860.78,-387 860.78,-426.5"/>
<text text-anchor="middle" x="909.28" y="-409.2" font-family="Times New Roman,serif" font-size="14.00">Start Stop</text>
<text text-anchor="middle" x="909.28" y="-393.45" font-family="Times New Roman,serif" font-size="14.00">Clean &amp; Press</text>
<polyline fill="none" stroke="#33a02c" points="808.03,-387 957.78,-387"/>
<text text-anchor="middle" x="882.91" y="-369.7" font-family="Times New Roman,serif" font-size="14.00">START &amp; END C&amp;P</text>
</a>
</g>
</g>
<!-- mov_cap&#45;&gt;mov_startstopcap -->
<g id="edge4" class="edge">
<title>mov_cap&#45;&gt;mov_startstopcap</title>
<path fill="none" stroke="black" d="M882.91,-469.25C882.91,-460.11 882.91,-448.4 882.91,-437.03"/>
<polygon fill="black" stroke="black" points="886.41,-437.33 882.91,-427.33 879.41,-437.33 886.41,-437.33"/>
</g>
<!-- mov_pushpress -->
<g id="node11" class="node">
<title>mov_pushpress</title>
<g id="a_node11"><a xlink:href="https://www.youtube.com/watch?v=KTDVl0Lkdc4&amp;list=PLk4oYPJ7TXKhX8YqA2AVrfgs_pEF6p7KA&amp;index=49" xlink:title="{{44|Push Press}}">
<path fill="#ffff99" stroke="#b15928" d="M841.03,-290.25C841.03,-290.25 924.78,-290.25 924.78,-290.25 930.78,-290.25 936.78,-296.25 936.78,-302.25 936.78,-302.25 936.78,-314.25 936.78,-314.25 936.78,-320.25 930.78,-326.25 924.78,-326.25 924.78,-326.25 841.03,-326.25 841.03,-326.25 835.03,-326.25 829.03,-320.25 829.03,-314.25 829.03,-314.25 829.03,-302.25 829.03,-302.25 829.03,-296.25 835.03,-290.25 841.03,-290.25"/>
<text text-anchor="middle" x="843.78" y="-302.95" font-family="Times New Roman,serif" font-size="14.00">44</text>
<polyline fill="none" stroke="#b15928" points="858.53,-290.5 858.53,-326.25"/>
<text text-anchor="middle" x="897.66" y="-302.95" font-family="Times New Roman,serif" font-size="14.00">Push Press</text>
</a>
</g>
</g>
<!-- mov_startstopcap&#45;&gt;mov_pushpress -->
<g id="edge5" class="edge">
<title>mov_startstopcap&#45;&gt;mov_pushpress</title>
<path fill="none" stroke="black" d="M882.91,-363.32C882.91,-354.73 882.91,-345.43 882.91,-337.01"/>
<polygon fill="black" stroke="black" points="886.41,-337.22 882.91,-327.22 879.41,-337.22 886.41,-337.22"/>
</g>
<!-- mov_clean -->
<g id="node5" class="node">
<title>mov_clean</title>
<g id="a_node5"><a xlink:href="https://www.youtube.com/watch?v=_nIsSXWs5iU&amp;list=PLk4oYPJ7TXKhX8YqA2AVrfgs_pEF6p7KA&amp;index=12" xlink:title="KB&#45;12|Swing Clean">
<path fill="#b2df8a" stroke="#33a02c" d="M911.66,-549.75C911.66,-549.75 1026.16,-549.75 1026.16,-549.75 1032.16,-549.75 1038.16,-555.75 1038.16,-561.75 1038.16,-561.75 1038.16,-573.75 1038.16,-573.75 1038.16,-579.75 1032.16,-585.75 1026.16,-585.75 1026.16,-585.75 911.66,-585.75 911.66,-585.75 905.66,-585.75 899.66,-579.75 899.66,-573.75 899.66,-573.75 899.66,-561.75 899.66,-561.75 899.66,-555.75 905.66,-549.75 911.66,-549.75"/>
<text text-anchor="middle" x="926.03" y="-562.33" font-family="Times New Roman,serif" font-size="14.00">KB&#45;12</text>
<polyline fill="none" stroke="#33a02c" points="952.41,-549.75 952.41,-585.75"/>
<text text-anchor="middle" x="995.28" y="-562.33" font-family="Times New Roman,serif" font-size="14.00">Swing Clean</text>
</a>
</g>
</g>
<!-- mov_clean&#45;&gt;mov_cap -->
<g id="edge3" class="edge">
<title>mov_clean&#45;&gt;mov_cap</title>
<path fill="none" stroke="black" d="M950.67,-550.1C938.66,-539.14 922.75,-524.62 909.37,-512.4"/>
<polygon fill="black" stroke="black" points="912.16,-510.3 902.42,-506.14 907.44,-515.47 912.16,-510.3"/>
</g>
<!-- mov_startstopclean -->
<g id="node6" class="node">
<title>mov_startstopclean</title>
<g id="a_node6"><a xlink:href="https://www.youtube.com/watch?v=XbK3jxI0WNQ&amp;list=PLk4oYPJ7TXKhX8YqA2AVrfgs_pEF6p7KA&amp;index=16" xlink:title="{{KB&#45;16|Start Stop Clean}|START &amp; END CLEAN}">
<path fill="#b2df8a" stroke="#33a02c" d="M987.41,-463.5C987.41,-463.5 1124.41,-463.5 1124.41,-463.5 1130.41,-463.5 1136.41,-469.5 1136.41,-475.5 1136.41,-475.5 1136.41,-499 1136.41,-499 1136.41,-505 1130.41,-511 1124.41,-511 1124.41,-511 987.41,-511 987.41,-511 981.41,-511 975.41,-505 975.41,-499 975.41,-499 975.41,-475.5 975.41,-475.5 975.41,-469.5 981.41,-463.5 987.41,-463.5"/>
<text text-anchor="middle" x="1001.78" y="-493.7" font-family="Times New Roman,serif" font-size="14.00">KB&#45;16</text>
<polyline fill="none" stroke="#33a02c" points="1028.16,-487.25 1028.16,-511"/>
<text text-anchor="middle" x="1082.28" y="-493.7" font-family="Times New Roman,serif" font-size="14.00">Start Stop Clean</text>
<polyline fill="none" stroke="#33a02c" points="975.41,-487.25 1136.41,-487.25"/>
<text text-anchor="middle" x="1055.91" y="-469.95" font-family="Times New Roman,serif" font-size="14.00">START &amp; END CLEAN</text>
</a>
</g>
</g>
<!-- mov_clean&#45;&gt;mov_startstopclean -->
<g id="edge2" class="edge">
<title>mov_clean&#45;&gt;mov_startstopclean</title>
<path fill="none" stroke="black" d="M987.36,-550.1C997.65,-540.81 1010.78,-528.96 1022.79,-518.13"/>
<polygon fill="black" stroke="black" points="1024.8,-521.13 1029.88,-511.83 1020.11,-515.93 1024.8,-521.13"/>
</g>
<!-- mov_deck -->
<g id="node22" class="node">
<title>mov_deck</title>
<path fill="#ffff99" stroke="#b15928" d="M732.28,-40.25C732.28,-40.25 783.53,-40.25 783.53,-40.25 789.53,-40.25 795.53,-46.25 795.53,-52.25 795.53,-52.25 795.53,-64.25 795.53,-64.25 795.53,-70.25 789.53,-76.25 783.53,-76.25 783.53,-76.25 732.28,-76.25 732.28,-76.25 726.28,-76.25 720.28,-70.25 720.28,-64.25 720.28,-64.25 720.28,-52.25 720.28,-52.25 720.28,-46.25 726.28,-40.25 732.28,-40.25"/>
<text text-anchor="middle" x="757.91" y="-52.83" font-family="Times New Roman,serif" font-size="14.00">mov_deck</text>
</g>
<!-- mov_boxsquat2boat&#45;&gt;mov_deck -->
<g id="edge16" class="edge">
<title>mov_boxsquat2boat&#45;&gt;mov_deck</title>
<path fill="none" stroke="black" d="M446.37,-114.27C528.01,-99.85 644.96,-79.2 709.86,-67.74"/>
<polygon fill="black" stroke="black" points="710.35,-71.03 719.59,-65.84 709.13,-64.13 710.35,-71.03"/>
</g>
<!-- mov_bwspinalrock -->
<g id="node8" class="node">
<title>mov_bwspinalrock</title>
<g id="a_node8"><a xlink:href="https://www.youtube.com/watch?v=KTDVl0Lkdc4&amp;list=PLk4oYPJ7TXKhX8YqA2AVrfgs_pEF6p7KA&amp;index=42" xlink:title="{{40|Spinal Rock\n(Bodyweight)}}">
<path fill="#ffff99" stroke="#b15928" d="M709.28,-198.12C709.28,-198.12 806.53,-198.12 806.53,-198.12 812.53,-198.12 818.53,-204.12 818.53,-210.12 818.53,-210.12 818.53,-225.62 818.53,-225.62 818.53,-231.62 812.53,-237.62 806.53,-237.62 806.53,-237.62 709.28,-237.62 709.28,-237.62 703.28,-237.62 697.28,-231.62 697.28,-225.62 697.28,-225.62 697.28,-210.12 697.28,-210.12 697.28,-204.12 703.28,-198.12 709.28,-198.12"/>
<text text-anchor="middle" x="712.03" y="-212.45" font-family="Times New Roman,serif" font-size="14.00">40</text>
<polyline fill="none" stroke="#b15928" points="726.78,-198.12 726.78,-237.62"/>
<text text-anchor="middle" x="772.66" y="-220.32" font-family="Times New Roman,serif" font-size="14.00">Spinal Rock</text>
<text text-anchor="middle" x="772.66" y="-204.57" font-family="Times New Roman,serif" font-size="14.00">(Bodyweight)</text>
</a>
</g>
</g>
<!-- mov_spinalrock -->
<g id="node10" class="node">
<title>mov_spinalrock</title>
<g id="a_node10"><a xlink:href="https://www.youtube.com/watch?v=KTDVl0Lkdc4&amp;list=PLk4oYPJ7TXKhX8YqA2AVrfgs_pEF6p7KA&amp;index=48" xlink:title="{{43|Spinal Rock}}">
<path fill="#ffff99" stroke="#b15928" d="M712.66,-113.25C712.66,-113.25 803.16,-113.25 803.16,-113.25 809.16,-113.25 815.16,-119.25 815.16,-125.25 815.16,-125.25 815.16,-137.25 815.16,-137.25 815.16,-143.25 809.16,-149.25 803.16,-149.25 803.16,-149.25 712.66,-149.25 712.66,-149.25 706.66,-149.25 700.66,-143.25 700.66,-137.25 700.66,-137.25 700.66,-125.25 700.66,-125.25 700.66,-119.25 706.66,-113.25 712.66,-113.25"/>
<text text-anchor="middle" x="715.41" y="-125.95" font-family="Times New Roman,serif" font-size="14.00">43</text>
<polyline fill="none" stroke="#b15928" points="730.16,-113.5 730.16,-149.25"/>
<text text-anchor="middle" x="772.66" y="-125.95" font-family="Times New Roman,serif" font-size="14.00">Spinal Rock</text>
</a>
</g>
</g>
<!-- mov_bwspinalrock&#45;&gt;mov_spinalrock -->
<g id="edge17" class="edge">
<title>mov_bwspinalrock&#45;&gt;mov_spinalrock</title>
<path fill="none" stroke="black" d="M757.91,-198.51C757.91,-187.27 757.91,-172.67 757.91,-160.04"/>
<polygon fill="black" stroke="black" points="761.41,-160.14 757.91,-150.14 754.41,-160.14 761.41,-160.14"/>
</g>
<!-- mov_flatbackpullover -->
<g id="node9" class="node">
<title>mov_flatbackpullover</title>
<g id="a_node9"><a xlink:href="https://www.youtube.com/watch?v=KTDVl0Lkdc4&amp;list=PLk4oYPJ7TXKhX8YqA2AVrfgs_pEF6p7KA&amp;index=43" xlink:title="{{41|Flat Back Pullover}}">
<path fill="#ffff99" stroke="#b15928" d="M1138.78,-199.88C1138.78,-199.88 1263.03,-199.88 1263.03,-199.88 1269.03,-199.88 1275.03,-205.88 1275.03,-211.88 1275.03,-211.88 1275.03,-223.88 1275.03,-223.88 1275.03,-229.88 1269.03,-235.88 1263.03,-235.88 1263.03,-235.88 1138.78,-235.88 1138.78,-235.88 1132.78,-235.88 1126.78,-229.88 1126.78,-223.88 1126.78,-223.88 1126.78,-211.88 1126.78,-211.88 1126.78,-205.88 1132.78,-199.88 1138.78,-199.88"/>
<text text-anchor="middle" x="1141.53" y="-212.57" font-family="Times New Roman,serif" font-size="14.00">41</text>
<polyline fill="none" stroke="#b15928" points="1156.28,-200.12 1156.28,-235.88"/>
<text text-anchor="middle" x="1215.66" y="-212.57" font-family="Times New Roman,serif" font-size="14.00">Flat Back Pullover</text>
</a>
</g>
</g>
<!-- mov_backpullsituppress -->
<g id="node21" class="node">
<title>mov_backpullsituppress</title>
<g id="a_node21"><a xlink:href="https://www.youtube.com/watch?v=KTDVl0Lkdc4&amp;list=PLk4oYPJ7TXKhX8YqA2AVrfgs_pEF6p7KA&amp;index=57" xlink:title="{{55|Flat Back Pullover Situp Press}}">
<path fill="#ffff99" stroke="#b15928" d="M932.03,-113.25C932.03,-113.25 1123.78,-113.25 1123.78,-113.25 1129.78,-113.25 1135.78,-119.25 1135.78,-125.25 1135.78,-125.25 1135.78,-137.25 1135.78,-137.25 1135.78,-143.25 1129.78,-149.25 1123.78,-149.25 1123.78,-149.25 932.03,-149.25 932.03,-149.25 926.03,-149.25 920.03,-143.25 920.03,-137.25 920.03,-137.25 920.03,-125.25 920.03,-125.25 920.03,-119.25 926.03,-113.25 932.03,-113.25"/>
<text text-anchor="middle" x="934.78" y="-125.95" font-family="Times New Roman,serif" font-size="14.00">55</text>
<polyline fill="none" stroke="#b15928" points="949.53,-113.5 949.53,-149.25"/>
<text text-anchor="middle" x="1042.66" y="-125.95" font-family="Times New Roman,serif" font-size="14.00">Flat Back Pullover Situp Press</text>
</a>
</g>
</g>
<!-- mov_flatbackpullover&#45;&gt;mov_backpullsituppress -->
<g id="edge12" class="edge">
<title>mov_flatbackpullover&#45;&gt;mov_backpullsituppress</title>
<path fill="none" stroke="black" d="M1166.31,-199.95C1139.2,-186.69 1101.3,-168.15 1072.01,-153.83"/>
<polygon fill="black" stroke="black" points="1073.96,-150.39 1063.44,-149.14 1070.89,-156.68 1073.96,-150.39"/>
</g>
<!-- mov_spinalrock&#45;&gt;mov_deck -->
<g id="edge18" class="edge">
<title>mov_spinalrock&#45;&gt;mov_deck</title>
<path fill="none" stroke="black" d="M757.91,-113.42C757.91,-105.47 757.91,-95.76 757.91,-86.77"/>
<polygon fill="black" stroke="black" points="761.41,-86.96 757.91,-76.96 754.41,-86.96 761.41,-86.96"/>
</g>
<!-- mov_pushpress&#45;&gt;mov_thruster -->
<g id="edge11" class="edge">
<title>mov_pushpress&#45;&gt;mov_thruster</title>
<path fill="none" stroke="black" d="M882.91,-290.63C882.91,-278.24 882.91,-261.04 882.91,-246.58"/>
<polygon fill="black" stroke="black" points="886.41,-246.72 882.91,-236.72 879.41,-246.72 886.41,-246.72"/>
</g>
<!-- mov_seatedpress -->
<g id="node15" class="node">
<title>mov_seatedpress</title>
<g id="a_node15"><a xlink:href="https://www.youtube.com/watch?v=KTDVl0Lkdc4&amp;list=PLk4oYPJ7TXKhX8YqA2AVrfgs_pEF6p7KA&amp;index=54" xlink:title="{{49|Seated Two&#45;Handed\nOverhead Press}}">
<path fill="#ffff99" stroke="#b15928" d="M959.41,-198.12C959.41,-198.12 1096.41,-198.12 1096.41,-198.12 1102.41,-198.12 1108.41,-204.12 1108.41,-210.12 1108.41,-210.12 1108.41,-225.62 1108.41,-225.62 1108.41,-231.62 1102.41,-237.62 1096.41,-237.62 1096.41,-237.62 959.41,-237.62 959.41,-237.62 953.41,-237.62 947.41,-231.62 947.41,-225.62 947.41,-225.62 947.41,-210.12 947.41,-210.12 947.41,-204.12 953.41,-198.12 959.41,-198.12"/>
<text text-anchor="middle" x="962.16" y="-212.45" font-family="Times New Roman,serif" font-size="14.00">49</text>
<polyline fill="none" stroke="#b15928" points="976.91,-198.12 976.91,-237.62"/>
<text text-anchor="middle" x="1042.66" y="-220.32" font-family="Times New Roman,serif" font-size="14.00">Seated Two&#45;Handed</text>
<text text-anchor="middle" x="1042.66" y="-204.57" font-family="Times New Roman,serif" font-size="14.00">Overhead Press</text>
</a>
</g>
</g>
<!-- mov_seatedpress&#45;&gt;mov_backpullsituppress -->
<g id="edge13" class="edge">
<title>mov_seatedpress&#45;&gt;mov_backpullsituppress</title>
<path fill="none" stroke="black" d="M1027.91,-198.51C1027.91,-187.27 1027.91,-172.67 1027.91,-160.04"/>
<polygon fill="black" stroke="black" points="1031.41,-160.14 1027.91,-150.14 1024.41,-160.14 1031.41,-160.14"/>
</g>
<!-- mov_2hdeadclean2rack -->
<g id="node16" class="node">
<title>mov_2hdeadclean2rack</title>
<g id="a_node16"><a xlink:href="https://www.youtube.com/watch?v=KTDVl0Lkdc4&amp;list=PLk4oYPJ7TXKhX8YqA2AVrfgs_pEF6p7KA&amp;index=55" xlink:title="{{50|Two&#45;Handed Dead Clean\nto Double Front Rack}}">
<path fill="#ffff99" stroke="#b15928" d="M1067.91,-548C1067.91,-548 1231.91,-548 1231.91,-548 1237.91,-548 1243.91,-554 1243.91,-560 1243.91,-560 1243.91,-575.5 1243.91,-575.5 1243.91,-581.5 1237.91,-587.5 1231.91,-587.5 1231.91,-587.5 1067.91,-587.5 1067.91,-587.5 1061.91,-587.5 1055.91,-581.5 1055.91,-575.5 1055.91,-575.5 1055.91,-560 1055.91,-560 1055.91,-554 1061.91,-548 1067.91,-548"/>
<text text-anchor="middle" x="1070.66" y="-562.33" font-family="Times New Roman,serif" font-size="14.00">50</text>
<polyline fill="none" stroke="#b15928" points="1085.41,-548 1085.41,-587.5"/>
<text text-anchor="middle" x="1164.66" y="-570.2" font-family="Times New Roman,serif" font-size="14.00">Two&#45;Handed Dead Clean</text>
<text text-anchor="middle" x="1164.66" y="-554.45" font-family="Times New Roman,serif" font-size="14.00">to Double Front Rack</text>
</a>
</g>
</g>
<!-- mov_fourcountsquat -->
<g id="node17" class="node">
<title>mov_fourcountsquat</title>
<g id="a_node17"><a xlink:href="https://www.youtube.com/watch?v=1rkGfL1EdWI" xlink:title="{{51|Four&#45;Count Squat}}">
<path fill="#ffff99" stroke="#b15928" d="M233.16,-199.88C233.16,-199.88 356.66,-199.88 356.66,-199.88 362.66,-199.88 368.66,-205.88 368.66,-211.88 368.66,-211.88 368.66,-223.88 368.66,-223.88 368.66,-229.88 362.66,-235.88 356.66,-235.88 356.66,-235.88 233.16,-235.88 233.16,-235.88 227.16,-235.88 221.16,-229.88 221.16,-223.88 221.16,-223.88 221.16,-211.88 221.16,-211.88 221.16,-205.88 227.16,-199.88 233.16,-199.88"/>
<text text-anchor="middle" x="235.91" y="-212.57" font-family="Times New Roman,serif" font-size="14.00">51</text>
<polyline fill="none" stroke="#b15928" points="250.66,-200.12 250.66,-235.88"/>
<text text-anchor="middle" x="309.66" y="-212.57" font-family="Times New Roman,serif" font-size="14.00">Four&#45;Count Squat</text>
</a>
</g>
</g>
<!-- mov_rackaltshinbox -->
<g id="node18" class="node">
<title>mov_rackaltshinbox</title>
<g id="a_node18"><a xlink:href="https://www.youtube.com/watch?v=AoEYX36Q2Zg" xlink:title="{{52|Rack Alt Shinbox}}">
<path fill="#ffff99" stroke="#b15928" d="M1274.28,-549.75C1274.28,-549.75 1395.53,-549.75 1395.53,-549.75 1401.53,-549.75 1407.53,-555.75 1407.53,-561.75 1407.53,-561.75 1407.53,-573.75 1407.53,-573.75 1407.53,-579.75 1401.53,-585.75 1395.53,-585.75 1395.53,-585.75 1274.28,-585.75 1274.28,-585.75 1268.28,-585.75 1262.28,-579.75 1262.28,-573.75 1262.28,-573.75 1262.28,-561.75 1262.28,-561.75 1262.28,-555.75 1268.28,-549.75 1274.28,-549.75"/>
<text text-anchor="middle" x="1277.03" y="-562.45" font-family="Times New Roman,serif" font-size="14.00">52</text>
<polyline fill="none" stroke="#b15928" points="1291.78,-550 1291.78,-585.75"/>
<text text-anchor="middle" x="1349.66" y="-562.45" font-family="Times New Roman,serif" font-size="14.00">Rack Alt Shinbox</text>
</a>
</g>
</g>
<!-- mov_shinboxpress -->
<g id="node20" class="node">
<title>mov_shinboxpress</title>
<g id="a_node20"><a xlink:href="https://www.youtube.com/watch?v=FEbi2lKVEHU" xlink:title="{{54|Contra Shinbox Press}}">
<path fill="#ffff99" stroke="#b15928" d="M1262.66,-469.25C1262.66,-469.25 1407.16,-469.25 1407.16,-469.25 1413.16,-469.25 1419.16,-475.25 1419.16,-481.25 1419.16,-481.25 1419.16,-493.25 1419.16,-493.25 1419.16,-499.25 1413.16,-505.25 1407.16,-505.25 1407.16,-505.25 1262.66,-505.25 1262.66,-505.25 1256.66,-505.25 1250.66,-499.25 1250.66,-493.25 1250.66,-493.25 1250.66,-481.25 1250.66,-481.25 1250.66,-475.25 1256.66,-469.25 1262.66,-469.25"/>
<text text-anchor="middle" x="1265.41" y="-481.95" font-family="Times New Roman,serif" font-size="14.00">54</text>
<polyline fill="none" stroke="#b15928" points="1280.16,-469.5 1280.16,-505.25"/>
<text text-anchor="middle" x="1349.66" y="-481.95" font-family="Times New Roman,serif" font-size="14.00">Contra Shinbox Press</text>
</a>
</g>
</g>
<!-- mov_rackaltshinbox&#45;&gt;mov_shinboxpress -->
<g id="edge15" class="edge">
<title>mov_rackaltshinbox&#45;&gt;mov_shinboxpress</title>
<path fill="none" stroke="black" d="M1334.91,-550.1C1334.91,-540.18 1334.91,-527.33 1334.91,-515.92"/>
<polygon fill="black" stroke="black" points="1338.41,-516.14 1334.91,-506.14 1331.41,-516.14 1338.41,-516.14"/>
</g>
<!-- mov_backpullsituppress&#45;&gt;mov_deck -->
<g id="edge14" class="edge">
<title>mov_backpullsituppress&#45;&gt;mov_deck</title>
<path fill="none" stroke="black" d="M963.58,-113.33C915.16,-100.6 849.86,-83.43 805.94,-71.88"/>
<polygon fill="black" stroke="black" points="807.09,-68.3 796.53,-69.14 805.31,-75.07 807.09,-68.3"/>
</g>
</g>
</svg>
