<?xml version="1.0" encoding="UTF-8" standalone="no"?>
<!DOCTYPE svg PUBLIC "-//W3C//DTD SVG 1.1//EN"
 "http://www.w3.org/Graphics/SVG/1.1/DTD/svg11.dtd">
<!-- Generated by graphviz version 8.1.0 (20230707.0739)
 -->
<!-- Title: kb_progression Pages: 1 -->
<svg width="1668pt" height="624pt"
 viewBox="0.00 0.00 1668.00 623.50" xmlns="http://www.w3.org/2000/svg" xmlns:xlink="http://www.w3.org/1999/xlink">
<g id="graph0" class="graph" transform="scale(1 1) rotate(0) translate(4 619.5)">
<title>kb_progression</title>
<polygon fill="white" stroke="none" points="-4,4 -4,-619.5 1664,-619.5 1664,4 -4,4"/>
<text text-anchor="middle" x="830" y="-6.45" font-family="Times New Roman,serif" font-size="14.00">Kettlebell Turkish Get&#45;Up Progression</text>
<g id="clust2" class="cluster">
<title>cluster_squat</title>
<polygon fill="none" stroke="black" points="8,-31.75 8,-320.75 1323,-320.75 1323,-31.75 8,-31.75"/>
<text text-anchor="middle" x="665.5" y="-303.45" font-family="Times New Roman,serif" font-size="14.00">Squats &amp; Getup</text>
</g>
<!-- ext_bw_squat -->
<g id="node1" class="node">
<title>ext_bw_squat</title>
<path fill="ghostwhite" stroke="lightslategrey" d="M58.62,-329.25C58.62,-329.25 121.38,-329.25 121.38,-329.25 127.38,-329.25 133.38,-335.25 133.38,-341.25 133.38,-341.25 133.38,-353.25 133.38,-353.25 133.38,-359.25 127.38,-365.25 121.38,-365.25 121.38,-365.25 58.62,-365.25 58.62,-365.25 52.62,-365.25 46.62,-359.25 46.62,-353.25 46.62,-353.25 46.62,-341.25 46.62,-341.25 46.62,-335.25 52.62,-329.25 58.62,-329.25"/>
<text text-anchor="middle" x="65.88" y="-341.95" font-family="Times New Roman,serif" font-size="14.00">BW</text>
<polyline fill="none" stroke="lightslategrey" points="85.12,-329.5 85.12,-365.25"/>
<text text-anchor="middle" x="109.25" y="-341.95" font-family="Times New Roman,serif" font-size="14.00">Squat</text>
</g>
<!-- mov_fourcountsquat -->
<g id="node18" class="node">
<title>mov_fourcountsquat</title>
<g id="a_node18"><a xlink:href="https://www.youtube.com/watch?v=1rkGfL1EdWI" xlink:title="{{51|Four&#45;Count Squat\n(Bodyweight)}}">
<path fill="#ffff99" stroke="#b15928" d="M28.25,-237.12C28.25,-237.12 151.75,-237.12 151.75,-237.12 157.75,-237.12 163.75,-243.12 163.75,-249.12 163.75,-249.12 163.75,-264.62 163.75,-264.62 163.75,-270.62 157.75,-276.62 151.75,-276.62 151.75,-276.62 28.25,-276.62 28.25,-276.62 22.25,-276.62 16.25,-270.62 16.25,-264.62 16.25,-264.62 16.25,-249.12 16.25,-249.12 16.25,-243.12 22.25,-237.12 28.25,-237.12"/>
<text text-anchor="middle" x="31" y="-251.45" font-family="Times New Roman,serif" font-size="14.00">51</text>
<polyline fill="none" stroke="#b15928" points="45.75,-237.12 45.75,-276.62"/>
<text text-anchor="middle" x="104.75" y="-259.32" font-family="Times New Roman,serif" font-size="14.00">Four&#45;Count Squat</text>
<text text-anchor="middle" x="104.75" y="-243.57" font-family="Times New Roman,serif" font-size="14.00">(Bodyweight)</text>
</a>
</g>
</g>
<!-- ext_bw_squat&#45;&gt;mov_fourcountsquat -->
<g id="edge1" class="edge">
<title>ext_bw_squat&#45;&gt;mov_fourcountsquat</title>
<path fill="none" stroke="black" d="M90,-329.63C90,-317.71 90,-301.35 90,-287.25"/>
<polygon fill="black" stroke="black" points="93.5,-287.56 90,-277.56 86.5,-287.56 93.5,-287.56"/>
</g>
<!-- ext_bw_altshinbox -->
<g id="node2" class="node">
<title>ext_bw_altshinbox</title>
<path fill="ghostwhite" stroke="lightslategrey" d="M202.75,-329.25C202.75,-329.25 305.25,-329.25 305.25,-329.25 311.25,-329.25 317.25,-335.25 317.25,-341.25 317.25,-341.25 317.25,-353.25 317.25,-353.25 317.25,-359.25 311.25,-365.25 305.25,-365.25 305.25,-365.25 202.75,-365.25 202.75,-365.25 196.75,-365.25 190.75,-359.25 190.75,-353.25 190.75,-353.25 190.75,-341.25 190.75,-341.25 190.75,-335.25 196.75,-329.25 202.75,-329.25"/>
<text text-anchor="middle" x="210" y="-341.95" font-family="Times New Roman,serif" font-size="14.00">BW</text>
<polyline fill="none" stroke="lightslategrey" points="229.25,-329.5 229.25,-365.25"/>
<text text-anchor="middle" x="273.25" y="-341.95" font-family="Times New Roman,serif" font-size="14.00">Alt Shin Box</text>
</g>
<!-- mov_rackaltshinbox -->
<g id="node19" class="node">
<title>mov_rackaltshinbox</title>
<g id="a_node19"><a xlink:href="https://www.youtube.com/watch?v=AoEYX36Q2Zg" xlink:title="{{52|Rack Alt Shinbox}}">
<path fill="#ffff99" stroke="#b15928" d="M193.38,-238.88C193.38,-238.88 314.62,-238.88 314.62,-238.88 320.62,-238.88 326.62,-244.88 326.62,-250.88 326.62,-250.88 326.62,-262.88 326.62,-262.88 326.62,-268.88 320.62,-274.88 314.62,-274.88 314.62,-274.88 193.38,-274.88 193.38,-274.88 187.38,-274.88 181.38,-268.88 181.38,-262.88 181.38,-262.88 181.38,-250.88 181.38,-250.88 181.38,-244.88 187.38,-238.88 193.38,-238.88"/>
<text text-anchor="middle" x="196.12" y="-251.57" font-family="Times New Roman,serif" font-size="14.00">52</text>
<polyline fill="none" stroke="#b15928" points="210.88,-239.12 210.88,-274.88"/>
<text text-anchor="middle" x="268.75" y="-251.57" font-family="Times New Roman,serif" font-size="14.00">Rack Alt Shinbox</text>
</a>
</g>
</g>
<!-- ext_bw_altshinbox&#45;&gt;mov_rackaltshinbox -->
<g id="edge2" class="edge">
<title>ext_bw_altshinbox&#45;&gt;mov_rackaltshinbox</title>
<path fill="none" stroke="black" d="M254,-329.63C254,-317.24 254,-300.04 254,-285.58"/>
<polygon fill="black" stroke="black" points="257.5,-285.72 254,-275.72 250.5,-285.72 257.5,-285.72"/>
</g>
<!-- mov_clean -->
<g id="node3" class="node">
<title>mov_clean</title>
<g id="a_node3"><a xlink:href="https://www.youtube.com/watch?v=_nIsSXWs5iU&amp;list=PLk4oYPJ7TXKhX8YqA2AVrfgs_pEF6p7KA&amp;index=12" xlink:title="KB&#45;12|Swing Clean">
<path fill="ghostwhite" stroke="lightslategrey" d="M1414.75,-579C1414.75,-579 1529.25,-579 1529.25,-579 1535.25,-579 1541.25,-585 1541.25,-591 1541.25,-591 1541.25,-603 1541.25,-603 1541.25,-609 1535.25,-615 1529.25,-615 1529.25,-615 1414.75,-615 1414.75,-615 1408.75,-615 1402.75,-609 1402.75,-603 1402.75,-603 1402.75,-591 1402.75,-591 1402.75,-585 1408.75,-579 1414.75,-579"/>
<text text-anchor="middle" x="1429.12" y="-591.58" font-family="Times New Roman,serif" font-size="14.00">KB&#45;12</text>
<polyline fill="none" stroke="lightslategrey" points="1455.5,-579 1455.5,-615"/>
<text text-anchor="middle" x="1498.38" y="-591.58" font-family="Times New Roman,serif" font-size="14.00">Swing Clean</text>
</a>
</g>
</g>
<!-- mov_cap -->
<g id="node4" class="node">
<title>mov_cap</title>
<g id="a_node4"><a xlink:href="https://www.youtube.com/watch?v=SSxB3m5qRas&amp;list=PLk4oYPJ7TXKhX8YqA2AVrfgs_pEF6p7KA&amp;index=17" xlink:title="KB&#45;17|Clean &amp; Press">
<path fill="ghostwhite" stroke="lightslategrey" d="M1316.12,-504.25C1316.12,-504.25 1441.88,-504.25 1441.88,-504.25 1447.88,-504.25 1453.88,-510.25 1453.88,-516.25 1453.88,-516.25 1453.88,-528.25 1453.88,-528.25 1453.88,-534.25 1447.88,-540.25 1441.88,-540.25 1441.88,-540.25 1316.12,-540.25 1316.12,-540.25 1310.12,-540.25 1304.12,-534.25 1304.12,-528.25 1304.12,-528.25 1304.12,-516.25 1304.12,-516.25 1304.12,-510.25 1310.12,-504.25 1316.12,-504.25"/>
<text text-anchor="middle" x="1330.5" y="-516.83" font-family="Times New Roman,serif" font-size="14.00">KB&#45;17</text>
<polyline fill="none" stroke="lightslategrey" points="1356.88,-504.25 1356.88,-540.25"/>
<text text-anchor="middle" x="1405.38" y="-516.83" font-family="Times New Roman,serif" font-size="14.00">Clean &amp; Press</text>
</a>
</g>
</g>
<!-- mov_clean&#45;&gt;mov_cap -->
<g id="edge5" class="edge">
<title>mov_clean&#45;&gt;mov_cap</title>
<path fill="none" stroke="black" d="M1450.43,-579.13C1438.11,-569.49 1422.46,-557.25 1408.96,-546.69"/>
<polygon fill="black" stroke="black" points="1411.49,-543.44 1401.45,-540.03 1407.17,-548.95 1411.49,-543.44"/>
</g>
<!-- mov_2hdeadclean2rack -->
<g id="node17" class="node">
<title>mov_2hdeadclean2rack</title>
<g id="a_node17"><a xlink:href="https://www.youtube.com/watch?v=acqKxfMGAbk&amp;list=PLk4oYPJ7TXKhX8YqA2AVrfgs_pEF6p7KA&amp;index=55" xlink:title="{{50|Two&#45;Handed Dead Clean\nto Double Front Rack}}">
<path fill="#ffff99" stroke="#b15928" d="M1484,-502.5C1484,-502.5 1648,-502.5 1648,-502.5 1654,-502.5 1660,-508.5 1660,-514.5 1660,-514.5 1660,-530 1660,-530 1660,-536 1654,-542 1648,-542 1648,-542 1484,-542 1484,-542 1478,-542 1472,-536 1472,-530 1472,-530 1472,-514.5 1472,-514.5 1472,-508.5 1478,-502.5 1484,-502.5"/>
<text text-anchor="middle" x="1486.75" y="-516.83" font-family="Times New Roman,serif" font-size="14.00">50</text>
<polyline fill="none" stroke="#b15928" points="1501.5,-502.5 1501.5,-542"/>
<text text-anchor="middle" x="1580.75" y="-524.7" font-family="Times New Roman,serif" font-size="14.00">Two&#45;Handed Dead Clean</text>
<text text-anchor="middle" x="1580.75" y="-508.95" font-family="Times New Roman,serif" font-size="14.00">to Double Front Rack</text>
</a>
</g>
</g>
<!-- mov_clean&#45;&gt;mov_2hdeadclean2rack -->
<g id="edge4" class="edge">
<title>mov_clean&#45;&gt;mov_2hdeadclean2rack</title>
<path fill="none" stroke="black" d="M1493.8,-579.13C1505.64,-569.97 1520.5,-558.47 1533.65,-548.28"/>
<polygon fill="black" stroke="black" points="1535.24,-550.71 1541.01,-541.82 1530.96,-545.17 1535.24,-550.71"/>
</g>
<!-- mov_startstopcap -->
<g id="node5" class="node">
<title>mov_startstopcap</title>
<g id="a_node5"><a xlink:href="https://www.youtube.com/watch?v=dSj3kqbuois&amp;list=PLk4oYPJ7TXKhX8YqA2AVrfgs_pEF6p7KA&amp;index=19" xlink:title="{{KB&#45;19|Start Stop\nClean &amp; Press}|START &amp; END C&amp;P}">
<path fill="ghostwhite" stroke="lightslategrey" d="M1316.12,-402.25C1316.12,-402.25 1441.88,-402.25 1441.88,-402.25 1447.88,-402.25 1453.88,-408.25 1453.88,-414.25 1453.88,-414.25 1453.88,-453.5 1453.88,-453.5 1453.88,-459.5 1447.88,-465.5 1441.88,-465.5 1441.88,-465.5 1316.12,-465.5 1316.12,-465.5 1310.12,-465.5 1304.12,-459.5 1304.12,-453.5 1304.12,-453.5 1304.12,-414.25 1304.12,-414.25 1304.12,-408.25 1310.12,-402.25 1316.12,-402.25"/>
<text text-anchor="middle" x="1330.5" y="-440.32" font-family="Times New Roman,serif" font-size="14.00">KB&#45;19</text>
<polyline fill="none" stroke="lightslategrey" points="1356.88,-426 1356.88,-465.5"/>
<text text-anchor="middle" x="1405.38" y="-448.2" font-family="Times New Roman,serif" font-size="14.00">Start Stop</text>
<text text-anchor="middle" x="1405.38" y="-432.45" font-family="Times New Roman,serif" font-size="14.00">Clean &amp; Press</text>
<polyline fill="none" stroke="lightslategrey" points="1304.12,-426 1453.88,-426"/>
<text text-anchor="middle" x="1379" y="-408.7" font-family="Times New Roman,serif" font-size="14.00">START &amp; END C&amp;P</text>
</a>
</g>
</g>
<!-- mov_cap&#45;&gt;mov_startstopcap -->
<g id="edge6" class="edge">
<title>mov_cap&#45;&gt;mov_startstopcap</title>
<path fill="none" stroke="black" d="M1379,-504.6C1379,-496.46 1379,-486.27 1379,-476.22"/>
<polygon fill="black" stroke="black" points="1382.5,-476.46 1379,-466.46 1375.5,-476.46 1382.5,-476.46"/>
</g>
<!-- mov_pushpress -->
<g id="node12" class="node">
<title>mov_pushpress</title>
<g id="a_node12"><a xlink:href="https://www.youtube.com/watch?v=KTDVl0Lkdc4&amp;list=PLk4oYPJ7TXKhX8YqA2AVrfgs_pEF6p7KA&amp;index=49" xlink:title="{{44|Push Press}}">
<path fill="#ffff99" stroke="#b15928" d="M1337.12,-329.25C1337.12,-329.25 1420.88,-329.25 1420.88,-329.25 1426.88,-329.25 1432.88,-335.25 1432.88,-341.25 1432.88,-341.25 1432.88,-353.25 1432.88,-353.25 1432.88,-359.25 1426.88,-365.25 1420.88,-365.25 1420.88,-365.25 1337.12,-365.25 1337.12,-365.25 1331.12,-365.25 1325.12,-359.25 1325.12,-353.25 1325.12,-353.25 1325.12,-341.25 1325.12,-341.25 1325.12,-335.25 1331.12,-329.25 1337.12,-329.25"/>
<text text-anchor="middle" x="1339.88" y="-341.95" font-family="Times New Roman,serif" font-size="14.00">44</text>
<polyline fill="none" stroke="#b15928" points="1354.62,-329.5 1354.62,-365.25"/>
<text text-anchor="middle" x="1393.75" y="-341.95" font-family="Times New Roman,serif" font-size="14.00">Push Press</text>
</a>
</g>
</g>
<!-- mov_startstopcap&#45;&gt;mov_pushpress -->
<g id="edge7" class="edge">
<title>mov_startstopcap&#45;&gt;mov_pushpress</title>
<path fill="none" stroke="black" d="M1379,-402.32C1379,-393.73 1379,-384.43 1379,-376.01"/>
<polygon fill="black" stroke="black" points="1382.5,-376.22 1379,-366.22 1375.5,-376.22 1382.5,-376.22"/>
</g>
<!-- mov_gobsquathalo -->
<g id="node6" class="node">
<title>mov_gobsquathalo</title>
<g id="a_node6"><a xlink:href="https://www.youtube.com/watch?v=cnZ8Mx8NQPE&amp;list=PLk4oYPJ7TXKhX8YqA2AVrfgs_pEF6p7KA&amp;index=22" xlink:title="{{22|Goblet Squat\nwith Halo}|FULL DEPTH}">
<path fill="ghostwhite" stroke="lightslategrey" d="M549.12,-402.25C549.12,-402.25 644.88,-402.25 644.88,-402.25 650.88,-402.25 656.88,-408.25 656.88,-414.25 656.88,-414.25 656.88,-453.5 656.88,-453.5 656.88,-459.5 650.88,-465.5 644.88,-465.5 644.88,-465.5 549.12,-465.5 549.12,-465.5 543.12,-465.5 537.12,-459.5 537.12,-453.5 537.12,-453.5 537.12,-414.25 537.12,-414.25 537.12,-408.25 543.12,-402.25 549.12,-402.25"/>
<text text-anchor="middle" x="551.88" y="-440.32" font-family="Times New Roman,serif" font-size="14.00">22</text>
<polyline fill="none" stroke="lightslategrey" points="566.62,-426 566.62,-465.5"/>
<text text-anchor="middle" x="611.75" y="-448.2" font-family="Times New Roman,serif" font-size="14.00">Goblet Squat</text>
<text text-anchor="middle" x="611.75" y="-432.45" font-family="Times New Roman,serif" font-size="14.00">with Halo</text>
<polyline fill="none" stroke="lightslategrey" points="537.12,-426 656.88,-426"/>
<text text-anchor="middle" x="597" y="-408.7" font-family="Times New Roman,serif" font-size="14.00">FULL DEPTH</text>
</a>
</g>
</g>
<!-- mov_racksquat -->
<g id="node7" class="node">
<title>mov_racksquat</title>
<g id="a_node7"><a xlink:href="https://www.youtube.com/watch?v=KTDVl0Lkdc4&amp;list=PLk4oYPJ7TXKhX8YqA2AVrfgs_pEF6p7KA&amp;index=23" xlink:title="{{KB&#45;23|Single&#45;Bell Front Squat}}">
<path fill="ghostwhite" stroke="lightslategrey" d="M843.75,-329.25C843.75,-329.25 1018.25,-329.25 1018.25,-329.25 1024.25,-329.25 1030.25,-335.25 1030.25,-341.25 1030.25,-341.25 1030.25,-353.25 1030.25,-353.25 1030.25,-359.25 1024.25,-365.25 1018.25,-365.25 1018.25,-365.25 843.75,-365.25 843.75,-365.25 837.75,-365.25 831.75,-359.25 831.75,-353.25 831.75,-353.25 831.75,-341.25 831.75,-341.25 831.75,-335.25 837.75,-329.25 843.75,-329.25"/>
<text text-anchor="middle" x="858.12" y="-341.95" font-family="Times New Roman,serif" font-size="14.00">KB&#45;23</text>
<polyline fill="none" stroke="lightslategrey" points="884.5,-329.5 884.5,-365.25"/>
<text text-anchor="middle" x="957.38" y="-341.95" font-family="Times New Roman,serif" font-size="14.00">Single&#45;Bell Front Squat</text>
</a>
</g>
</g>
<!-- mov_gobsquathalo&#45;&gt;mov_racksquat -->
<g id="edge3" class="edge">
<title>mov_gobsquathalo&#45;&gt;mov_racksquat</title>
<path fill="none" stroke="black" d="M656.71,-417.75C711.67,-403.82 793.52,-383.08 853.5,-367.89"/>
<polygon fill="black" stroke="black" points="854.23,-371.06 863.06,-365.21 852.51,-364.27 854.23,-371.06"/>
</g>
<!-- mov_gobsquatcurl -->
<g id="node13" class="node">
<title>mov_gobsquatcurl</title>
<g id="a_node13"><a xlink:href="https://www.youtube.com/watch?v=KTDVl0Lkdc4&amp;list=PLk4oYPJ7TXKhX8YqA2AVrfgs_pEF6p7KA&amp;index=50" xlink:title="{{45|Rock&#45;Bottom\nCurl with Goblet Squat}}">
<path fill="#ffff99" stroke="#b15928" d="M356.75,-237.12C356.75,-237.12 507.25,-237.12 507.25,-237.12 513.25,-237.12 519.25,-243.12 519.25,-249.12 519.25,-249.12 519.25,-264.62 519.25,-264.62 519.25,-270.62 513.25,-276.62 507.25,-276.62 507.25,-276.62 356.75,-276.62 356.75,-276.62 350.75,-276.62 344.75,-270.62 344.75,-264.62 344.75,-264.62 344.75,-249.12 344.75,-249.12 344.75,-243.12 350.75,-237.12 356.75,-237.12"/>
<text text-anchor="middle" x="359.5" y="-251.45" font-family="Times New Roman,serif" font-size="14.00">45</text>
<polyline fill="none" stroke="#b15928" points="374.25,-237.12 374.25,-276.62"/>
<text text-anchor="middle" x="446.75" y="-259.32" font-family="Times New Roman,serif" font-size="14.00">Rock&#45;Bottom</text>
<text text-anchor="middle" x="446.75" y="-243.57" font-family="Times New Roman,serif" font-size="14.00">Curl with Goblet Squat</text>
</a>
</g>
</g>
<!-- mov_gobsquathalo&#45;&gt;mov_gobsquatcurl -->
<g id="edge10" class="edge">
<title>mov_gobsquathalo&#45;&gt;mov_gobsquatcurl</title>
<path fill="none" stroke="black" d="M568.26,-402.39C536.73,-368.95 486.64,-315.83 456.78,-284.16"/>
<polygon fill="black" stroke="black" points="459.69,-282.09 450.29,-277.21 454.6,-286.89 459.69,-282.09"/>
</g>
<!-- mov_hornygobsquat -->
<g id="node20" class="node">
<title>mov_hornygobsquat</title>
<g id="a_node20"><a xlink:href="https://www.youtube.com/watch?v=i2AtDi4yZSA" xlink:title="{{53|Handle Up\nGoblet Squat}}">
<path fill="#ffff99" stroke="#b15928" d="M549.12,-237.12C549.12,-237.12 644.88,-237.12 644.88,-237.12 650.88,-237.12 656.88,-243.12 656.88,-249.12 656.88,-249.12 656.88,-264.62 656.88,-264.62 656.88,-270.62 650.88,-276.62 644.88,-276.62 644.88,-276.62 549.12,-276.62 549.12,-276.62 543.12,-276.62 537.12,-270.62 537.12,-264.62 537.12,-264.62 537.12,-249.12 537.12,-249.12 537.12,-243.12 543.12,-237.12 549.12,-237.12"/>
<text text-anchor="middle" x="551.88" y="-251.45" font-family="Times New Roman,serif" font-size="14.00">53</text>
<polyline fill="none" stroke="#b15928" points="566.62,-237.12 566.62,-276.62"/>
<text text-anchor="middle" x="611.75" y="-259.32" font-family="Times New Roman,serif" font-size="14.00">Handle Up</text>
<text text-anchor="middle" x="611.75" y="-243.57" font-family="Times New Roman,serif" font-size="14.00">Goblet Squat</text>
</a>
</g>
</g>
<!-- mov_gobsquathalo&#45;&gt;mov_hornygobsquat -->
<g id="edge11" class="edge">
<title>mov_gobsquathalo&#45;&gt;mov_hornygobsquat</title>
<path fill="none" stroke="black" d="M597,-402.39C597,-369.95 597,-318.98 597,-287.04"/>
<polygon fill="black" stroke="black" points="600.5,-287.21 597,-277.21 593.5,-287.21 600.5,-287.21"/>
</g>
<!-- mov_racksquatpickup -->
<g id="node14" class="node">
<title>mov_racksquatpickup</title>
<g id="a_node14"><a xlink:href="https://www.youtube.com/watch?v=KTDVl0Lkdc4&amp;list=PLk4oYPJ7TXKhX8YqA2AVrfgs_pEF6p7KA&amp;index=52" xlink:title="{{47|Rock&#45;Bottom\nFront Squat Pickup}|PAUSE AT BOTTOM}">
<path fill="#ffff99" stroke="#b15928" d="M865.5,-225.25C865.5,-225.25 996.5,-225.25 996.5,-225.25 1002.5,-225.25 1008.5,-231.25 1008.5,-237.25 1008.5,-237.25 1008.5,-276.5 1008.5,-276.5 1008.5,-282.5 1002.5,-288.5 996.5,-288.5 996.5,-288.5 865.5,-288.5 865.5,-288.5 859.5,-288.5 853.5,-282.5 853.5,-276.5 853.5,-276.5 853.5,-237.25 853.5,-237.25 853.5,-231.25 859.5,-225.25 865.5,-225.25"/>
<text text-anchor="middle" x="868.25" y="-263.32" font-family="Times New Roman,serif" font-size="14.00">47</text>
<polyline fill="none" stroke="#b15928" points="883,-249 883,-288.5"/>
<text text-anchor="middle" x="945.75" y="-271.2" font-family="Times New Roman,serif" font-size="14.00">Rock&#45;Bottom</text>
<text text-anchor="middle" x="945.75" y="-255.45" font-family="Times New Roman,serif" font-size="14.00">Front Squat Pickup</text>
<polyline fill="none" stroke="#b15928" points="853.5,-249 1008.5,-249"/>
<text text-anchor="middle" x="931" y="-231.7" font-family="Times New Roman,serif" font-size="14.00">PAUSE AT BOTTOM</text>
</a>
</g>
</g>
<!-- mov_racksquat&#45;&gt;mov_racksquatpickup -->
<g id="edge12" class="edge">
<title>mov_racksquat&#45;&gt;mov_racksquatpickup</title>
<path fill="none" stroke="black" d="M931,-329.63C931,-321.02 931,-310.08 931,-299.36"/>
<polygon fill="black" stroke="black" points="934.5,-299.37 931,-289.37 927.5,-299.37 934.5,-299.37"/>
</g>
<!-- mov_thruster -->
<g id="node15" class="node">
<title>mov_thruster</title>
<g id="a_node15"><a xlink:href="https://www.youtube.com/watch?v=KTDVl0Lkdc4&amp;list=PLk4oYPJ7TXKhX8YqA2AVrfgs_pEF6p7KA&amp;index=48" xlink:title="{{48|Thruster}}">
<path fill="#ffff99" stroke="#b15928" d="M1344.62,-238.88C1344.62,-238.88 1413.38,-238.88 1413.38,-238.88 1419.38,-238.88 1425.38,-244.88 1425.38,-250.88 1425.38,-250.88 1425.38,-262.88 1425.38,-262.88 1425.38,-268.88 1419.38,-274.88 1413.38,-274.88 1413.38,-274.88 1344.62,-274.88 1344.62,-274.88 1338.62,-274.88 1332.62,-268.88 1332.62,-262.88 1332.62,-262.88 1332.62,-250.88 1332.62,-250.88 1332.62,-244.88 1338.62,-238.88 1344.62,-238.88"/>
<text text-anchor="middle" x="1347.38" y="-251.57" font-family="Times New Roman,serif" font-size="14.00">48</text>
<polyline fill="none" stroke="#b15928" points="1362.12,-239.12 1362.12,-274.88"/>
<text text-anchor="middle" x="1393.75" y="-251.57" font-family="Times New Roman,serif" font-size="14.00">Thruster</text>
</a>
</g>
</g>
<!-- mov_racksquat&#45;&gt;mov_thruster -->
<g id="edge13" class="edge">
<title>mov_racksquat&#45;&gt;mov_thruster</title>
<path fill="none" stroke="black" d="M1030.07,-343.95C1138.74,-340.78 1301.23,-333.91 1327,-320.75 1342.74,-312.72 1355.48,-297.59 1364.42,-284.18"/>
<polygon fill="black" stroke="black" points="1367.91,-286.19 1370.24,-275.85 1361.97,-282.48 1367.91,-286.19"/>
</g>
<!-- mov_boxsquat2boat -->
<g id="node8" class="node">
<title>mov_boxsquat2boat</title>
<g id="a_node8"><a xlink:href="https://www.youtube.com/watch?v=KTDVl0Lkdc4&amp;list=PLk4oYPJ7TXKhX8YqA2AVrfgs_pEF6p7KA&amp;index=41" xlink:title="{{39|Box Squat to Boat Pose}}">
<path fill="#ffff99" stroke="#b15928" d="M518.38,-132.75C518.38,-132.75 675.62,-132.75 675.62,-132.75 681.62,-132.75 687.62,-138.75 687.62,-144.75 687.62,-144.75 687.62,-156.75 687.62,-156.75 687.62,-162.75 681.62,-168.75 675.62,-168.75 675.62,-168.75 518.38,-168.75 518.38,-168.75 512.38,-168.75 506.38,-162.75 506.38,-156.75 506.38,-156.75 506.38,-144.75 506.38,-144.75 506.38,-138.75 512.38,-132.75 518.38,-132.75"/>
<text text-anchor="middle" x="521.12" y="-145.45" font-family="Times New Roman,serif" font-size="14.00">39</text>
<polyline fill="none" stroke="#b15928" points="535.88,-133 535.88,-168.75"/>
<text text-anchor="middle" x="611.75" y="-145.45" font-family="Times New Roman,serif" font-size="14.00">Box Squat to Boat Pose</text>
</a>
</g>
</g>
<!-- mov_deck -->
<g id="node23" class="node">
<title>mov_deck</title>
<g id="a_node23"><a xlink:href="https://www.youtube.com/watch?v=vUJ3sZVwZ4Y" xlink:title="{{72|Deck Squat}}">
<path fill="#ffff99" stroke="#b15928" d="M898.62,-40.25C898.62,-40.25 985.38,-40.25 985.38,-40.25 991.38,-40.25 997.38,-46.25 997.38,-52.25 997.38,-52.25 997.38,-64.25 997.38,-64.25 997.38,-70.25 991.38,-76.25 985.38,-76.25 985.38,-76.25 898.62,-76.25 898.62,-76.25 892.62,-76.25 886.62,-70.25 886.62,-64.25 886.62,-64.25 886.62,-52.25 886.62,-52.25 886.62,-46.25 892.62,-40.25 898.62,-40.25"/>
<text text-anchor="middle" x="901.38" y="-52.95" font-family="Times New Roman,serif" font-size="14.00">72</text>
<polyline fill="none" stroke="#b15928" points="916.12,-40.5 916.12,-76.25"/>
<text text-anchor="middle" x="956.75" y="-52.95" font-family="Times New Roman,serif" font-size="14.00">Deck Squat</text>
</a>
</g>
</g>
<!-- mov_boxsquat2boat&#45;&gt;mov_deck -->
<g id="edge19" class="edge">
<title>mov_boxsquat2boat&#45;&gt;mov_deck</title>
<path fill="none" stroke="black" d="M661.49,-132.83C722.79,-116.75 814.54,-92.68 876.26,-76.5"/>
<polygon fill="black" stroke="black" points="876.87,-79.69 885.65,-73.77 875.09,-72.92 876.87,-79.69"/>
</g>
<!-- mov_bwspinalrock -->
<g id="node9" class="node">
<title>mov_bwspinalrock</title>
<g id="a_node9"><a xlink:href="https://www.youtube.com/watch?v=KTDVl0Lkdc4&amp;list=PLk4oYPJ7TXKhX8YqA2AVrfgs_pEF6p7KA&amp;index=42" xlink:title="{{40|Spinal Rock\n(Bodyweight)}}">
<path fill="#ffff99" stroke="#b15928" d="M1205.38,-237.12C1205.38,-237.12 1302.62,-237.12 1302.62,-237.12 1308.62,-237.12 1314.62,-243.12 1314.62,-249.12 1314.62,-249.12 1314.62,-264.62 1314.62,-264.62 1314.62,-270.62 1308.62,-276.62 1302.62,-276.62 1302.62,-276.62 1205.38,-276.62 1205.38,-276.62 1199.38,-276.62 1193.38,-270.62 1193.38,-264.62 1193.38,-264.62 1193.38,-249.12 1193.38,-249.12 1193.38,-243.12 1199.38,-237.12 1205.38,-237.12"/>
<text text-anchor="middle" x="1208.12" y="-251.45" font-family="Times New Roman,serif" font-size="14.00">40</text>
<polyline fill="none" stroke="#b15928" points="1222.88,-237.12 1222.88,-276.62"/>
<text text-anchor="middle" x="1268.75" y="-259.32" font-family="Times New Roman,serif" font-size="14.00">Spinal Rock</text>
<text text-anchor="middle" x="1268.75" y="-243.57" font-family="Times New Roman,serif" font-size="14.00">(Bodyweight)</text>
</a>
</g>
</g>
<!-- mov_spinalrock -->
<g id="node11" class="node">
<title>mov_spinalrock</title>
<g id="a_node11"><a xlink:href="https://www.youtube.com/watch?v=KTDVl0Lkdc4&amp;list=PLk4oYPJ7TXKhX8YqA2AVrfgs_pEF6p7KA&amp;index=48" xlink:title="{{43|Spinal Rock}}">
<path fill="#ffff99" stroke="#b15928" d="M1143.75,-132.75C1143.75,-132.75 1234.25,-132.75 1234.25,-132.75 1240.25,-132.75 1246.25,-138.75 1246.25,-144.75 1246.25,-144.75 1246.25,-156.75 1246.25,-156.75 1246.25,-162.75 1240.25,-168.75 1234.25,-168.75 1234.25,-168.75 1143.75,-168.75 1143.75,-168.75 1137.75,-168.75 1131.75,-162.75 1131.75,-156.75 1131.75,-156.75 1131.75,-144.75 1131.75,-144.75 1131.75,-138.75 1137.75,-132.75 1143.75,-132.75"/>
<text text-anchor="middle" x="1146.5" y="-145.45" font-family="Times New Roman,serif" font-size="14.00">43</text>
<polyline fill="none" stroke="#b15928" points="1161.25,-133 1161.25,-168.75"/>
<text text-anchor="middle" x="1203.75" y="-145.45" font-family="Times New Roman,serif" font-size="14.00">Spinal Rock</text>
</a>
</g>
</g>
<!-- mov_bwspinalrock&#45;&gt;mov_spinalrock -->
<g id="edge20" class="edge">
<title>mov_bwspinalrock&#45;&gt;mov_spinalrock</title>
<path fill="none" stroke="black" d="M1242.38,-237.26C1232.04,-220.7 1216.81,-196.31 1205.27,-177.81"/>
<polygon fill="black" stroke="black" points="1207.71,-176.11 1199.45,-169.48 1201.77,-179.82 1207.71,-176.11"/>
</g>
<!-- mov_flatbackpullover -->
<g id="node10" class="node">
<title>mov_flatbackpullover</title>
<g id="a_node10"><a xlink:href="https://www.youtube.com/watch?v=KTDVl0Lkdc4&amp;list=PLk4oYPJ7TXKhX8YqA2AVrfgs_pEF6p7KA&amp;index=43" xlink:title="{{41|Flat Back Pullover}}">
<path fill="#ffff99" stroke="#b15928" d="M1038.88,-238.88C1038.88,-238.88 1163.12,-238.88 1163.12,-238.88 1169.12,-238.88 1175.12,-244.88 1175.12,-250.88 1175.12,-250.88 1175.12,-262.88 1175.12,-262.88 1175.12,-268.88 1169.12,-274.88 1163.12,-274.88 1163.12,-274.88 1038.88,-274.88 1038.88,-274.88 1032.88,-274.88 1026.88,-268.88 1026.88,-262.88 1026.88,-262.88 1026.88,-250.88 1026.88,-250.88 1026.88,-244.88 1032.88,-238.88 1038.88,-238.88"/>
<text text-anchor="middle" x="1041.62" y="-251.57" font-family="Times New Roman,serif" font-size="14.00">41</text>
<polyline fill="none" stroke="#b15928" points="1056.38,-239.12 1056.38,-274.88"/>
<text text-anchor="middle" x="1115.75" y="-251.57" font-family="Times New Roman,serif" font-size="14.00">Flat Back Pullover</text>
</a>
</g>
</g>
<!-- mov_backpullsituppress -->
<g id="node22" class="node">
<title>mov_backpullsituppress</title>
<g id="a_node22"><a xlink:href="https://www.youtube.com/watch?v=KTDVl0Lkdc4&amp;list=PLk4oYPJ7TXKhX8YqA2AVrfgs_pEF6p7KA&amp;index=57" xlink:title="{{55|Flat Back Pullover Situp Press}}">
<path fill="#ffff99" stroke="#b15928" d="M846.12,-132.75C846.12,-132.75 1037.88,-132.75 1037.88,-132.75 1043.88,-132.75 1049.88,-138.75 1049.88,-144.75 1049.88,-144.75 1049.88,-156.75 1049.88,-156.75 1049.88,-162.75 1043.88,-168.75 1037.88,-168.75 1037.88,-168.75 846.12,-168.75 846.12,-168.75 840.12,-168.75 834.12,-162.75 834.12,-156.75 834.12,-156.75 834.12,-144.75 834.12,-144.75 834.12,-138.75 840.12,-132.75 846.12,-132.75"/>
<text text-anchor="middle" x="848.88" y="-145.45" font-family="Times New Roman,serif" font-size="14.00">55</text>
<polyline fill="none" stroke="#b15928" points="863.62,-133 863.62,-168.75"/>
<text text-anchor="middle" x="956.75" y="-145.45" font-family="Times New Roman,serif" font-size="14.00">Flat Back Pullover Situp Press</text>
</a>
</g>
</g>
<!-- mov_flatbackpullover&#45;&gt;mov_backpullsituppress -->
<g id="edge17" class="edge">
<title>mov_flatbackpullover&#45;&gt;mov_backpullsituppress</title>
<path fill="none" stroke="black" d="M1075.1,-238.91C1048.42,-221.44 1006.67,-194.1 977.05,-174.7"/>
<polygon fill="black" stroke="black" points="979.17,-171.25 968.89,-168.7 975.34,-177.11 979.17,-171.25"/>
</g>
<!-- mov_spinalrock&#45;&gt;mov_deck -->
<g id="edge21" class="edge">
<title>mov_spinalrock&#45;&gt;mov_deck</title>
<path fill="none" stroke="black" d="M1142.83,-132.83C1101.98,-117.87 1042.25,-95.98 998.55,-79.97"/>
<polygon fill="black" stroke="black" points="999.96,-76.39 989.36,-76.24 997.55,-82.96 999.96,-76.39"/>
</g>
<!-- mov_pushpress&#45;&gt;mov_thruster -->
<g id="edge14" class="edge">
<title>mov_pushpress&#45;&gt;mov_thruster</title>
<path fill="none" stroke="black" d="M1379,-329.63C1379,-317.24 1379,-300.04 1379,-285.58"/>
<polygon fill="black" stroke="black" points="1382.5,-285.72 1379,-275.72 1375.5,-285.72 1382.5,-285.72"/>
</g>
<!-- mov_gobsquatcurl&#45;&gt;mov_boxsquat2boat -->
<g id="edge8" class="edge">
<title>mov_gobsquatcurl&#45;&gt;mov_boxsquat2boat</title>
<path fill="none" stroke="black" d="M461.5,-237.26C489.35,-219.68 531.18,-193.29 560.99,-174.47"/>
<polygon fill="black" stroke="black" points="562.62,-176.95 569.21,-168.65 558.89,-171.03 562.62,-176.95"/>
</g>
<!-- mov_seatedpress -->
<g id="node16" class="node">
<title>mov_seatedpress</title>
<g id="a_node16"><a xlink:href="https://www.youtube.com/watch?v=KTDVl0Lkdc4&amp;list=PLk4oYPJ7TXKhX8YqA2AVrfgs_pEF6p7KA&amp;index=54" xlink:title="{{49|Seated Two&#45;Handed\nOverhead Press}}">
<path fill="#ffff99" stroke="#b15928" d="M686.5,-237.12C686.5,-237.12 823.5,-237.12 823.5,-237.12 829.5,-237.12 835.5,-243.12 835.5,-249.12 835.5,-249.12 835.5,-264.62 835.5,-264.62 835.5,-270.62 829.5,-276.62 823.5,-276.62 823.5,-276.62 686.5,-276.62 686.5,-276.62 680.5,-276.62 674.5,-270.62 674.5,-264.62 674.5,-264.62 674.5,-249.12 674.5,-249.12 674.5,-243.12 680.5,-237.12 686.5,-237.12"/>
<text text-anchor="middle" x="689.25" y="-251.45" font-family="Times New Roman,serif" font-size="14.00">49</text>
<polyline fill="none" stroke="#b15928" points="704,-237.12 704,-276.62"/>
<text text-anchor="middle" x="769.75" y="-259.32" font-family="Times New Roman,serif" font-size="14.00">Seated Two&#45;Handed</text>
<text text-anchor="middle" x="769.75" y="-243.57" font-family="Times New Roman,serif" font-size="14.00">Overhead Press</text>
</a>
</g>
</g>
<!-- mov_seatedpress&#45;&gt;mov_backpullsituppress -->
<g id="edge18" class="edge">
<title>mov_seatedpress&#45;&gt;mov_backpullsituppress</title>
<path fill="none" stroke="black" d="M788.43,-237.26C820.27,-219.53 868.23,-192.83 902.06,-173.99"/>
<polygon fill="black" stroke="black" points="903.61,-176.58 910.64,-168.65 900.2,-170.46 903.61,-176.58"/>
</g>
<!-- mov_shinboxpress -->
<g id="node21" class="node">
<title>mov_shinboxpress</title>
<g id="a_node21"><a xlink:href="https://www.youtube.com/watch?v=FEbi2lKVEHU" xlink:title="{{54|Contra Shinbox Press}}">
<path fill="#ffff99" stroke="#b15928" d="M181.75,-132.75C181.75,-132.75 326.25,-132.75 326.25,-132.75 332.25,-132.75 338.25,-138.75 338.25,-144.75 338.25,-144.75 338.25,-156.75 338.25,-156.75 338.25,-162.75 332.25,-168.75 326.25,-168.75 326.25,-168.75 181.75,-168.75 181.75,-168.75 175.75,-168.75 169.75,-162.75 169.75,-156.75 169.75,-156.75 169.75,-144.75 169.75,-144.75 169.75,-138.75 175.75,-132.75 181.75,-132.75"/>
<text text-anchor="middle" x="184.5" y="-145.45" font-family="Times New Roman,serif" font-size="14.00">54</text>
<polyline fill="none" stroke="#b15928" points="199.25,-133 199.25,-168.75"/>
<text text-anchor="middle" x="268.75" y="-145.45" font-family="Times New Roman,serif" font-size="14.00">Contra Shinbox Press</text>
</a>
</g>
</g>
<!-- mov_rackaltshinbox&#45;&gt;mov_shinboxpress -->
<g id="edge16" class="edge">
<title>mov_rackaltshinbox&#45;&gt;mov_shinboxpress</title>
<path fill="none" stroke="black" d="M254,-239.15C254,-223.05 254,-198.44 254,-179.42"/>
<polygon fill="black" stroke="black" points="257.5,-179.44 254,-169.44 250.5,-179.44 257.5,-179.44"/>
</g>
<!-- mov_hornygobsquat&#45;&gt;mov_boxsquat2boat -->
<g id="edge9" class="edge">
<title>mov_hornygobsquat&#45;&gt;mov_boxsquat2boat</title>
<path fill="none" stroke="black" d="M597,-237.26C597,-221.16 597,-197.65 597,-179.36"/>
<polygon fill="black" stroke="black" points="600.5,-179.48 597,-169.48 593.5,-179.48 600.5,-179.48"/>
</g>
<!-- mov_backpullsituppress&#45;&gt;mov_deck -->
<g id="edge15" class="edge">
<title>mov_backpullsituppress&#45;&gt;mov_deck</title>
<path fill="none" stroke="black" d="M942,-133.15C942,-120.22 942,-101.99 942,-86.87"/>
<polygon fill="black" stroke="black" points="945.5,-87.05 942,-77.05 938.5,-87.05 945.5,-87.05"/>
</g>
<!-- Legend -->
<g id="node24" class="node">
<title>Legend</title>
<path fill="#ffff99" stroke="none" d="M1512.5,-188.75C1512.5,-188.75 1343.5,-188.75 1343.5,-188.75 1337.5,-188.75 1331.5,-182.75 1331.5,-176.75 1331.5,-176.75 1331.5,-124.75 1331.5,-124.75 1331.5,-118.75 1337.5,-112.75 1343.5,-112.75 1343.5,-112.75 1512.5,-112.75 1512.5,-112.75 1518.5,-112.75 1524.5,-118.75 1524.5,-124.75 1524.5,-124.75 1524.5,-176.75 1524.5,-176.75 1524.5,-182.75 1518.5,-188.75 1512.5,-188.75"/>
<polygon fill="none" stroke="#b15928" points="1331.5,-162.75 1331.5,-188.75 1524.5,-188.75 1524.5,-162.75 1331.5,-162.75"/>
<text text-anchor="start" x="1405.5" y="-171.45" font-family="Times New Roman,serif" font-weight="bold" font-size="14.00">Legend</text>
<polygon fill="none" stroke="#b15928" points="1331.5,-137.75 1331.5,-162.75 1496.5,-162.75 1496.5,-137.75 1331.5,-137.75"/>
<text text-anchor="start" x="1336.38" y="-144.45" font-family="Times New Roman,serif" font-size="14.00">Prerequisites and next steps</text>
<polygon fill="ghostwhite" stroke="none" points="1496.5,-137.75 1496.5,-162.75 1524.5,-162.75 1524.5,-137.75 1496.5,-137.75"/>
<polygon fill="none" stroke="#b15928" points="1496.5,-137.75 1496.5,-162.75 1524.5,-162.75 1524.5,-137.75 1496.5,-137.75"/>
<text text-anchor="start" x="1501.12" y="-144.45" font-family="Times New Roman,serif" font-size="14.00">     </text>
<polygon fill="none" stroke="#b15928" points="1331.5,-112.75 1331.5,-137.75 1496.5,-137.75 1496.5,-112.75 1331.5,-112.75"/>
<text text-anchor="start" x="1399.38" y="-119.45" font-family="Times New Roman,serif" font-size="14.00">Drills</text>
<polygon fill="#ffff99" stroke="none" points="1496.5,-112.75 1496.5,-137.75 1524.5,-137.75 1524.5,-112.75 1496.5,-112.75"/>
<polygon fill="none" stroke="#b15928" points="1496.5,-112.75 1496.5,-137.75 1524.5,-137.75 1524.5,-112.75 1496.5,-112.75"/>
</g>
</g>
</svg>
