<?xml version="1.0" encoding="UTF-8" standalone="no"?>
<!DOCTYPE svg PUBLIC "-//W3C//DTD SVG 1.1//EN"
 "http://www.w3.org/Graphics/SVG/1.1/DTD/svg11.dtd">
<!-- Generated by graphviz version 8.1.0 (20230707.0739)
 -->
<!-- Title: kb_progression Pages: 1 -->
<svg width="880pt" height="1073pt"
 viewBox="0.00 0.00 879.50 1073.25" xmlns="http://www.w3.org/2000/svg" xmlns:xlink="http://www.w3.org/1999/xlink">
<g id="graph0" class="graph" transform="scale(1 1) rotate(0) translate(4 1069.25)">
<title>kb_progression</title>
<polygon fill="white" stroke="none" points="-4,4 -4,-1069.25 875.5,-1069.25 875.5,4 -4,4"/>
<text text-anchor="middle" x="435.75" y="-6.45" font-family="Times New Roman,serif" font-size="14.00">Kettlebell Basic Skill Progression &#45; Part 1</text>
<!-- mov_atw -->
<g id="node1" class="node">
<title>mov_atw</title>
<g id="a_node1"><a xlink:href="https://www.youtube.com/watch?v=XaegZzSbtr0&amp;list=PLk4oYPJ7TXKhX8YqA2AVrfgs_pEF6p7KA&amp;index=3" xlink:title="{{3|Around the World}|HAND TRANSITION}">
<path fill="#fdbf6f" stroke="#ff7f00" d="M90,-924.88C90,-924.88 209.5,-924.88 209.5,-924.88 215.5,-924.88 221.5,-930.88 221.5,-936.88 221.5,-936.88 221.5,-960.38 221.5,-960.38 221.5,-966.38 215.5,-972.38 209.5,-972.38 209.5,-972.38 90,-972.38 90,-972.38 84,-972.38 78,-966.38 78,-960.38 78,-960.38 78,-936.88 78,-936.88 78,-930.88 84,-924.88 90,-924.88"/>
<text text-anchor="middle" x="89.88" y="-955.08" font-family="Times New Roman,serif" font-size="14.00">3</text>
<polyline fill="none" stroke="#ff7f00" points="101.75,-948.62 101.75,-972.38"/>
<text text-anchor="middle" x="161.62" y="-955.08" font-family="Times New Roman,serif" font-size="14.00">Around the World</text>
<polyline fill="none" stroke="#ff7f00" points="78,-948.62 221.5,-948.62"/>
<text text-anchor="middle" x="149.75" y="-931.33" font-family="Times New Roman,serif" font-size="14.00">HAND TRANSITION</text>
</a>
</g>
</g>
<!-- mov_atwf2b -->
<g id="node3" class="node">
<title>mov_atwf2b</title>
<g id="a_node3"><a xlink:href="https://www.youtube.com/watch?v=TwlQQXAQpaQ&amp;list=PLk4oYPJ7TXKhX8YqA2AVrfgs_pEF6p7KA&amp;index=5" xlink:title="5|Around the World\nFront to Back">
<path fill="#fdbf6f" stroke="#ff7f00" d="M12,-828.62C12,-828.62 129.5,-828.62 129.5,-828.62 135.5,-828.62 141.5,-834.62 141.5,-840.62 141.5,-840.62 141.5,-856.12 141.5,-856.12 141.5,-862.12 135.5,-868.12 129.5,-868.12 129.5,-868.12 12,-868.12 12,-868.12 6,-868.12 0,-862.12 0,-856.12 0,-856.12 0,-840.62 0,-840.62 0,-834.62 6,-828.62 12,-828.62"/>
<text text-anchor="middle" x="11.38" y="-842.95" font-family="Times New Roman,serif" font-size="14.00">5</text>
<polyline fill="none" stroke="#ff7f00" points="22.75,-828.62 22.75,-868.12"/>
<text text-anchor="middle" x="82.12" y="-850.83" font-family="Times New Roman,serif" font-size="14.00">Around the World</text>
<text text-anchor="middle" x="82.12" y="-835.08" font-family="Times New Roman,serif" font-size="14.00">Front to Back</text>
</a>
</g>
</g>
<!-- mov_atw&#45;&gt;mov_atwf2b -->
<g id="edge4" class="edge">
<title>mov_atw&#45;&gt;mov_atwf2b</title>
<path fill="none" stroke="black" d="M131.82,-925.33C120.18,-910.85 104.93,-891.88 92.58,-876.52"/>
<polygon fill="black" stroke="black" points="94.68,-874.55 85.69,-868.95 89.23,-878.94 94.68,-874.55"/>
</g>
<!-- mov_halo -->
<g id="node2" class="node">
<title>mov_halo</title>
<g id="a_node2"><a xlink:href="https://www.youtube.com/watch?v=25xdtjbFPtw&amp;list=PLk4oYPJ7TXKhX8YqA2AVrfgs_pEF6p7KA&amp;index=4" xlink:title="{{4|Halo}|GLOBE UP\nORDER POSITION}">
<path fill="#fdbf6f" stroke="#ff7f00" d="M330.25,-917C330.25,-917 439.25,-917 439.25,-917 445.25,-917 451.25,-923 451.25,-929 451.25,-929 451.25,-968.25 451.25,-968.25 451.25,-974.25 445.25,-980.25 439.25,-980.25 439.25,-980.25 330.25,-980.25 330.25,-980.25 324.25,-980.25 318.25,-974.25 318.25,-968.25 318.25,-968.25 318.25,-929 318.25,-929 318.25,-923 324.25,-917 330.25,-917"/>
<text text-anchor="middle" x="346.62" y="-962.95" font-family="Times New Roman,serif" font-size="14.00">4</text>
<polyline fill="none" stroke="#ff7f00" points="375,-956.5 375,-980.25"/>
<text text-anchor="middle" x="413.12" y="-962.95" font-family="Times New Roman,serif" font-size="14.00">Halo</text>
<polyline fill="none" stroke="#ff7f00" points="318.25,-956.5 451.25,-956.5"/>
<text text-anchor="middle" x="384.75" y="-939.2" font-family="Times New Roman,serif" font-size="14.00">GLOBE UP</text>
<text text-anchor="middle" x="384.75" y="-923.45" font-family="Times New Roman,serif" font-size="14.00">ORDER POSITION</text>
</a>
</g>
</g>
<!-- mov_althalo -->
<g id="node14" class="node">
<title>mov_althalo</title>
<g id="a_node14"><a xlink:href="https://www.youtube.com/watch?v=SMpquy5zSL4&amp;list=PLk4oYPJ7TXKhX8YqA2AVrfgs_pEF6p7KA&amp;index=7" xlink:title="7|Alternating Halo">
<path fill="#ffff99" stroke="#b15928" d="M171.38,-830.38C171.38,-830.38 276.12,-830.38 276.12,-830.38 282.12,-830.38 288.12,-836.38 288.12,-842.38 288.12,-842.38 288.12,-854.38 288.12,-854.38 288.12,-860.38 282.12,-866.38 276.12,-866.38 276.12,-866.38 171.38,-866.38 171.38,-866.38 165.38,-866.38 159.38,-860.38 159.38,-854.38 159.38,-854.38 159.38,-842.38 159.38,-842.38 159.38,-836.38 165.38,-830.38 171.38,-830.38"/>
<text text-anchor="middle" x="170.75" y="-842.95" font-family="Times New Roman,serif" font-size="14.00">7</text>
<polyline fill="none" stroke="#b15928" points="182.12,-830.38 182.12,-866.38"/>
<text text-anchor="middle" x="235.12" y="-842.95" font-family="Times New Roman,serif" font-size="14.00">Alternating Halo</text>
</a>
</g>
</g>
<!-- mov_halo&#45;&gt;mov_althalo -->
<g id="edge6" class="edge">
<title>mov_halo&#45;&gt;mov_althalo</title>
<path fill="none" stroke="black" d="M334.69,-917.08C310.73,-902.45 282.55,-885.26 260.58,-871.85"/>
<polygon fill="black" stroke="black" points="262.63,-868.39 252.28,-866.17 258.99,-874.37 262.63,-868.39"/>
</g>
<!-- mov_gobboxsquat -->
<g id="node24" class="node">
<title>mov_gobboxsquat</title>
<g id="a_node24"><a xlink:href="https://www.youtube.com/watch?v=k5Bc7pkEmrU&amp;list=PLk4oYPJ7TXKhX8YqA2AVrfgs_pEF6p7KA&amp;index=20" xlink:title="{{20|Bottoms&#45;Up Goblet\nBox Squat}|SQUAT BACK}">
<path fill="#ffff99" stroke="#b15928" d="M318.12,-816.75C318.12,-816.75 451.38,-816.75 451.38,-816.75 457.38,-816.75 463.38,-822.75 463.38,-828.75 463.38,-828.75 463.38,-868 463.38,-868 463.38,-874 457.38,-880 451.38,-880 451.38,-880 318.12,-880 318.12,-880 312.12,-880 306.12,-874 306.12,-868 306.12,-868 306.12,-828.75 306.12,-828.75 306.12,-822.75 312.12,-816.75 318.12,-816.75"/>
<text text-anchor="middle" x="320.88" y="-854.83" font-family="Times New Roman,serif" font-size="14.00">20</text>
<polyline fill="none" stroke="#b15928" points="335.62,-840.5 335.62,-880"/>
<text text-anchor="middle" x="399.5" y="-862.7" font-family="Times New Roman,serif" font-size="14.00">Bottoms&#45;Up Goblet</text>
<text text-anchor="middle" x="399.5" y="-846.95" font-family="Times New Roman,serif" font-size="14.00">Box Squat</text>
<polyline fill="none" stroke="#b15928" points="306.12,-840.5 463.38,-840.5"/>
<text text-anchor="middle" x="384.75" y="-823.2" font-family="Times New Roman,serif" font-size="14.00">SQUAT BACK</text>
</a>
</g>
</g>
<!-- mov_halo&#45;&gt;mov_gobboxsquat -->
<g id="edge23" class="edge">
<title>mov_halo&#45;&gt;mov_gobboxsquat</title>
<path fill="none" stroke="black" d="M384.75,-917.08C384.75,-908.76 384.75,-899.61 384.75,-890.8"/>
<polygon fill="black" stroke="black" points="388.25,-890.9 384.75,-880.9 381.25,-890.9 388.25,-890.9"/>
</g>
<!-- mov_atwb2f -->
<g id="node4" class="node">
<title>mov_atwb2f</title>
<g id="a_node4"><a xlink:href="https://www.youtube.com/watch?v=GrRO00YOIWM&amp;list=PLk4oYPJ7TXKhX8YqA2AVrfgs_pEF6p7KA&amp;index=6" xlink:title="6|Around the World\nBack to Front">
<path fill="#fdbf6f" stroke="#ff7f00" d="M12,-728.38C12,-728.38 129.5,-728.38 129.5,-728.38 135.5,-728.38 141.5,-734.38 141.5,-740.38 141.5,-740.38 141.5,-755.88 141.5,-755.88 141.5,-761.88 135.5,-767.88 129.5,-767.88 129.5,-767.88 12,-767.88 12,-767.88 6,-767.88 0,-761.88 0,-755.88 0,-755.88 0,-740.38 0,-740.38 0,-734.38 6,-728.38 12,-728.38"/>
<text text-anchor="middle" x="11.38" y="-742.7" font-family="Times New Roman,serif" font-size="14.00">6</text>
<polyline fill="none" stroke="#ff7f00" points="22.75,-728.38 22.75,-767.88"/>
<text text-anchor="middle" x="82.12" y="-750.58" font-family="Times New Roman,serif" font-size="14.00">Around the World</text>
<text text-anchor="middle" x="82.12" y="-734.83" font-family="Times New Roman,serif" font-size="14.00">Back to Front</text>
</a>
</g>
</g>
<!-- mov_atwf2b&#45;&gt;mov_atwb2f -->
<g id="edge5" class="edge">
<title>mov_atwf2b&#45;&gt;mov_atwb2f</title>
<path fill="none" stroke="black" d="M70.75,-828.89C70.75,-814.71 70.75,-794.86 70.75,-778.51"/>
<polygon fill="black" stroke="black" points="74.25,-778.86 70.75,-768.86 67.25,-778.86 74.25,-778.86"/>
</g>
<!-- mov_2hu1hd -->
<g id="node5" class="node">
<title>mov_2hu1hd</title>
<g id="a_node5"><a xlink:href="https://www.youtube.com/watch?v=eMkDP9VmMc0&amp;list=PLk4oYPJ7TXKhX8YqA2AVrfgs_pEF6p7KA&amp;index=8" xlink:title="{{8|Two Hand Pickup\nOne Hand Putdown}|RACK POSITION}">
<path fill="#cab2d6" stroke="#6a3d9a" d="M428.88,-716.5C428.88,-716.5 554.62,-716.5 554.62,-716.5 560.62,-716.5 566.62,-722.5 566.62,-728.5 566.62,-728.5 566.62,-767.75 566.62,-767.75 566.62,-773.75 560.62,-779.75 554.62,-779.75 554.62,-779.75 428.88,-779.75 428.88,-779.75 422.88,-779.75 416.88,-773.75 416.88,-767.75 416.88,-767.75 416.88,-728.5 416.88,-728.5 416.88,-722.5 422.88,-716.5 428.88,-716.5"/>
<text text-anchor="middle" x="428.25" y="-754.58" font-family="Times New Roman,serif" font-size="14.00">8</text>
<polyline fill="none" stroke="#6a3d9a" points="439.62,-740.25 439.62,-779.75"/>
<text text-anchor="middle" x="503.12" y="-762.45" font-family="Times New Roman,serif" font-size="14.00">Two Hand Pickup</text>
<text text-anchor="middle" x="503.12" y="-746.7" font-family="Times New Roman,serif" font-size="14.00">One Hand Putdown</text>
<polyline fill="none" stroke="#6a3d9a" points="416.88,-740.25 566.62,-740.25"/>
<text text-anchor="middle" x="491.75" y="-722.95" font-family="Times New Roman,serif" font-size="14.00">RACK POSITION</text>
</a>
</g>
</g>
<!-- mov_2hucleandown -->
<g id="node6" class="node">
<title>mov_2hucleandown</title>
<g id="a_node6"><a xlink:href="https://www.youtube.com/watch?v=cQC2y-ByaAw&amp;list=PLk4oYPJ7TXKhX8YqA2AVrfgs_pEF6p7KA&amp;index=11" xlink:title="11|Two Hand Pickup\nClean Putdown">
<path fill="#cab2d6" stroke="#6a3d9a" d="M592.62,-628.12C592.62,-628.12 716.88,-628.12 716.88,-628.12 722.88,-628.12 728.88,-634.12 728.88,-640.12 728.88,-640.12 728.88,-655.62 728.88,-655.62 728.88,-661.62 722.88,-667.62 716.88,-667.62 716.88,-667.62 592.62,-667.62 592.62,-667.62 586.62,-667.62 580.62,-661.62 580.62,-655.62 580.62,-655.62 580.62,-640.12 580.62,-640.12 580.62,-634.12 586.62,-628.12 592.62,-628.12"/>
<text text-anchor="middle" x="595.38" y="-642.45" font-family="Times New Roman,serif" font-size="14.00">11</text>
<polyline fill="none" stroke="#6a3d9a" points="610.12,-628.12 610.12,-667.62"/>
<text text-anchor="middle" x="669.5" y="-650.33" font-family="Times New Roman,serif" font-size="14.00">Two Hand Pickup</text>
<text text-anchor="middle" x="669.5" y="-634.58" font-family="Times New Roman,serif" font-size="14.00">Clean Putdown</text>
</a>
</g>
</g>
<!-- mov_2hu1hd&#45;&gt;mov_2hucleandown -->
<g id="edge10" class="edge">
<title>mov_2hu1hd&#45;&gt;mov_2hucleandown</title>
<path fill="none" stroke="black" d="M542.43,-716.58C565.71,-702.54 592.93,-686.14 614.74,-672.99"/>
<polygon fill="black" stroke="black" points="616.28,-675.55 623.04,-667.39 612.67,-669.55 616.28,-675.55"/>
</g>
<!-- mov_press -->
<g id="node19" class="node">
<title>mov_press</title>
<g id="a_node19"><a xlink:href="https://www.youtube.com/watch?v=XHkI03S6Pls&amp;list=PLk4oYPJ7TXKhX8YqA2AVrfgs_pEF6p7KA&amp;index=14" xlink:title="14|Single Arm\nOverhead Press">
<path fill="#ffff99" stroke="#b15928" d="M440.75,-628.12C440.75,-628.12 550.75,-628.12 550.75,-628.12 556.75,-628.12 562.75,-634.12 562.75,-640.12 562.75,-640.12 562.75,-655.62 562.75,-655.62 562.75,-661.62 556.75,-667.62 550.75,-667.62 550.75,-667.62 440.75,-667.62 440.75,-667.62 434.75,-667.62 428.75,-661.62 428.75,-655.62 428.75,-655.62 428.75,-640.12 428.75,-640.12 428.75,-634.12 434.75,-628.12 440.75,-628.12"/>
<text text-anchor="middle" x="443.5" y="-642.45" font-family="Times New Roman,serif" font-size="14.00">14</text>
<polyline fill="none" stroke="#b15928" points="458.25,-628.12 458.25,-667.62"/>
<text text-anchor="middle" x="510.5" y="-650.33" font-family="Times New Roman,serif" font-size="14.00">Single Arm</text>
<text text-anchor="middle" x="510.5" y="-634.58" font-family="Times New Roman,serif" font-size="14.00">Overhead Press</text>
</a>
</g>
</g>
<!-- mov_2hu1hd&#45;&gt;mov_press -->
<g id="edge15" class="edge">
<title>mov_2hu1hd&#45;&gt;mov_press</title>
<path fill="none" stroke="black" d="M492.99,-716.58C493.49,-704.37 494.06,-690.36 494.55,-678.27"/>
<polygon fill="black" stroke="black" points="498.09,-678.52 495,-668.39 491.09,-678.24 498.09,-678.52"/>
</g>
<!-- mov_racksquat -->
<g id="node27" class="node">
<title>mov_racksquat</title>
<g id="a_node27"><a xlink:href="https://www.youtube.com/watch?v=KTDVl0Lkdc4&amp;list=PLk4oYPJ7TXKhX8YqA2AVrfgs_pEF6p7KA&amp;index=23" xlink:title="{{23|Single&#45;Bell Front Squat}}">
<path fill="#ffff99" stroke="#b15928" d="M237.12,-541.5C237.12,-541.5 388.38,-541.5 388.38,-541.5 394.38,-541.5 400.38,-547.5 400.38,-553.5 400.38,-553.5 400.38,-565.5 400.38,-565.5 400.38,-571.5 394.38,-577.5 388.38,-577.5 388.38,-577.5 237.12,-577.5 237.12,-577.5 231.12,-577.5 225.12,-571.5 225.12,-565.5 225.12,-565.5 225.12,-553.5 225.12,-553.5 225.12,-547.5 231.12,-541.5 237.12,-541.5"/>
<text text-anchor="middle" x="239.88" y="-554.2" font-family="Times New Roman,serif" font-size="14.00">23</text>
<polyline fill="none" stroke="#b15928" points="254.62,-541.75 254.62,-577.5"/>
<text text-anchor="middle" x="327.5" y="-554.2" font-family="Times New Roman,serif" font-size="14.00">Single&#45;Bell Front Squat</text>
</a>
</g>
</g>
<!-- mov_2hu1hd&#45;&gt;mov_racksquat -->
<g id="edge27" class="edge">
<title>mov_2hu1hd&#45;&gt;mov_racksquat</title>
<path fill="none" stroke="black" d="M454.95,-716.56C442.99,-705.68 430.14,-692.92 419.75,-680 398.96,-654.15 403.5,-640.8 381.75,-615.75 371.65,-604.11 358.86,-593.11 347.04,-584.02"/>
<polygon fill="black" stroke="black" points="349.36,-580.64 339.25,-577.48 345.18,-586.26 349.36,-580.64"/>
</g>
<!-- mov_clean -->
<g id="node17" class="node">
<title>mov_clean</title>
<g id="a_node17"><a xlink:href="https://www.youtube.com/watch?v=_nIsSXWs5iU&amp;list=PLk4oYPJ7TXKhX8YqA2AVrfgs_pEF6p7KA&amp;index=12" xlink:title="12|Swing Clean">
<path fill="#ffff99" stroke="#b15928" d="M606.12,-541.5C606.12,-541.5 697.38,-541.5 697.38,-541.5 703.38,-541.5 709.38,-547.5 709.38,-553.5 709.38,-553.5 709.38,-565.5 709.38,-565.5 709.38,-571.5 703.38,-577.5 697.38,-577.5 697.38,-577.5 606.12,-577.5 606.12,-577.5 600.12,-577.5 594.12,-571.5 594.12,-565.5 594.12,-565.5 594.12,-553.5 594.12,-553.5 594.12,-547.5 600.12,-541.5 606.12,-541.5"/>
<text text-anchor="middle" x="608.88" y="-554.08" font-family="Times New Roman,serif" font-size="14.00">12</text>
<polyline fill="none" stroke="#b15928" points="623.62,-541.5 623.62,-577.5"/>
<text text-anchor="middle" x="666.5" y="-554.08" font-family="Times New Roman,serif" font-size="14.00">Swing Clean</text>
</a>
</g>
</g>
<!-- mov_2hucleandown&#45;&gt;mov_clean -->
<g id="edge12" class="edge">
<title>mov_2hucleandown&#45;&gt;mov_clean</title>
<path fill="none" stroke="black" d="M654.1,-628.13C653.69,-616.47 653.17,-601.25 652.71,-588.21"/>
<polygon fill="black" stroke="black" points="656.18,-588.32 652.34,-578.45 649.19,-588.56 656.18,-588.32"/>
</g>
<!-- mov_news -->
<g id="node7" class="node">
<title>mov_news</title>
<g id="a_node7"><a xlink:href="https://www.youtube.com/watch?v=htByOXjHLXE&amp;list=PLk4oYPJ7TXKhX8YqA2AVrfgs_pEF6p7KA&amp;index=15" xlink:title="15|Newspaper drill">
<path fill="#cab2d6" stroke="#6a3d9a" d="M597.12,-453.12C597.12,-453.12 706.38,-453.12 706.38,-453.12 712.38,-453.12 718.38,-459.12 718.38,-465.12 718.38,-465.12 718.38,-477.12 718.38,-477.12 718.38,-483.12 712.38,-489.12 706.38,-489.12 706.38,-489.12 597.12,-489.12 597.12,-489.12 591.12,-489.12 585.12,-483.12 585.12,-477.12 585.12,-477.12 585.12,-465.12 585.12,-465.12 585.12,-459.12 591.12,-453.12 597.12,-453.12"/>
<text text-anchor="middle" x="599.88" y="-465.7" font-family="Times New Roman,serif" font-size="14.00">15</text>
<polyline fill="none" stroke="#6a3d9a" points="614.62,-453.12 614.62,-489.12"/>
<text text-anchor="middle" x="666.5" y="-465.7" font-family="Times New Roman,serif" font-size="14.00">Newspaper drill</text>
</a>
</g>
</g>
<!-- mov_racklunge -->
<g id="node8" class="node">
<title>mov_racklunge</title>
<g id="a_node8"><a xlink:href="https://www.youtube.com/watch?v=KTDVl0Lkdc4&amp;list=PLk4oYPJ7TXKhX8YqA2AVrfgs_pEF6p7KA&amp;index=24" xlink:title="{{KB&#45;24|Rack Opposite Leg\nStep&#45;Back Lunge}|VERTICAL SPINE}">
<path fill="ghostwhite" stroke="lightslategrey" d="M80.62,-439.5C80.62,-439.5 234.88,-439.5 234.88,-439.5 240.88,-439.5 246.88,-445.5 246.88,-451.5 246.88,-451.5 246.88,-490.75 246.88,-490.75 246.88,-496.75 240.88,-502.75 234.88,-502.75 234.88,-502.75 80.62,-502.75 80.62,-502.75 74.62,-502.75 68.62,-496.75 68.62,-490.75 68.62,-490.75 68.62,-451.5 68.62,-451.5 68.62,-445.5 74.62,-439.5 80.62,-439.5"/>
<text text-anchor="middle" x="95" y="-477.57" font-family="Times New Roman,serif" font-size="14.00">KB&#45;24</text>
<polyline fill="none" stroke="lightslategrey" points="121.38,-463.25 121.38,-502.75"/>
<text text-anchor="middle" x="184.12" y="-485.45" font-family="Times New Roman,serif" font-size="14.00">Rack Opposite Leg</text>
<text text-anchor="middle" x="184.12" y="-469.7" font-family="Times New Roman,serif" font-size="14.00">Step&#45;Back Lunge</text>
<polyline fill="none" stroke="lightslategrey" points="68.62,-463.25 246.88,-463.25"/>
<text text-anchor="middle" x="157.75" y="-445.95" font-family="Times New Roman,serif" font-size="14.00">VERTICAL SPINE</text>
</a>
</g>
</g>
<!-- mov_clean2sblunge -->
<g id="node9" class="node">
<title>mov_clean2sblunge</title>
<g id="a_node9"><a xlink:href="https://www.youtube.com/watch?v=KTDVl0Lkdc4&amp;list=PLk4oYPJ7TXKhX8YqA2AVrfgs_pEF6p7KA&amp;index=25" xlink:title="{{KB&#45;25|Clean Step&#45;Back Clean}}">
<path fill="ghostwhite" stroke="lightslategrey" d="M237.88,-364.75C237.88,-364.75 411.62,-364.75 411.62,-364.75 417.62,-364.75 423.62,-370.75 423.62,-376.75 423.62,-376.75 423.62,-388.75 423.62,-388.75 423.62,-394.75 417.62,-400.75 411.62,-400.75 411.62,-400.75 237.88,-400.75 237.88,-400.75 231.88,-400.75 225.88,-394.75 225.88,-388.75 225.88,-388.75 225.88,-376.75 225.88,-376.75 225.88,-370.75 231.88,-364.75 237.88,-364.75"/>
<text text-anchor="middle" x="252.25" y="-377.45" font-family="Times New Roman,serif" font-size="14.00">KB&#45;25</text>
<polyline fill="none" stroke="lightslategrey" points="278.62,-365 278.62,-400.75"/>
<text text-anchor="middle" x="351.12" y="-377.45" font-family="Times New Roman,serif" font-size="14.00">Clean Step&#45;Back Clean</text>
</a>
</g>
</g>
<!-- mov_racklunge&#45;&gt;mov_clean2sblunge -->
<g id="edge29" class="edge">
<title>mov_racklunge&#45;&gt;mov_clean2sblunge</title>
<path fill="none" stroke="black" d="M216.63,-439.67C238.32,-428.45 262.44,-415.98 282.39,-405.66"/>
<polygon fill="black" stroke="black" points="283.84,-408.33 291.11,-400.63 280.62,-402.12 283.84,-408.33"/>
</g>
<!-- mov_halfkneelclean -->
<g id="node10" class="node">
<title>mov_halfkneelclean</title>
<g id="a_node10"><a xlink:href="https://www.youtube.com/watch?v=KTDVl0Lkdc4&amp;list=PLk4oYPJ7TXKhX8YqA2AVrfgs_pEF6p7KA&amp;index=26" xlink:title="{{KB&#45;26|Half&#45;Kneeling Clean}}">
<path fill="ghostwhite" stroke="lightslategrey" d="M246.88,-276.38C246.88,-276.38 402.62,-276.38 402.62,-276.38 408.62,-276.38 414.62,-282.38 414.62,-288.38 414.62,-288.38 414.62,-300.38 414.62,-300.38 414.62,-306.38 408.62,-312.38 402.62,-312.38 402.62,-312.38 246.88,-312.38 246.88,-312.38 240.88,-312.38 234.88,-306.38 234.88,-300.38 234.88,-300.38 234.88,-288.38 234.88,-288.38 234.88,-282.38 240.88,-276.38 246.88,-276.38"/>
<text text-anchor="middle" x="261.25" y="-289.07" font-family="Times New Roman,serif" font-size="14.00">KB&#45;26</text>
<polyline fill="none" stroke="lightslategrey" points="287.62,-276.62 287.62,-312.38"/>
<text text-anchor="middle" x="351.12" y="-289.07" font-family="Times New Roman,serif" font-size="14.00">Half&#45;Kneeling Clean</text>
</a>
</g>
</g>
<!-- mov_clean2sblunge&#45;&gt;mov_halfkneelclean -->
<g id="edge31" class="edge">
<title>mov_clean2sblunge&#45;&gt;mov_halfkneelclean</title>
<path fill="none" stroke="black" d="M324.75,-365.1C324.75,-353.22 324.75,-336.98 324.75,-323.16"/>
<polygon fill="black" stroke="black" points="328.25,-323.27 324.75,-313.27 321.25,-323.27 328.25,-323.27"/>
</g>
<!-- mov_halfkneelcap -->
<g id="node11" class="node">
<title>mov_halfkneelcap</title>
<g id="a_node11"><a xlink:href="https://www.youtube.com/watch?v=KTDVl0Lkdc4&amp;list=PLk4oYPJ7TXKhX8YqA2AVrfgs_pEF6p7KA&amp;index=29" xlink:title="{{KB&#45;29|Half&#45;Kneeling\nClean &amp; Press}}">
<path fill="ghostwhite" stroke="lightslategrey" d="M350.88,-186.25C350.88,-186.25 476.62,-186.25 476.62,-186.25 482.62,-186.25 488.62,-192.25 488.62,-198.25 488.62,-198.25 488.62,-213.75 488.62,-213.75 488.62,-219.75 482.62,-225.75 476.62,-225.75 476.62,-225.75 350.88,-225.75 350.88,-225.75 344.88,-225.75 338.88,-219.75 338.88,-213.75 338.88,-213.75 338.88,-198.25 338.88,-198.25 338.88,-192.25 344.88,-186.25 350.88,-186.25"/>
<text text-anchor="middle" x="365.25" y="-200.57" font-family="Times New Roman,serif" font-size="14.00">KB&#45;29</text>
<polyline fill="none" stroke="lightslategrey" points="391.62,-186.25 391.62,-225.75"/>
<text text-anchor="middle" x="440.12" y="-208.45" font-family="Times New Roman,serif" font-size="14.00">Half&#45;Kneeling</text>
<text text-anchor="middle" x="440.12" y="-192.7" font-family="Times New Roman,serif" font-size="14.00">Clean &amp; Press</text>
</a>
</g>
</g>
<!-- mov_halfkneelclean&#45;&gt;mov_halfkneelcap -->
<g id="edge33" class="edge">
<title>mov_halfkneelclean&#45;&gt;mov_halfkneelcap</title>
<path fill="none" stroke="black" d="M341.91,-276.72C354.61,-264.39 372.16,-247.36 386.74,-233.22"/>
<polygon fill="black" stroke="black" points="388.74,-236.18 393.48,-226.7 383.87,-231.16 388.74,-236.18"/>
</g>
<!-- mov_deadlift -->
<g id="node12" class="node">
<title>mov_deadlift</title>
<g id="a_node12"><a xlink:href="https://www.youtube.com/watch?v=x0XkmM34BPI&amp;list=PLk4oYPJ7TXKhX8YqA2AVrfgs_pEF6p7KA&amp;index=1" xlink:title="{{1|Two Hand Deadlift}|HIP HINGE}">
<path fill="#ffff99" stroke="#b15928" d="M376.75,-1017.25C376.75,-1017.25 498.75,-1017.25 498.75,-1017.25 504.75,-1017.25 510.75,-1023.25 510.75,-1029.25 510.75,-1029.25 510.75,-1052.75 510.75,-1052.75 510.75,-1058.75 504.75,-1064.75 498.75,-1064.75 498.75,-1064.75 376.75,-1064.75 376.75,-1064.75 370.75,-1064.75 364.75,-1058.75 364.75,-1052.75 364.75,-1052.75 364.75,-1029.25 364.75,-1029.25 364.75,-1023.25 370.75,-1017.25 376.75,-1017.25"/>
<text text-anchor="middle" x="376.12" y="-1047.45" font-family="Times New Roman,serif" font-size="14.00">1</text>
<polyline fill="none" stroke="#b15928" points="387.5,-1041 387.5,-1064.75"/>
<text text-anchor="middle" x="449.12" y="-1047.45" font-family="Times New Roman,serif" font-size="14.00">Two Hand Deadlift</text>
<polyline fill="none" stroke="#b15928" points="364.75,-1041 510.75,-1041"/>
<text text-anchor="middle" x="437.75" y="-1023.7" font-family="Times New Roman,serif" font-size="14.00">HIP HINGE</text>
</a>
</g>
</g>
<!-- mov_deadlift&#45;&gt;mov_atw -->
<g id="edge2" class="edge">
<title>mov_deadlift&#45;&gt;mov_atw</title>
<path fill="none" stroke="black" d="M365.45,-1017.31C324.66,-1004.51 273.56,-988.48 231.34,-975.23"/>
<polygon fill="black" stroke="black" points="232.67,-971.66 222.08,-972.01 230.58,-978.34 232.67,-971.66"/>
</g>
<!-- mov_deadlift&#45;&gt;mov_halo -->
<g id="edge3" class="edge">
<title>mov_deadlift&#45;&gt;mov_halo</title>
<path fill="none" stroke="black" d="M424.65,-1017.66C419.68,-1009.19 413.87,-999.27 408.23,-989.67"/>
<polygon fill="black" stroke="black" points="410.78,-988.09 402.7,-981.23 404.74,-991.63 410.78,-988.09"/>
</g>
<!-- mov_deadlift&#45;&gt;mov_2hu1hd -->
<g id="edge7" class="edge">
<title>mov_deadlift&#45;&gt;mov_2hu1hd</title>
<path fill="none" stroke="black" d="M448,-1017.34C452.54,-1006.47 457.56,-993.15 460.75,-980.75 477.55,-915.41 485.6,-837.22 489.19,-790.45"/>
<polygon fill="black" stroke="black" points="492.75,-790.77 489.98,-780.55 485.76,-790.26 492.75,-790.77"/>
</g>
<!-- mov_swing -->
<g id="node13" class="node">
<title>mov_swing</title>
<g id="a_node13"><a xlink:href="https://www.youtube.com/watch?v=m-S9H2XVvYg&amp;list=PLk4oYPJ7TXKhX8YqA2AVrfgs_pEF6p7KA&amp;index=2" xlink:title="{{2|Two Hand Swing}|LEG DRIVE &amp;\nHIP SNAP}">
<path fill="#ffff99" stroke="#b15928" d="M552.25,-917C552.25,-917 665.25,-917 665.25,-917 671.25,-917 677.25,-923 677.25,-929 677.25,-929 677.25,-968.25 677.25,-968.25 677.25,-974.25 671.25,-980.25 665.25,-980.25 665.25,-980.25 552.25,-980.25 552.25,-980.25 546.25,-980.25 540.25,-974.25 540.25,-968.25 540.25,-968.25 540.25,-929 540.25,-929 540.25,-923 546.25,-917 552.25,-917"/>
<text text-anchor="middle" x="551.62" y="-962.95" font-family="Times New Roman,serif" font-size="14.00">2</text>
<polyline fill="none" stroke="#b15928" points="563,-956.5 563,-980.25"/>
<text text-anchor="middle" x="620.12" y="-962.95" font-family="Times New Roman,serif" font-size="14.00">Two Hand Swing</text>
<polyline fill="none" stroke="#b15928" points="540.25,-956.5 677.25,-956.5"/>
<text text-anchor="middle" x="608.75" y="-939.2" font-family="Times New Roman,serif" font-size="14.00">LEG DRIVE &amp;</text>
<text text-anchor="middle" x="608.75" y="-923.45" font-family="Times New Roman,serif" font-size="14.00">HIP SNAP</text>
</a>
</g>
</g>
<!-- mov_deadlift&#45;&gt;mov_swing -->
<g id="edge1" class="edge">
<title>mov_deadlift&#45;&gt;mov_swing</title>
<path fill="none" stroke="black" d="M480.46,-1017.43C498.91,-1007.68 520.93,-996.04 541.48,-985.18"/>
<polygon fill="black" stroke="black" points="542.91,-987.85 550.12,-980.08 539.64,-981.66 542.91,-987.85"/>
</g>
<!-- mov_saswing -->
<g id="node15" class="node">
<title>mov_saswing</title>
<g id="a_node15"><a xlink:href="https://www.youtube.com/watch?v=ejPpyLKZ1L4&amp;list=PLk4oYPJ7TXKhX8YqA2AVrfgs_pEF6p7KA&amp;index=9" xlink:title="{{9|Single Arm Swing}|THUMB POINTS BACK}">
<path fill="#ffff99" stroke="#b15928" d="M597,-724.38C597,-724.38 734.5,-724.38 734.5,-724.38 740.5,-724.38 746.5,-730.38 746.5,-736.38 746.5,-736.38 746.5,-759.88 746.5,-759.88 746.5,-765.88 740.5,-771.88 734.5,-771.88 734.5,-771.88 597,-771.88 597,-771.88 591,-771.88 585,-765.88 585,-759.88 585,-759.88 585,-736.38 585,-736.38 585,-730.38 591,-724.38 597,-724.38"/>
<text text-anchor="middle" x="601.88" y="-754.58" font-family="Times New Roman,serif" font-size="14.00">9</text>
<polyline fill="none" stroke="#b15928" points="618.75,-748.12 618.75,-771.88"/>
<text text-anchor="middle" x="682.5" y="-754.58" font-family="Times New Roman,serif" font-size="14.00">Single Arm Swing</text>
<polyline fill="none" stroke="#b15928" points="585,-748.12 746.5,-748.12"/>
<text text-anchor="middle" x="665.75" y="-730.83" font-family="Times New Roman,serif" font-size="14.00">THUMB POINTS BACK</text>
</a>
</g>
</g>
<!-- mov_swing&#45;&gt;mov_saswing -->
<g id="edge8" class="edge">
<title>mov_swing&#45;&gt;mov_saswing</title>
<path fill="none" stroke="black" d="M617.53,-917.04C628.02,-880.52 645.5,-819.66 656.28,-782.11"/>
<polygon fill="black" stroke="black" points="659.87,-783.29 659.26,-772.71 653.14,-781.36 659.87,-783.29"/>
</g>
<!-- mov_saswing&#45;&gt;mov_2hucleandown -->
<g id="edge11" class="edge">
<title>mov_saswing&#45;&gt;mov_2hucleandown</title>
<path fill="none" stroke="black" d="M663.25,-724.83C661.71,-711.02 659.71,-693.14 658.03,-678.19"/>
<polygon fill="black" stroke="black" points="661.42,-678 656.83,-668.45 654.46,-678.78 661.42,-678"/>
</g>
<!-- mov_h2h -->
<g id="node16" class="node">
<title>mov_h2h</title>
<g id="a_node16"><a xlink:href="https://www.youtube.com/watch?v=0Uk0Rdm3QFs&amp;list=PLk4oYPJ7TXKhX8YqA2AVrfgs_pEF6p7KA&amp;index=10" xlink:title="10|Hand to Hand\nTransition">
<path fill="#ffff99" stroke="#b15928" d="M746.62,-539.75C746.62,-539.75 846.88,-539.75 846.88,-539.75 852.88,-539.75 858.88,-545.75 858.88,-551.75 858.88,-551.75 858.88,-567.25 858.88,-567.25 858.88,-573.25 852.88,-579.25 846.88,-579.25 846.88,-579.25 746.62,-579.25 746.62,-579.25 740.62,-579.25 734.62,-573.25 734.62,-567.25 734.62,-567.25 734.62,-551.75 734.62,-551.75 734.62,-545.75 740.62,-539.75 746.62,-539.75"/>
<text text-anchor="middle" x="749.38" y="-554.08" font-family="Times New Roman,serif" font-size="14.00">10</text>
<polyline fill="none" stroke="#b15928" points="764.12,-539.75 764.12,-579.25"/>
<text text-anchor="middle" x="811.5" y="-561.95" font-family="Times New Roman,serif" font-size="14.00">Hand to Hand</text>
<text text-anchor="middle" x="811.5" y="-546.2" font-family="Times New Roman,serif" font-size="14.00">Transition</text>
</a>
</g>
</g>
<!-- mov_saswing&#45;&gt;mov_h2h -->
<g id="edge9" class="edge">
<title>mov_saswing&#45;&gt;mov_h2h</title>
<path fill="none" stroke="black" d="M694.4,-724.65C708.65,-712.5 725.41,-696.59 737.75,-680 758.89,-651.57 775.85,-614.4 786.07,-589.11"/>
<polygon fill="black" stroke="black" points="789.62,-590.65 790.03,-580.06 783.1,-588.08 789.62,-590.65"/>
</g>
<!-- mov_cleanh2h -->
<g id="node18" class="node">
<title>mov_cleanh2h</title>
<g id="a_node18"><a xlink:href="https://www.youtube.com/watch?v=6TVqHl2gtuM&amp;list=PLk4oYPJ7TXKhX8YqA2AVrfgs_pEF6p7KA&amp;index=13" xlink:title="13|Clean with\nHand Transition">
<path fill="#ffff99" stroke="#b15928" d="M748,-451.38C748,-451.38 859.5,-451.38 859.5,-451.38 865.5,-451.38 871.5,-457.38 871.5,-463.38 871.5,-463.38 871.5,-478.88 871.5,-478.88 871.5,-484.88 865.5,-490.88 859.5,-490.88 859.5,-490.88 748,-490.88 748,-490.88 742,-490.88 736,-484.88 736,-478.88 736,-478.88 736,-463.38 736,-463.38 736,-457.38 742,-451.38 748,-451.38"/>
<text text-anchor="middle" x="750.75" y="-465.7" font-family="Times New Roman,serif" font-size="14.00">13</text>
<polyline fill="none" stroke="#b15928" points="765.5,-451.38 765.5,-490.88"/>
<text text-anchor="middle" x="818.5" y="-473.57" font-family="Times New Roman,serif" font-size="14.00">Clean with</text>
<text text-anchor="middle" x="818.5" y="-457.82" font-family="Times New Roman,serif" font-size="14.00">Hand Transition</text>
</a>
</g>
</g>
<!-- mov_h2h&#45;&gt;mov_cleanh2h -->
<g id="edge14" class="edge">
<title>mov_h2h&#45;&gt;mov_cleanh2h</title>
<path fill="none" stroke="black" d="M798.27,-539.76C799.17,-528.67 800.33,-514.37 801.35,-501.77"/>
<polygon fill="black" stroke="black" points="804.91,-502.08 802.23,-491.83 797.94,-501.52 804.91,-502.08"/>
</g>
<!-- mov_clean&#45;&gt;mov_news -->
<g id="edge16" class="edge">
<title>mov_clean&#45;&gt;mov_news</title>
<path fill="none" stroke="black" d="M651.75,-541.85C651.75,-529.97 651.75,-513.73 651.75,-499.91"/>
<polygon fill="black" stroke="black" points="655.25,-500.02 651.75,-490.02 648.25,-500.02 655.25,-500.02"/>
</g>
<!-- mov_clean&#45;&gt;mov_cleanh2h -->
<g id="edge13" class="edge">
<title>mov_clean&#45;&gt;mov_cleanh2h</title>
<path fill="none" stroke="black" d="M681.42,-541.64C704.25,-528.67 736.1,-510.57 761.57,-496.09"/>
<polygon fill="black" stroke="black" points="763.03,-498.72 769.99,-490.74 759.57,-492.64 763.03,-498.72"/>
</g>
<!-- mov_startstopclean -->
<g id="node20" class="node">
<title>mov_startstopclean</title>
<g id="a_node20"><a xlink:href="https://www.youtube.com/watch?v=XbK3jxI0WNQ&amp;list=PLk4oYPJ7TXKhX8YqA2AVrfgs_pEF6p7KA&amp;index=16" xlink:title="{{16|Start Stop Clean}|START &amp; END CLEAN}">
<path fill="#ffff99" stroke="#b15928" d="M276.88,-447.38C276.88,-447.38 410.62,-447.38 410.62,-447.38 416.62,-447.38 422.62,-453.38 422.62,-459.38 422.62,-459.38 422.62,-482.88 422.62,-482.88 422.62,-488.88 416.62,-494.88 410.62,-494.88 410.62,-494.88 276.88,-494.88 276.88,-494.88 270.88,-494.88 264.88,-488.88 264.88,-482.88 264.88,-482.88 264.88,-459.38 264.88,-459.38 264.88,-453.38 270.88,-447.38 276.88,-447.38"/>
<text text-anchor="middle" x="284.62" y="-477.57" font-family="Times New Roman,serif" font-size="14.00">16</text>
<polyline fill="none" stroke="#b15928" points="304.38,-471.12 304.38,-494.88"/>
<text text-anchor="middle" x="363.5" y="-477.57" font-family="Times New Roman,serif" font-size="14.00">Start Stop Clean</text>
<polyline fill="none" stroke="#b15928" points="264.88,-471.12 422.62,-471.12"/>
<text text-anchor="middle" x="343.75" y="-453.82" font-family="Times New Roman,serif" font-size="14.00">START &amp; END CLEAN</text>
</a>
</g>
</g>
<!-- mov_clean&#45;&gt;mov_startstopclean -->
<g id="edge17" class="edge">
<title>mov_clean&#45;&gt;mov_startstopclean</title>
<path fill="none" stroke="black" d="M594.37,-545.65C549.74,-535.28 486.42,-519.74 431.75,-503.25 426.55,-501.68 421.2,-499.99 415.84,-498.23"/>
<polygon fill="black" stroke="black" points="417.12,-494.64 406.53,-494.8 414.91,-501.28 417.12,-494.64"/>
</g>
<!-- mov_cap -->
<g id="node21" class="node">
<title>mov_cap</title>
<g id="a_node21"><a xlink:href="https://www.youtube.com/watch?v=SSxB3m5qRas&amp;list=PLk4oYPJ7TXKhX8YqA2AVrfgs_pEF6p7KA&amp;index=17" xlink:title="17|Clean &amp; Press">
<path fill="#ffff99" stroke="#b15928" d="M452.5,-453.12C452.5,-453.12 555,-453.12 555,-453.12 561,-453.12 567,-459.12 567,-465.12 567,-465.12 567,-477.12 567,-477.12 567,-483.12 561,-489.12 555,-489.12 555,-489.12 452.5,-489.12 452.5,-489.12 446.5,-489.12 440.5,-483.12 440.5,-477.12 440.5,-477.12 440.5,-465.12 440.5,-465.12 440.5,-459.12 446.5,-453.12 452.5,-453.12"/>
<text text-anchor="middle" x="455.25" y="-465.7" font-family="Times New Roman,serif" font-size="14.00">17</text>
<polyline fill="none" stroke="#b15928" points="470,-453.12 470,-489.12"/>
<text text-anchor="middle" x="518.5" y="-465.7" font-family="Times New Roman,serif" font-size="14.00">Clean &amp; Press</text>
</a>
</g>
</g>
<!-- mov_clean&#45;&gt;mov_cap -->
<g id="edge18" class="edge">
<title>mov_clean&#45;&gt;mov_cap</title>
<path fill="none" stroke="black" d="M622.86,-541.64C599.81,-528.19 567.32,-509.23 542.09,-494.5"/>
<polygon fill="black" stroke="black" points="544.22,-491.11 533.82,-489.09 540.69,-497.15 544.22,-491.11"/>
</g>
<!-- mov_caph2h -->
<g id="node22" class="node">
<title>mov_caph2h</title>
<g id="a_node22"><a xlink:href="https://www.youtube.com/watch?v=5Q4vMOYvAGg&amp;list=PLk4oYPJ7TXKhX8YqA2AVrfgs_pEF6p7KA&amp;index=18" xlink:title="18|Clean &amp; Press with\nHand Transition">
<path fill="#ffff99" stroke="#b15928" d="M641,-363C641,-363 770.5,-363 770.5,-363 776.5,-363 782.5,-369 782.5,-375 782.5,-375 782.5,-390.5 782.5,-390.5 782.5,-396.5 776.5,-402.5 770.5,-402.5 770.5,-402.5 641,-402.5 641,-402.5 635,-402.5 629,-396.5 629,-390.5 629,-390.5 629,-375 629,-375 629,-369 635,-363 641,-363"/>
<text text-anchor="middle" x="643.75" y="-377.32" font-family="Times New Roman,serif" font-size="14.00">18</text>
<polyline fill="none" stroke="#b15928" points="658.5,-363 658.5,-402.5"/>
<text text-anchor="middle" x="720.5" y="-385.2" font-family="Times New Roman,serif" font-size="14.00">Clean &amp; Press with</text>
<text text-anchor="middle" x="720.5" y="-369.45" font-family="Times New Roman,serif" font-size="14.00">Hand Transition</text>
</a>
</g>
</g>
<!-- mov_cleanh2h&#45;&gt;mov_caph2h -->
<g id="edge21" class="edge">
<title>mov_cleanh2h&#45;&gt;mov_caph2h</title>
<path fill="none" stroke="black" d="M782.49,-451.38C768.62,-439.16 750.33,-423.04 735.08,-409.6"/>
<polygon fill="black" stroke="black" points="737.79,-407.44 727.97,-403.46 733.16,-412.69 737.79,-407.44"/>
</g>
<!-- mov_press&#45;&gt;mov_cap -->
<g id="edge19" class="edge">
<title>mov_press&#45;&gt;mov_cap</title>
<path fill="none" stroke="black" d="M496.61,-628.17C498.02,-597.27 500.85,-535.39 502.49,-499.54"/>
<polygon fill="black" stroke="black" points="506.02,-500.04 502.98,-489.89 499.03,-499.72 506.02,-500.04"/>
</g>
<!-- mov_startstopclean&#45;&gt;mov_clean2sblunge -->
<g id="edge30" class="edge">
<title>mov_startstopclean&#45;&gt;mov_clean2sblunge</title>
<path fill="none" stroke="black" d="M338.76,-447.43C336.31,-436.29 333.34,-422.79 330.76,-411.09"/>
<polygon fill="black" stroke="black" points="334.01,-410.58 328.45,-401.56 327.18,-412.08 334.01,-410.58"/>
</g>
<!-- mov_cap&#45;&gt;mov_caph2h -->
<g id="edge20" class="edge">
<title>mov_cap&#45;&gt;mov_caph2h</title>
<path fill="none" stroke="black" d="M542.59,-453.28C553.33,-448.64 564.99,-443.61 575.75,-439 600.59,-428.35 628.13,-416.64 651.45,-406.74"/>
<polygon fill="black" stroke="black" points="652.66,-409.61 660.5,-402.48 649.92,-403.16 652.66,-409.61"/>
</g>
<!-- mov_startstopcap -->
<g id="node23" class="node">
<title>mov_startstopcap</title>
<g id="a_node23"><a xlink:href="https://www.youtube.com/watch?v=dSj3kqbuois&amp;list=PLk4oYPJ7TXKhX8YqA2AVrfgs_pEF6p7KA&amp;index=19" xlink:title="{{19|Start Stop\nClean &amp; Press}|START &amp; END C&amp;P}">
<path fill="#ffff99" stroke="#b15928" d="M445.12,-262.75C445.12,-262.75 562.38,-262.75 562.38,-262.75 568.38,-262.75 574.38,-268.75 574.38,-274.75 574.38,-274.75 574.38,-314 574.38,-314 574.38,-320 568.38,-326 562.38,-326 562.38,-326 445.12,-326 445.12,-326 439.12,-326 433.12,-320 433.12,-314 433.12,-314 433.12,-274.75 433.12,-274.75 433.12,-268.75 439.12,-262.75 445.12,-262.75"/>
<text text-anchor="middle" x="451.38" y="-300.82" font-family="Times New Roman,serif" font-size="14.00">19</text>
<polyline fill="none" stroke="#b15928" points="469.62,-286.5 469.62,-326"/>
<text text-anchor="middle" x="521.62" y="-308.7" font-family="Times New Roman,serif" font-size="14.00">Start Stop</text>
<text text-anchor="middle" x="521.62" y="-292.95" font-family="Times New Roman,serif" font-size="14.00">Clean &amp; Press</text>
<polyline fill="none" stroke="#b15928" points="433.12,-286.5 574.38,-286.5"/>
<text text-anchor="middle" x="503.75" y="-269.2" font-family="Times New Roman,serif" font-size="14.00">START &amp; END C&amp;P</text>
</a>
</g>
</g>
<!-- mov_cap&#45;&gt;mov_startstopcap -->
<g id="edge22" class="edge">
<title>mov_cap&#45;&gt;mov_startstopcap</title>
<path fill="none" stroke="black" d="M503.75,-453.37C503.75,-426.62 503.75,-373.51 503.75,-336.27"/>
<polygon fill="black" stroke="black" points="507.25,-336.75 503.75,-326.75 500.25,-336.75 507.25,-336.75"/>
</g>
<!-- mov_startstopcap&#45;&gt;mov_halfkneelcap -->
<g id="edge32" class="edge">
<title>mov_startstopcap&#45;&gt;mov_halfkneelcap</title>
<path fill="none" stroke="black" d="M472.02,-262.92C461.9,-253.21 450.79,-242.55 441.02,-233.17"/>
<polygon fill="black" stroke="black" points="443.81,-231.03 434.17,-226.64 438.96,-236.09 443.81,-231.03"/>
</g>
<!-- mov_boxsquathalo -->
<g id="node25" class="node">
<title>mov_boxsquathalo</title>
<g id="a_node25"><a xlink:href="https://www.youtube.com/watch?v=Aik5-BStbnc&amp;list=PLk4oYPJ7TXKhX8YqA2AVrfgs_pEF6p7KA&amp;index=21" xlink:title="{{21|Goblet Box Squat\nwith Halo}|STAND AT TOP}">
<path fill="#ffff99" stroke="#b15928" d="M256.38,-716.5C256.38,-716.5 379.12,-716.5 379.12,-716.5 385.12,-716.5 391.12,-722.5 391.12,-728.5 391.12,-728.5 391.12,-767.75 391.12,-767.75 391.12,-773.75 385.12,-779.75 379.12,-779.75 379.12,-779.75 256.38,-779.75 256.38,-779.75 250.38,-779.75 244.38,-773.75 244.38,-767.75 244.38,-767.75 244.38,-728.5 244.38,-728.5 244.38,-722.5 250.38,-716.5 256.38,-716.5"/>
<text text-anchor="middle" x="259.12" y="-754.58" font-family="Times New Roman,serif" font-size="14.00">21</text>
<polyline fill="none" stroke="#b15928" points="273.88,-740.25 273.88,-779.75"/>
<text text-anchor="middle" x="332.5" y="-762.45" font-family="Times New Roman,serif" font-size="14.00">Goblet Box Squat</text>
<text text-anchor="middle" x="332.5" y="-746.7" font-family="Times New Roman,serif" font-size="14.00">with Halo</text>
<polyline fill="none" stroke="#b15928" points="244.38,-740.25 391.12,-740.25"/>
<text text-anchor="middle" x="317.75" y="-722.95" font-family="Times New Roman,serif" font-size="14.00">STAND AT TOP</text>
</a>
</g>
</g>
<!-- mov_gobboxsquat&#45;&gt;mov_boxsquathalo -->
<g id="edge24" class="edge">
<title>mov_gobboxsquat&#45;&gt;mov_boxsquathalo</title>
<path fill="none" stroke="black" d="M363.92,-816.83C357.8,-807.86 351.03,-797.93 344.6,-788.5"/>
<polygon fill="black" stroke="black" points="347.09,-786.94 338.57,-780.65 341.31,-790.89 347.09,-786.94"/>
</g>
<!-- mov_gobsquathalo -->
<g id="node26" class="node">
<title>mov_gobsquathalo</title>
<g id="a_node26"><a xlink:href="https://www.youtube.com/watch?v=cnZ8Mx8NQPE&amp;list=PLk4oYPJ7TXKhX8YqA2AVrfgs_pEF6p7KA&amp;index=22" xlink:title="{{22|Goblet Squat\nwith Halo}|FULL DEPTH}">
<path fill="#ffff99" stroke="#b15928" d="M264.88,-616.25C264.88,-616.25 360.62,-616.25 360.62,-616.25 366.62,-616.25 372.62,-622.25 372.62,-628.25 372.62,-628.25 372.62,-667.5 372.62,-667.5 372.62,-673.5 366.62,-679.5 360.62,-679.5 360.62,-679.5 264.88,-679.5 264.88,-679.5 258.88,-679.5 252.88,-673.5 252.88,-667.5 252.88,-667.5 252.88,-628.25 252.88,-628.25 252.88,-622.25 258.88,-616.25 264.88,-616.25"/>
<text text-anchor="middle" x="267.62" y="-654.33" font-family="Times New Roman,serif" font-size="14.00">22</text>
<polyline fill="none" stroke="#b15928" points="282.38,-640 282.38,-679.5"/>
<text text-anchor="middle" x="327.5" y="-662.2" font-family="Times New Roman,serif" font-size="14.00">Goblet Squat</text>
<text text-anchor="middle" x="327.5" y="-646.45" font-family="Times New Roman,serif" font-size="14.00">with Halo</text>
<polyline fill="none" stroke="#b15928" points="252.88,-640 372.62,-640"/>
<text text-anchor="middle" x="312.75" y="-622.7" font-family="Times New Roman,serif" font-size="14.00">FULL DEPTH</text>
</a>
</g>
</g>
<!-- mov_boxsquathalo&#45;&gt;mov_gobsquathalo -->
<g id="edge25" class="edge">
<title>mov_boxsquathalo&#45;&gt;mov_gobsquathalo</title>
<path fill="none" stroke="black" d="M316.2,-716.58C315.77,-708.26 315.31,-699.11 314.86,-690.3"/>
<polygon fill="black" stroke="black" points="318.31,-690.21 314.3,-680.4 311.32,-690.57 318.31,-690.21"/>
</g>
<!-- mov_gobsquathalo&#45;&gt;mov_racksquat -->
<g id="edge26" class="edge">
<title>mov_gobsquathalo&#45;&gt;mov_racksquat</title>
<path fill="none" stroke="black" d="M312.75,-616.67C312.75,-607.43 312.75,-597.32 312.75,-588.26"/>
<polygon fill="black" stroke="black" points="316.25,-588.48 312.75,-578.48 309.25,-588.48 316.25,-588.48"/>
</g>
<!-- mov_racksquat&#45;&gt;mov_racklunge -->
<g id="edge28" class="edge">
<title>mov_racksquat&#45;&gt;mov_racklunge</title>
<path fill="none" stroke="black" d="M282.5,-541.64C265.23,-532.02 242.9,-519.58 221.92,-507.89"/>
<polygon fill="black" stroke="black" points="223.84,-504.39 213.4,-502.58 220.43,-510.5 223.84,-504.39"/>
</g>
<!-- Legend -->
<g id="node28" class="node">
<title>Legend</title>
<path fill="#ffff99" stroke="none" d="M498.25,-149.75C498.25,-149.75 329.25,-149.75 329.25,-149.75 323.25,-149.75 317.25,-143.75 317.25,-137.75 317.25,-137.75 317.25,-35.75 317.25,-35.75 317.25,-29.75 323.25,-23.75 329.25,-23.75 329.25,-23.75 498.25,-23.75 498.25,-23.75 504.25,-23.75 510.25,-29.75 510.25,-35.75 510.25,-35.75 510.25,-137.75 510.25,-137.75 510.25,-143.75 504.25,-149.75 498.25,-149.75"/>
<polygon fill="none" stroke="#b15928" points="317.25,-123.75 317.25,-149.75 510.25,-149.75 510.25,-123.75 317.25,-123.75"/>
<text text-anchor="start" x="391.25" y="-132.45" font-family="Times New Roman,serif" font-weight="bold" font-size="14.00">Legend</text>
<polygon fill="none" stroke="#b15928" points="317.25,-98.75 317.25,-123.75 482.25,-123.75 482.25,-98.75 317.25,-98.75"/>
<text text-anchor="start" x="322.12" y="-105.45" font-family="Times New Roman,serif" font-size="14.00">Prerequisites and next steps</text>
<polygon fill="ghostwhite" stroke="none" points="482.25,-98.75 482.25,-123.75 510.25,-123.75 510.25,-98.75 482.25,-98.75"/>
<polygon fill="none" stroke="#b15928" points="482.25,-98.75 482.25,-123.75 510.25,-123.75 510.25,-98.75 482.25,-98.75"/>
<text text-anchor="start" x="486.88" y="-105.45" font-family="Times New Roman,serif" font-size="14.00">     </text>
<polygon fill="none" stroke="#b15928" points="317.25,-73.75 317.25,-98.75 482.25,-98.75 482.25,-73.75 317.25,-73.75"/>
<text text-anchor="start" x="385.12" y="-80.45" font-family="Times New Roman,serif" font-size="14.00">Drills</text>
<polygon fill="#ffff99" stroke="none" points="482.25,-73.75 482.25,-98.75 510.25,-98.75 510.25,-73.75 482.25,-73.75"/>
<polygon fill="none" stroke="#b15928" points="482.25,-73.75 482.25,-98.75 510.25,-98.75 510.25,-73.75 482.25,-73.75"/>
<polygon fill="none" stroke="#b15928" points="317.25,-48.75 317.25,-73.75 482.25,-73.75 482.25,-48.75 317.25,-48.75"/>
<text text-anchor="start" x="360" y="-55.45" font-family="Times New Roman,serif" font-size="14.00">Warmup drills</text>
<polygon fill="#fdbf6f" stroke="none" points="482.25,-48.75 482.25,-73.75 510.25,-73.75 510.25,-48.75 482.25,-48.75"/>
<polygon fill="none" stroke="#b15928" points="482.25,-48.75 482.25,-73.75 510.25,-73.75 510.25,-48.75 482.25,-48.75"/>
<polygon fill="none" stroke="#b15928" points="317.25,-23.75 317.25,-48.75 482.25,-48.75 482.25,-23.75 317.25,-23.75"/>
<text text-anchor="start" x="360.38" y="-30.45" font-family="Times New Roman,serif" font-size="14.00">Learning drills</text>
<polygon fill="#cab2d6" stroke="none" points="482.25,-23.75 482.25,-48.75 510.25,-48.75 510.25,-23.75 482.25,-23.75"/>
<polygon fill="none" stroke="#b15928" points="482.25,-23.75 482.25,-48.75 510.25,-48.75 510.25,-23.75 482.25,-23.75"/>
</g>
</g>
</svg>
