<?xml version="1.0" encoding="UTF-8" standalone="no"?>
<!DOCTYPE svg PUBLIC "-//W3C//DTD SVG 1.1//EN"
 "http://www.w3.org/Graphics/SVG/1.1/DTD/svg11.dtd">
<!-- Generated by graphviz version 9.0.0 (20230911.1827)
 -->
<!-- Title: kb_progression Pages: 1 -->
<svg width="1592pt" height="957pt"
 viewBox="0.00 0.00 1592.12 957.00" xmlns="http://www.w3.org/2000/svg" xmlns:xlink="http://www.w3.org/1999/xlink">
<g id="graph0" class="graph" transform="scale(1 1) rotate(0) translate(4 953)">
<title>kb_progression</title>
<polygon fill="white" stroke="none" points="-4,4 -4,-953 1588.12,-953 1588.12,4 -4,4"/>
<text text-anchor="start" x="1184.62" y="-145.7" font-family="Helvetica,Arial,sans-serif" font-weight="bold" font-size="14.00">Kettlebell Basic Skill Progression &#45; Part 4/4</text>
<text text-anchor="start" x="1184.62" y="-117.7" font-family="Helvetica,Arial,sans-serif" font-size="14.00">Diagram by dznz based on Mark Wildman&#39;s teachings.</text>
<text text-anchor="start" x="1184.62" y="-89.7" font-family="Helvetica,Arial,sans-serif" font-size="14.00">Source: </text>
<text text-anchor="start" x="1237.88" y="-89.7" font-family="Helvetica,Arial,sans-serif" font-weight="bold" font-size="14.00">https://github.com/dznz/wildman&#45;skill&#45;trees</text>
<text text-anchor="start" x="1184.62" y="-61.7" font-family="Helvetica,Arial,sans-serif" font-size="14.00">More by Mark Wildman &#45; </text>
<text text-anchor="start" x="1340.62" y="-61.7" font-family="Helvetica,Arial,sans-serif" font-weight="bold" font-size="14.00">https://www.wildmanathletica.com</text>
<text text-anchor="start" x="1184.62" y="-33.7" font-family="Helvetica,Arial,sans-serif" font-style="italic" font-size="14.00">© 2023. This work is openly licensed with CC BY&#45;NC&#45;SA 4.0</text>
<text text-anchor="start" x="1252.88" y="-19.7" font-family="Helvetica,Arial,sans-serif" font-style="italic" font-size="14.00">http://creativecommons.org/licenses/by&#45;nc&#45;sa/4.0/</text>
<text text-anchor="start" x="1376.62" y="-5.7" font-family="Helvetica,Arial,sans-serif" font-size="14.00"> &#160;</text>
<g id="clust4" class="cluster">
<title>cluster_snatch</title>
<polygon fill="none" stroke="black" points="1046.62,-171.75 1046.62,-549.88 1382.62,-549.88 1382.62,-171.75 1046.62,-171.75"/>
<text text-anchor="middle" x="1352.88" y="-532.58" font-family="Helvetica,Arial,sans-serif" font-size="14.00">Snatch</text>
</g>
<g id="clust3" class="cluster">
<title>cluster_double</title>
<polygon fill="none" stroke="black" points="141.62,-170 141.62,-815 698.62,-815 698.62,-170 141.62,-170"/>
<text text-anchor="middle" x="664" y="-797.7" font-family="Helvetica,Arial,sans-serif" font-size="14.00">Doubles</text>
</g>
<g id="clust2" class="cluster">
<title>cluster_deadlift</title>
<polygon fill="none" stroke="black" points="864.62,-559 864.62,-892.5 1040.62,-892.5 1040.62,-559 864.62,-559"/>
<text text-anchor="middle" x="1004.5" y="-875.2" font-family="Helvetica,Arial,sans-serif" font-size="14.00">Deadlifts</text>
</g>
<!-- ext_hc_dblswing -->
<g id="node1" class="node">
<title>ext_hc_dblswing</title>
<path fill="#a6cee3" stroke="#1f78b4" d="M13.5,-581.12C13.5,-581.12 119.75,-581.12 119.75,-581.12 125.75,-581.12 131.75,-587.12 131.75,-593.12 131.75,-593.12 131.75,-605.12 131.75,-605.12 131.75,-611.12 125.75,-617.12 119.75,-617.12 119.75,-617.12 13.5,-617.12 13.5,-617.12 7.5,-617.12 1.5,-611.12 1.5,-605.12 1.5,-605.12 1.5,-593.12 1.5,-593.12 1.5,-587.12 7.5,-581.12 13.5,-581.12"/>
<text text-anchor="middle" x="19.25" y="-593.83" font-family="Times New Roman,serif" font-size="14.00">HC</text>
<polyline fill="none" stroke="#1f78b4" points="37,-581.38 37,-617.12"/>
<text text-anchor="middle" x="84.38" y="-593.83" font-family="Times New Roman,serif" font-size="14.00">Double Swing</text>
</g>
<!-- ext_hc_dblrockit -->
<g id="node2" class="node">
<title>ext_hc_dblrockit</title>
<path fill="#a6cee3" stroke="#1f78b4" d="M12,-480.88C12,-480.88 121.25,-480.88 121.25,-480.88 127.25,-480.88 133.25,-486.88 133.25,-492.88 133.25,-492.88 133.25,-504.88 133.25,-504.88 133.25,-510.88 127.25,-516.88 121.25,-516.88 121.25,-516.88 12,-516.88 12,-516.88 6,-516.88 0,-510.88 0,-504.88 0,-504.88 0,-492.88 0,-492.88 0,-486.88 6,-480.88 12,-480.88"/>
<text text-anchor="middle" x="17.75" y="-493.57" font-family="Times New Roman,serif" font-size="14.00">HC</text>
<polyline fill="none" stroke="#1f78b4" points="35.5,-481.12 35.5,-516.88"/>
<text text-anchor="middle" x="84.38" y="-493.57" font-family="Times New Roman,serif" font-size="14.00">Double Rockit</text>
</g>
<!-- ext_hc_dblswing&#45;&gt;ext_hc_dblrockit -->
<g id="edge1" class="edge">
<title>ext_hc_dblswing&#45;&gt;ext_hc_dblrockit</title>
<path fill="none" stroke="black" d="M66.62,-581.01C66.62,-566.45 66.62,-545.24 66.62,-528.16"/>
<polygon fill="black" stroke="black" points="70.13,-528.64 66.63,-518.64 63.13,-528.64 70.13,-528.64"/>
</g>
<!-- mov_63_dblrockit -->
<g id="node16" class="node">
<title>mov_63_dblrockit</title>
<g id="a_node16"><a xlink:href="https://www.youtube.com/watch?v=zXB6hFrrBkA&amp;list=PLk4oYPJ7TXKhX8YqA2AVrfgs_pEF6p7KA&amp;index=63" xlink:title="{{63|Double Rockit}}">
<path fill="#ffff99" stroke="#b15928" d="M162,-374.75C162,-374.75 265.25,-374.75 265.25,-374.75 271.25,-374.75 277.25,-380.75 277.25,-386.75 277.25,-386.75 277.25,-398.75 277.25,-398.75 277.25,-404.75 271.25,-410.75 265.25,-410.75 265.25,-410.75 162,-410.75 162,-410.75 156,-410.75 150,-404.75 150,-398.75 150,-398.75 150,-386.75 150,-386.75 150,-380.75 156,-374.75 162,-374.75"/>
<text text-anchor="middle" x="164.75" y="-387.45" font-family="Times New Roman,serif" font-size="14.00">63</text>
<polyline fill="none" stroke="#b15928" points="179.5,-375 179.5,-410.75"/>
<text text-anchor="middle" x="228.38" y="-387.45" font-family="Times New Roman,serif" font-size="14.00">Double Rockit</text>
</a>
</g>
</g>
<!-- ext_hc_dblrockit&#45;&gt;mov_63_dblrockit -->
<g id="edge2" class="edge">
<title>ext_hc_dblrockit&#45;&gt;mov_63_dblrockit</title>
<path fill="none" stroke="black" d="M91.23,-480.45C115.5,-463.25 152.8,-436.84 179.84,-417.68"/>
<polygon fill="black" stroke="black" points="181.57,-420.75 187.71,-412.11 177.52,-415.03 181.57,-420.75"/>
</g>
<!-- mov_01_deadlift -->
<g id="node3" class="node">
<title>mov_01_deadlift</title>
<g id="a_node3"><a xlink:href="https://www.youtube.com/watch?v=x0XkmM34BPI&amp;list=PLk4oYPJ7TXKhX8YqA2AVrfgs_pEF6p7KA&amp;index=1" xlink:title="{{KB&#45;01|Two Hand Deadlift}|HIP HINGE}">
<path fill="#a6cee3" stroke="#1f78b4" d="M867.62,-901C867.62,-901 1019.62,-901 1019.62,-901 1025.62,-901 1031.62,-907 1031.62,-913 1031.62,-913 1031.62,-936.5 1031.62,-936.5 1031.62,-942.5 1025.62,-948.5 1019.62,-948.5 1019.62,-948.5 867.62,-948.5 867.62,-948.5 861.62,-948.5 855.62,-942.5 855.62,-936.5 855.62,-936.5 855.62,-913 855.62,-913 855.62,-907 861.62,-901 867.62,-901"/>
<text text-anchor="middle" x="882" y="-931.2" font-family="Times New Roman,serif" font-size="14.00">KB&#45;01</text>
<polyline fill="none" stroke="#1f78b4" points="908.38,-924.75 908.38,-948.5"/>
<text text-anchor="middle" x="970" y="-931.2" font-family="Times New Roman,serif" font-size="14.00">Two Hand Deadlift</text>
<polyline fill="none" stroke="#1f78b4" points="855.62,-924.75 1031.62,-924.75"/>
<text text-anchor="middle" x="943.62" y="-907.45" font-family="Times New Roman,serif" font-size="14.00">HIP HINGE</text>
</a>
</g>
</g>
<!-- mov_56_suitcasedl -->
<g id="node9" class="node">
<title>mov_56_suitcasedl</title>
<g id="a_node9"><a xlink:href="https://www.youtube.com/watch?v=d6i6MwVOmk0&amp;list=PLk4oYPJ7TXKhX8YqA2AVrfgs_pEF6p7KA&amp;index=58" xlink:title="{{56|Suitcase Deadlift}}">
<path fill="#ffff99" stroke="#b15928" d="M886,-823.5C886,-823.5 1001.25,-823.5 1001.25,-823.5 1007.25,-823.5 1013.25,-829.5 1013.25,-835.5 1013.25,-835.5 1013.25,-847.5 1013.25,-847.5 1013.25,-853.5 1007.25,-859.5 1001.25,-859.5 1001.25,-859.5 886,-859.5 886,-859.5 880,-859.5 874,-853.5 874,-847.5 874,-847.5 874,-835.5 874,-835.5 874,-829.5 880,-823.5 886,-823.5"/>
<text text-anchor="middle" x="888.75" y="-836.2" font-family="Times New Roman,serif" font-size="14.00">56</text>
<polyline fill="none" stroke="#b15928" points="903.5,-823.75 903.5,-859.5"/>
<text text-anchor="middle" x="958.38" y="-836.2" font-family="Times New Roman,serif" font-size="14.00">Suitcase Deadlift</text>
</a>
</g>
</g>
<!-- mov_01_deadlift&#45;&gt;mov_56_suitcasedl -->
<g id="edge10" class="edge">
<title>mov_01_deadlift&#45;&gt;mov_56_suitcasedl</title>
<path fill="none" stroke="black" d="M943.62,-900.68C943.62,-891.58 943.62,-881.02 943.62,-871.41"/>
<polygon fill="black" stroke="black" points="947.13,-871.45 943.63,-861.45 940.13,-871.45 947.13,-871.45"/>
</g>
<!-- mov_10_h2h -->
<g id="node4" class="node">
<title>mov_10_h2h</title>
<g id="a_node4"><a xlink:href="https://www.youtube.com/watch?v=0Uk0Rdm3QFs&amp;list=PLk4oYPJ7TXKhX8YqA2AVrfgs_pEF6p7KA&amp;index=10" xlink:title="{{KB&#45;10|Hand to Hand\nTransition}}">
<path fill="#a6cee3" stroke="#1f78b4" d="M718.88,-667.75C718.88,-667.75 842.38,-667.75 842.38,-667.75 848.38,-667.75 854.38,-673.75 854.38,-679.75 854.38,-679.75 854.38,-695.25 854.38,-695.25 854.38,-701.25 848.38,-707.25 842.38,-707.25 842.38,-707.25 718.88,-707.25 718.88,-707.25 712.88,-707.25 706.88,-701.25 706.88,-695.25 706.88,-695.25 706.88,-679.75 706.88,-679.75 706.88,-673.75 712.88,-667.75 718.88,-667.75"/>
<text text-anchor="middle" x="733.25" y="-682.08" font-family="Times New Roman,serif" font-size="14.00">KB&#45;10</text>
<polyline fill="none" stroke="#1f78b4" points="759.62,-667.75 759.62,-707.25"/>
<text text-anchor="middle" x="807" y="-689.95" font-family="Times New Roman,serif" font-size="14.00">Hand to Hand</text>
<text text-anchor="middle" x="807" y="-674.2" font-family="Times New Roman,serif" font-size="14.00">Transition</text>
</a>
</g>
</g>
<!-- mov_60_dblswing -->
<g id="node13" class="node">
<title>mov_60_dblswing</title>
<g id="a_node13"><a xlink:href="https://www.youtube.com/watch?v=P5IFTJySA_s&amp;list=PLk4oYPJ7TXKhX8YqA2AVrfgs_pEF6p7KA&amp;index=61" xlink:title="{{60|Double Swing}}">
<path fill="#ffff99" stroke="#b15928" d="M553.5,-581.12C553.5,-581.12 653.75,-581.12 653.75,-581.12 659.75,-581.12 665.75,-587.12 665.75,-593.12 665.75,-593.12 665.75,-605.12 665.75,-605.12 665.75,-611.12 659.75,-617.12 653.75,-617.12 653.75,-617.12 553.5,-617.12 553.5,-617.12 547.5,-617.12 541.5,-611.12 541.5,-605.12 541.5,-605.12 541.5,-593.12 541.5,-593.12 541.5,-587.12 547.5,-581.12 553.5,-581.12"/>
<text text-anchor="middle" x="556.25" y="-593.83" font-family="Times New Roman,serif" font-size="14.00">60</text>
<polyline fill="none" stroke="#b15928" points="571,-581.38 571,-617.12"/>
<text text-anchor="middle" x="618.38" y="-593.83" font-family="Times New Roman,serif" font-size="14.00">Double Swing</text>
</a>
</g>
</g>
<!-- mov_10_h2h&#45;&gt;mov_60_dblswing -->
<g id="edge3" class="edge">
<title>mov_10_h2h&#45;&gt;mov_60_dblswing</title>
<path fill="none" stroke="black" d="M741.34,-667.33C714.13,-654.05 677.82,-636.33 649.31,-622.42"/>
<polygon fill="black" stroke="black" points="651.07,-619.38 640.55,-618.14 648,-625.68 651.07,-619.38"/>
</g>
<!-- mov_12_clean -->
<g id="node5" class="node">
<title>mov_12_clean</title>
<g id="a_node5"><a xlink:href="https://www.youtube.com/watch?v=_nIsSXWs5iU&amp;list=PLk4oYPJ7TXKhX8YqA2AVrfgs_pEF6p7KA&amp;index=12" xlink:title="KB&#45;12|Swing Clean">
<path fill="#a6cee3" stroke="#1f78b4" d="M1158.38,-669.5C1158.38,-669.5 1272.88,-669.5 1272.88,-669.5 1278.88,-669.5 1284.88,-675.5 1284.88,-681.5 1284.88,-681.5 1284.88,-693.5 1284.88,-693.5 1284.88,-699.5 1278.88,-705.5 1272.88,-705.5 1272.88,-705.5 1158.38,-705.5 1158.38,-705.5 1152.38,-705.5 1146.38,-699.5 1146.38,-693.5 1146.38,-693.5 1146.38,-681.5 1146.38,-681.5 1146.38,-675.5 1152.38,-669.5 1158.38,-669.5"/>
<text text-anchor="middle" x="1172.75" y="-682.08" font-family="Times New Roman,serif" font-size="14.00">KB&#45;12</text>
<polyline fill="none" stroke="#1f78b4" points="1199.12,-669.5 1199.12,-705.5"/>
<text text-anchor="middle" x="1242" y="-682.08" font-family="Times New Roman,serif" font-size="14.00">Swing Clean</text>
</a>
</g>
</g>
<!-- mov_16_startstopclean -->
<g id="node6" class="node">
<title>mov_16_startstopclean</title>
<g id="a_node6"><a xlink:href="https://www.youtube.com/watch?v=XbK3jxI0WNQ&amp;list=PLk4oYPJ7TXKhX8YqA2AVrfgs_pEF6p7KA&amp;index=16" xlink:title="{{KB&#45;16|Start Stop Clean}|START &amp; END CLEAN}">
<path fill="#a6cee3" stroke="#1f78b4" d="M1061.12,-575.38C1061.12,-575.38 1198.12,-575.38 1198.12,-575.38 1204.12,-575.38 1210.12,-581.38 1210.12,-587.38 1210.12,-587.38 1210.12,-610.88 1210.12,-610.88 1210.12,-616.88 1204.12,-622.88 1198.12,-622.88 1198.12,-622.88 1061.12,-622.88 1061.12,-622.88 1055.12,-622.88 1049.12,-616.88 1049.12,-610.88 1049.12,-610.88 1049.12,-587.38 1049.12,-587.38 1049.12,-581.38 1055.12,-575.38 1061.12,-575.38"/>
<text text-anchor="middle" x="1075.5" y="-605.58" font-family="Times New Roman,serif" font-size="14.00">KB&#45;16</text>
<polyline fill="none" stroke="#1f78b4" points="1101.88,-599.12 1101.88,-622.88"/>
<text text-anchor="middle" x="1156" y="-605.58" font-family="Times New Roman,serif" font-size="14.00">Start Stop Clean</text>
<polyline fill="none" stroke="#1f78b4" points="1049.12,-599.12 1210.12,-599.12"/>
<text text-anchor="middle" x="1129.62" y="-581.83" font-family="Times New Roman,serif" font-size="14.00">START &amp; END CLEAN</text>
</a>
</g>
</g>
<!-- mov_12_clean&#45;&gt;mov_16_startstopclean -->
<g id="edge4" class="edge">
<title>mov_12_clean&#45;&gt;mov_16_startstopclean</title>
<path fill="none" stroke="black" d="M1198.22,-669.02C1187.43,-658.18 1173.26,-643.95 1160.6,-631.24"/>
<polygon fill="black" stroke="black" points="1163.16,-628.84 1153.62,-624.22 1158.19,-633.78 1163.16,-628.84"/>
</g>
<!-- mov_17_cap -->
<g id="node7" class="node">
<title>mov_17_cap</title>
<g id="a_node7"><a xlink:href="https://www.youtube.com/watch?v=SSxB3m5qRas&amp;list=PLk4oYPJ7TXKhX8YqA2AVrfgs_pEF6p7KA&amp;index=17" xlink:title="KB&#45;17|Clean &amp; Press">
<path fill="#a6cee3" stroke="#1f78b4" d="M1239.75,-581.12C1239.75,-581.12 1365.5,-581.12 1365.5,-581.12 1371.5,-581.12 1377.5,-587.12 1377.5,-593.12 1377.5,-593.12 1377.5,-605.12 1377.5,-605.12 1377.5,-611.12 1371.5,-617.12 1365.5,-617.12 1365.5,-617.12 1239.75,-617.12 1239.75,-617.12 1233.75,-617.12 1227.75,-611.12 1227.75,-605.12 1227.75,-605.12 1227.75,-593.12 1227.75,-593.12 1227.75,-587.12 1233.75,-581.12 1239.75,-581.12"/>
<text text-anchor="middle" x="1254.12" y="-593.7" font-family="Times New Roman,serif" font-size="14.00">KB&#45;17</text>
<polyline fill="none" stroke="#1f78b4" points="1280.5,-581.12 1280.5,-617.12"/>
<text text-anchor="middle" x="1329" y="-593.7" font-family="Times New Roman,serif" font-size="14.00">Clean &amp; Press</text>
</a>
</g>
</g>
<!-- mov_12_clean&#45;&gt;mov_17_cap -->
<g id="edge5" class="edge">
<title>mov_12_clean&#45;&gt;mov_17_cap</title>
<path fill="none" stroke="black" d="M1233.23,-669.02C1245.85,-656.49 1263.04,-639.43 1277.15,-625.42"/>
<polygon fill="black" stroke="black" points="1279.34,-628.17 1283.97,-618.64 1274.41,-623.21 1279.34,-628.17"/>
</g>
<!-- mov_59_halfsnatchdown -->
<g id="node12" class="node">
<title>mov_59_halfsnatchdown</title>
<g id="a_node12"><a xlink:href="https://www.youtube.com/watch?v=u2NbMtX_Rb0&amp;list=PLk4oYPJ7TXKhX8YqA2AVrfgs_pEF6p7KA&amp;index=60" xlink:title="{{59|Half Snatch Down}}">
<path fill="#ffff99" stroke="#b15928" d="M1067.5,-480.88C1067.5,-480.88 1191.75,-480.88 1191.75,-480.88 1197.75,-480.88 1203.75,-486.88 1203.75,-492.88 1203.75,-492.88 1203.75,-504.88 1203.75,-504.88 1203.75,-510.88 1197.75,-516.88 1191.75,-516.88 1191.75,-516.88 1067.5,-516.88 1067.5,-516.88 1061.5,-516.88 1055.5,-510.88 1055.5,-504.88 1055.5,-504.88 1055.5,-492.88 1055.5,-492.88 1055.5,-486.88 1061.5,-480.88 1067.5,-480.88"/>
<text text-anchor="middle" x="1070.25" y="-493.57" font-family="Times New Roman,serif" font-size="14.00">59</text>
<polyline fill="none" stroke="#b15928" points="1085,-481.12 1085,-516.88"/>
<text text-anchor="middle" x="1144.38" y="-493.57" font-family="Times New Roman,serif" font-size="14.00">Half Snatch Down</text>
</a>
</g>
</g>
<!-- mov_16_startstopclean&#45;&gt;mov_59_halfsnatchdown -->
<g id="edge8" class="edge">
<title>mov_16_startstopclean&#45;&gt;mov_59_halfsnatchdown</title>
<path fill="none" stroke="black" d="M1129.62,-575.34C1129.62,-561.38 1129.62,-543.4 1129.62,-528.49"/>
<polygon fill="black" stroke="black" points="1133.13,-528.84 1129.63,-518.84 1126.13,-528.84 1133.13,-528.84"/>
</g>
<!-- mov_62_dblclean -->
<g id="node15" class="node">
<title>mov_62_dblclean</title>
<g id="a_node15"><a xlink:href="https://www.youtube.com/watch?v=Qe9ejhAtdGY&amp;list=PLk4oYPJ7TXKhX8YqA2AVrfgs_pEF6p7KA&amp;index=62" xlink:title="{{62|Double Clean}}">
<path fill="#ffff99" stroke="#b15928" d="M555,-480.88C555,-480.88 652.25,-480.88 652.25,-480.88 658.25,-480.88 664.25,-486.88 664.25,-492.88 664.25,-492.88 664.25,-504.88 664.25,-504.88 664.25,-510.88 658.25,-516.88 652.25,-516.88 652.25,-516.88 555,-516.88 555,-516.88 549,-516.88 543,-510.88 543,-504.88 543,-504.88 543,-492.88 543,-492.88 543,-486.88 549,-480.88 555,-480.88"/>
<text text-anchor="middle" x="557.75" y="-493.57" font-family="Times New Roman,serif" font-size="14.00">62</text>
<polyline fill="none" stroke="#b15928" points="572.5,-481.12 572.5,-516.88"/>
<text text-anchor="middle" x="618.38" y="-493.57" font-family="Times New Roman,serif" font-size="14.00">Double Clean</text>
</a>
</g>
</g>
<!-- mov_16_startstopclean&#45;&gt;mov_62_dblclean -->
<g id="edge7" class="edge">
<title>mov_16_startstopclean&#45;&gt;mov_62_dblclean</title>
<path fill="none" stroke="black" d="M1088,-574.99C1074.56,-568.62 1059.32,-562.5 1044.62,-559 989.24,-545.83 844.91,-558.37 788.62,-549.88 747.18,-543.62 701.73,-531.41 666.25,-520.63"/>
<polygon fill="black" stroke="black" points="667.61,-517.39 657.02,-517.78 665.55,-524.07 667.61,-517.39"/>
</g>
<!-- mov_19_startstopcap -->
<g id="node8" class="node">
<title>mov_19_startstopcap</title>
<g id="a_node8"><a xlink:href="https://www.youtube.com/watch?v=dSj3kqbuois&amp;list=PLk4oYPJ7TXKhX8YqA2AVrfgs_pEF6p7KA&amp;index=19" xlink:title="{{KB&#45;19|Start Stop\nClean &amp; Press}|START &amp; END C&amp;P}">
<path fill="#a6cee3" stroke="#1f78b4" d="M809.75,-467.25C809.75,-467.25 935.5,-467.25 935.5,-467.25 941.5,-467.25 947.5,-473.25 947.5,-479.25 947.5,-479.25 947.5,-518.5 947.5,-518.5 947.5,-524.5 941.5,-530.5 935.5,-530.5 935.5,-530.5 809.75,-530.5 809.75,-530.5 803.75,-530.5 797.75,-524.5 797.75,-518.5 797.75,-518.5 797.75,-479.25 797.75,-479.25 797.75,-473.25 803.75,-467.25 809.75,-467.25"/>
<text text-anchor="middle" x="824.12" y="-505.32" font-family="Times New Roman,serif" font-size="14.00">KB&#45;19</text>
<polyline fill="none" stroke="#1f78b4" points="850.5,-491 850.5,-530.5"/>
<text text-anchor="middle" x="899" y="-513.2" font-family="Times New Roman,serif" font-size="14.00">Start Stop</text>
<text text-anchor="middle" x="899" y="-497.45" font-family="Times New Roman,serif" font-size="14.00">Clean &amp; Press</text>
<polyline fill="none" stroke="#1f78b4" points="797.75,-491 947.5,-491"/>
<text text-anchor="middle" x="872.62" y="-473.7" font-family="Times New Roman,serif" font-size="14.00">START &amp; END C&amp;P</text>
</a>
</g>
</g>
<!-- mov_17_cap&#45;&gt;mov_19_startstopcap -->
<g id="edge6" class="edge">
<title>mov_17_cap&#45;&gt;mov_19_startstopcap</title>
<path fill="none" stroke="black" d="M1272.94,-580.67C1257.56,-572.54 1238.17,-563.66 1219.62,-559 1143.23,-539.82 1120.28,-563.11 1042.62,-549.88 1014.9,-545.15 985.31,-537.43 958.71,-529.45"/>
<polygon fill="black" stroke="black" points="959.93,-526.16 949.34,-526.58 957.88,-532.85 959.93,-526.16"/>
</g>
<!-- mov_65_dblcap -->
<g id="node18" class="node">
<title>mov_65_dblcap</title>
<g id="a_node18"><a xlink:href="https://www.youtube.com/watch?v=RizGV8ef--s" xlink:title="{{65|Double\nClean &amp; Press}}">
<path fill="#ffff99" stroke="#b15928" d="M576.38,-373C576.38,-373 678.88,-373 678.88,-373 684.88,-373 690.88,-379 690.88,-385 690.88,-385 690.88,-400.5 690.88,-400.5 690.88,-406.5 684.88,-412.5 678.88,-412.5 678.88,-412.5 576.38,-412.5 576.38,-412.5 570.38,-412.5 564.38,-406.5 564.38,-400.5 564.38,-400.5 564.38,-385 564.38,-385 564.38,-379 570.38,-373 576.38,-373"/>
<text text-anchor="middle" x="579.12" y="-387.32" font-family="Times New Roman,serif" font-size="14.00">65</text>
<polyline fill="none" stroke="#b15928" points="593.88,-373 593.88,-412.5"/>
<text text-anchor="middle" x="642.38" y="-395.2" font-family="Times New Roman,serif" font-size="14.00">Double</text>
<text text-anchor="middle" x="642.38" y="-379.45" font-family="Times New Roman,serif" font-size="14.00">Clean &amp; Press</text>
</a>
</g>
</g>
<!-- mov_19_startstopcap&#45;&gt;mov_65_dblcap -->
<g id="edge9" class="edge">
<title>mov_19_startstopcap&#45;&gt;mov_65_dblcap</title>
<path fill="none" stroke="black" d="M799.45,-466.78C762.14,-450.92 717.49,-431.94 683.07,-417.31"/>
<polygon fill="black" stroke="black" points="684.69,-414.2 674.12,-413.51 681.96,-420.64 684.69,-414.2"/>
</g>
<!-- mov_57_dblsuitcase -->
<g id="node10" class="node">
<title>mov_57_dblsuitcase</title>
<g id="a_node10"><a xlink:href="https://www.youtube.com/watch?v=4PSOSrDcGfc&amp;list=PLk4oYPJ7TXKhX8YqA2AVrfgs_pEF6p7KA&amp;index=59" xlink:title="{{57|Double Suitcase}}">
<path fill="#ffff99" stroke="#b15928" d="M556.5,-746C556.5,-746 668.75,-746 668.75,-746 674.75,-746 680.75,-752 680.75,-758 680.75,-758 680.75,-770 680.75,-770 680.75,-776 674.75,-782 668.75,-782 668.75,-782 556.5,-782 556.5,-782 550.5,-782 544.5,-776 544.5,-770 544.5,-770 544.5,-758 544.5,-758 544.5,-752 550.5,-746 556.5,-746"/>
<text text-anchor="middle" x="559.25" y="-758.7" font-family="Times New Roman,serif" font-size="14.00">57</text>
<polyline fill="none" stroke="#b15928" points="574,-746.25 574,-782"/>
<text text-anchor="middle" x="627.38" y="-758.7" font-family="Times New Roman,serif" font-size="14.00">Double Suitcase</text>
</a>
</g>
</g>
<!-- mov_56_suitcasedl&#45;&gt;mov_57_dblsuitcase -->
<g id="edge11" class="edge">
<title>mov_56_suitcasedl&#45;&gt;mov_57_dblsuitcase</title>
<path fill="none" stroke="black" d="M873.83,-824.58C820.78,-812.48 747.73,-795.82 692.36,-783.19"/>
<polygon fill="black" stroke="black" points="693.19,-779.79 682.66,-780.98 691.63,-786.61 693.19,-779.79"/>
</g>
<!-- mov_73_2hsbldl -->
<g id="node25" class="node">
<title>mov_73_2hsbldl</title>
<g id="a_node25"><a xlink:href="https://www.youtube.com/watch?v=-RD1qqe7P8M" xlink:title="{{73|Two Hand Single\nBent Leg Deadlift}}">
<path fill="#ffff99" stroke="#b15928" d="M889.12,-744.25C889.12,-744.25 1008.12,-744.25 1008.12,-744.25 1014.12,-744.25 1020.12,-750.25 1020.12,-756.25 1020.12,-756.25 1020.12,-771.75 1020.12,-771.75 1020.12,-777.75 1014.12,-783.75 1008.12,-783.75 1008.12,-783.75 889.12,-783.75 889.12,-783.75 883.12,-783.75 877.12,-777.75 877.12,-771.75 877.12,-771.75 877.12,-756.25 877.12,-756.25 877.12,-750.25 883.12,-744.25 889.12,-744.25"/>
<text text-anchor="middle" x="891.88" y="-758.58" font-family="Times New Roman,serif" font-size="14.00">73</text>
<polyline fill="none" stroke="#b15928" points="906.62,-744.25 906.62,-783.75"/>
<text text-anchor="middle" x="963.38" y="-766.45" font-family="Times New Roman,serif" font-size="14.00">Two Hand Single</text>
<text text-anchor="middle" x="963.38" y="-750.7" font-family="Times New Roman,serif" font-size="14.00">Bent Leg Deadlift</text>
</a>
</g>
</g>
<!-- mov_56_suitcasedl&#45;&gt;mov_73_2hsbldl -->
<g id="edge12" class="edge">
<title>mov_56_suitcasedl&#45;&gt;mov_73_2hsbldl</title>
<path fill="none" stroke="black" d="M944.76,-823.37C945.3,-815.17 945.97,-805.1 946.6,-795.65"/>
<polygon fill="black" stroke="black" points="950.09,-795.91 947.25,-785.7 943.1,-795.45 950.09,-795.91"/>
</g>
<!-- mov_58_dblsumodl -->
<g id="node11" class="node">
<title>mov_58_dblsumodl</title>
<g id="a_node11"><a xlink:href="https://www.youtube.com/watch?v=gdutIla6nMw" xlink:title="{{58|Double Sumo Deadlift}}">
<path fill="#ffff99" stroke="#b15928" d="M530.62,-669.5C530.62,-669.5 676.62,-669.5 676.62,-669.5 682.62,-669.5 688.62,-675.5 688.62,-681.5 688.62,-681.5 688.62,-693.5 688.62,-693.5 688.62,-699.5 682.62,-705.5 676.62,-705.5 676.62,-705.5 530.62,-705.5 530.62,-705.5 524.62,-705.5 518.62,-699.5 518.62,-693.5 518.62,-693.5 518.62,-681.5 518.62,-681.5 518.62,-675.5 524.62,-669.5 530.62,-669.5"/>
<text text-anchor="middle" x="533.38" y="-682.2" font-family="Times New Roman,serif" font-size="14.00">58</text>
<polyline fill="none" stroke="#b15928" points="548.12,-669.75 548.12,-705.5"/>
<text text-anchor="middle" x="618.38" y="-682.2" font-family="Times New Roman,serif" font-size="14.00">Double Sumo Deadlift</text>
</a>
</g>
</g>
<!-- mov_57_dblsuitcase&#45;&gt;mov_58_dblsumodl -->
<g id="edge16" class="edge">
<title>mov_57_dblsuitcase&#45;&gt;mov_58_dblsumodl</title>
<path fill="none" stroke="black" d="M610.54,-745.72C609.51,-737.23 608.25,-726.76 607.08,-717.12"/>
<polygon fill="black" stroke="black" points="610.59,-716.95 605.91,-707.45 603.64,-717.79 610.59,-716.95"/>
</g>
<!-- mov_58_dblsumodl&#45;&gt;mov_60_dblswing -->
<g id="edge22" class="edge">
<title>mov_58_dblsumodl&#45;&gt;mov_60_dblswing</title>
<path fill="none" stroke="black" d="M603.62,-669.02C603.62,-657.55 603.62,-642.27 603.62,-629.01"/>
<polygon fill="black" stroke="black" points="607.13,-629.09 603.63,-619.09 600.13,-629.09 607.13,-629.09"/>
</g>
<!-- mov_61_halfsnatchup -->
<g id="node14" class="node">
<title>mov_61_halfsnatchup</title>
<g id="a_node14"><a xlink:href="https://www.youtube.com/watch?v=3HEmUyLYjjc" xlink:title="{{61|Half Snatch Up}}">
<path fill="#ffff99" stroke="#b15928" d="M1075.75,-374.75C1075.75,-374.75 1183.5,-374.75 1183.5,-374.75 1189.5,-374.75 1195.5,-380.75 1195.5,-386.75 1195.5,-386.75 1195.5,-398.75 1195.5,-398.75 1195.5,-404.75 1189.5,-410.75 1183.5,-410.75 1183.5,-410.75 1075.75,-410.75 1075.75,-410.75 1069.75,-410.75 1063.75,-404.75 1063.75,-398.75 1063.75,-398.75 1063.75,-386.75 1063.75,-386.75 1063.75,-380.75 1069.75,-374.75 1075.75,-374.75"/>
<text text-anchor="middle" x="1078.5" y="-387.45" font-family="Times New Roman,serif" font-size="14.00">61</text>
<polyline fill="none" stroke="#b15928" points="1093.25,-375 1093.25,-410.75"/>
<text text-anchor="middle" x="1144.38" y="-387.45" font-family="Times New Roman,serif" font-size="14.00">Half Snatch Up</text>
</a>
</g>
</g>
<!-- mov_59_halfsnatchdown&#45;&gt;mov_61_halfsnatchup -->
<g id="edge27" class="edge">
<title>mov_59_halfsnatchdown&#45;&gt;mov_61_halfsnatchup</title>
<path fill="none" stroke="black" d="M1129.62,-480.68C1129.62,-464.85 1129.62,-441.07 1129.62,-422.38"/>
<polygon fill="black" stroke="black" points="1133.13,-422.48 1129.63,-412.48 1126.13,-422.48 1133.13,-422.48"/>
</g>
<!-- mov_60_dblswing&#45;&gt;mov_62_dblclean -->
<g id="edge17" class="edge">
<title>mov_60_dblswing&#45;&gt;mov_62_dblclean</title>
<path fill="none" stroke="black" d="M603.62,-581.01C603.62,-566.45 603.62,-545.24 603.62,-528.16"/>
<polygon fill="black" stroke="black" points="607.13,-528.64 603.63,-518.64 600.13,-528.64 607.13,-528.64"/>
</g>
<!-- mov_64_dbloutswing -->
<g id="node17" class="node">
<title>mov_64_dbloutswing</title>
<g id="a_node17"><a xlink:href="https://www.youtube.com/watch?v=yr_fRgGevsE" xlink:title="{{64|Double\nOutside Swing}}">
<path fill="#ffff99" stroke="#b15928" d="M287,-479.12C287,-479.12 390.25,-479.12 390.25,-479.12 396.25,-479.12 402.25,-485.12 402.25,-491.12 402.25,-491.12 402.25,-506.62 402.25,-506.62 402.25,-512.62 396.25,-518.62 390.25,-518.62 390.25,-518.62 287,-518.62 287,-518.62 281,-518.62 275,-512.62 275,-506.62 275,-506.62 275,-491.12 275,-491.12 275,-485.12 281,-479.12 287,-479.12"/>
<text text-anchor="middle" x="289.75" y="-493.45" font-family="Times New Roman,serif" font-size="14.00">64</text>
<polyline fill="none" stroke="#b15928" points="304.5,-479.12 304.5,-518.62"/>
<text text-anchor="middle" x="353.38" y="-501.32" font-family="Times New Roman,serif" font-size="14.00">Double</text>
<text text-anchor="middle" x="353.38" y="-485.57" font-family="Times New Roman,serif" font-size="14.00">Outside Swing</text>
</a>
</g>
</g>
<!-- mov_60_dblswing&#45;&gt;mov_64_dbloutswing -->
<g id="edge23" class="edge">
<title>mov_60_dblswing&#45;&gt;mov_64_dbloutswing</title>
<path fill="none" stroke="black" d="M556.55,-580.67C513.14,-564.58 448.38,-540.57 400.74,-522.9"/>
<polygon fill="black" stroke="black" points="402.25,-519.73 391.66,-519.54 399.82,-526.3 402.25,-519.73"/>
</g>
<!-- mov_66_snatch -->
<g id="node19" class="node">
<title>mov_66_snatch</title>
<g id="a_node19"><a xlink:href="https://www.youtube.com/watch?v=f-zkPiAlpQw&amp;list=PLk4oYPJ7TXKhX8YqA2AVrfgs_pEF6p7KA&amp;index=65" xlink:title="{{66|Full Snatch}}">
<path fill="#ffff99" stroke="#b15928" d="M1087.38,-268.62C1087.38,-268.62 1171.88,-268.62 1171.88,-268.62 1177.88,-268.62 1183.88,-274.62 1183.88,-280.62 1183.88,-280.62 1183.88,-292.62 1183.88,-292.62 1183.88,-298.62 1177.88,-304.62 1171.88,-304.62 1171.88,-304.62 1087.38,-304.62 1087.38,-304.62 1081.38,-304.62 1075.38,-298.62 1075.38,-292.62 1075.38,-292.62 1075.38,-280.62 1075.38,-280.62 1075.38,-274.62 1081.38,-268.62 1087.38,-268.62"/>
<text text-anchor="middle" x="1090.12" y="-281.32" font-family="Times New Roman,serif" font-size="14.00">66</text>
<polyline fill="none" stroke="#b15928" points="1104.88,-268.88 1104.88,-304.62"/>
<text text-anchor="middle" x="1144.38" y="-281.32" font-family="Times New Roman,serif" font-size="14.00">Full Snatch</text>
</a>
</g>
</g>
<!-- mov_61_halfsnatchup&#45;&gt;mov_66_snatch -->
<g id="edge28" class="edge">
<title>mov_61_halfsnatchup&#45;&gt;mov_66_snatch</title>
<path fill="none" stroke="black" d="M1129.62,-374.56C1129.62,-358.73 1129.62,-334.95 1129.62,-316.26"/>
<polygon fill="black" stroke="black" points="1133.13,-316.36 1129.63,-306.36 1126.13,-316.36 1133.13,-316.36"/>
</g>
<!-- mov_62_dblclean&#45;&gt;mov_65_dblcap -->
<g id="edge18" class="edge">
<title>mov_62_dblclean&#45;&gt;mov_65_dblcap</title>
<path fill="none" stroke="black" d="M607.59,-480.68C611.14,-465.26 616.44,-442.27 620.7,-423.81"/>
<polygon fill="black" stroke="black" points="624.07,-424.74 622.91,-414.21 617.25,-423.17 624.07,-424.74"/>
</g>
<!-- mov_67_dblsquat -->
<g id="node20" class="node">
<title>mov_67_dblsquat</title>
<g id="a_node20"><a xlink:href="https://www.youtube.com/watch?v=dX5yXJa5Dm0&amp;list=PLk4oYPJ7TXKhX8YqA2AVrfgs_pEF6p7KA&amp;index=66" xlink:title="{{67|Double\nFront Squat}}">
<path fill="#ffff99" stroke="#b15928" d="M446.5,-373C446.5,-373 534.75,-373 534.75,-373 540.75,-373 546.75,-379 546.75,-385 546.75,-385 546.75,-400.5 546.75,-400.5 546.75,-406.5 540.75,-412.5 534.75,-412.5 534.75,-412.5 446.5,-412.5 446.5,-412.5 440.5,-412.5 434.5,-406.5 434.5,-400.5 434.5,-400.5 434.5,-385 434.5,-385 434.5,-379 440.5,-373 446.5,-373"/>
<text text-anchor="middle" x="449.25" y="-387.32" font-family="Times New Roman,serif" font-size="14.00">67</text>
<polyline fill="none" stroke="#b15928" points="464,-373 464,-412.5"/>
<text text-anchor="middle" x="505.38" y="-395.2" font-family="Times New Roman,serif" font-size="14.00">Double</text>
<text text-anchor="middle" x="505.38" y="-379.45" font-family="Times New Roman,serif" font-size="14.00">Front Squat</text>
</a>
</g>
</g>
<!-- mov_62_dblclean&#45;&gt;mov_67_dblsquat -->
<g id="edge19" class="edge">
<title>mov_62_dblclean&#45;&gt;mov_67_dblsquat</title>
<path fill="none" stroke="black" d="M584.71,-480.45C566.9,-464.03 539.97,-439.22 519.47,-420.33"/>
<polygon fill="black" stroke="black" points="521.97,-417.87 512.24,-413.67 517.23,-423.02 521.97,-417.87"/>
</g>
<!-- mov_71_deaddblclean -->
<g id="node24" class="node">
<title>mov_71_deaddblclean</title>
<g id="a_node24"><a xlink:href="https://www.youtube.com/watch?v=22bKQqMqAQY" xlink:title="{{71|Dead Stop\nDouble Clean}}">
<path fill="#ffff99" stroke="#b15928" d="M307,-373C307,-373 404.25,-373 404.25,-373 410.25,-373 416.25,-379 416.25,-385 416.25,-385 416.25,-400.5 416.25,-400.5 416.25,-406.5 410.25,-412.5 404.25,-412.5 404.25,-412.5 307,-412.5 307,-412.5 301,-412.5 295,-406.5 295,-400.5 295,-400.5 295,-385 295,-385 295,-379 301,-373 307,-373"/>
<text text-anchor="middle" x="309.75" y="-387.32" font-family="Times New Roman,serif" font-size="14.00">71</text>
<polyline fill="none" stroke="#b15928" points="324.5,-373 324.5,-412.5"/>
<text text-anchor="middle" x="370.38" y="-395.2" font-family="Times New Roman,serif" font-size="14.00">Dead Stop</text>
<text text-anchor="middle" x="370.38" y="-379.45" font-family="Times New Roman,serif" font-size="14.00">Double Clean</text>
</a>
</g>
</g>
<!-- mov_62_dblclean&#45;&gt;mov_71_deaddblclean -->
<g id="edge21" class="edge">
<title>mov_62_dblclean&#45;&gt;mov_71_deaddblclean</title>
<path fill="none" stroke="black" d="M552.3,-480.45C516.36,-467.78 467.48,-449.61 425.62,-430.75 417.16,-426.94 408.29,-422.56 399.82,-418.18"/>
<polygon fill="black" stroke="black" points="401.55,-415.14 391.07,-413.58 398.3,-421.33 401.55,-415.14"/>
</g>
<!-- mov_64_dbloutswing&#45;&gt;mov_63_dblrockit -->
<g id="edge15" class="edge">
<title>mov_64_dbloutswing&#45;&gt;mov_63_dblrockit</title>
<path fill="none" stroke="black" d="M315.7,-478.78C295.26,-461.75 265.22,-436.73 243.02,-418.23"/>
<polygon fill="black" stroke="black" points="245.42,-415.68 235.49,-411.97 240.94,-421.06 245.42,-415.68"/>
</g>
<!-- mov_76_dblhangcap -->
<g id="node28" class="node">
<title>mov_76_dblhangcap</title>
<g id="a_node28"><a xlink:href="https://www.youtube.com/watch?v=ieDA4V9WGNQ" xlink:title="{{76|Double Dead Hang\nClean &amp; Press}|SLOW DOWN TO ENDURE}">
<path fill="#ffff99" stroke="#b15928" d="M516.5,-255C516.5,-255 678.75,-255 678.75,-255 684.75,-255 690.75,-261 690.75,-267 690.75,-267 690.75,-306.25 690.75,-306.25 690.75,-312.25 684.75,-318.25 678.75,-318.25 678.75,-318.25 516.5,-318.25 516.5,-318.25 510.5,-318.25 504.5,-312.25 504.5,-306.25 504.5,-306.25 504.5,-267 504.5,-267 504.5,-261 510.5,-255 516.5,-255"/>
<text text-anchor="middle" x="527.75" y="-293.07" font-family="Times New Roman,serif" font-size="14.00">76</text>
<polyline fill="none" stroke="#b15928" points="551,-278.75 551,-318.25"/>
<text text-anchor="middle" x="620.75" y="-300.95" font-family="Times New Roman,serif" font-size="14.00">Double Dead Hang</text>
<text text-anchor="middle" x="620.75" y="-285.2" font-family="Times New Roman,serif" font-size="14.00">Clean &amp; Press</text>
<polyline fill="none" stroke="#b15928" points="504.5,-278.75 690.75,-278.75"/>
<text text-anchor="middle" x="597.62" y="-261.45" font-family="Times New Roman,serif" font-size="14.00">SLOW DOWN TO ENDURE</text>
</a>
</g>
</g>
<!-- mov_65_dblcap&#45;&gt;mov_76_dblhangcap -->
<g id="edge25" class="edge">
<title>mov_65_dblcap&#45;&gt;mov_76_dblhangcap</title>
<path fill="none" stroke="black" d="M622.12,-372.65C618.61,-360.46 613.92,-344.18 609.58,-329.12"/>
<polygon fill="black" stroke="black" points="613.06,-328.55 606.93,-319.91 606.33,-330.49 613.06,-328.55"/>
</g>
<!-- mov_69_snatchpress -->
<g id="node22" class="node">
<title>mov_69_snatchpress</title>
<g id="a_node22"><a xlink:href="https://www.youtube.com/watch?v=IzFPa_Q1yHM&amp;list=PLk4oYPJ7TXKhX8YqA2AVrfgs_pEF6p7KA&amp;index=67" xlink:title="{{69|Snatch Press}}">
<path fill="#ffff99" stroke="#b15928" d="M1066.5,-180.25C1066.5,-180.25 1160.75,-180.25 1160.75,-180.25 1166.75,-180.25 1172.75,-186.25 1172.75,-192.25 1172.75,-192.25 1172.75,-204.25 1172.75,-204.25 1172.75,-210.25 1166.75,-216.25 1160.75,-216.25 1160.75,-216.25 1066.5,-216.25 1066.5,-216.25 1060.5,-216.25 1054.5,-210.25 1054.5,-204.25 1054.5,-204.25 1054.5,-192.25 1054.5,-192.25 1054.5,-186.25 1060.5,-180.25 1066.5,-180.25"/>
<text text-anchor="middle" x="1069.25" y="-192.95" font-family="Times New Roman,serif" font-size="14.00">69</text>
<polyline fill="none" stroke="#b15928" points="1084,-180.5 1084,-216.25"/>
<text text-anchor="middle" x="1128.38" y="-192.95" font-family="Times New Roman,serif" font-size="14.00">Snatch Press</text>
</a>
</g>
</g>
<!-- mov_66_snatch&#45;&gt;mov_69_snatchpress -->
<g id="edge29" class="edge">
<title>mov_66_snatch&#45;&gt;mov_69_snatchpress</title>
<path fill="none" stroke="black" d="M1126.39,-268.15C1124.24,-256.56 1121.37,-241.08 1118.9,-227.73"/>
<polygon fill="black" stroke="black" points="1122.4,-227.39 1117.13,-218.19 1115.51,-228.66 1122.4,-227.39"/>
</g>
<!-- mov_70_kneelsnatchup -->
<g id="node23" class="node">
<title>mov_70_kneelsnatchup</title>
<g id="a_node23"><a xlink:href="https://www.youtube.com/watch?v=1_UrK5SopL4" xlink:title="{{70|Half&#45;Kneeling Snatch Up}}">
<path fill="#ffff99" stroke="#b15928" d="M1202.5,-180.25C1202.5,-180.25 1362.75,-180.25 1362.75,-180.25 1368.75,-180.25 1374.75,-186.25 1374.75,-192.25 1374.75,-192.25 1374.75,-204.25 1374.75,-204.25 1374.75,-210.25 1368.75,-216.25 1362.75,-216.25 1362.75,-216.25 1202.5,-216.25 1202.5,-216.25 1196.5,-216.25 1190.5,-210.25 1190.5,-204.25 1190.5,-204.25 1190.5,-192.25 1190.5,-192.25 1190.5,-186.25 1196.5,-180.25 1202.5,-180.25"/>
<text text-anchor="middle" x="1205.25" y="-192.95" font-family="Times New Roman,serif" font-size="14.00">70</text>
<polyline fill="none" stroke="#b15928" points="1220,-180.5 1220,-216.25"/>
<text text-anchor="middle" x="1297.38" y="-192.95" font-family="Times New Roman,serif" font-size="14.00">Half&#45;Kneeling Snatch Up</text>
</a>
</g>
</g>
<!-- mov_66_snatch&#45;&gt;mov_70_kneelsnatchup -->
<g id="edge30" class="edge">
<title>mov_66_snatch&#45;&gt;mov_70_kneelsnatchup</title>
<path fill="none" stroke="black" d="M1160.59,-268.15C1184.02,-254.92 1216.42,-236.63 1241.94,-222.22"/>
<polygon fill="black" stroke="black" points="1243.4,-225.41 1250.39,-217.45 1239.96,-219.32 1243.4,-225.41"/>
</g>
<!-- mov_68_dblclean2squat -->
<g id="node21" class="node">
<title>mov_68_dblclean2squat</title>
<g id="a_node21"><a xlink:href="https://www.youtube.com/watch?v=R3s6Wb_ApHM" xlink:title="{{68|Double Clean\nto Front Squat}}">
<path fill="#ffff99" stroke="#b15928" d="M371,-266.88C371,-266.88 474.25,-266.88 474.25,-266.88 480.25,-266.88 486.25,-272.88 486.25,-278.88 486.25,-278.88 486.25,-294.38 486.25,-294.38 486.25,-300.38 480.25,-306.38 474.25,-306.38 474.25,-306.38 371,-306.38 371,-306.38 365,-306.38 359,-300.38 359,-294.38 359,-294.38 359,-278.88 359,-278.88 359,-272.88 365,-266.88 371,-266.88"/>
<text text-anchor="middle" x="373.75" y="-281.2" font-family="Times New Roman,serif" font-size="14.00">68</text>
<polyline fill="none" stroke="#b15928" points="388.5,-266.88 388.5,-306.38"/>
<text text-anchor="middle" x="437.38" y="-289.07" font-family="Times New Roman,serif" font-size="14.00">Double Clean</text>
<text text-anchor="middle" x="437.38" y="-273.32" font-family="Times New Roman,serif" font-size="14.00">to Front Squat</text>
</a>
</g>
</g>
<!-- mov_67_dblsquat&#45;&gt;mov_68_dblclean2squat -->
<g id="edge20" class="edge">
<title>mov_67_dblsquat&#45;&gt;mov_68_dblclean2squat</title>
<path fill="none" stroke="black" d="M478.15,-372.65C467.8,-356.8 452.92,-334.02 441.18,-316.03"/>
<polygon fill="black" stroke="black" points="444.24,-314.33 435.85,-307.87 438.38,-318.16 444.24,-314.33"/>
</g>
<!-- mov_74_dblhangclean2squat -->
<g id="node26" class="node">
<title>mov_74_dblhangclean2squat</title>
<g id="a_node26"><a xlink:href="https://www.youtube.com/watch?v=SdPEkv56Lt8" xlink:title="{{74|Double Hang Clean\nTo Squat}}">
<path fill="#ffff99" stroke="#b15928" d="M252.5,-178.5C252.5,-178.5 382.75,-178.5 382.75,-178.5 388.75,-178.5 394.75,-184.5 394.75,-190.5 394.75,-190.5 394.75,-206 394.75,-206 394.75,-212 388.75,-218 382.75,-218 382.75,-218 252.5,-218 252.5,-218 246.5,-218 240.5,-212 240.5,-206 240.5,-206 240.5,-190.5 240.5,-190.5 240.5,-184.5 246.5,-178.5 252.5,-178.5"/>
<text text-anchor="middle" x="255.25" y="-192.82" font-family="Times New Roman,serif" font-size="14.00">74</text>
<polyline fill="none" stroke="#b15928" points="270,-178.5 270,-218"/>
<text text-anchor="middle" x="332.38" y="-200.7" font-family="Times New Roman,serif" font-size="14.00">Double Hang Clean</text>
<text text-anchor="middle" x="332.38" y="-184.95" font-family="Times New Roman,serif" font-size="14.00">To Squat</text>
</a>
</g>
</g>
<!-- mov_68_dblclean2squat&#45;&gt;mov_74_dblhangclean2squat -->
<g id="edge24" class="edge">
<title>mov_68_dblclean2squat&#45;&gt;mov_74_dblhangclean2squat</title>
<path fill="none" stroke="black" d="M399.32,-266.46C384.64,-254.38 365.49,-238.63 349.42,-225.41"/>
<polygon fill="black" stroke="black" points="351.98,-222.98 342.03,-219.33 347.53,-228.38 351.98,-222.98"/>
</g>
<!-- mov_78_dblcleansqpress -->
<g id="node30" class="node">
<title>mov_78_dblcleansqpress</title>
<g id="a_node30"><a xlink:href="https://www.youtube.com/watch?v=fWPDPBliCEk" xlink:title="{{78|Double Clean Squat Press}}">
<path fill="#ffff99" stroke="#b15928" d="M424.75,-180.25C424.75,-180.25 592.5,-180.25 592.5,-180.25 598.5,-180.25 604.5,-186.25 604.5,-192.25 604.5,-192.25 604.5,-204.25 604.5,-204.25 604.5,-210.25 598.5,-216.25 592.5,-216.25 592.5,-216.25 424.75,-216.25 424.75,-216.25 418.75,-216.25 412.75,-210.25 412.75,-204.25 412.75,-204.25 412.75,-192.25 412.75,-192.25 412.75,-186.25 418.75,-180.25 424.75,-180.25"/>
<text text-anchor="middle" x="427.5" y="-192.95" font-family="Times New Roman,serif" font-size="14.00">78</text>
<polyline fill="none" stroke="#b15928" points="442.25,-180.5 442.25,-216.25"/>
<text text-anchor="middle" x="523.38" y="-192.95" font-family="Times New Roman,serif" font-size="14.00">Double Clean Squat Press</text>
</a>
</g>
</g>
<!-- mov_68_dblclean2squat&#45;&gt;mov_78_dblcleansqpress -->
<g id="edge26" class="edge">
<title>mov_68_dblclean2squat&#45;&gt;mov_78_dblcleansqpress</title>
<path fill="none" stroke="black" d="M441.71,-266.46C454.01,-254.11 470.12,-237.92 483.46,-224.53"/>
<polygon fill="black" stroke="black" points="485.7,-227.23 490.28,-217.68 480.74,-222.3 485.7,-227.23"/>
</g>
<!-- mov_75_2hssldl -->
<g id="node27" class="node">
<title>mov_75_2hssldl</title>
<g id="a_node27"><a xlink:href="https://www.youtube.com/watch?v=tMt2hzfFGzo" xlink:title="{{75|Two Hand Single\nStraight Leg Deadlift}}">
<path fill="#ffff99" stroke="#b15928" d="M884.5,-667.75C884.5,-667.75 1020.75,-667.75 1020.75,-667.75 1026.75,-667.75 1032.75,-673.75 1032.75,-679.75 1032.75,-679.75 1032.75,-695.25 1032.75,-695.25 1032.75,-701.25 1026.75,-707.25 1020.75,-707.25 1020.75,-707.25 884.5,-707.25 884.5,-707.25 878.5,-707.25 872.5,-701.25 872.5,-695.25 872.5,-695.25 872.5,-679.75 872.5,-679.75 872.5,-673.75 878.5,-667.75 884.5,-667.75"/>
<text text-anchor="middle" x="887.25" y="-682.08" font-family="Times New Roman,serif" font-size="14.00">75</text>
<polyline fill="none" stroke="#b15928" points="902,-667.75 902,-707.25"/>
<text text-anchor="middle" x="967.38" y="-689.95" font-family="Times New Roman,serif" font-size="14.00">Two Hand Single</text>
<text text-anchor="middle" x="967.38" y="-674.2" font-family="Times New Roman,serif" font-size="14.00">Straight Leg Deadlift</text>
</a>
</g>
</g>
<!-- mov_73_2hsbldl&#45;&gt;mov_75_2hssldl -->
<g id="edge13" class="edge">
<title>mov_73_2hsbldl&#45;&gt;mov_75_2hssldl</title>
<path fill="none" stroke="black" d="M949.66,-743.81C950.06,-736.25 950.54,-727.38 950.99,-718.99"/>
<polygon fill="black" stroke="black" points="954.48,-719.31 951.52,-709.13 947.49,-718.93 954.48,-719.31"/>
</g>
<!-- mov_77_shsldl -->
<g id="node29" class="node">
<title>mov_77_shsldl</title>
<g id="a_node29"><a xlink:href="https://www.youtube.com/watch?v=1K4hgXfUinU" xlink:title="{{77|Single Hand\nSingle Leg Deadlift}|ONE&#45;SIDE BALANCE}">
<path fill="#ffff99" stroke="#b15928" d="M889,-567.5C889,-567.5 1016.25,-567.5 1016.25,-567.5 1022.25,-567.5 1028.25,-573.5 1028.25,-579.5 1028.25,-579.5 1028.25,-618.75 1028.25,-618.75 1028.25,-624.75 1022.25,-630.75 1016.25,-630.75 1016.25,-630.75 889,-630.75 889,-630.75 883,-630.75 877,-624.75 877,-618.75 877,-618.75 877,-579.5 877,-579.5 877,-573.5 883,-567.5 889,-567.5"/>
<text text-anchor="middle" x="891.75" y="-605.58" font-family="Times New Roman,serif" font-size="14.00">77</text>
<polyline fill="none" stroke="#b15928" points="906.5,-591.25 906.5,-630.75"/>
<text text-anchor="middle" x="967.38" y="-613.45" font-family="Times New Roman,serif" font-size="14.00">Single Hand</text>
<text text-anchor="middle" x="967.38" y="-597.7" font-family="Times New Roman,serif" font-size="14.00">Single Leg Deadlift</text>
<polyline fill="none" stroke="#b15928" points="877,-591.25 1028.25,-591.25"/>
<text text-anchor="middle" x="952.62" y="-573.95" font-family="Times New Roman,serif" font-size="14.00">ONE&#45;SIDE BALANCE</text>
</a>
</g>
</g>
<!-- mov_75_2hssldl&#45;&gt;mov_77_shsldl -->
<g id="edge14" class="edge">
<title>mov_75_2hssldl&#45;&gt;mov_77_shsldl</title>
<path fill="none" stroke="black" d="M952.62,-667.33C952.62,-659.94 952.62,-651.16 952.62,-642.44"/>
<polygon fill="black" stroke="black" points="956.13,-642.63 952.63,-632.63 949.13,-642.63 956.13,-642.63"/>
</g>
<!-- Legend -->
<g id="node31" class="node">
<title>Legend</title>
<path fill="#ffff99" stroke="none" d="M1572.12,-430.75C1572.12,-430.75 1403.12,-430.75 1403.12,-430.75 1397.12,-430.75 1391.12,-424.75 1391.12,-418.75 1391.12,-418.75 1391.12,-366.75 1391.12,-366.75 1391.12,-360.75 1397.12,-354.75 1403.12,-354.75 1403.12,-354.75 1572.12,-354.75 1572.12,-354.75 1578.12,-354.75 1584.12,-360.75 1584.12,-366.75 1584.12,-366.75 1584.12,-418.75 1584.12,-418.75 1584.12,-424.75 1578.12,-430.75 1572.12,-430.75"/>
<polygon fill="none" stroke="#b15928" points="1391.12,-404.75 1391.12,-430.75 1584.12,-430.75 1584.12,-404.75 1391.12,-404.75"/>
<text text-anchor="start" x="1465.12" y="-413.45" font-family="Times New Roman,serif" font-weight="bold" font-size="14.00">Legend</text>
<polygon fill="none" stroke="#b15928" points="1391.12,-379.75 1391.12,-404.75 1556.12,-404.75 1556.12,-379.75 1391.12,-379.75"/>
<text text-anchor="start" x="1396" y="-386.45" font-family="Times New Roman,serif" font-size="14.00">Prerequisites and next steps</text>
<polygon fill="#a6cee3" stroke="none" points="1556.12,-379.75 1556.12,-404.75 1584.12,-404.75 1584.12,-379.75 1556.12,-379.75"/>
<polygon fill="none" stroke="#b15928" points="1556.12,-379.75 1556.12,-404.75 1584.12,-404.75 1584.12,-379.75 1556.12,-379.75"/>
<text text-anchor="start" x="1560.75" y="-386.45" font-family="Times New Roman,serif" font-size="14.00">     </text>
<polygon fill="none" stroke="#b15928" points="1391.12,-354.75 1391.12,-379.75 1556.12,-379.75 1556.12,-354.75 1391.12,-354.75"/>
<text text-anchor="start" x="1459" y="-361.45" font-family="Times New Roman,serif" font-size="14.00">Drills</text>
<polygon fill="#ffff99" stroke="none" points="1556.12,-354.75 1556.12,-379.75 1584.12,-379.75 1584.12,-354.75 1556.12,-354.75"/>
<polygon fill="none" stroke="#b15928" points="1556.12,-354.75 1556.12,-379.75 1584.12,-379.75 1584.12,-354.75 1556.12,-354.75"/>
</g>
</g>
</svg>
