<?xml version="1.0" encoding="UTF-8" standalone="no"?>
<!DOCTYPE svg PUBLIC "-//W3C//DTD SVG 1.1//EN"
 "http://www.w3.org/Graphics/SVG/1.1/DTD/svg11.dtd">
<!-- Generated by graphviz version 9.0.0 (20230911.1827)
 -->
<!-- Title: kb_progression Pages: 1 -->
<svg width="1464pt" height="1009pt"
 viewBox="0.00 0.00 1463.62 1009.00" xmlns="http://www.w3.org/2000/svg" xmlns:xlink="http://www.w3.org/1999/xlink">
<g id="graph0" class="graph" transform="scale(1 1) rotate(0) translate(4 1005)">
<title>kb_progression</title>
<polygon fill="white" stroke="none" points="-4,4 -4,-1005 1459.62,-1005 1459.62,4 -4,4"/>
<text text-anchor="start" x="1056.12" y="-145.7" font-family="Helvetica,Arial,sans-serif" font-weight="bold" font-size="14.00">Kettlebell Basic Skill Progression &#45; Part 4/4</text>
<text text-anchor="start" x="1056.12" y="-117.7" font-family="Helvetica,Arial,sans-serif" font-size="14.00">Diagram by dznz based on Mark Wildman&#39;s teachings.</text>
<text text-anchor="start" x="1056.12" y="-89.7" font-family="Helvetica,Arial,sans-serif" font-size="14.00">Source: </text>
<text text-anchor="start" x="1109.38" y="-89.7" font-family="Helvetica,Arial,sans-serif" font-weight="bold" font-size="14.00">https://github.com/dznz/wildman&#45;skill&#45;trees</text>
<text text-anchor="start" x="1056.12" y="-61.7" font-family="Helvetica,Arial,sans-serif" font-size="14.00">More by Mark Wildman &#45; </text>
<text text-anchor="start" x="1212.12" y="-61.7" font-family="Helvetica,Arial,sans-serif" font-weight="bold" font-size="14.00">https://www.wildmanathletica.com</text>
<text text-anchor="start" x="1056.12" y="-33.7" font-family="Helvetica,Arial,sans-serif" font-style="italic" font-size="14.00">© 2023. This work is openly licensed with CC BY&#45;NC&#45;SA 4.0</text>
<text text-anchor="start" x="1124.38" y="-19.7" font-family="Helvetica,Arial,sans-serif" font-style="italic" font-size="14.00">http://creativecommons.org/licenses/by&#45;nc&#45;sa/4.0/</text>
<text text-anchor="start" x="1248.12" y="-5.7" font-family="Helvetica,Arial,sans-serif" font-size="14.00"> &#160;</text>
<g id="clust3" class="cluster">
<title>cluster_double</title>
<polygon fill="none" stroke="black" points="322.12,-243 322.12,-867 879.12,-867 879.12,-243 322.12,-243"/>
<text text-anchor="middle" x="844.5" y="-849.7" font-family="Helvetica,Arial,sans-serif" font-size="14.00">Doubles</text>
</g>
<g id="clust4" class="cluster">
<title>cluster_snatch</title>
<polygon fill="none" stroke="black" points="887.12,-170 887.12,-510.75 1253.12,-510.75 1253.12,-170 887.12,-170"/>
<text text-anchor="middle" x="1223.38" y="-493.45" font-family="Helvetica,Arial,sans-serif" font-size="14.00">Snatch</text>
</g>
<g id="clust2" class="cluster">
<title>cluster_deadlift</title>
<polygon fill="none" stroke="black" points="138.12,-611 138.12,-944.5 314.12,-944.5 314.12,-611 138.12,-611"/>
<text text-anchor="middle" x="278" y="-927.2" font-family="Helvetica,Arial,sans-serif" font-size="14.00">Deadlifts</text>
</g>
<!-- ext_hc_dblswing -->
<g id="node1" class="node">
<title>ext_hc_dblswing</title>
<path fill="#a6cee3" stroke="#1f78b4" d="M12,-633.12C12,-633.12 118.25,-633.12 118.25,-633.12 124.25,-633.12 130.25,-639.12 130.25,-645.12 130.25,-645.12 130.25,-657.12 130.25,-657.12 130.25,-663.12 124.25,-669.12 118.25,-669.12 118.25,-669.12 12,-669.12 12,-669.12 6,-669.12 0,-663.12 0,-657.12 0,-657.12 0,-645.12 0,-645.12 0,-639.12 6,-633.12 12,-633.12"/>
<text text-anchor="middle" x="17.75" y="-645.83" font-family="Times New Roman,serif" font-size="14.00">HC</text>
<polyline fill="none" stroke="#1f78b4" points="35.5,-633.38 35.5,-669.12"/>
<text text-anchor="middle" x="82.88" y="-645.83" font-family="Times New Roman,serif" font-size="14.00">Double Swing</text>
</g>
<!-- ext_hc_dblrockit -->
<g id="node2" class="node">
<title>ext_hc_dblrockit</title>
<path fill="#a6cee3" stroke="#1f78b4" d="M101.5,-532.88C101.5,-532.88 210.75,-532.88 210.75,-532.88 216.75,-532.88 222.75,-538.88 222.75,-544.88 222.75,-544.88 222.75,-556.88 222.75,-556.88 222.75,-562.88 216.75,-568.88 210.75,-568.88 210.75,-568.88 101.5,-568.88 101.5,-568.88 95.5,-568.88 89.5,-562.88 89.5,-556.88 89.5,-556.88 89.5,-544.88 89.5,-544.88 89.5,-538.88 95.5,-532.88 101.5,-532.88"/>
<text text-anchor="middle" x="107.25" y="-545.58" font-family="Times New Roman,serif" font-size="14.00">HC</text>
<polyline fill="none" stroke="#1f78b4" points="125,-533.12 125,-568.88"/>
<text text-anchor="middle" x="173.88" y="-545.58" font-family="Times New Roman,serif" font-size="14.00">Double Rockit</text>
</g>
<!-- ext_hc_dblswing&#45;&gt;ext_hc_dblrockit -->
<g id="edge1" class="edge">
<title>ext_hc_dblswing&#45;&gt;ext_hc_dblrockit</title>
<path fill="none" stroke="black" d="M80.98,-633.01C95.24,-617.61 116.4,-594.77 132.63,-577.24"/>
<polygon fill="black" stroke="black" points="134.89,-579.95 139.12,-570.23 129.76,-575.19 134.89,-579.95"/>
</g>
<!-- mov_63_dblrockit -->
<g id="node16" class="node">
<title>mov_63_dblrockit</title>
<g id="a_node16"><a xlink:href="https://www.youtube.com/watch?v=zXB6hFrrBkA&amp;list=PLk4oYPJ7TXKhX8YqA2AVrfgs_pEF6p7KA&amp;index=63" xlink:title="{{63|Double Rockit}}">
<path fill="#ffff99" stroke="#b15928" d="M342.5,-441.75C342.5,-441.75 445.75,-441.75 445.75,-441.75 451.75,-441.75 457.75,-447.75 457.75,-453.75 457.75,-453.75 457.75,-465.75 457.75,-465.75 457.75,-471.75 451.75,-477.75 445.75,-477.75 445.75,-477.75 342.5,-477.75 342.5,-477.75 336.5,-477.75 330.5,-471.75 330.5,-465.75 330.5,-465.75 330.5,-453.75 330.5,-453.75 330.5,-447.75 336.5,-441.75 342.5,-441.75"/>
<text text-anchor="middle" x="345.25" y="-454.45" font-family="Times New Roman,serif" font-size="14.00">63</text>
<polyline fill="none" stroke="#b15928" points="360,-442 360,-477.75"/>
<text text-anchor="middle" x="408.88" y="-454.45" font-family="Times New Roman,serif" font-size="14.00">Double Rockit</text>
</a>
</g>
</g>
<!-- ext_hc_dblrockit&#45;&gt;mov_63_dblrockit -->
<g id="edge2" class="edge">
<title>ext_hc_dblrockit&#45;&gt;mov_63_dblrockit</title>
<path fill="none" stroke="black" d="M202.58,-532.48C241.07,-518.06 295.95,-497.51 337.11,-482.1"/>
<polygon fill="black" stroke="black" points="338.23,-485.42 346.37,-478.63 335.78,-478.86 338.23,-485.42"/>
</g>
<!-- mov_01_deadlift -->
<g id="node3" class="node">
<title>mov_01_deadlift</title>
<g id="a_node3"><a xlink:href="https://www.youtube.com/watch?v=x0XkmM34BPI&amp;list=PLk4oYPJ7TXKhX8YqA2AVrfgs_pEF6p7KA&amp;index=1" xlink:title="{{KB&#45;01|Two Hand Deadlift}|HIP HINGE}">
<path fill="#a6cee3" stroke="#1f78b4" d="M157.12,-953C157.12,-953 309.12,-953 309.12,-953 315.12,-953 321.12,-959 321.12,-965 321.12,-965 321.12,-988.5 321.12,-988.5 321.12,-994.5 315.12,-1000.5 309.12,-1000.5 309.12,-1000.5 157.12,-1000.5 157.12,-1000.5 151.12,-1000.5 145.12,-994.5 145.12,-988.5 145.12,-988.5 145.12,-965 145.12,-965 145.12,-959 151.12,-953 157.12,-953"/>
<text text-anchor="middle" x="171.5" y="-983.2" font-family="Times New Roman,serif" font-size="14.00">KB&#45;01</text>
<polyline fill="none" stroke="#1f78b4" points="197.88,-976.75 197.88,-1000.5"/>
<text text-anchor="middle" x="259.5" y="-983.2" font-family="Times New Roman,serif" font-size="14.00">Two Hand Deadlift</text>
<polyline fill="none" stroke="#1f78b4" points="145.12,-976.75 321.12,-976.75"/>
<text text-anchor="middle" x="233.12" y="-959.45" font-family="Times New Roman,serif" font-size="14.00">HIP HINGE</text>
</a>
</g>
</g>
<!-- mov_56_suitcasedl -->
<g id="node9" class="node">
<title>mov_56_suitcasedl</title>
<g id="a_node9"><a xlink:href="https://www.youtube.com/watch?v=d6i6MwVOmk0&amp;list=PLk4oYPJ7TXKhX8YqA2AVrfgs_pEF6p7KA&amp;index=58" xlink:title="{{56|Suitcase Deadlift}}">
<path fill="#ffff99" stroke="#b15928" d="M175.5,-875.5C175.5,-875.5 290.75,-875.5 290.75,-875.5 296.75,-875.5 302.75,-881.5 302.75,-887.5 302.75,-887.5 302.75,-899.5 302.75,-899.5 302.75,-905.5 296.75,-911.5 290.75,-911.5 290.75,-911.5 175.5,-911.5 175.5,-911.5 169.5,-911.5 163.5,-905.5 163.5,-899.5 163.5,-899.5 163.5,-887.5 163.5,-887.5 163.5,-881.5 169.5,-875.5 175.5,-875.5"/>
<text text-anchor="middle" x="178.25" y="-888.2" font-family="Times New Roman,serif" font-size="14.00">56</text>
<polyline fill="none" stroke="#b15928" points="193,-875.75 193,-911.5"/>
<text text-anchor="middle" x="247.88" y="-888.2" font-family="Times New Roman,serif" font-size="14.00">Suitcase Deadlift</text>
</a>
</g>
</g>
<!-- mov_01_deadlift&#45;&gt;mov_56_suitcasedl -->
<g id="edge10" class="edge">
<title>mov_01_deadlift&#45;&gt;mov_56_suitcasedl</title>
<path fill="none" stroke="black" d="M233.12,-952.68C233.12,-943.58 233.12,-933.02 233.12,-923.41"/>
<polygon fill="black" stroke="black" points="236.63,-923.45 233.13,-913.45 229.63,-923.45 236.63,-923.45"/>
</g>
<!-- mov_10_h2h -->
<g id="node4" class="node">
<title>mov_10_h2h</title>
<g id="a_node4"><a xlink:href="https://www.youtube.com/watch?v=0Uk0Rdm3QFs&amp;list=PLk4oYPJ7TXKhX8YqA2AVrfgs_pEF6p7KA&amp;index=10" xlink:title="{{KB&#45;10|Hand to Hand\nTransition}}">
<path fill="#a6cee3" stroke="#1f78b4" d="M899.38,-719.75C899.38,-719.75 1022.88,-719.75 1022.88,-719.75 1028.88,-719.75 1034.88,-725.75 1034.88,-731.75 1034.88,-731.75 1034.88,-747.25 1034.88,-747.25 1034.88,-753.25 1028.88,-759.25 1022.88,-759.25 1022.88,-759.25 899.38,-759.25 899.38,-759.25 893.38,-759.25 887.38,-753.25 887.38,-747.25 887.38,-747.25 887.38,-731.75 887.38,-731.75 887.38,-725.75 893.38,-719.75 899.38,-719.75"/>
<text text-anchor="middle" x="913.75" y="-734.08" font-family="Times New Roman,serif" font-size="14.00">KB&#45;10</text>
<polyline fill="none" stroke="#1f78b4" points="940.12,-719.75 940.12,-759.25"/>
<text text-anchor="middle" x="987.5" y="-741.95" font-family="Times New Roman,serif" font-size="14.00">Hand to Hand</text>
<text text-anchor="middle" x="987.5" y="-726.2" font-family="Times New Roman,serif" font-size="14.00">Transition</text>
</a>
</g>
</g>
<!-- mov_60_dblswing -->
<g id="node13" class="node">
<title>mov_60_dblswing</title>
<g id="a_node13"><a xlink:href="https://www.youtube.com/watch?v=P5IFTJySA_s&amp;list=PLk4oYPJ7TXKhX8YqA2AVrfgs_pEF6p7KA&amp;index=61" xlink:title="{{60|Double Swing}}">
<path fill="#ffff99" stroke="#b15928" d="M533,-633.12C533,-633.12 633.25,-633.12 633.25,-633.12 639.25,-633.12 645.25,-639.12 645.25,-645.12 645.25,-645.12 645.25,-657.12 645.25,-657.12 645.25,-663.12 639.25,-669.12 633.25,-669.12 633.25,-669.12 533,-669.12 533,-669.12 527,-669.12 521,-663.12 521,-657.12 521,-657.12 521,-645.12 521,-645.12 521,-639.12 527,-633.12 533,-633.12"/>
<text text-anchor="middle" x="535.75" y="-645.83" font-family="Times New Roman,serif" font-size="14.00">60</text>
<polyline fill="none" stroke="#b15928" points="550.5,-633.38 550.5,-669.12"/>
<text text-anchor="middle" x="597.88" y="-645.83" font-family="Times New Roman,serif" font-size="14.00">Double Swing</text>
</a>
</g>
</g>
<!-- mov_10_h2h&#45;&gt;mov_60_dblswing -->
<g id="edge3" class="edge">
<title>mov_10_h2h&#45;&gt;mov_60_dblswing</title>
<path fill="none" stroke="black" d="M887.23,-720.22C885.85,-719.89 884.48,-719.57 883.12,-719.25 805.97,-701.1 717.38,-681.42 656.58,-668.09"/>
<polygon fill="black" stroke="black" points="657.55,-664.72 647.04,-666 656.06,-671.56 657.55,-664.72"/>
</g>
<!-- mov_12_clean -->
<g id="node5" class="node">
<title>mov_12_clean</title>
<g id="a_node5"><a xlink:href="https://www.youtube.com/watch?v=_nIsSXWs5iU&amp;list=PLk4oYPJ7TXKhX8YqA2AVrfgs_pEF6p7KA&amp;index=12" xlink:title="KB&#45;12|Swing Clean">
<path fill="#a6cee3" stroke="#1f78b4" d="M1070.88,-721.5C1070.88,-721.5 1185.38,-721.5 1185.38,-721.5 1191.38,-721.5 1197.38,-727.5 1197.38,-733.5 1197.38,-733.5 1197.38,-745.5 1197.38,-745.5 1197.38,-751.5 1191.38,-757.5 1185.38,-757.5 1185.38,-757.5 1070.88,-757.5 1070.88,-757.5 1064.88,-757.5 1058.88,-751.5 1058.88,-745.5 1058.88,-745.5 1058.88,-733.5 1058.88,-733.5 1058.88,-727.5 1064.88,-721.5 1070.88,-721.5"/>
<text text-anchor="middle" x="1085.25" y="-734.08" font-family="Times New Roman,serif" font-size="14.00">KB&#45;12</text>
<polyline fill="none" stroke="#1f78b4" points="1111.62,-721.5 1111.62,-757.5"/>
<text text-anchor="middle" x="1154.5" y="-734.08" font-family="Times New Roman,serif" font-size="14.00">Swing Clean</text>
</a>
</g>
</g>
<!-- mov_16_startstopclean -->
<g id="node6" class="node">
<title>mov_16_startstopclean</title>
<g id="a_node6"><a xlink:href="https://www.youtube.com/watch?v=XbK3jxI0WNQ&amp;list=PLk4oYPJ7TXKhX8YqA2AVrfgs_pEF6p7KA&amp;index=16" xlink:title="{{KB&#45;16|Start Stop Clean}|START &amp; END CLEAN}">
<path fill="#a6cee3" stroke="#1f78b4" d="M1078.62,-627.38C1078.62,-627.38 1215.62,-627.38 1215.62,-627.38 1221.62,-627.38 1227.62,-633.38 1227.62,-639.38 1227.62,-639.38 1227.62,-662.88 1227.62,-662.88 1227.62,-668.88 1221.62,-674.88 1215.62,-674.88 1215.62,-674.88 1078.62,-674.88 1078.62,-674.88 1072.62,-674.88 1066.62,-668.88 1066.62,-662.88 1066.62,-662.88 1066.62,-639.38 1066.62,-639.38 1066.62,-633.38 1072.62,-627.38 1078.62,-627.38"/>
<text text-anchor="middle" x="1093" y="-657.58" font-family="Times New Roman,serif" font-size="14.00">KB&#45;16</text>
<polyline fill="none" stroke="#1f78b4" points="1119.38,-651.12 1119.38,-674.88"/>
<text text-anchor="middle" x="1173.5" y="-657.58" font-family="Times New Roman,serif" font-size="14.00">Start Stop Clean</text>
<polyline fill="none" stroke="#1f78b4" points="1066.62,-651.12 1227.62,-651.12"/>
<text text-anchor="middle" x="1147.12" y="-633.83" font-family="Times New Roman,serif" font-size="14.00">START &amp; END CLEAN</text>
</a>
</g>
</g>
<!-- mov_12_clean&#45;&gt;mov_16_startstopclean -->
<g id="edge4" class="edge">
<title>mov_12_clean&#45;&gt;mov_16_startstopclean</title>
<path fill="none" stroke="black" d="M1131.97,-721.02C1134.17,-711.01 1137.01,-698.1 1139.64,-686.17"/>
<polygon fill="black" stroke="black" points="1143,-687.15 1141.73,-676.63 1136.17,-685.64 1143,-687.15"/>
</g>
<!-- mov_17_cap -->
<g id="node7" class="node">
<title>mov_17_cap</title>
<g id="a_node7"><a xlink:href="https://www.youtube.com/watch?v=SSxB3m5qRas&amp;list=PLk4oYPJ7TXKhX8YqA2AVrfgs_pEF6p7KA&amp;index=17" xlink:title="KB&#45;17|Clean &amp; Press">
<path fill="#a6cee3" stroke="#1f78b4" d="M911.25,-633.12C911.25,-633.12 1037,-633.12 1037,-633.12 1043,-633.12 1049,-639.12 1049,-645.12 1049,-645.12 1049,-657.12 1049,-657.12 1049,-663.12 1043,-669.12 1037,-669.12 1037,-669.12 911.25,-669.12 911.25,-669.12 905.25,-669.12 899.25,-663.12 899.25,-657.12 899.25,-657.12 899.25,-645.12 899.25,-645.12 899.25,-639.12 905.25,-633.12 911.25,-633.12"/>
<text text-anchor="middle" x="925.62" y="-645.7" font-family="Times New Roman,serif" font-size="14.00">KB&#45;17</text>
<polyline fill="none" stroke="#1f78b4" points="952,-633.12 952,-669.12"/>
<text text-anchor="middle" x="1000.5" y="-645.7" font-family="Times New Roman,serif" font-size="14.00">Clean &amp; Press</text>
</a>
</g>
</g>
<!-- mov_12_clean&#45;&gt;mov_17_cap -->
<g id="edge5" class="edge">
<title>mov_12_clean&#45;&gt;mov_17_cap</title>
<path fill="none" stroke="black" d="M1096.96,-721.02C1073.37,-707.79 1040.76,-689.5 1015.07,-675.09"/>
<polygon fill="black" stroke="black" points="1017,-672.16 1006.56,-670.32 1013.57,-678.26 1017,-672.16"/>
</g>
<!-- mov_59_halfsnatchdown -->
<g id="node12" class="node">
<title>mov_59_halfsnatchdown</title>
<g id="a_node12"><a xlink:href="https://www.youtube.com/watch?v=u2NbMtX_Rb0&amp;list=PLk4oYPJ7TXKhX8YqA2AVrfgs_pEF6p7KA&amp;index=60" xlink:title="{{59|Half Snatch Down}}">
<path fill="#ffff99" stroke="#b15928" d="M1109,-441.75C1109,-441.75 1233.25,-441.75 1233.25,-441.75 1239.25,-441.75 1245.25,-447.75 1245.25,-453.75 1245.25,-453.75 1245.25,-465.75 1245.25,-465.75 1245.25,-471.75 1239.25,-477.75 1233.25,-477.75 1233.25,-477.75 1109,-477.75 1109,-477.75 1103,-477.75 1097,-471.75 1097,-465.75 1097,-465.75 1097,-453.75 1097,-453.75 1097,-447.75 1103,-441.75 1109,-441.75"/>
<text text-anchor="middle" x="1111.75" y="-454.45" font-family="Times New Roman,serif" font-size="14.00">59</text>
<polyline fill="none" stroke="#b15928" points="1126.5,-442 1126.5,-477.75"/>
<text text-anchor="middle" x="1185.88" y="-454.45" font-family="Times New Roman,serif" font-size="14.00">Half Snatch Down</text>
</a>
</g>
</g>
<!-- mov_16_startstopclean&#45;&gt;mov_59_halfsnatchdown -->
<g id="edge8" class="edge">
<title>mov_16_startstopclean&#45;&gt;mov_59_halfsnatchdown</title>
<path fill="none" stroke="black" d="M1150.07,-626.9C1154.47,-592.15 1162.77,-526.67 1167.53,-489.13"/>
<polygon fill="black" stroke="black" points="1170.96,-489.86 1168.75,-479.5 1164.02,-488.98 1170.96,-489.86"/>
</g>
<!-- mov_62_dblclean -->
<g id="node15" class="node">
<title>mov_62_dblclean</title>
<g id="a_node15"><a xlink:href="https://www.youtube.com/watch?v=Qe9ejhAtdGY&amp;list=PLk4oYPJ7TXKhX8YqA2AVrfgs_pEF6p7KA&amp;index=62" xlink:title="{{62|Double Clean}}">
<path fill="#ffff99" stroke="#b15928" d="M622.5,-532.88C622.5,-532.88 719.75,-532.88 719.75,-532.88 725.75,-532.88 731.75,-538.88 731.75,-544.88 731.75,-544.88 731.75,-556.88 731.75,-556.88 731.75,-562.88 725.75,-568.88 719.75,-568.88 719.75,-568.88 622.5,-568.88 622.5,-568.88 616.5,-568.88 610.5,-562.88 610.5,-556.88 610.5,-556.88 610.5,-544.88 610.5,-544.88 610.5,-538.88 616.5,-532.88 622.5,-532.88"/>
<text text-anchor="middle" x="625.25" y="-545.58" font-family="Times New Roman,serif" font-size="14.00">62</text>
<polyline fill="none" stroke="#b15928" points="640,-533.12 640,-568.88"/>
<text text-anchor="middle" x="685.88" y="-545.58" font-family="Times New Roman,serif" font-size="14.00">Double Clean</text>
</a>
</g>
</g>
<!-- mov_16_startstopclean&#45;&gt;mov_62_dblclean -->
<g id="edge7" class="edge">
<title>mov_16_startstopclean&#45;&gt;mov_62_dblclean</title>
<path fill="none" stroke="black" d="M1100.87,-627.05C1087.36,-621.06 1072.39,-615.15 1058.12,-611 1043.15,-606.65 850.79,-578.16 743.05,-562.37"/>
<polygon fill="black" stroke="black" points="743.84,-558.95 733.44,-560.96 742.82,-565.87 743.84,-558.95"/>
</g>
<!-- mov_19_startstopcap -->
<g id="node8" class="node">
<title>mov_19_startstopcap</title>
<g id="a_node8"><a xlink:href="https://www.youtube.com/watch?v=dSj3kqbuois&amp;list=PLk4oYPJ7TXKhX8YqA2AVrfgs_pEF6p7KA&amp;index=19" xlink:title="{{KB&#45;19|Start Stop\nClean &amp; Press}|START &amp; END C&amp;P}">
<path fill="#a6cee3" stroke="#1f78b4" d="M911.25,-519.25C911.25,-519.25 1037,-519.25 1037,-519.25 1043,-519.25 1049,-525.25 1049,-531.25 1049,-531.25 1049,-570.5 1049,-570.5 1049,-576.5 1043,-582.5 1037,-582.5 1037,-582.5 911.25,-582.5 911.25,-582.5 905.25,-582.5 899.25,-576.5 899.25,-570.5 899.25,-570.5 899.25,-531.25 899.25,-531.25 899.25,-525.25 905.25,-519.25 911.25,-519.25"/>
<text text-anchor="middle" x="925.62" y="-557.33" font-family="Times New Roman,serif" font-size="14.00">KB&#45;19</text>
<polyline fill="none" stroke="#1f78b4" points="952,-543 952,-582.5"/>
<text text-anchor="middle" x="1000.5" y="-565.2" font-family="Times New Roman,serif" font-size="14.00">Start Stop</text>
<text text-anchor="middle" x="1000.5" y="-549.45" font-family="Times New Roman,serif" font-size="14.00">Clean &amp; Press</text>
<polyline fill="none" stroke="#1f78b4" points="899.25,-543 1049,-543"/>
<text text-anchor="middle" x="974.12" y="-525.7" font-family="Times New Roman,serif" font-size="14.00">START &amp; END C&amp;P</text>
</a>
</g>
</g>
<!-- mov_17_cap&#45;&gt;mov_19_startstopcap -->
<g id="edge6" class="edge">
<title>mov_17_cap&#45;&gt;mov_19_startstopcap</title>
<path fill="none" stroke="black" d="M974.12,-633.01C974.12,-622.19 974.12,-607.69 974.12,-593.95"/>
<polygon fill="black" stroke="black" points="977.63,-594.19 974.13,-584.19 970.63,-594.19 977.63,-594.19"/>
</g>
<!-- mov_65_dblcap -->
<g id="node18" class="node">
<title>mov_65_dblcap</title>
<g id="a_node18"><a xlink:href="https://www.youtube.com/watch?v=RizGV8ef--s" xlink:title="{{65|Double\nClean &amp; Press}}">
<path fill="#ffff99" stroke="#b15928" d="M756.88,-440C756.88,-440 859.38,-440 859.38,-440 865.38,-440 871.38,-446 871.38,-452 871.38,-452 871.38,-467.5 871.38,-467.5 871.38,-473.5 865.38,-479.5 859.38,-479.5 859.38,-479.5 756.88,-479.5 756.88,-479.5 750.88,-479.5 744.88,-473.5 744.88,-467.5 744.88,-467.5 744.88,-452 744.88,-452 744.88,-446 750.88,-440 756.88,-440"/>
<text text-anchor="middle" x="759.62" y="-454.32" font-family="Times New Roman,serif" font-size="14.00">65</text>
<polyline fill="none" stroke="#b15928" points="774.38,-440 774.38,-479.5"/>
<text text-anchor="middle" x="822.88" y="-462.2" font-family="Times New Roman,serif" font-size="14.00">Double</text>
<text text-anchor="middle" x="822.88" y="-446.45" font-family="Times New Roman,serif" font-size="14.00">Clean &amp; Press</text>
</a>
</g>
</g>
<!-- mov_19_startstopcap&#45;&gt;mov_65_dblcap -->
<g id="edge9" class="edge">
<title>mov_19_startstopcap&#45;&gt;mov_65_dblcap</title>
<path fill="none" stroke="black" d="M899.11,-518.93C893.64,-516.28 888.26,-513.54 883.12,-510.75 869.77,-503.51 855.77,-494.57 843.52,-486.26"/>
<polygon fill="black" stroke="black" points="845.59,-483.44 835.37,-480.64 841.61,-489.2 845.59,-483.44"/>
</g>
<!-- mov_70_kneelsnatchup -->
<g id="node23" class="node">
<title>mov_70_kneelsnatchup</title>
<g id="a_node23"><a xlink:href="https://www.youtube.com/watch?v=1_UrK5SopL4" xlink:title="{{70|Half&#45;Kneeling Snatch Up}}">
<path fill="#ffff99" stroke="#b15928" d="M907,-441.75C907,-441.75 1067.25,-441.75 1067.25,-441.75 1073.25,-441.75 1079.25,-447.75 1079.25,-453.75 1079.25,-453.75 1079.25,-465.75 1079.25,-465.75 1079.25,-471.75 1073.25,-477.75 1067.25,-477.75 1067.25,-477.75 907,-477.75 907,-477.75 901,-477.75 895,-471.75 895,-465.75 895,-465.75 895,-453.75 895,-453.75 895,-447.75 901,-441.75 907,-441.75"/>
<text text-anchor="middle" x="909.75" y="-454.45" font-family="Times New Roman,serif" font-size="14.00">70</text>
<polyline fill="none" stroke="#b15928" points="924.5,-442 924.5,-477.75"/>
<text text-anchor="middle" x="1001.88" y="-454.45" font-family="Times New Roman,serif" font-size="14.00">Half&#45;Kneeling Snatch Up</text>
</a>
</g>
</g>
<!-- mov_19_startstopcap&#45;&gt;mov_70_kneelsnatchup -->
<g id="edge32" class="edge">
<title>mov_19_startstopcap&#45;&gt;mov_70_kneelsnatchup</title>
<path fill="none" stroke="black" d="M978.6,-519.2C980,-509.57 981.55,-498.98 982.93,-489.49"/>
<polygon fill="black" stroke="black" points="986.38,-490.11 984.36,-479.71 979.45,-489.1 986.38,-490.11"/>
</g>
<!-- mov_57_dblsuitcase -->
<g id="node10" class="node">
<title>mov_57_dblsuitcase</title>
<g id="a_node10"><a xlink:href="https://www.youtube.com/watch?v=4PSOSrDcGfc&amp;list=PLk4oYPJ7TXKhX8YqA2AVrfgs_pEF6p7KA&amp;index=59" xlink:title="{{57|Double Suitcase}}">
<path fill="#ffff99" stroke="#b15928" d="M407,-798C407,-798 519.25,-798 519.25,-798 525.25,-798 531.25,-804 531.25,-810 531.25,-810 531.25,-822 531.25,-822 531.25,-828 525.25,-834 519.25,-834 519.25,-834 407,-834 407,-834 401,-834 395,-828 395,-822 395,-822 395,-810 395,-810 395,-804 401,-798 407,-798"/>
<text text-anchor="middle" x="409.75" y="-810.7" font-family="Times New Roman,serif" font-size="14.00">57</text>
<polyline fill="none" stroke="#b15928" points="424.5,-798.25 424.5,-834"/>
<text text-anchor="middle" x="477.88" y="-810.7" font-family="Times New Roman,serif" font-size="14.00">Double Suitcase</text>
</a>
</g>
</g>
<!-- mov_56_suitcasedl&#45;&gt;mov_57_dblsuitcase -->
<g id="edge11" class="edge">
<title>mov_56_suitcasedl&#45;&gt;mov_57_dblsuitcase</title>
<path fill="none" stroke="black" d="M292.21,-875.11C300.92,-872.45 309.77,-869.69 318.12,-867 346.29,-857.92 377.32,-847.31 403.43,-838.19"/>
<polygon fill="black" stroke="black" points="404.58,-841.5 412.87,-834.89 402.27,-834.89 404.58,-841.5"/>
</g>
<!-- mov_73_2hsbldl -->
<g id="node25" class="node">
<title>mov_73_2hsbldl</title>
<g id="a_node25"><a xlink:href="https://www.youtube.com/watch?v=-RD1qqe7P8M" xlink:title="{{73|Two Hand Single\nBent Leg Deadlift}}">
<path fill="#ffff99" stroke="#b15928" d="M170.62,-796.25C170.62,-796.25 289.62,-796.25 289.62,-796.25 295.62,-796.25 301.62,-802.25 301.62,-808.25 301.62,-808.25 301.62,-823.75 301.62,-823.75 301.62,-829.75 295.62,-835.75 289.62,-835.75 289.62,-835.75 170.62,-835.75 170.62,-835.75 164.62,-835.75 158.62,-829.75 158.62,-823.75 158.62,-823.75 158.62,-808.25 158.62,-808.25 158.62,-802.25 164.62,-796.25 170.62,-796.25"/>
<text text-anchor="middle" x="173.38" y="-810.58" font-family="Times New Roman,serif" font-size="14.00">73</text>
<polyline fill="none" stroke="#b15928" points="188.12,-796.25 188.12,-835.75"/>
<text text-anchor="middle" x="244.88" y="-818.45" font-family="Times New Roman,serif" font-size="14.00">Two Hand Single</text>
<text text-anchor="middle" x="244.88" y="-802.7" font-family="Times New Roman,serif" font-size="14.00">Bent Leg Deadlift</text>
</a>
</g>
</g>
<!-- mov_56_suitcasedl&#45;&gt;mov_73_2hsbldl -->
<g id="edge12" class="edge">
<title>mov_56_suitcasedl&#45;&gt;mov_73_2hsbldl</title>
<path fill="none" stroke="black" d="M232.44,-875.37C232.12,-867.17 231.72,-857.1 231.34,-847.65"/>
<polygon fill="black" stroke="black" points="234.84,-847.55 230.95,-837.7 227.85,-847.83 234.84,-847.55"/>
</g>
<!-- mov_58_dblsumodl -->
<g id="node11" class="node">
<title>mov_58_dblsumodl</title>
<g id="a_node11"><a xlink:href="https://www.youtube.com/watch?v=gdutIla6nMw" xlink:title="{{58|Double Sumo Deadlift}}">
<path fill="#ffff99" stroke="#b15928" d="M450.12,-721.5C450.12,-721.5 596.12,-721.5 596.12,-721.5 602.12,-721.5 608.12,-727.5 608.12,-733.5 608.12,-733.5 608.12,-745.5 608.12,-745.5 608.12,-751.5 602.12,-757.5 596.12,-757.5 596.12,-757.5 450.12,-757.5 450.12,-757.5 444.12,-757.5 438.12,-751.5 438.12,-745.5 438.12,-745.5 438.12,-733.5 438.12,-733.5 438.12,-727.5 444.12,-721.5 450.12,-721.5"/>
<text text-anchor="middle" x="452.88" y="-734.2" font-family="Times New Roman,serif" font-size="14.00">58</text>
<polyline fill="none" stroke="#b15928" points="467.62,-721.75 467.62,-757.5"/>
<text text-anchor="middle" x="537.88" y="-734.2" font-family="Times New Roman,serif" font-size="14.00">Double Sumo Deadlift</text>
</a>
</g>
</g>
<!-- mov_57_dblsuitcase&#45;&gt;mov_58_dblsumodl -->
<g id="edge16" class="edge">
<title>mov_57_dblsuitcase&#45;&gt;mov_58_dblsumodl</title>
<path fill="none" stroke="black" d="M477.04,-797.72C484.41,-788.57 493.62,-777.14 501.86,-766.91"/>
<polygon fill="black" stroke="black" points="504.58,-769.11 508.13,-759.12 499.13,-764.72 504.58,-769.11"/>
</g>
<!-- mov_58_dblsumodl&#45;&gt;mov_60_dblswing -->
<g id="edge22" class="edge">
<title>mov_58_dblsumodl&#45;&gt;mov_60_dblswing</title>
<path fill="none" stroke="black" d="M535.27,-721.02C543.64,-708.96 554.94,-692.7 564.46,-679"/>
<polygon fill="black" stroke="black" points="567.31,-681.03 570.14,-670.82 561.56,-677.04 567.31,-681.03"/>
</g>
<!-- mov_61_halfsnatchup -->
<g id="node14" class="node">
<title>mov_61_halfsnatchup</title>
<g id="a_node14"><a xlink:href="https://www.youtube.com/watch?v=3HEmUyLYjjc" xlink:title="{{61|Half Snatch Up}}">
<path fill="#ffff99" stroke="#b15928" d="M1125.25,-347.5C1125.25,-347.5 1233,-347.5 1233,-347.5 1239,-347.5 1245,-353.5 1245,-359.5 1245,-359.5 1245,-371.5 1245,-371.5 1245,-377.5 1239,-383.5 1233,-383.5 1233,-383.5 1125.25,-383.5 1125.25,-383.5 1119.25,-383.5 1113.25,-377.5 1113.25,-371.5 1113.25,-371.5 1113.25,-359.5 1113.25,-359.5 1113.25,-353.5 1119.25,-347.5 1125.25,-347.5"/>
<text text-anchor="middle" x="1128" y="-360.2" font-family="Times New Roman,serif" font-size="14.00">61</text>
<polyline fill="none" stroke="#b15928" points="1142.75,-347.75 1142.75,-383.5"/>
<text text-anchor="middle" x="1193.88" y="-360.2" font-family="Times New Roman,serif" font-size="14.00">Half Snatch Up</text>
</a>
</g>
</g>
<!-- mov_59_halfsnatchdown&#45;&gt;mov_61_halfsnatchup -->
<g id="edge27" class="edge">
<title>mov_59_halfsnatchdown&#45;&gt;mov_61_halfsnatchup</title>
<path fill="none" stroke="black" d="M1172.63,-441.4C1173.76,-428.38 1175.33,-410.28 1176.64,-395.13"/>
<polygon fill="black" stroke="black" points="1180.12,-395.55 1177.5,-385.28 1173.15,-394.94 1180.12,-395.55"/>
</g>
<!-- mov_60_dblswing&#45;&gt;mov_62_dblclean -->
<g id="edge17" class="edge">
<title>mov_60_dblswing&#45;&gt;mov_62_dblclean</title>
<path fill="none" stroke="black" d="M598.45,-633.01C612.25,-617.61 632.71,-594.77 648.4,-577.24"/>
<polygon fill="black" stroke="black" points="650.6,-580.03 654.67,-570.25 645.39,-575.36 650.6,-580.03"/>
</g>
<!-- mov_64_dbloutswing -->
<g id="node17" class="node">
<title>mov_64_dbloutswing</title>
<g id="a_node17"><a xlink:href="https://www.youtube.com/watch?v=yr_fRgGevsE" xlink:title="{{64|Double\nOutside Swing}}">
<path fill="#ffff99" stroke="#b15928" d="M444.5,-531.12C444.5,-531.12 547.75,-531.12 547.75,-531.12 553.75,-531.12 559.75,-537.12 559.75,-543.12 559.75,-543.12 559.75,-558.62 559.75,-558.62 559.75,-564.62 553.75,-570.62 547.75,-570.62 547.75,-570.62 444.5,-570.62 444.5,-570.62 438.5,-570.62 432.5,-564.62 432.5,-558.62 432.5,-558.62 432.5,-543.12 432.5,-543.12 432.5,-537.12 438.5,-531.12 444.5,-531.12"/>
<text text-anchor="middle" x="447.25" y="-545.45" font-family="Times New Roman,serif" font-size="14.00">64</text>
<polyline fill="none" stroke="#b15928" points="462,-531.12 462,-570.62"/>
<text text-anchor="middle" x="510.88" y="-553.33" font-family="Times New Roman,serif" font-size="14.00">Double</text>
<text text-anchor="middle" x="510.88" y="-537.58" font-family="Times New Roman,serif" font-size="14.00">Outside Swing</text>
</a>
</g>
</g>
<!-- mov_60_dblswing&#45;&gt;mov_64_dbloutswing -->
<g id="edge23" class="edge">
<title>mov_60_dblswing&#45;&gt;mov_64_dbloutswing</title>
<path fill="none" stroke="black" d="M567.97,-633.01C554.87,-618.22 535.69,-596.56 520.45,-579.34"/>
<polygon fill="black" stroke="black" points="523.14,-577.1 513.89,-571.94 517.9,-581.74 523.14,-577.1"/>
</g>
<!-- mov_66_snatch -->
<g id="node19" class="node">
<title>mov_66_snatch</title>
<g id="a_node19"><a xlink:href="https://www.youtube.com/watch?v=f-zkPiAlpQw&amp;list=PLk4oYPJ7TXKhX8YqA2AVrfgs_pEF6p7KA&amp;index=65" xlink:title="{{66|Full Snatch}}">
<path fill="#ffff99" stroke="#b15928" d="M1044.88,-253.25C1044.88,-253.25 1129.38,-253.25 1129.38,-253.25 1135.38,-253.25 1141.38,-259.25 1141.38,-265.25 1141.38,-265.25 1141.38,-277.25 1141.38,-277.25 1141.38,-283.25 1135.38,-289.25 1129.38,-289.25 1129.38,-289.25 1044.88,-289.25 1044.88,-289.25 1038.88,-289.25 1032.88,-283.25 1032.88,-277.25 1032.88,-277.25 1032.88,-265.25 1032.88,-265.25 1032.88,-259.25 1038.88,-253.25 1044.88,-253.25"/>
<text text-anchor="middle" x="1047.62" y="-265.95" font-family="Times New Roman,serif" font-size="14.00">66</text>
<polyline fill="none" stroke="#b15928" points="1062.38,-253.5 1062.38,-289.25"/>
<text text-anchor="middle" x="1101.88" y="-265.95" font-family="Times New Roman,serif" font-size="14.00">Full Snatch</text>
</a>
</g>
</g>
<!-- mov_61_halfsnatchup&#45;&gt;mov_66_snatch -->
<g id="edge28" class="edge">
<title>mov_61_halfsnatchup&#45;&gt;mov_66_snatch</title>
<path fill="none" stroke="black" d="M1161.82,-347.15C1147.81,-333.1 1127.9,-313.13 1112.15,-297.35"/>
<polygon fill="black" stroke="black" points="1114.96,-295.2 1105.42,-290.6 1110,-300.15 1114.96,-295.2"/>
</g>
<!-- mov_62_dblclean&#45;&gt;mov_65_dblcap -->
<g id="edge18" class="edge">
<title>mov_62_dblclean&#45;&gt;mov_65_dblcap</title>
<path fill="none" stroke="black" d="M700.82,-532.55C711.99,-525.89 724.74,-518.12 736.12,-510.75 748,-503.06 760.75,-494.36 772.17,-486.4"/>
<polygon fill="black" stroke="black" points="773.98,-489.41 780.16,-480.8 769.96,-483.68 773.98,-489.41"/>
</g>
<!-- mov_67_dblsquat -->
<g id="node20" class="node">
<title>mov_67_dblsquat</title>
<g id="a_node20"><a xlink:href="https://www.youtube.com/watch?v=dX5yXJa5Dm0&amp;list=PLk4oYPJ7TXKhX8YqA2AVrfgs_pEF6p7KA&amp;index=66" xlink:title="{{67|Double\nFront Squat}}">
<path fill="#ffff99" stroke="#b15928" d="M627,-440C627,-440 715.25,-440 715.25,-440 721.25,-440 727.25,-446 727.25,-452 727.25,-452 727.25,-467.5 727.25,-467.5 727.25,-473.5 721.25,-479.5 715.25,-479.5 715.25,-479.5 627,-479.5 627,-479.5 621,-479.5 615,-473.5 615,-467.5 615,-467.5 615,-452 615,-452 615,-446 621,-440 627,-440"/>
<text text-anchor="middle" x="629.75" y="-454.32" font-family="Times New Roman,serif" font-size="14.00">67</text>
<polyline fill="none" stroke="#b15928" points="644.5,-440 644.5,-479.5"/>
<text text-anchor="middle" x="685.88" y="-462.2" font-family="Times New Roman,serif" font-size="14.00">Double</text>
<text text-anchor="middle" x="685.88" y="-446.45" font-family="Times New Roman,serif" font-size="14.00">Front Squat</text>
</a>
</g>
</g>
<!-- mov_62_dblclean&#45;&gt;mov_67_dblsquat -->
<g id="edge19" class="edge">
<title>mov_62_dblclean&#45;&gt;mov_67_dblsquat</title>
<path fill="none" stroke="black" d="M671.12,-532.69C671.12,-520.95 671.12,-505.08 671.12,-491.23"/>
<polygon fill="black" stroke="black" points="674.63,-491.25 671.13,-481.25 667.63,-491.25 674.63,-491.25"/>
</g>
<!-- mov_71_deaddblclean -->
<g id="node24" class="node">
<title>mov_71_deaddblclean</title>
<g id="a_node24"><a xlink:href="https://www.youtube.com/watch?v=22bKQqMqAQY" xlink:title="{{71|Dead Stop\nDouble Clean}}">
<path fill="#ffff99" stroke="#b15928" d="M487.5,-440C487.5,-440 584.75,-440 584.75,-440 590.75,-440 596.75,-446 596.75,-452 596.75,-452 596.75,-467.5 596.75,-467.5 596.75,-473.5 590.75,-479.5 584.75,-479.5 584.75,-479.5 487.5,-479.5 487.5,-479.5 481.5,-479.5 475.5,-473.5 475.5,-467.5 475.5,-467.5 475.5,-452 475.5,-452 475.5,-446 481.5,-440 487.5,-440"/>
<text text-anchor="middle" x="490.25" y="-454.32" font-family="Times New Roman,serif" font-size="14.00">71</text>
<polyline fill="none" stroke="#b15928" points="505,-440 505,-479.5"/>
<text text-anchor="middle" x="550.88" y="-462.2" font-family="Times New Roman,serif" font-size="14.00">Dead Stop</text>
<text text-anchor="middle" x="550.88" y="-446.45" font-family="Times New Roman,serif" font-size="14.00">Double Clean</text>
</a>
</g>
</g>
<!-- mov_62_dblclean&#45;&gt;mov_71_deaddblclean -->
<g id="edge21" class="edge">
<title>mov_62_dblclean&#45;&gt;mov_71_deaddblclean</title>
<path fill="none" stroke="black" d="M641.05,-532.44C629.95,-525.83 617.35,-518.12 606.12,-510.75 594.42,-503.06 581.9,-494.3 570.73,-486.28"/>
<polygon fill="black" stroke="black" points="573.1,-483.67 562.94,-480.65 569,-489.35 573.1,-483.67"/>
</g>
<!-- mov_64_dbloutswing&#45;&gt;mov_63_dblrockit -->
<g id="edge15" class="edge">
<title>mov_64_dbloutswing&#45;&gt;mov_63_dblrockit</title>
<path fill="none" stroke="black" d="M474.24,-530.76C459.13,-517.55 438.89,-499.86 422.53,-485.57"/>
<polygon fill="black" stroke="black" points="424.87,-482.97 415.04,-479.02 420.27,-488.24 424.87,-482.97"/>
</g>
<!-- mov_76_dblhangcap -->
<g id="node28" class="node">
<title>mov_76_dblhangcap</title>
<g id="a_node28"><a xlink:href="https://www.youtube.com/watch?v=ieDA4V9WGNQ" xlink:title="{{76|Double Dead Hang\nClean &amp; Press}|SLOW DOWN TO ENDURE}">
<path fill="#ffff99" stroke="#b15928" d="M697,-333.88C697,-333.88 859.25,-333.88 859.25,-333.88 865.25,-333.88 871.25,-339.88 871.25,-345.88 871.25,-345.88 871.25,-385.12 871.25,-385.12 871.25,-391.12 865.25,-397.12 859.25,-397.12 859.25,-397.12 697,-397.12 697,-397.12 691,-397.12 685,-391.12 685,-385.12 685,-385.12 685,-345.88 685,-345.88 685,-339.88 691,-333.88 697,-333.88"/>
<text text-anchor="middle" x="708.25" y="-371.95" font-family="Times New Roman,serif" font-size="14.00">76</text>
<polyline fill="none" stroke="#b15928" points="731.5,-357.62 731.5,-397.12"/>
<text text-anchor="middle" x="801.25" y="-379.82" font-family="Times New Roman,serif" font-size="14.00">Double Dead Hang</text>
<text text-anchor="middle" x="801.25" y="-364.07" font-family="Times New Roman,serif" font-size="14.00">Clean &amp; Press</text>
<polyline fill="none" stroke="#b15928" points="685,-357.62 871.25,-357.62"/>
<text text-anchor="middle" x="778.12" y="-340.32" font-family="Times New Roman,serif" font-size="14.00">SLOW DOWN TO ENDURE</text>
</a>
</g>
</g>
<!-- mov_65_dblcap&#45;&gt;mov_76_dblhangcap -->
<g id="edge25" class="edge">
<title>mov_65_dblcap&#45;&gt;mov_76_dblhangcap</title>
<path fill="none" stroke="black" d="M801.91,-439.64C798.95,-430.53 795.28,-419.26 791.72,-408.32"/>
<polygon fill="black" stroke="black" points="795.12,-407.44 788.7,-399.01 788.46,-409.6 795.12,-407.44"/>
</g>
<!-- mov_69_snatchpress -->
<g id="node22" class="node">
<title>mov_69_snatchpress</title>
<g id="a_node22"><a xlink:href="https://www.youtube.com/watch?v=IzFPa_Q1yHM&amp;list=PLk4oYPJ7TXKhX8YqA2AVrfgs_pEF6p7KA&amp;index=67" xlink:title="{{69|Snatch Press}}">
<path fill="#ffff99" stroke="#b15928" d="M1040,-178.5C1040,-178.5 1134.25,-178.5 1134.25,-178.5 1140.25,-178.5 1146.25,-184.5 1146.25,-190.5 1146.25,-190.5 1146.25,-202.5 1146.25,-202.5 1146.25,-208.5 1140.25,-214.5 1134.25,-214.5 1134.25,-214.5 1040,-214.5 1040,-214.5 1034,-214.5 1028,-208.5 1028,-202.5 1028,-202.5 1028,-190.5 1028,-190.5 1028,-184.5 1034,-178.5 1040,-178.5"/>
<text text-anchor="middle" x="1042.75" y="-191.2" font-family="Times New Roman,serif" font-size="14.00">69</text>
<polyline fill="none" stroke="#b15928" points="1057.5,-178.75 1057.5,-214.5"/>
<text text-anchor="middle" x="1101.88" y="-191.2" font-family="Times New Roman,serif" font-size="14.00">Snatch Press</text>
</a>
</g>
</g>
<!-- mov_66_snatch&#45;&gt;mov_69_snatchpress -->
<g id="edge29" class="edge">
<title>mov_66_snatch&#45;&gt;mov_69_snatchpress</title>
<path fill="none" stroke="black" d="M1087.12,-253.01C1087.12,-245 1087.12,-235.27 1087.12,-226.2"/>
<polygon fill="black" stroke="black" points="1090.63,-226.38 1087.13,-216.38 1083.63,-226.38 1090.63,-226.38"/>
</g>
<!-- mov_68_dblclean2squat -->
<g id="node21" class="node">
<title>mov_68_dblclean2squat</title>
<g id="a_node21"><a xlink:href="https://www.youtube.com/watch?v=R3s6Wb_ApHM" xlink:title="{{68|Double Clean\nto Front Squat}}">
<path fill="#ffff99" stroke="#b15928" d="M551.5,-345.75C551.5,-345.75 654.75,-345.75 654.75,-345.75 660.75,-345.75 666.75,-351.75 666.75,-357.75 666.75,-357.75 666.75,-373.25 666.75,-373.25 666.75,-379.25 660.75,-385.25 654.75,-385.25 654.75,-385.25 551.5,-385.25 551.5,-385.25 545.5,-385.25 539.5,-379.25 539.5,-373.25 539.5,-373.25 539.5,-357.75 539.5,-357.75 539.5,-351.75 545.5,-345.75 551.5,-345.75"/>
<text text-anchor="middle" x="554.25" y="-360.07" font-family="Times New Roman,serif" font-size="14.00">68</text>
<polyline fill="none" stroke="#b15928" points="569,-345.75 569,-385.25"/>
<text text-anchor="middle" x="617.88" y="-367.95" font-family="Times New Roman,serif" font-size="14.00">Double Clean</text>
<text text-anchor="middle" x="617.88" y="-352.2" font-family="Times New Roman,serif" font-size="14.00">to Front Squat</text>
</a>
</g>
</g>
<!-- mov_67_dblsquat&#45;&gt;mov_68_dblclean2squat -->
<g id="edge20" class="edge">
<title>mov_67_dblsquat&#45;&gt;mov_68_dblclean2squat</title>
<path fill="none" stroke="black" d="M657.04,-439.64C647.46,-426.65 634.64,-409.25 623.9,-394.68"/>
<polygon fill="black" stroke="black" points="626.85,-392.78 618.09,-386.81 621.21,-396.93 626.85,-392.78"/>
</g>
<!-- mov_74_dblhangclean2squat -->
<g id="node26" class="node">
<title>mov_74_dblhangclean2squat</title>
<g id="a_node26"><a xlink:href="https://www.youtube.com/watch?v=SdPEkv56Lt8" xlink:title="{{74|Double Hang Clean\nTo Squat}}">
<path fill="#ffff99" stroke="#b15928" d="M433,-251.5C433,-251.5 563.25,-251.5 563.25,-251.5 569.25,-251.5 575.25,-257.5 575.25,-263.5 575.25,-263.5 575.25,-279 575.25,-279 575.25,-285 569.25,-291 563.25,-291 563.25,-291 433,-291 433,-291 427,-291 421,-285 421,-279 421,-279 421,-263.5 421,-263.5 421,-257.5 427,-251.5 433,-251.5"/>
<text text-anchor="middle" x="435.75" y="-265.82" font-family="Times New Roman,serif" font-size="14.00">74</text>
<polyline fill="none" stroke="#b15928" points="450.5,-251.5 450.5,-291"/>
<text text-anchor="middle" x="512.88" y="-273.7" font-family="Times New Roman,serif" font-size="14.00">Double Hang Clean</text>
<text text-anchor="middle" x="512.88" y="-257.95" font-family="Times New Roman,serif" font-size="14.00">To Squat</text>
</a>
</g>
</g>
<!-- mov_68_dblclean2squat&#45;&gt;mov_74_dblhangclean2squat -->
<g id="edge24" class="edge">
<title>mov_68_dblclean2squat&#45;&gt;mov_74_dblhangclean2squat</title>
<path fill="none" stroke="black" d="M581.37,-345.39C566.02,-331.9 545.27,-313.67 528.32,-298.78"/>
<polygon fill="black" stroke="black" points="530.81,-296.31 520.99,-292.34 526.19,-301.57 530.81,-296.31"/>
</g>
<!-- mov_78_dblcleansqpress -->
<g id="node30" class="node">
<title>mov_78_dblcleansqpress</title>
<g id="a_node30"><a xlink:href="https://www.youtube.com/watch?v=fWPDPBliCEk" xlink:title="{{78|Double Clean Squat Press}}">
<path fill="#ffff99" stroke="#b15928" d="M605.25,-253.25C605.25,-253.25 773,-253.25 773,-253.25 779,-253.25 785,-259.25 785,-265.25 785,-265.25 785,-277.25 785,-277.25 785,-283.25 779,-289.25 773,-289.25 773,-289.25 605.25,-289.25 605.25,-289.25 599.25,-289.25 593.25,-283.25 593.25,-277.25 593.25,-277.25 593.25,-265.25 593.25,-265.25 593.25,-259.25 599.25,-253.25 605.25,-253.25"/>
<text text-anchor="middle" x="608" y="-265.95" font-family="Times New Roman,serif" font-size="14.00">78</text>
<polyline fill="none" stroke="#b15928" points="622.75,-253.5 622.75,-289.25"/>
<text text-anchor="middle" x="703.88" y="-265.95" font-family="Times New Roman,serif" font-size="14.00">Double Clean Squat Press</text>
</a>
</g>
</g>
<!-- mov_68_dblclean2squat&#45;&gt;mov_78_dblcleansqpress -->
<g id="edge26" class="edge">
<title>mov_68_dblclean2squat&#45;&gt;mov_78_dblcleansqpress</title>
<path fill="none" stroke="black" d="M620.94,-345.39C633.78,-331.62 651.23,-312.9 665.26,-297.85"/>
<polygon fill="black" stroke="black" points="667.78,-300.28 672.04,-290.58 662.66,-295.51 667.78,-300.28"/>
</g>
<!-- mov_79_kneelsnatchdown -->
<g id="node31" class="node">
<title>mov_79_kneelsnatchdown</title>
<g id="a_node31"><a xlink:href="https://www.youtube.com/watch?v=okO-7womT5Q" xlink:title="{{79|Half&#45;Kneeling Snatch Down}|KB CLOSE TO BODY}">
<path fill="#ffff99" stroke="#b15928" d="M906.75,-341.75C906.75,-341.75 1083.5,-341.75 1083.5,-341.75 1089.5,-341.75 1095.5,-347.75 1095.5,-353.75 1095.5,-353.75 1095.5,-377.25 1095.5,-377.25 1095.5,-383.25 1089.5,-389.25 1083.5,-389.25 1083.5,-389.25 906.75,-389.25 906.75,-389.25 900.75,-389.25 894.75,-383.25 894.75,-377.25 894.75,-377.25 894.75,-353.75 894.75,-353.75 894.75,-347.75 900.75,-341.75 906.75,-341.75"/>
<text text-anchor="middle" x="909.5" y="-371.95" font-family="Times New Roman,serif" font-size="14.00">79</text>
<polyline fill="none" stroke="#b15928" points="924.25,-365.5 924.25,-389.25"/>
<text text-anchor="middle" x="1009.88" y="-371.95" font-family="Times New Roman,serif" font-size="14.00">Half&#45;Kneeling Snatch Down</text>
<polyline fill="none" stroke="#b15928" points="894.75,-365.5 1095.5,-365.5"/>
<text text-anchor="middle" x="995.12" y="-348.2" font-family="Times New Roman,serif" font-size="14.00">KB CLOSE TO BODY</text>
</a>
</g>
</g>
<!-- mov_70_kneelsnatchup&#45;&gt;mov_79_kneelsnatchdown -->
<g id="edge30" class="edge">
<title>mov_70_kneelsnatchup&#45;&gt;mov_79_kneelsnatchdown</title>
<path fill="none" stroke="black" d="M988.63,-441.4C989.62,-429.98 990.95,-414.65 992.15,-400.83"/>
<polygon fill="black" stroke="black" points="995.61,-401.47 992.98,-391.2 988.63,-400.86 995.61,-401.47"/>
</g>
<!-- mov_75_2hssldl -->
<g id="node27" class="node">
<title>mov_75_2hssldl</title>
<g id="a_node27"><a xlink:href="https://www.youtube.com/watch?v=tMt2hzfFGzo" xlink:title="{{75|Two Hand Single\nStraight Leg Deadlift}}">
<path fill="#ffff99" stroke="#b15928" d="M158,-719.75C158,-719.75 294.25,-719.75 294.25,-719.75 300.25,-719.75 306.25,-725.75 306.25,-731.75 306.25,-731.75 306.25,-747.25 306.25,-747.25 306.25,-753.25 300.25,-759.25 294.25,-759.25 294.25,-759.25 158,-759.25 158,-759.25 152,-759.25 146,-753.25 146,-747.25 146,-747.25 146,-731.75 146,-731.75 146,-725.75 152,-719.75 158,-719.75"/>
<text text-anchor="middle" x="160.75" y="-734.08" font-family="Times New Roman,serif" font-size="14.00">75</text>
<polyline fill="none" stroke="#b15928" points="175.5,-719.75 175.5,-759.25"/>
<text text-anchor="middle" x="240.88" y="-741.95" font-family="Times New Roman,serif" font-size="14.00">Two Hand Single</text>
<text text-anchor="middle" x="240.88" y="-726.2" font-family="Times New Roman,serif" font-size="14.00">Straight Leg Deadlift</text>
</a>
</g>
</g>
<!-- mov_73_2hsbldl&#45;&gt;mov_75_2hssldl -->
<g id="edge13" class="edge">
<title>mov_73_2hsbldl&#45;&gt;mov_75_2hssldl</title>
<path fill="none" stroke="black" d="M229.09,-795.81C228.69,-788.25 228.21,-779.38 227.76,-770.99"/>
<polygon fill="black" stroke="black" points="231.26,-770.93 227.23,-761.13 224.27,-771.31 231.26,-770.93"/>
</g>
<!-- mov_77_shsldl -->
<g id="node29" class="node">
<title>mov_77_shsldl</title>
<g id="a_node29"><a xlink:href="https://www.youtube.com/watch?v=1K4hgXfUinU" xlink:title="{{77|Single Hand\nSingle Leg Deadlift}|ONE&#45;SIDE BALANCE}">
<path fill="#ffff99" stroke="#b15928" d="M162.5,-619.5C162.5,-619.5 289.75,-619.5 289.75,-619.5 295.75,-619.5 301.75,-625.5 301.75,-631.5 301.75,-631.5 301.75,-670.75 301.75,-670.75 301.75,-676.75 295.75,-682.75 289.75,-682.75 289.75,-682.75 162.5,-682.75 162.5,-682.75 156.5,-682.75 150.5,-676.75 150.5,-670.75 150.5,-670.75 150.5,-631.5 150.5,-631.5 150.5,-625.5 156.5,-619.5 162.5,-619.5"/>
<text text-anchor="middle" x="165.25" y="-657.58" font-family="Times New Roman,serif" font-size="14.00">77</text>
<polyline fill="none" stroke="#b15928" points="180,-643.25 180,-682.75"/>
<text text-anchor="middle" x="240.88" y="-665.45" font-family="Times New Roman,serif" font-size="14.00">Single Hand</text>
<text text-anchor="middle" x="240.88" y="-649.7" font-family="Times New Roman,serif" font-size="14.00">Single Leg Deadlift</text>
<polyline fill="none" stroke="#b15928" points="150.5,-643.25 301.75,-643.25"/>
<text text-anchor="middle" x="226.12" y="-625.95" font-family="Times New Roman,serif" font-size="14.00">ONE&#45;SIDE BALANCE</text>
</a>
</g>
</g>
<!-- mov_75_2hssldl&#45;&gt;mov_77_shsldl -->
<g id="edge14" class="edge">
<title>mov_75_2hssldl&#45;&gt;mov_77_shsldl</title>
<path fill="none" stroke="black" d="M226.12,-719.33C226.12,-711.94 226.12,-703.16 226.12,-694.44"/>
<polygon fill="black" stroke="black" points="229.63,-694.63 226.13,-684.63 222.63,-694.63 229.63,-694.63"/>
</g>
<!-- mov_79_kneelsnatchdown&#45;&gt;mov_66_snatch -->
<g id="edge31" class="edge">
<title>mov_79_kneelsnatchdown&#45;&gt;mov_66_snatch</title>
<path fill="none" stroke="black" d="M1017.87,-341.7C1031.17,-328.35 1048.01,-311.48 1061.74,-297.7"/>
<polygon fill="black" stroke="black" points="1064.19,-300.21 1068.77,-290.65 1059.23,-295.26 1064.19,-300.21"/>
</g>
<!-- Legend -->
<g id="node32" class="node">
<title>Legend</title>
<path fill="#ffff99" stroke="none" d="M1443.62,-403.5C1443.62,-403.5 1274.62,-403.5 1274.62,-403.5 1268.62,-403.5 1262.62,-397.5 1262.62,-391.5 1262.62,-391.5 1262.62,-339.5 1262.62,-339.5 1262.62,-333.5 1268.62,-327.5 1274.62,-327.5 1274.62,-327.5 1443.62,-327.5 1443.62,-327.5 1449.62,-327.5 1455.62,-333.5 1455.62,-339.5 1455.62,-339.5 1455.62,-391.5 1455.62,-391.5 1455.62,-397.5 1449.62,-403.5 1443.62,-403.5"/>
<polygon fill="none" stroke="#b15928" points="1262.62,-377.5 1262.62,-403.5 1455.62,-403.5 1455.62,-377.5 1262.62,-377.5"/>
<text text-anchor="start" x="1336.62" y="-386.2" font-family="Times New Roman,serif" font-weight="bold" font-size="14.00">Legend</text>
<polygon fill="none" stroke="#b15928" points="1262.62,-352.5 1262.62,-377.5 1427.62,-377.5 1427.62,-352.5 1262.62,-352.5"/>
<text text-anchor="start" x="1267.5" y="-359.2" font-family="Times New Roman,serif" font-size="14.00">Prerequisites and next steps</text>
<polygon fill="#a6cee3" stroke="none" points="1427.62,-352.5 1427.62,-377.5 1455.62,-377.5 1455.62,-352.5 1427.62,-352.5"/>
<polygon fill="none" stroke="#b15928" points="1427.62,-352.5 1427.62,-377.5 1455.62,-377.5 1455.62,-352.5 1427.62,-352.5"/>
<text text-anchor="start" x="1432.25" y="-359.2" font-family="Times New Roman,serif" font-size="14.00">     </text>
<polygon fill="none" stroke="#b15928" points="1262.62,-327.5 1262.62,-352.5 1427.62,-352.5 1427.62,-327.5 1262.62,-327.5"/>
<text text-anchor="start" x="1330.5" y="-334.2" font-family="Times New Roman,serif" font-size="14.00">Drills</text>
<polygon fill="#ffff99" stroke="none" points="1427.62,-327.5 1427.62,-352.5 1455.62,-352.5 1455.62,-327.5 1427.62,-327.5"/>
<polygon fill="none" stroke="#b15928" points="1427.62,-327.5 1427.62,-352.5 1455.62,-352.5 1455.62,-327.5 1427.62,-327.5"/>
</g>
</g>
</svg>
