<?xml version="1.0" encoding="UTF-8" standalone="no"?>
<!DOCTYPE svg PUBLIC "-//W3C//DTD SVG 1.1//EN"
 "http://www.w3.org/Graphics/SVG/1.1/DTD/svg11.dtd">
<!-- Generated by graphviz version 9.0.0 (20230911.1827)
 -->
<!-- Title: kb_progression Pages: 1 -->
<svg width="1668pt" height="763pt"
 viewBox="0.00 0.00 1668.00 762.50" xmlns="http://www.w3.org/2000/svg" xmlns:xlink="http://www.w3.org/1999/xlink">
<g id="graph0" class="graph" transform="scale(1 1) rotate(0) translate(4 758.5)">
<title>kb_progression</title>
<polygon fill="white" stroke="none" points="-4,4 -4,-758.5 1664,-758.5 1664,4 -4,4"/>
<text text-anchor="start" x="1260.5" y="-145.7" font-family="Helvetica,Arial,sans-serif" font-weight="bold" font-size="14.00">Kettlebell Basic Skill Progression &#45; Part 3/4</text>
<text text-anchor="start" x="1260.5" y="-117.7" font-family="Helvetica,Arial,sans-serif" font-size="14.00">Diagram by dznz based on Mark Wildman&#39;s teachings.</text>
<text text-anchor="start" x="1260.5" y="-89.7" font-family="Helvetica,Arial,sans-serif" font-size="14.00">Source: </text>
<text text-anchor="start" x="1313.75" y="-89.7" font-family="Helvetica,Arial,sans-serif" font-weight="bold" font-size="14.00">https://github.com/dznz/wildman&#45;skill&#45;trees</text>
<text text-anchor="start" x="1260.5" y="-61.7" font-family="Helvetica,Arial,sans-serif" font-size="14.00">More by Mark Wildman &#45; </text>
<text text-anchor="start" x="1416.5" y="-61.7" font-family="Helvetica,Arial,sans-serif" font-weight="bold" font-size="14.00">https://www.wildmanathletica.com</text>
<text text-anchor="start" x="1260.5" y="-33.7" font-family="Helvetica,Arial,sans-serif" font-style="italic" font-size="14.00">© 2023. This work is openly licensed with CC BY&#45;NC&#45;SA 4.0</text>
<text text-anchor="start" x="1328.75" y="-19.7" font-family="Helvetica,Arial,sans-serif" font-style="italic" font-size="14.00">http://creativecommons.org/licenses/by&#45;nc&#45;sa/4.0/</text>
<text text-anchor="start" x="1452.5" y="-5.7" font-family="Helvetica,Arial,sans-serif" font-size="14.00"> &#160;</text>
<g id="clust2" class="cluster">
<title>cluster_squat</title>
<polygon fill="none" stroke="black" points="8,-170 8,-459.75 1323,-459.75 1323,-170 8,-170"/>
<text text-anchor="middle" x="1264.75" y="-442.45" font-family="Helvetica,Arial,sans-serif" font-size="14.00">Squats &amp; Getup</text>
</g>
<!-- ext_bw_squat -->
<g id="node1" class="node">
<title>ext_bw_squat</title>
<path fill="#a6cee3" stroke="#1f78b4" d="M58.62,-468.25C58.62,-468.25 121.38,-468.25 121.38,-468.25 127.38,-468.25 133.38,-474.25 133.38,-480.25 133.38,-480.25 133.38,-492.25 133.38,-492.25 133.38,-498.25 127.38,-504.25 121.38,-504.25 121.38,-504.25 58.62,-504.25 58.62,-504.25 52.62,-504.25 46.62,-498.25 46.62,-492.25 46.62,-492.25 46.62,-480.25 46.62,-480.25 46.62,-474.25 52.62,-468.25 58.62,-468.25"/>
<text text-anchor="middle" x="65.88" y="-480.95" font-family="Times New Roman,serif" font-size="14.00">BW</text>
<polyline fill="none" stroke="#1f78b4" points="85.12,-468.5 85.12,-504.25"/>
<text text-anchor="middle" x="109.25" y="-480.95" font-family="Times New Roman,serif" font-size="14.00">Squat</text>
</g>
<!-- mov_51_fourcountsquat -->
<g id="node18" class="node">
<title>mov_51_fourcountsquat</title>
<g id="a_node18"><a xlink:href="https://www.youtube.com/watch?v=1rkGfL1EdWI" xlink:title="{{51|Four&#45;Count Squat\n(Bodyweight)}}">
<path fill="#ffff99" stroke="#b15928" d="M28.25,-375.38C28.25,-375.38 151.75,-375.38 151.75,-375.38 157.75,-375.38 163.75,-381.38 163.75,-387.38 163.75,-387.38 163.75,-402.88 163.75,-402.88 163.75,-408.88 157.75,-414.88 151.75,-414.88 151.75,-414.88 28.25,-414.88 28.25,-414.88 22.25,-414.88 16.25,-408.88 16.25,-402.88 16.25,-402.88 16.25,-387.38 16.25,-387.38 16.25,-381.38 22.25,-375.38 28.25,-375.38"/>
<text text-anchor="middle" x="31" y="-389.7" font-family="Times New Roman,serif" font-size="14.00">51</text>
<polyline fill="none" stroke="#b15928" points="45.75,-375.38 45.75,-414.88"/>
<text text-anchor="middle" x="104.75" y="-397.57" font-family="Times New Roman,serif" font-size="14.00">Four&#45;Count Squat</text>
<text text-anchor="middle" x="104.75" y="-381.82" font-family="Times New Roman,serif" font-size="14.00">(Bodyweight)</text>
</a>
</g>
</g>
<!-- ext_bw_squat&#45;&gt;mov_51_fourcountsquat -->
<g id="edge1" class="edge">
<title>ext_bw_squat&#45;&gt;mov_51_fourcountsquat</title>
<path fill="none" stroke="black" d="M90,-468.07C90,-456.33 90,-440.45 90,-426.6"/>
<polygon fill="black" stroke="black" points="93.5,-426.62 90,-416.62 86.5,-426.62 93.5,-426.62"/>
</g>
<!-- ext_bw_altshinbox -->
<g id="node2" class="node">
<title>ext_bw_altshinbox</title>
<path fill="#a6cee3" stroke="#1f78b4" d="M202.75,-468.25C202.75,-468.25 305.25,-468.25 305.25,-468.25 311.25,-468.25 317.25,-474.25 317.25,-480.25 317.25,-480.25 317.25,-492.25 317.25,-492.25 317.25,-498.25 311.25,-504.25 305.25,-504.25 305.25,-504.25 202.75,-504.25 202.75,-504.25 196.75,-504.25 190.75,-498.25 190.75,-492.25 190.75,-492.25 190.75,-480.25 190.75,-480.25 190.75,-474.25 196.75,-468.25 202.75,-468.25"/>
<text text-anchor="middle" x="210" y="-480.95" font-family="Times New Roman,serif" font-size="14.00">BW</text>
<polyline fill="none" stroke="#1f78b4" points="229.25,-468.5 229.25,-504.25"/>
<text text-anchor="middle" x="273.25" y="-480.95" font-family="Times New Roman,serif" font-size="14.00">Alt Shin Box</text>
</g>
<!-- mov_52_rackaltshinbox -->
<g id="node19" class="node">
<title>mov_52_rackaltshinbox</title>
<g id="a_node19"><a xlink:href="https://www.youtube.com/watch?v=AoEYX36Q2Zg" xlink:title="{{52|Rack Alt Shinbox}}">
<path fill="#ffff99" stroke="#b15928" d="M193.38,-377.12C193.38,-377.12 314.62,-377.12 314.62,-377.12 320.62,-377.12 326.62,-383.12 326.62,-389.12 326.62,-389.12 326.62,-401.12 326.62,-401.12 326.62,-407.12 320.62,-413.12 314.62,-413.12 314.62,-413.12 193.38,-413.12 193.38,-413.12 187.38,-413.12 181.38,-407.12 181.38,-401.12 181.38,-401.12 181.38,-389.12 181.38,-389.12 181.38,-383.12 187.38,-377.12 193.38,-377.12"/>
<text text-anchor="middle" x="196.12" y="-389.82" font-family="Times New Roman,serif" font-size="14.00">52</text>
<polyline fill="none" stroke="#b15928" points="210.88,-377.38 210.88,-413.12"/>
<text text-anchor="middle" x="268.75" y="-389.82" font-family="Times New Roman,serif" font-size="14.00">Rack Alt Shinbox</text>
</a>
</g>
</g>
<!-- ext_bw_altshinbox&#45;&gt;mov_52_rackaltshinbox -->
<g id="edge2" class="edge">
<title>ext_bw_altshinbox&#45;&gt;mov_52_rackaltshinbox</title>
<path fill="none" stroke="black" d="M254,-468.07C254,-455.82 254,-439.06 254,-424.8"/>
<polygon fill="black" stroke="black" points="257.5,-425.07 254,-415.07 250.5,-425.07 257.5,-425.07"/>
</g>
<!-- mov_12_clean -->
<g id="node3" class="node">
<title>mov_12_clean</title>
<g id="a_node3"><a xlink:href="https://www.youtube.com/watch?v=_nIsSXWs5iU&amp;list=PLk4oYPJ7TXKhX8YqA2AVrfgs_pEF6p7KA&amp;index=12" xlink:title="KB&#45;12|Swing Clean">
<path fill="#a6cee3" stroke="#1f78b4" d="M1414.75,-718C1414.75,-718 1529.25,-718 1529.25,-718 1535.25,-718 1541.25,-724 1541.25,-730 1541.25,-730 1541.25,-742 1541.25,-742 1541.25,-748 1535.25,-754 1529.25,-754 1529.25,-754 1414.75,-754 1414.75,-754 1408.75,-754 1402.75,-748 1402.75,-742 1402.75,-742 1402.75,-730 1402.75,-730 1402.75,-724 1408.75,-718 1414.75,-718"/>
<text text-anchor="middle" x="1429.12" y="-730.58" font-family="Times New Roman,serif" font-size="14.00">KB&#45;12</text>
<polyline fill="none" stroke="#1f78b4" points="1455.5,-718 1455.5,-754"/>
<text text-anchor="middle" x="1498.38" y="-730.58" font-family="Times New Roman,serif" font-size="14.00">Swing Clean</text>
</a>
</g>
</g>
<!-- mov_17_cap -->
<g id="node4" class="node">
<title>mov_17_cap</title>
<g id="a_node4"><a xlink:href="https://www.youtube.com/watch?v=SSxB3m5qRas&amp;list=PLk4oYPJ7TXKhX8YqA2AVrfgs_pEF6p7KA&amp;index=17" xlink:title="KB&#45;17|Clean &amp; Press">
<path fill="#a6cee3" stroke="#1f78b4" d="M1316.12,-643.25C1316.12,-643.25 1441.88,-643.25 1441.88,-643.25 1447.88,-643.25 1453.88,-649.25 1453.88,-655.25 1453.88,-655.25 1453.88,-667.25 1453.88,-667.25 1453.88,-673.25 1447.88,-679.25 1441.88,-679.25 1441.88,-679.25 1316.12,-679.25 1316.12,-679.25 1310.12,-679.25 1304.12,-673.25 1304.12,-667.25 1304.12,-667.25 1304.12,-655.25 1304.12,-655.25 1304.12,-649.25 1310.12,-643.25 1316.12,-643.25"/>
<text text-anchor="middle" x="1330.5" y="-655.83" font-family="Times New Roman,serif" font-size="14.00">KB&#45;17</text>
<polyline fill="none" stroke="#1f78b4" points="1356.88,-643.25 1356.88,-679.25"/>
<text text-anchor="middle" x="1405.38" y="-655.83" font-family="Times New Roman,serif" font-size="14.00">Clean &amp; Press</text>
</a>
</g>
</g>
<!-- mov_12_clean&#45;&gt;mov_17_cap -->
<g id="edge5" class="edge">
<title>mov_12_clean&#45;&gt;mov_17_cap</title>
<path fill="none" stroke="black" d="M1449.96,-717.76C1438,-708.41 1423.03,-696.69 1409.92,-686.44"/>
<polygon fill="black" stroke="black" points="1412.43,-683.96 1402.4,-680.55 1408.12,-689.47 1412.43,-683.96"/>
</g>
<!-- mov_50_2hdeadclean2rack -->
<g id="node17" class="node">
<title>mov_50_2hdeadclean2rack</title>
<g id="a_node17"><a xlink:href="https://www.youtube.com/watch?v=acqKxfMGAbk&amp;list=PLk4oYPJ7TXKhX8YqA2AVrfgs_pEF6p7KA&amp;index=55" xlink:title="{{50|Two&#45;Handed Dead Clean\nto Double Front Rack}}">
<path fill="#ffff99" stroke="#b15928" d="M1484,-641.5C1484,-641.5 1648,-641.5 1648,-641.5 1654,-641.5 1660,-647.5 1660,-653.5 1660,-653.5 1660,-669 1660,-669 1660,-675 1654,-681 1648,-681 1648,-681 1484,-681 1484,-681 1478,-681 1472,-675 1472,-669 1472,-669 1472,-653.5 1472,-653.5 1472,-647.5 1478,-641.5 1484,-641.5"/>
<text text-anchor="middle" x="1486.75" y="-655.83" font-family="Times New Roman,serif" font-size="14.00">50</text>
<polyline fill="none" stroke="#b15928" points="1501.5,-641.5 1501.5,-681"/>
<text text-anchor="middle" x="1580.75" y="-663.7" font-family="Times New Roman,serif" font-size="14.00">Two&#45;Handed Dead Clean</text>
<text text-anchor="middle" x="1580.75" y="-647.95" font-family="Times New Roman,serif" font-size="14.00">to Double Front Rack</text>
</a>
</g>
</g>
<!-- mov_12_clean&#45;&gt;mov_50_2hdeadclean2rack -->
<g id="edge4" class="edge">
<title>mov_12_clean&#45;&gt;mov_50_2hdeadclean2rack</title>
<path fill="none" stroke="black" d="M1494.28,-717.76C1505.64,-708.97 1519.69,-698.09 1532.33,-688.3"/>
<polygon fill="black" stroke="black" points="1534.27,-691.23 1540.04,-682.34 1529.99,-685.69 1534.27,-691.23"/>
</g>
<!-- mov_19_startstopcap -->
<g id="node5" class="node">
<title>mov_19_startstopcap</title>
<g id="a_node5"><a xlink:href="https://www.youtube.com/watch?v=dSj3kqbuois&amp;list=PLk4oYPJ7TXKhX8YqA2AVrfgs_pEF6p7KA&amp;index=19" xlink:title="{{KB&#45;19|Start Stop\nClean &amp; Press}|START &amp; END C&amp;P}">
<path fill="#a6cee3" stroke="#1f78b4" d="M1316.12,-541.25C1316.12,-541.25 1441.88,-541.25 1441.88,-541.25 1447.88,-541.25 1453.88,-547.25 1453.88,-553.25 1453.88,-553.25 1453.88,-592.5 1453.88,-592.5 1453.88,-598.5 1447.88,-604.5 1441.88,-604.5 1441.88,-604.5 1316.12,-604.5 1316.12,-604.5 1310.12,-604.5 1304.12,-598.5 1304.12,-592.5 1304.12,-592.5 1304.12,-553.25 1304.12,-553.25 1304.12,-547.25 1310.12,-541.25 1316.12,-541.25"/>
<text text-anchor="middle" x="1330.5" y="-579.33" font-family="Times New Roman,serif" font-size="14.00">KB&#45;19</text>
<polyline fill="none" stroke="#1f78b4" points="1356.88,-565 1356.88,-604.5"/>
<text text-anchor="middle" x="1405.38" y="-587.2" font-family="Times New Roman,serif" font-size="14.00">Start Stop</text>
<text text-anchor="middle" x="1405.38" y="-571.45" font-family="Times New Roman,serif" font-size="14.00">Clean &amp; Press</text>
<polyline fill="none" stroke="#1f78b4" points="1304.12,-565 1453.88,-565"/>
<text text-anchor="middle" x="1379" y="-547.7" font-family="Times New Roman,serif" font-size="14.00">START &amp; END C&amp;P</text>
</a>
</g>
</g>
<!-- mov_17_cap&#45;&gt;mov_19_startstopcap -->
<g id="edge6" class="edge">
<title>mov_17_cap&#45;&gt;mov_19_startstopcap</title>
<path fill="none" stroke="black" d="M1379,-642.77C1379,-635.06 1379,-625.63 1379,-616.25"/>
<polygon fill="black" stroke="black" points="1382.5,-616.47 1379,-606.47 1375.5,-616.47 1382.5,-616.47"/>
</g>
<!-- mov_44_pushpress -->
<g id="node12" class="node">
<title>mov_44_pushpress</title>
<g id="a_node12"><a xlink:href="https://www.youtube.com/watch?v=KTDVl0Lkdc4&amp;list=PLk4oYPJ7TXKhX8YqA2AVrfgs_pEF6p7KA&amp;index=49" xlink:title="{{44|Push Press}}">
<path fill="#ffff99" stroke="#b15928" d="M1337.12,-468.25C1337.12,-468.25 1420.88,-468.25 1420.88,-468.25 1426.88,-468.25 1432.88,-474.25 1432.88,-480.25 1432.88,-480.25 1432.88,-492.25 1432.88,-492.25 1432.88,-498.25 1426.88,-504.25 1420.88,-504.25 1420.88,-504.25 1337.12,-504.25 1337.12,-504.25 1331.12,-504.25 1325.12,-498.25 1325.12,-492.25 1325.12,-492.25 1325.12,-480.25 1325.12,-480.25 1325.12,-474.25 1331.12,-468.25 1337.12,-468.25"/>
<text text-anchor="middle" x="1339.88" y="-480.95" font-family="Times New Roman,serif" font-size="14.00">44</text>
<polyline fill="none" stroke="#b15928" points="1354.62,-468.5 1354.62,-504.25"/>
<text text-anchor="middle" x="1393.75" y="-480.95" font-family="Times New Roman,serif" font-size="14.00">Push Press</text>
</a>
</g>
</g>
<!-- mov_19_startstopcap&#45;&gt;mov_44_pushpress -->
<g id="edge7" class="edge">
<title>mov_19_startstopcap&#45;&gt;mov_44_pushpress</title>
<path fill="none" stroke="black" d="M1379,-540.84C1379,-532.7 1379,-523.95 1379,-515.94"/>
<polygon fill="black" stroke="black" points="1382.5,-516.02 1379,-506.02 1375.5,-516.02 1382.5,-516.02"/>
</g>
<!-- mov_22_gobsquathalo -->
<g id="node6" class="node">
<title>mov_22_gobsquathalo</title>
<g id="a_node6"><a xlink:href="https://www.youtube.com/watch?v=cnZ8Mx8NQPE&amp;list=PLk4oYPJ7TXKhX8YqA2AVrfgs_pEF6p7KA&amp;index=22" xlink:title="{{22|Goblet Squat\nwith Halo}|FULL DEPTH}">
<path fill="#a6cee3" stroke="#1f78b4" d="M549.12,-541.25C549.12,-541.25 644.88,-541.25 644.88,-541.25 650.88,-541.25 656.88,-547.25 656.88,-553.25 656.88,-553.25 656.88,-592.5 656.88,-592.5 656.88,-598.5 650.88,-604.5 644.88,-604.5 644.88,-604.5 549.12,-604.5 549.12,-604.5 543.12,-604.5 537.12,-598.5 537.12,-592.5 537.12,-592.5 537.12,-553.25 537.12,-553.25 537.12,-547.25 543.12,-541.25 549.12,-541.25"/>
<text text-anchor="middle" x="551.88" y="-579.33" font-family="Times New Roman,serif" font-size="14.00">22</text>
<polyline fill="none" stroke="#1f78b4" points="566.62,-565 566.62,-604.5"/>
<text text-anchor="middle" x="611.75" y="-587.2" font-family="Times New Roman,serif" font-size="14.00">Goblet Squat</text>
<text text-anchor="middle" x="611.75" y="-571.45" font-family="Times New Roman,serif" font-size="14.00">with Halo</text>
<polyline fill="none" stroke="#1f78b4" points="537.12,-565 656.88,-565"/>
<text text-anchor="middle" x="597" y="-547.7" font-family="Times New Roman,serif" font-size="14.00">FULL DEPTH</text>
</a>
</g>
</g>
<!-- mov_23_racksquat -->
<g id="node7" class="node">
<title>mov_23_racksquat</title>
<g id="a_node7"><a xlink:href="https://www.youtube.com/watch?v=KTDVl0Lkdc4&amp;list=PLk4oYPJ7TXKhX8YqA2AVrfgs_pEF6p7KA&amp;index=23" xlink:title="{{KB&#45;23|Single&#45;Bell Front Squat}}">
<path fill="#a6cee3" stroke="#1f78b4" d="M843.75,-468.25C843.75,-468.25 1018.25,-468.25 1018.25,-468.25 1024.25,-468.25 1030.25,-474.25 1030.25,-480.25 1030.25,-480.25 1030.25,-492.25 1030.25,-492.25 1030.25,-498.25 1024.25,-504.25 1018.25,-504.25 1018.25,-504.25 843.75,-504.25 843.75,-504.25 837.75,-504.25 831.75,-498.25 831.75,-492.25 831.75,-492.25 831.75,-480.25 831.75,-480.25 831.75,-474.25 837.75,-468.25 843.75,-468.25"/>
<text text-anchor="middle" x="858.12" y="-480.95" font-family="Times New Roman,serif" font-size="14.00">KB&#45;23</text>
<polyline fill="none" stroke="#1f78b4" points="884.5,-468.5 884.5,-504.25"/>
<text text-anchor="middle" x="957.38" y="-480.95" font-family="Times New Roman,serif" font-size="14.00">Single&#45;Bell Front Squat</text>
</a>
</g>
</g>
<!-- mov_22_gobsquathalo&#45;&gt;mov_23_racksquat -->
<g id="edge3" class="edge">
<title>mov_22_gobsquathalo&#45;&gt;mov_23_racksquat</title>
<path fill="none" stroke="black" d="M657.1,-556.65C711.38,-542.9 791.65,-522.56 851.28,-507.45"/>
<polygon fill="black" stroke="black" points="851.86,-510.91 860.7,-505.06 850.14,-504.13 851.86,-510.91"/>
</g>
<!-- mov_45_gobsquatcurl -->
<g id="node13" class="node">
<title>mov_45_gobsquatcurl</title>
<g id="a_node13"><a xlink:href="https://www.youtube.com/watch?v=KTDVl0Lkdc4&amp;list=PLk4oYPJ7TXKhX8YqA2AVrfgs_pEF6p7KA&amp;index=50" xlink:title="{{45|Rock&#45;Bottom\nCurl with Goblet Squat}}">
<path fill="#ffff99" stroke="#b15928" d="M356.75,-375.38C356.75,-375.38 507.25,-375.38 507.25,-375.38 513.25,-375.38 519.25,-381.38 519.25,-387.38 519.25,-387.38 519.25,-402.88 519.25,-402.88 519.25,-408.88 513.25,-414.88 507.25,-414.88 507.25,-414.88 356.75,-414.88 356.75,-414.88 350.75,-414.88 344.75,-408.88 344.75,-402.88 344.75,-402.88 344.75,-387.38 344.75,-387.38 344.75,-381.38 350.75,-375.38 356.75,-375.38"/>
<text text-anchor="middle" x="359.5" y="-389.7" font-family="Times New Roman,serif" font-size="14.00">45</text>
<polyline fill="none" stroke="#b15928" points="374.25,-375.38 374.25,-414.88"/>
<text text-anchor="middle" x="446.75" y="-397.57" font-family="Times New Roman,serif" font-size="14.00">Rock&#45;Bottom</text>
<text text-anchor="middle" x="446.75" y="-381.82" font-family="Times New Roman,serif" font-size="14.00">Curl with Goblet Squat</text>
</a>
</g>
</g>
<!-- mov_22_gobsquathalo&#45;&gt;mov_45_gobsquatcurl -->
<g id="edge10" class="edge">
<title>mov_22_gobsquathalo&#45;&gt;mov_45_gobsquatcurl</title>
<path fill="none" stroke="black" d="M567.88,-540.86C536.59,-507.53 487.35,-455.08 457.53,-423.31"/>
<polygon fill="black" stroke="black" points="460.09,-420.93 450.7,-416.04 454.99,-425.72 460.09,-420.93"/>
</g>
<!-- mov_53_hornygobsquat -->
<g id="node20" class="node">
<title>mov_53_hornygobsquat</title>
<g id="a_node20"><a xlink:href="https://www.youtube.com/watch?v=i2AtDi4yZSA" xlink:title="{{53|Handle Up\nGoblet Squat}}">
<path fill="#ffff99" stroke="#b15928" d="M549.12,-375.38C549.12,-375.38 644.88,-375.38 644.88,-375.38 650.88,-375.38 656.88,-381.38 656.88,-387.38 656.88,-387.38 656.88,-402.88 656.88,-402.88 656.88,-408.88 650.88,-414.88 644.88,-414.88 644.88,-414.88 549.12,-414.88 549.12,-414.88 543.12,-414.88 537.12,-408.88 537.12,-402.88 537.12,-402.88 537.12,-387.38 537.12,-387.38 537.12,-381.38 543.12,-375.38 549.12,-375.38"/>
<text text-anchor="middle" x="551.88" y="-389.7" font-family="Times New Roman,serif" font-size="14.00">53</text>
<polyline fill="none" stroke="#b15928" points="566.62,-375.38 566.62,-414.88"/>
<text text-anchor="middle" x="611.75" y="-397.57" font-family="Times New Roman,serif" font-size="14.00">Handle Up</text>
<text text-anchor="middle" x="611.75" y="-381.82" font-family="Times New Roman,serif" font-size="14.00">Goblet Squat</text>
</a>
</g>
</g>
<!-- mov_22_gobsquathalo&#45;&gt;mov_53_hornygobsquat -->
<g id="edge11" class="edge">
<title>mov_22_gobsquathalo&#45;&gt;mov_53_hornygobsquat</title>
<path fill="none" stroke="black" d="M597,-540.86C597,-508.53 597,-458.2 597,-426.22"/>
<polygon fill="black" stroke="black" points="600.5,-426.45 597,-416.45 593.5,-426.45 600.5,-426.45"/>
</g>
<!-- mov_47_racksquatpickup -->
<g id="node14" class="node">
<title>mov_47_racksquatpickup</title>
<g id="a_node14"><a xlink:href="https://www.youtube.com/watch?v=KTDVl0Lkdc4&amp;list=PLk4oYPJ7TXKhX8YqA2AVrfgs_pEF6p7KA&amp;index=52" xlink:title="{{47|Rock&#45;Bottom\nFront Squat Pickup}|PAUSE AT BOTTOM}">
<path fill="#ffff99" stroke="#b15928" d="M865.5,-363.5C865.5,-363.5 996.5,-363.5 996.5,-363.5 1002.5,-363.5 1008.5,-369.5 1008.5,-375.5 1008.5,-375.5 1008.5,-414.75 1008.5,-414.75 1008.5,-420.75 1002.5,-426.75 996.5,-426.75 996.5,-426.75 865.5,-426.75 865.5,-426.75 859.5,-426.75 853.5,-420.75 853.5,-414.75 853.5,-414.75 853.5,-375.5 853.5,-375.5 853.5,-369.5 859.5,-363.5 865.5,-363.5"/>
<text text-anchor="middle" x="868.25" y="-401.57" font-family="Times New Roman,serif" font-size="14.00">47</text>
<polyline fill="none" stroke="#b15928" points="883,-387.25 883,-426.75"/>
<text text-anchor="middle" x="945.75" y="-409.45" font-family="Times New Roman,serif" font-size="14.00">Rock&#45;Bottom</text>
<text text-anchor="middle" x="945.75" y="-393.7" font-family="Times New Roman,serif" font-size="14.00">Front Squat Pickup</text>
<polyline fill="none" stroke="#b15928" points="853.5,-387.25 1008.5,-387.25"/>
<text text-anchor="middle" x="931" y="-369.95" font-family="Times New Roman,serif" font-size="14.00">PAUSE AT BOTTOM</text>
</a>
</g>
</g>
<!-- mov_23_racksquat&#45;&gt;mov_47_racksquatpickup -->
<g id="edge12" class="edge">
<title>mov_23_racksquat&#45;&gt;mov_47_racksquatpickup</title>
<path fill="none" stroke="black" d="M931,-468.07C931,-459.52 931,-448.79 931,-438.23"/>
<polygon fill="black" stroke="black" points="934.5,-438.48 931,-428.48 927.5,-438.48 934.5,-438.48"/>
</g>
<!-- mov_48_thruster -->
<g id="node15" class="node">
<title>mov_48_thruster</title>
<g id="a_node15"><a xlink:href="https://www.youtube.com/watch?v=KTDVl0Lkdc4&amp;list=PLk4oYPJ7TXKhX8YqA2AVrfgs_pEF6p7KA&amp;index=48" xlink:title="{{48|Thruster}}">
<path fill="#ffff99" stroke="#b15928" d="M1344.62,-377.12C1344.62,-377.12 1413.38,-377.12 1413.38,-377.12 1419.38,-377.12 1425.38,-383.12 1425.38,-389.12 1425.38,-389.12 1425.38,-401.12 1425.38,-401.12 1425.38,-407.12 1419.38,-413.12 1413.38,-413.12 1413.38,-413.12 1344.62,-413.12 1344.62,-413.12 1338.62,-413.12 1332.62,-407.12 1332.62,-401.12 1332.62,-401.12 1332.62,-389.12 1332.62,-389.12 1332.62,-383.12 1338.62,-377.12 1344.62,-377.12"/>
<text text-anchor="middle" x="1347.38" y="-389.82" font-family="Times New Roman,serif" font-size="14.00">48</text>
<polyline fill="none" stroke="#b15928" points="1362.12,-377.38 1362.12,-413.12"/>
<text text-anchor="middle" x="1393.75" y="-389.82" font-family="Times New Roman,serif" font-size="14.00">Thruster</text>
</a>
</g>
</g>
<!-- mov_23_racksquat&#45;&gt;mov_48_thruster -->
<g id="edge13" class="edge">
<title>mov_23_racksquat&#45;&gt;mov_48_thruster</title>
<path fill="none" stroke="black" d="M1030.57,-482.96C1139.25,-479.81 1301.31,-472.96 1327,-459.75 1342.72,-451.67 1355.41,-436.5 1364.31,-423"/>
<polygon fill="black" stroke="black" points="1367.05,-425.23 1369.32,-414.88 1361.09,-421.55 1367.05,-425.23"/>
</g>
<!-- mov_39_boxsquat2boat -->
<g id="node8" class="node">
<title>mov_39_boxsquat2boat</title>
<g id="a_node8"><a xlink:href="https://www.youtube.com/watch?v=KTDVl0Lkdc4&amp;list=PLk4oYPJ7TXKhX8YqA2AVrfgs_pEF6p7KA&amp;index=41" xlink:title="{{39|Box Squat to Boat Pose}}">
<path fill="#ffff99" stroke="#b15928" d="M518.38,-271C518.38,-271 675.62,-271 675.62,-271 681.62,-271 687.62,-277 687.62,-283 687.62,-283 687.62,-295 687.62,-295 687.62,-301 681.62,-307 675.62,-307 675.62,-307 518.38,-307 518.38,-307 512.38,-307 506.38,-301 506.38,-295 506.38,-295 506.38,-283 506.38,-283 506.38,-277 512.38,-271 518.38,-271"/>
<text text-anchor="middle" x="521.12" y="-283.7" font-family="Times New Roman,serif" font-size="14.00">39</text>
<polyline fill="none" stroke="#b15928" points="535.88,-271.25 535.88,-307"/>
<text text-anchor="middle" x="611.75" y="-283.7" font-family="Times New Roman,serif" font-size="14.00">Box Squat to Boat Pose</text>
</a>
</g>
</g>
<!-- mov_72_deck -->
<g id="node23" class="node">
<title>mov_72_deck</title>
<g id="a_node23"><a xlink:href="https://www.youtube.com/watch?v=vUJ3sZVwZ4Y" xlink:title="{{72|Deck Squat}}">
<path fill="#ffff99" stroke="#b15928" d="M898.62,-178.5C898.62,-178.5 985.38,-178.5 985.38,-178.5 991.38,-178.5 997.38,-184.5 997.38,-190.5 997.38,-190.5 997.38,-202.5 997.38,-202.5 997.38,-208.5 991.38,-214.5 985.38,-214.5 985.38,-214.5 898.62,-214.5 898.62,-214.5 892.62,-214.5 886.62,-208.5 886.62,-202.5 886.62,-202.5 886.62,-190.5 886.62,-190.5 886.62,-184.5 892.62,-178.5 898.62,-178.5"/>
<text text-anchor="middle" x="901.38" y="-191.2" font-family="Times New Roman,serif" font-size="14.00">72</text>
<polyline fill="none" stroke="#b15928" points="916.12,-178.75 916.12,-214.5"/>
<text text-anchor="middle" x="956.75" y="-191.2" font-family="Times New Roman,serif" font-size="14.00">Deck Squat</text>
</a>
</g>
</g>
<!-- mov_39_boxsquat2boat&#45;&gt;mov_72_deck -->
<g id="edge19" class="edge">
<title>mov_39_boxsquat2boat&#45;&gt;mov_72_deck</title>
<path fill="none" stroke="black" d="M663.52,-270.55C724.44,-254.57 814.16,-231.04 875.18,-215.03"/>
<polygon fill="black" stroke="black" points="875.97,-218.44 884.76,-212.52 874.2,-211.67 875.97,-218.44"/>
</g>
<!-- mov_40_bwspinalrock -->
<g id="node9" class="node">
<title>mov_40_bwspinalrock</title>
<g id="a_node9"><a xlink:href="https://www.youtube.com/watch?v=KTDVl0Lkdc4&amp;list=PLk4oYPJ7TXKhX8YqA2AVrfgs_pEF6p7KA&amp;index=42" xlink:title="{{40|Spinal Rock\n(Bodyweight)}}">
<path fill="#ffff99" stroke="#b15928" d="M1205.38,-375.38C1205.38,-375.38 1302.62,-375.38 1302.62,-375.38 1308.62,-375.38 1314.62,-381.38 1314.62,-387.38 1314.62,-387.38 1314.62,-402.88 1314.62,-402.88 1314.62,-408.88 1308.62,-414.88 1302.62,-414.88 1302.62,-414.88 1205.38,-414.88 1205.38,-414.88 1199.38,-414.88 1193.38,-408.88 1193.38,-402.88 1193.38,-402.88 1193.38,-387.38 1193.38,-387.38 1193.38,-381.38 1199.38,-375.38 1205.38,-375.38"/>
<text text-anchor="middle" x="1208.12" y="-389.7" font-family="Times New Roman,serif" font-size="14.00">40</text>
<polyline fill="none" stroke="#b15928" points="1222.88,-375.38 1222.88,-414.88"/>
<text text-anchor="middle" x="1268.75" y="-397.57" font-family="Times New Roman,serif" font-size="14.00">Spinal Rock</text>
<text text-anchor="middle" x="1268.75" y="-381.82" font-family="Times New Roman,serif" font-size="14.00">(Bodyweight)</text>
</a>
</g>
</g>
<!-- mov_43_spinalrock -->
<g id="node11" class="node">
<title>mov_43_spinalrock</title>
<g id="a_node11"><a xlink:href="https://www.youtube.com/watch?v=KTDVl0Lkdc4&amp;list=PLk4oYPJ7TXKhX8YqA2AVrfgs_pEF6p7KA&amp;index=48" xlink:title="{{43|Spinal Rock}}">
<path fill="#ffff99" stroke="#b15928" d="M1143.75,-271C1143.75,-271 1234.25,-271 1234.25,-271 1240.25,-271 1246.25,-277 1246.25,-283 1246.25,-283 1246.25,-295 1246.25,-295 1246.25,-301 1240.25,-307 1234.25,-307 1234.25,-307 1143.75,-307 1143.75,-307 1137.75,-307 1131.75,-301 1131.75,-295 1131.75,-295 1131.75,-283 1131.75,-283 1131.75,-277 1137.75,-271 1143.75,-271"/>
<text text-anchor="middle" x="1146.5" y="-283.7" font-family="Times New Roman,serif" font-size="14.00">43</text>
<polyline fill="none" stroke="#b15928" points="1161.25,-271.25 1161.25,-307"/>
<text text-anchor="middle" x="1203.75" y="-283.7" font-family="Times New Roman,serif" font-size="14.00">Spinal Rock</text>
</a>
</g>
</g>
<!-- mov_40_bwspinalrock&#45;&gt;mov_43_spinalrock -->
<g id="edge20" class="edge">
<title>mov_40_bwspinalrock&#45;&gt;mov_43_spinalrock</title>
<path fill="none" stroke="black" d="M1242.08,-375.03C1231.92,-358.76 1217.21,-335.19 1205.85,-316.99"/>
<polygon fill="black" stroke="black" points="1208.83,-315.16 1200.57,-308.53 1202.9,-318.87 1208.83,-315.16"/>
</g>
<!-- mov_41_flatbackpullover -->
<g id="node10" class="node">
<title>mov_41_flatbackpullover</title>
<g id="a_node10"><a xlink:href="https://www.youtube.com/watch?v=KTDVl0Lkdc4&amp;list=PLk4oYPJ7TXKhX8YqA2AVrfgs_pEF6p7KA&amp;index=43" xlink:title="{{41|Flat Back Pullover}}">
<path fill="#ffff99" stroke="#b15928" d="M1038.88,-377.12C1038.88,-377.12 1163.12,-377.12 1163.12,-377.12 1169.12,-377.12 1175.12,-383.12 1175.12,-389.12 1175.12,-389.12 1175.12,-401.12 1175.12,-401.12 1175.12,-407.12 1169.12,-413.12 1163.12,-413.12 1163.12,-413.12 1038.88,-413.12 1038.88,-413.12 1032.88,-413.12 1026.88,-407.12 1026.88,-401.12 1026.88,-401.12 1026.88,-389.12 1026.88,-389.12 1026.88,-383.12 1032.88,-377.12 1038.88,-377.12"/>
<text text-anchor="middle" x="1041.62" y="-389.82" font-family="Times New Roman,serif" font-size="14.00">41</text>
<polyline fill="none" stroke="#b15928" points="1056.38,-377.38 1056.38,-413.12"/>
<text text-anchor="middle" x="1115.75" y="-389.82" font-family="Times New Roman,serif" font-size="14.00">Flat Back Pullover</text>
</a>
</g>
</g>
<!-- mov_55_backpullsituppress -->
<g id="node22" class="node">
<title>mov_55_backpullsituppress</title>
<g id="a_node22"><a xlink:href="https://www.youtube.com/watch?v=KTDVl0Lkdc4&amp;list=PLk4oYPJ7TXKhX8YqA2AVrfgs_pEF6p7KA&amp;index=57" xlink:title="{{55|Flat Back Pullover Situp Press}}">
<path fill="#ffff99" stroke="#b15928" d="M846.12,-271C846.12,-271 1037.88,-271 1037.88,-271 1043.88,-271 1049.88,-277 1049.88,-283 1049.88,-283 1049.88,-295 1049.88,-295 1049.88,-301 1043.88,-307 1037.88,-307 1037.88,-307 846.12,-307 846.12,-307 840.12,-307 834.12,-301 834.12,-295 834.12,-295 834.12,-283 834.12,-283 834.12,-277 840.12,-271 846.12,-271"/>
<text text-anchor="middle" x="848.88" y="-283.7" font-family="Times New Roman,serif" font-size="14.00">55</text>
<polyline fill="none" stroke="#b15928" points="863.62,-271.25 863.62,-307"/>
<text text-anchor="middle" x="956.75" y="-283.7" font-family="Times New Roman,serif" font-size="14.00">Flat Back Pullover Situp Press</text>
</a>
</g>
</g>
<!-- mov_41_flatbackpullover&#45;&gt;mov_55_backpullsituppress -->
<g id="edge17" class="edge">
<title>mov_41_flatbackpullover&#45;&gt;mov_55_backpullsituppress</title>
<path fill="none" stroke="black" d="M1074.39,-376.7C1048.02,-359.43 1007.44,-332.86 978.16,-313.68"/>
<polygon fill="black" stroke="black" points="980.25,-310.86 969.97,-308.31 976.41,-316.72 980.25,-310.86"/>
</g>
<!-- mov_43_spinalrock&#45;&gt;mov_72_deck -->
<g id="edge21" class="edge">
<title>mov_43_spinalrock&#45;&gt;mov_72_deck</title>
<path fill="none" stroke="black" d="M1141.38,-270.55C1101.05,-255.78 1043.12,-234.55 1000.08,-218.78"/>
<polygon fill="black" stroke="black" points="1001.49,-215.57 990.9,-215.42 999.08,-222.14 1001.49,-215.57"/>
</g>
<!-- mov_44_pushpress&#45;&gt;mov_48_thruster -->
<g id="edge14" class="edge">
<title>mov_44_pushpress&#45;&gt;mov_48_thruster</title>
<path fill="none" stroke="black" d="M1379,-468.07C1379,-455.82 1379,-439.06 1379,-424.8"/>
<polygon fill="black" stroke="black" points="1382.5,-425.07 1379,-415.07 1375.5,-425.07 1382.5,-425.07"/>
</g>
<!-- mov_45_gobsquatcurl&#45;&gt;mov_39_boxsquat2boat -->
<g id="edge8" class="edge">
<title>mov_45_gobsquatcurl&#45;&gt;mov_39_boxsquat2boat</title>
<path fill="none" stroke="black" d="M462.26,-375.03C489.76,-357.67 530.42,-332.02 559.87,-313.43"/>
<polygon fill="black" stroke="black" points="561.53,-316.52 568.12,-308.23 557.79,-310.6 561.53,-316.52"/>
</g>
<!-- mov_49_seatedpress -->
<g id="node16" class="node">
<title>mov_49_seatedpress</title>
<g id="a_node16"><a xlink:href="https://www.youtube.com/watch?v=KTDVl0Lkdc4&amp;list=PLk4oYPJ7TXKhX8YqA2AVrfgs_pEF6p7KA&amp;index=54" xlink:title="{{49|Seated Two&#45;Handed\nOverhead Press}}">
<path fill="#ffff99" stroke="#b15928" d="M686.5,-375.38C686.5,-375.38 823.5,-375.38 823.5,-375.38 829.5,-375.38 835.5,-381.38 835.5,-387.38 835.5,-387.38 835.5,-402.88 835.5,-402.88 835.5,-408.88 829.5,-414.88 823.5,-414.88 823.5,-414.88 686.5,-414.88 686.5,-414.88 680.5,-414.88 674.5,-408.88 674.5,-402.88 674.5,-402.88 674.5,-387.38 674.5,-387.38 674.5,-381.38 680.5,-375.38 686.5,-375.38"/>
<text text-anchor="middle" x="689.25" y="-389.7" font-family="Times New Roman,serif" font-size="14.00">49</text>
<polyline fill="none" stroke="#b15928" points="704,-375.38 704,-414.88"/>
<text text-anchor="middle" x="769.75" y="-397.57" font-family="Times New Roman,serif" font-size="14.00">Seated Two&#45;Handed</text>
<text text-anchor="middle" x="769.75" y="-381.82" font-family="Times New Roman,serif" font-size="14.00">Overhead Press</text>
</a>
</g>
</g>
<!-- mov_49_seatedpress&#45;&gt;mov_55_backpullsituppress -->
<g id="edge18" class="edge">
<title>mov_49_seatedpress&#45;&gt;mov_55_backpullsituppress</title>
<path fill="none" stroke="black" d="M789.3,-375.03C820.74,-357.52 867.34,-331.57 900.79,-312.95"/>
<polygon fill="black" stroke="black" points="902.36,-316.08 909.39,-308.16 898.95,-309.96 902.36,-316.08"/>
</g>
<!-- mov_54_shinboxpress -->
<g id="node21" class="node">
<title>mov_54_shinboxpress</title>
<g id="a_node21"><a xlink:href="https://www.youtube.com/watch?v=FEbi2lKVEHU" xlink:title="{{54|Contra Shinbox Press}}">
<path fill="#ffff99" stroke="#b15928" d="M181.75,-271C181.75,-271 326.25,-271 326.25,-271 332.25,-271 338.25,-277 338.25,-283 338.25,-283 338.25,-295 338.25,-295 338.25,-301 332.25,-307 326.25,-307 326.25,-307 181.75,-307 181.75,-307 175.75,-307 169.75,-301 169.75,-295 169.75,-295 169.75,-283 169.75,-283 169.75,-277 175.75,-271 181.75,-271"/>
<text text-anchor="middle" x="184.5" y="-283.7" font-family="Times New Roman,serif" font-size="14.00">54</text>
<polyline fill="none" stroke="#b15928" points="199.25,-271.25 199.25,-307"/>
<text text-anchor="middle" x="268.75" y="-283.7" font-family="Times New Roman,serif" font-size="14.00">Contra Shinbox Press</text>
</a>
</g>
</g>
<!-- mov_52_rackaltshinbox&#45;&gt;mov_54_shinboxpress -->
<g id="edge16" class="edge">
<title>mov_52_rackaltshinbox&#45;&gt;mov_54_shinboxpress</title>
<path fill="none" stroke="black" d="M254,-376.93C254,-361.1 254,-337.32 254,-318.63"/>
<polygon fill="black" stroke="black" points="257.5,-318.73 254,-308.73 250.5,-318.73 257.5,-318.73"/>
</g>
<!-- mov_53_hornygobsquat&#45;&gt;mov_39_boxsquat2boat -->
<g id="edge9" class="edge">
<title>mov_53_hornygobsquat&#45;&gt;mov_39_boxsquat2boat</title>
<path fill="none" stroke="black" d="M597,-375.03C597,-359.21 597,-336.5 597,-318.52"/>
<polygon fill="black" stroke="black" points="600.5,-318.76 597,-308.76 593.5,-318.76 600.5,-318.76"/>
</g>
<!-- mov_55_backpullsituppress&#45;&gt;mov_72_deck -->
<g id="edge15" class="edge">
<title>mov_55_backpullsituppress&#45;&gt;mov_72_deck</title>
<path fill="none" stroke="black" d="M942,-270.55C942,-258.03 942,-240.87 942,-226.33"/>
<polygon fill="black" stroke="black" points="945.5,-226.41 942,-216.41 938.5,-226.41 945.5,-226.41"/>
</g>
<!-- Legend -->
<g id="node24" class="node">
<title>Legend</title>
<path fill="#ffff99" stroke="none" d="M1512.5,-327C1512.5,-327 1343.5,-327 1343.5,-327 1337.5,-327 1331.5,-321 1331.5,-315 1331.5,-315 1331.5,-263 1331.5,-263 1331.5,-257 1337.5,-251 1343.5,-251 1343.5,-251 1512.5,-251 1512.5,-251 1518.5,-251 1524.5,-257 1524.5,-263 1524.5,-263 1524.5,-315 1524.5,-315 1524.5,-321 1518.5,-327 1512.5,-327"/>
<polygon fill="none" stroke="#b15928" points="1331.5,-301 1331.5,-327 1524.5,-327 1524.5,-301 1331.5,-301"/>
<text text-anchor="start" x="1405.5" y="-309.7" font-family="Times New Roman,serif" font-weight="bold" font-size="14.00">Legend</text>
<polygon fill="none" stroke="#b15928" points="1331.5,-276 1331.5,-301 1496.5,-301 1496.5,-276 1331.5,-276"/>
<text text-anchor="start" x="1336.38" y="-282.7" font-family="Times New Roman,serif" font-size="14.00">Prerequisites and next steps</text>
<polygon fill="#a6cee3" stroke="none" points="1496.5,-276 1496.5,-301 1524.5,-301 1524.5,-276 1496.5,-276"/>
<polygon fill="none" stroke="#b15928" points="1496.5,-276 1496.5,-301 1524.5,-301 1524.5,-276 1496.5,-276"/>
<text text-anchor="start" x="1501.12" y="-282.7" font-family="Times New Roman,serif" font-size="14.00">     </text>
<polygon fill="none" stroke="#b15928" points="1331.5,-251 1331.5,-276 1496.5,-276 1496.5,-251 1331.5,-251"/>
<text text-anchor="start" x="1399.38" y="-257.7" font-family="Times New Roman,serif" font-size="14.00">Drills</text>
<polygon fill="#ffff99" stroke="none" points="1496.5,-251 1496.5,-276 1524.5,-276 1524.5,-251 1496.5,-251"/>
<polygon fill="none" stroke="#b15928" points="1496.5,-251 1496.5,-276 1524.5,-276 1524.5,-251 1496.5,-251"/>
</g>
</g>
</svg>
