<?xml version="1.0" encoding="UTF-8" standalone="no"?>
<!DOCTYPE svg PUBLIC "-//W3C//DTD SVG 1.1//EN"
 "http://www.w3.org/Graphics/SVG/1.1/DTD/svg11.dtd">
<!-- Generated by graphviz version 9.0.0 (20230911.1827)
 -->
<!-- Title: kb_progression Pages: 1 -->
<svg width="1592pt" height="933pt"
 viewBox="0.00 0.00 1592.12 933.25" xmlns="http://www.w3.org/2000/svg" xmlns:xlink="http://www.w3.org/1999/xlink">
<g id="graph0" class="graph" transform="scale(1 1) rotate(0) translate(4 929.25)">
<title>kb_progression</title>
<polygon fill="white" stroke="none" points="-4,4 -4,-929.25 1588.12,-929.25 1588.12,4 -4,4"/>
<text text-anchor="start" x="1184.62" y="-145.7" font-family="Helvetica,Arial,sans-serif" font-weight="bold" font-size="14.00">Kettlebell Basic Skill Progression &#45; Part 4/4</text>
<text text-anchor="start" x="1184.62" y="-117.7" font-family="Helvetica,Arial,sans-serif" font-size="14.00">Diagram by dznz based on Mark Wildman&#39;s teachings.</text>
<text text-anchor="start" x="1184.62" y="-89.7" font-family="Helvetica,Arial,sans-serif" font-size="14.00">Source: </text>
<text text-anchor="start" x="1237.88" y="-89.7" font-family="Helvetica,Arial,sans-serif" font-weight="bold" font-size="14.00">https://github.com/dznz/wildman&#45;skill&#45;trees</text>
<text text-anchor="start" x="1184.62" y="-61.7" font-family="Helvetica,Arial,sans-serif" font-size="14.00">More by Mark Wildman &#45; </text>
<text text-anchor="start" x="1340.62" y="-61.7" font-family="Helvetica,Arial,sans-serif" font-weight="bold" font-size="14.00">https://www.wildmanathletica.com</text>
<text text-anchor="start" x="1184.62" y="-33.7" font-family="Helvetica,Arial,sans-serif" font-style="italic" font-size="14.00">© 2023. This work is openly licensed with CC BY&#45;NC&#45;SA 4.0</text>
<text text-anchor="start" x="1252.88" y="-19.7" font-family="Helvetica,Arial,sans-serif" font-style="italic" font-size="14.00">http://creativecommons.org/licenses/by&#45;nc&#45;sa/4.0/</text>
<text text-anchor="start" x="1376.62" y="-5.7" font-family="Helvetica,Arial,sans-serif" font-size="14.00"> &#160;</text>
<g id="clust2" class="cluster">
<title>cluster_deadlift</title>
<polygon fill="none" stroke="black" points="864.62,-535.25 864.62,-868.75 1040.62,-868.75 1040.62,-535.25 864.62,-535.25"/>
<text text-anchor="middle" x="1004.5" y="-851.45" font-family="Helvetica,Arial,sans-serif" font-size="14.00">Deadlifts</text>
</g>
<g id="clust4" class="cluster">
<title>cluster_snatch</title>
<polygon fill="none" stroke="black" points="1046.62,-171.75 1046.62,-526.12 1382.62,-526.12 1382.62,-171.75 1046.62,-171.75"/>
<text text-anchor="middle" x="1352.88" y="-508.82" font-family="Helvetica,Arial,sans-serif" font-size="14.00">Snatch</text>
</g>
<g id="clust3" class="cluster">
<title>cluster_double</title>
<polygon fill="none" stroke="black" points="141.62,-170 141.62,-791.25 698.62,-791.25 698.62,-170 141.62,-170"/>
<text text-anchor="middle" x="664" y="-773.95" font-family="Helvetica,Arial,sans-serif" font-size="14.00">Doubles</text>
</g>
<!-- ext_hc_dblswing -->
<g id="node1" class="node">
<title>ext_hc_dblswing</title>
<path fill="ghostwhite" stroke="lightslategrey" d="M13.5,-557.38C13.5,-557.38 119.75,-557.38 119.75,-557.38 125.75,-557.38 131.75,-563.38 131.75,-569.38 131.75,-569.38 131.75,-581.38 131.75,-581.38 131.75,-587.38 125.75,-593.38 119.75,-593.38 119.75,-593.38 13.5,-593.38 13.5,-593.38 7.5,-593.38 1.5,-587.38 1.5,-581.38 1.5,-581.38 1.5,-569.38 1.5,-569.38 1.5,-563.38 7.5,-557.38 13.5,-557.38"/>
<text text-anchor="middle" x="19.25" y="-570.08" font-family="Times New Roman,serif" font-size="14.00">HC</text>
<polyline fill="none" stroke="lightslategrey" points="37,-557.62 37,-593.38"/>
<text text-anchor="middle" x="84.38" y="-570.08" font-family="Times New Roman,serif" font-size="14.00">Double Swing</text>
</g>
<!-- ext_hc_dblrockit -->
<g id="node2" class="node">
<title>ext_hc_dblrockit</title>
<path fill="ghostwhite" stroke="lightslategrey" d="M12,-457.12C12,-457.12 121.25,-457.12 121.25,-457.12 127.25,-457.12 133.25,-463.12 133.25,-469.12 133.25,-469.12 133.25,-481.12 133.25,-481.12 133.25,-487.12 127.25,-493.12 121.25,-493.12 121.25,-493.12 12,-493.12 12,-493.12 6,-493.12 0,-487.12 0,-481.12 0,-481.12 0,-469.12 0,-469.12 0,-463.12 6,-457.12 12,-457.12"/>
<text text-anchor="middle" x="17.75" y="-469.82" font-family="Times New Roman,serif" font-size="14.00">HC</text>
<polyline fill="none" stroke="lightslategrey" points="35.5,-457.38 35.5,-493.12"/>
<text text-anchor="middle" x="84.38" y="-469.82" font-family="Times New Roman,serif" font-size="14.00">Double Rockit</text>
</g>
<!-- ext_hc_dblswing&#45;&gt;ext_hc_dblrockit -->
<g id="edge1" class="edge">
<title>ext_hc_dblswing&#45;&gt;ext_hc_dblrockit</title>
<path fill="none" stroke="black" d="M66.62,-557.26C66.62,-542.7 66.62,-521.49 66.62,-504.41"/>
<polygon fill="black" stroke="black" points="70.13,-504.89 66.63,-494.89 63.13,-504.89 70.13,-504.89"/>
</g>
<!-- mov_63_dblrockit -->
<g id="node16" class="node">
<title>mov_63_dblrockit</title>
<g id="a_node16"><a xlink:href="https://www.youtube.com/watch?v=zXB6hFrrBkA&amp;list=PLk4oYPJ7TXKhX8YqA2AVrfgs_pEF6p7KA&amp;index=63" xlink:title="{{63|Double Rockit}}">
<path fill="#ffff99" stroke="#b15928" d="M162,-351C162,-351 265.25,-351 265.25,-351 271.25,-351 277.25,-357 277.25,-363 277.25,-363 277.25,-375 277.25,-375 277.25,-381 271.25,-387 265.25,-387 265.25,-387 162,-387 162,-387 156,-387 150,-381 150,-375 150,-375 150,-363 150,-363 150,-357 156,-351 162,-351"/>
<text text-anchor="middle" x="164.75" y="-363.7" font-family="Times New Roman,serif" font-size="14.00">63</text>
<polyline fill="none" stroke="#b15928" points="179.5,-351.25 179.5,-387"/>
<text text-anchor="middle" x="228.38" y="-363.7" font-family="Times New Roman,serif" font-size="14.00">Double Rockit</text>
</a>
</g>
</g>
<!-- ext_hc_dblrockit&#45;&gt;mov_63_dblrockit -->
<g id="edge2" class="edge">
<title>ext_hc_dblrockit&#45;&gt;mov_63_dblrockit</title>
<path fill="none" stroke="black" d="M91.23,-456.7C115.5,-439.5 152.8,-413.09 179.84,-393.93"/>
<polygon fill="black" stroke="black" points="181.57,-397 187.71,-388.36 177.52,-391.28 181.57,-397"/>
</g>
<!-- mov_01_deadlift -->
<g id="node3" class="node">
<title>mov_01_deadlift</title>
<g id="a_node3"><a xlink:href="https://www.youtube.com/watch?v=x0XkmM34BPI&amp;list=PLk4oYPJ7TXKhX8YqA2AVrfgs_pEF6p7KA&amp;index=1" xlink:title="{{KB&#45;01|Two Hand Deadlift}|HIP HINGE}">
<path fill="ghostwhite" stroke="lightslategrey" d="M867.62,-877.25C867.62,-877.25 1019.62,-877.25 1019.62,-877.25 1025.62,-877.25 1031.62,-883.25 1031.62,-889.25 1031.62,-889.25 1031.62,-912.75 1031.62,-912.75 1031.62,-918.75 1025.62,-924.75 1019.62,-924.75 1019.62,-924.75 867.62,-924.75 867.62,-924.75 861.62,-924.75 855.62,-918.75 855.62,-912.75 855.62,-912.75 855.62,-889.25 855.62,-889.25 855.62,-883.25 861.62,-877.25 867.62,-877.25"/>
<text text-anchor="middle" x="882" y="-907.45" font-family="Times New Roman,serif" font-size="14.00">KB&#45;01</text>
<polyline fill="none" stroke="lightslategrey" points="908.38,-901 908.38,-924.75"/>
<text text-anchor="middle" x="970" y="-907.45" font-family="Times New Roman,serif" font-size="14.00">Two Hand Deadlift</text>
<polyline fill="none" stroke="lightslategrey" points="855.62,-901 1031.62,-901"/>
<text text-anchor="middle" x="943.62" y="-883.7" font-family="Times New Roman,serif" font-size="14.00">HIP HINGE</text>
</a>
</g>
</g>
<!-- mov_56_suitcasedl -->
<g id="node9" class="node">
<title>mov_56_suitcasedl</title>
<g id="a_node9"><a xlink:href="https://www.youtube.com/watch?v=d6i6MwVOmk0&amp;list=PLk4oYPJ7TXKhX8YqA2AVrfgs_pEF6p7KA&amp;index=58" xlink:title="{{56|Suitcase Deadlift}}">
<path fill="#ffff99" stroke="#b15928" d="M886,-799.75C886,-799.75 1001.25,-799.75 1001.25,-799.75 1007.25,-799.75 1013.25,-805.75 1013.25,-811.75 1013.25,-811.75 1013.25,-823.75 1013.25,-823.75 1013.25,-829.75 1007.25,-835.75 1001.25,-835.75 1001.25,-835.75 886,-835.75 886,-835.75 880,-835.75 874,-829.75 874,-823.75 874,-823.75 874,-811.75 874,-811.75 874,-805.75 880,-799.75 886,-799.75"/>
<text text-anchor="middle" x="888.75" y="-812.45" font-family="Times New Roman,serif" font-size="14.00">56</text>
<polyline fill="none" stroke="#b15928" points="903.5,-800 903.5,-835.75"/>
<text text-anchor="middle" x="958.38" y="-812.45" font-family="Times New Roman,serif" font-size="14.00">Suitcase Deadlift</text>
</a>
</g>
</g>
<!-- mov_01_deadlift&#45;&gt;mov_56_suitcasedl -->
<g id="edge10" class="edge">
<title>mov_01_deadlift&#45;&gt;mov_56_suitcasedl</title>
<path fill="none" stroke="black" d="M943.62,-876.93C943.62,-867.83 943.62,-857.27 943.62,-847.66"/>
<polygon fill="black" stroke="black" points="947.13,-847.7 943.63,-837.7 940.13,-847.7 947.13,-847.7"/>
</g>
<!-- mov_10_h2h -->
<g id="node4" class="node">
<title>mov_10_h2h</title>
<g id="a_node4"><a xlink:href="https://www.youtube.com/watch?v=0Uk0Rdm3QFs&amp;list=PLk4oYPJ7TXKhX8YqA2AVrfgs_pEF6p7KA&amp;index=10" xlink:title="{{KB&#45;10|Hand to Hand\nTransition}}">
<path fill="ghostwhite" stroke="lightslategrey" d="M718.88,-644C718.88,-644 842.38,-644 842.38,-644 848.38,-644 854.38,-650 854.38,-656 854.38,-656 854.38,-671.5 854.38,-671.5 854.38,-677.5 848.38,-683.5 842.38,-683.5 842.38,-683.5 718.88,-683.5 718.88,-683.5 712.88,-683.5 706.88,-677.5 706.88,-671.5 706.88,-671.5 706.88,-656 706.88,-656 706.88,-650 712.88,-644 718.88,-644"/>
<text text-anchor="middle" x="733.25" y="-658.33" font-family="Times New Roman,serif" font-size="14.00">KB&#45;10</text>
<polyline fill="none" stroke="lightslategrey" points="759.62,-644 759.62,-683.5"/>
<text text-anchor="middle" x="807" y="-666.2" font-family="Times New Roman,serif" font-size="14.00">Hand to Hand</text>
<text text-anchor="middle" x="807" y="-650.45" font-family="Times New Roman,serif" font-size="14.00">Transition</text>
</a>
</g>
</g>
<!-- mov_60_dblswing -->
<g id="node13" class="node">
<title>mov_60_dblswing</title>
<g id="a_node13"><a xlink:href="https://www.youtube.com/watch?v=P5IFTJySA_s&amp;list=PLk4oYPJ7TXKhX8YqA2AVrfgs_pEF6p7KA&amp;index=61" xlink:title="{{60|Double Swing}}">
<path fill="#ffff99" stroke="#b15928" d="M553.5,-557.38C553.5,-557.38 653.75,-557.38 653.75,-557.38 659.75,-557.38 665.75,-563.38 665.75,-569.38 665.75,-569.38 665.75,-581.38 665.75,-581.38 665.75,-587.38 659.75,-593.38 653.75,-593.38 653.75,-593.38 553.5,-593.38 553.5,-593.38 547.5,-593.38 541.5,-587.38 541.5,-581.38 541.5,-581.38 541.5,-569.38 541.5,-569.38 541.5,-563.38 547.5,-557.38 553.5,-557.38"/>
<text text-anchor="middle" x="556.25" y="-570.08" font-family="Times New Roman,serif" font-size="14.00">60</text>
<polyline fill="none" stroke="#b15928" points="571,-557.62 571,-593.38"/>
<text text-anchor="middle" x="618.38" y="-570.08" font-family="Times New Roman,serif" font-size="14.00">Double Swing</text>
</a>
</g>
</g>
<!-- mov_10_h2h&#45;&gt;mov_60_dblswing -->
<g id="edge3" class="edge">
<title>mov_10_h2h&#45;&gt;mov_60_dblswing</title>
<path fill="none" stroke="black" d="M741.34,-643.58C714.13,-630.3 677.82,-612.58 649.31,-598.67"/>
<polygon fill="black" stroke="black" points="651.07,-595.63 640.55,-594.39 648,-601.93 651.07,-595.63"/>
</g>
<!-- mov_12_clean -->
<g id="node5" class="node">
<title>mov_12_clean</title>
<g id="a_node5"><a xlink:href="https://www.youtube.com/watch?v=_nIsSXWs5iU&amp;list=PLk4oYPJ7TXKhX8YqA2AVrfgs_pEF6p7KA&amp;index=12" xlink:title="KB&#45;12|Swing Clean">
<path fill="ghostwhite" stroke="lightslategrey" d="M1158.38,-645.75C1158.38,-645.75 1272.88,-645.75 1272.88,-645.75 1278.88,-645.75 1284.88,-651.75 1284.88,-657.75 1284.88,-657.75 1284.88,-669.75 1284.88,-669.75 1284.88,-675.75 1278.88,-681.75 1272.88,-681.75 1272.88,-681.75 1158.38,-681.75 1158.38,-681.75 1152.38,-681.75 1146.38,-675.75 1146.38,-669.75 1146.38,-669.75 1146.38,-657.75 1146.38,-657.75 1146.38,-651.75 1152.38,-645.75 1158.38,-645.75"/>
<text text-anchor="middle" x="1172.75" y="-658.33" font-family="Times New Roman,serif" font-size="14.00">KB&#45;12</text>
<polyline fill="none" stroke="lightslategrey" points="1199.12,-645.75 1199.12,-681.75"/>
<text text-anchor="middle" x="1242" y="-658.33" font-family="Times New Roman,serif" font-size="14.00">Swing Clean</text>
</a>
</g>
</g>
<!-- mov_16_startstopclean -->
<g id="node6" class="node">
<title>mov_16_startstopclean</title>
<g id="a_node6"><a xlink:href="https://www.youtube.com/watch?v=XbK3jxI0WNQ&amp;list=PLk4oYPJ7TXKhX8YqA2AVrfgs_pEF6p7KA&amp;index=16" xlink:title="{{KB&#45;16|Start Stop Clean}|START &amp; END CLEAN}">
<path fill="ghostwhite" stroke="lightslategrey" d="M1061.12,-551.62C1061.12,-551.62 1198.12,-551.62 1198.12,-551.62 1204.12,-551.62 1210.12,-557.62 1210.12,-563.62 1210.12,-563.62 1210.12,-587.12 1210.12,-587.12 1210.12,-593.12 1204.12,-599.12 1198.12,-599.12 1198.12,-599.12 1061.12,-599.12 1061.12,-599.12 1055.12,-599.12 1049.12,-593.12 1049.12,-587.12 1049.12,-587.12 1049.12,-563.62 1049.12,-563.62 1049.12,-557.62 1055.12,-551.62 1061.12,-551.62"/>
<text text-anchor="middle" x="1075.5" y="-581.83" font-family="Times New Roman,serif" font-size="14.00">KB&#45;16</text>
<polyline fill="none" stroke="lightslategrey" points="1101.88,-575.38 1101.88,-599.12"/>
<text text-anchor="middle" x="1156" y="-581.83" font-family="Times New Roman,serif" font-size="14.00">Start Stop Clean</text>
<polyline fill="none" stroke="lightslategrey" points="1049.12,-575.38 1210.12,-575.38"/>
<text text-anchor="middle" x="1129.62" y="-558.08" font-family="Times New Roman,serif" font-size="14.00">START &amp; END CLEAN</text>
</a>
</g>
</g>
<!-- mov_12_clean&#45;&gt;mov_16_startstopclean -->
<g id="edge4" class="edge">
<title>mov_12_clean&#45;&gt;mov_16_startstopclean</title>
<path fill="none" stroke="black" d="M1198.22,-645.27C1187.43,-634.43 1173.26,-620.2 1160.6,-607.49"/>
<polygon fill="black" stroke="black" points="1163.16,-605.09 1153.62,-600.47 1158.19,-610.03 1163.16,-605.09"/>
</g>
<!-- mov_17_cap -->
<g id="node7" class="node">
<title>mov_17_cap</title>
<g id="a_node7"><a xlink:href="https://www.youtube.com/watch?v=SSxB3m5qRas&amp;list=PLk4oYPJ7TXKhX8YqA2AVrfgs_pEF6p7KA&amp;index=17" xlink:title="KB&#45;17|Clean &amp; Press">
<path fill="ghostwhite" stroke="lightslategrey" d="M1239.75,-557.38C1239.75,-557.38 1365.5,-557.38 1365.5,-557.38 1371.5,-557.38 1377.5,-563.38 1377.5,-569.38 1377.5,-569.38 1377.5,-581.38 1377.5,-581.38 1377.5,-587.38 1371.5,-593.38 1365.5,-593.38 1365.5,-593.38 1239.75,-593.38 1239.75,-593.38 1233.75,-593.38 1227.75,-587.38 1227.75,-581.38 1227.75,-581.38 1227.75,-569.38 1227.75,-569.38 1227.75,-563.38 1233.75,-557.38 1239.75,-557.38"/>
<text text-anchor="middle" x="1254.12" y="-569.95" font-family="Times New Roman,serif" font-size="14.00">KB&#45;17</text>
<polyline fill="none" stroke="lightslategrey" points="1280.5,-557.38 1280.5,-593.38"/>
<text text-anchor="middle" x="1329" y="-569.95" font-family="Times New Roman,serif" font-size="14.00">Clean &amp; Press</text>
</a>
</g>
</g>
<!-- mov_12_clean&#45;&gt;mov_17_cap -->
<g id="edge5" class="edge">
<title>mov_12_clean&#45;&gt;mov_17_cap</title>
<path fill="none" stroke="black" d="M1233.23,-645.27C1245.85,-632.74 1263.04,-615.68 1277.15,-601.67"/>
<polygon fill="black" stroke="black" points="1279.34,-604.42 1283.97,-594.89 1274.41,-599.46 1279.34,-604.42"/>
</g>
<!-- mov_59_halfsnatchdown -->
<g id="node12" class="node">
<title>mov_59_halfsnatchdown</title>
<g id="a_node12"><a xlink:href="https://www.youtube.com/watch?v=u2NbMtX_Rb0&amp;list=PLk4oYPJ7TXKhX8YqA2AVrfgs_pEF6p7KA&amp;index=60" xlink:title="{{59|Half Snatch Down}}">
<path fill="#ffff99" stroke="#b15928" d="M1067.5,-457.12C1067.5,-457.12 1191.75,-457.12 1191.75,-457.12 1197.75,-457.12 1203.75,-463.12 1203.75,-469.12 1203.75,-469.12 1203.75,-481.12 1203.75,-481.12 1203.75,-487.12 1197.75,-493.12 1191.75,-493.12 1191.75,-493.12 1067.5,-493.12 1067.5,-493.12 1061.5,-493.12 1055.5,-487.12 1055.5,-481.12 1055.5,-481.12 1055.5,-469.12 1055.5,-469.12 1055.5,-463.12 1061.5,-457.12 1067.5,-457.12"/>
<text text-anchor="middle" x="1070.25" y="-469.82" font-family="Times New Roman,serif" font-size="14.00">59</text>
<polyline fill="none" stroke="#b15928" points="1085,-457.38 1085,-493.12"/>
<text text-anchor="middle" x="1144.38" y="-469.82" font-family="Times New Roman,serif" font-size="14.00">Half Snatch Down</text>
</a>
</g>
</g>
<!-- mov_16_startstopclean&#45;&gt;mov_59_halfsnatchdown -->
<g id="edge8" class="edge">
<title>mov_16_startstopclean&#45;&gt;mov_59_halfsnatchdown</title>
<path fill="none" stroke="black" d="M1129.62,-551.59C1129.62,-537.63 1129.62,-519.65 1129.62,-504.74"/>
<polygon fill="black" stroke="black" points="1133.13,-505.09 1129.63,-495.09 1126.13,-505.09 1133.13,-505.09"/>
</g>
<!-- mov_62_dblclean -->
<g id="node15" class="node">
<title>mov_62_dblclean</title>
<g id="a_node15"><a xlink:href="https://www.youtube.com/watch?v=Qe9ejhAtdGY&amp;list=PLk4oYPJ7TXKhX8YqA2AVrfgs_pEF6p7KA&amp;index=62" xlink:title="{{62|Double Clean}}">
<path fill="#ffff99" stroke="#b15928" d="M555,-457.12C555,-457.12 652.25,-457.12 652.25,-457.12 658.25,-457.12 664.25,-463.12 664.25,-469.12 664.25,-469.12 664.25,-481.12 664.25,-481.12 664.25,-487.12 658.25,-493.12 652.25,-493.12 652.25,-493.12 555,-493.12 555,-493.12 549,-493.12 543,-487.12 543,-481.12 543,-481.12 543,-469.12 543,-469.12 543,-463.12 549,-457.12 555,-457.12"/>
<text text-anchor="middle" x="557.75" y="-469.82" font-family="Times New Roman,serif" font-size="14.00">62</text>
<polyline fill="none" stroke="#b15928" points="572.5,-457.38 572.5,-493.12"/>
<text text-anchor="middle" x="618.38" y="-469.82" font-family="Times New Roman,serif" font-size="14.00">Double Clean</text>
</a>
</g>
</g>
<!-- mov_16_startstopclean&#45;&gt;mov_62_dblclean -->
<g id="edge7" class="edge">
<title>mov_16_startstopclean&#45;&gt;mov_62_dblclean</title>
<path fill="none" stroke="black" d="M1088,-551.24C1074.56,-544.87 1059.32,-538.75 1044.62,-535.25 989.24,-522.08 844.91,-534.62 788.62,-526.12 747.18,-519.87 701.73,-507.66 666.25,-496.88"/>
<polygon fill="black" stroke="black" points="667.61,-493.64 657.02,-494.03 665.55,-500.32 667.61,-493.64"/>
</g>
<!-- mov_19_startstopcap -->
<g id="node8" class="node">
<title>mov_19_startstopcap</title>
<g id="a_node8"><a xlink:href="https://www.youtube.com/watch?v=dSj3kqbuois&amp;list=PLk4oYPJ7TXKhX8YqA2AVrfgs_pEF6p7KA&amp;index=19" xlink:title="{{KB&#45;19|Start Stop\nClean &amp; Press}|START &amp; END C&amp;P}">
<path fill="ghostwhite" stroke="lightslategrey" d="M809.75,-443.5C809.75,-443.5 935.5,-443.5 935.5,-443.5 941.5,-443.5 947.5,-449.5 947.5,-455.5 947.5,-455.5 947.5,-494.75 947.5,-494.75 947.5,-500.75 941.5,-506.75 935.5,-506.75 935.5,-506.75 809.75,-506.75 809.75,-506.75 803.75,-506.75 797.75,-500.75 797.75,-494.75 797.75,-494.75 797.75,-455.5 797.75,-455.5 797.75,-449.5 803.75,-443.5 809.75,-443.5"/>
<text text-anchor="middle" x="824.12" y="-481.57" font-family="Times New Roman,serif" font-size="14.00">KB&#45;19</text>
<polyline fill="none" stroke="lightslategrey" points="850.5,-467.25 850.5,-506.75"/>
<text text-anchor="middle" x="899" y="-489.45" font-family="Times New Roman,serif" font-size="14.00">Start Stop</text>
<text text-anchor="middle" x="899" y="-473.7" font-family="Times New Roman,serif" font-size="14.00">Clean &amp; Press</text>
<polyline fill="none" stroke="lightslategrey" points="797.75,-467.25 947.5,-467.25"/>
<text text-anchor="middle" x="872.62" y="-449.95" font-family="Times New Roman,serif" font-size="14.00">START &amp; END C&amp;P</text>
</a>
</g>
</g>
<!-- mov_17_cap&#45;&gt;mov_19_startstopcap -->
<g id="edge6" class="edge">
<title>mov_17_cap&#45;&gt;mov_19_startstopcap</title>
<path fill="none" stroke="black" d="M1272.94,-556.92C1257.56,-548.79 1238.17,-539.91 1219.62,-535.25 1143.23,-516.07 1120.28,-539.36 1042.62,-526.12 1014.9,-521.4 985.31,-513.68 958.71,-505.7"/>
<polygon fill="black" stroke="black" points="959.93,-502.41 949.34,-502.83 957.88,-509.1 959.93,-502.41"/>
</g>
<!-- mov_65_dblcap -->
<g id="node18" class="node">
<title>mov_65_dblcap</title>
<g id="a_node18"><a xlink:href="https://www.youtube.com/watch?v=RizGV8ef--s" xlink:title="{{65|Double\nClean &amp; Press}}">
<path fill="#ffff99" stroke="#b15928" d="M576.38,-349.25C576.38,-349.25 678.88,-349.25 678.88,-349.25 684.88,-349.25 690.88,-355.25 690.88,-361.25 690.88,-361.25 690.88,-376.75 690.88,-376.75 690.88,-382.75 684.88,-388.75 678.88,-388.75 678.88,-388.75 576.38,-388.75 576.38,-388.75 570.38,-388.75 564.38,-382.75 564.38,-376.75 564.38,-376.75 564.38,-361.25 564.38,-361.25 564.38,-355.25 570.38,-349.25 576.38,-349.25"/>
<text text-anchor="middle" x="579.12" y="-363.57" font-family="Times New Roman,serif" font-size="14.00">65</text>
<polyline fill="none" stroke="#b15928" points="593.88,-349.25 593.88,-388.75"/>
<text text-anchor="middle" x="642.38" y="-371.45" font-family="Times New Roman,serif" font-size="14.00">Double</text>
<text text-anchor="middle" x="642.38" y="-355.7" font-family="Times New Roman,serif" font-size="14.00">Clean &amp; Press</text>
</a>
</g>
</g>
<!-- mov_19_startstopcap&#45;&gt;mov_65_dblcap -->
<g id="edge9" class="edge">
<title>mov_19_startstopcap&#45;&gt;mov_65_dblcap</title>
<path fill="none" stroke="black" d="M799.45,-443.03C762.14,-427.17 717.49,-408.19 683.07,-393.56"/>
<polygon fill="black" stroke="black" points="684.69,-390.45 674.12,-389.76 681.96,-396.89 684.69,-390.45"/>
</g>
<!-- mov_57_dblsuitcase -->
<g id="node10" class="node">
<title>mov_57_dblsuitcase</title>
<g id="a_node10"><a xlink:href="https://www.youtube.com/watch?v=4PSOSrDcGfc&amp;list=PLk4oYPJ7TXKhX8YqA2AVrfgs_pEF6p7KA&amp;index=59" xlink:title="{{57|Double Suitcase}}">
<path fill="#ffff99" stroke="#b15928" d="M556.5,-722.25C556.5,-722.25 668.75,-722.25 668.75,-722.25 674.75,-722.25 680.75,-728.25 680.75,-734.25 680.75,-734.25 680.75,-746.25 680.75,-746.25 680.75,-752.25 674.75,-758.25 668.75,-758.25 668.75,-758.25 556.5,-758.25 556.5,-758.25 550.5,-758.25 544.5,-752.25 544.5,-746.25 544.5,-746.25 544.5,-734.25 544.5,-734.25 544.5,-728.25 550.5,-722.25 556.5,-722.25"/>
<text text-anchor="middle" x="559.25" y="-734.95" font-family="Times New Roman,serif" font-size="14.00">57</text>
<polyline fill="none" stroke="#b15928" points="574,-722.5 574,-758.25"/>
<text text-anchor="middle" x="627.38" y="-734.95" font-family="Times New Roman,serif" font-size="14.00">Double Suitcase</text>
</a>
</g>
</g>
<!-- mov_56_suitcasedl&#45;&gt;mov_57_dblsuitcase -->
<g id="edge11" class="edge">
<title>mov_56_suitcasedl&#45;&gt;mov_57_dblsuitcase</title>
<path fill="none" stroke="black" d="M873.83,-800.83C820.78,-788.73 747.73,-772.07 692.36,-759.44"/>
<polygon fill="black" stroke="black" points="693.19,-756.04 682.66,-757.23 691.63,-762.86 693.19,-756.04"/>
</g>
<!-- mov_73_2hsbldl -->
<g id="node25" class="node">
<title>mov_73_2hsbldl</title>
<g id="a_node25"><a xlink:href="https://www.youtube.com/watch?v=-RD1qqe7P8M" xlink:title="{{73|Two Hand Single\nBent Leg Deadlift}}">
<path fill="#ffff99" stroke="#b15928" d="M889.12,-720.5C889.12,-720.5 1008.12,-720.5 1008.12,-720.5 1014.12,-720.5 1020.12,-726.5 1020.12,-732.5 1020.12,-732.5 1020.12,-748 1020.12,-748 1020.12,-754 1014.12,-760 1008.12,-760 1008.12,-760 889.12,-760 889.12,-760 883.12,-760 877.12,-754 877.12,-748 877.12,-748 877.12,-732.5 877.12,-732.5 877.12,-726.5 883.12,-720.5 889.12,-720.5"/>
<text text-anchor="middle" x="891.88" y="-734.83" font-family="Times New Roman,serif" font-size="14.00">73</text>
<polyline fill="none" stroke="#b15928" points="906.62,-720.5 906.62,-760"/>
<text text-anchor="middle" x="963.38" y="-742.7" font-family="Times New Roman,serif" font-size="14.00">Two Hand Single</text>
<text text-anchor="middle" x="963.38" y="-726.95" font-family="Times New Roman,serif" font-size="14.00">Bent Leg Deadlift</text>
</a>
</g>
</g>
<!-- mov_56_suitcasedl&#45;&gt;mov_73_2hsbldl -->
<g id="edge12" class="edge">
<title>mov_56_suitcasedl&#45;&gt;mov_73_2hsbldl</title>
<path fill="none" stroke="black" d="M944.76,-799.62C945.3,-791.42 945.97,-781.35 946.6,-771.9"/>
<polygon fill="black" stroke="black" points="950.09,-772.16 947.25,-761.95 943.1,-771.7 950.09,-772.16"/>
</g>
<!-- mov_58_dblsumodl -->
<g id="node11" class="node">
<title>mov_58_dblsumodl</title>
<g id="a_node11"><a xlink:href="https://www.youtube.com/watch?v=gdutIla6nMw" xlink:title="{{58|Double Sumo Deadlift}}">
<path fill="#ffff99" stroke="#b15928" d="M530.62,-645.75C530.62,-645.75 676.62,-645.75 676.62,-645.75 682.62,-645.75 688.62,-651.75 688.62,-657.75 688.62,-657.75 688.62,-669.75 688.62,-669.75 688.62,-675.75 682.62,-681.75 676.62,-681.75 676.62,-681.75 530.62,-681.75 530.62,-681.75 524.62,-681.75 518.62,-675.75 518.62,-669.75 518.62,-669.75 518.62,-657.75 518.62,-657.75 518.62,-651.75 524.62,-645.75 530.62,-645.75"/>
<text text-anchor="middle" x="533.38" y="-658.45" font-family="Times New Roman,serif" font-size="14.00">58</text>
<polyline fill="none" stroke="#b15928" points="548.12,-646 548.12,-681.75"/>
<text text-anchor="middle" x="618.38" y="-658.45" font-family="Times New Roman,serif" font-size="14.00">Double Sumo Deadlift</text>
</a>
</g>
</g>
<!-- mov_57_dblsuitcase&#45;&gt;mov_58_dblsumodl -->
<g id="edge16" class="edge">
<title>mov_57_dblsuitcase&#45;&gt;mov_58_dblsumodl</title>
<path fill="none" stroke="black" d="M610.54,-721.97C609.51,-713.48 608.25,-703.01 607.08,-693.37"/>
<polygon fill="black" stroke="black" points="610.59,-693.2 605.91,-683.7 603.64,-694.04 610.59,-693.2"/>
</g>
<!-- mov_58_dblsumodl&#45;&gt;mov_60_dblswing -->
<g id="edge22" class="edge">
<title>mov_58_dblsumodl&#45;&gt;mov_60_dblswing</title>
<path fill="none" stroke="black" d="M603.62,-645.27C603.62,-633.8 603.62,-618.52 603.62,-605.26"/>
<polygon fill="black" stroke="black" points="607.13,-605.34 603.63,-595.34 600.13,-605.34 607.13,-605.34"/>
</g>
<!-- mov_61_halfsnatchup -->
<g id="node14" class="node">
<title>mov_61_halfsnatchup</title>
<g id="a_node14"><a xlink:href="https://www.youtube.com/watch?v=3HEmUyLYjjc" xlink:title="{{61|Half Snatch Up}}">
<path fill="#ffff99" stroke="#b15928" d="M1075.75,-351C1075.75,-351 1183.5,-351 1183.5,-351 1189.5,-351 1195.5,-357 1195.5,-363 1195.5,-363 1195.5,-375 1195.5,-375 1195.5,-381 1189.5,-387 1183.5,-387 1183.5,-387 1075.75,-387 1075.75,-387 1069.75,-387 1063.75,-381 1063.75,-375 1063.75,-375 1063.75,-363 1063.75,-363 1063.75,-357 1069.75,-351 1075.75,-351"/>
<text text-anchor="middle" x="1078.5" y="-363.7" font-family="Times New Roman,serif" font-size="14.00">61</text>
<polyline fill="none" stroke="#b15928" points="1093.25,-351.25 1093.25,-387"/>
<text text-anchor="middle" x="1144.38" y="-363.7" font-family="Times New Roman,serif" font-size="14.00">Half Snatch Up</text>
</a>
</g>
</g>
<!-- mov_59_halfsnatchdown&#45;&gt;mov_61_halfsnatchup -->
<g id="edge26" class="edge">
<title>mov_59_halfsnatchdown&#45;&gt;mov_61_halfsnatchup</title>
<path fill="none" stroke="black" d="M1129.62,-456.93C1129.62,-441.1 1129.62,-417.32 1129.62,-398.63"/>
<polygon fill="black" stroke="black" points="1133.13,-398.73 1129.63,-388.73 1126.13,-398.73 1133.13,-398.73"/>
</g>
<!-- mov_60_dblswing&#45;&gt;mov_62_dblclean -->
<g id="edge17" class="edge">
<title>mov_60_dblswing&#45;&gt;mov_62_dblclean</title>
<path fill="none" stroke="black" d="M603.62,-557.26C603.62,-542.7 603.62,-521.49 603.62,-504.41"/>
<polygon fill="black" stroke="black" points="607.13,-504.89 603.63,-494.89 600.13,-504.89 607.13,-504.89"/>
</g>
<!-- mov_64_dbloutswing -->
<g id="node17" class="node">
<title>mov_64_dbloutswing</title>
<g id="a_node17"><a xlink:href="https://www.youtube.com/watch?v=yr_fRgGevsE" xlink:title="{{64|Double\nOutside Swing}}">
<path fill="#ffff99" stroke="#b15928" d="M287,-455.38C287,-455.38 390.25,-455.38 390.25,-455.38 396.25,-455.38 402.25,-461.38 402.25,-467.38 402.25,-467.38 402.25,-482.88 402.25,-482.88 402.25,-488.88 396.25,-494.88 390.25,-494.88 390.25,-494.88 287,-494.88 287,-494.88 281,-494.88 275,-488.88 275,-482.88 275,-482.88 275,-467.38 275,-467.38 275,-461.38 281,-455.38 287,-455.38"/>
<text text-anchor="middle" x="289.75" y="-469.7" font-family="Times New Roman,serif" font-size="14.00">64</text>
<polyline fill="none" stroke="#b15928" points="304.5,-455.38 304.5,-494.88"/>
<text text-anchor="middle" x="353.38" y="-477.57" font-family="Times New Roman,serif" font-size="14.00">Double</text>
<text text-anchor="middle" x="353.38" y="-461.82" font-family="Times New Roman,serif" font-size="14.00">Outside Swing</text>
</a>
</g>
</g>
<!-- mov_60_dblswing&#45;&gt;mov_64_dbloutswing -->
<g id="edge23" class="edge">
<title>mov_60_dblswing&#45;&gt;mov_64_dbloutswing</title>
<path fill="none" stroke="black" d="M556.55,-556.92C513.14,-540.83 448.38,-516.82 400.74,-499.15"/>
<polygon fill="black" stroke="black" points="402.25,-495.98 391.66,-495.79 399.82,-502.55 402.25,-495.98"/>
</g>
<!-- mov_66_snatch -->
<g id="node19" class="node">
<title>mov_66_snatch</title>
<g id="a_node19"><a xlink:href="https://www.youtube.com/watch?v=f-zkPiAlpQw&amp;list=PLk4oYPJ7TXKhX8YqA2AVrfgs_pEF6p7KA&amp;index=65" xlink:title="{{66|Full Snatch}}">
<path fill="#ffff99" stroke="#b15928" d="M1087.38,-256.75C1087.38,-256.75 1171.88,-256.75 1171.88,-256.75 1177.88,-256.75 1183.88,-262.75 1183.88,-268.75 1183.88,-268.75 1183.88,-280.75 1183.88,-280.75 1183.88,-286.75 1177.88,-292.75 1171.88,-292.75 1171.88,-292.75 1087.38,-292.75 1087.38,-292.75 1081.38,-292.75 1075.38,-286.75 1075.38,-280.75 1075.38,-280.75 1075.38,-268.75 1075.38,-268.75 1075.38,-262.75 1081.38,-256.75 1087.38,-256.75"/>
<text text-anchor="middle" x="1090.12" y="-269.45" font-family="Times New Roman,serif" font-size="14.00">66</text>
<polyline fill="none" stroke="#b15928" points="1104.88,-257 1104.88,-292.75"/>
<text text-anchor="middle" x="1144.38" y="-269.45" font-family="Times New Roman,serif" font-size="14.00">Full Snatch</text>
</a>
</g>
</g>
<!-- mov_61_halfsnatchup&#45;&gt;mov_66_snatch -->
<g id="edge27" class="edge">
<title>mov_61_halfsnatchup&#45;&gt;mov_66_snatch</title>
<path fill="none" stroke="black" d="M1129.62,-350.65C1129.62,-337.63 1129.62,-319.53 1129.62,-304.38"/>
<polygon fill="black" stroke="black" points="1133.13,-304.54 1129.63,-294.54 1126.13,-304.54 1133.13,-304.54"/>
</g>
<!-- mov_62_dblclean&#45;&gt;mov_65_dblcap -->
<g id="edge18" class="edge">
<title>mov_62_dblclean&#45;&gt;mov_65_dblcap</title>
<path fill="none" stroke="black" d="M607.59,-456.93C611.14,-441.51 616.44,-418.52 620.7,-400.06"/>
<polygon fill="black" stroke="black" points="624.07,-400.99 622.91,-390.46 617.25,-399.42 624.07,-400.99"/>
</g>
<!-- mov_67_dblsquat -->
<g id="node20" class="node">
<title>mov_67_dblsquat</title>
<g id="a_node20"><a xlink:href="https://www.youtube.com/watch?v=dX5yXJa5Dm0&amp;list=PLk4oYPJ7TXKhX8YqA2AVrfgs_pEF6p7KA&amp;index=66" xlink:title="{{67|Double\nFront Squat}}">
<path fill="#ffff99" stroke="#b15928" d="M446.5,-349.25C446.5,-349.25 534.75,-349.25 534.75,-349.25 540.75,-349.25 546.75,-355.25 546.75,-361.25 546.75,-361.25 546.75,-376.75 546.75,-376.75 546.75,-382.75 540.75,-388.75 534.75,-388.75 534.75,-388.75 446.5,-388.75 446.5,-388.75 440.5,-388.75 434.5,-382.75 434.5,-376.75 434.5,-376.75 434.5,-361.25 434.5,-361.25 434.5,-355.25 440.5,-349.25 446.5,-349.25"/>
<text text-anchor="middle" x="449.25" y="-363.57" font-family="Times New Roman,serif" font-size="14.00">67</text>
<polyline fill="none" stroke="#b15928" points="464,-349.25 464,-388.75"/>
<text text-anchor="middle" x="505.38" y="-371.45" font-family="Times New Roman,serif" font-size="14.00">Double</text>
<text text-anchor="middle" x="505.38" y="-355.7" font-family="Times New Roman,serif" font-size="14.00">Front Squat</text>
</a>
</g>
</g>
<!-- mov_62_dblclean&#45;&gt;mov_67_dblsquat -->
<g id="edge19" class="edge">
<title>mov_62_dblclean&#45;&gt;mov_67_dblsquat</title>
<path fill="none" stroke="black" d="M584.71,-456.7C566.9,-440.28 539.97,-415.47 519.47,-396.58"/>
<polygon fill="black" stroke="black" points="521.97,-394.12 512.24,-389.92 517.23,-399.27 521.97,-394.12"/>
</g>
<!-- mov_71_deaddblclean -->
<g id="node24" class="node">
<title>mov_71_deaddblclean</title>
<g id="a_node24"><a xlink:href="https://www.youtube.com/watch?v=22bKQqMqAQY" xlink:title="{{71|Dead Stop\nDouble Clean}}">
<path fill="#ffff99" stroke="#b15928" d="M307,-349.25C307,-349.25 404.25,-349.25 404.25,-349.25 410.25,-349.25 416.25,-355.25 416.25,-361.25 416.25,-361.25 416.25,-376.75 416.25,-376.75 416.25,-382.75 410.25,-388.75 404.25,-388.75 404.25,-388.75 307,-388.75 307,-388.75 301,-388.75 295,-382.75 295,-376.75 295,-376.75 295,-361.25 295,-361.25 295,-355.25 301,-349.25 307,-349.25"/>
<text text-anchor="middle" x="309.75" y="-363.57" font-family="Times New Roman,serif" font-size="14.00">71</text>
<polyline fill="none" stroke="#b15928" points="324.5,-349.25 324.5,-388.75"/>
<text text-anchor="middle" x="370.38" y="-371.45" font-family="Times New Roman,serif" font-size="14.00">Dead Stop</text>
<text text-anchor="middle" x="370.38" y="-355.7" font-family="Times New Roman,serif" font-size="14.00">Double Clean</text>
</a>
</g>
</g>
<!-- mov_62_dblclean&#45;&gt;mov_71_deaddblclean -->
<g id="edge21" class="edge">
<title>mov_62_dblclean&#45;&gt;mov_71_deaddblclean</title>
<path fill="none" stroke="black" d="M552.3,-456.7C516.36,-444.03 467.48,-425.86 425.62,-407 417.16,-403.19 408.29,-398.81 399.82,-394.43"/>
<polygon fill="black" stroke="black" points="401.55,-391.39 391.07,-389.83 398.3,-397.58 401.55,-391.39"/>
</g>
<!-- mov_64_dbloutswing&#45;&gt;mov_63_dblrockit -->
<g id="edge15" class="edge">
<title>mov_64_dbloutswing&#45;&gt;mov_63_dblrockit</title>
<path fill="none" stroke="black" d="M315.7,-455.03C295.26,-438 265.22,-412.98 243.02,-394.48"/>
<polygon fill="black" stroke="black" points="245.42,-391.93 235.49,-388.22 240.94,-397.31 245.42,-391.93"/>
</g>
<!-- mov_76_dblhangcap -->
<g id="node28" class="node">
<title>mov_76_dblhangcap</title>
<g id="a_node28"><a xlink:href="https://www.youtube.com/watch?v=ieDA4V9WGNQ" xlink:title="{{76|Double Dead Hang\nClean &amp; Press}}">
<path fill="#ffff99" stroke="#b15928" d="M550.62,-255C550.62,-255 678.62,-255 678.62,-255 684.62,-255 690.62,-261 690.62,-267 690.62,-267 690.62,-282.5 690.62,-282.5 690.62,-288.5 684.62,-294.5 678.62,-294.5 678.62,-294.5 550.62,-294.5 550.62,-294.5 544.62,-294.5 538.62,-288.5 538.62,-282.5 538.62,-282.5 538.62,-267 538.62,-267 538.62,-261 544.62,-255 550.62,-255"/>
<text text-anchor="middle" x="553.38" y="-269.32" font-family="Times New Roman,serif" font-size="14.00">76</text>
<polyline fill="none" stroke="#b15928" points="568.12,-255 568.12,-294.5"/>
<text text-anchor="middle" x="629.38" y="-277.2" font-family="Times New Roman,serif" font-size="14.00">Double Dead Hang</text>
<text text-anchor="middle" x="629.38" y="-261.45" font-family="Times New Roman,serif" font-size="14.00">Clean &amp; Press</text>
</a>
</g>
</g>
<!-- mov_65_dblcap&#45;&gt;mov_76_dblhangcap -->
<g id="edge25" class="edge">
<title>mov_65_dblcap&#45;&gt;mov_76_dblhangcap</title>
<path fill="none" stroke="black" d="M624.93,-348.89C623.19,-336.52 620.88,-320.15 618.89,-306.03"/>
<polygon fill="black" stroke="black" points="622.39,-305.75 617.53,-296.34 615.46,-306.73 622.39,-305.75"/>
</g>
<!-- mov_69_snatchpress -->
<g id="node22" class="node">
<title>mov_69_snatchpress</title>
<g id="a_node22"><a xlink:href="https://www.youtube.com/watch?v=IzFPa_Q1yHM&amp;list=PLk4oYPJ7TXKhX8YqA2AVrfgs_pEF6p7KA&amp;index=67" xlink:title="{{69|Snatch Press}}">
<path fill="#ffff99" stroke="#b15928" d="M1066.5,-180.25C1066.5,-180.25 1160.75,-180.25 1160.75,-180.25 1166.75,-180.25 1172.75,-186.25 1172.75,-192.25 1172.75,-192.25 1172.75,-204.25 1172.75,-204.25 1172.75,-210.25 1166.75,-216.25 1160.75,-216.25 1160.75,-216.25 1066.5,-216.25 1066.5,-216.25 1060.5,-216.25 1054.5,-210.25 1054.5,-204.25 1054.5,-204.25 1054.5,-192.25 1054.5,-192.25 1054.5,-186.25 1060.5,-180.25 1066.5,-180.25"/>
<text text-anchor="middle" x="1069.25" y="-192.95" font-family="Times New Roman,serif" font-size="14.00">69</text>
<polyline fill="none" stroke="#b15928" points="1084,-180.5 1084,-216.25"/>
<text text-anchor="middle" x="1128.38" y="-192.95" font-family="Times New Roman,serif" font-size="14.00">Snatch Press</text>
</a>
</g>
</g>
<!-- mov_66_snatch&#45;&gt;mov_69_snatchpress -->
<g id="edge28" class="edge">
<title>mov_66_snatch&#45;&gt;mov_69_snatchpress</title>
<path fill="none" stroke="black" d="M1125.91,-256.47C1124.09,-247.98 1121.84,-237.51 1119.77,-227.87"/>
<polygon fill="black" stroke="black" points="1123.21,-227.22 1117.69,-218.17 1116.37,-228.69 1123.21,-227.22"/>
</g>
<!-- mov_70_kneelsnatchup -->
<g id="node23" class="node">
<title>mov_70_kneelsnatchup</title>
<g id="a_node23"><a xlink:href="https://www.youtube.com/watch?v=1_UrK5SopL4" xlink:title="{{70|Half&#45;Kneeling Snatch Up}}">
<path fill="#ffff99" stroke="#b15928" d="M1202.5,-180.25C1202.5,-180.25 1362.75,-180.25 1362.75,-180.25 1368.75,-180.25 1374.75,-186.25 1374.75,-192.25 1374.75,-192.25 1374.75,-204.25 1374.75,-204.25 1374.75,-210.25 1368.75,-216.25 1362.75,-216.25 1362.75,-216.25 1202.5,-216.25 1202.5,-216.25 1196.5,-216.25 1190.5,-210.25 1190.5,-204.25 1190.5,-204.25 1190.5,-192.25 1190.5,-192.25 1190.5,-186.25 1196.5,-180.25 1202.5,-180.25"/>
<text text-anchor="middle" x="1205.25" y="-192.95" font-family="Times New Roman,serif" font-size="14.00">70</text>
<polyline fill="none" stroke="#b15928" points="1220,-180.5 1220,-216.25"/>
<text text-anchor="middle" x="1297.38" y="-192.95" font-family="Times New Roman,serif" font-size="14.00">Half&#45;Kneeling Snatch Up</text>
</a>
</g>
</g>
<!-- mov_66_snatch&#45;&gt;mov_70_kneelsnatchup -->
<g id="edge29" class="edge">
<title>mov_66_snatch&#45;&gt;mov_70_kneelsnatchup</title>
<path fill="none" stroke="black" d="M1165.5,-256.28C1186.71,-245.95 1213.8,-232.76 1236.59,-221.67"/>
<polygon fill="black" stroke="black" points="1237.89,-224.92 1245.35,-217.4 1234.83,-218.63 1237.89,-224.92"/>
</g>
<!-- mov_68_dblclean2squat -->
<g id="node21" class="node">
<title>mov_68_dblclean2squat</title>
<g id="a_node21"><a xlink:href="https://www.youtube.com/watch?v=R3s6Wb_ApHM" xlink:title="{{68|Double Clean\nto Front Squat}}">
<path fill="#ffff99" stroke="#b15928" d="M405,-255C405,-255 508.25,-255 508.25,-255 514.25,-255 520.25,-261 520.25,-267 520.25,-267 520.25,-282.5 520.25,-282.5 520.25,-288.5 514.25,-294.5 508.25,-294.5 508.25,-294.5 405,-294.5 405,-294.5 399,-294.5 393,-288.5 393,-282.5 393,-282.5 393,-267 393,-267 393,-261 399,-255 405,-255"/>
<text text-anchor="middle" x="407.75" y="-269.32" font-family="Times New Roman,serif" font-size="14.00">68</text>
<polyline fill="none" stroke="#b15928" points="422.5,-255 422.5,-294.5"/>
<text text-anchor="middle" x="471.38" y="-277.2" font-family="Times New Roman,serif" font-size="14.00">Double Clean</text>
<text text-anchor="middle" x="471.38" y="-261.45" font-family="Times New Roman,serif" font-size="14.00">to Front Squat</text>
</a>
</g>
</g>
<!-- mov_67_dblsquat&#45;&gt;mov_68_dblclean2squat -->
<g id="edge20" class="edge">
<title>mov_67_dblsquat&#45;&gt;mov_68_dblclean2squat</title>
<path fill="none" stroke="black" d="M483.58,-348.89C478.98,-336.39 472.87,-319.82 467.63,-305.61"/>
<polygon fill="black" stroke="black" points="470.93,-304.43 464.18,-296.26 464.36,-306.85 470.93,-304.43"/>
</g>
<!-- mov_74_dblhangclean2squat -->
<g id="node26" class="node">
<title>mov_74_dblhangclean2squat</title>
<g id="a_node26"><a xlink:href="https://www.youtube.com/watch?v=SdPEkv56Lt8" xlink:title="{{74|Double Hang Clean\nTo Squat}}">
<path fill="#ffff99" stroke="#b15928" d="M391.5,-178.5C391.5,-178.5 521.75,-178.5 521.75,-178.5 527.75,-178.5 533.75,-184.5 533.75,-190.5 533.75,-190.5 533.75,-206 533.75,-206 533.75,-212 527.75,-218 521.75,-218 521.75,-218 391.5,-218 391.5,-218 385.5,-218 379.5,-212 379.5,-206 379.5,-206 379.5,-190.5 379.5,-190.5 379.5,-184.5 385.5,-178.5 391.5,-178.5"/>
<text text-anchor="middle" x="394.25" y="-192.82" font-family="Times New Roman,serif" font-size="14.00">74</text>
<polyline fill="none" stroke="#b15928" points="409,-178.5 409,-218"/>
<text text-anchor="middle" x="471.38" y="-200.7" font-family="Times New Roman,serif" font-size="14.00">Double Hang Clean</text>
<text text-anchor="middle" x="471.38" y="-184.95" font-family="Times New Roman,serif" font-size="14.00">To Squat</text>
</a>
</g>
</g>
<!-- mov_68_dblclean2squat&#45;&gt;mov_74_dblhangclean2squat -->
<g id="edge24" class="edge">
<title>mov_68_dblclean2squat&#45;&gt;mov_74_dblhangclean2squat</title>
<path fill="none" stroke="black" d="M456.62,-254.56C456.62,-247 456.62,-238.13 456.62,-229.74"/>
<polygon fill="black" stroke="black" points="460.13,-229.88 456.63,-219.88 453.13,-229.88 460.13,-229.88"/>
</g>
<!-- mov_75_2hssldl -->
<g id="node27" class="node">
<title>mov_75_2hssldl</title>
<g id="a_node27"><a xlink:href="https://www.youtube.com/watch?v=tMt2hzfFGzo" xlink:title="{{75|Two Hand Single\nStraight Leg Deadlift}}">
<path fill="#ffff99" stroke="#b15928" d="M884.5,-644C884.5,-644 1020.75,-644 1020.75,-644 1026.75,-644 1032.75,-650 1032.75,-656 1032.75,-656 1032.75,-671.5 1032.75,-671.5 1032.75,-677.5 1026.75,-683.5 1020.75,-683.5 1020.75,-683.5 884.5,-683.5 884.5,-683.5 878.5,-683.5 872.5,-677.5 872.5,-671.5 872.5,-671.5 872.5,-656 872.5,-656 872.5,-650 878.5,-644 884.5,-644"/>
<text text-anchor="middle" x="887.25" y="-658.33" font-family="Times New Roman,serif" font-size="14.00">75</text>
<polyline fill="none" stroke="#b15928" points="902,-644 902,-683.5"/>
<text text-anchor="middle" x="967.38" y="-666.2" font-family="Times New Roman,serif" font-size="14.00">Two Hand Single</text>
<text text-anchor="middle" x="967.38" y="-650.45" font-family="Times New Roman,serif" font-size="14.00">Straight Leg Deadlift</text>
</a>
</g>
</g>
<!-- mov_73_2hsbldl&#45;&gt;mov_75_2hssldl -->
<g id="edge13" class="edge">
<title>mov_73_2hsbldl&#45;&gt;mov_75_2hssldl</title>
<path fill="none" stroke="black" d="M949.66,-720.06C950.06,-712.5 950.54,-703.63 950.99,-695.24"/>
<polygon fill="black" stroke="black" points="954.48,-695.56 951.52,-685.38 947.49,-695.18 954.48,-695.56"/>
</g>
<!-- mov_77_shsldl -->
<g id="node29" class="node">
<title>mov_77_shsldl</title>
<g id="a_node29"><a xlink:href="https://www.youtube.com/watch?v=1K4hgXfUinU" xlink:title="{{77|Single Hand\nSingle Leg Deadlift}|ONE&#45;SIDE BALANCE}">
<path fill="#ffff99" stroke="#b15928" d="M889,-543.75C889,-543.75 1016.25,-543.75 1016.25,-543.75 1022.25,-543.75 1028.25,-549.75 1028.25,-555.75 1028.25,-555.75 1028.25,-595 1028.25,-595 1028.25,-601 1022.25,-607 1016.25,-607 1016.25,-607 889,-607 889,-607 883,-607 877,-601 877,-595 877,-595 877,-555.75 877,-555.75 877,-549.75 883,-543.75 889,-543.75"/>
<text text-anchor="middle" x="891.75" y="-581.83" font-family="Times New Roman,serif" font-size="14.00">77</text>
<polyline fill="none" stroke="#b15928" points="906.5,-567.5 906.5,-607"/>
<text text-anchor="middle" x="967.38" y="-589.7" font-family="Times New Roman,serif" font-size="14.00">Single Hand</text>
<text text-anchor="middle" x="967.38" y="-573.95" font-family="Times New Roman,serif" font-size="14.00">Single Leg Deadlift</text>
<polyline fill="none" stroke="#b15928" points="877,-567.5 1028.25,-567.5"/>
<text text-anchor="middle" x="952.62" y="-550.2" font-family="Times New Roman,serif" font-size="14.00">ONE&#45;SIDE BALANCE</text>
</a>
</g>
</g>
<!-- mov_75_2hssldl&#45;&gt;mov_77_shsldl -->
<g id="edge14" class="edge">
<title>mov_75_2hssldl&#45;&gt;mov_77_shsldl</title>
<path fill="none" stroke="black" d="M952.62,-643.58C952.62,-636.19 952.62,-627.41 952.62,-618.69"/>
<polygon fill="black" stroke="black" points="956.13,-618.88 952.63,-608.88 949.13,-618.88 956.13,-618.88"/>
</g>
<!-- Legend -->
<g id="node30" class="node">
<title>Legend</title>
<path fill="#ffff99" stroke="none" d="M1572.12,-407C1572.12,-407 1403.12,-407 1403.12,-407 1397.12,-407 1391.12,-401 1391.12,-395 1391.12,-395 1391.12,-343 1391.12,-343 1391.12,-337 1397.12,-331 1403.12,-331 1403.12,-331 1572.12,-331 1572.12,-331 1578.12,-331 1584.12,-337 1584.12,-343 1584.12,-343 1584.12,-395 1584.12,-395 1584.12,-401 1578.12,-407 1572.12,-407"/>
<polygon fill="none" stroke="#b15928" points="1391.12,-381 1391.12,-407 1584.12,-407 1584.12,-381 1391.12,-381"/>
<text text-anchor="start" x="1465.12" y="-389.7" font-family="Times New Roman,serif" font-weight="bold" font-size="14.00">Legend</text>
<polygon fill="none" stroke="#b15928" points="1391.12,-356 1391.12,-381 1556.12,-381 1556.12,-356 1391.12,-356"/>
<text text-anchor="start" x="1396" y="-362.7" font-family="Times New Roman,serif" font-size="14.00">Prerequisites and next steps</text>
<polygon fill="ghostwhite" stroke="none" points="1556.12,-356 1556.12,-381 1584.12,-381 1584.12,-356 1556.12,-356"/>
<polygon fill="none" stroke="#b15928" points="1556.12,-356 1556.12,-381 1584.12,-381 1584.12,-356 1556.12,-356"/>
<text text-anchor="start" x="1560.75" y="-362.7" font-family="Times New Roman,serif" font-size="14.00">     </text>
<polygon fill="none" stroke="#b15928" points="1391.12,-331 1391.12,-356 1556.12,-356 1556.12,-331 1391.12,-331"/>
<text text-anchor="start" x="1459" y="-337.7" font-family="Times New Roman,serif" font-size="14.00">Drills</text>
<polygon fill="#ffff99" stroke="none" points="1556.12,-331 1556.12,-356 1584.12,-356 1584.12,-331 1556.12,-331"/>
<polygon fill="none" stroke="#b15928" points="1556.12,-331 1556.12,-356 1584.12,-356 1584.12,-331 1556.12,-331"/>
</g>
</g>
</svg>
