<?xml version="1.0" encoding="UTF-8" standalone="no"?>
<!DOCTYPE svg PUBLIC "-//W3C//DTD SVG 1.1//EN"
 "http://www.w3.org/Graphics/SVG/1.1/DTD/svg11.dtd">
<!-- Generated by graphviz version 9.0.0 (20230911.1827)
 -->
<!-- Title: kb_progression Pages: 1 -->
<svg width="892pt" height="1212pt"
 viewBox="0.00 0.00 891.88 1211.50" xmlns="http://www.w3.org/2000/svg" xmlns:xlink="http://www.w3.org/1999/xlink">
<g id="graph0" class="graph" transform="scale(1 1) rotate(0) translate(4 1207.5)">
<title>kb_progression</title>
<polygon fill="white" stroke="none" points="-4,4 -4,-1207.5 887.88,-1207.5 887.88,4 -4,4"/>
<text text-anchor="start" x="484.38" y="-145.7" font-family="Helvetica,Arial,sans-serif" font-weight="bold" font-size="14.00">Kettlebell Basic Skill Progression &#45; Part 1/4</text>
<text text-anchor="start" x="484.38" y="-117.7" font-family="Helvetica,Arial,sans-serif" font-size="14.00">Diagram by dznz based on Mark Wildman&#39;s teachings.</text>
<text text-anchor="start" x="484.38" y="-89.7" font-family="Helvetica,Arial,sans-serif" font-size="14.00">Source: </text>
<text text-anchor="start" x="537.62" y="-89.7" font-family="Helvetica,Arial,sans-serif" font-weight="bold" font-size="14.00">https://github.com/dznz/wildman&#45;skill&#45;trees</text>
<text text-anchor="start" x="484.38" y="-61.7" font-family="Helvetica,Arial,sans-serif" font-size="14.00">More by Mark Wildman &#45; </text>
<text text-anchor="start" x="640.38" y="-61.7" font-family="Helvetica,Arial,sans-serif" font-weight="bold" font-size="14.00">https://www.wildmanathletica.com</text>
<text text-anchor="start" x="484.38" y="-33.7" font-family="Helvetica,Arial,sans-serif" font-style="italic" font-size="14.00">© 2023. This work is openly licensed with CC BY&#45;NC&#45;SA 4.0</text>
<text text-anchor="start" x="552.62" y="-19.7" font-family="Helvetica,Arial,sans-serif" font-style="italic" font-size="14.00">http://creativecommons.org/licenses/by&#45;nc&#45;sa/4.0/</text>
<text text-anchor="start" x="676.38" y="-5.7" font-family="Helvetica,Arial,sans-serif" font-size="14.00"> &#160;</text>
<!-- mov_03_atw -->
<g id="node1" class="node">
<title>mov_03_atw</title>
<g id="a_node1"><a xlink:href="https://www.youtube.com/watch?v=XaegZzSbtr0&amp;list=PLk4oYPJ7TXKhX8YqA2AVrfgs_pEF6p7KA&amp;index=3" xlink:title="{{03|Around the World}|HAND TRANSITION}">
<path fill="#fdbf6f" stroke="#ff7f00" d="M95,-1063.12C95,-1063.12 219.25,-1063.12 219.25,-1063.12 225.25,-1063.12 231.25,-1069.12 231.25,-1075.12 231.25,-1075.12 231.25,-1098.62 231.25,-1098.62 231.25,-1104.62 225.25,-1110.62 219.25,-1110.62 219.25,-1110.62 95,-1110.62 95,-1110.62 89,-1110.62 83,-1104.62 83,-1098.62 83,-1098.62 83,-1075.12 83,-1075.12 83,-1069.12 89,-1063.12 95,-1063.12"/>
<text text-anchor="middle" x="97.75" y="-1093.33" font-family="Times New Roman,serif" font-size="14.00">03</text>
<polyline fill="none" stroke="#ff7f00" points="112.5,-1086.88 112.5,-1110.62"/>
<text text-anchor="middle" x="171.88" y="-1093.33" font-family="Times New Roman,serif" font-size="14.00">Around the World</text>
<polyline fill="none" stroke="#ff7f00" points="83,-1086.88 231.25,-1086.88"/>
<text text-anchor="middle" x="157.12" y="-1069.58" font-family="Times New Roman,serif" font-size="14.00">HAND TRANSITION</text>
</a>
</g>
</g>
<!-- mov_05_atwf2b -->
<g id="node3" class="node">
<title>mov_05_atwf2b</title>
<g id="a_node3"><a xlink:href="https://www.youtube.com/watch?v=TwlQQXAQpaQ&amp;list=PLk4oYPJ7TXKhX8YqA2AVrfgs_pEF6p7KA&amp;index=5" xlink:title="{{05|Around the World\nFront to Back}}">
<path fill="#fdbf6f" stroke="#ff7f00" d="M12,-966.88C12,-966.88 136.25,-966.88 136.25,-966.88 142.25,-966.88 148.25,-972.88 148.25,-978.88 148.25,-978.88 148.25,-994.38 148.25,-994.38 148.25,-1000.38 142.25,-1006.38 136.25,-1006.38 136.25,-1006.38 12,-1006.38 12,-1006.38 6,-1006.38 0,-1000.38 0,-994.38 0,-994.38 0,-978.88 0,-978.88 0,-972.88 6,-966.88 12,-966.88"/>
<text text-anchor="middle" x="14.75" y="-981.2" font-family="Times New Roman,serif" font-size="14.00">05</text>
<polyline fill="none" stroke="#ff7f00" points="29.5,-966.88 29.5,-1006.38"/>
<text text-anchor="middle" x="88.88" y="-989.08" font-family="Times New Roman,serif" font-size="14.00">Around the World</text>
<text text-anchor="middle" x="88.88" y="-973.33" font-family="Times New Roman,serif" font-size="14.00">Front to Back</text>
</a>
</g>
</g>
<!-- mov_03_atw&#45;&gt;mov_05_atwf2b -->
<g id="edge4" class="edge">
<title>mov_03_atw&#45;&gt;mov_05_atwf2b</title>
<path fill="none" stroke="black" d="M137.87,-1063.09C125.78,-1048.78 110.12,-1030.23 97.34,-1015.11"/>
<polygon fill="black" stroke="black" points="100.31,-1013.19 91.18,-1007.81 94.96,-1017.71 100.31,-1013.19"/>
</g>
<!-- mov_04_halo -->
<g id="node2" class="node">
<title>mov_04_halo</title>
<g id="a_node2"><a xlink:href="https://www.youtube.com/watch?v=25xdtjbFPtw&amp;list=PLk4oYPJ7TXKhX8YqA2AVrfgs_pEF6p7KA&amp;index=4" xlink:title="{{04|Halo}|GLOBE UP\nORDER POSITION}">
<path fill="#fdbf6f" stroke="#ff7f00" d="M343.62,-1055.25C343.62,-1055.25 452.62,-1055.25 452.62,-1055.25 458.62,-1055.25 464.62,-1061.25 464.62,-1067.25 464.62,-1067.25 464.62,-1106.5 464.62,-1106.5 464.62,-1112.5 458.62,-1118.5 452.62,-1118.5 452.62,-1118.5 343.62,-1118.5 343.62,-1118.5 337.62,-1118.5 331.62,-1112.5 331.62,-1106.5 331.62,-1106.5 331.62,-1067.25 331.62,-1067.25 331.62,-1061.25 337.62,-1055.25 343.62,-1055.25"/>
<text text-anchor="middle" x="361.38" y="-1101.2" font-family="Times New Roman,serif" font-size="14.00">04</text>
<polyline fill="none" stroke="#ff7f00" points="391.12,-1094.75 391.12,-1118.5"/>
<text text-anchor="middle" x="427.75" y="-1101.2" font-family="Times New Roman,serif" font-size="14.00">Halo</text>
<polyline fill="none" stroke="#ff7f00" points="331.62,-1094.75 464.62,-1094.75"/>
<text text-anchor="middle" x="398.12" y="-1077.45" font-family="Times New Roman,serif" font-size="14.00">GLOBE UP</text>
<text text-anchor="middle" x="398.12" y="-1061.7" font-family="Times New Roman,serif" font-size="14.00">ORDER POSITION</text>
</a>
</g>
</g>
<!-- mov_07_althalo -->
<g id="node14" class="node">
<title>mov_07_althalo</title>
<g id="a_node14"><a xlink:href="https://www.youtube.com/watch?v=SMpquy5zSL4&amp;list=PLk4oYPJ7TXKhX8YqA2AVrfgs_pEF6p7KA&amp;index=7" xlink:title="{{07|Alternating Halo}}">
<path fill="#ffff99" stroke="#b15928" d="M178.38,-968.62C178.38,-968.62 289.88,-968.62 289.88,-968.62 295.88,-968.62 301.88,-974.62 301.88,-980.62 301.88,-980.62 301.88,-992.62 301.88,-992.62 301.88,-998.62 295.88,-1004.62 289.88,-1004.62 289.88,-1004.62 178.38,-1004.62 178.38,-1004.62 172.38,-1004.62 166.38,-998.62 166.38,-992.62 166.38,-992.62 166.38,-980.62 166.38,-980.62 166.38,-974.62 172.38,-968.62 178.38,-968.62"/>
<text text-anchor="middle" x="181.12" y="-981.33" font-family="Times New Roman,serif" font-size="14.00">07</text>
<polyline fill="none" stroke="#b15928" points="195.88,-968.88 195.88,-1004.62"/>
<text text-anchor="middle" x="248.88" y="-981.33" font-family="Times New Roman,serif" font-size="14.00">Alternating Halo</text>
</a>
</g>
</g>
<!-- mov_04_halo&#45;&gt;mov_07_althalo -->
<g id="edge6" class="edge">
<title>mov_04_halo&#45;&gt;mov_07_althalo</title>
<path fill="none" stroke="black" d="M346.23,-1054.79C322.47,-1040.55 294.79,-1023.97 272.88,-1010.84"/>
<polygon fill="black" stroke="black" points="274.93,-1007.99 264.55,-1005.85 271.33,-1014 274.93,-1007.99"/>
</g>
<!-- mov_20_gobboxsquat -->
<g id="node24" class="node">
<title>mov_20_gobboxsquat</title>
<g id="a_node24"><a xlink:href="https://www.youtube.com/watch?v=k5Bc7pkEmrU&amp;list=PLk4oYPJ7TXKhX8YqA2AVrfgs_pEF6p7KA&amp;index=20" xlink:title="{{20|Bottoms&#45;Up Goblet\nBox Squat}|SQUAT BACK}">
<path fill="#ffff99" stroke="#b15928" d="M331.5,-955C331.5,-955 464.75,-955 464.75,-955 470.75,-955 476.75,-961 476.75,-967 476.75,-967 476.75,-1006.25 476.75,-1006.25 476.75,-1012.25 470.75,-1018.25 464.75,-1018.25 464.75,-1018.25 331.5,-1018.25 331.5,-1018.25 325.5,-1018.25 319.5,-1012.25 319.5,-1006.25 319.5,-1006.25 319.5,-967 319.5,-967 319.5,-961 325.5,-955 331.5,-955"/>
<text text-anchor="middle" x="334.25" y="-993.08" font-family="Times New Roman,serif" font-size="14.00">20</text>
<polyline fill="none" stroke="#b15928" points="349,-978.75 349,-1018.25"/>
<text text-anchor="middle" x="412.88" y="-1000.95" font-family="Times New Roman,serif" font-size="14.00">Bottoms&#45;Up Goblet</text>
<text text-anchor="middle" x="412.88" y="-985.2" font-family="Times New Roman,serif" font-size="14.00">Box Squat</text>
<polyline fill="none" stroke="#b15928" points="319.5,-978.75 476.75,-978.75"/>
<text text-anchor="middle" x="398.12" y="-961.45" font-family="Times New Roman,serif" font-size="14.00">SQUAT BACK</text>
</a>
</g>
</g>
<!-- mov_04_halo&#45;&gt;mov_20_gobboxsquat -->
<g id="edge23" class="edge">
<title>mov_04_halo&#45;&gt;mov_20_gobboxsquat</title>
<path fill="none" stroke="black" d="M398.12,-1054.79C398.12,-1046.92 398.12,-1038.33 398.12,-1030"/>
<polygon fill="black" stroke="black" points="401.63,-1030.02 398.13,-1020.02 394.63,-1030.02 401.63,-1030.02"/>
</g>
<!-- mov_06_atwb2f -->
<g id="node4" class="node">
<title>mov_06_atwb2f</title>
<g id="a_node4"><a xlink:href="https://www.youtube.com/watch?v=GrRO00YOIWM&amp;list=PLk4oYPJ7TXKhX8YqA2AVrfgs_pEF6p7KA&amp;index=6" xlink:title="{{06|Around the World\nBack to Front}}">
<path fill="#fdbf6f" stroke="#ff7f00" d="M12,-866.62C12,-866.62 136.25,-866.62 136.25,-866.62 142.25,-866.62 148.25,-872.62 148.25,-878.62 148.25,-878.62 148.25,-894.12 148.25,-894.12 148.25,-900.12 142.25,-906.12 136.25,-906.12 136.25,-906.12 12,-906.12 12,-906.12 6,-906.12 0,-900.12 0,-894.12 0,-894.12 0,-878.62 0,-878.62 0,-872.62 6,-866.62 12,-866.62"/>
<text text-anchor="middle" x="14.75" y="-880.95" font-family="Times New Roman,serif" font-size="14.00">06</text>
<polyline fill="none" stroke="#ff7f00" points="29.5,-866.62 29.5,-906.12"/>
<text text-anchor="middle" x="88.88" y="-888.83" font-family="Times New Roman,serif" font-size="14.00">Around the World</text>
<text text-anchor="middle" x="88.88" y="-873.08" font-family="Times New Roman,serif" font-size="14.00">Back to Front</text>
</a>
</g>
</g>
<!-- mov_05_atwf2b&#45;&gt;mov_06_atwb2f -->
<g id="edge5" class="edge">
<title>mov_05_atwf2b&#45;&gt;mov_06_atwb2f</title>
<path fill="none" stroke="black" d="M74.12,-966.68C74.12,-952.91 74.12,-933.96 74.12,-918.04"/>
<polygon fill="black" stroke="black" points="77.63,-918.11 74.13,-908.11 70.63,-918.11 77.63,-918.11"/>
</g>
<!-- mov_08_2hu1hd -->
<g id="node5" class="node">
<title>mov_08_2hu1hd</title>
<g id="a_node5"><a xlink:href="https://www.youtube.com/watch?v=eMkDP9VmMc0&amp;list=PLk4oYPJ7TXKhX8YqA2AVrfgs_pEF6p7KA&amp;index=8" xlink:title="{{08|Two Hand Pickup\nOne Hand Putdown}|RACK POSITION}">
<path fill="#cab2d6" stroke="#6a3d9a" d="M438.88,-854.75C438.88,-854.75 571.38,-854.75 571.38,-854.75 577.38,-854.75 583.38,-860.75 583.38,-866.75 583.38,-866.75 583.38,-906 583.38,-906 583.38,-912 577.38,-918 571.38,-918 571.38,-918 438.88,-918 438.88,-918 432.88,-918 426.88,-912 426.88,-906 426.88,-906 426.88,-866.75 426.88,-866.75 426.88,-860.75 432.88,-854.75 438.88,-854.75"/>
<text text-anchor="middle" x="441.62" y="-892.83" font-family="Times New Roman,serif" font-size="14.00">08</text>
<polyline fill="none" stroke="#6a3d9a" points="456.38,-878.5 456.38,-918"/>
<text text-anchor="middle" x="519.88" y="-900.7" font-family="Times New Roman,serif" font-size="14.00">Two Hand Pickup</text>
<text text-anchor="middle" x="519.88" y="-884.95" font-family="Times New Roman,serif" font-size="14.00">One Hand Putdown</text>
<polyline fill="none" stroke="#6a3d9a" points="426.88,-878.5 583.38,-878.5"/>
<text text-anchor="middle" x="505.12" y="-861.2" font-family="Times New Roman,serif" font-size="14.00">RACK POSITION</text>
</a>
</g>
</g>
<!-- mov_11_2hucleandown -->
<g id="node6" class="node">
<title>mov_11_2hucleandown</title>
<g id="a_node6"><a xlink:href="https://www.youtube.com/watch?v=cQC2y-ByaAw&amp;list=PLk4oYPJ7TXKhX8YqA2AVrfgs_pEF6p7KA&amp;index=11" xlink:title="{{11|Two Hand Pickup\nClean Putdown}}">
<path fill="#cab2d6" stroke="#6a3d9a" d="M605,-766.38C605,-766.38 729.25,-766.38 729.25,-766.38 735.25,-766.38 741.25,-772.38 741.25,-778.38 741.25,-778.38 741.25,-793.88 741.25,-793.88 741.25,-799.88 735.25,-805.88 729.25,-805.88 729.25,-805.88 605,-805.88 605,-805.88 599,-805.88 593,-799.88 593,-793.88 593,-793.88 593,-778.38 593,-778.38 593,-772.38 599,-766.38 605,-766.38"/>
<text text-anchor="middle" x="607.75" y="-780.7" font-family="Times New Roman,serif" font-size="14.00">11</text>
<polyline fill="none" stroke="#6a3d9a" points="622.5,-766.38 622.5,-805.88"/>
<text text-anchor="middle" x="681.88" y="-788.58" font-family="Times New Roman,serif" font-size="14.00">Two Hand Pickup</text>
<text text-anchor="middle" x="681.88" y="-772.83" font-family="Times New Roman,serif" font-size="14.00">Clean Putdown</text>
</a>
</g>
</g>
<!-- mov_08_2hu1hd&#45;&gt;mov_11_2hucleandown -->
<g id="edge10" class="edge">
<title>mov_08_2hu1hd&#45;&gt;mov_11_2hucleandown</title>
<path fill="none" stroke="black" d="M556.38,-854.29C578.79,-840.7 604.72,-824.97 625.86,-812.15"/>
<polygon fill="black" stroke="black" points="627.48,-815.27 634.21,-807.09 623.85,-809.28 627.48,-815.27"/>
</g>
<!-- mov_14_press -->
<g id="node19" class="node">
<title>mov_14_press</title>
<g id="a_node19"><a xlink:href="https://www.youtube.com/watch?v=XHkI03S6Pls&amp;list=PLk4oYPJ7TXKhX8YqA2AVrfgs_pEF6p7KA&amp;index=14" xlink:title="{{14|Single Arm\nOverhead Press}}">
<path fill="#ffff99" stroke="#b15928" d="M453.12,-766.38C453.12,-766.38 563.12,-766.38 563.12,-766.38 569.12,-766.38 575.12,-772.38 575.12,-778.38 575.12,-778.38 575.12,-793.88 575.12,-793.88 575.12,-799.88 569.12,-805.88 563.12,-805.88 563.12,-805.88 453.12,-805.88 453.12,-805.88 447.12,-805.88 441.12,-799.88 441.12,-793.88 441.12,-793.88 441.12,-778.38 441.12,-778.38 441.12,-772.38 447.12,-766.38 453.12,-766.38"/>
<text text-anchor="middle" x="455.88" y="-780.7" font-family="Times New Roman,serif" font-size="14.00">14</text>
<polyline fill="none" stroke="#b15928" points="470.62,-766.38 470.62,-805.88"/>
<text text-anchor="middle" x="522.88" y="-788.58" font-family="Times New Roman,serif" font-size="14.00">Single Arm</text>
<text text-anchor="middle" x="522.88" y="-772.83" font-family="Times New Roman,serif" font-size="14.00">Overhead Press</text>
</a>
</g>
</g>
<!-- mov_08_2hu1hd&#45;&gt;mov_14_press -->
<g id="edge15" class="edge">
<title>mov_08_2hu1hd&#45;&gt;mov_14_press</title>
<path fill="none" stroke="black" d="M506.07,-854.29C506.43,-842.61 506.84,-829.34 507.19,-817.7"/>
<polygon fill="black" stroke="black" points="510.69,-817.92 507.49,-807.81 503.69,-817.7 510.69,-817.92"/>
</g>
<!-- mov_23_racksquat -->
<g id="node27" class="node">
<title>mov_23_racksquat</title>
<g id="a_node27"><a xlink:href="https://www.youtube.com/watch?v=KTDVl0Lkdc4&amp;list=PLk4oYPJ7TXKhX8YqA2AVrfgs_pEF6p7KA&amp;index=23" xlink:title="{{23|Single&#45;Bell Front Squat}}">
<path fill="#ffff99" stroke="#b15928" d="M249.5,-679.75C249.5,-679.75 400.75,-679.75 400.75,-679.75 406.75,-679.75 412.75,-685.75 412.75,-691.75 412.75,-691.75 412.75,-703.75 412.75,-703.75 412.75,-709.75 406.75,-715.75 400.75,-715.75 400.75,-715.75 249.5,-715.75 249.5,-715.75 243.5,-715.75 237.5,-709.75 237.5,-703.75 237.5,-703.75 237.5,-691.75 237.5,-691.75 237.5,-685.75 243.5,-679.75 249.5,-679.75"/>
<text text-anchor="middle" x="252.25" y="-692.45" font-family="Times New Roman,serif" font-size="14.00">23</text>
<polyline fill="none" stroke="#b15928" points="267,-680 267,-715.75"/>
<text text-anchor="middle" x="339.88" y="-692.45" font-family="Times New Roman,serif" font-size="14.00">Single&#45;Bell Front Squat</text>
</a>
</g>
</g>
<!-- mov_08_2hu1hd&#45;&gt;mov_23_racksquat -->
<g id="edge27" class="edge">
<title>mov_08_2hu1hd&#45;&gt;mov_23_racksquat</title>
<path fill="none" stroke="black" d="M467.41,-854.54C455.39,-843.75 442.53,-831.09 432.12,-818.25 411.25,-792.47 415.87,-779.05 394.12,-754 384.28,-742.66 371.88,-731.92 360.32,-722.97"/>
<polygon fill="black" stroke="black" points="362.6,-720.31 352.5,-717.11 358.41,-725.91 362.6,-720.31"/>
</g>
<!-- mov_12_clean -->
<g id="node17" class="node">
<title>mov_12_clean</title>
<g id="a_node17"><a xlink:href="https://www.youtube.com/watch?v=_nIsSXWs5iU&amp;list=PLk4oYPJ7TXKhX8YqA2AVrfgs_pEF6p7KA&amp;index=12" xlink:title="{{12|Swing Clean}}">
<path fill="#ffff99" stroke="#b15928" d="M618.5,-679.75C618.5,-679.75 709.75,-679.75 709.75,-679.75 715.75,-679.75 721.75,-685.75 721.75,-691.75 721.75,-691.75 721.75,-703.75 721.75,-703.75 721.75,-709.75 715.75,-715.75 709.75,-715.75 709.75,-715.75 618.5,-715.75 618.5,-715.75 612.5,-715.75 606.5,-709.75 606.5,-703.75 606.5,-703.75 606.5,-691.75 606.5,-691.75 606.5,-685.75 612.5,-679.75 618.5,-679.75"/>
<text text-anchor="middle" x="621.25" y="-692.45" font-family="Times New Roman,serif" font-size="14.00">12</text>
<polyline fill="none" stroke="#b15928" points="636,-680 636,-715.75"/>
<text text-anchor="middle" x="678.88" y="-692.45" font-family="Times New Roman,serif" font-size="14.00">Swing Clean</text>
</a>
</g>
</g>
<!-- mov_11_2hucleandown&#45;&gt;mov_12_clean -->
<g id="edge12" class="edge">
<title>mov_11_2hucleandown&#45;&gt;mov_12_clean</title>
<path fill="none" stroke="black" d="M666.46,-765.96C666.07,-754.66 665.56,-740.14 665.12,-727.49"/>
<polygon fill="black" stroke="black" points="668.63,-727.49 664.78,-717.62 661.63,-727.73 668.63,-727.49"/>
</g>
<!-- mov_15_news -->
<g id="node7" class="node">
<title>mov_15_news</title>
<g id="a_node7"><a xlink:href="https://www.youtube.com/watch?v=htByOXjHLXE&amp;list=PLk4oYPJ7TXKhX8YqA2AVrfgs_pEF6p7KA&amp;index=15" xlink:title="{{15|Newspaper drill}}">
<path fill="#cab2d6" stroke="#6a3d9a" d="M609.5,-591.38C609.5,-591.38 718.75,-591.38 718.75,-591.38 724.75,-591.38 730.75,-597.38 730.75,-603.38 730.75,-603.38 730.75,-615.38 730.75,-615.38 730.75,-621.38 724.75,-627.38 718.75,-627.38 718.75,-627.38 609.5,-627.38 609.5,-627.38 603.5,-627.38 597.5,-621.38 597.5,-615.38 597.5,-615.38 597.5,-603.38 597.5,-603.38 597.5,-597.38 603.5,-591.38 609.5,-591.38"/>
<text text-anchor="middle" x="612.25" y="-604.08" font-family="Times New Roman,serif" font-size="14.00">15</text>
<polyline fill="none" stroke="#6a3d9a" points="627,-591.62 627,-627.38"/>
<text text-anchor="middle" x="678.88" y="-604.08" font-family="Times New Roman,serif" font-size="14.00">Newspaper drill</text>
</a>
</g>
</g>
<!-- mov_24_racklunge -->
<g id="node8" class="node">
<title>mov_24_racklunge</title>
<g id="a_node8"><a xlink:href="https://www.youtube.com/watch?v=KTDVl0Lkdc4&amp;list=PLk4oYPJ7TXKhX8YqA2AVrfgs_pEF6p7KA&amp;index=24" xlink:title="{{KB&#45;24|Rack Opposite Leg\nStep&#45;Back Lunge}|VERTICAL SPINE}">
<path fill="#a6cee3" stroke="#1f78b4" d="M93,-577.75C93,-577.75 247.25,-577.75 247.25,-577.75 253.25,-577.75 259.25,-583.75 259.25,-589.75 259.25,-589.75 259.25,-629 259.25,-629 259.25,-635 253.25,-641 247.25,-641 247.25,-641 93,-641 93,-641 87,-641 81,-635 81,-629 81,-629 81,-589.75 81,-589.75 81,-583.75 87,-577.75 93,-577.75"/>
<text text-anchor="middle" x="107.38" y="-615.83" font-family="Times New Roman,serif" font-size="14.00">KB&#45;24</text>
<polyline fill="none" stroke="#1f78b4" points="133.75,-601.5 133.75,-641"/>
<text text-anchor="middle" x="196.5" y="-623.7" font-family="Times New Roman,serif" font-size="14.00">Rack Opposite Leg</text>
<text text-anchor="middle" x="196.5" y="-607.95" font-family="Times New Roman,serif" font-size="14.00">Step&#45;Back Lunge</text>
<polyline fill="none" stroke="#1f78b4" points="81,-601.5 259.25,-601.5"/>
<text text-anchor="middle" x="170.12" y="-584.2" font-family="Times New Roman,serif" font-size="14.00">VERTICAL SPINE</text>
</a>
</g>
</g>
<!-- mov_25_clean2sblunge -->
<g id="node9" class="node">
<title>mov_25_clean2sblunge</title>
<g id="a_node9"><a xlink:href="https://www.youtube.com/watch?v=KTDVl0Lkdc4&amp;list=PLk4oYPJ7TXKhX8YqA2AVrfgs_pEF6p7KA&amp;index=25" xlink:title="{{KB&#45;25|Clean Step&#45;Back Clean}}">
<path fill="#a6cee3" stroke="#1f78b4" d="M250.25,-503C250.25,-503 424,-503 424,-503 430,-503 436,-509 436,-515 436,-515 436,-527 436,-527 436,-533 430,-539 424,-539 424,-539 250.25,-539 250.25,-539 244.25,-539 238.25,-533 238.25,-527 238.25,-527 238.25,-515 238.25,-515 238.25,-509 244.25,-503 250.25,-503"/>
<text text-anchor="middle" x="264.62" y="-515.7" font-family="Times New Roman,serif" font-size="14.00">KB&#45;25</text>
<polyline fill="none" stroke="#1f78b4" points="291,-503.25 291,-539"/>
<text text-anchor="middle" x="363.5" y="-515.7" font-family="Times New Roman,serif" font-size="14.00">Clean Step&#45;Back Clean</text>
</a>
</g>
</g>
<!-- mov_24_racklunge&#45;&gt;mov_25_clean2sblunge -->
<g id="edge29" class="edge">
<title>mov_24_racklunge&#45;&gt;mov_25_clean2sblunge</title>
<path fill="none" stroke="black" d="M229.94,-577.44C250.89,-566.6 274,-554.65 293.38,-544.62"/>
<polygon fill="black" stroke="black" points="294.82,-547.82 302.09,-540.12 291.6,-541.6 294.82,-547.82"/>
</g>
<!-- mov_26_halfkneelclean -->
<g id="node10" class="node">
<title>mov_26_halfkneelclean</title>
<g id="a_node10"><a xlink:href="https://www.youtube.com/watch?v=KTDVl0Lkdc4&amp;list=PLk4oYPJ7TXKhX8YqA2AVrfgs_pEF6p7KA&amp;index=26" xlink:title="{{KB&#45;26|Half&#45;Kneeling Clean}}">
<path fill="#a6cee3" stroke="#1f78b4" d="M259.25,-414.62C259.25,-414.62 415,-414.62 415,-414.62 421,-414.62 427,-420.62 427,-426.62 427,-426.62 427,-438.62 427,-438.62 427,-444.62 421,-450.62 415,-450.62 415,-450.62 259.25,-450.62 259.25,-450.62 253.25,-450.62 247.25,-444.62 247.25,-438.62 247.25,-438.62 247.25,-426.62 247.25,-426.62 247.25,-420.62 253.25,-414.62 259.25,-414.62"/>
<text text-anchor="middle" x="273.62" y="-427.32" font-family="Times New Roman,serif" font-size="14.00">KB&#45;26</text>
<polyline fill="none" stroke="#1f78b4" points="300,-414.88 300,-450.62"/>
<text text-anchor="middle" x="363.5" y="-427.32" font-family="Times New Roman,serif" font-size="14.00">Half&#45;Kneeling Clean</text>
</a>
</g>
</g>
<!-- mov_25_clean2sblunge&#45;&gt;mov_26_halfkneelclean -->
<g id="edge31" class="edge">
<title>mov_25_clean2sblunge&#45;&gt;mov_26_halfkneelclean</title>
<path fill="none" stroke="black" d="M337.12,-502.52C337.12,-491.05 337.12,-475.77 337.12,-462.51"/>
<polygon fill="black" stroke="black" points="340.63,-462.59 337.13,-452.59 333.63,-462.59 340.63,-462.59"/>
</g>
<!-- mov_29_halfkneelcap -->
<g id="node11" class="node">
<title>mov_29_halfkneelcap</title>
<g id="a_node11"><a xlink:href="https://www.youtube.com/watch?v=KTDVl0Lkdc4&amp;list=PLk4oYPJ7TXKhX8YqA2AVrfgs_pEF6p7KA&amp;index=29" xlink:title="{{KB&#45;29|Half&#45;Kneeling\nClean &amp; Press}}">
<path fill="#a6cee3" stroke="#1f78b4" d="M363.25,-324.5C363.25,-324.5 489,-324.5 489,-324.5 495,-324.5 501,-330.5 501,-336.5 501,-336.5 501,-352 501,-352 501,-358 495,-364 489,-364 489,-364 363.25,-364 363.25,-364 357.25,-364 351.25,-358 351.25,-352 351.25,-352 351.25,-336.5 351.25,-336.5 351.25,-330.5 357.25,-324.5 363.25,-324.5"/>
<text text-anchor="middle" x="377.62" y="-338.82" font-family="Times New Roman,serif" font-size="14.00">KB&#45;29</text>
<polyline fill="none" stroke="#1f78b4" points="404,-324.5 404,-364"/>
<text text-anchor="middle" x="452.5" y="-346.7" font-family="Times New Roman,serif" font-size="14.00">Half&#45;Kneeling</text>
<text text-anchor="middle" x="452.5" y="-330.95" font-family="Times New Roman,serif" font-size="14.00">Clean &amp; Press</text>
</a>
</g>
</g>
<!-- mov_26_halfkneelclean&#45;&gt;mov_29_halfkneelcap -->
<g id="edge33" class="edge">
<title>mov_26_halfkneelclean&#45;&gt;mov_29_halfkneelcap</title>
<path fill="none" stroke="black" d="M355.14,-414.15C367.62,-402.03 384.47,-385.67 398.63,-371.94"/>
<polygon fill="black" stroke="black" points="400.77,-374.73 405.51,-365.26 395.9,-369.71 400.77,-374.73"/>
</g>
<!-- mov_01_deadlift -->
<g id="node12" class="node">
<title>mov_01_deadlift</title>
<g id="a_node12"><a xlink:href="https://www.youtube.com/watch?v=x0XkmM34BPI&amp;list=PLk4oYPJ7TXKhX8YqA2AVrfgs_pEF6p7KA&amp;index=1" xlink:title="{{01|Two Hand Deadlift}|HIP HINGE}">
<path fill="#ffff99" stroke="#b15928" d="M386.75,-1155.5C386.75,-1155.5 515.5,-1155.5 515.5,-1155.5 521.5,-1155.5 527.5,-1161.5 527.5,-1167.5 527.5,-1167.5 527.5,-1191 527.5,-1191 527.5,-1197 521.5,-1203 515.5,-1203 515.5,-1203 386.75,-1203 386.75,-1203 380.75,-1203 374.75,-1197 374.75,-1191 374.75,-1191 374.75,-1167.5 374.75,-1167.5 374.75,-1161.5 380.75,-1155.5 386.75,-1155.5"/>
<text text-anchor="middle" x="389.5" y="-1185.7" font-family="Times New Roman,serif" font-size="14.00">01</text>
<polyline fill="none" stroke="#b15928" points="404.25,-1179.25 404.25,-1203"/>
<text text-anchor="middle" x="465.88" y="-1185.7" font-family="Times New Roman,serif" font-size="14.00">Two Hand Deadlift</text>
<polyline fill="none" stroke="#b15928" points="374.75,-1179.25 527.5,-1179.25"/>
<text text-anchor="middle" x="451.12" y="-1161.95" font-family="Times New Roman,serif" font-size="14.00">HIP HINGE</text>
</a>
</g>
</g>
<!-- mov_01_deadlift&#45;&gt;mov_03_atw -->
<g id="edge2" class="edge">
<title>mov_01_deadlift&#45;&gt;mov_03_atw</title>
<path fill="none" stroke="black" d="M375.79,-1155.09C335.02,-1142.56 284.52,-1127.03 242.32,-1114.06"/>
<polygon fill="black" stroke="black" points="243.53,-1110.77 232.94,-1111.18 241.47,-1117.47 243.53,-1110.77"/>
</g>
<!-- mov_01_deadlift&#45;&gt;mov_04_halo -->
<g id="edge3" class="edge">
<title>mov_01_deadlift&#45;&gt;mov_04_halo</title>
<path fill="none" stroke="black" d="M437.75,-1155.44C432.98,-1147.3 427.44,-1137.87 422.05,-1128.67"/>
<polygon fill="black" stroke="black" points="425.14,-1127.03 417.07,-1120.17 419.11,-1130.57 425.14,-1127.03"/>
</g>
<!-- mov_01_deadlift&#45;&gt;mov_08_2hu1hd -->
<g id="edge7" class="edge">
<title>mov_01_deadlift&#45;&gt;mov_08_2hu1hd</title>
<path fill="none" stroke="black" d="M461.61,-1155.03C466.09,-1144.26 470.99,-1131.18 474.12,-1119 490.84,-1053.98 498.9,-976.24 502.51,-929.39"/>
<polygon fill="black" stroke="black" points="505.98,-929.91 503.22,-919.68 499,-929.4 505.98,-929.91"/>
</g>
<!-- mov_02_swing -->
<g id="node13" class="node">
<title>mov_02_swing</title>
<g id="a_node13"><a xlink:href="https://www.youtube.com/watch?v=m-S9H2XVvYg&amp;list=PLk4oYPJ7TXKhX8YqA2AVrfgs_pEF6p7KA&amp;index=2" xlink:title="{{02|Two Hand Swing}|LEG DRIVE &amp;\nHIP SNAP}">
<path fill="#ffff99" stroke="#b15928" d="M565.25,-1055.25C565.25,-1055.25 685,-1055.25 685,-1055.25 691,-1055.25 697,-1061.25 697,-1067.25 697,-1067.25 697,-1106.5 697,-1106.5 697,-1112.5 691,-1118.5 685,-1118.5 685,-1118.5 565.25,-1118.5 565.25,-1118.5 559.25,-1118.5 553.25,-1112.5 553.25,-1106.5 553.25,-1106.5 553.25,-1067.25 553.25,-1067.25 553.25,-1061.25 559.25,-1055.25 565.25,-1055.25"/>
<text text-anchor="middle" x="568" y="-1101.2" font-family="Times New Roman,serif" font-size="14.00">02</text>
<polyline fill="none" stroke="#b15928" points="582.75,-1094.75 582.75,-1118.5"/>
<text text-anchor="middle" x="639.88" y="-1101.2" font-family="Times New Roman,serif" font-size="14.00">Two Hand Swing</text>
<polyline fill="none" stroke="#b15928" points="553.25,-1094.75 697,-1094.75"/>
<text text-anchor="middle" x="625.12" y="-1077.45" font-family="Times New Roman,serif" font-size="14.00">LEG DRIVE &amp;</text>
<text text-anchor="middle" x="625.12" y="-1061.7" font-family="Times New Roman,serif" font-size="14.00">HIP SNAP</text>
</a>
</g>
</g>
<!-- mov_01_deadlift&#45;&gt;mov_02_swing -->
<g id="edge1" class="edge">
<title>mov_01_deadlift&#45;&gt;mov_02_swing</title>
<path fill="none" stroke="black" d="M495.48,-1155.21C513.66,-1145.77 535.13,-1134.62 555.32,-1124.13"/>
<polygon fill="black" stroke="black" points="556.81,-1127.3 564.07,-1119.59 553.59,-1121.09 556.81,-1127.3"/>
</g>
<!-- mov_09_saswing -->
<g id="node15" class="node">
<title>mov_09_saswing</title>
<g id="a_node15"><a xlink:href="https://www.youtube.com/watch?v=ejPpyLKZ1L4&amp;list=PLk4oYPJ7TXKhX8YqA2AVrfgs_pEF6p7KA&amp;index=9" xlink:title="{{09|Single Arm Swing}|THUMB POINTS BACK}">
<path fill="#ffff99" stroke="#b15928" d="M613.38,-862.62C613.38,-862.62 750.88,-862.62 750.88,-862.62 756.88,-862.62 762.88,-868.62 762.88,-874.62 762.88,-874.62 762.88,-898.12 762.88,-898.12 762.88,-904.12 756.88,-910.12 750.88,-910.12 750.88,-910.12 613.38,-910.12 613.38,-910.12 607.38,-910.12 601.38,-904.12 601.38,-898.12 601.38,-898.12 601.38,-874.62 601.38,-874.62 601.38,-868.62 607.38,-862.62 613.38,-862.62"/>
<text text-anchor="middle" x="619.62" y="-892.83" font-family="Times New Roman,serif" font-size="14.00">09</text>
<polyline fill="none" stroke="#b15928" points="637.88,-886.38 637.88,-910.12"/>
<text text-anchor="middle" x="700.12" y="-892.83" font-family="Times New Roman,serif" font-size="14.00">Single Arm Swing</text>
<polyline fill="none" stroke="#b15928" points="601.38,-886.38 762.88,-886.38"/>
<text text-anchor="middle" x="682.12" y="-869.08" font-family="Times New Roman,serif" font-size="14.00">THUMB POINTS BACK</text>
</a>
</g>
</g>
<!-- mov_02_swing&#45;&gt;mov_09_saswing -->
<g id="edge8" class="edge">
<title>mov_02_swing&#45;&gt;mov_09_saswing</title>
<path fill="none" stroke="black" d="M634.03,-1054.86C644.45,-1018.59 661.62,-958.77 672.38,-921.3"/>
<polygon fill="black" stroke="black" points="675.69,-922.47 675.09,-911.89 668.96,-920.54 675.69,-922.47"/>
</g>
<!-- mov_09_saswing&#45;&gt;mov_11_2hucleandown -->
<g id="edge11" class="edge">
<title>mov_09_saswing&#45;&gt;mov_11_2hucleandown</title>
<path fill="none" stroke="black" d="M678.65,-862.59C676.58,-849.08 673.95,-831.8 671.71,-817.18"/>
<polygon fill="black" stroke="black" points="675.23,-817.01 670.26,-807.65 668.31,-818.07 675.23,-817.01"/>
</g>
<!-- mov_10_h2h -->
<g id="node16" class="node">
<title>mov_10_h2h</title>
<g id="a_node16"><a xlink:href="https://www.youtube.com/watch?v=0Uk0Rdm3QFs&amp;list=PLk4oYPJ7TXKhX8YqA2AVrfgs_pEF6p7KA&amp;index=10" xlink:title="{{10|Hand to Hand\nTransition}}">
<path fill="#ffff99" stroke="#b15928" d="M759,-678C759,-678 859.25,-678 859.25,-678 865.25,-678 871.25,-684 871.25,-690 871.25,-690 871.25,-705.5 871.25,-705.5 871.25,-711.5 865.25,-717.5 859.25,-717.5 859.25,-717.5 759,-717.5 759,-717.5 753,-717.5 747,-711.5 747,-705.5 747,-705.5 747,-690 747,-690 747,-684 753,-678 759,-678"/>
<text text-anchor="middle" x="761.75" y="-692.33" font-family="Times New Roman,serif" font-size="14.00">10</text>
<polyline fill="none" stroke="#b15928" points="776.5,-678 776.5,-717.5"/>
<text text-anchor="middle" x="823.88" y="-700.2" font-family="Times New Roman,serif" font-size="14.00">Hand to Hand</text>
<text text-anchor="middle" x="823.88" y="-684.45" font-family="Times New Roman,serif" font-size="14.00">Transition</text>
</a>
</g>
</g>
<!-- mov_09_saswing&#45;&gt;mov_10_h2h -->
<g id="edge9" class="edge">
<title>mov_09_saswing&#45;&gt;mov_10_h2h</title>
<path fill="none" stroke="black" d="M709.44,-862.34C722.8,-850.15 738.47,-834.39 750.12,-818.25 770.65,-789.82 787.55,-753.16 797.93,-727.99"/>
<polygon fill="black" stroke="black" points="801.04,-729.62 801.53,-719.03 794.55,-727 801.04,-729.62"/>
</g>
<!-- mov_13_cleanh2h -->
<g id="node18" class="node">
<title>mov_13_cleanh2h</title>
<g id="a_node18"><a xlink:href="https://www.youtube.com/watch?v=6TVqHl2gtuM&amp;list=PLk4oYPJ7TXKhX8YqA2AVrfgs_pEF6p7KA&amp;index=13" xlink:title="{{13|Clean with\nHand Transition}}">
<path fill="#ffff99" stroke="#b15928" d="M760.38,-589.62C760.38,-589.62 871.88,-589.62 871.88,-589.62 877.88,-589.62 883.88,-595.62 883.88,-601.62 883.88,-601.62 883.88,-617.12 883.88,-617.12 883.88,-623.12 877.88,-629.12 871.88,-629.12 871.88,-629.12 760.38,-629.12 760.38,-629.12 754.38,-629.12 748.38,-623.12 748.38,-617.12 748.38,-617.12 748.38,-601.62 748.38,-601.62 748.38,-595.62 754.38,-589.62 760.38,-589.62"/>
<text text-anchor="middle" x="763.12" y="-603.95" font-family="Times New Roman,serif" font-size="14.00">13</text>
<polyline fill="none" stroke="#b15928" points="777.88,-589.62 777.88,-629.12"/>
<text text-anchor="middle" x="830.88" y="-611.83" font-family="Times New Roman,serif" font-size="14.00">Clean with</text>
<text text-anchor="middle" x="830.88" y="-596.08" font-family="Times New Roman,serif" font-size="14.00">Hand Transition</text>
</a>
</g>
</g>
<!-- mov_10_h2h&#45;&gt;mov_13_cleanh2h -->
<g id="edge14" class="edge">
<title>mov_10_h2h&#45;&gt;mov_13_cleanh2h</title>
<path fill="none" stroke="black" d="M810.68,-677.58C811.56,-666.73 812.68,-652.92 813.67,-640.64"/>
<polygon fill="black" stroke="black" points="817.13,-641.25 814.45,-631 810.16,-640.68 817.13,-641.25"/>
</g>
<!-- mov_12_clean&#45;&gt;mov_15_news -->
<g id="edge16" class="edge">
<title>mov_12_clean&#45;&gt;mov_15_news</title>
<path fill="none" stroke="black" d="M664.12,-679.27C664.12,-667.8 664.12,-652.52 664.12,-639.26"/>
<polygon fill="black" stroke="black" points="667.63,-639.34 664.13,-629.34 660.63,-639.34 667.63,-639.34"/>
</g>
<!-- mov_12_clean&#45;&gt;mov_13_cleanh2h -->
<g id="edge13" class="edge">
<title>mov_12_clean&#45;&gt;mov_13_cleanh2h</title>
<path fill="none" stroke="black" d="M694.88,-679.27C717.22,-666.58 747.76,-649.22 772.6,-635.11"/>
<polygon fill="black" stroke="black" points="774.23,-638.21 781.19,-630.23 770.77,-632.12 774.23,-638.21"/>
</g>
<!-- mov_16_startstopclean -->
<g id="node20" class="node">
<title>mov_16_startstopclean</title>
<g id="a_node20"><a xlink:href="https://www.youtube.com/watch?v=XbK3jxI0WNQ&amp;list=PLk4oYPJ7TXKhX8YqA2AVrfgs_pEF6p7KA&amp;index=16" xlink:title="{{16|Start Stop Clean}|START &amp; END CLEAN}">
<path fill="#ffff99" stroke="#b15928" d="M289.25,-585.62C289.25,-585.62 423,-585.62 423,-585.62 429,-585.62 435,-591.62 435,-597.62 435,-597.62 435,-621.12 435,-621.12 435,-627.12 429,-633.12 423,-633.12 423,-633.12 289.25,-633.12 289.25,-633.12 283.25,-633.12 277.25,-627.12 277.25,-621.12 277.25,-621.12 277.25,-597.62 277.25,-597.62 277.25,-591.62 283.25,-585.62 289.25,-585.62"/>
<text text-anchor="middle" x="297" y="-615.83" font-family="Times New Roman,serif" font-size="14.00">16</text>
<polyline fill="none" stroke="#b15928" points="316.75,-609.38 316.75,-633.12"/>
<text text-anchor="middle" x="375.88" y="-615.83" font-family="Times New Roman,serif" font-size="14.00">Start Stop Clean</text>
<polyline fill="none" stroke="#b15928" points="277.25,-609.38 435,-609.38"/>
<text text-anchor="middle" x="356.12" y="-592.08" font-family="Times New Roman,serif" font-size="14.00">START &amp; END CLEAN</text>
</a>
</g>
</g>
<!-- mov_12_clean&#45;&gt;mov_16_startstopclean -->
<g id="edge17" class="edge">
<title>mov_12_clean&#45;&gt;mov_16_startstopclean</title>
<path fill="none" stroke="black" d="M606.28,-683.79C561.68,-673.42 498.6,-657.94 444.12,-641.5 439.59,-640.13 434.94,-638.67 430.26,-637.15"/>
<polygon fill="black" stroke="black" points="431.37,-633.83 420.78,-634.01 429.17,-640.48 431.37,-633.83"/>
</g>
<!-- mov_17_cap -->
<g id="node21" class="node">
<title>mov_17_cap</title>
<g id="a_node21"><a xlink:href="https://www.youtube.com/watch?v=SSxB3m5qRas&amp;list=PLk4oYPJ7TXKhX8YqA2AVrfgs_pEF6p7KA&amp;index=17" xlink:title="{{17|Clean &amp; Press}}">
<path fill="#ffff99" stroke="#b15928" d="M464.88,-591.38C464.88,-591.38 567.38,-591.38 567.38,-591.38 573.38,-591.38 579.38,-597.38 579.38,-603.38 579.38,-603.38 579.38,-615.38 579.38,-615.38 579.38,-621.38 573.38,-627.38 567.38,-627.38 567.38,-627.38 464.88,-627.38 464.88,-627.38 458.88,-627.38 452.88,-621.38 452.88,-615.38 452.88,-615.38 452.88,-603.38 452.88,-603.38 452.88,-597.38 458.88,-591.38 464.88,-591.38"/>
<text text-anchor="middle" x="467.62" y="-604.08" font-family="Times New Roman,serif" font-size="14.00">17</text>
<polyline fill="none" stroke="#b15928" points="482.38,-591.62 482.38,-627.38"/>
<text text-anchor="middle" x="530.88" y="-604.08" font-family="Times New Roman,serif" font-size="14.00">Clean &amp; Press</text>
</a>
</g>
</g>
<!-- mov_12_clean&#45;&gt;mov_17_cap -->
<g id="edge18" class="edge">
<title>mov_12_clean&#45;&gt;mov_17_cap</title>
<path fill="none" stroke="black" d="M634.17,-679.27C611.61,-666.1 580.44,-647.91 555.8,-633.53"/>
<polygon fill="black" stroke="black" points="557.74,-630.61 547.34,-628.59 554.21,-636.65 557.74,-630.61"/>
</g>
<!-- mov_18_caph2h -->
<g id="node22" class="node">
<title>mov_18_caph2h</title>
<g id="a_node22"><a xlink:href="https://www.youtube.com/watch?v=5Q4vMOYvAGg&amp;list=PLk4oYPJ7TXKhX8YqA2AVrfgs_pEF6p7KA&amp;index=18" xlink:title="{{18|Clean &amp; Press with\nHand Transition}}">
<path fill="#ffff99" stroke="#b15928" d="M653.38,-501.25C653.38,-501.25 782.88,-501.25 782.88,-501.25 788.88,-501.25 794.88,-507.25 794.88,-513.25 794.88,-513.25 794.88,-528.75 794.88,-528.75 794.88,-534.75 788.88,-540.75 782.88,-540.75 782.88,-540.75 653.38,-540.75 653.38,-540.75 647.38,-540.75 641.38,-534.75 641.38,-528.75 641.38,-528.75 641.38,-513.25 641.38,-513.25 641.38,-507.25 647.38,-501.25 653.38,-501.25"/>
<text text-anchor="middle" x="656.12" y="-515.58" font-family="Times New Roman,serif" font-size="14.00">18</text>
<polyline fill="none" stroke="#b15928" points="670.88,-501.25 670.88,-540.75"/>
<text text-anchor="middle" x="732.88" y="-523.45" font-family="Times New Roman,serif" font-size="14.00">Clean &amp; Press with</text>
<text text-anchor="middle" x="732.88" y="-507.7" font-family="Times New Roman,serif" font-size="14.00">Hand Transition</text>
</a>
</g>
</g>
<!-- mov_13_cleanh2h&#45;&gt;mov_18_caph2h -->
<g id="edge21" class="edge">
<title>mov_13_cleanh2h&#45;&gt;mov_18_caph2h</title>
<path fill="none" stroke="black" d="M794.38,-589.21C780.8,-577.24 763.13,-561.67 748.22,-548.53"/>
<polygon fill="black" stroke="black" points="750.77,-546.1 740.95,-542.12 746.14,-551.35 750.77,-546.1"/>
</g>
<!-- mov_14_press&#45;&gt;mov_17_cap -->
<g id="edge19" class="edge">
<title>mov_14_press&#45;&gt;mov_17_cap</title>
<path fill="none" stroke="black" d="M509,-766.09C510.4,-735.41 513.17,-674.85 514.82,-638.97"/>
<polygon fill="black" stroke="black" points="518.3,-639.48 515.26,-629.33 511.3,-639.16 518.3,-639.48"/>
</g>
<!-- mov_16_startstopclean&#45;&gt;mov_25_clean2sblunge -->
<g id="edge30" class="edge">
<title>mov_16_startstopclean&#45;&gt;mov_25_clean2sblunge</title>
<path fill="none" stroke="black" d="M351.03,-585.23C348.68,-574.55 345.87,-561.76 343.39,-550.5"/>
<polygon fill="black" stroke="black" points="346.86,-549.95 341.29,-540.93 340.02,-551.45 346.86,-549.95"/>
</g>
<!-- mov_17_cap&#45;&gt;mov_18_caph2h -->
<g id="edge20" class="edge">
<title>mov_17_cap&#45;&gt;mov_18_caph2h</title>
<path fill="none" stroke="black" d="M556.47,-590.88C566.79,-586.42 577.86,-581.65 588.12,-577.25 612.35,-566.87 639.15,-555.46 662.09,-545.73"/>
<polygon fill="black" stroke="black" points="663.44,-548.95 671.28,-541.83 660.71,-542.51 663.44,-548.95"/>
</g>
<!-- mov_19_startstopcap -->
<g id="node23" class="node">
<title>mov_19_startstopcap</title>
<g id="a_node23"><a xlink:href="https://www.youtube.com/watch?v=dSj3kqbuois&amp;list=PLk4oYPJ7TXKhX8YqA2AVrfgs_pEF6p7KA&amp;index=19" xlink:title="{{19|Start Stop\nClean &amp; Press}|START &amp; END C&amp;P}">
<path fill="#ffff99" stroke="#b15928" d="M457.5,-401C457.5,-401 574.75,-401 574.75,-401 580.75,-401 586.75,-407 586.75,-413 586.75,-413 586.75,-452.25 586.75,-452.25 586.75,-458.25 580.75,-464.25 574.75,-464.25 574.75,-464.25 457.5,-464.25 457.5,-464.25 451.5,-464.25 445.5,-458.25 445.5,-452.25 445.5,-452.25 445.5,-413 445.5,-413 445.5,-407 451.5,-401 457.5,-401"/>
<text text-anchor="middle" x="463.75" y="-439.07" font-family="Times New Roman,serif" font-size="14.00">19</text>
<polyline fill="none" stroke="#b15928" points="482,-424.75 482,-464.25"/>
<text text-anchor="middle" x="534" y="-446.95" font-family="Times New Roman,serif" font-size="14.00">Start Stop</text>
<text text-anchor="middle" x="534" y="-431.2" font-family="Times New Roman,serif" font-size="14.00">Clean &amp; Press</text>
<polyline fill="none" stroke="#b15928" points="445.5,-424.75 586.75,-424.75"/>
<text text-anchor="middle" x="516.12" y="-407.45" font-family="Times New Roman,serif" font-size="14.00">START &amp; END C&amp;P</text>
</a>
</g>
</g>
<!-- mov_17_cap&#45;&gt;mov_19_startstopcap -->
<g id="edge22" class="edge">
<title>mov_17_cap&#45;&gt;mov_19_startstopcap</title>
<path fill="none" stroke="black" d="M516.12,-590.98C516.12,-564.42 516.12,-512.95 516.12,-476.1"/>
<polygon fill="black" stroke="black" points="519.63,-476.22 516.13,-466.22 512.63,-476.22 519.63,-476.22"/>
</g>
<!-- mov_19_startstopcap&#45;&gt;mov_29_halfkneelcap -->
<g id="edge32" class="edge">
<title>mov_19_startstopcap&#45;&gt;mov_29_halfkneelcap</title>
<path fill="none" stroke="black" d="M483.89,-400.69C474.23,-391.42 463.72,-381.33 454.35,-372.34"/>
<polygon fill="black" stroke="black" points="456.85,-369.88 447.21,-365.48 452,-374.93 456.85,-369.88"/>
</g>
<!-- mov_21_boxsquathalo -->
<g id="node25" class="node">
<title>mov_21_boxsquathalo</title>
<g id="a_node25"><a xlink:href="https://www.youtube.com/watch?v=Aik5-BStbnc&amp;list=PLk4oYPJ7TXKhX8YqA2AVrfgs_pEF6p7KA&amp;index=21" xlink:title="{{21|Goblet Box Squat\nwith Halo}|STAND AT TOP}">
<path fill="#ffff99" stroke="#b15928" d="M267.75,-854.75C267.75,-854.75 390.5,-854.75 390.5,-854.75 396.5,-854.75 402.5,-860.75 402.5,-866.75 402.5,-866.75 402.5,-906 402.5,-906 402.5,-912 396.5,-918 390.5,-918 390.5,-918 267.75,-918 267.75,-918 261.75,-918 255.75,-912 255.75,-906 255.75,-906 255.75,-866.75 255.75,-866.75 255.75,-860.75 261.75,-854.75 267.75,-854.75"/>
<text text-anchor="middle" x="270.5" y="-892.83" font-family="Times New Roman,serif" font-size="14.00">21</text>
<polyline fill="none" stroke="#b15928" points="285.25,-878.5 285.25,-918"/>
<text text-anchor="middle" x="343.88" y="-900.7" font-family="Times New Roman,serif" font-size="14.00">Goblet Box Squat</text>
<text text-anchor="middle" x="343.88" y="-884.95" font-family="Times New Roman,serif" font-size="14.00">with Halo</text>
<polyline fill="none" stroke="#b15928" points="255.75,-878.5 402.5,-878.5"/>
<text text-anchor="middle" x="329.12" y="-861.2" font-family="Times New Roman,serif" font-size="14.00">STAND AT TOP</text>
</a>
</g>
</g>
<!-- mov_20_gobboxsquat&#45;&gt;mov_21_boxsquathalo -->
<g id="edge24" class="edge">
<title>mov_20_gobboxsquat&#45;&gt;mov_21_boxsquathalo</title>
<path fill="none" stroke="black" d="M376.29,-954.54C370.26,-945.94 363.62,-936.49 357.28,-927.46"/>
<polygon fill="black" stroke="black" points="360.3,-925.67 351.68,-919.5 354.57,-929.69 360.3,-925.67"/>
</g>
<!-- mov_22_gobsquathalo -->
<g id="node26" class="node">
<title>mov_22_gobsquathalo</title>
<g id="a_node26"><a xlink:href="https://www.youtube.com/watch?v=cnZ8Mx8NQPE&amp;list=PLk4oYPJ7TXKhX8YqA2AVrfgs_pEF6p7KA&amp;index=22" xlink:title="{{22|Goblet Squat\nwith Halo}|FULL DEPTH}">
<path fill="#ffff99" stroke="#b15928" d="M277.25,-754.5C277.25,-754.5 373,-754.5 373,-754.5 379,-754.5 385,-760.5 385,-766.5 385,-766.5 385,-805.75 385,-805.75 385,-811.75 379,-817.75 373,-817.75 373,-817.75 277.25,-817.75 277.25,-817.75 271.25,-817.75 265.25,-811.75 265.25,-805.75 265.25,-805.75 265.25,-766.5 265.25,-766.5 265.25,-760.5 271.25,-754.5 277.25,-754.5"/>
<text text-anchor="middle" x="280" y="-792.58" font-family="Times New Roman,serif" font-size="14.00">22</text>
<polyline fill="none" stroke="#b15928" points="294.75,-778.25 294.75,-817.75"/>
<text text-anchor="middle" x="339.88" y="-800.45" font-family="Times New Roman,serif" font-size="14.00">Goblet Squat</text>
<text text-anchor="middle" x="339.88" y="-784.7" font-family="Times New Roman,serif" font-size="14.00">with Halo</text>
<polyline fill="none" stroke="#b15928" points="265.25,-778.25 385,-778.25"/>
<text text-anchor="middle" x="325.12" y="-760.95" font-family="Times New Roman,serif" font-size="14.00">FULL DEPTH</text>
</a>
</g>
</g>
<!-- mov_21_boxsquathalo&#45;&gt;mov_22_gobsquathalo -->
<g id="edge25" class="edge">
<title>mov_21_boxsquathalo&#45;&gt;mov_22_gobsquathalo</title>
<path fill="none" stroke="black" d="M327.86,-854.29C327.54,-846.42 327.19,-837.83 326.85,-829.5"/>
<polygon fill="black" stroke="black" points="330.35,-829.37 326.44,-819.52 323.35,-829.66 330.35,-829.37"/>
</g>
<!-- mov_22_gobsquathalo&#45;&gt;mov_23_racksquat -->
<g id="edge26" class="edge">
<title>mov_22_gobsquathalo&#45;&gt;mov_23_racksquat</title>
<path fill="none" stroke="black" d="M325.12,-754.43C325.12,-745.49 325.12,-735.78 325.12,-727"/>
<polygon fill="black" stroke="black" points="328.63,-727.29 325.13,-717.29 321.63,-727.29 328.63,-727.29"/>
</g>
<!-- mov_23_racksquat&#45;&gt;mov_24_racklunge -->
<g id="edge28" class="edge">
<title>mov_23_racksquat&#45;&gt;mov_24_racklunge</title>
<path fill="none" stroke="black" d="M293.76,-679.27C277.11,-669.99 256,-658.23 235.95,-647.06"/>
<polygon fill="black" stroke="black" points="237.67,-644.01 227.23,-642.2 234.26,-650.12 237.67,-644.01"/>
</g>
<!-- Legend -->
<g id="node28" class="node">
<title>Legend</title>
<path fill="#ffff99" stroke="none" d="M510.62,-288C510.62,-288 341.62,-288 341.62,-288 335.62,-288 329.62,-282 329.62,-276 329.62,-276 329.62,-174 329.62,-174 329.62,-168 335.62,-162 341.62,-162 341.62,-162 510.62,-162 510.62,-162 516.62,-162 522.62,-168 522.62,-174 522.62,-174 522.62,-276 522.62,-276 522.62,-282 516.62,-288 510.62,-288"/>
<polygon fill="none" stroke="#b15928" points="329.62,-262 329.62,-288 522.62,-288 522.62,-262 329.62,-262"/>
<text text-anchor="start" x="403.62" y="-270.7" font-family="Times New Roman,serif" font-weight="bold" font-size="14.00">Legend</text>
<polygon fill="none" stroke="#b15928" points="329.62,-237 329.62,-262 494.62,-262 494.62,-237 329.62,-237"/>
<text text-anchor="start" x="334.5" y="-243.7" font-family="Times New Roman,serif" font-size="14.00">Prerequisites and next steps</text>
<polygon fill="#a6cee3" stroke="none" points="494.62,-237 494.62,-262 522.62,-262 522.62,-237 494.62,-237"/>
<polygon fill="none" stroke="#b15928" points="494.62,-237 494.62,-262 522.62,-262 522.62,-237 494.62,-237"/>
<text text-anchor="start" x="499.25" y="-243.7" font-family="Times New Roman,serif" font-size="14.00">     </text>
<polygon fill="none" stroke="#b15928" points="329.62,-212 329.62,-237 494.62,-237 494.62,-212 329.62,-212"/>
<text text-anchor="start" x="397.5" y="-218.7" font-family="Times New Roman,serif" font-size="14.00">Drills</text>
<polygon fill="#ffff99" stroke="none" points="494.62,-212 494.62,-237 522.62,-237 522.62,-212 494.62,-212"/>
<polygon fill="none" stroke="#b15928" points="494.62,-212 494.62,-237 522.62,-237 522.62,-212 494.62,-212"/>
<polygon fill="none" stroke="#b15928" points="329.62,-187 329.62,-212 494.62,-212 494.62,-187 329.62,-187"/>
<text text-anchor="start" x="372.38" y="-193.7" font-family="Times New Roman,serif" font-size="14.00">Warmup drills</text>
<polygon fill="#fdbf6f" stroke="none" points="494.62,-187 494.62,-212 522.62,-212 522.62,-187 494.62,-187"/>
<polygon fill="none" stroke="#b15928" points="494.62,-187 494.62,-212 522.62,-212 522.62,-187 494.62,-187"/>
<polygon fill="none" stroke="#b15928" points="329.62,-162 329.62,-187 494.62,-187 494.62,-162 329.62,-162"/>
<text text-anchor="start" x="372.75" y="-168.7" font-family="Times New Roman,serif" font-size="14.00">Learning drills</text>
<polygon fill="#cab2d6" stroke="none" points="494.62,-162 494.62,-187 522.62,-187 522.62,-162 494.62,-162"/>
<polygon fill="none" stroke="#b15928" points="494.62,-162 494.62,-187 522.62,-187 522.62,-162 494.62,-162"/>
</g>
</g>
</svg>
