<?xml version="1.0" encoding="UTF-8" standalone="no"?>
<!DOCTYPE svg PUBLIC "-//W3C//DTD SVG 1.1//EN"
 "http://www.w3.org/Graphics/SVG/1.1/DTD/svg11.dtd">
<!-- Generated by graphviz version 9.0.0 (20230911.1827)
 -->
<!-- Title: kb_progression Pages: 1 -->
<svg width="1411pt" height="908pt"
 viewBox="0.00 0.00 1411.12 907.75" xmlns="http://www.w3.org/2000/svg" xmlns:xlink="http://www.w3.org/1999/xlink">
<g id="graph0" class="graph" transform="scale(1 1) rotate(0) translate(4 903.75)">
<title>kb_progression</title>
<polygon fill="white" stroke="none" points="-4,4 -4,-903.75 1407.12,-903.75 1407.12,4 -4,4"/>
<text text-anchor="start" x="1003.62" y="-145.7" font-family="Helvetica,Arial,sans-serif" font-weight="bold" font-size="14.00">Kettlebell Basic Skill Progression &#45; Part 4/4</text>
<text text-anchor="start" x="1003.62" y="-117.7" font-family="Helvetica,Arial,sans-serif" font-size="14.00">Diagram by dznz based on Mark Wildman&#39;s teachings.</text>
<text text-anchor="start" x="1003.62" y="-89.7" font-family="Helvetica,Arial,sans-serif" font-size="14.00">Source: </text>
<text text-anchor="start" x="1056.88" y="-89.7" font-family="Helvetica,Arial,sans-serif" font-weight="bold" font-size="14.00">https://github.com/dznz/wildman&#45;skill&#45;trees</text>
<text text-anchor="start" x="1003.62" y="-61.7" font-family="Helvetica,Arial,sans-serif" font-size="14.00">More by Mark Wildman &#45; </text>
<text text-anchor="start" x="1159.62" y="-61.7" font-family="Helvetica,Arial,sans-serif" font-weight="bold" font-size="14.00">https://www.wildmanathletica.com</text>
<text text-anchor="start" x="1003.62" y="-33.7" font-family="Helvetica,Arial,sans-serif" font-style="italic" font-size="14.00">© 2023. This work is openly licensed with CC BY&#45;NC&#45;SA 4.0</text>
<text text-anchor="start" x="1071.88" y="-19.7" font-family="Helvetica,Arial,sans-serif" font-style="italic" font-size="14.00">http://creativecommons.org/licenses/by&#45;nc&#45;sa/4.0/</text>
<text text-anchor="start" x="1195.62" y="-5.7" font-family="Helvetica,Arial,sans-serif" font-size="14.00"> &#160;</text>
<g id="clust3" class="cluster">
<title>cluster_snatch</title>
<polygon fill="none" stroke="black" points="865.62,-170 865.62,-522.62 1201.62,-522.62 1201.62,-170 865.62,-170"/>
<text text-anchor="middle" x="1171.88" y="-505.32" font-family="Helvetica,Arial,sans-serif" font-size="14.00">Snatch</text>
</g>
<g id="clust2" class="cluster">
<title>cluster_double</title>
<polygon fill="none" stroke="black" points="141.62,-243 141.62,-770.25 698.62,-770.25 698.62,-243 141.62,-243"/>
<text text-anchor="middle" x="664" y="-752.95" font-family="Helvetica,Arial,sans-serif" font-size="14.00">Doubles</text>
</g>
<!-- ext_hc_dblswing -->
<g id="node1" class="node">
<title>ext_hc_dblswing</title>
<path fill="ghostwhite" stroke="lightslategrey" d="M13.5,-546C13.5,-546 119.75,-546 119.75,-546 125.75,-546 131.75,-552 131.75,-558 131.75,-558 131.75,-570 131.75,-570 131.75,-576 125.75,-582 119.75,-582 119.75,-582 13.5,-582 13.5,-582 7.5,-582 1.5,-576 1.5,-570 1.5,-570 1.5,-558 1.5,-558 1.5,-552 7.5,-546 13.5,-546"/>
<text text-anchor="middle" x="19.25" y="-558.7" font-family="Times New Roman,serif" font-size="14.00">HC</text>
<polyline fill="none" stroke="lightslategrey" points="37,-546.25 37,-582"/>
<text text-anchor="middle" x="84.38" y="-558.7" font-family="Times New Roman,serif" font-size="14.00">Double Swing</text>
</g>
<!-- ext_hc_dblrockit -->
<g id="node2" class="node">
<title>ext_hc_dblrockit</title>
<path fill="ghostwhite" stroke="lightslategrey" d="M12,-453.62C12,-453.62 121.25,-453.62 121.25,-453.62 127.25,-453.62 133.25,-459.62 133.25,-465.62 133.25,-465.62 133.25,-477.62 133.25,-477.62 133.25,-483.62 127.25,-489.62 121.25,-489.62 121.25,-489.62 12,-489.62 12,-489.62 6,-489.62 0,-483.62 0,-477.62 0,-477.62 0,-465.62 0,-465.62 0,-459.62 6,-453.62 12,-453.62"/>
<text text-anchor="middle" x="17.75" y="-466.32" font-family="Times New Roman,serif" font-size="14.00">HC</text>
<polyline fill="none" stroke="lightslategrey" points="35.5,-453.88 35.5,-489.62"/>
<text text-anchor="middle" x="84.38" y="-466.32" font-family="Times New Roman,serif" font-size="14.00">Double Rockit</text>
</g>
<!-- ext_hc_dblswing&#45;&gt;ext_hc_dblrockit -->
<g id="edge1" class="edge">
<title>ext_hc_dblswing&#45;&gt;ext_hc_dblrockit</title>
<path fill="none" stroke="black" d="M66.62,-545.57C66.62,-533.07 66.62,-515.94 66.62,-501.42"/>
<polygon fill="black" stroke="black" points="70.13,-501.51 66.63,-491.51 63.13,-501.51 70.13,-501.51"/>
</g>
<!-- mov_63_dblrockit -->
<g id="node16" class="node">
<title>mov_63_dblrockit</title>
<g id="a_node16"><a xlink:href="https://www.youtube.com/watch?v=zXB6hFrrBkA&amp;list=PLk4oYPJ7TXKhX8YqA2AVrfgs_pEF6p7KA&amp;index=63" xlink:title="{{63|Double Rockit}}">
<path fill="#ffff99" stroke="#b15928" d="M162,-347.5C162,-347.5 265.25,-347.5 265.25,-347.5 271.25,-347.5 277.25,-353.5 277.25,-359.5 277.25,-359.5 277.25,-371.5 277.25,-371.5 277.25,-377.5 271.25,-383.5 265.25,-383.5 265.25,-383.5 162,-383.5 162,-383.5 156,-383.5 150,-377.5 150,-371.5 150,-371.5 150,-359.5 150,-359.5 150,-353.5 156,-347.5 162,-347.5"/>
<text text-anchor="middle" x="164.75" y="-360.2" font-family="Times New Roman,serif" font-size="14.00">63</text>
<polyline fill="none" stroke="#b15928" points="179.5,-347.75 179.5,-383.5"/>
<text text-anchor="middle" x="228.38" y="-360.2" font-family="Times New Roman,serif" font-size="14.00">Double Rockit</text>
</a>
</g>
</g>
<!-- ext_hc_dblrockit&#45;&gt;mov_63_dblrockit -->
<g id="edge2" class="edge">
<title>ext_hc_dblrockit&#45;&gt;mov_63_dblrockit</title>
<path fill="none" stroke="black" d="M91.23,-453.2C115.5,-436 152.8,-409.59 179.84,-390.43"/>
<polygon fill="black" stroke="black" points="181.57,-393.5 187.71,-384.86 177.52,-387.78 181.57,-393.5"/>
</g>
<!-- mov_01_deadlift -->
<g id="node3" class="node">
<title>mov_01_deadlift</title>
<g id="a_node3"><a xlink:href="https://www.youtube.com/watch?v=x0XkmM34BPI&amp;list=PLk4oYPJ7TXKhX8YqA2AVrfgs_pEF6p7KA&amp;index=1" xlink:title="{{KB&#45;01|Two Hand Deadlift}|HIP HINGE}">
<path fill="ghostwhite" stroke="lightslategrey" d="M648.62,-851.75C648.62,-851.75 800.62,-851.75 800.62,-851.75 806.62,-851.75 812.62,-857.75 812.62,-863.75 812.62,-863.75 812.62,-887.25 812.62,-887.25 812.62,-893.25 806.62,-899.25 800.62,-899.25 800.62,-899.25 648.62,-899.25 648.62,-899.25 642.62,-899.25 636.62,-893.25 636.62,-887.25 636.62,-887.25 636.62,-863.75 636.62,-863.75 636.62,-857.75 642.62,-851.75 648.62,-851.75"/>
<text text-anchor="middle" x="663" y="-881.95" font-family="Times New Roman,serif" font-size="14.00">KB&#45;01</text>
<polyline fill="none" stroke="lightslategrey" points="689.38,-875.5 689.38,-899.25"/>
<text text-anchor="middle" x="751" y="-881.95" font-family="Times New Roman,serif" font-size="14.00">Two Hand Deadlift</text>
<polyline fill="none" stroke="lightslategrey" points="636.62,-875.5 812.62,-875.5"/>
<text text-anchor="middle" x="724.62" y="-858.2" font-family="Times New Roman,serif" font-size="14.00">HIP HINGE</text>
</a>
</g>
</g>
<!-- mov_56_suitcasedl -->
<g id="node9" class="node">
<title>mov_56_suitcasedl</title>
<g id="a_node9"><a xlink:href="https://www.youtube.com/watch?v=d6i6MwVOmk0&amp;list=PLk4oYPJ7TXKhX8YqA2AVrfgs_pEF6p7KA&amp;index=58" xlink:title="{{56|Suitcase Deadlift}}">
<path fill="#ffff99" stroke="#b15928" d="M667,-778.75C667,-778.75 782.25,-778.75 782.25,-778.75 788.25,-778.75 794.25,-784.75 794.25,-790.75 794.25,-790.75 794.25,-802.75 794.25,-802.75 794.25,-808.75 788.25,-814.75 782.25,-814.75 782.25,-814.75 667,-814.75 667,-814.75 661,-814.75 655,-808.75 655,-802.75 655,-802.75 655,-790.75 655,-790.75 655,-784.75 661,-778.75 667,-778.75"/>
<text text-anchor="middle" x="669.75" y="-791.45" font-family="Times New Roman,serif" font-size="14.00">56</text>
<polyline fill="none" stroke="#b15928" points="684.5,-779 684.5,-814.75"/>
<text text-anchor="middle" x="739.38" y="-791.45" font-family="Times New Roman,serif" font-size="14.00">Suitcase Deadlift</text>
</a>
</g>
</g>
<!-- mov_01_deadlift&#45;&gt;mov_56_suitcasedl -->
<g id="edge10" class="edge">
<title>mov_01_deadlift&#45;&gt;mov_56_suitcasedl</title>
<path fill="none" stroke="black" d="M724.62,-851.47C724.62,-843.64 724.62,-834.79 724.62,-826.56"/>
<polygon fill="black" stroke="black" points="728.13,-826.66 724.63,-816.66 721.13,-826.66 728.13,-826.66"/>
</g>
<!-- mov_10_h2h -->
<g id="node4" class="node">
<title>mov_10_h2h</title>
<g id="a_node4"><a xlink:href="https://www.youtube.com/watch?v=0Uk0Rdm3QFs&amp;list=PLk4oYPJ7TXKhX8YqA2AVrfgs_pEF6p7KA&amp;index=10" xlink:title="{{KB&#45;10|Hand to Hand\nTransition}}">
<path fill="ghostwhite" stroke="lightslategrey" d="M719.88,-624.75C719.88,-624.75 843.38,-624.75 843.38,-624.75 849.38,-624.75 855.38,-630.75 855.38,-636.75 855.38,-636.75 855.38,-652.25 855.38,-652.25 855.38,-658.25 849.38,-664.25 843.38,-664.25 843.38,-664.25 719.88,-664.25 719.88,-664.25 713.88,-664.25 707.88,-658.25 707.88,-652.25 707.88,-652.25 707.88,-636.75 707.88,-636.75 707.88,-630.75 713.88,-624.75 719.88,-624.75"/>
<text text-anchor="middle" x="734.25" y="-639.08" font-family="Times New Roman,serif" font-size="14.00">KB&#45;10</text>
<polyline fill="none" stroke="lightslategrey" points="760.62,-624.75 760.62,-664.25"/>
<text text-anchor="middle" x="808" y="-646.95" font-family="Times New Roman,serif" font-size="14.00">Hand to Hand</text>
<text text-anchor="middle" x="808" y="-631.2" font-family="Times New Roman,serif" font-size="14.00">Transition</text>
</a>
</g>
</g>
<!-- mov_60_dblswing -->
<g id="node13" class="node">
<title>mov_60_dblswing</title>
<g id="a_node13"><a xlink:href="https://www.youtube.com/watch?v=P5IFTJySA_s&amp;list=PLk4oYPJ7TXKhX8YqA2AVrfgs_pEF6p7KA&amp;index=61" xlink:title="{{60|Double Swing}}">
<path fill="#ffff99" stroke="#b15928" d="M554.5,-546C554.5,-546 654.75,-546 654.75,-546 660.75,-546 666.75,-552 666.75,-558 666.75,-558 666.75,-570 666.75,-570 666.75,-576 660.75,-582 654.75,-582 654.75,-582 554.5,-582 554.5,-582 548.5,-582 542.5,-576 542.5,-570 542.5,-570 542.5,-558 542.5,-558 542.5,-552 548.5,-546 554.5,-546"/>
<text text-anchor="middle" x="557.25" y="-558.7" font-family="Times New Roman,serif" font-size="14.00">60</text>
<polyline fill="none" stroke="#b15928" points="572,-546.25 572,-582"/>
<text text-anchor="middle" x="619.38" y="-558.7" font-family="Times New Roman,serif" font-size="14.00">Double Swing</text>
</a>
</g>
</g>
<!-- mov_10_h2h&#45;&gt;mov_60_dblswing -->
<g id="edge3" class="edge">
<title>mov_10_h2h&#45;&gt;mov_60_dblswing</title>
<path fill="none" stroke="black" d="M738.33,-624.3C712.85,-613 680.54,-598.67 654.06,-586.92"/>
<polygon fill="black" stroke="black" points="655.8,-583.87 645.24,-583.01 652.96,-590.27 655.8,-583.87"/>
</g>
<!-- mov_12_clean -->
<g id="node5" class="node">
<title>mov_12_clean</title>
<g id="a_node5"><a xlink:href="https://www.youtube.com/watch?v=_nIsSXWs5iU&amp;list=PLk4oYPJ7TXKhX8YqA2AVrfgs_pEF6p7KA&amp;index=12" xlink:title="KB&#45;12|Swing Clean">
<path fill="ghostwhite" stroke="lightslategrey" d="M894.38,-626.5C894.38,-626.5 1008.88,-626.5 1008.88,-626.5 1014.88,-626.5 1020.88,-632.5 1020.88,-638.5 1020.88,-638.5 1020.88,-650.5 1020.88,-650.5 1020.88,-656.5 1014.88,-662.5 1008.88,-662.5 1008.88,-662.5 894.38,-662.5 894.38,-662.5 888.38,-662.5 882.38,-656.5 882.38,-650.5 882.38,-650.5 882.38,-638.5 882.38,-638.5 882.38,-632.5 888.38,-626.5 894.38,-626.5"/>
<text text-anchor="middle" x="908.75" y="-639.08" font-family="Times New Roman,serif" font-size="14.00">KB&#45;12</text>
<polyline fill="none" stroke="lightslategrey" points="935.12,-626.5 935.12,-662.5"/>
<text text-anchor="middle" x="978" y="-639.08" font-family="Times New Roman,serif" font-size="14.00">Swing Clean</text>
</a>
</g>
</g>
<!-- mov_16_startstopclean -->
<g id="node6" class="node">
<title>mov_16_startstopclean</title>
<g id="a_node6"><a xlink:href="https://www.youtube.com/watch?v=XbK3jxI0WNQ&amp;list=PLk4oYPJ7TXKhX8YqA2AVrfgs_pEF6p7KA&amp;index=16" xlink:title="{{KB&#45;16|Start Stop Clean}|START &amp; END CLEAN}">
<path fill="ghostwhite" stroke="lightslategrey" d="M719.12,-540.25C719.12,-540.25 856.12,-540.25 856.12,-540.25 862.12,-540.25 868.12,-546.25 868.12,-552.25 868.12,-552.25 868.12,-575.75 868.12,-575.75 868.12,-581.75 862.12,-587.75 856.12,-587.75 856.12,-587.75 719.12,-587.75 719.12,-587.75 713.12,-587.75 707.12,-581.75 707.12,-575.75 707.12,-575.75 707.12,-552.25 707.12,-552.25 707.12,-546.25 713.12,-540.25 719.12,-540.25"/>
<text text-anchor="middle" x="733.5" y="-570.45" font-family="Times New Roman,serif" font-size="14.00">KB&#45;16</text>
<polyline fill="none" stroke="lightslategrey" points="759.88,-564 759.88,-587.75"/>
<text text-anchor="middle" x="814" y="-570.45" font-family="Times New Roman,serif" font-size="14.00">Start Stop Clean</text>
<polyline fill="none" stroke="lightslategrey" points="707.12,-564 868.12,-564"/>
<text text-anchor="middle" x="787.62" y="-546.7" font-family="Times New Roman,serif" font-size="14.00">START &amp; END CLEAN</text>
</a>
</g>
</g>
<!-- mov_12_clean&#45;&gt;mov_16_startstopclean -->
<g id="edge4" class="edge">
<title>mov_12_clean&#45;&gt;mov_16_startstopclean</title>
<path fill="none" stroke="black" d="M915.23,-626.08C895.02,-616.4 869.38,-604.13 846.4,-593.13"/>
<polygon fill="black" stroke="black" points="847.95,-590 837.42,-588.84 844.93,-596.31 847.95,-590"/>
</g>
<!-- mov_17_cap -->
<g id="node7" class="node">
<title>mov_17_cap</title>
<g id="a_node7"><a xlink:href="https://www.youtube.com/watch?v=SSxB3m5qRas&amp;list=PLk4oYPJ7TXKhX8YqA2AVrfgs_pEF6p7KA&amp;index=17" xlink:title="KB&#45;17|Clean &amp; Press">
<path fill="ghostwhite" stroke="lightslategrey" d="M897.75,-546C897.75,-546 1023.5,-546 1023.5,-546 1029.5,-546 1035.5,-552 1035.5,-558 1035.5,-558 1035.5,-570 1035.5,-570 1035.5,-576 1029.5,-582 1023.5,-582 1023.5,-582 897.75,-582 897.75,-582 891.75,-582 885.75,-576 885.75,-570 885.75,-570 885.75,-558 885.75,-558 885.75,-552 891.75,-546 897.75,-546"/>
<text text-anchor="middle" x="912.12" y="-558.58" font-family="Times New Roman,serif" font-size="14.00">KB&#45;17</text>
<polyline fill="none" stroke="lightslategrey" points="938.5,-546 938.5,-582"/>
<text text-anchor="middle" x="987" y="-558.58" font-family="Times New Roman,serif" font-size="14.00">Clean &amp; Press</text>
</a>
</g>
</g>
<!-- mov_12_clean&#45;&gt;mov_17_cap -->
<g id="edge5" class="edge">
<title>mov_12_clean&#45;&gt;mov_17_cap</title>
<path fill="none" stroke="black" d="M953.62,-626.08C954.72,-616.52 956.1,-604.44 957.35,-593.55"/>
<polygon fill="black" stroke="black" points="960.8,-594.21 958.46,-583.88 953.84,-593.41 960.8,-594.21"/>
</g>
<!-- mov_59_halfsnatchdown -->
<g id="node12" class="node">
<title>mov_59_halfsnatchdown</title>
<g id="a_node12"><a xlink:href="https://www.youtube.com/watch?v=u2NbMtX_Rb0&amp;list=PLk4oYPJ7TXKhX8YqA2AVrfgs_pEF6p7KA&amp;index=60" xlink:title="{{59|Half Snatch Down}}">
<path fill="#ffff99" stroke="#b15928" d="M886.5,-453.62C886.5,-453.62 1010.75,-453.62 1010.75,-453.62 1016.75,-453.62 1022.75,-459.62 1022.75,-465.62 1022.75,-465.62 1022.75,-477.62 1022.75,-477.62 1022.75,-483.62 1016.75,-489.62 1010.75,-489.62 1010.75,-489.62 886.5,-489.62 886.5,-489.62 880.5,-489.62 874.5,-483.62 874.5,-477.62 874.5,-477.62 874.5,-465.62 874.5,-465.62 874.5,-459.62 880.5,-453.62 886.5,-453.62"/>
<text text-anchor="middle" x="889.25" y="-466.32" font-family="Times New Roman,serif" font-size="14.00">59</text>
<polyline fill="none" stroke="#b15928" points="904,-453.88 904,-489.62"/>
<text text-anchor="middle" x="963.38" y="-466.32" font-family="Times New Roman,serif" font-size="14.00">Half Snatch Down</text>
</a>
</g>
</g>
<!-- mov_16_startstopclean&#45;&gt;mov_59_halfsnatchdown -->
<g id="edge8" class="edge">
<title>mov_16_startstopclean&#45;&gt;mov_59_halfsnatchdown</title>
<path fill="none" stroke="black" d="M833.67,-539.79C844.24,-534.29 855.38,-528.36 865.62,-522.62 880.78,-514.15 897.2,-504.39 911.4,-495.75"/>
<polygon fill="black" stroke="black" points="912.85,-498.97 919.55,-490.76 909.19,-492.99 912.85,-498.97"/>
</g>
<!-- mov_62_dblclean -->
<g id="node15" class="node">
<title>mov_62_dblclean</title>
<g id="a_node15"><a xlink:href="https://www.youtube.com/watch?v=Qe9ejhAtdGY&amp;list=PLk4oYPJ7TXKhX8YqA2AVrfgs_pEF6p7KA&amp;index=62" xlink:title="{{62|Double Clean}}">
<path fill="#ffff99" stroke="#b15928" d="M556,-453.62C556,-453.62 653.25,-453.62 653.25,-453.62 659.25,-453.62 665.25,-459.62 665.25,-465.62 665.25,-465.62 665.25,-477.62 665.25,-477.62 665.25,-483.62 659.25,-489.62 653.25,-489.62 653.25,-489.62 556,-489.62 556,-489.62 550,-489.62 544,-483.62 544,-477.62 544,-477.62 544,-465.62 544,-465.62 544,-459.62 550,-453.62 556,-453.62"/>
<text text-anchor="middle" x="558.75" y="-466.32" font-family="Times New Roman,serif" font-size="14.00">62</text>
<polyline fill="none" stroke="#b15928" points="573.5,-453.88 573.5,-489.62"/>
<text text-anchor="middle" x="619.38" y="-466.32" font-family="Times New Roman,serif" font-size="14.00">Double Clean</text>
</a>
</g>
</g>
<!-- mov_16_startstopclean&#45;&gt;mov_62_dblclean -->
<g id="edge7" class="edge">
<title>mov_16_startstopclean&#45;&gt;mov_62_dblclean</title>
<path fill="none" stroke="black" d="M734.51,-539.93C722.31,-534.42 709.46,-528.45 697.62,-522.62 680.33,-514.11 661.55,-504.15 645.42,-495.37"/>
<polygon fill="black" stroke="black" points="647.54,-492.54 637.09,-490.81 644.18,-498.68 647.54,-492.54"/>
</g>
<!-- mov_19_startstopcap -->
<g id="node8" class="node">
<title>mov_19_startstopcap</title>
<g id="a_node8"><a xlink:href="https://www.youtube.com/watch?v=dSj3kqbuois&amp;list=PLk4oYPJ7TXKhX8YqA2AVrfgs_pEF6p7KA&amp;index=19" xlink:title="{{KB&#45;19|Start Stop\nClean &amp; Press}|START &amp; END C&amp;P}">
<path fill="ghostwhite" stroke="lightslategrey" d="M718.75,-440C718.75,-440 844.5,-440 844.5,-440 850.5,-440 856.5,-446 856.5,-452 856.5,-452 856.5,-491.25 856.5,-491.25 856.5,-497.25 850.5,-503.25 844.5,-503.25 844.5,-503.25 718.75,-503.25 718.75,-503.25 712.75,-503.25 706.75,-497.25 706.75,-491.25 706.75,-491.25 706.75,-452 706.75,-452 706.75,-446 712.75,-440 718.75,-440"/>
<text text-anchor="middle" x="733.12" y="-478.07" font-family="Times New Roman,serif" font-size="14.00">KB&#45;19</text>
<polyline fill="none" stroke="lightslategrey" points="759.5,-463.75 759.5,-503.25"/>
<text text-anchor="middle" x="808" y="-485.95" font-family="Times New Roman,serif" font-size="14.00">Start Stop</text>
<text text-anchor="middle" x="808" y="-470.2" font-family="Times New Roman,serif" font-size="14.00">Clean &amp; Press</text>
<polyline fill="none" stroke="lightslategrey" points="706.75,-463.75 856.5,-463.75"/>
<text text-anchor="middle" x="781.62" y="-446.45" font-family="Times New Roman,serif" font-size="14.00">START &amp; END C&amp;P</text>
</a>
</g>
</g>
<!-- mov_17_cap&#45;&gt;mov_19_startstopcap -->
<g id="edge6" class="edge">
<title>mov_17_cap&#45;&gt;mov_19_startstopcap</title>
<path fill="none" stroke="black" d="M913.05,-545.51C896.5,-538.93 877.98,-531 861.62,-522.62 853.83,-518.64 845.81,-514.14 837.99,-509.51"/>
<polygon fill="black" stroke="black" points="839.89,-506.57 829.52,-504.39 836.27,-512.56 839.89,-506.57"/>
</g>
<!-- mov_65_dblcap -->
<g id="node18" class="node">
<title>mov_65_dblcap</title>
<g id="a_node18"><a xlink:href="https://www.youtube.com/watch?v=RizGV8ef--s" xlink:title="{{65|Double\nClean &amp; Press}}">
<path fill="#ffff99" stroke="#b15928" d="M576.38,-345.75C576.38,-345.75 678.88,-345.75 678.88,-345.75 684.88,-345.75 690.88,-351.75 690.88,-357.75 690.88,-357.75 690.88,-373.25 690.88,-373.25 690.88,-379.25 684.88,-385.25 678.88,-385.25 678.88,-385.25 576.38,-385.25 576.38,-385.25 570.38,-385.25 564.38,-379.25 564.38,-373.25 564.38,-373.25 564.38,-357.75 564.38,-357.75 564.38,-351.75 570.38,-345.75 576.38,-345.75"/>
<text text-anchor="middle" x="579.12" y="-360.07" font-family="Times New Roman,serif" font-size="14.00">65</text>
<polyline fill="none" stroke="#b15928" points="593.88,-345.75 593.88,-385.25"/>
<text text-anchor="middle" x="642.38" y="-367.95" font-family="Times New Roman,serif" font-size="14.00">Double</text>
<text text-anchor="middle" x="642.38" y="-352.2" font-family="Times New Roman,serif" font-size="14.00">Clean &amp; Press</text>
</a>
</g>
</g>
<!-- mov_19_startstopcap&#45;&gt;mov_65_dblcap -->
<g id="edge9" class="edge">
<title>mov_19_startstopcap&#45;&gt;mov_65_dblcap</title>
<path fill="none" stroke="black" d="M735.84,-439.67C713.39,-424.49 686.67,-406.42 665.41,-392.05"/>
<polygon fill="black" stroke="black" points="667.55,-389.27 657.31,-386.57 663.63,-395.07 667.55,-389.27"/>
</g>
<!-- mov_57_dblsuitcase -->
<g id="node10" class="node">
<title>mov_57_dblsuitcase</title>
<g id="a_node10"><a xlink:href="https://www.youtube.com/watch?v=4PSOSrDcGfc&amp;list=PLk4oYPJ7TXKhX8YqA2AVrfgs_pEF6p7KA&amp;index=59" xlink:title="{{57|Double Suitcase}}">
<path fill="#ffff99" stroke="#b15928" d="M556.5,-701.25C556.5,-701.25 668.75,-701.25 668.75,-701.25 674.75,-701.25 680.75,-707.25 680.75,-713.25 680.75,-713.25 680.75,-725.25 680.75,-725.25 680.75,-731.25 674.75,-737.25 668.75,-737.25 668.75,-737.25 556.5,-737.25 556.5,-737.25 550.5,-737.25 544.5,-731.25 544.5,-725.25 544.5,-725.25 544.5,-713.25 544.5,-713.25 544.5,-707.25 550.5,-701.25 556.5,-701.25"/>
<text text-anchor="middle" x="559.25" y="-713.95" font-family="Times New Roman,serif" font-size="14.00">57</text>
<polyline fill="none" stroke="#b15928" points="574,-701.5 574,-737.25"/>
<text text-anchor="middle" x="627.38" y="-713.95" font-family="Times New Roman,serif" font-size="14.00">Double Suitcase</text>
</a>
</g>
</g>
<!-- mov_56_suitcasedl&#45;&gt;mov_57_dblsuitcase -->
<g id="edge11" class="edge">
<title>mov_56_suitcasedl&#45;&gt;mov_57_dblsuitcase</title>
<path fill="none" stroke="black" d="M698.93,-778.43C683.71,-768.17 664.21,-755.02 647.59,-743.82"/>
<polygon fill="black" stroke="black" points="649.7,-741.02 639.46,-738.34 645.79,-746.83 649.7,-741.02"/>
</g>
<!-- mov_73_2hsbldl -->
<g id="node25" class="node">
<title>mov_73_2hsbldl</title>
<g id="a_node25"><a xlink:href="https://www.youtube.com/watch?v=-RD1qqe7P8M" xlink:title="{{73|Two Hand Single Bent Leg Deadlift}}">
<path fill="#ffff99" stroke="#b15928" d="M718.5,-701.25C718.5,-701.25 938.75,-701.25 938.75,-701.25 944.75,-701.25 950.75,-707.25 950.75,-713.25 950.75,-713.25 950.75,-725.25 950.75,-725.25 950.75,-731.25 944.75,-737.25 938.75,-737.25 938.75,-737.25 718.5,-737.25 718.5,-737.25 712.5,-737.25 706.5,-731.25 706.5,-725.25 706.5,-725.25 706.5,-713.25 706.5,-713.25 706.5,-707.25 712.5,-701.25 718.5,-701.25"/>
<text text-anchor="middle" x="721.25" y="-713.95" font-family="Times New Roman,serif" font-size="14.00">73</text>
<polyline fill="none" stroke="#b15928" points="736,-701.5 736,-737.25"/>
<text text-anchor="middle" x="843.38" y="-713.95" font-family="Times New Roman,serif" font-size="14.00">Two Hand Single Bent Leg Deadlift</text>
</a>
</g>
</g>
<!-- mov_56_suitcasedl&#45;&gt;mov_73_2hsbldl -->
<g id="edge12" class="edge">
<title>mov_56_suitcasedl&#45;&gt;mov_73_2hsbldl</title>
<path fill="none" stroke="black" d="M748.48,-778.43C762.49,-768.26 780.39,-755.27 795.72,-744.14"/>
<polygon fill="black" stroke="black" points="797.62,-747.09 803.65,-738.38 793.5,-741.42 797.62,-747.09"/>
</g>
<!-- mov_58_dblsumodl -->
<g id="node11" class="node">
<title>mov_58_dblsumodl</title>
<g id="a_node11"><a xlink:href="https://www.youtube.com/watch?v=gdutIla6nMw" xlink:title="{{58|Double Sumo Deadlift}}">
<path fill="#ffff99" stroke="#b15928" d="M531.62,-626.5C531.62,-626.5 677.62,-626.5 677.62,-626.5 683.62,-626.5 689.62,-632.5 689.62,-638.5 689.62,-638.5 689.62,-650.5 689.62,-650.5 689.62,-656.5 683.62,-662.5 677.62,-662.5 677.62,-662.5 531.62,-662.5 531.62,-662.5 525.62,-662.5 519.62,-656.5 519.62,-650.5 519.62,-650.5 519.62,-638.5 519.62,-638.5 519.62,-632.5 525.62,-626.5 531.62,-626.5"/>
<text text-anchor="middle" x="534.38" y="-639.2" font-family="Times New Roman,serif" font-size="14.00">58</text>
<polyline fill="none" stroke="#b15928" points="549.12,-626.75 549.12,-662.5"/>
<text text-anchor="middle" x="619.38" y="-639.2" font-family="Times New Roman,serif" font-size="14.00">Double Sumo Deadlift</text>
</a>
</g>
</g>
<!-- mov_57_dblsuitcase&#45;&gt;mov_58_dblsumodl -->
<g id="edge14" class="edge">
<title>mov_57_dblsuitcase&#45;&gt;mov_58_dblsumodl</title>
<path fill="none" stroke="black" d="M610.73,-701.01C609.85,-693 608.78,-683.27 607.78,-674.2"/>
<polygon fill="black" stroke="black" points="611.27,-673.93 606.7,-664.37 604.31,-674.7 611.27,-673.93"/>
</g>
<!-- mov_58_dblsumodl&#45;&gt;mov_60_dblswing -->
<g id="edge20" class="edge">
<title>mov_58_dblsumodl&#45;&gt;mov_60_dblswing</title>
<path fill="none" stroke="black" d="M604.62,-626.08C604.62,-616.52 604.62,-604.44 604.62,-593.55"/>
<polygon fill="black" stroke="black" points="608.13,-593.89 604.63,-583.89 601.13,-593.89 608.13,-593.89"/>
</g>
<!-- mov_61_halfsnatchup -->
<g id="node14" class="node">
<title>mov_61_halfsnatchup</title>
<g id="a_node14"><a xlink:href="https://www.youtube.com/watch?v=3HEmUyLYjjc" xlink:title="{{61|Half Snatch Up}}">
<path fill="#ffff99" stroke="#b15928" d="M894.75,-347.5C894.75,-347.5 1002.5,-347.5 1002.5,-347.5 1008.5,-347.5 1014.5,-353.5 1014.5,-359.5 1014.5,-359.5 1014.5,-371.5 1014.5,-371.5 1014.5,-377.5 1008.5,-383.5 1002.5,-383.5 1002.5,-383.5 894.75,-383.5 894.75,-383.5 888.75,-383.5 882.75,-377.5 882.75,-371.5 882.75,-371.5 882.75,-359.5 882.75,-359.5 882.75,-353.5 888.75,-347.5 894.75,-347.5"/>
<text text-anchor="middle" x="897.5" y="-360.2" font-family="Times New Roman,serif" font-size="14.00">61</text>
<polyline fill="none" stroke="#b15928" points="912.25,-347.75 912.25,-383.5"/>
<text text-anchor="middle" x="963.38" y="-360.2" font-family="Times New Roman,serif" font-size="14.00">Half Snatch Up</text>
</a>
</g>
</g>
<!-- mov_59_halfsnatchdown&#45;&gt;mov_61_halfsnatchup -->
<g id="edge22" class="edge">
<title>mov_59_halfsnatchdown&#45;&gt;mov_61_halfsnatchup</title>
<path fill="none" stroke="black" d="M948.62,-453.43C948.62,-437.6 948.62,-413.82 948.62,-395.13"/>
<polygon fill="black" stroke="black" points="952.13,-395.23 948.63,-385.23 945.13,-395.23 952.13,-395.23"/>
</g>
<!-- mov_60_dblswing&#45;&gt;mov_62_dblclean -->
<g id="edge15" class="edge">
<title>mov_60_dblswing&#45;&gt;mov_62_dblclean</title>
<path fill="none" stroke="black" d="M604.62,-545.57C604.62,-533.07 604.62,-515.94 604.62,-501.42"/>
<polygon fill="black" stroke="black" points="608.13,-501.51 604.63,-491.51 601.13,-501.51 608.13,-501.51"/>
</g>
<!-- mov_64_dbloutswing -->
<g id="node17" class="node">
<title>mov_64_dbloutswing</title>
<g id="a_node17"><a xlink:href="https://www.youtube.com/watch?v=yr_fRgGevsE" xlink:title="{{64|Double\nOutside Swing}}">
<path fill="#ffff99" stroke="#b15928" d="M288,-451.88C288,-451.88 391.25,-451.88 391.25,-451.88 397.25,-451.88 403.25,-457.88 403.25,-463.88 403.25,-463.88 403.25,-479.38 403.25,-479.38 403.25,-485.38 397.25,-491.38 391.25,-491.38 391.25,-491.38 288,-491.38 288,-491.38 282,-491.38 276,-485.38 276,-479.38 276,-479.38 276,-463.88 276,-463.88 276,-457.88 282,-451.88 288,-451.88"/>
<text text-anchor="middle" x="290.75" y="-466.2" font-family="Times New Roman,serif" font-size="14.00">64</text>
<polyline fill="none" stroke="#b15928" points="305.5,-451.88 305.5,-491.38"/>
<text text-anchor="middle" x="354.38" y="-474.07" font-family="Times New Roman,serif" font-size="14.00">Double</text>
<text text-anchor="middle" x="354.38" y="-458.32" font-family="Times New Roman,serif" font-size="14.00">Outside Swing</text>
</a>
</g>
</g>
<!-- mov_60_dblswing&#45;&gt;mov_64_dbloutswing -->
<g id="edge21" class="edge">
<title>mov_60_dblswing&#45;&gt;mov_64_dbloutswing</title>
<path fill="none" stroke="black" d="M553.53,-545.57C511.76,-531.33 452.36,-511.07 406.75,-495.52"/>
<polygon fill="black" stroke="black" points="408.09,-492.28 397.5,-492.36 405.84,-498.9 408.09,-492.28"/>
</g>
<!-- mov_66_snatch -->
<g id="node19" class="node">
<title>mov_66_snatch</title>
<g id="a_node19"><a xlink:href="https://www.youtube.com/watch?v=f-zkPiAlpQw&amp;list=PLk4oYPJ7TXKhX8YqA2AVrfgs_pEF6p7KA&amp;index=65" xlink:title="{{66|Full Snatch}}">
<path fill="#ffff99" stroke="#b15928" d="M906.38,-253.25C906.38,-253.25 990.88,-253.25 990.88,-253.25 996.88,-253.25 1002.88,-259.25 1002.88,-265.25 1002.88,-265.25 1002.88,-277.25 1002.88,-277.25 1002.88,-283.25 996.88,-289.25 990.88,-289.25 990.88,-289.25 906.38,-289.25 906.38,-289.25 900.38,-289.25 894.38,-283.25 894.38,-277.25 894.38,-277.25 894.38,-265.25 894.38,-265.25 894.38,-259.25 900.38,-253.25 906.38,-253.25"/>
<text text-anchor="middle" x="909.12" y="-265.95" font-family="Times New Roman,serif" font-size="14.00">66</text>
<polyline fill="none" stroke="#b15928" points="923.88,-253.5 923.88,-289.25"/>
<text text-anchor="middle" x="963.38" y="-265.95" font-family="Times New Roman,serif" font-size="14.00">Full Snatch</text>
</a>
</g>
</g>
<!-- mov_61_halfsnatchup&#45;&gt;mov_66_snatch -->
<g id="edge23" class="edge">
<title>mov_61_halfsnatchup&#45;&gt;mov_66_snatch</title>
<path fill="none" stroke="black" d="M948.62,-347.15C948.62,-334.13 948.62,-316.03 948.62,-300.88"/>
<polygon fill="black" stroke="black" points="952.13,-301.04 948.63,-291.04 945.13,-301.04 952.13,-301.04"/>
</g>
<!-- mov_62_dblclean&#45;&gt;mov_65_dblcap -->
<g id="edge16" class="edge">
<title>mov_62_dblclean&#45;&gt;mov_65_dblcap</title>
<path fill="none" stroke="black" d="M608.42,-453.43C611.83,-438.01 616.91,-415.02 620.98,-396.56"/>
<polygon fill="black" stroke="black" points="624.37,-397.48 623.11,-386.96 617.53,-395.97 624.37,-397.48"/>
</g>
<!-- mov_67_dblsquat -->
<g id="node20" class="node">
<title>mov_67_dblsquat</title>
<g id="a_node20"><a xlink:href="https://www.youtube.com/watch?v=dX5yXJa5Dm0&amp;list=PLk4oYPJ7TXKhX8YqA2AVrfgs_pEF6p7KA&amp;index=66" xlink:title="{{67|Double\nFront Squat}}">
<path fill="#ffff99" stroke="#b15928" d="M446.5,-345.75C446.5,-345.75 534.75,-345.75 534.75,-345.75 540.75,-345.75 546.75,-351.75 546.75,-357.75 546.75,-357.75 546.75,-373.25 546.75,-373.25 546.75,-379.25 540.75,-385.25 534.75,-385.25 534.75,-385.25 446.5,-385.25 446.5,-385.25 440.5,-385.25 434.5,-379.25 434.5,-373.25 434.5,-373.25 434.5,-357.75 434.5,-357.75 434.5,-351.75 440.5,-345.75 446.5,-345.75"/>
<text text-anchor="middle" x="449.25" y="-360.07" font-family="Times New Roman,serif" font-size="14.00">67</text>
<polyline fill="none" stroke="#b15928" points="464,-345.75 464,-385.25"/>
<text text-anchor="middle" x="505.38" y="-367.95" font-family="Times New Roman,serif" font-size="14.00">Double</text>
<text text-anchor="middle" x="505.38" y="-352.2" font-family="Times New Roman,serif" font-size="14.00">Front Squat</text>
</a>
</g>
</g>
<!-- mov_62_dblclean&#45;&gt;mov_67_dblsquat -->
<g id="edge17" class="edge">
<title>mov_62_dblclean&#45;&gt;mov_67_dblsquat</title>
<path fill="none" stroke="black" d="M585.54,-453.2C567.57,-436.78 540.4,-411.97 519.73,-393.08"/>
<polygon fill="black" stroke="black" points="522.17,-390.58 512.43,-386.42 517.45,-395.74 522.17,-390.58"/>
</g>
<!-- mov_71_deaddblclean -->
<g id="node24" class="node">
<title>mov_71_deaddblclean</title>
<g id="a_node24"><a xlink:href="https://www.youtube.com/watch?v=22bKQqMqAQY" xlink:title="{{71|Dead Stop\nDouble Clean}}">
<path fill="#ffff99" stroke="#b15928" d="M307,-345.75C307,-345.75 404.25,-345.75 404.25,-345.75 410.25,-345.75 416.25,-351.75 416.25,-357.75 416.25,-357.75 416.25,-373.25 416.25,-373.25 416.25,-379.25 410.25,-385.25 404.25,-385.25 404.25,-385.25 307,-385.25 307,-385.25 301,-385.25 295,-379.25 295,-373.25 295,-373.25 295,-357.75 295,-357.75 295,-351.75 301,-345.75 307,-345.75"/>
<text text-anchor="middle" x="309.75" y="-360.07" font-family="Times New Roman,serif" font-size="14.00">71</text>
<polyline fill="none" stroke="#b15928" points="324.5,-345.75 324.5,-385.25"/>
<text text-anchor="middle" x="370.38" y="-367.95" font-family="Times New Roman,serif" font-size="14.00">Dead Stop</text>
<text text-anchor="middle" x="370.38" y="-352.2" font-family="Times New Roman,serif" font-size="14.00">Double Clean</text>
</a>
</g>
</g>
<!-- mov_62_dblclean&#45;&gt;mov_71_deaddblclean -->
<g id="edge19" class="edge">
<title>mov_62_dblclean&#45;&gt;mov_71_deaddblclean</title>
<path fill="none" stroke="black" d="M553,-453.23C516.86,-440.58 467.7,-422.42 425.62,-403.5 417.16,-399.69 408.29,-395.32 399.81,-390.94"/>
<polygon fill="black" stroke="black" points="401.55,-387.9 391.07,-386.35 398.29,-394.1 401.55,-387.9"/>
</g>
<!-- mov_64_dbloutswing&#45;&gt;mov_63_dblrockit -->
<g id="edge13" class="edge">
<title>mov_64_dbloutswing&#45;&gt;mov_63_dblrockit</title>
<path fill="none" stroke="black" d="M316.51,-451.53C295.91,-434.5 265.63,-409.48 243.25,-390.98"/>
<polygon fill="black" stroke="black" points="245.6,-388.39 235.66,-384.71 241.14,-393.78 245.6,-388.39"/>
</g>
<!-- mov_69_snatchpress -->
<g id="node22" class="node">
<title>mov_69_snatchpress</title>
<g id="a_node22"><a xlink:href="https://www.youtube.com/watch?v=IzFPa_Q1yHM&amp;list=PLk4oYPJ7TXKhX8YqA2AVrfgs_pEF6p7KA&amp;index=67" xlink:title="{{69|Snatch Press}}">
<path fill="#ffff99" stroke="#b15928" d="M885.5,-178.5C885.5,-178.5 979.75,-178.5 979.75,-178.5 985.75,-178.5 991.75,-184.5 991.75,-190.5 991.75,-190.5 991.75,-202.5 991.75,-202.5 991.75,-208.5 985.75,-214.5 979.75,-214.5 979.75,-214.5 885.5,-214.5 885.5,-214.5 879.5,-214.5 873.5,-208.5 873.5,-202.5 873.5,-202.5 873.5,-190.5 873.5,-190.5 873.5,-184.5 879.5,-178.5 885.5,-178.5"/>
<text text-anchor="middle" x="888.25" y="-191.2" font-family="Times New Roman,serif" font-size="14.00">69</text>
<polyline fill="none" stroke="#b15928" points="903,-178.75 903,-214.5"/>
<text text-anchor="middle" x="947.38" y="-191.2" font-family="Times New Roman,serif" font-size="14.00">Snatch Press</text>
</a>
</g>
</g>
<!-- mov_66_snatch&#45;&gt;mov_69_snatchpress -->
<g id="edge24" class="edge">
<title>mov_66_snatch&#45;&gt;mov_69_snatchpress</title>
<path fill="none" stroke="black" d="M944.83,-253.01C943.05,-244.91 940.88,-235.05 938.87,-225.9"/>
<polygon fill="black" stroke="black" points="942.34,-225.36 936.77,-216.35 935.5,-226.87 942.34,-225.36"/>
</g>
<!-- mov_70_kneelsnatchup -->
<g id="node23" class="node">
<title>mov_70_kneelsnatchup</title>
<g id="a_node23"><a xlink:href="https://www.youtube.com/watch?v=1_UrK5SopL4" xlink:title="{{70|Half&#45;Kneeling Snatch Up}}">
<path fill="#ffff99" stroke="#b15928" d="M1021.5,-178.5C1021.5,-178.5 1181.75,-178.5 1181.75,-178.5 1187.75,-178.5 1193.75,-184.5 1193.75,-190.5 1193.75,-190.5 1193.75,-202.5 1193.75,-202.5 1193.75,-208.5 1187.75,-214.5 1181.75,-214.5 1181.75,-214.5 1021.5,-214.5 1021.5,-214.5 1015.5,-214.5 1009.5,-208.5 1009.5,-202.5 1009.5,-202.5 1009.5,-190.5 1009.5,-190.5 1009.5,-184.5 1015.5,-178.5 1021.5,-178.5"/>
<text text-anchor="middle" x="1024.25" y="-191.2" font-family="Times New Roman,serif" font-size="14.00">70</text>
<polyline fill="none" stroke="#b15928" points="1039,-178.75 1039,-214.5"/>
<text text-anchor="middle" x="1116.38" y="-191.2" font-family="Times New Roman,serif" font-size="14.00">Half&#45;Kneeling Snatch Up</text>
</a>
</g>
</g>
<!-- mov_66_snatch&#45;&gt;mov_70_kneelsnatchup -->
<g id="edge25" class="edge">
<title>mov_66_snatch&#45;&gt;mov_70_kneelsnatchup</title>
<path fill="none" stroke="black" d="M985.27,-252.82C1006.11,-242.92 1032.41,-230.41 1054.74,-219.79"/>
<polygon fill="black" stroke="black" points="1056.12,-223.01 1063.64,-215.56 1053.11,-216.69 1056.12,-223.01"/>
</g>
<!-- mov_68_dblclean2squat -->
<g id="node21" class="node">
<title>mov_68_dblclean2squat</title>
<g id="a_node21"><a xlink:href="https://www.youtube.com/watch?v=R3s6Wb_ApHM" xlink:title="{{68|Double Clean\nto Front Squat}}">
<path fill="#ffff99" stroke="#b15928" d="M439,-251.5C439,-251.5 542.25,-251.5 542.25,-251.5 548.25,-251.5 554.25,-257.5 554.25,-263.5 554.25,-263.5 554.25,-279 554.25,-279 554.25,-285 548.25,-291 542.25,-291 542.25,-291 439,-291 439,-291 433,-291 427,-285 427,-279 427,-279 427,-263.5 427,-263.5 427,-257.5 433,-251.5 439,-251.5"/>
<text text-anchor="middle" x="441.75" y="-265.82" font-family="Times New Roman,serif" font-size="14.00">68</text>
<polyline fill="none" stroke="#b15928" points="456.5,-251.5 456.5,-291"/>
<text text-anchor="middle" x="505.38" y="-273.7" font-family="Times New Roman,serif" font-size="14.00">Double Clean</text>
<text text-anchor="middle" x="505.38" y="-257.95" font-family="Times New Roman,serif" font-size="14.00">to Front Squat</text>
</a>
</g>
</g>
<!-- mov_67_dblsquat&#45;&gt;mov_68_dblclean2squat -->
<g id="edge18" class="edge">
<title>mov_67_dblsquat&#45;&gt;mov_68_dblclean2squat</title>
<path fill="none" stroke="black" d="M490.62,-345.39C490.62,-333.02 490.62,-316.65 490.62,-302.53"/>
<polygon fill="black" stroke="black" points="494.13,-302.85 490.63,-292.85 487.13,-302.85 494.13,-302.85"/>
</g>
<!-- Legend -->
<g id="node26" class="node">
<title>Legend</title>
<path fill="#ffff99" stroke="none" d="M1391.12,-403.5C1391.12,-403.5 1222.12,-403.5 1222.12,-403.5 1216.12,-403.5 1210.12,-397.5 1210.12,-391.5 1210.12,-391.5 1210.12,-339.5 1210.12,-339.5 1210.12,-333.5 1216.12,-327.5 1222.12,-327.5 1222.12,-327.5 1391.12,-327.5 1391.12,-327.5 1397.12,-327.5 1403.12,-333.5 1403.12,-339.5 1403.12,-339.5 1403.12,-391.5 1403.12,-391.5 1403.12,-397.5 1397.12,-403.5 1391.12,-403.5"/>
<polygon fill="none" stroke="#b15928" points="1210.12,-377.5 1210.12,-403.5 1403.12,-403.5 1403.12,-377.5 1210.12,-377.5"/>
<text text-anchor="start" x="1284.12" y="-386.2" font-family="Times New Roman,serif" font-weight="bold" font-size="14.00">Legend</text>
<polygon fill="none" stroke="#b15928" points="1210.12,-352.5 1210.12,-377.5 1375.12,-377.5 1375.12,-352.5 1210.12,-352.5"/>
<text text-anchor="start" x="1215" y="-359.2" font-family="Times New Roman,serif" font-size="14.00">Prerequisites and next steps</text>
<polygon fill="ghostwhite" stroke="none" points="1375.12,-352.5 1375.12,-377.5 1403.12,-377.5 1403.12,-352.5 1375.12,-352.5"/>
<polygon fill="none" stroke="#b15928" points="1375.12,-352.5 1375.12,-377.5 1403.12,-377.5 1403.12,-352.5 1375.12,-352.5"/>
<text text-anchor="start" x="1379.75" y="-359.2" font-family="Times New Roman,serif" font-size="14.00">     </text>
<polygon fill="none" stroke="#b15928" points="1210.12,-327.5 1210.12,-352.5 1375.12,-352.5 1375.12,-327.5 1210.12,-327.5"/>
<text text-anchor="start" x="1278" y="-334.2" font-family="Times New Roman,serif" font-size="14.00">Drills</text>
<polygon fill="#ffff99" stroke="none" points="1375.12,-327.5 1375.12,-352.5 1403.12,-352.5 1403.12,-327.5 1375.12,-327.5"/>
<polygon fill="none" stroke="#b15928" points="1375.12,-327.5 1375.12,-352.5 1403.12,-352.5 1403.12,-327.5 1375.12,-327.5"/>
</g>
</g>
</svg>
