<?xml version="1.0" encoding="UTF-8" standalone="no"?>
<!DOCTYPE svg PUBLIC "-//W3C//DTD SVG 1.1//EN"
 "http://www.w3.org/Graphics/SVG/1.1/DTD/svg11.dtd">
<!-- Generated by graphviz version 8.1.0 (20230707.0739)
 -->
<!-- Title: kb_progression Pages: 1 -->
<svg width="981pt" height="784pt"
 viewBox="0.00 0.00 981.00 784.25" xmlns="http://www.w3.org/2000/svg" xmlns:xlink="http://www.w3.org/1999/xlink">
<g id="graph0" class="graph" transform="scale(1 1) rotate(0) translate(4 780.25)">
<title>kb_progression</title>
<polygon fill="white" stroke="none" points="-4,4 -4,-780.25 977,-780.25 977,4 -4,4"/>
<text text-anchor="middle" x="486.5" y="-6.45" font-family="Times New Roman,serif" font-size="14.00">Kettlebell Turkish Get&#45;Up Progression</text>
<g id="clust2" class="cluster">
<title>cluster_tgd</title>
<polygon fill="none" stroke="black" points="8,-31.75 8,-691.5 420,-691.5 420,-31.75 8,-31.75"/>
<text text-anchor="middle" x="214" y="-674.2" font-family="Times New Roman,serif" font-size="14.00">Turkish Get Down</text>
</g>
<g id="clust3" class="cluster">
<title>cluster_tgu</title>
<polygon fill="none" stroke="black" points="765,-261.25 765,-768.25 965,-768.25 965,-261.25 765,-261.25"/>
<text text-anchor="middle" x="865" y="-750.95" font-family="Times New Roman,serif" font-size="14.00">Turkish Get Up</text>
</g>
<!-- mov_racksquat -->
<g id="node1" class="node">
<title>mov_racksquat</title>
<g id="a_node1"><a xlink:href="https://www.youtube.com/watch?v=KTDVl0Lkdc4&amp;list=PLk4oYPJ7TXKhX8YqA2AVrfgs_pEF6p7KA&amp;index=23" xlink:title="{{KB&#45;23|Single&#45;Bell Front Squat}}">
<path fill="#b2df8a" stroke="#33a02c" d="M235.75,-700C235.75,-700 410.25,-700 410.25,-700 416.25,-700 422.25,-706 422.25,-712 422.25,-712 422.25,-724 422.25,-724 422.25,-730 416.25,-736 410.25,-736 410.25,-736 235.75,-736 235.75,-736 229.75,-736 223.75,-730 223.75,-724 223.75,-724 223.75,-712 223.75,-712 223.75,-706 229.75,-700 235.75,-700"/>
<text text-anchor="middle" x="250.12" y="-712.7" font-family="Times New Roman,serif" font-size="14.00">KB&#45;23</text>
<polyline fill="none" stroke="#33a02c" points="276.5,-700.25 276.5,-736"/>
<text text-anchor="middle" x="349.38" y="-712.7" font-family="Times New Roman,serif" font-size="14.00">Single&#45;Bell Front Squat</text>
</a>
</g>
</g>
<!-- mov_racklunge -->
<g id="node6" class="node">
<title>mov_racklunge</title>
<g id="a_node6"><a xlink:href="https://www.youtube.com/watch?v=KTDVl0Lkdc4&amp;list=PLk4oYPJ7TXKhX8YqA2AVrfgs_pEF6p7KA&amp;index=24" xlink:title="{{24|Rack Opposite Leg\nStep&#45;Back Lunge}|VERTICAL SPINE}">
<path fill="#ffff99" stroke="#b15928" d="M257.5,-596C257.5,-596 388.5,-596 388.5,-596 394.5,-596 400.5,-602 400.5,-608 400.5,-608 400.5,-647.25 400.5,-647.25 400.5,-653.25 394.5,-659.25 388.5,-659.25 388.5,-659.25 257.5,-659.25 257.5,-659.25 251.5,-659.25 245.5,-653.25 245.5,-647.25 245.5,-647.25 245.5,-608 245.5,-608 245.5,-602 251.5,-596 257.5,-596"/>
<text text-anchor="middle" x="260.25" y="-634.08" font-family="Times New Roman,serif" font-size="14.00">24</text>
<polyline fill="none" stroke="#b15928" points="275,-619.75 275,-659.25"/>
<text text-anchor="middle" x="337.75" y="-641.95" font-family="Times New Roman,serif" font-size="14.00">Rack Opposite Leg</text>
<text text-anchor="middle" x="337.75" y="-626.2" font-family="Times New Roman,serif" font-size="14.00">Step&#45;Back Lunge</text>
<polyline fill="none" stroke="#b15928" points="245.5,-619.75 400.5,-619.75"/>
<text text-anchor="middle" x="323" y="-602.45" font-family="Times New Roman,serif" font-size="14.00">VERTICAL SPINE</text>
</a>
</g>
</g>
<!-- mov_racksquat&#45;&gt;mov_racklunge -->
<g id="edge4" class="edge">
<title>mov_racksquat&#45;&gt;mov_racklunge</title>
<path fill="none" stroke="black" d="M323,-700.38C323,-691.77 323,-680.83 323,-670.11"/>
<polygon fill="black" stroke="black" points="326.5,-670.12 323,-660.12 319.5,-670.12 326.5,-670.12"/>
</g>
<!-- mov_cap -->
<g id="node2" class="node">
<title>mov_cap</title>
<g id="a_node2"><a xlink:href="https://www.youtube.com/watch?v=SSxB3m5qRas&amp;list=PLk4oYPJ7TXKhX8YqA2AVrfgs_pEF6p7KA&amp;index=17" xlink:title="KB&#45;17|Clean &amp; Press">
<path fill="#b2df8a" stroke="#33a02c" d="M619.12,-609.62C619.12,-609.62 744.88,-609.62 744.88,-609.62 750.88,-609.62 756.88,-615.62 756.88,-621.62 756.88,-621.62 756.88,-633.62 756.88,-633.62 756.88,-639.62 750.88,-645.62 744.88,-645.62 744.88,-645.62 619.12,-645.62 619.12,-645.62 613.12,-645.62 607.12,-639.62 607.12,-633.62 607.12,-633.62 607.12,-621.62 607.12,-621.62 607.12,-615.62 613.12,-609.62 619.12,-609.62"/>
<text text-anchor="middle" x="633.5" y="-622.2" font-family="Times New Roman,serif" font-size="14.00">KB&#45;17</text>
<polyline fill="none" stroke="#33a02c" points="659.88,-609.62 659.88,-645.62"/>
<text text-anchor="middle" x="708.38" y="-622.2" font-family="Times New Roman,serif" font-size="14.00">Clean &amp; Press</text>
</a>
</g>
</g>
<!-- mov_startstopcap -->
<g id="node3" class="node">
<title>mov_startstopcap</title>
<g id="a_node3"><a xlink:href="https://www.youtube.com/watch?v=dSj3kqbuois&amp;list=PLk4oYPJ7TXKhX8YqA2AVrfgs_pEF6p7KA&amp;index=19" xlink:title="{{KB&#45;19|Start Stop\nClean &amp; Press}|START &amp; END C&amp;P}">
<path fill="#b2df8a" stroke="#33a02c" d="M529.12,-495.75C529.12,-495.75 654.88,-495.75 654.88,-495.75 660.88,-495.75 666.88,-501.75 666.88,-507.75 666.88,-507.75 666.88,-547 666.88,-547 666.88,-553 660.88,-559 654.88,-559 654.88,-559 529.12,-559 529.12,-559 523.12,-559 517.12,-553 517.12,-547 517.12,-547 517.12,-507.75 517.12,-507.75 517.12,-501.75 523.12,-495.75 529.12,-495.75"/>
<text text-anchor="middle" x="543.5" y="-533.83" font-family="Times New Roman,serif" font-size="14.00">KB&#45;19</text>
<polyline fill="none" stroke="#33a02c" points="569.88,-519.5 569.88,-559"/>
<text text-anchor="middle" x="618.38" y="-541.7" font-family="Times New Roman,serif" font-size="14.00">Start Stop</text>
<text text-anchor="middle" x="618.38" y="-525.95" font-family="Times New Roman,serif" font-size="14.00">Clean &amp; Press</text>
<polyline fill="none" stroke="#33a02c" points="517.12,-519.5 666.88,-519.5"/>
<text text-anchor="middle" x="592" y="-502.2" font-family="Times New Roman,serif" font-size="14.00">START &amp; END C&amp;P</text>
</a>
</g>
</g>
<!-- mov_cap&#45;&gt;mov_startstopcap -->
<g id="edge3" class="edge">
<title>mov_cap&#45;&gt;mov_startstopcap</title>
<path fill="none" stroke="black" d="M666.73,-609.96C655.8,-598.02 640.63,-581.46 626.81,-566.38"/>
<polygon fill="black" stroke="black" points="630.07,-564.66 620.74,-559.65 624.91,-569.39 630.07,-564.66"/>
</g>
<!-- mov_halfkneelcap -->
<g id="node11" class="node">
<title>mov_halfkneelcap</title>
<g id="a_node11"><a xlink:href="https://www.youtube.com/watch?v=KTDVl0Lkdc4&amp;list=PLk4oYPJ7TXKhX8YqA2AVrfgs_pEF6p7KA&amp;index=29" xlink:title="{{29|Half&#45;Kneeling\nClean &amp; Press}}">
<path fill="#ffff99" stroke="#b15928" d="M271.75,-346.25C271.75,-346.25 374.25,-346.25 374.25,-346.25 380.25,-346.25 386.25,-352.25 386.25,-358.25 386.25,-358.25 386.25,-373.75 386.25,-373.75 386.25,-379.75 380.25,-385.75 374.25,-385.75 374.25,-385.75 271.75,-385.75 271.75,-385.75 265.75,-385.75 259.75,-379.75 259.75,-373.75 259.75,-373.75 259.75,-358.25 259.75,-358.25 259.75,-352.25 265.75,-346.25 271.75,-346.25"/>
<text text-anchor="middle" x="274.5" y="-360.57" font-family="Times New Roman,serif" font-size="14.00">29</text>
<polyline fill="none" stroke="#b15928" points="289.25,-346.25 289.25,-385.75"/>
<text text-anchor="middle" x="337.75" y="-368.45" font-family="Times New Roman,serif" font-size="14.00">Half&#45;Kneeling</text>
<text text-anchor="middle" x="337.75" y="-352.7" font-family="Times New Roman,serif" font-size="14.00">Clean &amp; Press</text>
</a>
</g>
</g>
<!-- mov_startstopcap&#45;&gt;mov_halfkneelcap -->
<g id="edge5" class="edge">
<title>mov_startstopcap&#45;&gt;mov_halfkneelcap</title>
<path fill="none" stroke="black" d="M540.45,-495.83C489.07,-465.39 411.19,-419.25 363.91,-391.24"/>
<polygon fill="black" stroke="black" points="365.98,-387.81 355.59,-385.72 362.41,-393.83 365.98,-387.81"/>
</g>
<!-- mov_clean -->
<g id="node4" class="node">
<title>mov_clean</title>
<g id="a_node4"><a xlink:href="https://www.youtube.com/watch?v=_nIsSXWs5iU&amp;list=PLk4oYPJ7TXKhX8YqA2AVrfgs_pEF6p7KA&amp;index=12" xlink:title="KB&#45;12|Swing Clean">
<path fill="#b2df8a" stroke="#33a02c" d="M538.75,-700C538.75,-700 653.25,-700 653.25,-700 659.25,-700 665.25,-706 665.25,-712 665.25,-712 665.25,-724 665.25,-724 665.25,-730 659.25,-736 653.25,-736 653.25,-736 538.75,-736 538.75,-736 532.75,-736 526.75,-730 526.75,-724 526.75,-724 526.75,-712 526.75,-712 526.75,-706 532.75,-700 538.75,-700"/>
<text text-anchor="middle" x="553.12" y="-712.58" font-family="Times New Roman,serif" font-size="14.00">KB&#45;12</text>
<polyline fill="none" stroke="#33a02c" points="579.5,-700 579.5,-736"/>
<text text-anchor="middle" x="622.38" y="-712.58" font-family="Times New Roman,serif" font-size="14.00">Swing Clean</text>
</a>
</g>
</g>
<!-- mov_clean&#45;&gt;mov_cap -->
<g id="edge2" class="edge">
<title>mov_clean&#45;&gt;mov_cap</title>
<path fill="none" stroke="black" d="M612.18,-700.38C625.19,-687.01 643.65,-668.03 658.33,-652.95"/>
<polygon fill="black" stroke="black" points="660.14,-656.08 664.6,-646.47 655.12,-651.2 660.14,-656.08"/>
</g>
<!-- mov_startstopclean -->
<g id="node5" class="node">
<title>mov_startstopclean</title>
<g id="a_node5"><a xlink:href="https://www.youtube.com/watch?v=XbK3jxI0WNQ&amp;list=PLk4oYPJ7TXKhX8YqA2AVrfgs_pEF6p7KA&amp;index=16" xlink:title="{{KB&#45;16|Start Stop Clean}|START &amp; END CLEAN}">
<path fill="#b2df8a" stroke="#33a02c" d="M440.5,-603.88C440.5,-603.88 577.5,-603.88 577.5,-603.88 583.5,-603.88 589.5,-609.88 589.5,-615.88 589.5,-615.88 589.5,-639.38 589.5,-639.38 589.5,-645.38 583.5,-651.38 577.5,-651.38 577.5,-651.38 440.5,-651.38 440.5,-651.38 434.5,-651.38 428.5,-645.38 428.5,-639.38 428.5,-639.38 428.5,-615.88 428.5,-615.88 428.5,-609.88 434.5,-603.88 440.5,-603.88"/>
<text text-anchor="middle" x="454.88" y="-634.08" font-family="Times New Roman,serif" font-size="14.00">KB&#45;16</text>
<polyline fill="none" stroke="#33a02c" points="481.25,-627.62 481.25,-651.38"/>
<text text-anchor="middle" x="535.38" y="-634.08" font-family="Times New Roman,serif" font-size="14.00">Start Stop Clean</text>
<polyline fill="none" stroke="#33a02c" points="428.5,-627.62 589.5,-627.62"/>
<text text-anchor="middle" x="509" y="-610.33" font-family="Times New Roman,serif" font-size="14.00">START &amp; END CLEAN</text>
</a>
</g>
</g>
<!-- mov_clean&#45;&gt;mov_startstopclean -->
<g id="edge1" class="edge">
<title>mov_clean&#45;&gt;mov_startstopclean</title>
<path fill="none" stroke="black" d="M579.64,-700.38C568.09,-688.65 552.3,-672.61 538.57,-658.67"/>
<polygon fill="black" stroke="black" points="541.71,-656.85 532.2,-652.18 536.72,-661.76 541.71,-656.85"/>
</g>
<!-- mov_clean2sblunge -->
<g id="node7" class="node">
<title>mov_clean2sblunge</title>
<g id="a_node7"><a xlink:href="https://www.youtube.com/watch?v=KTDVl0Lkdc4&amp;list=PLk4oYPJ7TXKhX8YqA2AVrfgs_pEF6p7KA&amp;index=25" xlink:title="{{25|Clean Step&#45;Back Clean}}">
<path fill="#ffff99" stroke="#b15928" d="M247.75,-509.38C247.75,-509.38 398.25,-509.38 398.25,-509.38 404.25,-509.38 410.25,-515.38 410.25,-521.38 410.25,-521.38 410.25,-533.38 410.25,-533.38 410.25,-539.38 404.25,-545.38 398.25,-545.38 398.25,-545.38 247.75,-545.38 247.75,-545.38 241.75,-545.38 235.75,-539.38 235.75,-533.38 235.75,-533.38 235.75,-521.38 235.75,-521.38 235.75,-515.38 241.75,-509.38 247.75,-509.38"/>
<text text-anchor="middle" x="250.5" y="-522.08" font-family="Times New Roman,serif" font-size="14.00">25</text>
<polyline fill="none" stroke="#b15928" points="265.25,-509.62 265.25,-545.38"/>
<text text-anchor="middle" x="337.75" y="-522.08" font-family="Times New Roman,serif" font-size="14.00">Clean Step&#45;Back Clean</text>
</a>
</g>
</g>
<!-- mov_startstopclean&#45;&gt;mov_clean2sblunge -->
<g id="edge6" class="edge">
<title>mov_startstopclean&#45;&gt;mov_clean2sblunge</title>
<path fill="none" stroke="black" d="M466.33,-604.08C435.75,-587.93 394.77,-566.29 364.47,-550.28"/>
<polygon fill="black" stroke="black" points="366.51,-546.87 356.03,-545.29 363.24,-553.06 366.51,-546.87"/>
</g>
<!-- mov_racklunge&#45;&gt;mov_clean2sblunge -->
<g id="edge7" class="edge">
<title>mov_racklunge&#45;&gt;mov_clean2sblunge</title>
<path fill="none" stroke="black" d="M323,-596.08C323,-583.22 323,-568.38 323,-555.88"/>
<polygon fill="black" stroke="black" points="326.5,-556.17 323,-546.17 319.5,-556.17 326.5,-556.17"/>
</g>
<!-- mov_halfkneelclean -->
<g id="node8" class="node">
<title>mov_halfkneelclean</title>
<g id="a_node8"><a xlink:href="https://www.youtube.com/watch?v=KTDVl0Lkdc4&amp;list=PLk4oYPJ7TXKhX8YqA2AVrfgs_pEF6p7KA&amp;index=26" xlink:title="{{26|Half&#45;Kneeling Clean}}">
<path fill="#ffff99" stroke="#b15928" d="M256.75,-422.75C256.75,-422.75 389.25,-422.75 389.25,-422.75 395.25,-422.75 401.25,-428.75 401.25,-434.75 401.25,-434.75 401.25,-446.75 401.25,-446.75 401.25,-452.75 395.25,-458.75 389.25,-458.75 389.25,-458.75 256.75,-458.75 256.75,-458.75 250.75,-458.75 244.75,-452.75 244.75,-446.75 244.75,-446.75 244.75,-434.75 244.75,-434.75 244.75,-428.75 250.75,-422.75 256.75,-422.75"/>
<text text-anchor="middle" x="259.5" y="-435.45" font-family="Times New Roman,serif" font-size="14.00">26</text>
<polyline fill="none" stroke="#b15928" points="274.25,-423 274.25,-458.75"/>
<text text-anchor="middle" x="337.75" y="-435.45" font-family="Times New Roman,serif" font-size="14.00">Half&#45;Kneeling Clean</text>
</a>
</g>
</g>
<!-- mov_clean2sblunge&#45;&gt;mov_halfkneelclean -->
<g id="edge8" class="edge">
<title>mov_clean2sblunge&#45;&gt;mov_halfkneelclean</title>
<path fill="none" stroke="black" d="M323,-509.66C323,-498.26 323,-482.89 323,-469.65"/>
<polygon fill="black" stroke="black" points="326.5,-469.72 323,-459.72 319.5,-469.72 326.5,-469.72"/>
</g>
<!-- mov_cleansblungeclean -->
<g id="node9" class="node">
<title>mov_cleansblungeclean</title>
<g id="a_node9"><a xlink:href="https://www.youtube.com/watch?v=KTDVl0Lkdc4&amp;list=PLk4oYPJ7TXKhX8YqA2AVrfgs_pEF6p7KA&amp;index=27" xlink:title="{{27|Clean Step&#45;Back\nLunge Clean}}">
<path fill="#ffff99" stroke="#b15928" d="M81.38,-269.75C81.38,-269.75 196.62,-269.75 196.62,-269.75 202.62,-269.75 208.62,-275.75 208.62,-281.75 208.62,-281.75 208.62,-297.25 208.62,-297.25 208.62,-303.25 202.62,-309.25 196.62,-309.25 196.62,-309.25 81.38,-309.25 81.38,-309.25 75.38,-309.25 69.38,-303.25 69.38,-297.25 69.38,-297.25 69.38,-281.75 69.38,-281.75 69.38,-275.75 75.38,-269.75 81.38,-269.75"/>
<text text-anchor="middle" x="84.12" y="-284.07" font-family="Times New Roman,serif" font-size="14.00">27</text>
<polyline fill="none" stroke="#b15928" points="98.88,-269.75 98.88,-309.25"/>
<text text-anchor="middle" x="153.75" y="-291.95" font-family="Times New Roman,serif" font-size="14.00">Clean Step&#45;Back</text>
<text text-anchor="middle" x="153.75" y="-276.2" font-family="Times New Roman,serif" font-size="14.00">Lunge Clean</text>
</a>
</g>
</g>
<!-- mov_halfkneelclean&#45;&gt;mov_cleansblungeclean -->
<g id="edge9" class="edge">
<title>mov_halfkneelclean&#45;&gt;mov_cleansblungeclean</title>
<path fill="none" stroke="black" d="M299.35,-422.8C285.15,-412.47 266.83,-398.87 251,-386.25 222.09,-363.2 190.12,-335.65 167.77,-316.04"/>
<polygon fill="black" stroke="black" points="170.52,-312.91 160.7,-308.94 165.89,-318.17 170.52,-312.91"/>
</g>
<!-- mov_halfkneelclean&#45;&gt;mov_halfkneelcap -->
<g id="edge10" class="edge">
<title>mov_halfkneelclean&#45;&gt;mov_halfkneelcap</title>
<path fill="none" stroke="black" d="M323,-422.88C323,-415.03 323,-405.45 323,-396.47"/>
<polygon fill="black" stroke="black" points="326.5,-396.57 323,-386.57 319.5,-396.57 326.5,-396.57"/>
</g>
<!-- mov_cap2ohsblunge -->
<g id="node17" class="node">
<title>mov_cap2ohsblunge</title>
<g id="a_node17"><a xlink:href="https://www.youtube.com/watch?v=KTDVl0Lkdc4&amp;list=PLk4oYPJ7TXKhX8YqA2AVrfgs_pEF6p7KA&amp;index=37" xlink:title="{{35|Clean &amp; Press to Overhead\nStep&#45;Back Lunge}}">
<path fill="#ffff99" stroke="#b15928" d="M28.38,-116.75C28.38,-116.75 203.62,-116.75 203.62,-116.75 209.62,-116.75 215.62,-122.75 215.62,-128.75 215.62,-128.75 215.62,-144.25 215.62,-144.25 215.62,-150.25 209.62,-156.25 203.62,-156.25 203.62,-156.25 28.38,-156.25 28.38,-156.25 22.38,-156.25 16.38,-150.25 16.38,-144.25 16.38,-144.25 16.38,-128.75 16.38,-128.75 16.38,-122.75 22.38,-116.75 28.38,-116.75"/>
<text text-anchor="middle" x="31.12" y="-131.07" font-family="Times New Roman,serif" font-size="14.00">35</text>
<polyline fill="none" stroke="#b15928" points="45.88,-116.75 45.88,-156.25"/>
<text text-anchor="middle" x="130.75" y="-138.95" font-family="Times New Roman,serif" font-size="14.00">Clean &amp; Press to Overhead</text>
<text text-anchor="middle" x="130.75" y="-123.2" font-family="Times New Roman,serif" font-size="14.00">Step&#45;Back Lunge</text>
</a>
</g>
</g>
<!-- mov_cleansblungeclean&#45;&gt;mov_cap2ohsblunge -->
<g id="edge14" class="edge">
<title>mov_cleansblungeclean&#45;&gt;mov_cap2ohsblunge</title>
<path fill="none" stroke="black" d="M136.18,-269.98C132.27,-244.29 125.14,-197.53 120.49,-167"/>
<polygon fill="black" stroke="black" points="123.81,-166.53 118.84,-157.17 116.89,-167.58 123.81,-166.53"/>
</g>
<!-- mov_floorpress -->
<g id="node10" class="node">
<title>mov_floorpress</title>
<g id="a_node10"><a xlink:href="https://www.youtube.com/watch?v=KTDVl0Lkdc4&amp;list=PLk4oYPJ7TXKhX8YqA2AVrfgs_pEF6p7KA&amp;index=28" xlink:title="{{28|Single&#45;Bell Floor Press}}">
<path fill="#ffff99" stroke="#b15928" d="M790.12,-700C790.12,-700 939.88,-700 939.88,-700 945.88,-700 951.88,-706 951.88,-712 951.88,-712 951.88,-724 951.88,-724 951.88,-730 945.88,-736 939.88,-736 939.88,-736 790.12,-736 790.12,-736 784.12,-736 778.12,-730 778.12,-724 778.12,-724 778.12,-712 778.12,-712 778.12,-706 784.12,-700 790.12,-700"/>
<text text-anchor="middle" x="792.88" y="-712.7" font-family="Times New Roman,serif" font-size="14.00">28</text>
<polyline fill="none" stroke="#b15928" points="807.62,-700.25 807.62,-736"/>
<text text-anchor="middle" x="879.75" y="-712.7" font-family="Times New Roman,serif" font-size="14.00">Single&#45;Bell Floor Press</text>
</a>
</g>
</g>
<!-- mov_floorpressroll -->
<g id="node12" class="node">
<title>mov_floorpressroll</title>
<g id="a_node12"><a xlink:href="https://www.youtube.com/watch?v=KTDVl0Lkdc4&amp;list=PLk4oYPJ7TXKhX8YqA2AVrfgs_pEF6p7KA&amp;index=30" xlink:title="{{30|Floor Press with Roll}}">
<path fill="#ffff99" stroke="#b15928" d="M794.62,-609.62C794.62,-609.62 935.38,-609.62 935.38,-609.62 941.38,-609.62 947.38,-615.62 947.38,-621.62 947.38,-621.62 947.38,-633.62 947.38,-633.62 947.38,-639.62 941.38,-645.62 935.38,-645.62 935.38,-645.62 794.62,-645.62 794.62,-645.62 788.62,-645.62 782.62,-639.62 782.62,-633.62 782.62,-633.62 782.62,-621.62 782.62,-621.62 782.62,-615.62 788.62,-609.62 794.62,-609.62"/>
<text text-anchor="middle" x="797.38" y="-622.33" font-family="Times New Roman,serif" font-size="14.00">30</text>
<polyline fill="none" stroke="#b15928" points="812.12,-609.88 812.12,-645.62"/>
<text text-anchor="middle" x="879.75" y="-622.33" font-family="Times New Roman,serif" font-size="14.00">Floor Press with Roll</text>
</a>
</g>
</g>
<!-- mov_floorpress&#45;&gt;mov_floorpressroll -->
<g id="edge17" class="edge">
<title>mov_floorpress&#45;&gt;mov_floorpressroll</title>
<path fill="none" stroke="black" d="M865,-700.38C865,-687.99 865,-670.79 865,-656.33"/>
<polygon fill="black" stroke="black" points="868.5,-656.47 865,-646.47 861.5,-656.47 868.5,-656.47"/>
</g>
<!-- mov_kneelwindmill -->
<g id="node13" class="node">
<title>mov_kneelwindmill</title>
<g id="a_node13"><a xlink:href="https://www.youtube.com/watch?v=KTDVl0Lkdc4&amp;list=PLk4oYPJ7TXKhX8YqA2AVrfgs_pEF6p7KA&amp;index=31" xlink:title="{{31|Half&#45;Kneeling Windmill}}">
<path fill="#ffff99" stroke="#b15928" d="M246.38,-271.5C246.38,-271.5 397.62,-271.5 397.62,-271.5 403.62,-271.5 409.62,-277.5 409.62,-283.5 409.62,-283.5 409.62,-295.5 409.62,-295.5 409.62,-301.5 403.62,-307.5 397.62,-307.5 397.62,-307.5 246.38,-307.5 246.38,-307.5 240.38,-307.5 234.38,-301.5 234.38,-295.5 234.38,-295.5 234.38,-283.5 234.38,-283.5 234.38,-277.5 240.38,-271.5 246.38,-271.5"/>
<text text-anchor="middle" x="249.12" y="-284.2" font-family="Times New Roman,serif" font-size="14.00">31</text>
<polyline fill="none" stroke="#b15928" points="263.88,-271.75 263.88,-307.5"/>
<text text-anchor="middle" x="336.75" y="-284.2" font-family="Times New Roman,serif" font-size="14.00">Half&#45;Kneeling Windmill</text>
</a>
</g>
</g>
<!-- mov_halfkneelcap&#45;&gt;mov_kneelwindmill -->
<g id="edge11" class="edge">
<title>mov_halfkneelcap&#45;&gt;mov_kneelwindmill</title>
<path fill="none" stroke="black" d="M322.75,-346.58C322.64,-338.07 322.5,-327.77 322.37,-318.33"/>
<polygon fill="black" stroke="black" points="325.86,-318.38 322.23,-308.43 318.86,-318.48 325.86,-318.38"/>
</g>
<!-- mov_quartgu -->
<g id="node14" class="node">
<title>mov_quartgu</title>
<g id="a_node14"><a xlink:href="https://www.youtube.com/watch?v=KTDVl0Lkdc4&amp;list=PLk4oYPJ7TXKhX8YqA2AVrfgs_pEF6p7KA&amp;index=32" xlink:title="{{32|Quarter Turkish Get&#45;Up}}">
<path fill="#ffff99" stroke="#b15928" d="M787.12,-509.38C787.12,-509.38 942.88,-509.38 942.88,-509.38 948.88,-509.38 954.88,-515.38 954.88,-521.38 954.88,-521.38 954.88,-533.38 954.88,-533.38 954.88,-539.38 948.88,-545.38 942.88,-545.38 942.88,-545.38 787.12,-545.38 787.12,-545.38 781.12,-545.38 775.12,-539.38 775.12,-533.38 775.12,-533.38 775.12,-521.38 775.12,-521.38 775.12,-515.38 781.12,-509.38 787.12,-509.38"/>
<text text-anchor="middle" x="789.88" y="-522.08" font-family="Times New Roman,serif" font-size="14.00">32</text>
<polyline fill="none" stroke="#b15928" points="804.62,-509.62 804.62,-545.38"/>
<text text-anchor="middle" x="879.75" y="-522.08" font-family="Times New Roman,serif" font-size="14.00">Quarter Turkish Get&#45;Up</text>
</a>
</g>
</g>
<!-- mov_floorpressroll&#45;&gt;mov_quartgu -->
<g id="edge18" class="edge">
<title>mov_floorpressroll&#45;&gt;mov_quartgu</title>
<path fill="none" stroke="black" d="M865,-609.96C865,-595.14 865,-573.18 865,-555.78"/>
<polygon fill="black" stroke="black" points="868.5,-556.12 865,-546.12 861.5,-556.12 868.5,-556.12"/>
</g>
<!-- mov_kneelcapwindmill -->
<g id="node15" class="node">
<title>mov_kneelcapwindmill</title>
<g id="a_node15"><a xlink:href="https://www.youtube.com/watch?v=KTDVl0Lkdc4&amp;list=PLk4oYPJ7TXKhX8YqA2AVrfgs_pEF6p7KA&amp;index=34" xlink:title="{{33|Half&#45;Kneeling\nClean &amp; Press Windmill}}">
<path fill="#ffff99" stroke="#b15928" d="M243.75,-193.25C243.75,-193.25 400.25,-193.25 400.25,-193.25 406.25,-193.25 412.25,-199.25 412.25,-205.25 412.25,-205.25 412.25,-220.75 412.25,-220.75 412.25,-226.75 406.25,-232.75 400.25,-232.75 400.25,-232.75 243.75,-232.75 243.75,-232.75 237.75,-232.75 231.75,-226.75 231.75,-220.75 231.75,-220.75 231.75,-205.25 231.75,-205.25 231.75,-199.25 237.75,-193.25 243.75,-193.25"/>
<text text-anchor="middle" x="246.5" y="-207.57" font-family="Times New Roman,serif" font-size="14.00">33</text>
<polyline fill="none" stroke="#b15928" points="261.25,-193.25 261.25,-232.75"/>
<text text-anchor="middle" x="336.75" y="-215.45" font-family="Times New Roman,serif" font-size="14.00">Half&#45;Kneeling</text>
<text text-anchor="middle" x="336.75" y="-199.7" font-family="Times New Roman,serif" font-size="14.00">Clean &amp; Press Windmill</text>
</a>
</g>
</g>
<!-- mov_kneelwindmill&#45;&gt;mov_kneelcapwindmill -->
<g id="edge12" class="edge">
<title>mov_kneelwindmill&#45;&gt;mov_kneelcapwindmill</title>
<path fill="none" stroke="black" d="M322,-271.59C322,-263.26 322,-252.97 322,-243.41"/>
<polygon fill="black" stroke="black" points="325.5,-243.67 322,-233.67 318.5,-243.67 325.5,-243.67"/>
</g>
<!-- mov_halfgu -->
<g id="node16" class="node">
<title>mov_halfgu</title>
<g id="a_node16"><a xlink:href="https://www.youtube.com/watch?v=KTDVl0Lkdc4&amp;list=PLk4oYPJ7TXKhX8YqA2AVrfgs_pEF6p7KA&amp;index=35" xlink:title="{{34|Half Get&#45;Up}}">
<path fill="#ffff99" stroke="#b15928" d="M819.75,-422.75C819.75,-422.75 910.25,-422.75 910.25,-422.75 916.25,-422.75 922.25,-428.75 922.25,-434.75 922.25,-434.75 922.25,-446.75 922.25,-446.75 922.25,-452.75 916.25,-458.75 910.25,-458.75 910.25,-458.75 819.75,-458.75 819.75,-458.75 813.75,-458.75 807.75,-452.75 807.75,-446.75 807.75,-446.75 807.75,-434.75 807.75,-434.75 807.75,-428.75 813.75,-422.75 819.75,-422.75"/>
<text text-anchor="middle" x="822.5" y="-435.45" font-family="Times New Roman,serif" font-size="14.00">34</text>
<polyline fill="none" stroke="#b15928" points="837.25,-423 837.25,-458.75"/>
<text text-anchor="middle" x="879.75" y="-435.45" font-family="Times New Roman,serif" font-size="14.00">Half Get&#45;Up</text>
</a>
</g>
</g>
<!-- mov_quartgu&#45;&gt;mov_halfgu -->
<g id="edge19" class="edge">
<title>mov_quartgu&#45;&gt;mov_halfgu</title>
<path fill="none" stroke="black" d="M865,-509.66C865,-498.26 865,-482.89 865,-469.65"/>
<polygon fill="black" stroke="black" points="868.5,-469.72 865,-459.72 861.5,-469.72 868.5,-469.72"/>
</g>
<!-- mov_kneelcapwindmill&#45;&gt;mov_cap2ohsblunge -->
<g id="edge13" class="edge">
<title>mov_kneelcapwindmill&#45;&gt;mov_cap2ohsblunge</title>
<path fill="none" stroke="black" d="M270.28,-193.3C242.24,-183.16 207.4,-170.55 177.92,-159.89"/>
<polygon fill="black" stroke="black" points="179.33,-156.32 168.74,-156.21 176.95,-162.9 179.33,-156.32"/>
</g>
<!-- mov_kneelhipdrop -->
<g id="node18" class="node">
<title>mov_kneelhipdrop</title>
<g id="a_node18"><a xlink:href="https://www.youtube.com/watch?v=KTDVl0Lkdc4&amp;list=PLk4oYPJ7TXKhX8YqA2AVrfgs_pEF6p7KA&amp;index=38" xlink:title="{{36|Half&#45;Kneeling Hip Drop}}">
<path fill="#ffff99" stroke="#b15928" d="M245.88,-118.5C245.88,-118.5 400.12,-118.5 400.12,-118.5 406.12,-118.5 412.12,-124.5 412.12,-130.5 412.12,-130.5 412.12,-142.5 412.12,-142.5 412.12,-148.5 406.12,-154.5 400.12,-154.5 400.12,-154.5 245.88,-154.5 245.88,-154.5 239.88,-154.5 233.88,-148.5 233.88,-142.5 233.88,-142.5 233.88,-130.5 233.88,-130.5 233.88,-124.5 239.88,-118.5 245.88,-118.5"/>
<text text-anchor="middle" x="248.62" y="-131.2" font-family="Times New Roman,serif" font-size="14.00">36</text>
<polyline fill="none" stroke="#b15928" points="263.38,-118.75 263.38,-154.5"/>
<text text-anchor="middle" x="337.75" y="-131.2" font-family="Times New Roman,serif" font-size="14.00">Half&#45;Kneeling Hip Drop</text>
</a>
</g>
</g>
<!-- mov_kneelcapwindmill&#45;&gt;mov_kneelhipdrop -->
<g id="edge15" class="edge">
<title>mov_kneelcapwindmill&#45;&gt;mov_kneelhipdrop</title>
<path fill="none" stroke="black" d="M322.25,-193.58C322.36,-185.07 322.5,-174.77 322.63,-165.33"/>
<polygon fill="black" stroke="black" points="326.14,-165.48 322.77,-155.43 319.14,-165.38 326.14,-165.48"/>
</g>
<!-- mov_halfgu2hip -->
<g id="node19" class="node">
<title>mov_halfgu2hip</title>
<g id="a_node19"><a xlink:href="https://www.youtube.com/watch?v=KTDVl0Lkdc4&amp;list=PLk4oYPJ7TXKhX8YqA2AVrfgs_pEF6p7KA&amp;index=39" xlink:title="{{37|Half Get&#45;Up\nto Hip Pass}}">
<path fill="#ffff99" stroke="#b15928" d="M819.75,-346.25C819.75,-346.25 910.25,-346.25 910.25,-346.25 916.25,-346.25 922.25,-352.25 922.25,-358.25 922.25,-358.25 922.25,-373.75 922.25,-373.75 922.25,-379.75 916.25,-385.75 910.25,-385.75 910.25,-385.75 819.75,-385.75 819.75,-385.75 813.75,-385.75 807.75,-379.75 807.75,-373.75 807.75,-373.75 807.75,-358.25 807.75,-358.25 807.75,-352.25 813.75,-346.25 819.75,-346.25"/>
<text text-anchor="middle" x="822.5" y="-360.57" font-family="Times New Roman,serif" font-size="14.00">37</text>
<polyline fill="none" stroke="#b15928" points="837.25,-346.25 837.25,-385.75"/>
<text text-anchor="middle" x="879.75" y="-368.45" font-family="Times New Roman,serif" font-size="14.00">Half Get&#45;Up</text>
<text text-anchor="middle" x="879.75" y="-352.7" font-family="Times New Roman,serif" font-size="14.00">to Hip Pass</text>
</a>
</g>
</g>
<!-- mov_halfgu&#45;&gt;mov_halfgu2hip -->
<g id="edge20" class="edge">
<title>mov_halfgu&#45;&gt;mov_halfgu2hip</title>
<path fill="none" stroke="black" d="M865,-422.88C865,-415.03 865,-405.45 865,-396.47"/>
<polygon fill="black" stroke="black" points="868.5,-396.57 865,-386.57 861.5,-396.57 868.5,-396.57"/>
</g>
<!-- mov_kneelcap2hip -->
<g id="node20" class="node">
<title>mov_kneelcap2hip</title>
<g id="a_node20"><a xlink:href="https://www.youtube.com/watch?v=KTDVl0Lkdc4&amp;list=PLk4oYPJ7TXKhX8YqA2AVrfgs_pEF6p7KA&amp;index=40" xlink:title="{{38|Half&#45;Kneeling Clean &amp; Press\nto Hip Drop}}">
<path fill="#ffff99" stroke="#b15928" d="M218,-40.25C218,-40.25 400,-40.25 400,-40.25 406,-40.25 412,-46.25 412,-52.25 412,-52.25 412,-67.75 412,-67.75 412,-73.75 406,-79.75 400,-79.75 400,-79.75 218,-79.75 218,-79.75 212,-79.75 206,-73.75 206,-67.75 206,-67.75 206,-52.25 206,-52.25 206,-46.25 212,-40.25 218,-40.25"/>
<text text-anchor="middle" x="220.75" y="-54.58" font-family="Times New Roman,serif" font-size="14.00">38</text>
<polyline fill="none" stroke="#b15928" points="235.5,-40.25 235.5,-79.75"/>
<text text-anchor="middle" x="323.75" y="-62.45" font-family="Times New Roman,serif" font-size="14.00">Half&#45;Kneeling Clean &amp; Press</text>
<text text-anchor="middle" x="323.75" y="-46.7" font-family="Times New Roman,serif" font-size="14.00">to Hip Drop</text>
</a>
</g>
</g>
<!-- mov_kneelhipdrop&#45;&gt;mov_kneelcap2hip -->
<g id="edge16" class="edge">
<title>mov_kneelhipdrop&#45;&gt;mov_kneelcap2hip</title>
<path fill="none" stroke="black" d="M319.82,-118.59C318.26,-110.26 316.32,-99.97 314.53,-90.41"/>
<polygon fill="black" stroke="black" points="317.79,-89.85 312.51,-80.67 310.92,-91.14 317.79,-89.85"/>
</g>
<!-- mov_halfgu2kneel -->
<g id="node21" class="node">
<title>mov_halfgu2kneel</title>
<g id="a_node21"><a xlink:href="https://www.youtube.com/watch?v=KTDVl0Lkdc4&amp;list=PLk4oYPJ7TXKhX8YqA2AVrfgs_pEF6p7KA&amp;index=45" xlink:title="{{42|Half Get&#45;Up to Hip Pass\n(to Half&#45;Kneeling)}}">
<path fill="#ffff99" stroke="#b15928" d="M785.25,-269.75C785.25,-269.75 944.75,-269.75 944.75,-269.75 950.75,-269.75 956.75,-275.75 956.75,-281.75 956.75,-281.75 956.75,-297.25 956.75,-297.25 956.75,-303.25 950.75,-309.25 944.75,-309.25 944.75,-309.25 785.25,-309.25 785.25,-309.25 779.25,-309.25 773.25,-303.25 773.25,-297.25 773.25,-297.25 773.25,-281.75 773.25,-281.75 773.25,-275.75 779.25,-269.75 785.25,-269.75"/>
<text text-anchor="middle" x="788" y="-284.07" font-family="Times New Roman,serif" font-size="14.00">42</text>
<polyline fill="none" stroke="#b15928" points="802.75,-269.75 802.75,-309.25"/>
<text text-anchor="middle" x="879.75" y="-291.95" font-family="Times New Roman,serif" font-size="14.00">Half Get&#45;Up to Hip Pass</text>
<text text-anchor="middle" x="879.75" y="-276.2" font-family="Times New Roman,serif" font-size="14.00">(to Half&#45;Kneeling)</text>
</a>
</g>
</g>
<!-- mov_halfgu2hip&#45;&gt;mov_halfgu2kneel -->
<g id="edge21" class="edge">
<title>mov_halfgu2hip&#45;&gt;mov_halfgu2kneel</title>
<path fill="none" stroke="black" d="M865,-346.58C865,-338.59 865,-329.02 865,-320.06"/>
<polygon fill="black" stroke="black" points="868.5,-320.22 865,-310.22 861.5,-320.22 868.5,-320.22"/>
</g>
</g>
</svg>
