<?xml version="1.0" encoding="UTF-8" standalone="no"?>
<!DOCTYPE svg PUBLIC "-//W3C//DTD SVG 1.1//EN"
 "http://www.w3.org/Graphics/SVG/1.1/DTD/svg11.dtd">
<!-- Generated by graphviz version 9.0.0 (20230911.1827)
 -->
<!-- Title: kb_progression Pages: 1 -->
<svg width="880pt" height="1212pt"
 viewBox="0.00 0.00 879.50 1211.50" xmlns="http://www.w3.org/2000/svg" xmlns:xlink="http://www.w3.org/1999/xlink">
<g id="graph0" class="graph" transform="scale(1 1) rotate(0) translate(4 1207.5)">
<title>kb_progression</title>
<polygon fill="white" stroke="none" points="-4,4 -4,-1207.5 875.5,-1207.5 875.5,4 -4,4"/>
<text text-anchor="start" x="472" y="-145.7" font-family="Helvetica,Arial,sans-serif" font-weight="bold" font-size="14.00">Kettlebell Basic Skill Progression &#45; Part 1/4</text>
<text text-anchor="start" x="472" y="-117.7" font-family="Helvetica,Arial,sans-serif" font-size="14.00">Diagram by dznz based on Mark Wildman&#39;s teachings.</text>
<text text-anchor="start" x="472" y="-89.7" font-family="Helvetica,Arial,sans-serif" font-size="14.00">Source: </text>
<text text-anchor="start" x="525.25" y="-89.7" font-family="Helvetica,Arial,sans-serif" font-weight="bold" font-size="14.00">https://github.com/dznz/wildman&#45;skill&#45;trees</text>
<text text-anchor="start" x="472" y="-61.7" font-family="Helvetica,Arial,sans-serif" font-size="14.00">More by Mark Wildman &#45; </text>
<text text-anchor="start" x="628" y="-61.7" font-family="Helvetica,Arial,sans-serif" font-weight="bold" font-size="14.00">https://www.wildmanathletica.com</text>
<text text-anchor="start" x="472" y="-33.7" font-family="Helvetica,Arial,sans-serif" font-style="italic" font-size="14.00">© 2023. This work is openly licensed with CC BY&#45;NC&#45;SA 4.0</text>
<text text-anchor="start" x="540.25" y="-19.7" font-family="Helvetica,Arial,sans-serif" font-style="italic" font-size="14.00">http://creativecommons.org/licenses/by&#45;nc&#45;sa/4.0/</text>
<text text-anchor="start" x="664" y="-5.7" font-family="Helvetica,Arial,sans-serif" font-size="14.00"> &#160;</text>
<!-- mov_atw -->
<g id="node1" class="node">
<title>mov_atw</title>
<g id="a_node1"><a xlink:href="https://www.youtube.com/watch?v=XaegZzSbtr0&amp;list=PLk4oYPJ7TXKhX8YqA2AVrfgs_pEF6p7KA&amp;index=3" xlink:title="{{3|Around the World}|HAND TRANSITION}">
<path fill="#fdbf6f" stroke="#ff7f00" d="M90,-1063.12C90,-1063.12 209.5,-1063.12 209.5,-1063.12 215.5,-1063.12 221.5,-1069.12 221.5,-1075.12 221.5,-1075.12 221.5,-1098.62 221.5,-1098.62 221.5,-1104.62 215.5,-1110.62 209.5,-1110.62 209.5,-1110.62 90,-1110.62 90,-1110.62 84,-1110.62 78,-1104.62 78,-1098.62 78,-1098.62 78,-1075.12 78,-1075.12 78,-1069.12 84,-1063.12 90,-1063.12"/>
<text text-anchor="middle" x="89.88" y="-1093.33" font-family="Times New Roman,serif" font-size="14.00">3</text>
<polyline fill="none" stroke="#ff7f00" points="101.75,-1086.88 101.75,-1110.62"/>
<text text-anchor="middle" x="161.62" y="-1093.33" font-family="Times New Roman,serif" font-size="14.00">Around the World</text>
<polyline fill="none" stroke="#ff7f00" points="78,-1086.88 221.5,-1086.88"/>
<text text-anchor="middle" x="149.75" y="-1069.58" font-family="Times New Roman,serif" font-size="14.00">HAND TRANSITION</text>
</a>
</g>
</g>
<!-- mov_atwf2b -->
<g id="node3" class="node">
<title>mov_atwf2b</title>
<g id="a_node3"><a xlink:href="https://www.youtube.com/watch?v=TwlQQXAQpaQ&amp;list=PLk4oYPJ7TXKhX8YqA2AVrfgs_pEF6p7KA&amp;index=5" xlink:title="5|Around the World\nFront to Back">
<path fill="#fdbf6f" stroke="#ff7f00" d="M12,-966.88C12,-966.88 129.5,-966.88 129.5,-966.88 135.5,-966.88 141.5,-972.88 141.5,-978.88 141.5,-978.88 141.5,-994.38 141.5,-994.38 141.5,-1000.38 135.5,-1006.38 129.5,-1006.38 129.5,-1006.38 12,-1006.38 12,-1006.38 6,-1006.38 0,-1000.38 0,-994.38 0,-994.38 0,-978.88 0,-978.88 0,-972.88 6,-966.88 12,-966.88"/>
<text text-anchor="middle" x="11.38" y="-981.2" font-family="Times New Roman,serif" font-size="14.00">5</text>
<polyline fill="none" stroke="#ff7f00" points="22.75,-966.88 22.75,-1006.38"/>
<text text-anchor="middle" x="82.12" y="-989.08" font-family="Times New Roman,serif" font-size="14.00">Around the World</text>
<text text-anchor="middle" x="82.12" y="-973.33" font-family="Times New Roman,serif" font-size="14.00">Front to Back</text>
</a>
</g>
</g>
<!-- mov_atw&#45;&gt;mov_atwf2b -->
<g id="edge4" class="edge">
<title>mov_atw&#45;&gt;mov_atwf2b</title>
<path fill="none" stroke="black" d="M131.43,-1063.09C120.03,-1048.91 105.29,-1030.58 93.19,-1015.53"/>
<polygon fill="black" stroke="black" points="95.99,-1013.44 87,-1007.84 90.54,-1017.82 95.99,-1013.44"/>
</g>
<!-- mov_halo -->
<g id="node2" class="node">
<title>mov_halo</title>
<g id="a_node2"><a xlink:href="https://www.youtube.com/watch?v=25xdtjbFPtw&amp;list=PLk4oYPJ7TXKhX8YqA2AVrfgs_pEF6p7KA&amp;index=4" xlink:title="{{4|Halo}|GLOBE UP\nORDER POSITION}">
<path fill="#fdbf6f" stroke="#ff7f00" d="M330.25,-1055.25C330.25,-1055.25 439.25,-1055.25 439.25,-1055.25 445.25,-1055.25 451.25,-1061.25 451.25,-1067.25 451.25,-1067.25 451.25,-1106.5 451.25,-1106.5 451.25,-1112.5 445.25,-1118.5 439.25,-1118.5 439.25,-1118.5 330.25,-1118.5 330.25,-1118.5 324.25,-1118.5 318.25,-1112.5 318.25,-1106.5 318.25,-1106.5 318.25,-1067.25 318.25,-1067.25 318.25,-1061.25 324.25,-1055.25 330.25,-1055.25"/>
<text text-anchor="middle" x="346.62" y="-1101.2" font-family="Times New Roman,serif" font-size="14.00">4</text>
<polyline fill="none" stroke="#ff7f00" points="375,-1094.75 375,-1118.5"/>
<text text-anchor="middle" x="413.12" y="-1101.2" font-family="Times New Roman,serif" font-size="14.00">Halo</text>
<polyline fill="none" stroke="#ff7f00" points="318.25,-1094.75 451.25,-1094.75"/>
<text text-anchor="middle" x="384.75" y="-1077.45" font-family="Times New Roman,serif" font-size="14.00">GLOBE UP</text>
<text text-anchor="middle" x="384.75" y="-1061.7" font-family="Times New Roman,serif" font-size="14.00">ORDER POSITION</text>
</a>
</g>
</g>
<!-- mov_althalo -->
<g id="node14" class="node">
<title>mov_althalo</title>
<g id="a_node14"><a xlink:href="https://www.youtube.com/watch?v=SMpquy5zSL4&amp;list=PLk4oYPJ7TXKhX8YqA2AVrfgs_pEF6p7KA&amp;index=7" xlink:title="7|Alternating Halo">
<path fill="#ffff99" stroke="#b15928" d="M171.38,-968.62C171.38,-968.62 276.12,-968.62 276.12,-968.62 282.12,-968.62 288.12,-974.62 288.12,-980.62 288.12,-980.62 288.12,-992.62 288.12,-992.62 288.12,-998.62 282.12,-1004.62 276.12,-1004.62 276.12,-1004.62 171.38,-1004.62 171.38,-1004.62 165.38,-1004.62 159.38,-998.62 159.38,-992.62 159.38,-992.62 159.38,-980.62 159.38,-980.62 159.38,-974.62 165.38,-968.62 171.38,-968.62"/>
<text text-anchor="middle" x="170.75" y="-981.2" font-family="Times New Roman,serif" font-size="14.00">7</text>
<polyline fill="none" stroke="#b15928" points="182.12,-968.62 182.12,-1004.62"/>
<text text-anchor="middle" x="235.12" y="-981.2" font-family="Times New Roman,serif" font-size="14.00">Alternating Halo</text>
</a>
</g>
</g>
<!-- mov_halo&#45;&gt;mov_althalo -->
<g id="edge6" class="edge">
<title>mov_halo&#45;&gt;mov_althalo</title>
<path fill="none" stroke="black" d="M333.81,-1054.79C310.59,-1040.62 283.55,-1024.12 262.09,-1011.02"/>
<polygon fill="black" stroke="black" points="264,-1008.09 253.64,-1005.87 260.35,-1014.06 264,-1008.09"/>
</g>
<!-- mov_gobboxsquat -->
<g id="node24" class="node">
<title>mov_gobboxsquat</title>
<g id="a_node24"><a xlink:href="https://www.youtube.com/watch?v=k5Bc7pkEmrU&amp;list=PLk4oYPJ7TXKhX8YqA2AVrfgs_pEF6p7KA&amp;index=20" xlink:title="{{20|Bottoms&#45;Up Goblet\nBox Squat}|SQUAT BACK}">
<path fill="#ffff99" stroke="#b15928" d="M318.12,-955C318.12,-955 451.38,-955 451.38,-955 457.38,-955 463.38,-961 463.38,-967 463.38,-967 463.38,-1006.25 463.38,-1006.25 463.38,-1012.25 457.38,-1018.25 451.38,-1018.25 451.38,-1018.25 318.12,-1018.25 318.12,-1018.25 312.12,-1018.25 306.12,-1012.25 306.12,-1006.25 306.12,-1006.25 306.12,-967 306.12,-967 306.12,-961 312.12,-955 318.12,-955"/>
<text text-anchor="middle" x="320.88" y="-993.08" font-family="Times New Roman,serif" font-size="14.00">20</text>
<polyline fill="none" stroke="#b15928" points="335.62,-978.75 335.62,-1018.25"/>
<text text-anchor="middle" x="399.5" y="-1000.95" font-family="Times New Roman,serif" font-size="14.00">Bottoms&#45;Up Goblet</text>
<text text-anchor="middle" x="399.5" y="-985.2" font-family="Times New Roman,serif" font-size="14.00">Box Squat</text>
<polyline fill="none" stroke="#b15928" points="306.12,-978.75 463.38,-978.75"/>
<text text-anchor="middle" x="384.75" y="-961.45" font-family="Times New Roman,serif" font-size="14.00">SQUAT BACK</text>
</a>
</g>
</g>
<!-- mov_halo&#45;&gt;mov_gobboxsquat -->
<g id="edge23" class="edge">
<title>mov_halo&#45;&gt;mov_gobboxsquat</title>
<path fill="none" stroke="black" d="M384.75,-1054.79C384.75,-1046.92 384.75,-1038.33 384.75,-1030"/>
<polygon fill="black" stroke="black" points="388.25,-1030.02 384.75,-1020.02 381.25,-1030.02 388.25,-1030.02"/>
</g>
<!-- mov_atwb2f -->
<g id="node4" class="node">
<title>mov_atwb2f</title>
<g id="a_node4"><a xlink:href="https://www.youtube.com/watch?v=GrRO00YOIWM&amp;list=PLk4oYPJ7TXKhX8YqA2AVrfgs_pEF6p7KA&amp;index=6" xlink:title="6|Around the World\nBack to Front">
<path fill="#fdbf6f" stroke="#ff7f00" d="M12,-866.62C12,-866.62 129.5,-866.62 129.5,-866.62 135.5,-866.62 141.5,-872.62 141.5,-878.62 141.5,-878.62 141.5,-894.12 141.5,-894.12 141.5,-900.12 135.5,-906.12 129.5,-906.12 129.5,-906.12 12,-906.12 12,-906.12 6,-906.12 0,-900.12 0,-894.12 0,-894.12 0,-878.62 0,-878.62 0,-872.62 6,-866.62 12,-866.62"/>
<text text-anchor="middle" x="11.38" y="-880.95" font-family="Times New Roman,serif" font-size="14.00">6</text>
<polyline fill="none" stroke="#ff7f00" points="22.75,-866.62 22.75,-906.12"/>
<text text-anchor="middle" x="82.12" y="-888.83" font-family="Times New Roman,serif" font-size="14.00">Around the World</text>
<text text-anchor="middle" x="82.12" y="-873.08" font-family="Times New Roman,serif" font-size="14.00">Back to Front</text>
</a>
</g>
</g>
<!-- mov_atwf2b&#45;&gt;mov_atwb2f -->
<g id="edge5" class="edge">
<title>mov_atwf2b&#45;&gt;mov_atwb2f</title>
<path fill="none" stroke="black" d="M70.75,-966.68C70.75,-952.91 70.75,-933.96 70.75,-918.04"/>
<polygon fill="black" stroke="black" points="74.25,-918.11 70.75,-908.11 67.25,-918.11 74.25,-918.11"/>
</g>
<!-- mov_2hu1hd -->
<g id="node5" class="node">
<title>mov_2hu1hd</title>
<g id="a_node5"><a xlink:href="https://www.youtube.com/watch?v=eMkDP9VmMc0&amp;list=PLk4oYPJ7TXKhX8YqA2AVrfgs_pEF6p7KA&amp;index=8" xlink:title="{{8|Two Hand Pickup\nOne Hand Putdown}|RACK POSITION}">
<path fill="#cab2d6" stroke="#6a3d9a" d="M428.88,-854.75C428.88,-854.75 554.62,-854.75 554.62,-854.75 560.62,-854.75 566.62,-860.75 566.62,-866.75 566.62,-866.75 566.62,-906 566.62,-906 566.62,-912 560.62,-918 554.62,-918 554.62,-918 428.88,-918 428.88,-918 422.88,-918 416.88,-912 416.88,-906 416.88,-906 416.88,-866.75 416.88,-866.75 416.88,-860.75 422.88,-854.75 428.88,-854.75"/>
<text text-anchor="middle" x="428.25" y="-892.83" font-family="Times New Roman,serif" font-size="14.00">8</text>
<polyline fill="none" stroke="#6a3d9a" points="439.62,-878.5 439.62,-918"/>
<text text-anchor="middle" x="503.12" y="-900.7" font-family="Times New Roman,serif" font-size="14.00">Two Hand Pickup</text>
<text text-anchor="middle" x="503.12" y="-884.95" font-family="Times New Roman,serif" font-size="14.00">One Hand Putdown</text>
<polyline fill="none" stroke="#6a3d9a" points="416.88,-878.5 566.62,-878.5"/>
<text text-anchor="middle" x="491.75" y="-861.2" font-family="Times New Roman,serif" font-size="14.00">RACK POSITION</text>
</a>
</g>
</g>
<!-- mov_2hucleandown -->
<g id="node6" class="node">
<title>mov_2hucleandown</title>
<g id="a_node6"><a xlink:href="https://www.youtube.com/watch?v=cQC2y-ByaAw&amp;list=PLk4oYPJ7TXKhX8YqA2AVrfgs_pEF6p7KA&amp;index=11" xlink:title="11|Two Hand Pickup\nClean Putdown">
<path fill="#cab2d6" stroke="#6a3d9a" d="M592.62,-766.38C592.62,-766.38 716.88,-766.38 716.88,-766.38 722.88,-766.38 728.88,-772.38 728.88,-778.38 728.88,-778.38 728.88,-793.88 728.88,-793.88 728.88,-799.88 722.88,-805.88 716.88,-805.88 716.88,-805.88 592.62,-805.88 592.62,-805.88 586.62,-805.88 580.62,-799.88 580.62,-793.88 580.62,-793.88 580.62,-778.38 580.62,-778.38 580.62,-772.38 586.62,-766.38 592.62,-766.38"/>
<text text-anchor="middle" x="595.38" y="-780.7" font-family="Times New Roman,serif" font-size="14.00">11</text>
<polyline fill="none" stroke="#6a3d9a" points="610.12,-766.38 610.12,-805.88"/>
<text text-anchor="middle" x="669.5" y="-788.58" font-family="Times New Roman,serif" font-size="14.00">Two Hand Pickup</text>
<text text-anchor="middle" x="669.5" y="-772.83" font-family="Times New Roman,serif" font-size="14.00">Clean Putdown</text>
</a>
</g>
</g>
<!-- mov_2hu1hd&#45;&gt;mov_2hucleandown -->
<g id="edge10" class="edge">
<title>mov_2hu1hd&#45;&gt;mov_2hucleandown</title>
<path fill="none" stroke="black" d="M543.32,-854.29C565.87,-840.7 591.96,-824.97 613.23,-812.15"/>
<polygon fill="black" stroke="black" points="614.88,-815.24 621.64,-807.08 611.27,-809.25 614.88,-815.24"/>
</g>
<!-- mov_press -->
<g id="node19" class="node">
<title>mov_press</title>
<g id="a_node19"><a xlink:href="https://www.youtube.com/watch?v=XHkI03S6Pls&amp;list=PLk4oYPJ7TXKhX8YqA2AVrfgs_pEF6p7KA&amp;index=14" xlink:title="14|Single Arm\nOverhead Press">
<path fill="#ffff99" stroke="#b15928" d="M440.75,-766.38C440.75,-766.38 550.75,-766.38 550.75,-766.38 556.75,-766.38 562.75,-772.38 562.75,-778.38 562.75,-778.38 562.75,-793.88 562.75,-793.88 562.75,-799.88 556.75,-805.88 550.75,-805.88 550.75,-805.88 440.75,-805.88 440.75,-805.88 434.75,-805.88 428.75,-799.88 428.75,-793.88 428.75,-793.88 428.75,-778.38 428.75,-778.38 428.75,-772.38 434.75,-766.38 440.75,-766.38"/>
<text text-anchor="middle" x="443.5" y="-780.7" font-family="Times New Roman,serif" font-size="14.00">14</text>
<polyline fill="none" stroke="#b15928" points="458.25,-766.38 458.25,-805.88"/>
<text text-anchor="middle" x="510.5" y="-788.58" font-family="Times New Roman,serif" font-size="14.00">Single Arm</text>
<text text-anchor="middle" x="510.5" y="-772.83" font-family="Times New Roman,serif" font-size="14.00">Overhead Press</text>
</a>
</g>
</g>
<!-- mov_2hu1hd&#45;&gt;mov_press -->
<g id="edge15" class="edge">
<title>mov_2hu1hd&#45;&gt;mov_press</title>
<path fill="none" stroke="black" d="M493.02,-854.29C493.49,-842.61 494.03,-829.34 494.51,-817.7"/>
<polygon fill="black" stroke="black" points="498,-817.95 494.91,-807.81 491,-817.66 498,-817.95"/>
</g>
<!-- mov_racksquat -->
<g id="node27" class="node">
<title>mov_racksquat</title>
<g id="a_node27"><a xlink:href="https://www.youtube.com/watch?v=KTDVl0Lkdc4&amp;list=PLk4oYPJ7TXKhX8YqA2AVrfgs_pEF6p7KA&amp;index=23" xlink:title="{{23|Single&#45;Bell Front Squat}}">
<path fill="#ffff99" stroke="#b15928" d="M237.12,-679.75C237.12,-679.75 388.38,-679.75 388.38,-679.75 394.38,-679.75 400.38,-685.75 400.38,-691.75 400.38,-691.75 400.38,-703.75 400.38,-703.75 400.38,-709.75 394.38,-715.75 388.38,-715.75 388.38,-715.75 237.12,-715.75 237.12,-715.75 231.12,-715.75 225.12,-709.75 225.12,-703.75 225.12,-703.75 225.12,-691.75 225.12,-691.75 225.12,-685.75 231.12,-679.75 237.12,-679.75"/>
<text text-anchor="middle" x="239.88" y="-692.45" font-family="Times New Roman,serif" font-size="14.00">23</text>
<polyline fill="none" stroke="#b15928" points="254.62,-680 254.62,-715.75"/>
<text text-anchor="middle" x="327.5" y="-692.45" font-family="Times New Roman,serif" font-size="14.00">Single&#45;Bell Front Squat</text>
</a>
</g>
</g>
<!-- mov_2hu1hd&#45;&gt;mov_racksquat -->
<g id="edge27" class="edge">
<title>mov_2hu1hd&#45;&gt;mov_racksquat</title>
<path fill="none" stroke="black" d="M454.58,-854.47C442.73,-843.67 430.03,-831.04 419.75,-818.25 398.96,-792.4 403.5,-779.05 381.75,-754 371.91,-742.66 359.51,-731.92 347.95,-722.97"/>
<polygon fill="black" stroke="black" points="350.23,-720.31 340.13,-717.11 346.03,-725.91 350.23,-720.31"/>
</g>
<!-- mov_clean -->
<g id="node17" class="node">
<title>mov_clean</title>
<g id="a_node17"><a xlink:href="https://www.youtube.com/watch?v=_nIsSXWs5iU&amp;list=PLk4oYPJ7TXKhX8YqA2AVrfgs_pEF6p7KA&amp;index=12" xlink:title="12|Swing Clean">
<path fill="#ffff99" stroke="#b15928" d="M606.12,-679.75C606.12,-679.75 697.38,-679.75 697.38,-679.75 703.38,-679.75 709.38,-685.75 709.38,-691.75 709.38,-691.75 709.38,-703.75 709.38,-703.75 709.38,-709.75 703.38,-715.75 697.38,-715.75 697.38,-715.75 606.12,-715.75 606.12,-715.75 600.12,-715.75 594.12,-709.75 594.12,-703.75 594.12,-703.75 594.12,-691.75 594.12,-691.75 594.12,-685.75 600.12,-679.75 606.12,-679.75"/>
<text text-anchor="middle" x="608.88" y="-692.33" font-family="Times New Roman,serif" font-size="14.00">12</text>
<polyline fill="none" stroke="#b15928" points="623.62,-679.75 623.62,-715.75"/>
<text text-anchor="middle" x="666.5" y="-692.33" font-family="Times New Roman,serif" font-size="14.00">Swing Clean</text>
</a>
</g>
</g>
<!-- mov_2hucleandown&#45;&gt;mov_clean -->
<g id="edge12" class="edge">
<title>mov_2hucleandown&#45;&gt;mov_clean</title>
<path fill="none" stroke="black" d="M654.08,-765.96C653.69,-754.66 653.19,-740.14 652.75,-727.49"/>
<polygon fill="black" stroke="black" points="656.25,-727.49 652.41,-717.62 649.25,-727.73 656.25,-727.49"/>
</g>
<!-- mov_news -->
<g id="node7" class="node">
<title>mov_news</title>
<g id="a_node7"><a xlink:href="https://www.youtube.com/watch?v=htByOXjHLXE&amp;list=PLk4oYPJ7TXKhX8YqA2AVrfgs_pEF6p7KA&amp;index=15" xlink:title="15|Newspaper drill">
<path fill="#cab2d6" stroke="#6a3d9a" d="M597.12,-591.38C597.12,-591.38 706.38,-591.38 706.38,-591.38 712.38,-591.38 718.38,-597.38 718.38,-603.38 718.38,-603.38 718.38,-615.38 718.38,-615.38 718.38,-621.38 712.38,-627.38 706.38,-627.38 706.38,-627.38 597.12,-627.38 597.12,-627.38 591.12,-627.38 585.12,-621.38 585.12,-615.38 585.12,-615.38 585.12,-603.38 585.12,-603.38 585.12,-597.38 591.12,-591.38 597.12,-591.38"/>
<text text-anchor="middle" x="599.88" y="-603.95" font-family="Times New Roman,serif" font-size="14.00">15</text>
<polyline fill="none" stroke="#6a3d9a" points="614.62,-591.38 614.62,-627.38"/>
<text text-anchor="middle" x="666.5" y="-603.95" font-family="Times New Roman,serif" font-size="14.00">Newspaper drill</text>
</a>
</g>
</g>
<!-- mov_racklunge -->
<g id="node8" class="node">
<title>mov_racklunge</title>
<g id="a_node8"><a xlink:href="https://www.youtube.com/watch?v=KTDVl0Lkdc4&amp;list=PLk4oYPJ7TXKhX8YqA2AVrfgs_pEF6p7KA&amp;index=24" xlink:title="{{KB&#45;24|Rack Opposite Leg\nStep&#45;Back Lunge}|VERTICAL SPINE}">
<path fill="ghostwhite" stroke="lightslategrey" d="M80.62,-577.75C80.62,-577.75 234.88,-577.75 234.88,-577.75 240.88,-577.75 246.88,-583.75 246.88,-589.75 246.88,-589.75 246.88,-629 246.88,-629 246.88,-635 240.88,-641 234.88,-641 234.88,-641 80.62,-641 80.62,-641 74.62,-641 68.62,-635 68.62,-629 68.62,-629 68.62,-589.75 68.62,-589.75 68.62,-583.75 74.62,-577.75 80.62,-577.75"/>
<text text-anchor="middle" x="95" y="-615.83" font-family="Times New Roman,serif" font-size="14.00">KB&#45;24</text>
<polyline fill="none" stroke="lightslategrey" points="121.38,-601.5 121.38,-641"/>
<text text-anchor="middle" x="184.12" y="-623.7" font-family="Times New Roman,serif" font-size="14.00">Rack Opposite Leg</text>
<text text-anchor="middle" x="184.12" y="-607.95" font-family="Times New Roman,serif" font-size="14.00">Step&#45;Back Lunge</text>
<polyline fill="none" stroke="lightslategrey" points="68.62,-601.5 246.88,-601.5"/>
<text text-anchor="middle" x="157.75" y="-584.2" font-family="Times New Roman,serif" font-size="14.00">VERTICAL SPINE</text>
</a>
</g>
</g>
<!-- mov_clean2sblunge -->
<g id="node9" class="node">
<title>mov_clean2sblunge</title>
<g id="a_node9"><a xlink:href="https://www.youtube.com/watch?v=KTDVl0Lkdc4&amp;list=PLk4oYPJ7TXKhX8YqA2AVrfgs_pEF6p7KA&amp;index=25" xlink:title="{{KB&#45;25|Clean Step&#45;Back Clean}}">
<path fill="ghostwhite" stroke="lightslategrey" d="M237.88,-503C237.88,-503 411.62,-503 411.62,-503 417.62,-503 423.62,-509 423.62,-515 423.62,-515 423.62,-527 423.62,-527 423.62,-533 417.62,-539 411.62,-539 411.62,-539 237.88,-539 237.88,-539 231.88,-539 225.88,-533 225.88,-527 225.88,-527 225.88,-515 225.88,-515 225.88,-509 231.88,-503 237.88,-503"/>
<text text-anchor="middle" x="252.25" y="-515.7" font-family="Times New Roman,serif" font-size="14.00">KB&#45;25</text>
<polyline fill="none" stroke="lightslategrey" points="278.62,-503.25 278.62,-539"/>
<text text-anchor="middle" x="351.12" y="-515.7" font-family="Times New Roman,serif" font-size="14.00">Clean Step&#45;Back Clean</text>
</a>
</g>
</g>
<!-- mov_racklunge&#45;&gt;mov_clean2sblunge -->
<g id="edge29" class="edge">
<title>mov_racklunge&#45;&gt;mov_clean2sblunge</title>
<path fill="none" stroke="black" d="M217.57,-577.44C238.51,-566.6 261.62,-554.65 281.01,-544.62"/>
<polygon fill="black" stroke="black" points="282.44,-547.82 289.72,-540.12 279.23,-541.6 282.44,-547.82"/>
</g>
<!-- mov_halfkneelclean -->
<g id="node10" class="node">
<title>mov_halfkneelclean</title>
<g id="a_node10"><a xlink:href="https://www.youtube.com/watch?v=KTDVl0Lkdc4&amp;list=PLk4oYPJ7TXKhX8YqA2AVrfgs_pEF6p7KA&amp;index=26" xlink:title="{{KB&#45;26|Half&#45;Kneeling Clean}}">
<path fill="ghostwhite" stroke="lightslategrey" d="M246.88,-414.62C246.88,-414.62 402.62,-414.62 402.62,-414.62 408.62,-414.62 414.62,-420.62 414.62,-426.62 414.62,-426.62 414.62,-438.62 414.62,-438.62 414.62,-444.62 408.62,-450.62 402.62,-450.62 402.62,-450.62 246.88,-450.62 246.88,-450.62 240.88,-450.62 234.88,-444.62 234.88,-438.62 234.88,-438.62 234.88,-426.62 234.88,-426.62 234.88,-420.62 240.88,-414.62 246.88,-414.62"/>
<text text-anchor="middle" x="261.25" y="-427.32" font-family="Times New Roman,serif" font-size="14.00">KB&#45;26</text>
<polyline fill="none" stroke="lightslategrey" points="287.62,-414.88 287.62,-450.62"/>
<text text-anchor="middle" x="351.12" y="-427.32" font-family="Times New Roman,serif" font-size="14.00">Half&#45;Kneeling Clean</text>
</a>
</g>
</g>
<!-- mov_clean2sblunge&#45;&gt;mov_halfkneelclean -->
<g id="edge31" class="edge">
<title>mov_clean2sblunge&#45;&gt;mov_halfkneelclean</title>
<path fill="none" stroke="black" d="M324.75,-502.52C324.75,-491.05 324.75,-475.77 324.75,-462.51"/>
<polygon fill="black" stroke="black" points="328.25,-462.59 324.75,-452.59 321.25,-462.59 328.25,-462.59"/>
</g>
<!-- mov_halfkneelcap -->
<g id="node11" class="node">
<title>mov_halfkneelcap</title>
<g id="a_node11"><a xlink:href="https://www.youtube.com/watch?v=KTDVl0Lkdc4&amp;list=PLk4oYPJ7TXKhX8YqA2AVrfgs_pEF6p7KA&amp;index=29" xlink:title="{{KB&#45;29|Half&#45;Kneeling\nClean &amp; Press}}">
<path fill="ghostwhite" stroke="lightslategrey" d="M350.88,-324.5C350.88,-324.5 476.62,-324.5 476.62,-324.5 482.62,-324.5 488.62,-330.5 488.62,-336.5 488.62,-336.5 488.62,-352 488.62,-352 488.62,-358 482.62,-364 476.62,-364 476.62,-364 350.88,-364 350.88,-364 344.88,-364 338.88,-358 338.88,-352 338.88,-352 338.88,-336.5 338.88,-336.5 338.88,-330.5 344.88,-324.5 350.88,-324.5"/>
<text text-anchor="middle" x="365.25" y="-338.82" font-family="Times New Roman,serif" font-size="14.00">KB&#45;29</text>
<polyline fill="none" stroke="lightslategrey" points="391.62,-324.5 391.62,-364"/>
<text text-anchor="middle" x="440.12" y="-346.7" font-family="Times New Roman,serif" font-size="14.00">Half&#45;Kneeling</text>
<text text-anchor="middle" x="440.12" y="-330.95" font-family="Times New Roman,serif" font-size="14.00">Clean &amp; Press</text>
</a>
</g>
</g>
<!-- mov_halfkneelclean&#45;&gt;mov_halfkneelcap -->
<g id="edge33" class="edge">
<title>mov_halfkneelclean&#45;&gt;mov_halfkneelcap</title>
<path fill="none" stroke="black" d="M342.76,-414.15C355.24,-402.03 372.1,-385.67 386.25,-371.94"/>
<polygon fill="black" stroke="black" points="388.4,-374.73 393.14,-365.26 383.52,-369.71 388.4,-374.73"/>
</g>
<!-- mov_deadlift -->
<g id="node12" class="node">
<title>mov_deadlift</title>
<g id="a_node12"><a xlink:href="https://www.youtube.com/watch?v=x0XkmM34BPI&amp;list=PLk4oYPJ7TXKhX8YqA2AVrfgs_pEF6p7KA&amp;index=1" xlink:title="{{1|Two Hand Deadlift}|HIP HINGE}">
<path fill="#ffff99" stroke="#b15928" d="M376.75,-1155.5C376.75,-1155.5 498.75,-1155.5 498.75,-1155.5 504.75,-1155.5 510.75,-1161.5 510.75,-1167.5 510.75,-1167.5 510.75,-1191 510.75,-1191 510.75,-1197 504.75,-1203 498.75,-1203 498.75,-1203 376.75,-1203 376.75,-1203 370.75,-1203 364.75,-1197 364.75,-1191 364.75,-1191 364.75,-1167.5 364.75,-1167.5 364.75,-1161.5 370.75,-1155.5 376.75,-1155.5"/>
<text text-anchor="middle" x="376.12" y="-1185.7" font-family="Times New Roman,serif" font-size="14.00">1</text>
<polyline fill="none" stroke="#b15928" points="387.5,-1179.25 387.5,-1203"/>
<text text-anchor="middle" x="449.12" y="-1185.7" font-family="Times New Roman,serif" font-size="14.00">Two Hand Deadlift</text>
<polyline fill="none" stroke="#b15928" points="364.75,-1179.25 510.75,-1179.25"/>
<text text-anchor="middle" x="437.75" y="-1161.95" font-family="Times New Roman,serif" font-size="14.00">HIP HINGE</text>
</a>
</g>
</g>
<!-- mov_deadlift&#45;&gt;mov_atw -->
<g id="edge2" class="edge">
<title>mov_deadlift&#45;&gt;mov_atw</title>
<path fill="none" stroke="black" d="M364.33,-1155.21C324.1,-1142.58 274.09,-1126.89 232.48,-1113.84"/>
<polygon fill="black" stroke="black" points="233.57,-1110.51 222.99,-1110.86 231.48,-1117.19 233.57,-1110.51"/>
</g>
<!-- mov_deadlift&#45;&gt;mov_halo -->
<g id="edge3" class="edge">
<title>mov_deadlift&#45;&gt;mov_halo</title>
<path fill="none" stroke="black" d="M424.38,-1155.44C419.6,-1147.3 414.07,-1137.87 408.68,-1128.67"/>
<polygon fill="black" stroke="black" points="411.77,-1127.03 403.69,-1120.17 405.73,-1130.57 411.77,-1127.03"/>
</g>
<!-- mov_deadlift&#45;&gt;mov_2hu1hd -->
<g id="edge7" class="edge">
<title>mov_deadlift&#45;&gt;mov_2hu1hd</title>
<path fill="none" stroke="black" d="M448.24,-1155.03C452.71,-1144.26 457.62,-1131.18 460.75,-1119 477.47,-1053.98 485.53,-976.24 489.13,-929.39"/>
<polygon fill="black" stroke="black" points="492.6,-929.91 489.85,-919.68 485.62,-929.4 492.6,-929.91"/>
</g>
<!-- mov_swing -->
<g id="node13" class="node">
<title>mov_swing</title>
<g id="a_node13"><a xlink:href="https://www.youtube.com/watch?v=m-S9H2XVvYg&amp;list=PLk4oYPJ7TXKhX8YqA2AVrfgs_pEF6p7KA&amp;index=2" xlink:title="{{2|Two Hand Swing}|LEG DRIVE &amp;\nHIP SNAP}">
<path fill="#ffff99" stroke="#b15928" d="M552.25,-1055.25C552.25,-1055.25 665.25,-1055.25 665.25,-1055.25 671.25,-1055.25 677.25,-1061.25 677.25,-1067.25 677.25,-1067.25 677.25,-1106.5 677.25,-1106.5 677.25,-1112.5 671.25,-1118.5 665.25,-1118.5 665.25,-1118.5 552.25,-1118.5 552.25,-1118.5 546.25,-1118.5 540.25,-1112.5 540.25,-1106.5 540.25,-1106.5 540.25,-1067.25 540.25,-1067.25 540.25,-1061.25 546.25,-1055.25 552.25,-1055.25"/>
<text text-anchor="middle" x="551.62" y="-1101.2" font-family="Times New Roman,serif" font-size="14.00">2</text>
<polyline fill="none" stroke="#b15928" points="563,-1094.75 563,-1118.5"/>
<text text-anchor="middle" x="620.12" y="-1101.2" font-family="Times New Roman,serif" font-size="14.00">Two Hand Swing</text>
<polyline fill="none" stroke="#b15928" points="540.25,-1094.75 677.25,-1094.75"/>
<text text-anchor="middle" x="608.75" y="-1077.45" font-family="Times New Roman,serif" font-size="14.00">LEG DRIVE &amp;</text>
<text text-anchor="middle" x="608.75" y="-1061.7" font-family="Times New Roman,serif" font-size="14.00">HIP SNAP</text>
</a>
</g>
</g>
<!-- mov_deadlift&#45;&gt;mov_swing -->
<g id="edge1" class="edge">
<title>mov_deadlift&#45;&gt;mov_swing</title>
<path fill="none" stroke="black" d="M481.34,-1155.21C499.2,-1145.77 520.31,-1134.62 540.15,-1124.13"/>
<polygon fill="black" stroke="black" points="541.53,-1127.36 548.73,-1119.59 538.26,-1121.17 541.53,-1127.36"/>
</g>
<!-- mov_saswing -->
<g id="node15" class="node">
<title>mov_saswing</title>
<g id="a_node15"><a xlink:href="https://www.youtube.com/watch?v=ejPpyLKZ1L4&amp;list=PLk4oYPJ7TXKhX8YqA2AVrfgs_pEF6p7KA&amp;index=9" xlink:title="{{9|Single Arm Swing}|THUMB POINTS BACK}">
<path fill="#ffff99" stroke="#b15928" d="M597,-862.62C597,-862.62 734.5,-862.62 734.5,-862.62 740.5,-862.62 746.5,-868.62 746.5,-874.62 746.5,-874.62 746.5,-898.12 746.5,-898.12 746.5,-904.12 740.5,-910.12 734.5,-910.12 734.5,-910.12 597,-910.12 597,-910.12 591,-910.12 585,-904.12 585,-898.12 585,-898.12 585,-874.62 585,-874.62 585,-868.62 591,-862.62 597,-862.62"/>
<text text-anchor="middle" x="601.88" y="-892.83" font-family="Times New Roman,serif" font-size="14.00">9</text>
<polyline fill="none" stroke="#b15928" points="618.75,-886.38 618.75,-910.12"/>
<text text-anchor="middle" x="682.5" y="-892.83" font-family="Times New Roman,serif" font-size="14.00">Single Arm Swing</text>
<polyline fill="none" stroke="#b15928" points="585,-886.38 746.5,-886.38"/>
<text text-anchor="middle" x="665.75" y="-869.08" font-family="Times New Roman,serif" font-size="14.00">THUMB POINTS BACK</text>
</a>
</g>
</g>
<!-- mov_swing&#45;&gt;mov_saswing -->
<g id="edge8" class="edge">
<title>mov_swing&#45;&gt;mov_saswing</title>
<path fill="none" stroke="black" d="M617.66,-1054.86C628.07,-1018.59 645.25,-958.77 656.01,-921.3"/>
<polygon fill="black" stroke="black" points="659.31,-922.47 658.71,-911.89 652.59,-920.54 659.31,-922.47"/>
</g>
<!-- mov_saswing&#45;&gt;mov_2hucleandown -->
<g id="edge11" class="edge">
<title>mov_saswing&#45;&gt;mov_2hucleandown</title>
<path fill="none" stroke="black" d="M663.2,-862.59C661.69,-849.08 659.75,-831.8 658.12,-817.18"/>
<polygon fill="black" stroke="black" points="661.64,-817.21 657.05,-807.66 654.68,-817.99 661.64,-817.21"/>
</g>
<!-- mov_h2h -->
<g id="node16" class="node">
<title>mov_h2h</title>
<g id="a_node16"><a xlink:href="https://www.youtube.com/watch?v=0Uk0Rdm3QFs&amp;list=PLk4oYPJ7TXKhX8YqA2AVrfgs_pEF6p7KA&amp;index=10" xlink:title="10|Hand to Hand\nTransition">
<path fill="#ffff99" stroke="#b15928" d="M746.62,-678C746.62,-678 846.88,-678 846.88,-678 852.88,-678 858.88,-684 858.88,-690 858.88,-690 858.88,-705.5 858.88,-705.5 858.88,-711.5 852.88,-717.5 846.88,-717.5 846.88,-717.5 746.62,-717.5 746.62,-717.5 740.62,-717.5 734.62,-711.5 734.62,-705.5 734.62,-705.5 734.62,-690 734.62,-690 734.62,-684 740.62,-678 746.62,-678"/>
<text text-anchor="middle" x="749.38" y="-692.33" font-family="Times New Roman,serif" font-size="14.00">10</text>
<polyline fill="none" stroke="#b15928" points="764.12,-678 764.12,-717.5"/>
<text text-anchor="middle" x="811.5" y="-700.2" font-family="Times New Roman,serif" font-size="14.00">Hand to Hand</text>
<text text-anchor="middle" x="811.5" y="-684.45" font-family="Times New Roman,serif" font-size="14.00">Transition</text>
</a>
</g>
</g>
<!-- mov_saswing&#45;&gt;mov_h2h -->
<g id="edge9" class="edge">
<title>mov_saswing&#45;&gt;mov_h2h</title>
<path fill="none" stroke="black" d="M695.11,-862.3C709.2,-850.22 725.61,-834.57 737.75,-818.25 758.68,-790.11 775.51,-753.4 785.75,-728.14"/>
<polygon fill="black" stroke="black" points="788.89,-729.73 789.31,-719.14 782.38,-727.16 788.89,-729.73"/>
</g>
<!-- mov_cleanh2h -->
<g id="node18" class="node">
<title>mov_cleanh2h</title>
<g id="a_node18"><a xlink:href="https://www.youtube.com/watch?v=6TVqHl2gtuM&amp;list=PLk4oYPJ7TXKhX8YqA2AVrfgs_pEF6p7KA&amp;index=13" xlink:title="13|Clean with\nHand Transition">
<path fill="#ffff99" stroke="#b15928" d="M748,-589.62C748,-589.62 859.5,-589.62 859.5,-589.62 865.5,-589.62 871.5,-595.62 871.5,-601.62 871.5,-601.62 871.5,-617.12 871.5,-617.12 871.5,-623.12 865.5,-629.12 859.5,-629.12 859.5,-629.12 748,-629.12 748,-629.12 742,-629.12 736,-623.12 736,-617.12 736,-617.12 736,-601.62 736,-601.62 736,-595.62 742,-589.62 748,-589.62"/>
<text text-anchor="middle" x="750.75" y="-603.95" font-family="Times New Roman,serif" font-size="14.00">13</text>
<polyline fill="none" stroke="#b15928" points="765.5,-589.62 765.5,-629.12"/>
<text text-anchor="middle" x="818.5" y="-611.83" font-family="Times New Roman,serif" font-size="14.00">Clean with</text>
<text text-anchor="middle" x="818.5" y="-596.08" font-family="Times New Roman,serif" font-size="14.00">Hand Transition</text>
</a>
</g>
</g>
<!-- mov_h2h&#45;&gt;mov_cleanh2h -->
<g id="edge14" class="edge">
<title>mov_h2h&#45;&gt;mov_cleanh2h</title>
<path fill="none" stroke="black" d="M798.3,-677.58C799.18,-666.73 800.3,-652.92 801.3,-640.64"/>
<polygon fill="black" stroke="black" points="804.76,-641.25 802.08,-631 797.78,-640.68 804.76,-641.25"/>
</g>
<!-- mov_clean&#45;&gt;mov_news -->
<g id="edge16" class="edge">
<title>mov_clean&#45;&gt;mov_news</title>
<path fill="none" stroke="black" d="M651.75,-679.27C651.75,-667.8 651.75,-652.52 651.75,-639.26"/>
<polygon fill="black" stroke="black" points="655.25,-639.34 651.75,-629.34 648.25,-639.34 655.25,-639.34"/>
</g>
<!-- mov_clean&#45;&gt;mov_cleanh2h -->
<g id="edge13" class="edge">
<title>mov_clean&#45;&gt;mov_cleanh2h</title>
<path fill="none" stroke="black" d="M682.51,-679.27C704.85,-666.58 735.39,-649.22 760.23,-635.11"/>
<polygon fill="black" stroke="black" points="761.85,-638.21 768.82,-630.23 758.39,-632.12 761.85,-638.21"/>
</g>
<!-- mov_startstopclean -->
<g id="node20" class="node">
<title>mov_startstopclean</title>
<g id="a_node20"><a xlink:href="https://www.youtube.com/watch?v=XbK3jxI0WNQ&amp;list=PLk4oYPJ7TXKhX8YqA2AVrfgs_pEF6p7KA&amp;index=16" xlink:title="{{16|Start Stop Clean}|START &amp; END CLEAN}">
<path fill="#ffff99" stroke="#b15928" d="M276.88,-585.62C276.88,-585.62 410.62,-585.62 410.62,-585.62 416.62,-585.62 422.62,-591.62 422.62,-597.62 422.62,-597.62 422.62,-621.12 422.62,-621.12 422.62,-627.12 416.62,-633.12 410.62,-633.12 410.62,-633.12 276.88,-633.12 276.88,-633.12 270.88,-633.12 264.88,-627.12 264.88,-621.12 264.88,-621.12 264.88,-597.62 264.88,-597.62 264.88,-591.62 270.88,-585.62 276.88,-585.62"/>
<text text-anchor="middle" x="284.62" y="-615.83" font-family="Times New Roman,serif" font-size="14.00">16</text>
<polyline fill="none" stroke="#b15928" points="304.38,-609.38 304.38,-633.12"/>
<text text-anchor="middle" x="363.5" y="-615.83" font-family="Times New Roman,serif" font-size="14.00">Start Stop Clean</text>
<polyline fill="none" stroke="#b15928" points="264.88,-609.38 422.62,-609.38"/>
<text text-anchor="middle" x="343.75" y="-592.08" font-family="Times New Roman,serif" font-size="14.00">START &amp; END CLEAN</text>
</a>
</g>
</g>
<!-- mov_clean&#45;&gt;mov_startstopclean -->
<g id="edge17" class="edge">
<title>mov_clean&#45;&gt;mov_startstopclean</title>
<path fill="none" stroke="black" d="M593.91,-683.79C549.3,-673.42 486.23,-657.94 431.75,-641.5 427.21,-640.13 422.56,-638.67 417.89,-637.15"/>
<polygon fill="black" stroke="black" points="418.99,-633.83 408.4,-634.01 416.79,-640.48 418.99,-633.83"/>
</g>
<!-- mov_cap -->
<g id="node21" class="node">
<title>mov_cap</title>
<g id="a_node21"><a xlink:href="https://www.youtube.com/watch?v=SSxB3m5qRas&amp;list=PLk4oYPJ7TXKhX8YqA2AVrfgs_pEF6p7KA&amp;index=17" xlink:title="17|Clean &amp; Press">
<path fill="#ffff99" stroke="#b15928" d="M452.5,-591.38C452.5,-591.38 555,-591.38 555,-591.38 561,-591.38 567,-597.38 567,-603.38 567,-603.38 567,-615.38 567,-615.38 567,-621.38 561,-627.38 555,-627.38 555,-627.38 452.5,-627.38 452.5,-627.38 446.5,-627.38 440.5,-621.38 440.5,-615.38 440.5,-615.38 440.5,-603.38 440.5,-603.38 440.5,-597.38 446.5,-591.38 452.5,-591.38"/>
<text text-anchor="middle" x="455.25" y="-603.95" font-family="Times New Roman,serif" font-size="14.00">17</text>
<polyline fill="none" stroke="#b15928" points="470,-591.38 470,-627.38"/>
<text text-anchor="middle" x="518.5" y="-603.95" font-family="Times New Roman,serif" font-size="14.00">Clean &amp; Press</text>
</a>
</g>
</g>
<!-- mov_clean&#45;&gt;mov_cap -->
<g id="edge18" class="edge">
<title>mov_clean&#45;&gt;mov_cap</title>
<path fill="none" stroke="black" d="M621.8,-679.27C599.23,-666.1 568.07,-647.91 543.43,-633.53"/>
<polygon fill="black" stroke="black" points="545.36,-630.61 534.96,-628.59 541.84,-636.65 545.36,-630.61"/>
</g>
<!-- mov_caph2h -->
<g id="node22" class="node">
<title>mov_caph2h</title>
<g id="a_node22"><a xlink:href="https://www.youtube.com/watch?v=5Q4vMOYvAGg&amp;list=PLk4oYPJ7TXKhX8YqA2AVrfgs_pEF6p7KA&amp;index=18" xlink:title="18|Clean &amp; Press with\nHand Transition">
<path fill="#ffff99" stroke="#b15928" d="M641,-501.25C641,-501.25 770.5,-501.25 770.5,-501.25 776.5,-501.25 782.5,-507.25 782.5,-513.25 782.5,-513.25 782.5,-528.75 782.5,-528.75 782.5,-534.75 776.5,-540.75 770.5,-540.75 770.5,-540.75 641,-540.75 641,-540.75 635,-540.75 629,-534.75 629,-528.75 629,-528.75 629,-513.25 629,-513.25 629,-507.25 635,-501.25 641,-501.25"/>
<text text-anchor="middle" x="643.75" y="-515.58" font-family="Times New Roman,serif" font-size="14.00">18</text>
<polyline fill="none" stroke="#b15928" points="658.5,-501.25 658.5,-540.75"/>
<text text-anchor="middle" x="720.5" y="-523.45" font-family="Times New Roman,serif" font-size="14.00">Clean &amp; Press with</text>
<text text-anchor="middle" x="720.5" y="-507.7" font-family="Times New Roman,serif" font-size="14.00">Hand Transition</text>
</a>
</g>
</g>
<!-- mov_cleanh2h&#45;&gt;mov_caph2h -->
<g id="edge21" class="edge">
<title>mov_cleanh2h&#45;&gt;mov_caph2h</title>
<path fill="none" stroke="black" d="M782,-589.21C768.42,-577.24 750.76,-561.67 735.85,-548.53"/>
<polygon fill="black" stroke="black" points="738.39,-546.1 728.57,-542.12 733.76,-551.35 738.39,-546.1"/>
</g>
<!-- mov_press&#45;&gt;mov_cap -->
<g id="edge19" class="edge">
<title>mov_press&#45;&gt;mov_cap</title>
<path fill="none" stroke="black" d="M496.62,-766.09C498.03,-735.41 500.8,-674.85 502.44,-638.97"/>
<polygon fill="black" stroke="black" points="505.92,-639.48 502.88,-629.33 498.93,-639.16 505.92,-639.48"/>
</g>
<!-- mov_startstopclean&#45;&gt;mov_clean2sblunge -->
<g id="edge30" class="edge">
<title>mov_startstopclean&#45;&gt;mov_clean2sblunge</title>
<path fill="none" stroke="black" d="M338.66,-585.23C336.31,-574.55 333.5,-561.76 331.02,-550.5"/>
<polygon fill="black" stroke="black" points="334.48,-549.95 328.91,-540.93 327.64,-551.45 334.48,-549.95"/>
</g>
<!-- mov_cap&#45;&gt;mov_caph2h -->
<g id="edge20" class="edge">
<title>mov_cap&#45;&gt;mov_caph2h</title>
<path fill="none" stroke="black" d="M544.1,-590.88C554.41,-586.42 565.49,-581.65 575.75,-577.25 599.98,-566.87 626.77,-555.46 649.71,-545.73"/>
<polygon fill="black" stroke="black" points="651.07,-548.95 658.9,-541.83 648.33,-542.51 651.07,-548.95"/>
</g>
<!-- mov_startstopcap -->
<g id="node23" class="node">
<title>mov_startstopcap</title>
<g id="a_node23"><a xlink:href="https://www.youtube.com/watch?v=dSj3kqbuois&amp;list=PLk4oYPJ7TXKhX8YqA2AVrfgs_pEF6p7KA&amp;index=19" xlink:title="{{19|Start Stop\nClean &amp; Press}|START &amp; END C&amp;P}">
<path fill="#ffff99" stroke="#b15928" d="M445.12,-401C445.12,-401 562.38,-401 562.38,-401 568.38,-401 574.38,-407 574.38,-413 574.38,-413 574.38,-452.25 574.38,-452.25 574.38,-458.25 568.38,-464.25 562.38,-464.25 562.38,-464.25 445.12,-464.25 445.12,-464.25 439.12,-464.25 433.12,-458.25 433.12,-452.25 433.12,-452.25 433.12,-413 433.12,-413 433.12,-407 439.12,-401 445.12,-401"/>
<text text-anchor="middle" x="451.38" y="-439.07" font-family="Times New Roman,serif" font-size="14.00">19</text>
<polyline fill="none" stroke="#b15928" points="469.62,-424.75 469.62,-464.25"/>
<text text-anchor="middle" x="521.62" y="-446.95" font-family="Times New Roman,serif" font-size="14.00">Start Stop</text>
<text text-anchor="middle" x="521.62" y="-431.2" font-family="Times New Roman,serif" font-size="14.00">Clean &amp; Press</text>
<polyline fill="none" stroke="#b15928" points="433.12,-424.75 574.38,-424.75"/>
<text text-anchor="middle" x="503.75" y="-407.45" font-family="Times New Roman,serif" font-size="14.00">START &amp; END C&amp;P</text>
</a>
</g>
</g>
<!-- mov_cap&#45;&gt;mov_startstopcap -->
<g id="edge22" class="edge">
<title>mov_cap&#45;&gt;mov_startstopcap</title>
<path fill="none" stroke="black" d="M503.75,-590.98C503.75,-564.42 503.75,-512.95 503.75,-476.1"/>
<polygon fill="black" stroke="black" points="507.25,-476.22 503.75,-466.22 500.25,-476.22 507.25,-476.22"/>
</g>
<!-- mov_startstopcap&#45;&gt;mov_halfkneelcap -->
<g id="edge32" class="edge">
<title>mov_startstopcap&#45;&gt;mov_halfkneelcap</title>
<path fill="none" stroke="black" d="M471.51,-400.69C461.86,-391.42 451.35,-381.33 441.97,-372.34"/>
<polygon fill="black" stroke="black" points="444.47,-369.88 434.83,-365.48 439.62,-374.93 444.47,-369.88"/>
</g>
<!-- mov_boxsquathalo -->
<g id="node25" class="node">
<title>mov_boxsquathalo</title>
<g id="a_node25"><a xlink:href="https://www.youtube.com/watch?v=Aik5-BStbnc&amp;list=PLk4oYPJ7TXKhX8YqA2AVrfgs_pEF6p7KA&amp;index=21" xlink:title="{{21|Goblet Box Squat\nwith Halo}|STAND AT TOP}">
<path fill="#ffff99" stroke="#b15928" d="M256.38,-854.75C256.38,-854.75 379.12,-854.75 379.12,-854.75 385.12,-854.75 391.12,-860.75 391.12,-866.75 391.12,-866.75 391.12,-906 391.12,-906 391.12,-912 385.12,-918 379.12,-918 379.12,-918 256.38,-918 256.38,-918 250.38,-918 244.38,-912 244.38,-906 244.38,-906 244.38,-866.75 244.38,-866.75 244.38,-860.75 250.38,-854.75 256.38,-854.75"/>
<text text-anchor="middle" x="259.12" y="-892.83" font-family="Times New Roman,serif" font-size="14.00">21</text>
<polyline fill="none" stroke="#b15928" points="273.88,-878.5 273.88,-918"/>
<text text-anchor="middle" x="332.5" y="-900.7" font-family="Times New Roman,serif" font-size="14.00">Goblet Box Squat</text>
<text text-anchor="middle" x="332.5" y="-884.95" font-family="Times New Roman,serif" font-size="14.00">with Halo</text>
<polyline fill="none" stroke="#b15928" points="244.38,-878.5 391.12,-878.5"/>
<text text-anchor="middle" x="317.75" y="-861.2" font-family="Times New Roman,serif" font-size="14.00">STAND AT TOP</text>
</a>
</g>
</g>
<!-- mov_gobboxsquat&#45;&gt;mov_boxsquathalo -->
<g id="edge24" class="edge">
<title>mov_gobboxsquat&#45;&gt;mov_boxsquathalo</title>
<path fill="none" stroke="black" d="M363.55,-954.54C357.75,-946.03 351.38,-936.69 345.28,-927.75"/>
<polygon fill="black" stroke="black" points="348.19,-925.8 339.66,-919.51 342.41,-929.74 348.19,-925.8"/>
</g>
<!-- mov_gobsquathalo -->
<g id="node26" class="node">
<title>mov_gobsquathalo</title>
<g id="a_node26"><a xlink:href="https://www.youtube.com/watch?v=cnZ8Mx8NQPE&amp;list=PLk4oYPJ7TXKhX8YqA2AVrfgs_pEF6p7KA&amp;index=22" xlink:title="{{22|Goblet Squat\nwith Halo}|FULL DEPTH}">
<path fill="#ffff99" stroke="#b15928" d="M264.88,-754.5C264.88,-754.5 360.62,-754.5 360.62,-754.5 366.62,-754.5 372.62,-760.5 372.62,-766.5 372.62,-766.5 372.62,-805.75 372.62,-805.75 372.62,-811.75 366.62,-817.75 360.62,-817.75 360.62,-817.75 264.88,-817.75 264.88,-817.75 258.88,-817.75 252.88,-811.75 252.88,-805.75 252.88,-805.75 252.88,-766.5 252.88,-766.5 252.88,-760.5 258.88,-754.5 264.88,-754.5"/>
<text text-anchor="middle" x="267.62" y="-792.58" font-family="Times New Roman,serif" font-size="14.00">22</text>
<polyline fill="none" stroke="#b15928" points="282.38,-778.25 282.38,-817.75"/>
<text text-anchor="middle" x="327.5" y="-800.45" font-family="Times New Roman,serif" font-size="14.00">Goblet Squat</text>
<text text-anchor="middle" x="327.5" y="-784.7" font-family="Times New Roman,serif" font-size="14.00">with Halo</text>
<polyline fill="none" stroke="#b15928" points="252.88,-778.25 372.62,-778.25"/>
<text text-anchor="middle" x="312.75" y="-760.95" font-family="Times New Roman,serif" font-size="14.00">FULL DEPTH</text>
</a>
</g>
</g>
<!-- mov_boxsquathalo&#45;&gt;mov_gobsquathalo -->
<g id="edge25" class="edge">
<title>mov_boxsquathalo&#45;&gt;mov_gobsquathalo</title>
<path fill="none" stroke="black" d="M316.17,-854.29C315.77,-846.42 315.33,-837.83 314.91,-829.5"/>
<polygon fill="black" stroke="black" points="318.4,-829.33 314.4,-819.52 311.41,-829.69 318.4,-829.33"/>
</g>
<!-- mov_gobsquathalo&#45;&gt;mov_racksquat -->
<g id="edge26" class="edge">
<title>mov_gobsquathalo&#45;&gt;mov_racksquat</title>
<path fill="none" stroke="black" d="M312.75,-754.43C312.75,-745.49 312.75,-735.78 312.75,-727"/>
<polygon fill="black" stroke="black" points="316.25,-727.29 312.75,-717.29 309.25,-727.29 316.25,-727.29"/>
</g>
<!-- mov_racksquat&#45;&gt;mov_racklunge -->
<g id="edge28" class="edge">
<title>mov_racksquat&#45;&gt;mov_racklunge</title>
<path fill="none" stroke="black" d="M281.38,-679.27C264.74,-669.99 243.62,-658.23 223.57,-647.06"/>
<polygon fill="black" stroke="black" points="225.29,-644.01 214.85,-642.2 221.88,-650.12 225.29,-644.01"/>
</g>
<!-- Legend -->
<g id="node28" class="node">
<title>Legend</title>
<path fill="#ffff99" stroke="none" d="M498.25,-288C498.25,-288 329.25,-288 329.25,-288 323.25,-288 317.25,-282 317.25,-276 317.25,-276 317.25,-174 317.25,-174 317.25,-168 323.25,-162 329.25,-162 329.25,-162 498.25,-162 498.25,-162 504.25,-162 510.25,-168 510.25,-174 510.25,-174 510.25,-276 510.25,-276 510.25,-282 504.25,-288 498.25,-288"/>
<polygon fill="none" stroke="#b15928" points="317.25,-262 317.25,-288 510.25,-288 510.25,-262 317.25,-262"/>
<text text-anchor="start" x="391.25" y="-270.7" font-family="Times New Roman,serif" font-weight="bold" font-size="14.00">Legend</text>
<polygon fill="none" stroke="#b15928" points="317.25,-237 317.25,-262 482.25,-262 482.25,-237 317.25,-237"/>
<text text-anchor="start" x="322.12" y="-243.7" font-family="Times New Roman,serif" font-size="14.00">Prerequisites and next steps</text>
<polygon fill="ghostwhite" stroke="none" points="482.25,-237 482.25,-262 510.25,-262 510.25,-237 482.25,-237"/>
<polygon fill="none" stroke="#b15928" points="482.25,-237 482.25,-262 510.25,-262 510.25,-237 482.25,-237"/>
<text text-anchor="start" x="486.88" y="-243.7" font-family="Times New Roman,serif" font-size="14.00">     </text>
<polygon fill="none" stroke="#b15928" points="317.25,-212 317.25,-237 482.25,-237 482.25,-212 317.25,-212"/>
<text text-anchor="start" x="385.12" y="-218.7" font-family="Times New Roman,serif" font-size="14.00">Drills</text>
<polygon fill="#ffff99" stroke="none" points="482.25,-212 482.25,-237 510.25,-237 510.25,-212 482.25,-212"/>
<polygon fill="none" stroke="#b15928" points="482.25,-212 482.25,-237 510.25,-237 510.25,-212 482.25,-212"/>
<polygon fill="none" stroke="#b15928" points="317.25,-187 317.25,-212 482.25,-212 482.25,-187 317.25,-187"/>
<text text-anchor="start" x="360" y="-193.7" font-family="Times New Roman,serif" font-size="14.00">Warmup drills</text>
<polygon fill="#fdbf6f" stroke="none" points="482.25,-187 482.25,-212 510.25,-212 510.25,-187 482.25,-187"/>
<polygon fill="none" stroke="#b15928" points="482.25,-187 482.25,-212 510.25,-212 510.25,-187 482.25,-187"/>
<polygon fill="none" stroke="#b15928" points="317.25,-162 317.25,-187 482.25,-187 482.25,-162 317.25,-162"/>
<text text-anchor="start" x="360.38" y="-168.7" font-family="Times New Roman,serif" font-size="14.00">Learning drills</text>
<polygon fill="#cab2d6" stroke="none" points="482.25,-162 482.25,-187 510.25,-187 510.25,-162 482.25,-162"/>
<polygon fill="none" stroke="#b15928" points="482.25,-162 482.25,-187 510.25,-187 510.25,-162 482.25,-162"/>
</g>
</g>
</svg>
