<?xml version="1.0" encoding="UTF-8" standalone="no"?>
<!DOCTYPE svg PUBLIC "-//W3C//DTD SVG 1.1//EN"
 "http://www.w3.org/Graphics/SVG/1.1/DTD/svg11.dtd">
<!-- Generated by graphviz version 9.0.0 (20230911.1827)
 -->
<!-- Title: kb_progression Pages: 1 -->
<svg width="1417pt" height="908pt"
 viewBox="0.00 0.00 1417.12 907.75" xmlns="http://www.w3.org/2000/svg" xmlns:xlink="http://www.w3.org/1999/xlink">
<g id="graph0" class="graph" transform="scale(1 1) rotate(0) translate(4 903.75)">
<title>kb_progression</title>
<polygon fill="white" stroke="none" points="-4,4 -4,-903.75 1413.12,-903.75 1413.12,4 -4,4"/>
<text text-anchor="start" x="1009.62" y="-145.7" font-family="Helvetica,Arial,sans-serif" font-weight="bold" font-size="14.00">Kettlebell Basic Skill Progression &#45; Part 4/4</text>
<text text-anchor="start" x="1009.62" y="-117.7" font-family="Helvetica,Arial,sans-serif" font-size="14.00">Diagram by dznz based on Mark Wildman&#39;s teachings.</text>
<text text-anchor="start" x="1009.62" y="-89.7" font-family="Helvetica,Arial,sans-serif" font-size="14.00">Source: </text>
<text text-anchor="start" x="1062.88" y="-89.7" font-family="Helvetica,Arial,sans-serif" font-weight="bold" font-size="14.00">https://github.com/dznz/wildman&#45;skill&#45;trees</text>
<text text-anchor="start" x="1009.62" y="-61.7" font-family="Helvetica,Arial,sans-serif" font-size="14.00">More by Mark Wildman &#45; </text>
<text text-anchor="start" x="1165.62" y="-61.7" font-family="Helvetica,Arial,sans-serif" font-weight="bold" font-size="14.00">https://www.wildmanathletica.com</text>
<text text-anchor="start" x="1009.62" y="-33.7" font-family="Helvetica,Arial,sans-serif" font-style="italic" font-size="14.00">© 2023. This work is openly licensed with CC BY&#45;NC&#45;SA 4.0</text>
<text text-anchor="start" x="1077.88" y="-19.7" font-family="Helvetica,Arial,sans-serif" font-style="italic" font-size="14.00">http://creativecommons.org/licenses/by&#45;nc&#45;sa/4.0/</text>
<text text-anchor="start" x="1201.62" y="-5.7" font-family="Helvetica,Arial,sans-serif" font-size="14.00"> &#160;</text>
<g id="clust2" class="cluster">
<title>cluster_double</title>
<polygon fill="none" stroke="black" points="141.62,-243 141.62,-770.25 704.62,-770.25 704.62,-243 141.62,-243"/>
<text text-anchor="middle" x="670" y="-752.95" font-family="Helvetica,Arial,sans-serif" font-size="14.00">Doubles</text>
</g>
<g id="clust3" class="cluster">
<title>cluster_snatch</title>
<polygon fill="none" stroke="black" points="871.62,-170 871.62,-522.62 1207.62,-522.62 1207.62,-170 871.62,-170"/>
<text text-anchor="middle" x="1177.88" y="-505.32" font-family="Helvetica,Arial,sans-serif" font-size="14.00">Snatch</text>
</g>
<!-- ext_hc_dblswing -->
<g id="node1" class="node">
<title>ext_hc_dblswing</title>
<path fill="ghostwhite" stroke="lightslategrey" d="M13.5,-546C13.5,-546 119.75,-546 119.75,-546 125.75,-546 131.75,-552 131.75,-558 131.75,-558 131.75,-570 131.75,-570 131.75,-576 125.75,-582 119.75,-582 119.75,-582 13.5,-582 13.5,-582 7.5,-582 1.5,-576 1.5,-570 1.5,-570 1.5,-558 1.5,-558 1.5,-552 7.5,-546 13.5,-546"/>
<text text-anchor="middle" x="19.25" y="-558.7" font-family="Times New Roman,serif" font-size="14.00">HC</text>
<polyline fill="none" stroke="lightslategrey" points="37,-546.25 37,-582"/>
<text text-anchor="middle" x="84.38" y="-558.7" font-family="Times New Roman,serif" font-size="14.00">Double Swing</text>
</g>
<!-- ext_hc_dblrockit -->
<g id="node2" class="node">
<title>ext_hc_dblrockit</title>
<path fill="ghostwhite" stroke="lightslategrey" d="M12,-453.62C12,-453.62 121.25,-453.62 121.25,-453.62 127.25,-453.62 133.25,-459.62 133.25,-465.62 133.25,-465.62 133.25,-477.62 133.25,-477.62 133.25,-483.62 127.25,-489.62 121.25,-489.62 121.25,-489.62 12,-489.62 12,-489.62 6,-489.62 0,-483.62 0,-477.62 0,-477.62 0,-465.62 0,-465.62 0,-459.62 6,-453.62 12,-453.62"/>
<text text-anchor="middle" x="17.75" y="-466.32" font-family="Times New Roman,serif" font-size="14.00">HC</text>
<polyline fill="none" stroke="lightslategrey" points="35.5,-453.88 35.5,-489.62"/>
<text text-anchor="middle" x="84.38" y="-466.32" font-family="Times New Roman,serif" font-size="14.00">Double Rockit</text>
</g>
<!-- ext_hc_dblswing&#45;&gt;ext_hc_dblrockit -->
<g id="edge1" class="edge">
<title>ext_hc_dblswing&#45;&gt;ext_hc_dblrockit</title>
<path fill="none" stroke="black" d="M66.62,-545.57C66.62,-533.07 66.62,-515.94 66.62,-501.42"/>
<polygon fill="black" stroke="black" points="70.13,-501.51 66.63,-491.51 63.13,-501.51 70.13,-501.51"/>
</g>
<!-- mov_dblrockit -->
<g id="node17" class="node">
<title>mov_dblrockit</title>
<g id="a_node17"><a xlink:href="https://www.youtube.com/watch?v=zXB6hFrrBkA&amp;list=PLk4oYPJ7TXKhX8YqA2AVrfgs_pEF6p7KA&amp;index=63" xlink:title="{{64?|Double Rockit}}">
<path fill="#ffff99" stroke="#b15928" d="M162,-347.5C162,-347.5 271.25,-347.5 271.25,-347.5 277.25,-347.5 283.25,-353.5 283.25,-359.5 283.25,-359.5 283.25,-371.5 283.25,-371.5 283.25,-377.5 277.25,-383.5 271.25,-383.5 271.25,-383.5 162,-383.5 162,-383.5 156,-383.5 150,-377.5 150,-371.5 150,-371.5 150,-359.5 150,-359.5 150,-353.5 156,-347.5 162,-347.5"/>
<text text-anchor="middle" x="167.75" y="-360.2" font-family="Times New Roman,serif" font-size="14.00">64?</text>
<polyline fill="none" stroke="#b15928" points="185.5,-347.75 185.5,-383.5"/>
<text text-anchor="middle" x="234.38" y="-360.2" font-family="Times New Roman,serif" font-size="14.00">Double Rockit</text>
</a>
</g>
</g>
<!-- ext_hc_dblrockit&#45;&gt;mov_dblrockit -->
<g id="edge2" class="edge">
<title>ext_hc_dblrockit&#45;&gt;mov_dblrockit</title>
<path fill="none" stroke="black" d="M91.73,-453.2C116.5,-436 154.56,-409.59 182.15,-390.43"/>
<polygon fill="black" stroke="black" points="183.97,-393.43 190.19,-384.85 179.98,-387.68 183.97,-393.43"/>
</g>
<!-- mov_deadlift -->
<g id="node3" class="node">
<title>mov_deadlift</title>
<g id="a_node3"><a xlink:href="https://www.youtube.com/watch?v=x0XkmM34BPI&amp;list=PLk4oYPJ7TXKhX8YqA2AVrfgs_pEF6p7KA&amp;index=1" xlink:title="{{KB&#45;01|Two Hand Deadlift}|HIP HINGE}">
<path fill="ghostwhite" stroke="lightslategrey" d="M654.62,-851.75C654.62,-851.75 806.62,-851.75 806.62,-851.75 812.62,-851.75 818.62,-857.75 818.62,-863.75 818.62,-863.75 818.62,-887.25 818.62,-887.25 818.62,-893.25 812.62,-899.25 806.62,-899.25 806.62,-899.25 654.62,-899.25 654.62,-899.25 648.62,-899.25 642.62,-893.25 642.62,-887.25 642.62,-887.25 642.62,-863.75 642.62,-863.75 642.62,-857.75 648.62,-851.75 654.62,-851.75"/>
<text text-anchor="middle" x="669" y="-881.95" font-family="Times New Roman,serif" font-size="14.00">KB&#45;01</text>
<polyline fill="none" stroke="lightslategrey" points="695.38,-875.5 695.38,-899.25"/>
<text text-anchor="middle" x="757" y="-881.95" font-family="Times New Roman,serif" font-size="14.00">Two Hand Deadlift</text>
<polyline fill="none" stroke="lightslategrey" points="642.62,-875.5 818.62,-875.5"/>
<text text-anchor="middle" x="730.62" y="-858.2" font-family="Times New Roman,serif" font-size="14.00">HIP HINGE</text>
</a>
</g>
</g>
<!-- mov_suitcasedl -->
<g id="node9" class="node">
<title>mov_suitcasedl</title>
<g id="a_node9"><a xlink:href="https://www.youtube.com/watch?v=d6i6MwVOmk0&amp;list=PLk4oYPJ7TXKhX8YqA2AVrfgs_pEF6p7KA&amp;index=58" xlink:title="{{56|Suitcase Deadlift}}">
<path fill="#ffff99" stroke="#b15928" d="M673,-778.75C673,-778.75 788.25,-778.75 788.25,-778.75 794.25,-778.75 800.25,-784.75 800.25,-790.75 800.25,-790.75 800.25,-802.75 800.25,-802.75 800.25,-808.75 794.25,-814.75 788.25,-814.75 788.25,-814.75 673,-814.75 673,-814.75 667,-814.75 661,-808.75 661,-802.75 661,-802.75 661,-790.75 661,-790.75 661,-784.75 667,-778.75 673,-778.75"/>
<text text-anchor="middle" x="675.75" y="-791.45" font-family="Times New Roman,serif" font-size="14.00">56</text>
<polyline fill="none" stroke="#b15928" points="690.5,-779 690.5,-814.75"/>
<text text-anchor="middle" x="745.38" y="-791.45" font-family="Times New Roman,serif" font-size="14.00">Suitcase Deadlift</text>
</a>
</g>
</g>
<!-- mov_deadlift&#45;&gt;mov_suitcasedl -->
<g id="edge10" class="edge">
<title>mov_deadlift&#45;&gt;mov_suitcasedl</title>
<path fill="none" stroke="black" d="M730.62,-851.47C730.62,-843.64 730.62,-834.79 730.62,-826.56"/>
<polygon fill="black" stroke="black" points="734.13,-826.66 730.63,-816.66 727.13,-826.66 734.13,-826.66"/>
</g>
<!-- mov_h2h -->
<g id="node4" class="node">
<title>mov_h2h</title>
<g id="a_node4"><a xlink:href="https://www.youtube.com/watch?v=0Uk0Rdm3QFs&amp;list=PLk4oYPJ7TXKhX8YqA2AVrfgs_pEF6p7KA&amp;index=10" xlink:title="{{KB&#45;10|Hand to Hand\nTransition}}">
<path fill="ghostwhite" stroke="lightslategrey" d="M725.88,-624.75C725.88,-624.75 849.38,-624.75 849.38,-624.75 855.38,-624.75 861.38,-630.75 861.38,-636.75 861.38,-636.75 861.38,-652.25 861.38,-652.25 861.38,-658.25 855.38,-664.25 849.38,-664.25 849.38,-664.25 725.88,-664.25 725.88,-664.25 719.88,-664.25 713.88,-658.25 713.88,-652.25 713.88,-652.25 713.88,-636.75 713.88,-636.75 713.88,-630.75 719.88,-624.75 725.88,-624.75"/>
<text text-anchor="middle" x="740.25" y="-639.08" font-family="Times New Roman,serif" font-size="14.00">KB&#45;10</text>
<polyline fill="none" stroke="lightslategrey" points="766.62,-624.75 766.62,-664.25"/>
<text text-anchor="middle" x="814" y="-646.95" font-family="Times New Roman,serif" font-size="14.00">Hand to Hand</text>
<text text-anchor="middle" x="814" y="-631.2" font-family="Times New Roman,serif" font-size="14.00">Transition</text>
</a>
</g>
</g>
<!-- mov_dblswing -->
<g id="node13" class="node">
<title>mov_dblswing</title>
<g id="a_node13"><a xlink:href="https://www.youtube.com/watch?v=P5IFTJySA_s&amp;list=PLk4oYPJ7TXKhX8YqA2AVrfgs_pEF6p7KA&amp;index=61" xlink:title="{{60|Double Swing}}">
<path fill="#ffff99" stroke="#b15928" d="M560.5,-546C560.5,-546 660.75,-546 660.75,-546 666.75,-546 672.75,-552 672.75,-558 672.75,-558 672.75,-570 672.75,-570 672.75,-576 666.75,-582 660.75,-582 660.75,-582 560.5,-582 560.5,-582 554.5,-582 548.5,-576 548.5,-570 548.5,-570 548.5,-558 548.5,-558 548.5,-552 554.5,-546 560.5,-546"/>
<text text-anchor="middle" x="563.25" y="-558.7" font-family="Times New Roman,serif" font-size="14.00">60</text>
<polyline fill="none" stroke="#b15928" points="578,-546.25 578,-582"/>
<text text-anchor="middle" x="625.38" y="-558.7" font-family="Times New Roman,serif" font-size="14.00">Double Swing</text>
</a>
</g>
</g>
<!-- mov_h2h&#45;&gt;mov_dblswing -->
<g id="edge3" class="edge">
<title>mov_h2h&#45;&gt;mov_dblswing</title>
<path fill="none" stroke="black" d="M744.33,-624.3C718.85,-613 686.54,-598.67 660.06,-586.92"/>
<polygon fill="black" stroke="black" points="661.8,-583.87 651.24,-583.01 658.96,-590.27 661.8,-583.87"/>
</g>
<!-- mov_clean -->
<g id="node5" class="node">
<title>mov_clean</title>
<g id="a_node5"><a xlink:href="https://www.youtube.com/watch?v=_nIsSXWs5iU&amp;list=PLk4oYPJ7TXKhX8YqA2AVrfgs_pEF6p7KA&amp;index=12" xlink:title="KB&#45;12|Swing Clean">
<path fill="ghostwhite" stroke="lightslategrey" d="M900.38,-626.5C900.38,-626.5 1014.88,-626.5 1014.88,-626.5 1020.88,-626.5 1026.88,-632.5 1026.88,-638.5 1026.88,-638.5 1026.88,-650.5 1026.88,-650.5 1026.88,-656.5 1020.88,-662.5 1014.88,-662.5 1014.88,-662.5 900.38,-662.5 900.38,-662.5 894.38,-662.5 888.38,-656.5 888.38,-650.5 888.38,-650.5 888.38,-638.5 888.38,-638.5 888.38,-632.5 894.38,-626.5 900.38,-626.5"/>
<text text-anchor="middle" x="914.75" y="-639.08" font-family="Times New Roman,serif" font-size="14.00">KB&#45;12</text>
<polyline fill="none" stroke="lightslategrey" points="941.12,-626.5 941.12,-662.5"/>
<text text-anchor="middle" x="984" y="-639.08" font-family="Times New Roman,serif" font-size="14.00">Swing Clean</text>
</a>
</g>
</g>
<!-- mov_startstopclean -->
<g id="node6" class="node">
<title>mov_startstopclean</title>
<g id="a_node6"><a xlink:href="https://www.youtube.com/watch?v=XbK3jxI0WNQ&amp;list=PLk4oYPJ7TXKhX8YqA2AVrfgs_pEF6p7KA&amp;index=16" xlink:title="{{KB&#45;16|Start Stop Clean}|START &amp; END CLEAN}">
<path fill="ghostwhite" stroke="lightslategrey" d="M725.12,-540.25C725.12,-540.25 862.12,-540.25 862.12,-540.25 868.12,-540.25 874.12,-546.25 874.12,-552.25 874.12,-552.25 874.12,-575.75 874.12,-575.75 874.12,-581.75 868.12,-587.75 862.12,-587.75 862.12,-587.75 725.12,-587.75 725.12,-587.75 719.12,-587.75 713.12,-581.75 713.12,-575.75 713.12,-575.75 713.12,-552.25 713.12,-552.25 713.12,-546.25 719.12,-540.25 725.12,-540.25"/>
<text text-anchor="middle" x="739.5" y="-570.45" font-family="Times New Roman,serif" font-size="14.00">KB&#45;16</text>
<polyline fill="none" stroke="lightslategrey" points="765.88,-564 765.88,-587.75"/>
<text text-anchor="middle" x="820" y="-570.45" font-family="Times New Roman,serif" font-size="14.00">Start Stop Clean</text>
<polyline fill="none" stroke="lightslategrey" points="713.12,-564 874.12,-564"/>
<text text-anchor="middle" x="793.62" y="-546.7" font-family="Times New Roman,serif" font-size="14.00">START &amp; END CLEAN</text>
</a>
</g>
</g>
<!-- mov_clean&#45;&gt;mov_startstopclean -->
<g id="edge4" class="edge">
<title>mov_clean&#45;&gt;mov_startstopclean</title>
<path fill="none" stroke="black" d="M921.23,-626.08C901.02,-616.4 875.38,-604.13 852.4,-593.13"/>
<polygon fill="black" stroke="black" points="853.95,-590 843.42,-588.84 850.93,-596.31 853.95,-590"/>
</g>
<!-- mov_cap -->
<g id="node7" class="node">
<title>mov_cap</title>
<g id="a_node7"><a xlink:href="https://www.youtube.com/watch?v=SSxB3m5qRas&amp;list=PLk4oYPJ7TXKhX8YqA2AVrfgs_pEF6p7KA&amp;index=17" xlink:title="KB&#45;17|Clean &amp; Press">
<path fill="ghostwhite" stroke="lightslategrey" d="M903.75,-546C903.75,-546 1029.5,-546 1029.5,-546 1035.5,-546 1041.5,-552 1041.5,-558 1041.5,-558 1041.5,-570 1041.5,-570 1041.5,-576 1035.5,-582 1029.5,-582 1029.5,-582 903.75,-582 903.75,-582 897.75,-582 891.75,-576 891.75,-570 891.75,-570 891.75,-558 891.75,-558 891.75,-552 897.75,-546 903.75,-546"/>
<text text-anchor="middle" x="918.12" y="-558.58" font-family="Times New Roman,serif" font-size="14.00">KB&#45;17</text>
<polyline fill="none" stroke="lightslategrey" points="944.5,-546 944.5,-582"/>
<text text-anchor="middle" x="993" y="-558.58" font-family="Times New Roman,serif" font-size="14.00">Clean &amp; Press</text>
</a>
</g>
</g>
<!-- mov_clean&#45;&gt;mov_cap -->
<g id="edge5" class="edge">
<title>mov_clean&#45;&gt;mov_cap</title>
<path fill="none" stroke="black" d="M959.62,-626.08C960.72,-616.52 962.1,-604.44 963.35,-593.55"/>
<polygon fill="black" stroke="black" points="966.8,-594.21 964.46,-583.88 959.84,-593.41 966.8,-594.21"/>
</g>
<!-- mov_halfsnatchdown -->
<g id="node12" class="node">
<title>mov_halfsnatchdown</title>
<g id="a_node12"><a xlink:href="https://www.youtube.com/watch?v=u2NbMtX_Rb0&amp;list=PLk4oYPJ7TXKhX8YqA2AVrfgs_pEF6p7KA&amp;index=60" xlink:title="{{59|Half Snatch Down}}">
<path fill="#ffff99" stroke="#b15928" d="M892.5,-453.62C892.5,-453.62 1016.75,-453.62 1016.75,-453.62 1022.75,-453.62 1028.75,-459.62 1028.75,-465.62 1028.75,-465.62 1028.75,-477.62 1028.75,-477.62 1028.75,-483.62 1022.75,-489.62 1016.75,-489.62 1016.75,-489.62 892.5,-489.62 892.5,-489.62 886.5,-489.62 880.5,-483.62 880.5,-477.62 880.5,-477.62 880.5,-465.62 880.5,-465.62 880.5,-459.62 886.5,-453.62 892.5,-453.62"/>
<text text-anchor="middle" x="895.25" y="-466.32" font-family="Times New Roman,serif" font-size="14.00">59</text>
<polyline fill="none" stroke="#b15928" points="910,-453.88 910,-489.62"/>
<text text-anchor="middle" x="969.38" y="-466.32" font-family="Times New Roman,serif" font-size="14.00">Half Snatch Down</text>
</a>
</g>
</g>
<!-- mov_startstopclean&#45;&gt;mov_halfsnatchdown -->
<g id="edge8" class="edge">
<title>mov_startstopclean&#45;&gt;mov_halfsnatchdown</title>
<path fill="none" stroke="black" d="M839.67,-539.79C850.24,-534.29 861.38,-528.36 871.62,-522.62 886.78,-514.15 903.2,-504.39 917.4,-495.75"/>
<polygon fill="black" stroke="black" points="918.85,-498.97 925.55,-490.76 915.19,-492.99 918.85,-498.97"/>
</g>
<!-- mov_dblclean -->
<g id="node15" class="node">
<title>mov_dblclean</title>
<g id="a_node15"><a xlink:href="https://www.youtube.com/watch?v=Qe9ejhAtdGY&amp;list=PLk4oYPJ7TXKhX8YqA2AVrfgs_pEF6p7KA&amp;index=62" xlink:title="{{62|Double Clean}}">
<path fill="#ffff99" stroke="#b15928" d="M562,-453.62C562,-453.62 659.25,-453.62 659.25,-453.62 665.25,-453.62 671.25,-459.62 671.25,-465.62 671.25,-465.62 671.25,-477.62 671.25,-477.62 671.25,-483.62 665.25,-489.62 659.25,-489.62 659.25,-489.62 562,-489.62 562,-489.62 556,-489.62 550,-483.62 550,-477.62 550,-477.62 550,-465.62 550,-465.62 550,-459.62 556,-453.62 562,-453.62"/>
<text text-anchor="middle" x="564.75" y="-466.32" font-family="Times New Roman,serif" font-size="14.00">62</text>
<polyline fill="none" stroke="#b15928" points="579.5,-453.88 579.5,-489.62"/>
<text text-anchor="middle" x="625.38" y="-466.32" font-family="Times New Roman,serif" font-size="14.00">Double Clean</text>
</a>
</g>
</g>
<!-- mov_startstopclean&#45;&gt;mov_dblclean -->
<g id="edge7" class="edge">
<title>mov_startstopclean&#45;&gt;mov_dblclean</title>
<path fill="none" stroke="black" d="M740.51,-539.93C728.31,-534.42 715.46,-528.45 703.62,-522.62 686.33,-514.11 667.55,-504.15 651.42,-495.37"/>
<polygon fill="black" stroke="black" points="653.54,-492.54 643.09,-490.81 650.18,-498.68 653.54,-492.54"/>
</g>
<!-- mov_startstopcap -->
<g id="node8" class="node">
<title>mov_startstopcap</title>
<g id="a_node8"><a xlink:href="https://www.youtube.com/watch?v=dSj3kqbuois&amp;list=PLk4oYPJ7TXKhX8YqA2AVrfgs_pEF6p7KA&amp;index=19" xlink:title="{{KB&#45;19|Start Stop\nClean &amp; Press}|START &amp; END C&amp;P}">
<path fill="ghostwhite" stroke="lightslategrey" d="M724.75,-440C724.75,-440 850.5,-440 850.5,-440 856.5,-440 862.5,-446 862.5,-452 862.5,-452 862.5,-491.25 862.5,-491.25 862.5,-497.25 856.5,-503.25 850.5,-503.25 850.5,-503.25 724.75,-503.25 724.75,-503.25 718.75,-503.25 712.75,-497.25 712.75,-491.25 712.75,-491.25 712.75,-452 712.75,-452 712.75,-446 718.75,-440 724.75,-440"/>
<text text-anchor="middle" x="739.12" y="-478.07" font-family="Times New Roman,serif" font-size="14.00">KB&#45;19</text>
<polyline fill="none" stroke="lightslategrey" points="765.5,-463.75 765.5,-503.25"/>
<text text-anchor="middle" x="814" y="-485.95" font-family="Times New Roman,serif" font-size="14.00">Start Stop</text>
<text text-anchor="middle" x="814" y="-470.2" font-family="Times New Roman,serif" font-size="14.00">Clean &amp; Press</text>
<polyline fill="none" stroke="lightslategrey" points="712.75,-463.75 862.5,-463.75"/>
<text text-anchor="middle" x="787.62" y="-446.45" font-family="Times New Roman,serif" font-size="14.00">START &amp; END C&amp;P</text>
</a>
</g>
</g>
<!-- mov_cap&#45;&gt;mov_startstopcap -->
<g id="edge6" class="edge">
<title>mov_cap&#45;&gt;mov_startstopcap</title>
<path fill="none" stroke="black" d="M919.05,-545.51C902.5,-538.93 883.98,-531 867.62,-522.62 859.83,-518.64 851.81,-514.14 843.99,-509.51"/>
<polygon fill="black" stroke="black" points="845.89,-506.57 835.52,-504.39 842.27,-512.56 845.89,-506.57"/>
</g>
<!-- mov_dblcap -->
<g id="node18" class="node">
<title>mov_dblcap</title>
<g id="a_node18"><a xlink:href="https://www.youtube.com/watch?v=RizGV8ef--s" xlink:title="{{65|Double\nClean &amp; Press}}">
<path fill="#ffff99" stroke="#b15928" d="M582.38,-345.75C582.38,-345.75 684.88,-345.75 684.88,-345.75 690.88,-345.75 696.88,-351.75 696.88,-357.75 696.88,-357.75 696.88,-373.25 696.88,-373.25 696.88,-379.25 690.88,-385.25 684.88,-385.25 684.88,-385.25 582.38,-385.25 582.38,-385.25 576.38,-385.25 570.38,-379.25 570.38,-373.25 570.38,-373.25 570.38,-357.75 570.38,-357.75 570.38,-351.75 576.38,-345.75 582.38,-345.75"/>
<text text-anchor="middle" x="585.12" y="-360.07" font-family="Times New Roman,serif" font-size="14.00">65</text>
<polyline fill="none" stroke="#b15928" points="599.88,-345.75 599.88,-385.25"/>
<text text-anchor="middle" x="648.38" y="-367.95" font-family="Times New Roman,serif" font-size="14.00">Double</text>
<text text-anchor="middle" x="648.38" y="-352.2" font-family="Times New Roman,serif" font-size="14.00">Clean &amp; Press</text>
</a>
</g>
</g>
<!-- mov_startstopcap&#45;&gt;mov_dblcap -->
<g id="edge9" class="edge">
<title>mov_startstopcap&#45;&gt;mov_dblcap</title>
<path fill="none" stroke="black" d="M741.84,-439.67C719.39,-424.49 692.67,-406.42 671.41,-392.05"/>
<polygon fill="black" stroke="black" points="673.55,-389.27 663.31,-386.57 669.63,-395.07 673.55,-389.27"/>
</g>
<!-- mov_dblsuitcase -->
<g id="node10" class="node">
<title>mov_dblsuitcase</title>
<g id="a_node10"><a xlink:href="https://www.youtube.com/watch?v=4PSOSrDcGfc&amp;list=PLk4oYPJ7TXKhX8YqA2AVrfgs_pEF6p7KA&amp;index=59" xlink:title="{{57|Double Suitcase}}">
<path fill="#ffff99" stroke="#b15928" d="M562.5,-701.25C562.5,-701.25 674.75,-701.25 674.75,-701.25 680.75,-701.25 686.75,-707.25 686.75,-713.25 686.75,-713.25 686.75,-725.25 686.75,-725.25 686.75,-731.25 680.75,-737.25 674.75,-737.25 674.75,-737.25 562.5,-737.25 562.5,-737.25 556.5,-737.25 550.5,-731.25 550.5,-725.25 550.5,-725.25 550.5,-713.25 550.5,-713.25 550.5,-707.25 556.5,-701.25 562.5,-701.25"/>
<text text-anchor="middle" x="565.25" y="-713.95" font-family="Times New Roman,serif" font-size="14.00">57</text>
<polyline fill="none" stroke="#b15928" points="580,-701.5 580,-737.25"/>
<text text-anchor="middle" x="633.38" y="-713.95" font-family="Times New Roman,serif" font-size="14.00">Double Suitcase</text>
</a>
</g>
</g>
<!-- mov_suitcasedl&#45;&gt;mov_dblsuitcase -->
<g id="edge11" class="edge">
<title>mov_suitcasedl&#45;&gt;mov_dblsuitcase</title>
<path fill="none" stroke="black" d="M704.93,-778.43C689.71,-768.17 670.21,-755.02 653.59,-743.82"/>
<polygon fill="black" stroke="black" points="655.7,-741.02 645.46,-738.34 651.79,-746.83 655.7,-741.02"/>
</g>
<!-- mov_2hsbldl -->
<g id="node25" class="node">
<title>mov_2hsbldl</title>
<g id="a_node25"><a xlink:href="https://www.youtube.com/watch?v=-RD1qqe7P8M" xlink:title="{{73|Two Hand Single Bent Leg Deadlift}}">
<path fill="#ffff99" stroke="#b15928" d="M724.5,-701.25C724.5,-701.25 944.75,-701.25 944.75,-701.25 950.75,-701.25 956.75,-707.25 956.75,-713.25 956.75,-713.25 956.75,-725.25 956.75,-725.25 956.75,-731.25 950.75,-737.25 944.75,-737.25 944.75,-737.25 724.5,-737.25 724.5,-737.25 718.5,-737.25 712.5,-731.25 712.5,-725.25 712.5,-725.25 712.5,-713.25 712.5,-713.25 712.5,-707.25 718.5,-701.25 724.5,-701.25"/>
<text text-anchor="middle" x="727.25" y="-713.95" font-family="Times New Roman,serif" font-size="14.00">73</text>
<polyline fill="none" stroke="#b15928" points="742,-701.5 742,-737.25"/>
<text text-anchor="middle" x="849.38" y="-713.95" font-family="Times New Roman,serif" font-size="14.00">Two Hand Single Bent Leg Deadlift</text>
</a>
</g>
</g>
<!-- mov_suitcasedl&#45;&gt;mov_2hsbldl -->
<g id="edge12" class="edge">
<title>mov_suitcasedl&#45;&gt;mov_2hsbldl</title>
<path fill="none" stroke="black" d="M754.48,-778.43C768.49,-768.26 786.39,-755.27 801.72,-744.14"/>
<polygon fill="black" stroke="black" points="803.62,-747.09 809.65,-738.38 799.5,-741.42 803.62,-747.09"/>
</g>
<!-- mov_dblsumodl -->
<g id="node11" class="node">
<title>mov_dblsumodl</title>
<g id="a_node11"><a xlink:href="https://www.youtube.com/watch?v=gdutIla6nMw" xlink:title="{{58|Double Sumo Deadlift}}">
<path fill="#ffff99" stroke="#b15928" d="M537.62,-626.5C537.62,-626.5 683.62,-626.5 683.62,-626.5 689.62,-626.5 695.62,-632.5 695.62,-638.5 695.62,-638.5 695.62,-650.5 695.62,-650.5 695.62,-656.5 689.62,-662.5 683.62,-662.5 683.62,-662.5 537.62,-662.5 537.62,-662.5 531.62,-662.5 525.62,-656.5 525.62,-650.5 525.62,-650.5 525.62,-638.5 525.62,-638.5 525.62,-632.5 531.62,-626.5 537.62,-626.5"/>
<text text-anchor="middle" x="540.38" y="-639.2" font-family="Times New Roman,serif" font-size="14.00">58</text>
<polyline fill="none" stroke="#b15928" points="555.12,-626.75 555.12,-662.5"/>
<text text-anchor="middle" x="625.38" y="-639.2" font-family="Times New Roman,serif" font-size="14.00">Double Sumo Deadlift</text>
</a>
</g>
</g>
<!-- mov_dblsuitcase&#45;&gt;mov_dblsumodl -->
<g id="edge14" class="edge">
<title>mov_dblsuitcase&#45;&gt;mov_dblsumodl</title>
<path fill="none" stroke="black" d="M616.73,-701.01C615.85,-693 614.78,-683.27 613.78,-674.2"/>
<polygon fill="black" stroke="black" points="617.27,-673.93 612.7,-664.37 610.31,-674.7 617.27,-673.93"/>
</g>
<!-- mov_dblsumodl&#45;&gt;mov_dblswing -->
<g id="edge20" class="edge">
<title>mov_dblsumodl&#45;&gt;mov_dblswing</title>
<path fill="none" stroke="black" d="M610.62,-626.08C610.62,-616.52 610.62,-604.44 610.62,-593.55"/>
<polygon fill="black" stroke="black" points="614.13,-593.89 610.63,-583.89 607.13,-593.89 614.13,-593.89"/>
</g>
<!-- mov_halfsnatchup -->
<g id="node14" class="node">
<title>mov_halfsnatchup</title>
<g id="a_node14"><a xlink:href="https://www.youtube.com/watch?v=3HEmUyLYjjc" xlink:title="{{61|Half Snatch Up}}">
<path fill="#ffff99" stroke="#b15928" d="M900.75,-347.5C900.75,-347.5 1008.5,-347.5 1008.5,-347.5 1014.5,-347.5 1020.5,-353.5 1020.5,-359.5 1020.5,-359.5 1020.5,-371.5 1020.5,-371.5 1020.5,-377.5 1014.5,-383.5 1008.5,-383.5 1008.5,-383.5 900.75,-383.5 900.75,-383.5 894.75,-383.5 888.75,-377.5 888.75,-371.5 888.75,-371.5 888.75,-359.5 888.75,-359.5 888.75,-353.5 894.75,-347.5 900.75,-347.5"/>
<text text-anchor="middle" x="903.5" y="-360.2" font-family="Times New Roman,serif" font-size="14.00">61</text>
<polyline fill="none" stroke="#b15928" points="918.25,-347.75 918.25,-383.5"/>
<text text-anchor="middle" x="969.38" y="-360.2" font-family="Times New Roman,serif" font-size="14.00">Half Snatch Up</text>
</a>
</g>
</g>
<!-- mov_halfsnatchdown&#45;&gt;mov_halfsnatchup -->
<g id="edge22" class="edge">
<title>mov_halfsnatchdown&#45;&gt;mov_halfsnatchup</title>
<path fill="none" stroke="black" d="M954.62,-453.43C954.62,-437.6 954.62,-413.82 954.62,-395.13"/>
<polygon fill="black" stroke="black" points="958.13,-395.23 954.63,-385.23 951.13,-395.23 958.13,-395.23"/>
</g>
<!-- mov_dblswing&#45;&gt;mov_dblclean -->
<g id="edge15" class="edge">
<title>mov_dblswing&#45;&gt;mov_dblclean</title>
<path fill="none" stroke="black" d="M610.62,-545.57C610.62,-533.07 610.62,-515.94 610.62,-501.42"/>
<polygon fill="black" stroke="black" points="614.13,-501.51 610.63,-491.51 607.13,-501.51 614.13,-501.51"/>
</g>
<!-- mov_dbloutswing -->
<g id="node16" class="node">
<title>mov_dbloutswing</title>
<g id="a_node16"><a xlink:href="https://www.youtube.com/watch?v=yr_fRgGevsE" xlink:title="{{64|Double\nOutside Swing}}">
<path fill="#ffff99" stroke="#b15928" d="M292,-451.88C292,-451.88 395.25,-451.88 395.25,-451.88 401.25,-451.88 407.25,-457.88 407.25,-463.88 407.25,-463.88 407.25,-479.38 407.25,-479.38 407.25,-485.38 401.25,-491.38 395.25,-491.38 395.25,-491.38 292,-491.38 292,-491.38 286,-491.38 280,-485.38 280,-479.38 280,-479.38 280,-463.88 280,-463.88 280,-457.88 286,-451.88 292,-451.88"/>
<text text-anchor="middle" x="294.75" y="-466.2" font-family="Times New Roman,serif" font-size="14.00">64</text>
<polyline fill="none" stroke="#b15928" points="309.5,-451.88 309.5,-491.38"/>
<text text-anchor="middle" x="358.38" y="-474.07" font-family="Times New Roman,serif" font-size="14.00">Double</text>
<text text-anchor="middle" x="358.38" y="-458.32" font-family="Times New Roman,serif" font-size="14.00">Outside Swing</text>
</a>
</g>
</g>
<!-- mov_dblswing&#45;&gt;mov_dbloutswing -->
<g id="edge21" class="edge">
<title>mov_dblswing&#45;&gt;mov_dbloutswing</title>
<path fill="none" stroke="black" d="M559.14,-545.57C517.06,-531.33 457.21,-511.07 411.26,-495.52"/>
<polygon fill="black" stroke="black" points="412.52,-492.25 401.93,-492.36 410.28,-498.88 412.52,-492.25"/>
</g>
<!-- mov_snatch -->
<g id="node19" class="node">
<title>mov_snatch</title>
<g id="a_node19"><a xlink:href="https://www.youtube.com/watch?v=f-zkPiAlpQw&amp;list=PLk4oYPJ7TXKhX8YqA2AVrfgs_pEF6p7KA&amp;index=65" xlink:title="{{66|Full Snatch}}">
<path fill="#ffff99" stroke="#b15928" d="M912.38,-253.25C912.38,-253.25 996.88,-253.25 996.88,-253.25 1002.88,-253.25 1008.88,-259.25 1008.88,-265.25 1008.88,-265.25 1008.88,-277.25 1008.88,-277.25 1008.88,-283.25 1002.88,-289.25 996.88,-289.25 996.88,-289.25 912.38,-289.25 912.38,-289.25 906.38,-289.25 900.38,-283.25 900.38,-277.25 900.38,-277.25 900.38,-265.25 900.38,-265.25 900.38,-259.25 906.38,-253.25 912.38,-253.25"/>
<text text-anchor="middle" x="915.12" y="-265.95" font-family="Times New Roman,serif" font-size="14.00">66</text>
<polyline fill="none" stroke="#b15928" points="929.88,-253.5 929.88,-289.25"/>
<text text-anchor="middle" x="969.38" y="-265.95" font-family="Times New Roman,serif" font-size="14.00">Full Snatch</text>
</a>
</g>
</g>
<!-- mov_halfsnatchup&#45;&gt;mov_snatch -->
<g id="edge23" class="edge">
<title>mov_halfsnatchup&#45;&gt;mov_snatch</title>
<path fill="none" stroke="black" d="M954.62,-347.15C954.62,-334.13 954.62,-316.03 954.62,-300.88"/>
<polygon fill="black" stroke="black" points="958.13,-301.04 954.63,-291.04 951.13,-301.04 958.13,-301.04"/>
</g>
<!-- mov_dblclean&#45;&gt;mov_dblcap -->
<g id="edge16" class="edge">
<title>mov_dblclean&#45;&gt;mov_dblcap</title>
<path fill="none" stroke="black" d="M614.42,-453.43C617.83,-438.01 622.91,-415.02 626.98,-396.56"/>
<polygon fill="black" stroke="black" points="630.37,-397.48 629.11,-386.96 623.53,-395.97 630.37,-397.48"/>
</g>
<!-- mov_dblsquat -->
<g id="node20" class="node">
<title>mov_dblsquat</title>
<g id="a_node20"><a xlink:href="https://www.youtube.com/watch?v=dX5yXJa5Dm0&amp;list=PLk4oYPJ7TXKhX8YqA2AVrfgs_pEF6p7KA&amp;index=66" xlink:title="{{67|Double\nFront Squat}}">
<path fill="#ffff99" stroke="#b15928" d="M452.5,-345.75C452.5,-345.75 540.75,-345.75 540.75,-345.75 546.75,-345.75 552.75,-351.75 552.75,-357.75 552.75,-357.75 552.75,-373.25 552.75,-373.25 552.75,-379.25 546.75,-385.25 540.75,-385.25 540.75,-385.25 452.5,-385.25 452.5,-385.25 446.5,-385.25 440.5,-379.25 440.5,-373.25 440.5,-373.25 440.5,-357.75 440.5,-357.75 440.5,-351.75 446.5,-345.75 452.5,-345.75"/>
<text text-anchor="middle" x="455.25" y="-360.07" font-family="Times New Roman,serif" font-size="14.00">67</text>
<polyline fill="none" stroke="#b15928" points="470,-345.75 470,-385.25"/>
<text text-anchor="middle" x="511.38" y="-367.95" font-family="Times New Roman,serif" font-size="14.00">Double</text>
<text text-anchor="middle" x="511.38" y="-352.2" font-family="Times New Roman,serif" font-size="14.00">Front Squat</text>
</a>
</g>
</g>
<!-- mov_dblclean&#45;&gt;mov_dblsquat -->
<g id="edge17" class="edge">
<title>mov_dblclean&#45;&gt;mov_dblsquat</title>
<path fill="none" stroke="black" d="M591.54,-453.2C573.57,-436.78 546.4,-411.97 525.73,-393.08"/>
<polygon fill="black" stroke="black" points="528.17,-390.58 518.43,-386.42 523.45,-395.74 528.17,-390.58"/>
</g>
<!-- mov_deaddblclean -->
<g id="node24" class="node">
<title>mov_deaddblclean</title>
<g id="a_node24"><a xlink:href="https://www.youtube.com/watch?v=22bKQqMqAQY" xlink:title="{{71|Dead Stop\nDouble Clean}}">
<path fill="#ffff99" stroke="#b15928" d="M313,-345.75C313,-345.75 410.25,-345.75 410.25,-345.75 416.25,-345.75 422.25,-351.75 422.25,-357.75 422.25,-357.75 422.25,-373.25 422.25,-373.25 422.25,-379.25 416.25,-385.25 410.25,-385.25 410.25,-385.25 313,-385.25 313,-385.25 307,-385.25 301,-379.25 301,-373.25 301,-373.25 301,-357.75 301,-357.75 301,-351.75 307,-345.75 313,-345.75"/>
<text text-anchor="middle" x="315.75" y="-360.07" font-family="Times New Roman,serif" font-size="14.00">71</text>
<polyline fill="none" stroke="#b15928" points="330.5,-345.75 330.5,-385.25"/>
<text text-anchor="middle" x="376.38" y="-367.95" font-family="Times New Roman,serif" font-size="14.00">Dead Stop</text>
<text text-anchor="middle" x="376.38" y="-352.2" font-family="Times New Roman,serif" font-size="14.00">Double Clean</text>
</a>
</g>
</g>
<!-- mov_dblclean&#45;&gt;mov_deaddblclean -->
<g id="edge19" class="edge">
<title>mov_dblclean&#45;&gt;mov_deaddblclean</title>
<path fill="none" stroke="black" d="M559,-453.23C522.86,-440.58 473.7,-422.42 431.62,-403.5 423.16,-399.69 414.29,-395.32 405.81,-390.94"/>
<polygon fill="black" stroke="black" points="407.55,-387.9 397.07,-386.35 404.29,-394.1 407.55,-387.9"/>
</g>
<!-- mov_dbloutswing&#45;&gt;mov_dblrockit -->
<g id="edge13" class="edge">
<title>mov_dbloutswing&#45;&gt;mov_dblrockit</title>
<path fill="none" stroke="black" d="M320.33,-451.53C299.56,-434.5 269.04,-409.48 246.49,-390.98"/>
<polygon fill="black" stroke="black" points="248.79,-388.34 238.83,-384.71 244.35,-393.76 248.79,-388.34"/>
</g>
<!-- mov_snatchpress -->
<g id="node22" class="node">
<title>mov_snatchpress</title>
<g id="a_node22"><a xlink:href="https://www.youtube.com/watch?v=IzFPa_Q1yHM&amp;list=PLk4oYPJ7TXKhX8YqA2AVrfgs_pEF6p7KA&amp;index=67" xlink:title="{{69|Snatch Press}}">
<path fill="#ffff99" stroke="#b15928" d="M891.5,-178.5C891.5,-178.5 985.75,-178.5 985.75,-178.5 991.75,-178.5 997.75,-184.5 997.75,-190.5 997.75,-190.5 997.75,-202.5 997.75,-202.5 997.75,-208.5 991.75,-214.5 985.75,-214.5 985.75,-214.5 891.5,-214.5 891.5,-214.5 885.5,-214.5 879.5,-208.5 879.5,-202.5 879.5,-202.5 879.5,-190.5 879.5,-190.5 879.5,-184.5 885.5,-178.5 891.5,-178.5"/>
<text text-anchor="middle" x="894.25" y="-191.2" font-family="Times New Roman,serif" font-size="14.00">69</text>
<polyline fill="none" stroke="#b15928" points="909,-178.75 909,-214.5"/>
<text text-anchor="middle" x="953.38" y="-191.2" font-family="Times New Roman,serif" font-size="14.00">Snatch Press</text>
</a>
</g>
</g>
<!-- mov_snatch&#45;&gt;mov_snatchpress -->
<g id="edge24" class="edge">
<title>mov_snatch&#45;&gt;mov_snatchpress</title>
<path fill="none" stroke="black" d="M950.83,-253.01C949.05,-244.91 946.88,-235.05 944.87,-225.9"/>
<polygon fill="black" stroke="black" points="948.34,-225.36 942.77,-216.35 941.5,-226.87 948.34,-225.36"/>
</g>
<!-- mov_kneelsnatchup -->
<g id="node23" class="node">
<title>mov_kneelsnatchup</title>
<g id="a_node23"><a xlink:href="https://www.youtube.com/watch?v=1_UrK5SopL4" xlink:title="{{70|Half&#45;Kneeling Snatch Up}}">
<path fill="#ffff99" stroke="#b15928" d="M1027.5,-178.5C1027.5,-178.5 1187.75,-178.5 1187.75,-178.5 1193.75,-178.5 1199.75,-184.5 1199.75,-190.5 1199.75,-190.5 1199.75,-202.5 1199.75,-202.5 1199.75,-208.5 1193.75,-214.5 1187.75,-214.5 1187.75,-214.5 1027.5,-214.5 1027.5,-214.5 1021.5,-214.5 1015.5,-208.5 1015.5,-202.5 1015.5,-202.5 1015.5,-190.5 1015.5,-190.5 1015.5,-184.5 1021.5,-178.5 1027.5,-178.5"/>
<text text-anchor="middle" x="1030.25" y="-191.2" font-family="Times New Roman,serif" font-size="14.00">70</text>
<polyline fill="none" stroke="#b15928" points="1045,-178.75 1045,-214.5"/>
<text text-anchor="middle" x="1122.38" y="-191.2" font-family="Times New Roman,serif" font-size="14.00">Half&#45;Kneeling Snatch Up</text>
</a>
</g>
</g>
<!-- mov_snatch&#45;&gt;mov_kneelsnatchup -->
<g id="edge25" class="edge">
<title>mov_snatch&#45;&gt;mov_kneelsnatchup</title>
<path fill="none" stroke="black" d="M991.27,-252.82C1012.11,-242.92 1038.41,-230.41 1060.74,-219.79"/>
<polygon fill="black" stroke="black" points="1062.12,-223.01 1069.64,-215.56 1059.11,-216.69 1062.12,-223.01"/>
</g>
<!-- mov_dblclean2squat -->
<g id="node21" class="node">
<title>mov_dblclean2squat</title>
<g id="a_node21"><a xlink:href="https://www.youtube.com/watch?v=R3s6Wb_ApHM" xlink:title="{{68|Double Clean\nto Front Squat}}">
<path fill="#ffff99" stroke="#b15928" d="M445,-251.5C445,-251.5 548.25,-251.5 548.25,-251.5 554.25,-251.5 560.25,-257.5 560.25,-263.5 560.25,-263.5 560.25,-279 560.25,-279 560.25,-285 554.25,-291 548.25,-291 548.25,-291 445,-291 445,-291 439,-291 433,-285 433,-279 433,-279 433,-263.5 433,-263.5 433,-257.5 439,-251.5 445,-251.5"/>
<text text-anchor="middle" x="447.75" y="-265.82" font-family="Times New Roman,serif" font-size="14.00">68</text>
<polyline fill="none" stroke="#b15928" points="462.5,-251.5 462.5,-291"/>
<text text-anchor="middle" x="511.38" y="-273.7" font-family="Times New Roman,serif" font-size="14.00">Double Clean</text>
<text text-anchor="middle" x="511.38" y="-257.95" font-family="Times New Roman,serif" font-size="14.00">to Front Squat</text>
</a>
</g>
</g>
<!-- mov_dblsquat&#45;&gt;mov_dblclean2squat -->
<g id="edge18" class="edge">
<title>mov_dblsquat&#45;&gt;mov_dblclean2squat</title>
<path fill="none" stroke="black" d="M496.62,-345.39C496.62,-333.02 496.62,-316.65 496.62,-302.53"/>
<polygon fill="black" stroke="black" points="500.13,-302.85 496.63,-292.85 493.13,-302.85 500.13,-302.85"/>
</g>
<!-- Legend -->
<g id="node26" class="node">
<title>Legend</title>
<path fill="#ffff99" stroke="none" d="M1397.12,-403.5C1397.12,-403.5 1228.12,-403.5 1228.12,-403.5 1222.12,-403.5 1216.12,-397.5 1216.12,-391.5 1216.12,-391.5 1216.12,-339.5 1216.12,-339.5 1216.12,-333.5 1222.12,-327.5 1228.12,-327.5 1228.12,-327.5 1397.12,-327.5 1397.12,-327.5 1403.12,-327.5 1409.12,-333.5 1409.12,-339.5 1409.12,-339.5 1409.12,-391.5 1409.12,-391.5 1409.12,-397.5 1403.12,-403.5 1397.12,-403.5"/>
<polygon fill="none" stroke="#b15928" points="1216.12,-377.5 1216.12,-403.5 1409.12,-403.5 1409.12,-377.5 1216.12,-377.5"/>
<text text-anchor="start" x="1290.12" y="-386.2" font-family="Times New Roman,serif" font-weight="bold" font-size="14.00">Legend</text>
<polygon fill="none" stroke="#b15928" points="1216.12,-352.5 1216.12,-377.5 1381.12,-377.5 1381.12,-352.5 1216.12,-352.5"/>
<text text-anchor="start" x="1221" y="-359.2" font-family="Times New Roman,serif" font-size="14.00">Prerequisites and next steps</text>
<polygon fill="ghostwhite" stroke="none" points="1381.12,-352.5 1381.12,-377.5 1409.12,-377.5 1409.12,-352.5 1381.12,-352.5"/>
<polygon fill="none" stroke="#b15928" points="1381.12,-352.5 1381.12,-377.5 1409.12,-377.5 1409.12,-352.5 1381.12,-352.5"/>
<text text-anchor="start" x="1385.75" y="-359.2" font-family="Times New Roman,serif" font-size="14.00">     </text>
<polygon fill="none" stroke="#b15928" points="1216.12,-327.5 1216.12,-352.5 1381.12,-352.5 1381.12,-327.5 1216.12,-327.5"/>
<text text-anchor="start" x="1284" y="-334.2" font-family="Times New Roman,serif" font-size="14.00">Drills</text>
<polygon fill="#ffff99" stroke="none" points="1381.12,-327.5 1381.12,-352.5 1409.12,-352.5 1409.12,-327.5 1381.12,-327.5"/>
<polygon fill="none" stroke="#b15928" points="1381.12,-327.5 1381.12,-352.5 1409.12,-352.5 1409.12,-327.5 1381.12,-327.5"/>
</g>
</g>
</svg>
