<?xml version="1.0" encoding="UTF-8" standalone="no"?>
<!DOCTYPE svg PUBLIC "-//W3C//DTD SVG 1.1//EN"
 "http://www.w3.org/Graphics/SVG/1.1/DTD/svg11.dtd">
<!-- Generated by graphviz version 8.1.0 (20230707.0739)
 -->
<!-- Title: kb_progression Pages: 1 -->
<svg width="721pt" height="645pt"
 viewBox="0.00 0.00 721.12 644.75" xmlns="http://www.w3.org/2000/svg" xmlns:xlink="http://www.w3.org/1999/xlink">
<g id="graph0" class="graph" transform="scale(1 1) rotate(0) translate(4 640.75)">
<title>kb_progression</title>
<polygon fill="white" stroke="none" points="-4,4 -4,-640.75 717.12,-640.75 717.12,4 -4,4"/>
<text text-anchor="middle" x="356.56" y="-6.45" font-family="Times New Roman,serif" font-size="14.00">Kettlebell Turkish Get&#45;Up Progression</text>
<!-- mov_racksquat -->
<g id="node1" class="node">
<title>mov_racksquat</title>
<g id="a_node1"><a xlink:href="https://www.youtube.com/watch?v=KTDVl0Lkdc4&amp;list=PLk4oYPJ7TXKhX8YqA2AVrfgs_pEF6p7KA&amp;index=23" xlink:title="{{KB&#45;23|Single&#45;Bell Front Squat}}">
<path fill="#b2df8a" stroke="#33a02c" d="M12,-600.25C12,-600.25 186.5,-600.25 186.5,-600.25 192.5,-600.25 198.5,-606.25 198.5,-612.25 198.5,-612.25 198.5,-624.25 198.5,-624.25 198.5,-630.25 192.5,-636.25 186.5,-636.25 186.5,-636.25 12,-636.25 12,-636.25 6,-636.25 0,-630.25 0,-624.25 0,-624.25 0,-612.25 0,-612.25 0,-606.25 6,-600.25 12,-600.25"/>
<text text-anchor="middle" x="26.38" y="-612.95" font-family="Times New Roman,serif" font-size="14.00">KB&#45;23</text>
<polyline fill="none" stroke="#33a02c" points="52.75,-600.5 52.75,-636.25"/>
<text text-anchor="middle" x="125.62" y="-612.95" font-family="Times New Roman,serif" font-size="14.00">Single&#45;Bell Front Squat</text>
</a>
</g>
</g>
<!-- mov_racklunge -->
<g id="node6" class="node">
<title>mov_racklunge</title>
<g id="a_node6"><a xlink:href="https://www.youtube.com/watch?v=KTDVl0Lkdc4&amp;list=PLk4oYPJ7TXKhX8YqA2AVrfgs_pEF6p7KA&amp;index=24" xlink:title="{{24|Rack Opposite Leg\nStep&#45;Back Lunge}|VERTICAL SPINE}">
<path fill="#ffff99" stroke="#b15928" d="M33.75,-500C33.75,-500 164.75,-500 164.75,-500 170.75,-500 176.75,-506 176.75,-512 176.75,-512 176.75,-551.25 176.75,-551.25 176.75,-557.25 170.75,-563.25 164.75,-563.25 164.75,-563.25 33.75,-563.25 33.75,-563.25 27.75,-563.25 21.75,-557.25 21.75,-551.25 21.75,-551.25 21.75,-512 21.75,-512 21.75,-506 27.75,-500 33.75,-500"/>
<text text-anchor="middle" x="36.5" y="-538.08" font-family="Times New Roman,serif" font-size="14.00">24</text>
<polyline fill="none" stroke="#b15928" points="51.25,-523.75 51.25,-563.25"/>
<text text-anchor="middle" x="114" y="-545.95" font-family="Times New Roman,serif" font-size="14.00">Rack Opposite Leg</text>
<text text-anchor="middle" x="114" y="-530.2" font-family="Times New Roman,serif" font-size="14.00">Step&#45;Back Lunge</text>
<polyline fill="none" stroke="#b15928" points="21.75,-523.75 176.75,-523.75"/>
<text text-anchor="middle" x="99.25" y="-506.45" font-family="Times New Roman,serif" font-size="14.00">VERTICAL SPINE</text>
</a>
</g>
</g>
<!-- mov_racksquat&#45;&gt;mov_racklunge -->
<g id="edge4" class="edge">
<title>mov_racksquat&#45;&gt;mov_racklunge</title>
<path fill="none" stroke="black" d="M99.25,-600.53C99.25,-592.84 99.25,-583.35 99.25,-573.93"/>
<polygon fill="black" stroke="black" points="102.75,-574.01 99.25,-564.01 95.75,-574.01 102.75,-574.01"/>
</g>
<!-- mov_cap -->
<g id="node2" class="node">
<title>mov_cap</title>
<g id="a_node2"><a xlink:href="https://www.youtube.com/watch?v=SSxB3m5qRas&amp;list=PLk4oYPJ7TXKhX8YqA2AVrfgs_pEF6p7KA&amp;index=17" xlink:title="KB&#45;17|Clean &amp; Press">
<path fill="#b2df8a" stroke="#33a02c" d="M385.38,-513.62C385.38,-513.62 511.12,-513.62 511.12,-513.62 517.12,-513.62 523.12,-519.62 523.12,-525.62 523.12,-525.62 523.12,-537.62 523.12,-537.62 523.12,-543.62 517.12,-549.62 511.12,-549.62 511.12,-549.62 385.38,-549.62 385.38,-549.62 379.38,-549.62 373.38,-543.62 373.38,-537.62 373.38,-537.62 373.38,-525.62 373.38,-525.62 373.38,-519.62 379.38,-513.62 385.38,-513.62"/>
<text text-anchor="middle" x="399.75" y="-526.2" font-family="Times New Roman,serif" font-size="14.00">KB&#45;17</text>
<polyline fill="none" stroke="#33a02c" points="426.12,-513.62 426.12,-549.62"/>
<text text-anchor="middle" x="474.62" y="-526.2" font-family="Times New Roman,serif" font-size="14.00">Clean &amp; Press</text>
</a>
</g>
</g>
<!-- mov_startstopcap -->
<g id="node3" class="node">
<title>mov_startstopcap</title>
<g id="a_node3"><a xlink:href="https://www.youtube.com/watch?v=dSj3kqbuois&amp;list=PLk4oYPJ7TXKhX8YqA2AVrfgs_pEF6p7KA&amp;index=19" xlink:title="{{KB&#45;19|Start Stop\nClean &amp; Press}|START &amp; END C&amp;P}">
<path fill="#b2df8a" stroke="#33a02c" d="M385.38,-326.75C385.38,-326.75 511.12,-326.75 511.12,-326.75 517.12,-326.75 523.12,-332.75 523.12,-338.75 523.12,-338.75 523.12,-378 523.12,-378 523.12,-384 517.12,-390 511.12,-390 511.12,-390 385.38,-390 385.38,-390 379.38,-390 373.38,-384 373.38,-378 373.38,-378 373.38,-338.75 373.38,-338.75 373.38,-332.75 379.38,-326.75 385.38,-326.75"/>
<text text-anchor="middle" x="399.75" y="-364.82" font-family="Times New Roman,serif" font-size="14.00">KB&#45;19</text>
<polyline fill="none" stroke="#33a02c" points="426.12,-350.5 426.12,-390"/>
<text text-anchor="middle" x="474.62" y="-372.7" font-family="Times New Roman,serif" font-size="14.00">Start Stop</text>
<text text-anchor="middle" x="474.62" y="-356.95" font-family="Times New Roman,serif" font-size="14.00">Clean &amp; Press</text>
<polyline fill="none" stroke="#33a02c" points="373.38,-350.5 523.12,-350.5"/>
<text text-anchor="middle" x="448.25" y="-333.2" font-family="Times New Roman,serif" font-size="14.00">START &amp; END C&amp;P</text>
</a>
</g>
</g>
<!-- mov_cap&#45;&gt;mov_startstopcap -->
<g id="edge3" class="edge">
<title>mov_cap&#45;&gt;mov_startstopcap</title>
<path fill="none" stroke="black" d="M448.25,-513.89C448.25,-487.88 448.25,-436.98 448.25,-400.71"/>
<polygon fill="black" stroke="black" points="451.75,-400.97 448.25,-390.97 444.75,-400.97 451.75,-400.97"/>
</g>
<!-- mov_halfkneelcap -->
<g id="node11" class="node">
<title>mov_halfkneelcap</title>
<g id="a_node11"><a xlink:href="https://www.youtube.com/watch?v=KTDVl0Lkdc4&amp;list=PLk4oYPJ7TXKhX8YqA2AVrfgs_pEF6p7KA&amp;index=29" xlink:title="{{29|Half&#45;Kneeling\nClean &amp; Press}}">
<path fill="#ffff99" stroke="#b15928" d="M360,-250.25C360,-250.25 462.5,-250.25 462.5,-250.25 468.5,-250.25 474.5,-256.25 474.5,-262.25 474.5,-262.25 474.5,-277.75 474.5,-277.75 474.5,-283.75 468.5,-289.75 462.5,-289.75 462.5,-289.75 360,-289.75 360,-289.75 354,-289.75 348,-283.75 348,-277.75 348,-277.75 348,-262.25 348,-262.25 348,-256.25 354,-250.25 360,-250.25"/>
<text text-anchor="middle" x="362.75" y="-264.57" font-family="Times New Roman,serif" font-size="14.00">29</text>
<polyline fill="none" stroke="#b15928" points="377.5,-250.25 377.5,-289.75"/>
<text text-anchor="middle" x="426" y="-272.45" font-family="Times New Roman,serif" font-size="14.00">Half&#45;Kneeling</text>
<text text-anchor="middle" x="426" y="-256.7" font-family="Times New Roman,serif" font-size="14.00">Clean &amp; Press</text>
</a>
</g>
</g>
<!-- mov_startstopcap&#45;&gt;mov_halfkneelcap -->
<g id="edge10" class="edge">
<title>mov_startstopcap&#45;&gt;mov_halfkneelcap</title>
<path fill="none" stroke="black" d="M435.31,-327.17C431.47,-318.21 427.29,-308.44 423.5,-299.6"/>
<polygon fill="black" stroke="black" points="426.43,-298.56 419.28,-290.74 420,-301.31 426.43,-298.56"/>
</g>
<!-- mov_clean -->
<g id="node4" class="node">
<title>mov_clean</title>
<g id="a_node4"><a xlink:href="https://www.youtube.com/watch?v=_nIsSXWs5iU&amp;list=PLk4oYPJ7TXKhX8YqA2AVrfgs_pEF6p7KA&amp;index=12" xlink:title="KB&#45;12|Swing Clean">
<path fill="#b2df8a" stroke="#33a02c" d="M310,-600.25C310,-600.25 424.5,-600.25 424.5,-600.25 430.5,-600.25 436.5,-606.25 436.5,-612.25 436.5,-612.25 436.5,-624.25 436.5,-624.25 436.5,-630.25 430.5,-636.25 424.5,-636.25 424.5,-636.25 310,-636.25 310,-636.25 304,-636.25 298,-630.25 298,-624.25 298,-624.25 298,-612.25 298,-612.25 298,-606.25 304,-600.25 310,-600.25"/>
<text text-anchor="middle" x="324.38" y="-612.83" font-family="Times New Roman,serif" font-size="14.00">KB&#45;12</text>
<polyline fill="none" stroke="#33a02c" points="350.75,-600.25 350.75,-636.25"/>
<text text-anchor="middle" x="393.62" y="-612.83" font-family="Times New Roman,serif" font-size="14.00">Swing Clean</text>
</a>
</g>
</g>
<!-- mov_clean&#45;&gt;mov_cap -->
<g id="edge2" class="edge">
<title>mov_clean&#45;&gt;mov_cap</title>
<path fill="none" stroke="black" d="M383.25,-600.53C395.05,-588.21 411.28,-571.25 424.57,-557.36"/>
<polygon fill="black" stroke="black" points="426.62,-560.24 431,-550.6 421.56,-555.4 426.62,-560.24"/>
</g>
<!-- mov_startstopclean -->
<g id="node5" class="node">
<title>mov_startstopclean</title>
<g id="a_node5"><a xlink:href="https://www.youtube.com/watch?v=XbK3jxI0WNQ&amp;list=PLk4oYPJ7TXKhX8YqA2AVrfgs_pEF6p7KA&amp;index=16" xlink:title="{{KB&#45;16|Start Stop Clean}|START &amp; END CLEAN}">
<path fill="#b2df8a" stroke="#33a02c" d="M206.75,-507.88C206.75,-507.88 343.75,-507.88 343.75,-507.88 349.75,-507.88 355.75,-513.88 355.75,-519.88 355.75,-519.88 355.75,-543.38 355.75,-543.38 355.75,-549.38 349.75,-555.38 343.75,-555.38 343.75,-555.38 206.75,-555.38 206.75,-555.38 200.75,-555.38 194.75,-549.38 194.75,-543.38 194.75,-543.38 194.75,-519.88 194.75,-519.88 194.75,-513.88 200.75,-507.88 206.75,-507.88"/>
<text text-anchor="middle" x="221.12" y="-538.08" font-family="Times New Roman,serif" font-size="14.00">KB&#45;16</text>
<polyline fill="none" stroke="#33a02c" points="247.5,-531.62 247.5,-555.38"/>
<text text-anchor="middle" x="301.62" y="-538.08" font-family="Times New Roman,serif" font-size="14.00">Start Stop Clean</text>
<polyline fill="none" stroke="#33a02c" points="194.75,-531.62 355.75,-531.62"/>
<text text-anchor="middle" x="275.25" y="-514.33" font-family="Times New Roman,serif" font-size="14.00">START &amp; END CLEAN</text>
</a>
</g>
</g>
<!-- mov_clean&#45;&gt;mov_startstopclean -->
<g id="edge1" class="edge">
<title>mov_clean&#45;&gt;mov_startstopclean</title>
<path fill="none" stroke="black" d="M349.07,-600.53C337.25,-589.66 321.51,-575.18 307.6,-562.38"/>
<polygon fill="black" stroke="black" points="310.39,-560.27 300.66,-556.08 305.65,-565.42 310.39,-560.27"/>
</g>
<!-- mov_clean2sblunge -->
<g id="node7" class="node">
<title>mov_clean2sblunge</title>
<g id="a_node7"><a xlink:href="https://www.youtube.com/watch?v=KTDVl0Lkdc4&amp;list=PLk4oYPJ7TXKhX8YqA2AVrfgs_pEF6p7KA&amp;index=25" xlink:title="{{25|Clean Step&#45;Back Clean}}">
<path fill="#ffff99" stroke="#b15928" d="M148,-427C148,-427 298.5,-427 298.5,-427 304.5,-427 310.5,-433 310.5,-439 310.5,-439 310.5,-451 310.5,-451 310.5,-457 304.5,-463 298.5,-463 298.5,-463 148,-463 148,-463 142,-463 136,-457 136,-451 136,-451 136,-439 136,-439 136,-433 142,-427 148,-427"/>
<text text-anchor="middle" x="150.75" y="-439.7" font-family="Times New Roman,serif" font-size="14.00">25</text>
<polyline fill="none" stroke="#b15928" points="165.5,-427.25 165.5,-463"/>
<text text-anchor="middle" x="238" y="-439.7" font-family="Times New Roman,serif" font-size="14.00">Clean Step&#45;Back Clean</text>
</a>
</g>
</g>
<!-- mov_startstopclean&#45;&gt;mov_clean2sblunge -->
<g id="edge6" class="edge">
<title>mov_startstopclean&#45;&gt;mov_clean2sblunge</title>
<path fill="none" stroke="black" d="M261.31,-507.95C254.5,-496.85 246.26,-483.45 239.2,-471.95"/>
<polygon fill="black" stroke="black" points="241.81,-470.52 233.59,-463.83 235.85,-474.18 241.81,-470.52"/>
</g>
<!-- mov_racklunge&#45;&gt;mov_clean2sblunge -->
<g id="edge5" class="edge">
<title>mov_racklunge&#45;&gt;mov_clean2sblunge</title>
<path fill="none" stroke="black" d="M144.02,-500.07C159.04,-489.82 175.53,-478.57 189.56,-468.99"/>
<polygon fill="black" stroke="black" points="191.09,-471.5 197.38,-462.97 187.15,-465.72 191.09,-471.5"/>
</g>
<!-- mov_halfkneelclean -->
<g id="node8" class="node">
<title>mov_halfkneelclean</title>
<g id="a_node8"><a xlink:href="https://www.youtube.com/watch?v=KTDVl0Lkdc4&amp;list=PLk4oYPJ7TXKhX8YqA2AVrfgs_pEF6p7KA&amp;index=26" xlink:title="{{26|Half&#45;Kneeling Clean}}">
<path fill="#ffff99" stroke="#b15928" d="M211,-340.38C211,-340.38 343.5,-340.38 343.5,-340.38 349.5,-340.38 355.5,-346.38 355.5,-352.38 355.5,-352.38 355.5,-364.38 355.5,-364.38 355.5,-370.38 349.5,-376.38 343.5,-376.38 343.5,-376.38 211,-376.38 211,-376.38 205,-376.38 199,-370.38 199,-364.38 199,-364.38 199,-352.38 199,-352.38 199,-346.38 205,-340.38 211,-340.38"/>
<text text-anchor="middle" x="213.75" y="-353.07" font-family="Times New Roman,serif" font-size="14.00">26</text>
<polyline fill="none" stroke="#b15928" points="228.5,-340.62 228.5,-376.38"/>
<text text-anchor="middle" x="292" y="-353.07" font-family="Times New Roman,serif" font-size="14.00">Half&#45;Kneeling Clean</text>
</a>
</g>
</g>
<!-- mov_clean2sblunge&#45;&gt;mov_halfkneelclean -->
<g id="edge7" class="edge">
<title>mov_clean2sblunge&#45;&gt;mov_halfkneelclean</title>
<path fill="none" stroke="black" d="M233.92,-427.28C241.56,-415.3 252,-398.95 260.71,-385.29"/>
<polygon fill="black" stroke="black" points="263.99,-387.66 266.42,-377.35 258.09,-383.9 263.99,-387.66"/>
</g>
<!-- mov_cleansblungeclean -->
<g id="node9" class="node">
<title>mov_cleansblungeclean</title>
<g id="a_node9"><a xlink:href="https://www.youtube.com/watch?v=KTDVl0Lkdc4&amp;list=PLk4oYPJ7TXKhX8YqA2AVrfgs_pEF6p7KA&amp;index=27" xlink:title="{{27|Clean Step&#45;Back\nLunge Clean}}">
<path fill="#ffff99" stroke="#b15928" d="M166.62,-250.25C166.62,-250.25 281.88,-250.25 281.88,-250.25 287.88,-250.25 293.88,-256.25 293.88,-262.25 293.88,-262.25 293.88,-277.75 293.88,-277.75 293.88,-283.75 287.88,-289.75 281.88,-289.75 281.88,-289.75 166.62,-289.75 166.62,-289.75 160.62,-289.75 154.62,-283.75 154.62,-277.75 154.62,-277.75 154.62,-262.25 154.62,-262.25 154.62,-256.25 160.62,-250.25 166.62,-250.25"/>
<text text-anchor="middle" x="169.38" y="-264.57" font-family="Times New Roman,serif" font-size="14.00">27</text>
<polyline fill="none" stroke="#b15928" points="184.12,-250.25 184.12,-289.75"/>
<text text-anchor="middle" x="239" y="-272.45" font-family="Times New Roman,serif" font-size="14.00">Clean Step&#45;Back</text>
<text text-anchor="middle" x="239" y="-256.7" font-family="Times New Roman,serif" font-size="14.00">Lunge Clean</text>
</a>
</g>
</g>
<!-- mov_clean2sblunge&#45;&gt;mov_cleansblungeclean -->
<g id="edge8" class="edge">
<title>mov_clean2sblunge&#45;&gt;mov_cleansblungeclean</title>
<path fill="none" stroke="black" d="M209.61,-427.33C202.31,-417.31 194.06,-403.94 190.25,-390.5 182.46,-363.03 182.47,-353.73 190.25,-326.25 192.97,-316.64 197.88,-307.07 203.14,-298.65"/>
<polygon fill="black" stroke="black" points="206.48,-300.96 209.13,-290.7 200.66,-297.06 206.48,-300.96"/>
</g>
<!-- mov_halfkneelclean&#45;&gt;mov_cleansblungeclean -->
<g id="edge9" class="edge">
<title>mov_halfkneelclean&#45;&gt;mov_cleansblungeclean</title>
<path fill="none" stroke="black" d="M267.03,-340.72C259.75,-328.85 249.79,-312.62 241.31,-298.8"/>
<polygon fill="black" stroke="black" points="243.94,-297.4 235.73,-290.7 237.97,-301.06 243.94,-297.4"/>
</g>
<!-- mov_halfkneelclean&#45;&gt;mov_halfkneelcap -->
<g id="edge11" class="edge">
<title>mov_halfkneelclean&#45;&gt;mov_halfkneelcap</title>
<path fill="none" stroke="black" d="M303.4,-340.52C323.26,-327.71 350.87,-309.92 373.18,-295.54"/>
<polygon fill="black" stroke="black" points="374.86,-297.97 381.37,-289.61 371.07,-292.09 374.86,-297.97"/>
</g>
<!-- mov_floorpress -->
<g id="node10" class="node">
<title>mov_floorpress</title>
<g id="a_node10"><a xlink:href="https://www.youtube.com/watch?v=KTDVl0Lkdc4&amp;list=PLk4oYPJ7TXKhX8YqA2AVrfgs_pEF6p7KA&amp;index=28" xlink:title="{{28|Single&#45;Bell Floor Press}}">
<path fill="#ffff99" stroke="#b15928" d="M548.38,-600.25C548.38,-600.25 698.12,-600.25 698.12,-600.25 704.12,-600.25 710.12,-606.25 710.12,-612.25 710.12,-612.25 710.12,-624.25 710.12,-624.25 710.12,-630.25 704.12,-636.25 698.12,-636.25 698.12,-636.25 548.38,-636.25 548.38,-636.25 542.38,-636.25 536.38,-630.25 536.38,-624.25 536.38,-624.25 536.38,-612.25 536.38,-612.25 536.38,-606.25 542.38,-600.25 548.38,-600.25"/>
<text text-anchor="middle" x="551.12" y="-612.95" font-family="Times New Roman,serif" font-size="14.00">28</text>
<polyline fill="none" stroke="#b15928" points="565.88,-600.5 565.88,-636.25"/>
<text text-anchor="middle" x="638" y="-612.95" font-family="Times New Roman,serif" font-size="14.00">Single&#45;Bell Floor Press</text>
</a>
</g>
</g>
<!-- mov_floorpressroll -->
<g id="node12" class="node">
<title>mov_floorpressroll</title>
<g id="a_node12"><a xlink:href="https://www.youtube.com/watch?v=KTDVl0Lkdc4&amp;list=PLk4oYPJ7TXKhX8YqA2AVrfgs_pEF6p7KA&amp;index=30" xlink:title="{{30|Floor Press with Roll}}">
<path fill="#ffff99" stroke="#b15928" d="M552.88,-513.62C552.88,-513.62 693.62,-513.62 693.62,-513.62 699.62,-513.62 705.62,-519.62 705.62,-525.62 705.62,-525.62 705.62,-537.62 705.62,-537.62 705.62,-543.62 699.62,-549.62 693.62,-549.62 693.62,-549.62 552.88,-549.62 552.88,-549.62 546.88,-549.62 540.88,-543.62 540.88,-537.62 540.88,-537.62 540.88,-525.62 540.88,-525.62 540.88,-519.62 546.88,-513.62 552.88,-513.62"/>
<text text-anchor="middle" x="555.62" y="-526.33" font-family="Times New Roman,serif" font-size="14.00">30</text>
<polyline fill="none" stroke="#b15928" points="570.38,-513.88 570.38,-549.62"/>
<text text-anchor="middle" x="638" y="-526.33" font-family="Times New Roman,serif" font-size="14.00">Floor Press with Roll</text>
</a>
</g>
</g>
<!-- mov_floorpress&#45;&gt;mov_floorpressroll -->
<g id="edge12" class="edge">
<title>mov_floorpress&#45;&gt;mov_floorpressroll</title>
<path fill="none" stroke="black" d="M623.25,-600.53C623.25,-589.13 623.25,-573.76 623.25,-560.53"/>
<polygon fill="black" stroke="black" points="626.75,-560.6 623.25,-550.6 619.75,-560.6 626.75,-560.6"/>
</g>
<!-- mov_kneelwindmill -->
<g id="node13" class="node">
<title>mov_kneelwindmill</title>
<g id="a_node13"><a xlink:href="https://www.youtube.com/watch?v=KTDVl0Lkdc4&amp;list=PLk4oYPJ7TXKhX8YqA2AVrfgs_pEF6p7KA&amp;index=31" xlink:title="{{31|Half&#45;Kneeling Windmill}}">
<path fill="#ffff99" stroke="#b15928" d="M277.62,-177.25C277.62,-177.25 428.88,-177.25 428.88,-177.25 434.88,-177.25 440.88,-183.25 440.88,-189.25 440.88,-189.25 440.88,-201.25 440.88,-201.25 440.88,-207.25 434.88,-213.25 428.88,-213.25 428.88,-213.25 277.62,-213.25 277.62,-213.25 271.62,-213.25 265.62,-207.25 265.62,-201.25 265.62,-201.25 265.62,-189.25 265.62,-189.25 265.62,-183.25 271.62,-177.25 277.62,-177.25"/>
<text text-anchor="middle" x="280.38" y="-189.95" font-family="Times New Roman,serif" font-size="14.00">31</text>
<polyline fill="none" stroke="#b15928" points="295.12,-177.5 295.12,-213.25"/>
<text text-anchor="middle" x="368" y="-189.95" font-family="Times New Roman,serif" font-size="14.00">Half&#45;Kneeling Windmill</text>
</a>
</g>
</g>
<!-- mov_halfkneelcap&#45;&gt;mov_kneelwindmill -->
<g id="edge13" class="edge">
<title>mov_halfkneelcap&#45;&gt;mov_kneelwindmill</title>
<path fill="none" stroke="black" d="M396.31,-250.27C389.4,-241.59 381.07,-231.14 373.59,-221.76"/>
<polygon fill="black" stroke="black" points="375.72,-219.82 366.75,-214.18 370.24,-224.18 375.72,-219.82"/>
</g>
<!-- mov_kneelcapwindmill -->
<g id="node15" class="node">
<title>mov_kneelcapwindmill</title>
<g id="a_node15"><a xlink:href="https://www.youtube.com/watch?v=KTDVl0Lkdc4&amp;list=PLk4oYPJ7TXKhX8YqA2AVrfgs_pEF6p7KA&amp;index=34" xlink:title="{{33|Half&#45;Kneeling\nClean &amp; Press Windmill}}">
<path fill="#ffff99" stroke="#b15928" d="M333,-100.75C333,-100.75 489.5,-100.75 489.5,-100.75 495.5,-100.75 501.5,-106.75 501.5,-112.75 501.5,-112.75 501.5,-128.25 501.5,-128.25 501.5,-134.25 495.5,-140.25 489.5,-140.25 489.5,-140.25 333,-140.25 333,-140.25 327,-140.25 321,-134.25 321,-128.25 321,-128.25 321,-112.75 321,-112.75 321,-106.75 327,-100.75 333,-100.75"/>
<text text-anchor="middle" x="335.75" y="-115.08" font-family="Times New Roman,serif" font-size="14.00">33</text>
<polyline fill="none" stroke="#b15928" points="350.5,-100.75 350.5,-140.25"/>
<text text-anchor="middle" x="426" y="-122.95" font-family="Times New Roman,serif" font-size="14.00">Half&#45;Kneeling</text>
<text text-anchor="middle" x="426" y="-107.2" font-family="Times New Roman,serif" font-size="14.00">Clean &amp; Press Windmill</text>
</a>
</g>
</g>
<!-- mov_halfkneelcap&#45;&gt;mov_kneelcapwindmill -->
<g id="edge15" class="edge">
<title>mov_halfkneelcap&#45;&gt;mov_kneelcapwindmill</title>
<path fill="none" stroke="black" d="M428.56,-250.66C436.86,-240.59 445.92,-227.4 450.25,-213.75 455.22,-198.08 455.22,-192.42 450.25,-176.75 447.07,-166.72 441.34,-156.95 435.23,-148.48"/>
<polygon fill="black" stroke="black" points="437.44,-146.62 428.56,-140.84 431.9,-150.9 437.44,-146.62"/>
</g>
<!-- mov_quartgu -->
<g id="node14" class="node">
<title>mov_quartgu</title>
<g id="a_node14"><a xlink:href="https://www.youtube.com/watch?v=KTDVl0Lkdc4&amp;list=PLk4oYPJ7TXKhX8YqA2AVrfgs_pEF6p7KA&amp;index=32" xlink:title="{{32|Quarter Turkish Get&#45;Up}}">
<path fill="#ffff99" stroke="#b15928" d="M545.38,-427C545.38,-427 701.12,-427 701.12,-427 707.12,-427 713.12,-433 713.12,-439 713.12,-439 713.12,-451 713.12,-451 713.12,-457 707.12,-463 701.12,-463 701.12,-463 545.38,-463 545.38,-463 539.38,-463 533.38,-457 533.38,-451 533.38,-451 533.38,-439 533.38,-439 533.38,-433 539.38,-427 545.38,-427"/>
<text text-anchor="middle" x="548.12" y="-439.7" font-family="Times New Roman,serif" font-size="14.00">32</text>
<polyline fill="none" stroke="#b15928" points="562.88,-427.25 562.88,-463"/>
<text text-anchor="middle" x="638" y="-439.7" font-family="Times New Roman,serif" font-size="14.00">Quarter Turkish Get&#45;Up</text>
</a>
</g>
</g>
<!-- mov_floorpressroll&#45;&gt;mov_quartgu -->
<g id="edge14" class="edge">
<title>mov_floorpressroll&#45;&gt;mov_quartgu</title>
<path fill="none" stroke="black" d="M623.25,-513.91C623.25,-502.51 623.25,-487.14 623.25,-473.9"/>
<polygon fill="black" stroke="black" points="626.75,-473.97 623.25,-463.97 619.75,-473.97 626.75,-473.97"/>
</g>
<!-- mov_kneelwindmill&#45;&gt;mov_kneelcapwindmill -->
<g id="edge16" class="edge">
<title>mov_kneelwindmill&#45;&gt;mov_kneelcapwindmill</title>
<path fill="none" stroke="black" d="M366.7,-177.38C373.52,-168.83 381.96,-158.24 389.66,-148.59"/>
<polygon fill="black" stroke="black" points="392.95,-151.07 396.45,-141.07 387.47,-146.71 392.95,-151.07"/>
</g>
<!-- mov_halfgu -->
<g id="node16" class="node">
<title>mov_halfgu</title>
<g id="a_node16"><a xlink:href="https://www.youtube.com/watch?v=KTDVl0Lkdc4&amp;list=PLk4oYPJ7TXKhX8YqA2AVrfgs_pEF6p7KA&amp;index=35" xlink:title="{{34|Half Get&#45;Up}}">
<path fill="#ffff99" stroke="#b15928" d="M578,-340.38C578,-340.38 668.5,-340.38 668.5,-340.38 674.5,-340.38 680.5,-346.38 680.5,-352.38 680.5,-352.38 680.5,-364.38 680.5,-364.38 680.5,-370.38 674.5,-376.38 668.5,-376.38 668.5,-376.38 578,-376.38 578,-376.38 572,-376.38 566,-370.38 566,-364.38 566,-364.38 566,-352.38 566,-352.38 566,-346.38 572,-340.38 578,-340.38"/>
<text text-anchor="middle" x="580.75" y="-353.07" font-family="Times New Roman,serif" font-size="14.00">34</text>
<polyline fill="none" stroke="#b15928" points="595.5,-340.62 595.5,-376.38"/>
<text text-anchor="middle" x="638" y="-353.07" font-family="Times New Roman,serif" font-size="14.00">Half Get&#45;Up</text>
</a>
</g>
</g>
<!-- mov_quartgu&#45;&gt;mov_halfgu -->
<g id="edge17" class="edge">
<title>mov_quartgu&#45;&gt;mov_halfgu</title>
<path fill="none" stroke="black" d="M623.25,-427.28C623.25,-415.88 623.25,-400.51 623.25,-387.28"/>
<polygon fill="black" stroke="black" points="626.75,-387.35 623.25,-377.35 619.75,-387.35 626.75,-387.35"/>
</g>
<!-- mov_cap2ohsblunge -->
<g id="node17" class="node">
<title>mov_cap2ohsblunge</title>
<g id="a_node17"><a xlink:href="https://www.youtube.com/watch?v=KTDVl0Lkdc4&amp;list=PLk4oYPJ7TXKhX8YqA2AVrfgs_pEF6p7KA&amp;index=37" xlink:title="{{35|Clean &amp; Press to Overhead\nStep&#45;Back Lunge}}">
<path fill="#ffff99" stroke="#b15928" d="M323.62,-24.25C323.62,-24.25 498.88,-24.25 498.88,-24.25 504.88,-24.25 510.88,-30.25 510.88,-36.25 510.88,-36.25 510.88,-51.75 510.88,-51.75 510.88,-57.75 504.88,-63.75 498.88,-63.75 498.88,-63.75 323.62,-63.75 323.62,-63.75 317.62,-63.75 311.62,-57.75 311.62,-51.75 311.62,-51.75 311.62,-36.25 311.62,-36.25 311.62,-30.25 317.62,-24.25 323.62,-24.25"/>
<text text-anchor="middle" x="326.38" y="-38.58" font-family="Times New Roman,serif" font-size="14.00">35</text>
<polyline fill="none" stroke="#b15928" points="341.12,-24.25 341.12,-63.75"/>
<text text-anchor="middle" x="426" y="-46.45" font-family="Times New Roman,serif" font-size="14.00">Clean &amp; Press to Overhead</text>
<text text-anchor="middle" x="426" y="-30.7" font-family="Times New Roman,serif" font-size="14.00">Step&#45;Back Lunge</text>
</a>
</g>
</g>
<!-- mov_kneelcapwindmill&#45;&gt;mov_cap2ohsblunge -->
<g id="edge18" class="edge">
<title>mov_kneelcapwindmill&#45;&gt;mov_cap2ohsblunge</title>
<path fill="none" stroke="black" d="M411.25,-101.08C411.25,-93.09 411.25,-83.52 411.25,-74.56"/>
<polygon fill="black" stroke="black" points="414.75,-74.72 411.25,-64.72 407.75,-74.72 414.75,-74.72"/>
</g>
</g>
</svg>
