<?xml version="1.0" encoding="UTF-8" standalone="no"?>
<!DOCTYPE svg PUBLIC "-//W3C//DTD SVG 1.1//EN"
 "http://www.w3.org/Graphics/SVG/1.1/DTD/svg11.dtd">
<!-- Generated by graphviz version 8.1.0 (20230707.0739)
 -->
<!-- Title: kb_progression Pages: 1 -->
<svg width="600pt" height="419pt"
 viewBox="0.00 0.00 599.50 418.75" xmlns="http://www.w3.org/2000/svg" xmlns:xlink="http://www.w3.org/1999/xlink">
<g id="graph0" class="graph" transform="scale(1 1) rotate(0) translate(4 414.75)">
<title>kb_progression</title>
<polygon fill="white" stroke="none" points="-4,4 -4,-414.75 595.5,-414.75 595.5,4 -4,4"/>
<text text-anchor="middle" x="295.75" y="-6.45" font-family="Times New Roman,serif" font-size="14.00">Kettlebell Turkish Get&#45;Up Progression</text>
<!-- mov_racksquat -->
<g id="node1" class="node">
<title>mov_racksquat</title>
<g id="a_node1"><a xlink:href="https://www.youtube.com/watch?v=KTDVl0Lkdc4&amp;list=PLk4oYPJ7TXKhX8YqA2AVrfgs_pEF6p7KA&amp;index=23" xlink:title="{{23|Single&#45;Bell Front Squat}}">
<path fill="#b2df8a" stroke="#33a02c" d="M12,-374.25C12,-374.25 163.25,-374.25 163.25,-374.25 169.25,-374.25 175.25,-380.25 175.25,-386.25 175.25,-386.25 175.25,-398.25 175.25,-398.25 175.25,-404.25 169.25,-410.25 163.25,-410.25 163.25,-410.25 12,-410.25 12,-410.25 6,-410.25 0,-404.25 0,-398.25 0,-398.25 0,-386.25 0,-386.25 0,-380.25 6,-374.25 12,-374.25"/>
<text text-anchor="middle" x="14.75" y="-386.95" font-family="Times New Roman,serif" font-size="14.00">23</text>
<polyline fill="none" stroke="#33a02c" points="29.5,-374.5 29.5,-410.25"/>
<text text-anchor="middle" x="102.38" y="-386.95" font-family="Times New Roman,serif" font-size="14.00">Single&#45;Bell Front Squat</text>
</a>
</g>
</g>
<!-- mov_racklunge -->
<g id="node6" class="node">
<title>mov_racklunge</title>
<g id="a_node6"><a xlink:href="https://www.youtube.com/watch?v=KTDVl0Lkdc4&amp;list=PLk4oYPJ7TXKhX8YqA2AVrfgs_pEF6p7KA&amp;index=24" xlink:title="{{24|Rack Opposite Leg\nStep&#45;Back Lunge}|VERTICAL SPINE}">
<path fill="#ffff99" stroke="#b15928" d="M22.12,-274C22.12,-274 153.12,-274 153.12,-274 159.12,-274 165.12,-280 165.12,-286 165.12,-286 165.12,-325.25 165.12,-325.25 165.12,-331.25 159.12,-337.25 153.12,-337.25 153.12,-337.25 22.12,-337.25 22.12,-337.25 16.12,-337.25 10.12,-331.25 10.12,-325.25 10.12,-325.25 10.12,-286 10.12,-286 10.12,-280 16.12,-274 22.12,-274"/>
<text text-anchor="middle" x="24.88" y="-312.07" font-family="Times New Roman,serif" font-size="14.00">24</text>
<polyline fill="none" stroke="#b15928" points="39.62,-297.75 39.62,-337.25"/>
<text text-anchor="middle" x="102.38" y="-319.95" font-family="Times New Roman,serif" font-size="14.00">Rack Opposite Leg</text>
<text text-anchor="middle" x="102.38" y="-304.2" font-family="Times New Roman,serif" font-size="14.00">Step&#45;Back Lunge</text>
<polyline fill="none" stroke="#b15928" points="10.12,-297.75 165.12,-297.75"/>
<text text-anchor="middle" x="87.62" y="-280.45" font-family="Times New Roman,serif" font-size="14.00">VERTICAL SPINE</text>
</a>
</g>
</g>
<!-- mov_racksquat&#45;&gt;mov_racklunge -->
<g id="edge4" class="edge">
<title>mov_racksquat&#45;&gt;mov_racklunge</title>
<path fill="none" stroke="black" d="M87.62,-374.53C87.62,-366.84 87.62,-357.35 87.62,-347.93"/>
<polygon fill="black" stroke="black" points="91.13,-348.01 87.62,-338.01 84.13,-348.01 91.13,-348.01"/>
</g>
<!-- mov_cap -->
<g id="node2" class="node">
<title>mov_cap</title>
<g id="a_node2"><a xlink:href="https://www.youtube.com/watch?v=SSxB3m5qRas&amp;list=PLk4oYPJ7TXKhX8YqA2AVrfgs_pEF6p7KA&amp;index=17" xlink:title="17|Clean &amp; Press">
<path fill="#b2df8a" stroke="#33a02c" d="M370.38,-287.62C370.38,-287.62 472.88,-287.62 472.88,-287.62 478.88,-287.62 484.88,-293.62 484.88,-299.62 484.88,-299.62 484.88,-311.62 484.88,-311.62 484.88,-317.62 478.88,-323.62 472.88,-323.62 472.88,-323.62 370.38,-323.62 370.38,-323.62 364.38,-323.62 358.38,-317.62 358.38,-311.62 358.38,-311.62 358.38,-299.62 358.38,-299.62 358.38,-293.62 364.38,-287.62 370.38,-287.62"/>
<text text-anchor="middle" x="373.12" y="-300.2" font-family="Times New Roman,serif" font-size="14.00">17</text>
<polyline fill="none" stroke="#33a02c" points="387.88,-287.62 387.88,-323.62"/>
<text text-anchor="middle" x="436.38" y="-300.2" font-family="Times New Roman,serif" font-size="14.00">Clean &amp; Press</text>
</a>
</g>
</g>
<!-- mov_startstopcap -->
<g id="node3" class="node">
<title>mov_startstopcap</title>
<g id="a_node3"><a xlink:href="https://www.youtube.com/watch?v=dSj3kqbuois&amp;list=PLk4oYPJ7TXKhX8YqA2AVrfgs_pEF6p7KA&amp;index=19" xlink:title="{{19|Start Stop\nClean &amp; Press}|START &amp; END C&amp;P}">
<path fill="#b2df8a" stroke="#33a02c" d="M363,-100.75C363,-100.75 480.25,-100.75 480.25,-100.75 486.25,-100.75 492.25,-106.75 492.25,-112.75 492.25,-112.75 492.25,-152 492.25,-152 492.25,-158 486.25,-164 480.25,-164 480.25,-164 363,-164 363,-164 357,-164 351,-158 351,-152 351,-152 351,-112.75 351,-112.75 351,-106.75 357,-100.75 363,-100.75"/>
<text text-anchor="middle" x="369.25" y="-138.82" font-family="Times New Roman,serif" font-size="14.00">19</text>
<polyline fill="none" stroke="#33a02c" points="387.5,-124.5 387.5,-164"/>
<text text-anchor="middle" x="439.5" y="-146.7" font-family="Times New Roman,serif" font-size="14.00">Start Stop</text>
<text text-anchor="middle" x="439.5" y="-130.95" font-family="Times New Roman,serif" font-size="14.00">Clean &amp; Press</text>
<polyline fill="none" stroke="#33a02c" points="351,-124.5 492.25,-124.5"/>
<text text-anchor="middle" x="421.62" y="-107.2" font-family="Times New Roman,serif" font-size="14.00">START &amp; END C&amp;P</text>
</a>
</g>
</g>
<!-- mov_cap&#45;&gt;mov_startstopcap -->
<g id="edge3" class="edge">
<title>mov_cap&#45;&gt;mov_startstopcap</title>
<path fill="none" stroke="black" d="M421.62,-287.89C421.62,-261.88 421.62,-210.98 421.62,-174.71"/>
<polygon fill="black" stroke="black" points="425.13,-174.97 421.62,-164.97 418.13,-174.97 425.13,-174.97"/>
</g>
<!-- mov_halfkneelcap -->
<g id="node11" class="node">
<title>mov_halfkneelcap</title>
<g id="a_node11"><a xlink:href="https://www.youtube.com/watch?v=KTDVl0Lkdc4&amp;list=PLk4oYPJ7TXKhX8YqA2AVrfgs_pEF6p7KA&amp;index=29" xlink:title="{{29|Half&#45;Kneeling\nClean &amp; Press}}">
<path fill="#ffff99" stroke="#b15928" d="M335.38,-24.25C335.38,-24.25 437.88,-24.25 437.88,-24.25 443.88,-24.25 449.88,-30.25 449.88,-36.25 449.88,-36.25 449.88,-51.75 449.88,-51.75 449.88,-57.75 443.88,-63.75 437.88,-63.75 437.88,-63.75 335.38,-63.75 335.38,-63.75 329.38,-63.75 323.38,-57.75 323.38,-51.75 323.38,-51.75 323.38,-36.25 323.38,-36.25 323.38,-30.25 329.38,-24.25 335.38,-24.25"/>
<text text-anchor="middle" x="338.12" y="-38.58" font-family="Times New Roman,serif" font-size="14.00">29</text>
<polyline fill="none" stroke="#b15928" points="352.88,-24.25 352.88,-63.75"/>
<text text-anchor="middle" x="401.38" y="-46.45" font-family="Times New Roman,serif" font-size="14.00">Half&#45;Kneeling</text>
<text text-anchor="middle" x="401.38" y="-30.7" font-family="Times New Roman,serif" font-size="14.00">Clean &amp; Press</text>
</a>
</g>
</g>
<!-- mov_startstopcap&#45;&gt;mov_halfkneelcap -->
<g id="edge10" class="edge">
<title>mov_startstopcap&#45;&gt;mov_halfkneelcap</title>
<path fill="none" stroke="black" d="M409.38,-101.17C405.8,-92.31 401.88,-82.65 398.33,-73.89"/>
<polygon fill="black" stroke="black" points="401.22,-72.7 394.22,-64.74 394.73,-75.32 401.22,-72.7"/>
</g>
<!-- mov_clean -->
<g id="node4" class="node">
<title>mov_clean</title>
<g id="a_node4"><a xlink:href="https://www.youtube.com/watch?v=_nIsSXWs5iU&amp;list=PLk4oYPJ7TXKhX8YqA2AVrfgs_pEF6p7KA&amp;index=12" xlink:title="12|Swing Clean">
<path fill="#b2df8a" stroke="#33a02c" d="M296,-374.25C296,-374.25 387.25,-374.25 387.25,-374.25 393.25,-374.25 399.25,-380.25 399.25,-386.25 399.25,-386.25 399.25,-398.25 399.25,-398.25 399.25,-404.25 393.25,-410.25 387.25,-410.25 387.25,-410.25 296,-410.25 296,-410.25 290,-410.25 284,-404.25 284,-398.25 284,-398.25 284,-386.25 284,-386.25 284,-380.25 290,-374.25 296,-374.25"/>
<text text-anchor="middle" x="298.75" y="-386.82" font-family="Times New Roman,serif" font-size="14.00">12</text>
<polyline fill="none" stroke="#33a02c" points="313.5,-374.25 313.5,-410.25"/>
<text text-anchor="middle" x="356.38" y="-386.82" font-family="Times New Roman,serif" font-size="14.00">Swing Clean</text>
</a>
</g>
</g>
<!-- mov_clean&#45;&gt;mov_cap -->
<g id="edge2" class="edge">
<title>mov_clean&#45;&gt;mov_cap</title>
<path fill="none" stroke="black" d="M357.43,-374.53C369.08,-362.21 385.11,-345.25 398.24,-331.36"/>
<polygon fill="black" stroke="black" points="400.25,-334.27 404.58,-324.6 395.17,-329.46 400.25,-334.27"/>
</g>
<!-- mov_startstopclean -->
<g id="node5" class="node">
<title>mov_startstopclean</title>
<g id="a_node5"><a xlink:href="https://www.youtube.com/watch?v=XbK3jxI0WNQ&amp;list=PLk4oYPJ7TXKhX8YqA2AVrfgs_pEF6p7KA&amp;index=16" xlink:title="{{16|Start Stop Clean}|START &amp; END CLEAN}">
<path fill="#b2df8a" stroke="#33a02c" d="M194.75,-281.88C194.75,-281.88 328.5,-281.88 328.5,-281.88 334.5,-281.88 340.5,-287.88 340.5,-293.88 340.5,-293.88 340.5,-317.38 340.5,-317.38 340.5,-323.38 334.5,-329.38 328.5,-329.38 328.5,-329.38 194.75,-329.38 194.75,-329.38 188.75,-329.38 182.75,-323.38 182.75,-317.38 182.75,-317.38 182.75,-293.88 182.75,-293.88 182.75,-287.88 188.75,-281.88 194.75,-281.88"/>
<text text-anchor="middle" x="202.5" y="-312.07" font-family="Times New Roman,serif" font-size="14.00">16</text>
<polyline fill="none" stroke="#33a02c" points="222.25,-305.62 222.25,-329.38"/>
<text text-anchor="middle" x="281.38" y="-312.07" font-family="Times New Roman,serif" font-size="14.00">Start Stop Clean</text>
<polyline fill="none" stroke="#33a02c" points="182.75,-305.62 340.5,-305.62"/>
<text text-anchor="middle" x="261.62" y="-288.32" font-family="Times New Roman,serif" font-size="14.00">START &amp; END CLEAN</text>
</a>
</g>
</g>
<!-- mov_clean&#45;&gt;mov_startstopclean -->
<g id="edge1" class="edge">
<title>mov_clean&#45;&gt;mov_startstopclean</title>
<path fill="none" stroke="black" d="M325.82,-374.53C315.64,-363.76 302.11,-349.45 290.09,-336.74"/>
<polygon fill="black" stroke="black" points="293.26,-334.94 283.85,-330.08 288.18,-339.75 293.26,-334.94"/>
</g>
<!-- mov_clean2sblunge -->
<g id="node7" class="node">
<title>mov_clean2sblunge</title>
<g id="a_node7"><a xlink:href="https://www.youtube.com/watch?v=KTDVl0Lkdc4&amp;list=PLk4oYPJ7TXKhX8YqA2AVrfgs_pEF6p7KA&amp;index=25" xlink:title="{{25|Clean Step&#45;Back Clean}}">
<path fill="#ffff99" stroke="#b15928" d="M126.38,-201C126.38,-201 276.88,-201 276.88,-201 282.88,-201 288.88,-207 288.88,-213 288.88,-213 288.88,-225 288.88,-225 288.88,-231 282.88,-237 276.88,-237 276.88,-237 126.38,-237 126.38,-237 120.38,-237 114.38,-231 114.38,-225 114.38,-225 114.38,-213 114.38,-213 114.38,-207 120.38,-201 126.38,-201"/>
<text text-anchor="middle" x="129.12" y="-213.7" font-family="Times New Roman,serif" font-size="14.00">25</text>
<polyline fill="none" stroke="#b15928" points="143.88,-201.25 143.88,-237"/>
<text text-anchor="middle" x="216.38" y="-213.7" font-family="Times New Roman,serif" font-size="14.00">Clean Step&#45;Back Clean</text>
</a>
</g>
</g>
<!-- mov_startstopclean&#45;&gt;mov_clean2sblunge -->
<g id="edge6" class="edge">
<title>mov_startstopclean&#45;&gt;mov_clean2sblunge</title>
<path fill="none" stroke="black" d="M245.55,-281.95C237.6,-270.74 227.99,-257.18 219.78,-245.61"/>
<polygon fill="black" stroke="black" points="222.2,-243.96 213.56,-237.83 216.49,-248.01 222.2,-243.96"/>
</g>
<!-- mov_racklunge&#45;&gt;mov_clean2sblunge -->
<g id="edge5" class="edge">
<title>mov_racklunge&#45;&gt;mov_clean2sblunge</title>
<path fill="none" stroke="black" d="M128.78,-274.07C142.46,-263.92 157.46,-252.78 170.28,-243.27"/>
<polygon fill="black" stroke="black" points="171.82,-245.74 177.76,-236.97 167.65,-240.12 171.82,-245.74"/>
</g>
<!-- mov_halfkneelclean -->
<g id="node8" class="node">
<title>mov_halfkneelclean</title>
<g id="a_node8"><a xlink:href="https://www.youtube.com/watch?v=KTDVl0Lkdc4&amp;list=PLk4oYPJ7TXKhX8YqA2AVrfgs_pEF6p7KA&amp;index=26" xlink:title="{{26|Half&#45;Kneeling Clean}}">
<path fill="#ffff99" stroke="#b15928" d="M188.38,-114.38C188.38,-114.38 320.88,-114.38 320.88,-114.38 326.88,-114.38 332.88,-120.38 332.88,-126.38 332.88,-126.38 332.88,-138.38 332.88,-138.38 332.88,-144.38 326.88,-150.38 320.88,-150.38 320.88,-150.38 188.38,-150.38 188.38,-150.38 182.38,-150.38 176.38,-144.38 176.38,-138.38 176.38,-138.38 176.38,-126.38 176.38,-126.38 176.38,-120.38 182.38,-114.38 188.38,-114.38"/>
<text text-anchor="middle" x="191.12" y="-127.08" font-family="Times New Roman,serif" font-size="14.00">26</text>
<polyline fill="none" stroke="#b15928" points="205.88,-114.62 205.88,-150.38"/>
<text text-anchor="middle" x="269.38" y="-127.08" font-family="Times New Roman,serif" font-size="14.00">Half&#45;Kneeling Clean</text>
</a>
</g>
</g>
<!-- mov_clean2sblunge&#45;&gt;mov_halfkneelclean -->
<g id="edge7" class="edge">
<title>mov_clean2sblunge&#45;&gt;mov_halfkneelclean</title>
<path fill="none" stroke="black" d="M212.1,-201.28C219.6,-189.3 229.84,-172.95 238.4,-159.29"/>
<polygon fill="black" stroke="black" points="241.65,-161.68 243.99,-151.35 235.72,-157.97 241.65,-161.68"/>
</g>
<!-- mov_cleansblungeclean -->
<g id="node9" class="node">
<title>mov_cleansblungeclean</title>
<g id="a_node9"><a xlink:href="https://www.youtube.com/watch?v=KTDVl0Lkdc4&amp;list=PLk4oYPJ7TXKhX8YqA2AVrfgs_pEF6p7KA&amp;index=27" xlink:title="{{27|Clean Step&#45;Back\nLunge Clean}}">
<path fill="#ffff99" stroke="#b15928" d="M144,-24.25C144,-24.25 259.25,-24.25 259.25,-24.25 265.25,-24.25 271.25,-30.25 271.25,-36.25 271.25,-36.25 271.25,-51.75 271.25,-51.75 271.25,-57.75 265.25,-63.75 259.25,-63.75 259.25,-63.75 144,-63.75 144,-63.75 138,-63.75 132,-57.75 132,-51.75 132,-51.75 132,-36.25 132,-36.25 132,-30.25 138,-24.25 144,-24.25"/>
<text text-anchor="middle" x="146.75" y="-38.58" font-family="Times New Roman,serif" font-size="14.00">27</text>
<polyline fill="none" stroke="#b15928" points="161.5,-24.25 161.5,-63.75"/>
<text text-anchor="middle" x="216.38" y="-46.45" font-family="Times New Roman,serif" font-size="14.00">Clean Step&#45;Back</text>
<text text-anchor="middle" x="216.38" y="-30.7" font-family="Times New Roman,serif" font-size="14.00">Lunge Clean</text>
</a>
</g>
</g>
<!-- mov_clean2sblunge&#45;&gt;mov_cleansblungeclean -->
<g id="edge8" class="edge">
<title>mov_clean2sblunge&#45;&gt;mov_cleansblungeclean</title>
<path fill="none" stroke="black" d="M187.58,-201.39C180.06,-191.4 171.56,-178.03 167.62,-164.5 159.65,-137.08 159.85,-127.73 167.62,-100.25 170.34,-90.64 175.26,-81.07 180.52,-72.65"/>
<polygon fill="black" stroke="black" points="183.85,-74.96 186.51,-64.7 178.04,-71.06 183.85,-74.96"/>
</g>
<!-- mov_halfkneelclean&#45;&gt;mov_cleansblungeclean -->
<g id="edge9" class="edge">
<title>mov_halfkneelclean&#45;&gt;mov_cleansblungeclean</title>
<path fill="none" stroke="black" d="M244.41,-114.72C237.12,-102.85 227.16,-86.62 218.68,-72.8"/>
<polygon fill="black" stroke="black" points="221.31,-71.4 213.1,-64.7 215.35,-75.06 221.31,-71.4"/>
</g>
<!-- mov_halfkneelclean&#45;&gt;mov_halfkneelcap -->
<g id="edge11" class="edge">
<title>mov_halfkneelclean&#45;&gt;mov_halfkneelcap</title>
<path fill="none" stroke="black" d="M280.39,-114.52C299.95,-101.71 327.14,-83.92 349.12,-69.54"/>
<polygon fill="black" stroke="black" points="350.73,-72.02 357.18,-63.61 346.9,-66.16 350.73,-72.02"/>
</g>
<!-- mov_floorpress -->
<g id="node10" class="node">
<title>mov_floorpress</title>
<g id="a_node10"><a xlink:href="https://www.youtube.com/watch?v=KTDVl0Lkdc4&amp;list=PLk4oYPJ7TXKhX8YqA2AVrfgs_pEF6p7KA&amp;index=28" xlink:title="{{28|Single&#45;Bell Floor Press}}">
<path fill="#ffff99" stroke="#b15928" d="M429.75,-374.25C429.75,-374.25 579.5,-374.25 579.5,-374.25 585.5,-374.25 591.5,-380.25 591.5,-386.25 591.5,-386.25 591.5,-398.25 591.5,-398.25 591.5,-404.25 585.5,-410.25 579.5,-410.25 579.5,-410.25 429.75,-410.25 429.75,-410.25 423.75,-410.25 417.75,-404.25 417.75,-398.25 417.75,-398.25 417.75,-386.25 417.75,-386.25 417.75,-380.25 423.75,-374.25 429.75,-374.25"/>
<text text-anchor="middle" x="432.5" y="-386.95" font-family="Times New Roman,serif" font-size="14.00">28</text>
<polyline fill="none" stroke="#b15928" points="447.25,-374.5 447.25,-410.25"/>
<text text-anchor="middle" x="519.38" y="-386.95" font-family="Times New Roman,serif" font-size="14.00">Single&#45;Bell Floor Press</text>
</a>
</g>
</g>
</g>
</svg>
