<?xml version="1.0" encoding="UTF-8" standalone="no"?>
<!DOCTYPE svg PUBLIC "-//W3C//DTD SVG 1.1//EN"
 "http://www.w3.org/Graphics/SVG/1.1/DTD/svg11.dtd">
<!-- Generated by graphviz version 9.0.0 (20230911.1827)
 -->
<!-- Title: mace_warrior_subsequence Pages: 1 -->
<svg width="944pt" height="868pt"
 viewBox="0.00 0.00 944.00 867.50" xmlns="http://www.w3.org/2000/svg" xmlns:xlink="http://www.w3.org/1999/xlink">
<g id="graph0" class="graph" transform="scale(1 1) rotate(0) translate(4 863.5)">
<title>mace_warrior_subsequence</title>
<polygon fill="white" stroke="none" points="-4,4 -4,-863.5 940,-863.5 940,4 -4,4"/>
<text text-anchor="start" x="536.5" y="-145.7" font-family="Helvetica,Arial,sans-serif" font-weight="bold" font-size="14.00">Mace Warrior Stance Subsequence</text>
<text text-anchor="start" x="536.5" y="-117.7" font-family="Helvetica,Arial,sans-serif" font-size="14.00">Diagram by dznz based on Mark Wildman&#39;s teachings.</text>
<text text-anchor="start" x="536.5" y="-89.7" font-family="Helvetica,Arial,sans-serif" font-size="14.00">Source: </text>
<text text-anchor="start" x="589.75" y="-89.7" font-family="Helvetica,Arial,sans-serif" font-weight="bold" font-size="14.00">https://github.com/dznz/wildman&#45;skill&#45;trees</text>
<text text-anchor="start" x="536.5" y="-61.7" font-family="Helvetica,Arial,sans-serif" font-size="14.00">More by Mark Wildman &#45; </text>
<text text-anchor="start" x="692.5" y="-61.7" font-family="Helvetica,Arial,sans-serif" font-weight="bold" font-size="14.00">https://www.wildmanathletica.com</text>
<text text-anchor="start" x="536.5" y="-33.7" font-family="Helvetica,Arial,sans-serif" font-style="italic" font-size="14.00">© 2023. This work is openly licensed with CC BY&#45;NC&#45;SA 4.0</text>
<text text-anchor="start" x="604.75" y="-19.7" font-family="Helvetica,Arial,sans-serif" font-style="italic" font-size="14.00">http://creativecommons.org/licenses/by&#45;nc&#45;sa/4.0/</text>
<text text-anchor="start" x="728.5" y="-5.7" font-family="Helvetica,Arial,sans-serif" font-size="14.00"> &#160;</text>
<g id="clust8" class="cluster">
<title>cluster_war</title>
<polygon fill="none" stroke="black" points="44.75,-196.75 44.75,-734.5 440.75,-734.5 440.75,-196.75 44.75,-196.75"/>
<text text-anchor="middle" x="386.62" y="-717.2" font-family="Helvetica,Arial,sans-serif" font-size="14.00">Warrior stance</text>
</g>
<!-- ext_180pull -->
<g id="node1" class="node">
<title>ext_180pull</title>
<path fill="#a6cee3" stroke="#1f78b4" d="M499.5,-744.75C499.5,-744.75 604,-744.75 604,-744.75 610,-744.75 616,-750.75 616,-756.75 616,-756.75 616,-768.75 616,-768.75 616,-774.75 610,-780.75 604,-780.75 604,-780.75 499.5,-780.75 499.5,-780.75 493.5,-780.75 487.5,-774.75 487.5,-768.75 487.5,-768.75 487.5,-756.75 487.5,-756.75 487.5,-750.75 493.5,-744.75 499.5,-744.75"/>
<text text-anchor="middle" x="551.75" y="-757.33" font-family="Times New Roman,serif" font-size="14.00">180 Degree Pullover</text>
</g>
<!-- mov_27_inflip180pull -->
<g id="node7" class="node">
<title>mov_27_inflip180pull</title>
<g id="a_node7"><a xlink:href="https://www.youtube.com/watch?v=uFsPwnClx-M" xlink:title="{{27 &#160;|Inside flip catch mill with\nsword grip across the top}}">
<path fill="#a6cee3" stroke="#1f78b4" d="M463,-424.62C463,-424.62 628.5,-424.62 628.5,-424.62 634.5,-424.62 640.5,-430.62 640.5,-436.62 640.5,-436.62 640.5,-452.12 640.5,-452.12 640.5,-458.12 634.5,-464.12 628.5,-464.12 628.5,-464.12 463,-464.12 463,-464.12 457,-464.12 451,-458.12 451,-452.12 451,-452.12 451,-436.62 451,-436.62 451,-430.62 457,-424.62 463,-424.62"/>
<text text-anchor="middle" x="465.75" y="-438.95" font-family="Times New Roman,serif" font-size="14.00">27</text>
<polyline fill="none" stroke="#1f78b4" points="480.5,-424.62 480.5,-464.12"/>
<text text-anchor="middle" x="560.5" y="-446.82" font-family="Times New Roman,serif" font-size="14.00">Inside flip catch mill with</text>
<text text-anchor="middle" x="560.5" y="-431.07" font-family="Times New Roman,serif" font-size="14.00">sword grip across the top</text>
</a>
</g>
</g>
<!-- ext_180pull&#45;&gt;mov_27_inflip180pull -->
<g id="edge4" class="edge">
<title>ext_180pull&#45;&gt;mov_27_inflip180pull</title>
<path fill="none" stroke="black" d="M564.72,-744.45C594.52,-702.44 662.4,-592.28 622.75,-508.5 615.73,-493.66 603.32,-481.15 590.49,-471.27"/>
<polygon fill="black" stroke="black" points="592.54,-468.43 582.37,-465.44 588.45,-474.12 592.54,-468.43"/>
</g>
<!-- mov_38_war180pull -->
<g id="node13" class="node">
<title>mov_38_war180pull</title>
<g id="a_node13"><a xlink:href="https://www.youtube.com/watch?v=P5lbQmeVZn8" xlink:title="{{38 &#160;|Warrior stance\n180 degree rotating pullover\nfrom sword grip}}">
<path fill="#ffff99" stroke="#b15928" d="M64.38,-416.75C64.38,-416.75 241.12,-416.75 241.12,-416.75 247.12,-416.75 253.12,-422.75 253.12,-428.75 253.12,-428.75 253.12,-460 253.12,-460 253.12,-466 247.12,-472 241.12,-472 241.12,-472 64.38,-472 64.38,-472 58.38,-472 52.38,-466 52.38,-460 52.38,-460 52.38,-428.75 52.38,-428.75 52.38,-422.75 58.38,-416.75 64.38,-416.75"/>
<text text-anchor="middle" x="67.12" y="-438.95" font-family="Times New Roman,serif" font-size="14.00">38</text>
<polyline fill="none" stroke="#b15928" points="81.88,-416.75 81.88,-472"/>
<text text-anchor="middle" x="167.5" y="-454.7" font-family="Times New Roman,serif" font-size="14.00">Warrior stance</text>
<text text-anchor="middle" x="167.5" y="-438.95" font-family="Times New Roman,serif" font-size="14.00">180 degree rotating pullover</text>
<text text-anchor="middle" x="167.5" y="-423.2" font-family="Times New Roman,serif" font-size="14.00">from sword grip</text>
</a>
</g>
</g>
<!-- ext_180pull&#45;&gt;mov_38_war180pull -->
<g id="edge20" class="edge">
<title>ext_180pull&#45;&gt;mov_38_war180pull</title>
<path fill="none" stroke="black" d="M537.11,-744.42C499.25,-700.39 393.49,-582.52 285.75,-508.5 268.78,-496.84 249.31,-486.26 230.6,-477.25"/>
<polygon fill="black" stroke="black" points="232.22,-474.14 221.68,-473.05 229.24,-480.47 232.22,-474.14"/>
</g>
<!-- mov_02_alt360 -->
<g id="node2" class="node">
<title>mov_02_alt360</title>
<g id="a_node2"><a xlink:href="https://www.youtube.com/watch?v=ccifkBh2JSI" xlink:title="{{02 &#160;|Alternating 360\n(Gama Cast/10 to 2)}}">
<path fill="#a6cee3" stroke="#1f78b4" d="M232,-743C232,-743 367.5,-743 367.5,-743 373.5,-743 379.5,-749 379.5,-755 379.5,-755 379.5,-770.5 379.5,-770.5 379.5,-776.5 373.5,-782.5 367.5,-782.5 367.5,-782.5 232,-782.5 232,-782.5 226,-782.5 220,-776.5 220,-770.5 220,-770.5 220,-755 220,-755 220,-749 226,-743 232,-743"/>
<text text-anchor="middle" x="234.75" y="-757.33" font-family="Times New Roman,serif" font-size="14.00">02</text>
<polyline fill="none" stroke="#1f78b4" points="249.5,-743 249.5,-782.5"/>
<text text-anchor="middle" x="314.5" y="-765.2" font-family="Times New Roman,serif" font-size="14.00">Alternating 360</text>
<text text-anchor="middle" x="314.5" y="-749.45" font-family="Times New Roman,serif" font-size="14.00">(Gama Cast/10 to 2)</text>
</a>
</g>
</g>
<!-- mov_35_waralt360 -->
<g id="node11" class="node">
<title>mov_35_waralt360</title>
<g id="a_node11"><a xlink:href="https://www.youtube.com/watch?v=IgJXJy3zPGk" xlink:title="{{35 &#160;|Warrior stance\nalternating 360 / Gama cast}}">
<path fill="#ffff99" stroke="#b15928" d="M213.62,-662C213.62,-662 385.88,-662 385.88,-662 391.88,-662 397.88,-668 397.88,-674 397.88,-674 397.88,-689.5 397.88,-689.5 397.88,-695.5 391.88,-701.5 385.88,-701.5 385.88,-701.5 213.62,-701.5 213.62,-701.5 207.62,-701.5 201.62,-695.5 201.62,-689.5 201.62,-689.5 201.62,-674 201.62,-674 201.62,-668 207.62,-662 213.62,-662"/>
<text text-anchor="middle" x="216.38" y="-676.33" font-family="Times New Roman,serif" font-size="14.00">35</text>
<polyline fill="none" stroke="#b15928" points="231.12,-662 231.12,-701.5"/>
<text text-anchor="middle" x="314.5" y="-684.2" font-family="Times New Roman,serif" font-size="14.00">Warrior stance</text>
<text text-anchor="middle" x="314.5" y="-668.45" font-family="Times New Roman,serif" font-size="14.00">alternating 360 / Gama cast</text>
</a>
</g>
</g>
<!-- mov_02_alt360&#45;&gt;mov_35_waralt360 -->
<g id="edge3" class="edge">
<title>mov_02_alt360&#45;&gt;mov_35_waralt360</title>
<path fill="none" stroke="black" d="M299.75,-742.63C299.75,-733.86 299.75,-723.25 299.75,-713.41"/>
<polygon fill="black" stroke="black" points="303.25,-713.48 299.75,-703.48 296.25,-713.48 303.25,-713.48"/>
</g>
<!-- mov_31_frcircle -->
<g id="node3" class="node">
<title>mov_31_frcircle</title>
<g id="a_node3"><a xlink:href="https://www.youtube.com/watch?v=ULozVN0nz_U" xlink:title="{{31 &#160;|Symmetrical stance\nFront Circles}}">
<path fill="#a6cee3" stroke="#1f78b4" d="M12,-819.5C12,-819.5 141.5,-819.5 141.5,-819.5 147.5,-819.5 153.5,-825.5 153.5,-831.5 153.5,-831.5 153.5,-847 153.5,-847 153.5,-853 147.5,-859 141.5,-859 141.5,-859 12,-859 12,-859 6,-859 0,-853 0,-847 0,-847 0,-831.5 0,-831.5 0,-825.5 6,-819.5 12,-819.5"/>
<text text-anchor="middle" x="14.75" y="-833.83" font-family="Times New Roman,serif" font-size="14.00">31</text>
<polyline fill="none" stroke="#1f78b4" points="29.5,-819.5 29.5,-859"/>
<text text-anchor="middle" x="91.5" y="-841.7" font-family="Times New Roman,serif" font-size="14.00">Symmetrical stance</text>
<text text-anchor="middle" x="91.5" y="-825.95" font-family="Times New Roman,serif" font-size="14.00">Front Circles</text>
</a>
</g>
</g>
<!-- mov_32_bkcircle -->
<g id="node4" class="node">
<title>mov_32_bkcircle</title>
<g id="a_node4"><a xlink:href="https://www.youtube.com/watch?v=KSja97kaEHY" xlink:title="{{32 &#160;|Backward Circle}}">
<path fill="#a6cee3" stroke="#1f78b4" d="M68.5,-744.75C68.5,-744.75 183,-744.75 183,-744.75 189,-744.75 195,-750.75 195,-756.75 195,-756.75 195,-768.75 195,-768.75 195,-774.75 189,-780.75 183,-780.75 183,-780.75 68.5,-780.75 68.5,-780.75 62.5,-780.75 56.5,-774.75 56.5,-768.75 56.5,-768.75 56.5,-756.75 56.5,-756.75 56.5,-750.75 62.5,-744.75 68.5,-744.75"/>
<text text-anchor="middle" x="71.25" y="-757.45" font-family="Times New Roman,serif" font-size="14.00">32</text>
<polyline fill="none" stroke="#1f78b4" points="86,-745 86,-780.75"/>
<text text-anchor="middle" x="140.5" y="-757.45" font-family="Times New Roman,serif" font-size="14.00">Backward Circle</text>
</a>
</g>
</g>
<!-- mov_31_frcircle&#45;&gt;mov_32_bkcircle -->
<g id="edge8" class="edge">
<title>mov_31_frcircle&#45;&gt;mov_32_bkcircle</title>
<path fill="none" stroke="black" d="M89.37,-819.06C95.09,-810.36 101.96,-799.92 108.18,-790.47"/>
<polygon fill="black" stroke="black" points="110.94,-792.63 113.51,-782.35 105.1,-788.78 110.94,-792.63"/>
</g>
<!-- mov_33_warfrcircle -->
<g id="node9" class="node">
<title>mov_33_warfrcircle</title>
<g id="a_node9"><a xlink:href="https://www.youtube.com/watch?v=-4GMydVrlSk" xlink:title="{{33 &#160;|Warrior Stance\nFront circle}}">
<path fill="#b2df8a" stroke="#33a02c" d="M65.62,-662C65.62,-662 171.88,-662 171.88,-662 177.88,-662 183.88,-668 183.88,-674 183.88,-674 183.88,-689.5 183.88,-689.5 183.88,-695.5 177.88,-701.5 171.88,-701.5 171.88,-701.5 65.62,-701.5 65.62,-701.5 59.62,-701.5 53.62,-695.5 53.62,-689.5 53.62,-689.5 53.62,-674 53.62,-674 53.62,-668 59.62,-662 65.62,-662"/>
<text text-anchor="middle" x="68.38" y="-676.33" font-family="Times New Roman,serif" font-size="14.00">33</text>
<polyline fill="none" stroke="#33a02c" points="83.12,-662 83.12,-701.5"/>
<text text-anchor="middle" x="133.5" y="-684.2" font-family="Times New Roman,serif" font-size="14.00">Warrior Stance</text>
<text text-anchor="middle" x="133.5" y="-668.45" font-family="Times New Roman,serif" font-size="14.00">Front circle</text>
</a>
</g>
</g>
<!-- mov_31_frcircle&#45;&gt;mov_33_warfrcircle -->
<g id="edge9" class="edge">
<title>mov_31_frcircle&#45;&gt;mov_33_warfrcircle</title>
<path fill="none" stroke="black" d="M63.09,-819.32C50.64,-799.58 35.88,-768.01 47.75,-742.5 53.92,-729.25 64.63,-717.88 75.9,-708.73"/>
<polygon fill="black" stroke="black" points="77.9,-711.61 83.77,-702.79 73.68,-706.02 77.9,-711.61"/>
</g>
<!-- mov_32_bkcircle&#45;&gt;mov_33_warfrcircle -->
<g id="edge10" class="edge">
<title>mov_32_bkcircle&#45;&gt;mov_33_warfrcircle</title>
<path fill="none" stroke="black" d="M124.23,-744.61C123.42,-735.44 122.39,-723.88 121.45,-713.24"/>
<polygon fill="black" stroke="black" points="124.94,-712.96 120.57,-703.3 117.97,-713.57 124.94,-712.96"/>
</g>
<!-- mov_22_incircle2sameflip -->
<g id="node5" class="node">
<title>mov_22_incircle2sameflip</title>
<g id="a_node5"><a xlink:href="https://www.youtube.com/watch?v=xlClTZRbmc0" xlink:title="{{22 &#160;|Inside circle to\nsame hand flip catch}}">
<path fill="#a6cee3" stroke="#1f78b4" d="M465.62,-509C465.62,-509 601.88,-509 601.88,-509 607.88,-509 613.88,-515 613.88,-521 613.88,-521 613.88,-536.5 613.88,-536.5 613.88,-542.5 607.88,-548.5 601.88,-548.5 601.88,-548.5 465.62,-548.5 465.62,-548.5 459.62,-548.5 453.62,-542.5 453.62,-536.5 453.62,-536.5 453.62,-521 453.62,-521 453.62,-515 459.62,-509 465.62,-509"/>
<text text-anchor="middle" x="468.38" y="-523.33" font-family="Times New Roman,serif" font-size="14.00">22</text>
<polyline fill="none" stroke="#1f78b4" points="483.12,-509 483.12,-548.5"/>
<text text-anchor="middle" x="548.5" y="-531.2" font-family="Times New Roman,serif" font-size="14.00">Inside circle to</text>
<text text-anchor="middle" x="548.5" y="-515.45" font-family="Times New Roman,serif" font-size="14.00">same hand flip catch</text>
</a>
</g>
</g>
<!-- mov_22_incircle2sameflip&#45;&gt;mov_27_inflip180pull -->
<g id="edge5" class="edge">
<title>mov_22_incircle2sameflip&#45;&gt;mov_27_inflip180pull</title>
<path fill="none" stroke="black" d="M536.53,-508.64C537.96,-498.87 539.72,-486.74 541.33,-475.73"/>
<polygon fill="black" stroke="black" points="544.79,-476.27 542.76,-465.87 537.86,-475.27 544.79,-476.27"/>
</g>
<!-- mov_39_warfrcircleflip -->
<g id="node14" class="node">
<title>mov_39_warfrcircleflip</title>
<g id="a_node14"><a xlink:href="https://www.youtube.com/watch?v=8hvIwt9EshQ" xlink:title="{{39 &#160;|Warrior stance\nfront circle flip catch}}">
<path fill="#ffff99" stroke="#b15928" d="M282.88,-424.62C282.88,-424.62 420.62,-424.62 420.62,-424.62 426.62,-424.62 432.62,-430.62 432.62,-436.62 432.62,-436.62 432.62,-452.12 432.62,-452.12 432.62,-458.12 426.62,-464.12 420.62,-464.12 420.62,-464.12 282.88,-464.12 282.88,-464.12 276.88,-464.12 270.88,-458.12 270.88,-452.12 270.88,-452.12 270.88,-436.62 270.88,-436.62 270.88,-430.62 276.88,-424.62 282.88,-424.62"/>
<text text-anchor="middle" x="285.62" y="-438.95" font-family="Times New Roman,serif" font-size="14.00">39</text>
<polyline fill="none" stroke="#b15928" points="300.38,-424.62 300.38,-464.12"/>
<text text-anchor="middle" x="366.5" y="-446.82" font-family="Times New Roman,serif" font-size="14.00">Warrior stance</text>
<text text-anchor="middle" x="366.5" y="-431.07" font-family="Times New Roman,serif" font-size="14.00">front circle flip catch</text>
</a>
</g>
</g>
<!-- mov_22_incircle2sameflip&#45;&gt;mov_39_warfrcircleflip -->
<g id="edge21" class="edge">
<title>mov_22_incircle2sameflip&#45;&gt;mov_39_warfrcircleflip</title>
<path fill="none" stroke="black" d="M491.54,-508.64C465.56,-496.89 432.05,-481.72 404.35,-469.18"/>
<polygon fill="black" stroke="black" points="405.98,-466.08 395.43,-465.14 403.09,-472.46 405.98,-466.08"/>
</g>
<!-- mov_23_outcircle2sameflip -->
<g id="node6" class="node">
<title>mov_23_outcircle2sameflip</title>
<g id="a_node6"><a xlink:href="https://www.youtube.com/watch?v=UwR4uFqvUyY" xlink:title="{{23 &#160;|Outside circle to\nsame side flip catch}}">
<path fill="#a6cee3" stroke="#1f78b4" d="M670.88,-424.62C670.88,-424.62 802.62,-424.62 802.62,-424.62 808.62,-424.62 814.62,-430.62 814.62,-436.62 814.62,-436.62 814.62,-452.12 814.62,-452.12 814.62,-458.12 808.62,-464.12 802.62,-464.12 802.62,-464.12 670.88,-464.12 670.88,-464.12 664.88,-464.12 658.88,-458.12 658.88,-452.12 658.88,-452.12 658.88,-436.62 658.88,-436.62 658.88,-430.62 664.88,-424.62 670.88,-424.62"/>
<text text-anchor="middle" x="673.62" y="-438.95" font-family="Times New Roman,serif" font-size="14.00">23</text>
<polyline fill="none" stroke="#1f78b4" points="688.38,-424.62 688.38,-464.12"/>
<text text-anchor="middle" x="751.5" y="-446.82" font-family="Times New Roman,serif" font-size="14.00">Outside circle to</text>
<text text-anchor="middle" x="751.5" y="-431.07" font-family="Times New Roman,serif" font-size="14.00">same side flip catch</text>
</a>
</g>
</g>
<!-- mov_28_outflipmill -->
<g id="node8" class="node">
<title>mov_28_outflipmill</title>
<g id="a_node8"><a xlink:href="https://www.youtube.com/watch?v=jKbelC2dZVo" xlink:title="{{28 &#160;|Outside flip catch mill\naka flip catch reverse mill}}">
<path fill="#a6cee3" stroke="#1f78b4" d="M464.5,-332.38C464.5,-332.38 627,-332.38 627,-332.38 633,-332.38 639,-338.38 639,-344.38 639,-344.38 639,-359.88 639,-359.88 639,-365.88 633,-371.88 627,-371.88 627,-371.88 464.5,-371.88 464.5,-371.88 458.5,-371.88 452.5,-365.88 452.5,-359.88 452.5,-359.88 452.5,-344.38 452.5,-344.38 452.5,-338.38 458.5,-332.38 464.5,-332.38"/>
<text text-anchor="middle" x="467.25" y="-346.7" font-family="Times New Roman,serif" font-size="14.00">28</text>
<polyline fill="none" stroke="#1f78b4" points="482,-332.38 482,-371.88"/>
<text text-anchor="middle" x="560.5" y="-354.57" font-family="Times New Roman,serif" font-size="14.00">Outside flip catch mill</text>
<text text-anchor="middle" x="560.5" y="-338.82" font-family="Times New Roman,serif" font-size="14.00">aka flip catch reverse mill</text>
</a>
</g>
</g>
<!-- mov_23_outcircle2sameflip&#45;&gt;mov_28_outflipmill -->
<g id="edge6" class="edge">
<title>mov_23_outcircle2sameflip&#45;&gt;mov_28_outflipmill</title>
<path fill="none" stroke="black" d="M696.24,-424.24C667.12,-410.48 627.65,-391.82 596.44,-377.08"/>
<polygon fill="black" stroke="black" points="598.1,-373.99 587.57,-372.88 595.11,-380.32 598.1,-373.99"/>
</g>
<!-- mov_40_warbkcircleflip -->
<g id="node15" class="node">
<title>mov_40_warbkcircleflip</title>
<g id="a_node15"><a xlink:href="https://www.youtube.com/watch?v=Eb5Ci22BqmI" xlink:title="{{40 &#160;|Warrior stance\nbackward circle to\nflip catch}}">
<path fill="#ffff99" stroke="#b15928" d="M295.25,-324.5C295.25,-324.5 420.25,-324.5 420.25,-324.5 426.25,-324.5 432.25,-330.5 432.25,-336.5 432.25,-336.5 432.25,-367.75 432.25,-367.75 432.25,-373.75 426.25,-379.75 420.25,-379.75 420.25,-379.75 295.25,-379.75 295.25,-379.75 289.25,-379.75 283.25,-373.75 283.25,-367.75 283.25,-367.75 283.25,-336.5 283.25,-336.5 283.25,-330.5 289.25,-324.5 295.25,-324.5"/>
<text text-anchor="middle" x="298" y="-346.7" font-family="Times New Roman,serif" font-size="14.00">40</text>
<polyline fill="none" stroke="#b15928" points="312.75,-324.5 312.75,-379.75"/>
<text text-anchor="middle" x="372.5" y="-362.45" font-family="Times New Roman,serif" font-size="14.00">Warrior stance</text>
<text text-anchor="middle" x="372.5" y="-346.7" font-family="Times New Roman,serif" font-size="14.00">backward circle to</text>
<text text-anchor="middle" x="372.5" y="-330.95" font-family="Times New Roman,serif" font-size="14.00">flip catch</text>
</a>
</g>
</g>
<!-- mov_23_outcircle2sameflip&#45;&gt;mov_40_warbkcircleflip -->
<g id="edge22" class="edge">
<title>mov_23_outcircle2sameflip&#45;&gt;mov_40_warbkcircleflip</title>
<path fill="none" stroke="black" d="M679.01,-424.23C669.3,-421.34 659.28,-418.56 649.75,-416.25 562.77,-395.18 536.02,-401.73 443.61,-380.02"/>
<polygon fill="black" stroke="black" points="444.64,-376.67 434.1,-377.74 443.01,-383.48 444.64,-376.67"/>
</g>
<!-- mov_27_inflip180pull&#45;&gt;mov_28_outflipmill -->
<g id="edge7" class="edge">
<title>mov_27_inflip180pull&#45;&gt;mov_28_outflipmill</title>
<path fill="none" stroke="black" d="M545.75,-424.24C545.75,-412.39 545.75,-396.92 545.75,-383.44"/>
<polygon fill="black" stroke="black" points="549.25,-383.75 545.75,-373.75 542.25,-383.75 549.25,-383.75"/>
</g>
<!-- mov_41_warfwdmill -->
<g id="node16" class="node">
<title>mov_41_warfwdmill</title>
<g id="a_node16"><a xlink:href="https://www.youtube.com/watch?v=ydXgS363htk" xlink:title="{{41 &#160;|Warrior stance\nforward mill}}">
<path fill="#ffff99" stroke="#b15928" d="M148.75,-332.38C148.75,-332.38 252.75,-332.38 252.75,-332.38 258.75,-332.38 264.75,-338.38 264.75,-344.38 264.75,-344.38 264.75,-359.88 264.75,-359.88 264.75,-365.88 258.75,-371.88 252.75,-371.88 252.75,-371.88 148.75,-371.88 148.75,-371.88 142.75,-371.88 136.75,-365.88 136.75,-359.88 136.75,-359.88 136.75,-344.38 136.75,-344.38 136.75,-338.38 142.75,-332.38 148.75,-332.38"/>
<text text-anchor="middle" x="151.5" y="-346.7" font-family="Times New Roman,serif" font-size="14.00">41</text>
<polyline fill="none" stroke="#b15928" points="166.25,-332.38 166.25,-371.88"/>
<text text-anchor="middle" x="215.5" y="-354.57" font-family="Times New Roman,serif" font-size="14.00">Warrior stance</text>
<text text-anchor="middle" x="215.5" y="-338.82" font-family="Times New Roman,serif" font-size="14.00">forward mill</text>
</a>
</g>
</g>
<!-- mov_27_inflip180pull&#45;&gt;mov_41_warfwdmill -->
<g id="edge23" class="edge">
<title>mov_27_inflip180pull&#45;&gt;mov_41_warfwdmill</title>
<path fill="none" stroke="black" d="M476.33,-424.2C465.78,-421.43 454.99,-418.7 444.75,-416.25 369.22,-398.17 348.36,-401.84 273.75,-380.25 269.29,-378.96 264.72,-377.53 260.14,-376.02"/>
<polygon fill="black" stroke="black" points="261.53,-372.79 250.93,-372.86 259.26,-379.42 261.53,-372.79"/>
</g>
<!-- mov_42_warbwdmill -->
<g id="node17" class="node">
<title>mov_42_warbwdmill</title>
<g id="a_node17"><a xlink:href="https://www.youtube.com/watch?v=HaQqkf-cSHE" xlink:title="{{42 &#160;|Warrior stance\nbackward mill}}">
<path fill="#ffff99" stroke="#b15928" d="M305.75,-205.25C305.75,-205.25 409.75,-205.25 409.75,-205.25 415.75,-205.25 421.75,-211.25 421.75,-217.25 421.75,-217.25 421.75,-232.75 421.75,-232.75 421.75,-238.75 415.75,-244.75 409.75,-244.75 409.75,-244.75 305.75,-244.75 305.75,-244.75 299.75,-244.75 293.75,-238.75 293.75,-232.75 293.75,-232.75 293.75,-217.25 293.75,-217.25 293.75,-211.25 299.75,-205.25 305.75,-205.25"/>
<text text-anchor="middle" x="308.5" y="-219.57" font-family="Times New Roman,serif" font-size="14.00">42</text>
<polyline fill="none" stroke="#b15928" points="323.25,-205.25 323.25,-244.75"/>
<text text-anchor="middle" x="372.5" y="-227.45" font-family="Times New Roman,serif" font-size="14.00">Warrior stance</text>
<text text-anchor="middle" x="372.5" y="-211.7" font-family="Times New Roman,serif" font-size="14.00">backward mill</text>
</a>
</g>
</g>
<!-- mov_28_outflipmill&#45;&gt;mov_42_warbwdmill -->
<g id="edge24" class="edge">
<title>mov_28_outflipmill&#45;&gt;mov_42_warbwdmill</title>
<path fill="none" stroke="black" d="M511.26,-331.88C490.24,-319.83 463.03,-303.66 439.75,-288 423.07,-276.78 405.2,-263.43 390.41,-252"/>
<polygon fill="black" stroke="black" points="392.87,-249.48 382.83,-246.1 388.57,-255 392.87,-249.48"/>
</g>
<!-- mov_36_warbkcircle -->
<g id="node10" class="node">
<title>mov_36_warbkcircle</title>
<g id="a_node10"><a xlink:href="https://www.youtube.com/watch?v=ZfGdlIsWKXQ" xlink:title="{{36 &#160;|Warrior stance\nbackward circle}}">
<path fill="#b2df8a" stroke="#33a02c" d="M64.75,-585.5C64.75,-585.5 174.75,-585.5 174.75,-585.5 180.75,-585.5 186.75,-591.5 186.75,-597.5 186.75,-597.5 186.75,-613 186.75,-613 186.75,-619 180.75,-625 174.75,-625 174.75,-625 64.75,-625 64.75,-625 58.75,-625 52.75,-619 52.75,-613 52.75,-613 52.75,-597.5 52.75,-597.5 52.75,-591.5 58.75,-585.5 64.75,-585.5"/>
<text text-anchor="middle" x="67.5" y="-599.83" font-family="Times New Roman,serif" font-size="14.00">36</text>
<polyline fill="none" stroke="#33a02c" points="82.25,-585.5 82.25,-625"/>
<text text-anchor="middle" x="134.5" y="-607.7" font-family="Times New Roman,serif" font-size="14.00">Warrior stance</text>
<text text-anchor="middle" x="134.5" y="-591.95" font-family="Times New Roman,serif" font-size="14.00">backward circle</text>
</a>
</g>
</g>
<!-- mov_33_warfrcircle&#45;&gt;mov_36_warbkcircle -->
<g id="edge11" class="edge">
<title>mov_33_warfrcircle&#45;&gt;mov_36_warbkcircle</title>
<path fill="none" stroke="black" d="M119.01,-661.56C119.11,-654 119.23,-645.13 119.34,-636.74"/>
<polygon fill="black" stroke="black" points="122.84,-636.93 119.47,-626.88 115.84,-636.84 122.84,-636.93"/>
</g>
<!-- mov_37_waraltcircle -->
<g id="node12" class="node">
<title>mov_37_waraltcircle</title>
<g id="a_node12"><a xlink:href="https://www.youtube.com/watch?v=h_wcGKGlCus" xlink:title="{{37 &#160;|Warrior stance\nalternating circles}}">
<path fill="#ffff99" stroke="#b15928" d="M147,-509C147,-509 264.5,-509 264.5,-509 270.5,-509 276.5,-515 276.5,-521 276.5,-521 276.5,-536.5 276.5,-536.5 276.5,-542.5 270.5,-548.5 264.5,-548.5 264.5,-548.5 147,-548.5 147,-548.5 141,-548.5 135,-542.5 135,-536.5 135,-536.5 135,-521 135,-521 135,-515 141,-509 147,-509"/>
<text text-anchor="middle" x="149.75" y="-523.33" font-family="Times New Roman,serif" font-size="14.00">37</text>
<polyline fill="none" stroke="#b15928" points="164.5,-509 164.5,-548.5"/>
<text text-anchor="middle" x="220.5" y="-531.2" font-family="Times New Roman,serif" font-size="14.00">Warrior stance</text>
<text text-anchor="middle" x="220.5" y="-515.45" font-family="Times New Roman,serif" font-size="14.00">alternating circles</text>
</a>
</g>
</g>
<!-- mov_33_warfrcircle&#45;&gt;mov_37_waraltcircle -->
<g id="edge13" class="edge">
<title>mov_33_warfrcircle&#45;&gt;mov_37_waraltcircle</title>
<path fill="none" stroke="black" d="M158.06,-661.61C172.28,-652.65 186.99,-640.58 195.75,-625.5 207.15,-605.87 209.27,-580.12 208.75,-560.27"/>
<polygon fill="black" stroke="black" points="212.24,-560.09 208.22,-550.29 205.25,-560.46 212.24,-560.09"/>
</g>
<!-- mov_36_warbkcircle&#45;&gt;mov_37_waraltcircle -->
<g id="edge12" class="edge">
<title>mov_36_warbkcircle&#45;&gt;mov_37_waraltcircle</title>
<path fill="none" stroke="black" d="M141.9,-585.06C152.03,-576.29 164.2,-565.75 175.18,-556.23"/>
<polygon fill="black" stroke="black" points="177.27,-559.05 182.53,-549.86 172.68,-553.76 177.27,-559.05"/>
</g>
<!-- mov_37_waraltcircle&#45;&gt;mov_39_warfrcircleflip -->
<g id="edge14" class="edge">
<title>mov_37_waraltcircle&#45;&gt;mov_39_warfrcircleflip</title>
<path fill="none" stroke="black" d="M239.61,-508.64C259.99,-497.15 286.15,-482.39 308.08,-470.01"/>
<polygon fill="black" stroke="black" points="309.51,-473.23 316.5,-465.26 306.07,-467.13 309.51,-473.23"/>
</g>
<!-- mov_38_war180pull&#45;&gt;mov_41_warfwdmill -->
<g id="edge16" class="edge">
<title>mov_38_war180pull&#45;&gt;mov_41_warfwdmill</title>
<path fill="none" stroke="black" d="M167.15,-416.3C172.89,-405.52 179.49,-393.09 185.33,-382.13"/>
<polygon fill="black" stroke="black" points="188.31,-383.97 189.91,-373.5 182.13,-380.68 188.31,-383.97"/>
</g>
<!-- mov_39_warfrcircleflip&#45;&gt;mov_40_warbkcircleflip -->
<g id="edge15" class="edge">
<title>mov_39_warfrcircleflip&#45;&gt;mov_40_warbkcircleflip</title>
<path fill="none" stroke="black" d="M353.02,-424.24C353.66,-414.71 354.44,-402.85 355.2,-391.55"/>
<polygon fill="black" stroke="black" points="358.68,-391.83 355.86,-381.62 351.7,-391.37 358.68,-391.83"/>
</g>
<!-- mov_39_warfrcircleflip&#45;&gt;mov_41_warfwdmill -->
<g id="edge17" class="edge">
<title>mov_39_warfrcircleflip&#45;&gt;mov_41_warfwdmill</title>
<path fill="none" stroke="black" d="M319.73,-424.24C297.2,-410.77 266.85,-392.63 242.44,-378.04"/>
<polygon fill="black" stroke="black" points="244.41,-375.14 234.03,-373.01 240.81,-381.15 244.41,-375.14"/>
</g>
<!-- mov_40_warbkcircleflip&#45;&gt;mov_42_warbwdmill -->
<g id="edge18" class="edge">
<title>mov_40_warbkcircleflip&#45;&gt;mov_42_warbwdmill</title>
<path fill="none" stroke="black" d="M357.75,-324.28C357.75,-304.35 357.75,-277.15 357.75,-256.42"/>
<polygon fill="black" stroke="black" points="361.25,-256.57 357.75,-246.57 354.25,-256.57 361.25,-256.57"/>
</g>
<!-- mov_41_warfwdmill&#45;&gt;mov_42_warbwdmill -->
<g id="edge19" class="edge">
<title>mov_41_warfwdmill&#45;&gt;mov_42_warbwdmill</title>
<path fill="none" stroke="black" d="M224.59,-332.12C251.34,-310.81 294.88,-276.11 324.85,-252.22"/>
<polygon fill="black" stroke="black" points="326.86,-255.1 332.5,-246.13 322.5,-249.62 326.86,-255.1"/>
</g>
<!-- mov_15_3602bar2sq -->
<!-- lay_end2h -->
<!-- mov_15_3602bar2sq&#45;&gt;lay_end2h -->
<!-- mov_16_saincircle -->
<!-- lay_end2h&#45;&gt;mov_16_saincircle -->
<!-- Legend -->
<g id="node21" class="node">
<title>Legend</title>
<path fill="#ffff99" stroke="none" d="M630.25,-288C630.25,-288 461.25,-288 461.25,-288 455.25,-288 449.25,-282 449.25,-276 449.25,-276 449.25,-174 449.25,-174 449.25,-168 455.25,-162 461.25,-162 461.25,-162 630.25,-162 630.25,-162 636.25,-162 642.25,-168 642.25,-174 642.25,-174 642.25,-276 642.25,-276 642.25,-282 636.25,-288 630.25,-288"/>
<polygon fill="none" stroke="#b15928" points="449.25,-262 449.25,-288 642.25,-288 642.25,-262 449.25,-262"/>
<text text-anchor="start" x="523.25" y="-270.7" font-family="Times New Roman,serif" font-weight="bold" font-size="14.00">Legend</text>
<polygon fill="none" stroke="#b15928" points="449.25,-237 449.25,-262 614.25,-262 614.25,-237 449.25,-237"/>
<text text-anchor="start" x="454.12" y="-243.7" font-family="Times New Roman,serif" font-size="14.00">Prerequisites and next steps</text>
<polygon fill="#a6cee3" stroke="none" points="614.25,-237 614.25,-262 642.25,-262 642.25,-237 614.25,-237"/>
<polygon fill="none" stroke="#b15928" points="614.25,-237 614.25,-262 642.25,-262 642.25,-237 614.25,-237"/>
<text text-anchor="start" x="618.88" y="-243.7" font-family="Times New Roman,serif" font-size="14.00">     </text>
<polygon fill="none" stroke="#b15928" points="449.25,-212 449.25,-237 614.25,-237 614.25,-212 449.25,-212"/>
<text text-anchor="start" x="493.12" y="-218.7" font-family="Times New Roman,serif" font-size="14.00">Isolated Drills</text>
<polygon fill="#b2df8a" stroke="none" points="614.25,-212 614.25,-237 642.25,-237 642.25,-212 614.25,-212"/>
<polygon fill="none" stroke="#b15928" points="614.25,-212 614.25,-237 642.25,-237 642.25,-212 614.25,-212"/>
<polygon fill="none" stroke="#b15928" points="449.25,-187 449.25,-212 614.25,-212 614.25,-187 449.25,-187"/>
<text text-anchor="start" x="487.5" y="-193.7" font-family="Times New Roman,serif" font-size="14.00">Integrated Drills</text>
<polygon fill="#ffff99" stroke="none" points="614.25,-187 614.25,-212 642.25,-212 642.25,-187 614.25,-187"/>
<polygon fill="none" stroke="#b15928" points="614.25,-187 614.25,-212 642.25,-212 642.25,-187 614.25,-187"/>
<polygon fill="none" stroke="#b15928" points="449.25,-162 449.25,-187 614.25,-187 614.25,-162 449.25,-162"/>
<text text-anchor="start" x="492.38" y="-168.7" font-family="Times New Roman,serif" font-size="14.00">Learning drills</text>
<polygon fill="#cab2d6" stroke="none" points="614.25,-162 614.25,-187 642.25,-187 642.25,-162 614.25,-162"/>
<polygon fill="none" stroke="#b15928" points="614.25,-162 614.25,-187 642.25,-187 642.25,-162 614.25,-162"/>
</g>
</g>
</svg>
